<svg width="392" height="208" viewBox="0 0 392 208" fill="none" xmlns="http://www.w3.org/2000/svg">
<path d="M4.68527 19.9999H8.00011C9.47287 19.9999 10.6668 18.806 10.6668 17.3332V14.6665C10.6668 13.1938 11.8607 11.9999 13.3334 11.9999H16.0001C17.4729 11.9999 18.6668 10.806 18.6668 9.3332V4.29944M23.3207 21.3551C20.8497 21.7685 18.672 23.2154 17.3334 25.3332M27.6925 13.3332C26.3749 7.54485 21.0217 3.59077 15.1018 4.03324C9.18189 4.47572 4.47596 9.18165 4.03349 15.1016C3.59101 21.0215 7.54509 26.3747 13.3334 27.6923M23.0001 25.9999C26.4829 25.9999 27.3377 21.6656 29.3334 20.514C27.8592 18.494 25.5007 17.3097 23.0001 17.3337C20.6069 17.3337 18.6668 19.2733 18.6668 21.6665C18.6668 24.0598 20.6069 25.9999 23.0001 25.9999Z" stroke="#E8EAEB" stroke-width="1.5" stroke-linecap="round" stroke-linejoin="round"/>
<path d="M60.6853 19.9999H64.0001C65.4729 19.9999 66.6668 18.806 66.6668 17.3332V14.6665C66.6668 13.1938 67.8607 11.9999 69.3334 11.9999H72.0001C73.4729 11.9999 74.6668 10.806 74.6668 9.3332V4.29944M79.3207 21.3551C76.8497 21.7685 74.672 23.2154 73.3334 25.3332M83.6925 13.3332C82.3749 7.54485 77.0217 3.59077 71.1018 4.03324C65.1819 4.47572 60.476 9.18165 60.0335 15.1016C59.591 21.0215 63.5451 26.3747 69.3334 27.6923M79.0001 25.9999C82.4829 25.9999 83.3377 21.6656 85.3334 20.514C83.8592 18.494 81.5007 17.3097 79.0001 17.3337C76.6069 17.3337 74.6668 19.2733 74.6668 21.6665C74.6668 24.0598 76.6069 25.9999 79.0001 25.9999Z" stroke="#E8EAEB" stroke-width="1.5" stroke-linecap="round" stroke-linejoin="round"/>
<path d="M116.685 19.9999H120C121.473 19.9999 122.667 18.806 122.667 17.3332V14.6665C122.667 13.1938 123.861 11.9999 125.333 11.9999H128C129.473 11.9999 130.667 10.806 130.667 9.3332V4.29944M135.321 21.3551C132.85 21.7685 130.672 23.2154 129.333 25.3332M139.692 13.3332C138.375 7.54485 133.022 3.59077 127.102 4.03324C121.182 4.47572 116.476 9.18165 116.033 15.1016C115.591 21.0215 119.545 26.3747 125.333 27.6923M135 25.9999C138.483 25.9999 139.338 21.6656 141.333 20.514C139.859 18.494 137.501 17.3097 135 17.3337C132.607 17.3337 130.667 19.2733 130.667 21.6665C130.667 24.0598 132.607 25.9999 135 25.9999Z" stroke="#E8EAEB" stroke-width="1.5" stroke-linecap="round" stroke-linejoin="round"/>
<path d="M172.685 19.9999H176C177.473 19.9999 178.667 18.806 178.667 17.3332V14.6665C178.667 13.1938 179.861 11.9999 181.333 11.9999H184C185.473 11.9999 186.667 10.806 186.667 9.3332V4.29944M191.321 21.3551C188.85 21.7685 186.672 23.2154 185.333 25.3332M195.692 13.3332C194.375 7.54485 189.022 3.59077 183.102 4.03324C177.182 4.47572 172.476 9.18165 172.033 15.1016C171.591 21.0215 175.545 26.3747 181.333 27.6923M191 25.9999C194.483 25.9999 195.338 21.6656 197.333 20.514C195.859 18.494 193.501 17.3097 191 17.3337C188.607 17.3337 186.667 19.2733 186.667 21.6665C186.667 24.0598 188.607 25.9999 191 25.9999Z" stroke="#E8EAEB" stroke-width="1.5" stroke-linecap="round" stroke-linejoin="round"/>
<path d="M228.685 19.9999H232C233.473 19.9999 234.667 18.806 234.667 17.3332V14.6665C234.667 13.1938 235.861 11.9999 237.333 11.9999H240C241.473 11.9999 242.667 10.806 242.667 9.3332V4.29944M247.321 21.3551C244.85 21.7685 242.672 23.2154 241.333 25.3332M251.692 13.3332C250.375 7.54485 245.022 3.59077 239.102 4.03324C233.182 4.47572 228.476 9.18165 228.033 15.1016C227.591 21.0215 231.545 26.3747 237.333 27.6923M247 25.9999C250.483 25.9999 251.338 21.6656 253.333 20.514C251.859 18.494 249.501 17.3097 247 17.3337C244.607 17.3337 242.667 19.2733 242.667 21.6665C242.667 24.0598 244.607 25.9999 247 25.9999Z" stroke="#E8EAEB" stroke-width="1.5" stroke-linecap="round" stroke-linejoin="round"/>
<path d="M284.685 19.9999H288C289.473 19.9999 290.667 18.806 290.667 17.3332V14.6665C290.667 13.1938 291.861 11.9999 293.333 11.9999H296C297.473 11.9999 298.667 10.806 298.667 9.3332V4.29944M303.321 21.3551C300.85 21.7685 298.672 23.2154 297.333 25.3332M307.692 13.3332C306.375 7.54485 301.022 3.59077 295.102 4.03324C289.182 4.47572 284.476 9.18165 284.033 15.1016C283.591 21.0215 287.545 26.3747 293.333 27.6923M303 25.9999C306.483 25.9999 307.338 21.6656 309.333 20.514C307.859 18.494 305.501 17.3097 303 17.3337C300.607 17.3337 298.667 19.2733 298.667 21.6665C298.667 24.0598 300.607 25.9999 303 25.9999Z" stroke="#E8EAEB" stroke-width="1.5" stroke-linecap="round" stroke-linejoin="round"/>
<path d="M340.685 19.9999H344C345.473 19.9999 346.667 18.806 346.667 17.3332V14.6665C346.667 13.1938 347.861 11.9999 349.333 11.9999H352C353.473 11.9999 354.667 10.806 354.667 9.3332V4.29944M359.321 21.3551C356.85 21.7685 354.672 23.2154 353.333 25.3332M363.692 13.3332C362.375 7.54485 357.022 3.59077 351.102 4.03324C345.182 4.47572 340.476 9.18165 340.033 15.1016C339.591 21.0215 343.545 26.3747 349.333 27.6923M359 25.9999C362.483 25.9999 363.338 21.6656 365.333 20.514C363.859 18.494 361.501 17.3097 359 17.3337C356.607 17.3337 354.667 19.2733 354.667 21.6665C354.667 24.0598 356.607 25.9999 359 25.9999Z" stroke="#E8EAEB" stroke-width="1.5" stroke-linecap="round" stroke-linejoin="round"/>
<path d="M28.6853 63.9999H32.0001C33.4729 63.9999 34.6668 62.806 34.6668 61.3332V58.6665C34.6668 57.1938 35.8607 55.9999 37.3334 55.9999H40.0001C41.4729 55.9999 42.6668 54.806 42.6668 53.3332V48.2994M47.3207 65.3551C44.8497 65.7685 42.672 67.2154 41.3334 69.3332M51.6925 57.3332C50.3749 51.5448 45.0217 47.5908 39.1018 48.0332C33.1819 48.4757 28.476 53.1816 28.0335 59.1016C27.591 65.0215 31.5451 70.3747 37.3334 71.6923M47.0001 69.9999C50.4829 69.9999 51.3377 65.6656 53.3334 64.514C51.8592 62.494 49.5007 61.3097 47.0001 61.3337C44.6069 61.3337 42.6668 63.2733 42.6668 65.6665C42.6668 68.0598 44.6069 69.9999 47.0001 69.9999Z" stroke="#E8EAEB" stroke-width="1.5" stroke-linecap="round" stroke-linejoin="round"/>
<path d="M84.6853 63.9999H88.0001C89.4729 63.9999 90.6668 62.806 90.6668 61.3332V58.6665C90.6668 57.1938 91.8607 55.9999 93.3334 55.9999H96.0001C97.4729 55.9999 98.6668 54.806 98.6668 53.3332V48.2994M103.321 65.3551C100.85 65.7685 98.672 67.2154 97.3334 69.3332M107.692 57.3332C106.375 51.5448 101.022 47.5908 95.1018 48.0332C89.1819 48.4757 84.476 53.1816 84.0335 59.1016C83.591 65.0215 87.5451 70.3747 93.3334 71.6923M103 69.9999C106.483 69.9999 107.338 65.6656 109.333 64.514C107.859 62.494 105.501 61.3097 103 61.3337C100.607 61.3337 98.6668 63.2733 98.6668 65.6665C98.6668 68.0598 100.607 69.9999 103 69.9999Z" stroke="#E8EAEB" stroke-width="1.5" stroke-linecap="round" stroke-linejoin="round"/>
<path d="M140.685 63.9999H144C145.473 63.9999 146.667 62.806 146.667 61.3332V58.6665C146.667 57.1938 147.861 55.9999 149.333 55.9999H152C153.473 55.9999 154.667 54.806 154.667 53.3332V48.2994M159.321 65.3551C156.85 65.7685 154.672 67.2154 153.333 69.3332M163.692 57.3332C162.375 51.5448 157.022 47.5908 151.102 48.0332C145.182 48.4757 140.476 53.1816 140.033 59.1016C139.591 65.0215 143.545 70.3747 149.333 71.6923M159 69.9999C162.483 69.9999 163.338 65.6656 165.333 64.514C163.859 62.494 161.501 61.3097 159 61.3337C156.607 61.3337 154.667 63.2733 154.667 65.6665C154.667 68.0598 156.607 69.9999 159 69.9999Z" stroke="#E8EAEB" stroke-width="1.5" stroke-linecap="round" stroke-linejoin="round"/>
<path d="M196.685 63.9999H200C201.473 63.9999 202.667 62.806 202.667 61.3332V58.6665C202.667 57.1938 203.861 55.9999 205.333 55.9999H208C209.473 55.9999 210.667 54.806 210.667 53.3332V48.2994M215.321 65.3551C212.85 65.7685 210.672 67.2154 209.333 69.3332M219.692 57.3332C218.375 51.5448 213.022 47.5908 207.102 48.0332C201.182 48.4757 196.476 53.1816 196.033 59.1016C195.591 65.0215 199.545 70.3747 205.333 71.6923M215 69.9999C218.483 69.9999 219.338 65.6656 221.333 64.514C219.859 62.494 217.501 61.3097 215 61.3337C212.607 61.3337 210.667 63.2733 210.667 65.6665C210.667 68.0598 212.607 69.9999 215 69.9999Z" stroke="#E8EAEB" stroke-width="1.5" stroke-linecap="round" stroke-linejoin="round"/>
<path d="M252.685 63.9999H256C257.473 63.9999 258.667 62.806 258.667 61.3332V58.6665C258.667 57.1938 259.861 55.9999 261.333 55.9999H264C265.473 55.9999 266.667 54.806 266.667 53.3332V48.2994M271.321 65.3551C268.85 65.7685 266.672 67.2154 265.333 69.3332M275.692 57.3332C274.375 51.5448 269.022 47.5908 263.102 48.0332C257.182 48.4757 252.476 53.1816 252.033 59.1016C251.591 65.0215 255.545 70.3747 261.333 71.6923M271 69.9999C274.483 69.9999 275.338 65.6656 277.333 64.514C275.859 62.494 273.501 61.3097 271 61.3337C268.607 61.3337 266.667 63.2733 266.667 65.6665C266.667 68.0598 268.607 69.9999 271 69.9999Z" stroke="#E8EAEB" stroke-width="1.5" stroke-linecap="round" stroke-linejoin="round"/>
<path d="M308.685 63.9999H312C313.473 63.9999 314.667 62.806 314.667 61.3332V58.6665C314.667 57.1938 315.861 55.9999 317.333 55.9999H320C321.473 55.9999 322.667 54.806 322.667 53.3332V48.2994M327.321 65.3551C324.85 65.7685 322.672 67.2154 321.333 69.3332M331.692 57.3332C330.375 51.5448 325.022 47.5908 319.102 48.0332C313.182 48.4757 308.476 53.1816 308.033 59.1016C307.591 65.0215 311.545 70.3747 317.333 71.6923M327 69.9999C330.483 69.9999 331.338 65.6656 333.333 64.514C331.859 62.494 329.501 61.3097 327 61.3337C324.607 61.3337 322.667 63.2733 322.667 65.6665C322.667 68.0598 324.607 69.9999 327 69.9999Z" stroke="#E8EAEB" stroke-width="1.5" stroke-linecap="round" stroke-linejoin="round"/>
<path d="M364.685 63.9999H368C369.473 63.9999 370.667 62.806 370.667 61.3332V58.6665C370.667 57.1938 371.861 55.9999 373.333 55.9999H376C377.473 55.9999 378.667 54.806 378.667 53.3332V48.2994M383.321 65.3551C380.85 65.7685 378.672 67.2154 377.333 69.3332M387.692 57.3332C386.375 51.5448 381.022 47.5908 375.102 48.0332C369.182 48.4757 364.476 53.1816 364.033 59.1016C363.591 65.0215 367.545 70.3747 373.333 71.6923M383 69.9999C386.483 69.9999 387.338 65.6656 389.333 64.514C387.859 62.494 385.501 61.3097 383 61.3337C380.607 61.3337 378.667 63.2733 378.667 65.6665C378.667 68.0598 380.607 69.9999 383 69.9999Z" stroke="#E8EAEB" stroke-width="1.5" stroke-linecap="round" stroke-linejoin="round"/>
<path d="M4.68527 108H8.00011C9.47287 108 10.6668 106.806 10.6668 105.333V102.667C10.6668 101.194 11.8607 99.9999 13.3334 99.9999H16.0001C17.4729 99.9999 18.6668 98.806 18.6668 97.3332V92.2994M23.3207 109.355C20.8497 109.768 18.672 111.215 17.3334 113.333M27.6925 101.333C26.3749 95.5448 21.0217 91.5908 15.1018 92.0332C9.18189 92.4757 4.47596 97.1816 4.03349 103.102C3.59101 109.021 7.54509 114.375 13.3334 115.692M23.0001 114C26.4829 114 27.3377 109.666 29.3334 108.514C27.8592 106.494 25.5007 105.31 23.0001 105.334C20.6069 105.334 18.6668 107.273 18.6668 109.667C18.6668 112.06 20.6069 114 23.0001 114Z" stroke="#E8EAEB" stroke-width="1.5" stroke-linecap="round" stroke-linejoin="round"/>
<path d="M60.6853 108H64.0001C65.4729 108 66.6668 106.806 66.6668 105.333V102.667C66.6668 101.194 67.8607 99.9999 69.3334 99.9999H72.0001C73.4729 99.9999 74.6668 98.806 74.6668 97.3332V92.2994M79.3207 109.355C76.8497 109.768 74.672 111.215 73.3334 113.333M83.6925 101.333C82.3749 95.5448 77.0217 91.5908 71.1018 92.0332C65.1819 92.4757 60.476 97.1816 60.0335 103.102C59.591 109.021 63.5451 114.375 69.3334 115.692M79.0001 114C82.4829 114 83.3377 109.666 85.3334 108.514C83.8592 106.494 81.5007 105.31 79.0001 105.334C76.6069 105.334 74.6668 107.273 74.6668 109.667C74.6668 112.06 76.6069 114 79.0001 114Z" stroke="#E8EAEB" stroke-width="1.5" stroke-linecap="round" stroke-linejoin="round"/>
<path d="M116.685 108H120C121.473 108 122.667 106.806 122.667 105.333V102.667C122.667 101.194 123.861 99.9999 125.333 99.9999H128C129.473 99.9999 130.667 98.806 130.667 97.3332V92.2994M135.321 109.355C132.85 109.768 130.672 111.215 129.333 113.333M139.692 101.333C138.375 95.5448 133.022 91.5908 127.102 92.0332C121.182 92.4757 116.476 97.1816 116.033 103.102C115.591 109.021 119.545 114.375 125.333 115.692M135 114C138.483 114 139.338 109.666 141.333 108.514C139.859 106.494 137.501 105.31 135 105.334C132.607 105.334 130.667 107.273 130.667 109.667C130.667 112.06 132.607 114 135 114Z" stroke="#E8EAEB" stroke-width="1.5" stroke-linecap="round" stroke-linejoin="round"/>
<path d="M172.685 108H176C177.473 108 178.667 106.806 178.667 105.333V102.667C178.667 101.194 179.861 99.9999 181.333 99.9999H184C185.473 99.9999 186.667 98.806 186.667 97.3332V92.2994M191.321 109.355C188.85 109.768 186.672 111.215 185.333 113.333M195.692 101.333C194.375 95.5448 189.022 91.5908 183.102 92.0332C177.182 92.4757 172.476 97.1816 172.033 103.102C171.591 109.021 175.545 114.375 181.333 115.692M191 114C194.483 114 195.338 109.666 197.333 108.514C195.859 106.494 193.501 105.31 191 105.334C188.607 105.334 186.667 107.273 186.667 109.667C186.667 112.06 188.607 114 191 114Z" stroke="#E8EAEB" stroke-width="1.5" stroke-linecap="round" stroke-linejoin="round"/>
<path d="M228.685 108H232C233.473 108 234.667 106.806 234.667 105.333V102.667C234.667 101.194 235.861 99.9999 237.333 99.9999H240C241.473 99.9999 242.667 98.806 242.667 97.3332V92.2994M247.321 109.355C244.85 109.768 242.672 111.215 241.333 113.333M251.692 101.333C250.375 95.5448 245.022 91.5908 239.102 92.0332C233.182 92.4757 228.476 97.1816 228.033 103.102C227.591 109.021 231.545 114.375 237.333 115.692M247 114C250.483 114 251.338 109.666 253.333 108.514C251.859 106.494 249.501 105.31 247 105.334C244.607 105.334 242.667 107.273 242.667 109.667C242.667 112.06 244.607 114 247 114Z" stroke="#E8EAEB" stroke-width="1.5" stroke-linecap="round" stroke-linejoin="round"/>
<path d="M284.685 108H288C289.473 108 290.667 106.806 290.667 105.333V102.667C290.667 101.194 291.861 99.9999 293.333 99.9999H296C297.473 99.9999 298.667 98.806 298.667 97.3332V92.2994M303.321 109.355C300.85 109.768 298.672 111.215 297.333 113.333M307.692 101.333C306.375 95.5448 301.022 91.5908 295.102 92.0332C289.182 92.4757 284.476 97.1816 284.033 103.102C283.591 109.021 287.545 114.375 293.333 115.692M303 114C306.483 114 307.338 109.666 309.333 108.514C307.859 106.494 305.501 105.31 303 105.334C300.607 105.334 298.667 107.273 298.667 109.667C298.667 112.06 300.607 114 303 114Z" stroke="#E8EAEB" stroke-width="1.5" stroke-linecap="round" stroke-linejoin="round"/>
<path d="M340.685 108H344C345.473 108 346.667 106.806 346.667 105.333V102.667C346.667 101.194 347.861 99.9999 349.333 99.9999H352C353.473 99.9999 354.667 98.806 354.667 97.3332V92.2994M359.321 109.355C356.85 109.768 354.672 111.215 353.333 113.333M363.692 101.333C362.375 95.5448 357.022 91.5908 351.102 92.0332C345.182 92.4757 340.476 97.1816 340.033 103.102C339.591 109.021 343.545 114.375 349.333 115.692M359 114C362.483 114 363.338 109.666 365.333 108.514C363.859 106.494 361.501 105.31 359 105.334C356.607 105.334 354.667 107.273 354.667 109.667C354.667 112.06 356.607 114 359 114Z" stroke="#E8EAEB" stroke-width="1.5" stroke-linecap="round" stroke-linejoin="round"/>
<path d="M28.6853 152H32.0001C33.4729 152 34.6668 150.806 34.6668 149.333V146.667C34.6668 145.194 35.8607 144 37.3334 144H40.0001C41.4729 144 42.6668 142.806 42.6668 141.333V136.299M47.3207 153.355C44.8497 153.768 42.672 155.215 41.3334 157.333M51.6925 145.333C50.3749 139.545 45.0217 135.591 39.1018 136.033C33.1819 136.476 28.476 141.182 28.0335 147.102C27.591 153.021 31.5451 158.375 37.3334 159.692M47.0001 158C50.4829 158 51.3377 153.666 53.3334 152.514C51.8592 150.494 49.5007 149.31 47.0001 149.334C44.6069 149.334 42.6668 151.273 42.6668 153.667C42.6668 156.06 44.6069 158 47.0001 158Z" stroke="#E8EAEB" stroke-width="1.5" stroke-linecap="round" stroke-linejoin="round"/>
<path d="M84.6853 152H88.0001C89.4729 152 90.6668 150.806 90.6668 149.333V146.667C90.6668 145.194 91.8607 144 93.3334 144H96.0001C97.4729 144 98.6668 142.806 98.6668 141.333V136.299M103.321 153.355C100.85 153.768 98.672 155.215 97.3334 157.333M107.692 145.333C106.375 139.545 101.022 135.591 95.1018 136.033C89.1819 136.476 84.476 141.182 84.0335 147.102C83.591 153.021 87.5451 158.375 93.3334 159.692M103 158C106.483 158 107.338 153.666 109.333 152.514C107.859 150.494 105.501 149.31 103 149.334C100.607 149.334 98.6668 151.273 98.6668 153.667C98.6668 156.06 100.607 158 103 158Z" stroke="#E8EAEB" stroke-width="1.5" stroke-linecap="round" stroke-linejoin="round"/>
<path d="M140.685 152H144C145.473 152 146.667 150.806 146.667 149.333V146.667C146.667 145.194 147.861 144 149.333 144H152C153.473 144 154.667 142.806 154.667 141.333V136.299M159.321 153.355C156.85 153.768 154.672 155.215 153.333 157.333M163.692 145.333C162.375 139.545 157.022 135.591 151.102 136.033C145.182 136.476 140.476 141.182 140.033 147.102C139.591 153.021 143.545 158.375 149.333 159.692M159 158C162.483 158 163.338 153.666 165.333 152.514C163.859 150.494 161.501 149.31 159 149.334C156.607 149.334 154.667 151.273 154.667 153.667C154.667 156.06 156.607 158 159 158Z" stroke="#E8EAEB" stroke-width="1.5" stroke-linecap="round" stroke-linejoin="round"/>
<path d="M196.685 152H200C201.473 152 202.667 150.806 202.667 149.333V146.667C202.667 145.194 203.861 144 205.333 144H208C209.473 144 210.667 142.806 210.667 141.333V136.299M215.321 153.355C212.85 153.768 210.672 155.215 209.333 157.333M219.692 145.333C218.375 139.545 213.022 135.591 207.102 136.033C201.182 136.476 196.476 141.182 196.033 147.102C195.591 153.021 199.545 158.375 205.333 159.692M215 158C218.483 158 219.338 153.666 221.333 152.514C219.859 150.494 217.501 149.31 215 149.334C212.607 149.334 210.667 151.273 210.667 153.667C210.667 156.06 212.607 158 215 158Z" stroke="#E8EAEB" stroke-width="1.5" stroke-linecap="round" stroke-linejoin="round"/>
<path d="M252.685 152H256C257.473 152 258.667 150.806 258.667 149.333V146.667C258.667 145.194 259.861 144 261.333 144H264C265.473 144 266.667 142.806 266.667 141.333V136.299M271.321 153.355C268.85 153.768 266.672 155.215 265.333 157.333M275.692 145.333C274.375 139.545 269.022 135.591 263.102 136.033C257.182 136.476 252.476 141.182 252.033 147.102C251.591 153.021 255.545 158.375 261.333 159.692M271 158C274.483 158 275.338 153.666 277.333 152.514C275.859 150.494 273.501 149.31 271 149.334C268.607 149.334 266.667 151.273 266.667 153.667C266.667 156.06 268.607 158 271 158Z" stroke="#E8EAEB" stroke-width="1.5" stroke-linecap="round" stroke-linejoin="round"/>
<path d="M308.685 152H312C313.473 152 314.667 150.806 314.667 149.333V146.667C314.667 145.194 315.861 144 317.333 144H320C321.473 144 322.667 142.806 322.667 141.333V136.299M327.321 153.355C324.85 153.768 322.672 155.215 321.333 157.333M331.692 145.333C330.375 139.545 325.022 135.591 319.102 136.033C313.182 136.476 308.476 141.182 308.033 147.102C307.591 153.021 311.545 158.375 317.333 159.692M327 158C330.483 158 331.338 153.666 333.333 152.514C331.859 150.494 329.501 149.31 327 149.334C324.607 149.334 322.667 151.273 322.667 153.667C322.667 156.06 324.607 158 327 158Z" stroke="#E8EAEB" stroke-width="1.5" stroke-linecap="round" stroke-linejoin="round"/>
<path d="M364.685 152H368C369.473 152 370.667 150.806 370.667 149.333V146.667C370.667 145.194 371.861 144 373.333 144H376C377.473 144 378.667 142.806 378.667 141.333V136.299M383.321 153.355C380.85 153.768 378.672 155.215 377.333 157.333M387.692 145.333C386.375 139.545 381.022 135.591 375.102 136.033C369.182 136.476 364.476 141.182 364.033 147.102C363.591 153.021 367.545 158.375 373.333 159.692M383 158C386.483 158 387.338 153.666 389.333 152.514C387.859 150.494 385.501 149.31 383 149.334C380.607 149.334 378.667 151.273 378.667 153.667C378.667 156.06 380.607 158 383 158Z" stroke="#E8EAEB" stroke-width="1.5" stroke-linecap="round" stroke-linejoin="round"/>
<path d="M4.68527 196H8.00011C9.47287 196 10.6668 194.806 10.6668 193.333V190.667C10.6668 189.194 11.8607 188 13.3334 188H16.0001C17.4729 188 18.6668 186.806 18.6668 185.333V180.299M23.3207 197.355C20.8497 197.768 18.672 199.215 17.3334 201.333M27.6925 189.333C26.3749 183.545 21.0217 179.591 15.1018 180.033C9.18189 180.476 4.47596 185.182 4.03349 191.102C3.59101 197.021 7.54509 202.375 13.3334 203.692M23.0001 202C26.4829 202 27.3377 197.666 29.3334 196.514C27.8592 194.494 25.5007 193.31 23.0001 193.334C20.6069 193.334 18.6668 195.273 18.6668 197.667C18.6668 200.06 20.6069 202 23.0001 202Z" stroke="#E8EAEB" stroke-width="1.5" stroke-linecap="round" stroke-linejoin="round"/>
<path d="M60.6853 196H64.0001C65.4729 196 66.6668 194.806 66.6668 193.333V190.667C66.6668 189.194 67.8607 188 69.3334 188H72.0001C73.4729 188 74.6668 186.806 74.6668 185.333V180.299M79.3207 197.355C76.8497 197.768 74.672 199.215 73.3334 201.333M83.6925 189.333C82.3749 183.545 77.0217 179.591 71.1018 180.033C65.1819 180.476 60.476 185.182 60.0335 191.102C59.591 197.021 63.5451 202.375 69.3334 203.692M79.0001 202C82.4829 202 83.3377 197.666 85.3334 196.514C83.8592 194.494 81.5007 193.31 79.0001 193.334C76.6069 193.334 74.6668 195.273 74.6668 197.667C74.6668 200.06 76.6069 202 79.0001 202Z" stroke="#E8EAEB" stroke-width="1.5" stroke-linecap="round" stroke-linejoin="round"/>
<path d="M116.685 196H120C121.473 196 122.667 194.806 122.667 193.333V190.667C122.667 189.194 123.861 188 125.333 188H128C129.473 188 130.667 186.806 130.667 185.333V180.299M135.321 197.355C132.85 197.768 130.672 199.215 129.333 201.333M139.692 189.333C138.375 183.545 133.022 179.591 127.102 180.033C121.182 180.476 116.476 185.182 116.033 191.102C115.591 197.021 119.545 202.375 125.333 203.692M135 202C138.483 202 139.338 197.666 141.333 196.514C139.859 194.494 137.501 193.31 135 193.334C132.607 193.334 130.667 195.273 130.667 197.667C130.667 200.06 132.607 202 135 202Z" stroke="#E8EAEB" stroke-width="1.5" stroke-linecap="round" stroke-linejoin="round"/>
<path d="M172.685 196H176C177.473 196 178.667 194.806 178.667 193.333V190.667C178.667 189.194 179.861 188 181.333 188H184C185.473 188 186.667 186.806 186.667 185.333V180.299M191.321 197.355C188.85 197.768 186.672 199.215 185.333 201.333M195.692 189.333C194.375 183.545 189.022 179.591 183.102 180.033C177.182 180.476 172.476 185.182 172.033 191.102C171.591 197.021 175.545 202.375 181.333 203.692M191 202C194.483 202 195.338 197.666 197.333 196.514C195.859 194.494 193.501 193.31 191 193.334C188.607 193.334 186.667 195.273 186.667 197.667C186.667 200.06 188.607 202 191 202Z" stroke="#E8EAEB" stroke-width="1.5" stroke-linecap="round" stroke-linejoin="round"/>
<path d="M228.685 196H232C233.473 196 234.667 194.806 234.667 193.333V190.667C234.667 189.194 235.861 188 237.333 188H240C241.473 188 242.667 186.806 242.667 185.333V180.299M247.321 197.355C244.85 197.768 242.672 199.215 241.333 201.333M251.692 189.333C250.375 183.545 245.022 179.591 239.102 180.033C233.182 180.476 228.476 185.182 228.033 191.102C227.591 197.021 231.545 202.375 237.333 203.692M247 202C250.483 202 251.338 197.666 253.333 196.514C251.859 194.494 249.501 193.31 247 193.334C244.607 193.334 242.667 195.273 242.667 197.667C242.667 200.06 244.607 202 247 202Z" stroke="#E8EAEB" stroke-width="1.5" stroke-linecap="round" stroke-linejoin="round"/>
<path d="M284.685 196H288C289.473 196 290.667 194.806 290.667 193.333V190.667C290.667 189.194 291.861 188 293.333 188H296C297.473 188 298.667 186.806 298.667 185.333V180.299M303.321 197.355C300.85 197.768 298.672 199.215 297.333 201.333M307.692 189.333C306.375 183.545 301.022 179.591 295.102 180.033C289.182 180.476 284.476 185.182 284.033 191.102C283.591 197.021 287.545 202.375 293.333 203.692M303 202C306.483 202 307.338 197.666 309.333 196.514C307.859 194.494 305.501 193.31 303 193.334C300.607 193.334 298.667 195.273 298.667 197.667C298.667 200.06 300.607 202 303 202Z" stroke="#E8EAEB" stroke-width="1.5" stroke-linecap="round" stroke-linejoin="round"/>
<path d="M340.685 196H344C345.473 196 346.667 194.806 346.667 193.333V190.667C346.667 189.194 347.861 188 349.333 188H352C353.473 188 354.667 186.806 354.667 185.333V180.299M359.321 197.355C356.85 197.768 354.672 199.215 353.333 201.333M363.692 189.333C362.375 183.545 357.022 179.591 351.102 180.033C345.182 180.476 340.476 185.182 340.033 191.102C339.591 197.021 343.545 202.375 349.333 203.692M359 202C362.483 202 363.338 197.666 365.333 196.514C363.859 194.494 361.501 193.31 359 193.334C356.607 193.334 354.667 195.273 354.667 197.667C354.667 200.06 356.607 202 359 202Z" stroke="#E8EAEB" stroke-width="1.5" stroke-linecap="round" stroke-linejoin="round"/>
</svg>
