<svg width="342" height="338" viewBox="0 0 342 338" fill="none" xmlns="http://www.w3.org/2000/svg">
<path d="M99.8086 95.1358C99.8086 95.1358 91.0297 91.8464 89.0156 84.7999C86.9963 77.7585 92.8658 75.9994 92.8658 75.9994C92.8658 75.9994 87.4337 72.0999 90.7601 62.1809C94.0865 52.2619 103.425 58.3476 103.425 58.3476C103.425 58.3476 102.001 53.2025 103.684 49.1861C105.368 45.1697 108.949 53.3194 108.949 53.3194C108.949 53.3194 108.882 41.7278 121.598 41.1329C134.314 40.5381 140.137 50.0707 140.137 50.0707C140.137 50.0707 152.019 41.3719 154.979 44.3867C157.944 47.4016 149.588 51.5756 149.588 51.5756C149.588 51.5756 161.169 50.9604 164.577 57.7578C167.985 64.5552 162.878 68.9834 162.878 68.9834C162.878 68.9834 169.76 70.5188 169.394 73.7472C169.027 76.9756 163.763 76.9095 163.763 76.9095C163.763 76.9095 171.967 81.3377 169.007 87.7589C166.047 94.18 164.358 95.1511 164.358 95.1511C164.358 95.1511 168.239 104.999 163.977 108.7C159.714 112.401 156.113 112.442 156.113 112.442C156.113 112.442 152.894 123.805 147.579 122.946C142.264 122.086 140.275 113.967 140.275 113.967L99.8086 95.1358Z" fill="#152E51"/>
<path d="M139.181 159.368L108.582 158.107L95.0322 154.965C95.0322 154.965 114.533 138.843 115.108 123.845C115.337 117.811 120.352 112.986 126.313 110.093C135.178 105.782 146.139 105.726 146.612 112.305C146.612 112.305 136.943 128.818 138.057 144.095C139.181 159.368 139.181 159.368 139.181 159.368Z" fill="url(#paint0_linear_1510_58489)"/>
<path d="M141.582 117.562C141.582 117.562 130.672 141.864 115.357 148.275C114.889 148.468 114.401 148.646 113.897 148.788L104.92 145.031C104.92 145.031 114.533 138.839 115.108 123.841C115.337 117.806 120.352 112.981 126.313 110.088C135.921 112.213 141.582 117.562 141.582 117.562Z" fill="#F078A5"/>
<path d="M154.064 106.941C153.881 110.769 145.432 113.794 145.432 113.794C145.432 113.794 141.038 124.313 139.212 127.653C137.798 130.231 120.52 133.271 111.151 133.922C111.131 133.927 111.115 133.927 111.1 133.927C104.605 134.074 106.121 128.99 103.313 125.025C100.399 120.891 97.7996 110.159 97.6369 109.498C97.6318 109.473 97.6318 109.462 97.6318 109.462C97.4996 108.049 97.4538 106.788 97.5097 105.776C97.9421 98.5622 100.79 95.4813 98.6897 91.1141C96.584 86.7418 100.18 78.1395 100.18 78.1395L108.939 78.287C108.939 78.287 112.28 82.6745 122.778 83.0914C133.276 83.5083 142.045 79.8071 143.505 80.5494C144.97 81.2967 141.196 92.3037 141.099 95.9134C140.997 99.5231 138.703 101.892 141.908 102.187C145.117 102.482 148.53 95.3186 152.451 96.5896C156.368 97.8555 154.247 103.118 154.064 106.941Z" fill="url(#paint1_linear_1510_58489)"/>
<path d="M107.443 98.4458C107.397 100.108 106.456 101.445 105.347 101.425C104.239 101.405 103.374 100.042 103.42 98.3798C103.465 96.7173 104.406 95.3802 105.515 95.4005C106.629 95.4157 107.489 96.7783 107.443 98.4458Z" fill="#152E51"/>
<path d="M127 99.6357C126.954 101.298 126.013 102.635 124.904 102.615C123.795 102.595 122.931 101.232 122.976 99.5696C123.022 97.9071 123.963 96.57 125.072 96.5903C126.186 96.6056 127.05 97.9681 127 99.6357Z" fill="#152E51"/>
<path opacity="0.36" d="M110.551 101.979C112.499 105.477 108.17 106.077 107.428 108.726C106.945 110.444 108.435 110.561 109.066 111.741C109.559 112.666 110.856 111.771 110.363 110.851C110.052 110.271 108.888 109.636 109.096 108.888C109.193 108.533 110.2 107.77 110.424 107.551C110.897 107.084 111.451 106.616 111.878 106.092C113.135 104.547 112.758 102.706 111.853 101.084C111.334 100.174 110.037 101.064 110.551 101.979Z" fill="#C14276"/>
<path d="M101.852 92.6802C101.654 92.7768 103.531 90.6262 104.792 90.433C106.054 90.2398 107.31 90.1178 107.661 90.7686C108.012 91.4193 108.358 92.2887 107.62 92.2734C106.878 92.2633 103.719 91.7803 101.852 92.6802Z" fill="#152E51"/>
<path d="M123.2 91.801C123.2 91.801 122.875 93.1025 123.154 93.4686C123.434 93.8346 124.909 93.3567 126.476 94.2413C128.042 95.131 129.426 95.797 129.426 95.797C129.426 95.797 128.678 93.7736 127.676 92.6094C126.669 91.4451 123.358 90.6316 123.2 91.801Z" fill="#152E51"/>
<path d="M107.926 96.4575C107.911 97.0218 107.427 97.4692 106.853 97.4591C106.278 97.4489 105.82 96.9862 105.835 96.4219C105.851 95.8576 106.334 95.4102 106.909 95.4203C107.483 95.4305 107.941 95.8931 107.926 96.4575Z" fill="white"/>
<path d="M127.355 97.8001C127.34 98.3645 126.857 98.8119 126.282 98.8017C125.702 98.7915 125.25 98.3289 125.265 97.7645C125.28 97.2002 125.763 96.7528 126.338 96.763C126.913 96.7732 127.371 97.2409 127.355 97.8001Z" fill="white"/>
<path d="M118.851 121.964C118.068 122.498 117.137 122.991 116.044 123.403C113.211 124.491 110.434 124.252 108.282 123.088C106.614 122.188 105.327 120.734 104.681 118.909C104.447 118.243 104.966 117.587 105.652 117.607C105.719 117.597 105.79 117.612 105.866 117.623C107.188 117.923 109.299 118.217 112.061 117.968C115.698 117.638 120.026 115.741 121.974 115.37C122.656 115.238 123.047 115.299 123.022 115.665C122.966 116.835 122.173 119.748 118.851 121.964Z" fill="#C14276"/>
<path d="M121.979 115.376L121.821 116.652C121.786 116.937 118.505 118.655 114.044 119.148C109.589 119.641 106.893 119.011 106.267 118.899C105.988 118.848 105.794 118.253 105.662 117.608C105.728 117.597 105.799 117.613 105.876 117.623C107.198 117.923 109.309 118.218 112.071 117.969C115.702 117.643 120.031 115.747 121.979 115.376Z" fill="white"/>
<path opacity="0.38" d="M118.851 121.965C118.068 122.499 117.137 122.992 116.044 123.404C113.211 124.492 110.434 124.253 108.282 123.088C109.452 121.395 112.107 120.384 115.037 120.699C116.502 120.856 117.809 121.319 118.851 121.965Z" fill="url(#paint2_linear_1510_58489)"/>
<path d="M171.402 511.551C168.167 511.226 164.963 510.875 161.794 510.493C151.683 509.289 141.917 507.819 132.503 506.111C129.039 483.238 125.758 460.634 123.073 442.758C114.645 386.62 109.157 354.647 107.076 364.103C107.061 364.154 107.051 364.199 107.046 364.25V364.255C107.02 364.388 106.99 364.54 106.965 364.708C106.939 364.886 106.903 365.074 106.883 365.282C105.83 373.529 104.945 409.305 104.065 447.67C104.04 448.798 104.009 449.927 103.984 451.056C103.959 452.184 103.933 453.323 103.908 454.452C103.882 455.586 103.857 456.729 103.831 457.863C103.811 458.428 103.806 458.997 103.791 459.566C103.75 461.275 103.714 462.978 103.674 464.681C103.658 465.245 103.648 465.81 103.638 466.379C103.603 468.087 103.557 469.78 103.521 471.478C103.465 473.736 103.414 475.978 103.363 478.215C103.343 478.774 103.338 479.333 103.323 479.887C103.272 482.114 103.221 484.321 103.17 486.517C103.15 487.071 103.14 487.615 103.13 488.159C103.038 491.977 102.946 495.734 102.85 499.39C102.845 499.507 102.845 499.624 102.84 499.741C99.2131 498.836 95.6476 497.895 92.1381 496.924C88.0894 495.801 84.1222 494.641 80.2261 493.431C73.2681 491.291 66.5644 489.023 60.0947 486.659C59.0418 402.432 59.0724 303.216 59.0724 299.515C59.0724 299.444 59.0724 299.408 59.0724 299.408C59.0724 299.408 59.2199 297.497 59.5657 294.304C60.3032 287.4 61.9359 274.501 64.8707 261.959C67.9937 248.613 72.5865 235.669 79.1478 230.794C79.5598 230.489 80.0125 230.25 80.4957 230.087C87.6571 227.616 102.072 240.265 116.695 256.183C121.918 261.878 127.167 267.978 132.116 273.962C132.436 274.349 132.752 274.73 133.067 275.117C137.243 280.175 141.185 285.117 144.699 289.621C144.806 289.754 144.908 289.886 145.01 290.018C146.317 291.696 147.563 293.312 148.743 294.843C153.829 301.477 157.603 306.597 159.221 308.819C159.79 309.602 160.096 310.024 160.096 310.024C160.096 310.024 163.213 365.852 163.051 402.706C163.051 403.372 163.046 404.038 163.04 404.694C163.035 405.182 163.025 405.665 163.02 406.143C163.015 407.099 162.995 408.034 162.99 408.954C162.974 409.549 162.964 410.134 162.954 410.714C162.934 411.476 162.923 412.224 162.903 412.951C162.878 413.922 162.842 414.872 162.817 415.782C162.801 416.296 162.781 416.804 162.761 417.287C162.735 417.775 162.72 418.248 162.695 418.711C162.669 419.163 162.649 419.611 162.623 420.043C161.784 435.305 166.458 474.031 171.402 511.551Z" fill="#5E4060"/>
<path opacity="0.48" d="M171.402 511.55C168.167 511.225 164.963 510.874 161.794 510.493C159.978 481.295 157.303 455.661 154.821 448.02C148.28 427.892 151.927 423.179 149.699 388.877C148.356 368.154 140.757 336.12 134.959 314.009C133.993 310.338 133.082 306.947 132.253 303.917C129.812 295 128.123 289.296 128.123 289.296C128.123 289.296 129.537 283.149 132.009 274.328C132.039 274.206 132.08 274.089 132.111 273.967C132.431 274.353 132.746 274.735 133.062 275.121C137.238 280.18 141.179 285.122 144.694 289.626C144.801 289.758 144.903 289.89 145.004 290.022C146.362 291.726 147.654 293.124 148.875 294.273C155.696 300.684 160.172 299.184 160.172 299.184C160.172 299.184 160.324 302.392 160.568 307.817C161.392 326.674 163.218 372.303 163.05 402.716C163.05 403.382 163.045 404.048 163.04 404.704C163.035 405.192 163.025 405.675 163.02 406.153C163.015 407.109 162.994 408.044 162.989 408.964C162.974 409.559 162.964 410.144 162.954 410.723C162.933 411.486 162.923 412.233 162.903 412.96C162.877 413.931 162.842 414.882 162.816 415.792C162.801 416.306 162.781 416.814 162.76 417.297C162.735 417.785 162.72 418.258 162.694 418.721C162.669 419.173 162.649 419.62 162.623 420.053C161.784 435.305 166.458 474.03 171.402 511.55Z" fill="#1A1535"/>
<path d="M68.6958 257.429C62.6076 266.265 27.4005 296.246 27.4005 296.246L22.9297 280.902C22.9297 280.902 26.5155 276.149 30.7371 270.409C36.4998 262.554 43.4273 252.853 43.941 250.952C44.47 249.015 49.0222 229.507 52.6792 213.793C55.2325 202.811 57.3535 193.675 57.3535 193.675C57.3535 193.675 85.0786 194.478 87.7591 199.613C90.4395 204.743 74.7891 248.598 68.6958 257.429Z" fill="url(#paint3_linear_1510_58489)"/>
<path d="M68.6958 257.429C62.6076 266.265 27.4005 296.246 27.4005 296.246L22.9297 280.902C22.9297 280.902 26.5155 276.149 30.7371 270.409C32.7563 276.093 34.5111 281.04 35.0045 282.519C36.3472 286.551 53.3302 264.349 52.4401 260.459C51.5704 256.641 44.236 251.176 43.9512 250.962C44.2665 251.095 54.2814 255.523 57.3585 259.509C60.4917 263.556 62.7246 225.583 62.2821 221.434C62.0989 219.726 57.74 216.726 52.6843 213.798C55.2376 202.816 57.3585 193.68 57.3585 193.68C57.3585 193.68 85.0837 194.483 87.7642 199.618C90.4395 204.743 74.7891 248.598 68.6958 257.429Z" fill="#F078A5"/>
<path d="M87.7994 149.063C87.7994 149.063 75.4805 159.282 73.1714 163.206C70.8622 167.126 52.0024 200.035 53.5435 202.018C55.0847 204.001 73.8631 212.878 73.8631 212.878L87.7994 149.063Z" fill="url(#paint4_linear_1510_58489)"/>
<g opacity="0.38">
<path d="M87.7994 149.063C87.7994 149.063 75.4805 159.282 73.1714 163.206C70.8622 167.126 52.0024 200.035 53.5435 202.018C55.0847 204.001 73.8631 212.878 73.8631 212.878L87.7994 149.063Z" fill="#FB6089"/>
</g>
<path d="M161.317 217.468C161.027 224.551 164.013 301.696 160.93 307.319C157.853 312.947 120.515 315.804 104.351 316.104C88.1867 316.409 57.3945 300.262 57.3945 297.756C57.3945 297.532 57.6234 296.144 58.0456 293.826C62.2672 270.45 85.6995 151.528 87.8002 149.062C90.1093 146.347 110.795 136.54 110.795 136.54C110.795 136.54 106.752 154.299 117.433 155.956C128.114 157.609 142.549 135.102 143.993 136.54C145.438 137.984 170.838 150.389 171.128 152.987C171.291 154.431 168.336 171.986 165.62 188.52C163.453 201.749 161.444 214.321 161.317 217.468Z" fill="url(#paint5_linear_1510_58489)"/>
<g opacity="0.52">
<path d="M160.925 307.319C157.848 312.947 120.51 315.805 104.346 316.105C88.1818 316.41 57.3896 300.263 57.3896 297.756C57.3896 297.533 57.6185 296.145 58.0407 293.826C72.2313 298.397 96.5691 306.028 100.882 306.043C107.042 306.069 146.689 302.749 146.689 302.749C146.689 302.749 150.534 288.707 150.153 287.222C149.766 285.732 143.607 283.704 126.252 269.85C108.893 256.001 115.541 229.36 115.541 229.36C115.541 229.36 150.534 232.914 153.723 228.298C156.902 223.681 155.544 180.97 155.544 180.97L165.625 188.52C163.453 201.749 161.444 214.322 161.317 217.469C161.027 224.551 164.013 301.696 160.925 307.319Z" fill="#FB6089"/>
</g>
<path d="M197.154 204.982C193.736 207.534 189.937 209.629 188.64 210.504C186.407 212.014 179.139 214.8 175.772 215.705C175.08 215.888 174.551 215.994 174.271 215.994C172.598 215.994 154.003 190.599 155.544 177.661C157.085 164.727 171.133 152.988 171.133 152.988C180.182 151.544 201.732 190.599 203.273 196.111C204.067 198.968 200.832 202.237 197.154 204.982Z" fill="url(#paint6_linear_1510_58489)"/>
<path d="M114.01 213.727L119.004 254.435C119.004 254.435 126.797 258.965 139.044 259.194C151.297 259.423 155.971 256.728 155.971 256.728L161.785 213.732H114.01V213.727Z" fill="url(#paint7_linear_1510_58489)"/>
<path d="M137.894 221.831C151.088 221.831 161.784 218.202 161.784 213.727C161.784 209.251 151.088 205.623 137.894 205.623C124.7 205.623 114.004 209.251 114.004 213.727C114.004 218.202 124.7 221.831 137.894 221.831Z" fill="#D89C6F"/>
<path d="M137.895 218.724C148.28 218.724 156.699 216.487 156.699 213.727C156.699 210.967 148.28 208.729 137.895 208.729C127.51 208.729 119.091 210.967 119.091 213.727C119.091 216.487 127.51 218.724 137.895 218.724Z" fill="url(#paint8_linear_1510_58489)"/>
<path d="M158.84 153.526C158.84 153.526 157.38 138.056 164.389 133.241C171.398 128.426 172.273 128.864 176.067 126.672C179.862 124.481 185.263 124.923 189.79 124.923C194.317 124.923 204.098 122.295 205.705 120.693C207.312 119.087 206.875 120.693 205.705 122.005C204.535 123.317 200.156 128.864 193.732 129.885C187.308 130.907 184.241 135.575 176.652 142.438C169.063 149.291 161.032 154.106 158.84 153.526Z" fill="url(#paint9_linear_1510_58489)"/>
<path d="M141.908 218.282C141.908 218.282 143.77 192.78 146.618 183.258C149.467 173.735 155.011 163.023 159.044 155.794C163.077 148.564 167.533 139.804 174.028 134.918C180.523 130.028 187.97 127.765 189.943 127.404C191.916 127.038 196.876 126.164 196.876 126.164C196.876 126.164 182.715 126.382 174.755 133.093C166.801 139.804 165.483 140.135 159.898 151.06C154.314 161.986 149.131 169.576 145.993 179.424C142.854 189.272 142.198 199.273 141.247 205.038C140.296 210.803 139.218 219.629 139.218 219.629L141.908 218.282Z" fill="#307762"/>
<path d="M132.625 167.365C132.625 167.365 133.398 163.877 132.04 160.181C130.687 156.485 123.989 151.848 120.378 150.491C116.761 149.139 110.973 148.559 108.755 148.559C106.538 148.559 105.266 148.559 103.293 148.559C101.319 148.559 100.46 148.396 99.5138 147.695C98.5677 146.998 98.2422 146.546 98.2422 146.546C98.2422 146.546 99.2696 148.518 102.265 148.844C105.261 149.169 110.668 149.662 115.541 151.513C120.418 153.358 121.69 155.662 124.976 159.109C128.261 162.556 130.428 163.094 130.428 163.094L132.625 167.365Z" fill="url(#paint10_linear_1510_58489)"/>
<path d="M112.859 149.714C112.859 149.714 119.39 151.066 123.907 154.31C128.423 157.553 130.234 159.892 131.877 164.94C133.52 169.989 135.203 177.051 135.859 181.031C136.516 185.012 138.28 200.615 138.611 205.293C138.942 209.975 139.267 215.267 139.267 215.267H137.334C137.334 215.267 137.172 202.664 136.678 197.616C136.185 192.567 135.966 186.37 134.832 180.167C133.698 173.965 131.775 167.538 130.56 163.502C129.344 159.465 124.975 155.581 122.467 153.979C119.965 152.383 112.859 149.714 112.859 149.714Z" fill="#307762"/>
<path d="M139.827 171.875C139.827 171.875 145.849 172.424 152.528 166.511C159.206 160.598 161.398 151.188 159.318 139.367C157.238 127.547 156.251 124.375 155.488 122.183C154.72 119.992 154.394 119.118 153.296 119.885C152.202 120.653 147.055 124.812 145.849 127.217C144.644 129.626 139.278 130.719 136.323 136.408C133.368 142.098 133.037 145.712 131.176 148.666C129.314 151.62 127.671 160.487 131.176 166.069C134.68 171.656 139.827 171.875 139.827 171.875Z" fill="#E1FF8D"/>
<path d="M152.528 125.579C152.528 125.579 149.461 132.254 147.93 137.949C146.399 143.638 142.126 159.851 140.702 169.475C139.278 179.099 139.059 196.395 139.278 201.21C139.497 206.024 139.207 220.255 139.207 220.255H137.31C137.31 220.255 137.528 198.983 137.818 192.419C138.108 185.856 138.108 179.796 139.792 168.56C141.47 157.324 144.903 145.504 146.216 141.269C147.528 137.033 152.528 125.579 152.528 125.579Z" fill="url(#paint11_linear_1510_58489)"/>
<path d="M209.6 233C209.361 237.393 209.397 240.616 207.464 242.151C205.536 243.687 175.497 260.764 167.349 262.228C159.195 263.693 159.017 263.627 155.452 264.623C151.892 265.62 141.302 264.582 138.993 265.004C136.684 265.426 119.752 257.175 118.984 256.392C118.21 255.614 119.563 252.726 121.674 252.925C123.795 253.113 123.795 253.113 123.795 253.113C123.795 253.113 121.293 250.225 122.641 249.264C123.983 248.308 126.872 248.883 126.872 248.883C126.872 248.883 125.138 245.802 126.293 244.648C127.447 243.494 128.22 243.306 129.955 243.88C131.689 244.46 143.81 248.11 145.346 248.11C146.887 248.11 154.969 248.308 154.582 246.376C154.201 244.455 147.655 243.3 148.428 241.76C149.196 240.225 150.162 237.754 152.471 239.376C154.781 240.992 160.167 245.415 162.669 245.415C165.177 245.415 169.917 236.351 174.281 232.99C178.645 229.635 180.568 227.54 180.38 226.284C180.339 226.02 180.003 225.161 179.49 223.951C179.118 223.091 178.671 222.059 178.167 220.946C178.045 220.661 177.913 220.366 177.781 220.076C177.74 219.99 177.699 219.899 177.659 219.812C177.399 219.232 177.135 218.648 176.86 218.058C176.494 217.26 176.133 216.467 175.782 215.699C179.149 214.794 186.417 212.013 188.65 210.498C189.947 209.619 193.746 207.524 197.164 204.977C197.515 205.668 197.876 206.375 198.238 207.097C198.461 207.549 198.695 208.007 198.929 208.47C199.062 208.734 199.194 209.008 199.331 209.278C204.346 219.304 209.727 230.651 209.6 233Z" fill="url(#paint12_linear_1510_58489)"/>
<path d="M123.785 253.118C123.785 253.118 128.622 256.219 130.061 256.58C131.506 256.941 136.846 257.302 136.846 257.302C136.846 257.302 131.648 256.219 129.99 255.569C128.332 254.918 122.691 251.532 122.691 251.532L123.785 253.118Z" fill="#F078A5"/>
<path d="M126.246 247.51C126.246 247.51 129.771 249.727 131.434 250.23C133.092 250.734 139.948 252.035 139.948 252.035C139.948 252.035 133.753 251.537 133.097 251.532C132.441 251.527 126.862 248.883 126.862 248.883L126.246 247.51Z" fill="#F078A5"/>
<path d="M199.326 209.278C196.412 212.059 193.66 214.484 191.524 215.989C187.434 218.877 182.984 221.749 179.474 223.961C179.103 223.102 178.656 222.07 178.152 220.956C178.03 220.671 177.898 220.377 177.765 220.087C177.725 220 177.684 219.909 177.643 219.822C177.384 219.243 177.12 218.658 176.845 218.068C176.479 217.27 176.118 216.477 175.767 215.709C179.134 214.804 186.402 212.023 188.635 210.508C189.932 209.629 193.731 207.534 197.149 204.987C197.5 205.678 197.861 206.385 198.222 207.107C198.446 207.56 198.68 208.017 198.914 208.48C199.057 208.739 199.189 209.009 199.326 209.278Z" fill="#F078A5"/>
<path d="M1.85762 175.647C6.81163 183.441 32.8939 190.36 32.8939 190.36C32.8939 190.36 65.6087 188.073 69.6574 184.316C73.3958 180.858 73.2686 79.5279 46.2657 75.5013C43.9565 75.1301 41.4541 75.481 38.7278 76.6859C7.73222 90.3518 -1.33656 153.089 0.733545 171.321C0.982771 173.364 1.34899 174.854 1.85762 175.647Z" fill="url(#paint13_linear_1510_58489)"/>
<path d="M1.85747 175.647C6.81148 183.441 32.8938 190.36 32.8938 190.36C32.8938 190.36 65.6086 188.072 69.6572 184.315C73.3956 180.858 73.2684 79.5276 46.2655 75.501C52.3334 85.9436 60.9139 103.895 61.7532 123.144C63.0705 153.241 49.6428 182.785 41.7642 177.858C33.8602 172.917 44.1395 110.149 41.5201 115.208C38.8956 120.246 34.0636 177.111 30.02 178.052C27.5481 178.626 13.3473 176.008 0.733398 171.331C0.982625 173.364 1.34885 174.854 1.85747 175.647Z" fill="#ADADAD"/>
<path d="M38.7425 158.85L38.061 189.944L32.3847 268.147L31.9676 273.882L31.459 280.888L31.0521 286.505L30.9657 287.68L30.5384 293.547L30.5282 293.75L30.396 295.53L30.1976 298.29L17.8482 468.357C15.1932 467.01 12.589 465.653 10.0459 464.285L22.0495 298.911L22.5276 292.306L22.609 291.249L23.0921 284.533L23.1633 283.541L23.2702 282.082L23.4024 280.272L23.616 277.293L29.9891 189.532L34.9126 157.985C35.3653 157.848 35.8434 157.792 36.3418 157.833C36.6318 157.853 36.9115 157.904 37.176 157.985C37.766 158.153 38.3 158.453 38.7425 158.85Z" fill="#77555B"/>
<path d="M36.3424 157.833C36.6323 157.853 36.912 157.904 37.1765 157.985H34.9131C35.3658 157.848 35.8439 157.792 36.3424 157.833Z" fill="#77555B"/>
<path d="M23.5049 270.572C23.5049 270.572 7.56457 266.169 7.44759 266.754C7.33061 267.333 6.86775 269.275 8.1444 270.572C9.42614 271.873 20.0208 276.408 20.0208 276.408C20.0208 276.408 18.7391 278.503 18.8561 279.901C18.973 281.299 18.973 281.299 18.973 281.299C18.973 281.299 17.5285 283.277 17.203 285.371C16.8775 287.466 18.5102 288.584 18.5102 288.584C18.5102 288.584 17.1827 291.31 17.203 293.053C17.2284 294.797 20.1378 298.524 20.9516 298.753C21.7654 298.986 28.0215 299.449 29.4355 298.753C30.8494 298.056 31.9582 296.658 31.3428 296.19C30.7274 295.722 28.4029 294.213 28.4029 294.213C28.4029 294.213 31.3123 294.096 32.0142 292.469C32.711 290.842 33.062 290.842 32.711 289.794C32.3601 288.747 29.4355 286.302 29.4355 286.302C29.4355 286.302 33.1739 287.115 33.7588 285.605C34.3386 284.09 34.5726 283.16 33.7588 282.229C32.945 281.299 22.9301 276.993 22.9301 276.993L23.5049 270.572Z" fill="url(#paint14_linear_1510_58489)"/>
<path d="M29.3134 286.749L29.5677 285.854C27.1874 285.188 20.7176 283.022 19.3647 281.034L18.5967 281.558C20.4125 284.227 28.9472 286.647 29.3134 286.749Z" fill="#F078A5"/>
<path d="M28.3068 294.665L28.5052 293.755C22.9001 292.524 18.8922 288.3 18.8515 288.259L18.1699 288.894C18.3429 289.083 22.4119 293.373 28.3068 294.665Z" fill="#F078A5"/>
<path d="M241.311 2.68246C241.311 2.68246 215.648 -2.6169 206.21 20.347C196.768 43.3109 194.193 58.6309 199.348 71.7255C204.507 84.8202 202.111 91.9732 192.991 96.1255C183.874 100.278 176.567 106.463 183.012 119.268C189.461 132.074 193.757 133.23 177.425 142.365C161.093 151.505 184.366 194.304 215.368 190.84C246.37 187.375 301.53 188.357 313.074 177.988C324.618 167.614 326.142 147.091 314.97 137.373C303.797 127.656 321.616 121.494 322.589 102.934C323.562 84.3798 303.246 77.0386 301.8 66.7978C300.354 56.557 297.527 32.7076 289.701 16.8095C281.874 0.916022 252.328 -3.49783 241.311 2.68246Z" fill="#27215E"/>
<path d="M220.379 86.0408C220.379 86.0408 196.028 70.3859 202.698 39.5579C209.367 8.72983 236.059 -1.96523 260.318 4.64176C284.582 11.2488 295.401 29.1932 293.45 52.3085C291.499 75.4192 281.97 83.7926 281.97 83.7926L220.379 86.0408Z" fill="#27215E"/>
<path d="M288.378 128.477C288.378 128.477 269.783 162.902 255.568 164.104C241.356 165.302 207.151 133.304 212.599 128.477C213.531 127.647 229.362 120.457 229.812 119.113C231.956 112.62 229.206 101.7 229.206 101.7C229.206 101.7 276.471 87.4678 271.642 100.498C269.485 106.33 270.031 113.217 271.312 119.048C272.873 126.233 288.378 128.477 288.378 128.477Z" fill="url(#paint15_linear_1510_58489)"/>
<g opacity="0.25">
<path d="M271.638 100.494C269.481 106.325 270.027 113.212 271.308 119.044C263.932 125.678 256.45 133.988 250.597 134.001C242.941 134.024 235.491 125.197 229.813 119.113C231.957 112.62 229.207 101.7 229.207 101.7C229.207 101.7 276.467 87.4633 271.638 100.494Z" fill="#D60055"/>
</g>
<path d="M218.608 74.9191C218.608 74.9191 211.305 71.8358 209.73 77.0388C208.156 82.2418 212.452 89.7619 213.026 92.9415C213.6 96.1211 222.477 99.8834 223.483 99.3053C224.479 98.7272 218.608 74.9191 218.608 74.9191Z" fill="url(#paint16_linear_1510_58489)"/>
<path d="M281.764 75.6441C281.764 75.6441 288.305 72.8958 289.884 78.1034C291.459 83.3064 287.162 90.8265 286.589 94.0061C286.015 97.1857 277.137 100.948 276.132 100.37C275.131 99.7872 281.764 75.6441 281.764 75.6441Z" fill="url(#paint17_linear_1510_58489)"/>
<path d="M283.091 73.2902C283.054 74.1298 282.999 74.9328 282.902 75.6852C282.356 80.2413 281.668 83.9944 280.933 87.3301C279.983 91.643 278.95 95.2585 278.028 98.9887C276.6 104.784 267.897 113.813 262.049 117.86C261.999 117.883 261.962 117.906 261.912 117.942C261.127 118.479 260.383 118.92 259.736 119.25C255.274 121.512 253.599 121.852 251.047 121.819H250.803C250.712 121.819 250.615 121.819 250.523 121.829C247.994 121.842 246.319 121.507 241.857 119.25C236.354 116.465 225.2 105.609 223.579 98.9887C222.569 94.8914 221.417 90.9455 220.384 86.0454C219.751 83.0309 219.168 79.6678 218.691 75.6852C218.424 73.4003 218.411 70.6382 218.581 67.7247C218.672 66.073 218.695 64.3157 218.874 62.6181L218.897 62.5171C218.939 62.1409 218.975 61.7739 219.026 61.4022C219.035 61.3563 219.012 61.3885 219.012 61.3426C220.013 52.8085 221.881 44.8801 221.881 44.8801C223.18 29.3216 234.876 23.3569 243.427 21.072C246.076 21.2785 248.596 21.9116 250.803 23.1229C254.567 25.1784 259.217 24.4856 263.546 22.9302C270.973 26.119 278.68 32.4278 279.721 44.8801C279.717 44.8756 283.554 62.4024 283.091 73.2902Z" fill="url(#paint18_linear_1510_58489)"/>
<path d="M285.385 33.1343C283.287 25.0591 281.97 22.6044 281.653 21.0674C283.48 24.6737 284.596 28.7572 285.385 33.1343Z" fill="#27215E"/>
<path d="M228.118 63.2699C228.118 63.2699 233.378 61.531 234.774 61.3704C236.174 61.2098 236.771 62.7377 236.839 63.2699C236.908 63.8021 228.118 63.2699 228.118 63.2699Z" fill="#27215E"/>
<path d="M273.065 63.2698C273.065 63.2698 267.805 61.5309 266.41 61.3703C265.01 61.2097 264.413 62.7375 264.344 63.2698C264.28 63.802 273.065 63.2698 273.065 63.2698Z" fill="#27215E"/>
<g opacity="0.33">
<path d="M250.211 79.8923C251.969 84.8109 247.388 85.1641 245.437 88.4493C244.069 90.748 246.704 91.4958 248.503 92.3492C249.545 92.8402 250.454 91.294 249.412 90.7984C249.077 90.6378 247.443 90.0368 247.264 89.7019C246.851 88.9311 248.049 88.2749 248.692 87.7656C249.527 87.1095 250.367 86.5177 251.042 85.6826C252.589 83.7648 252.768 81.7046 251.951 79.4151C251.556 78.3323 249.821 78.8003 250.211 79.8923Z" fill="#D60055"/>
</g>
<path opacity="0.33" d="M248.958 111.546C249.334 111.546 249.711 111.546 250.092 111.546C250.72 111.546 251.317 110.996 251.29 110.349C251.262 109.702 250.762 109.151 250.092 109.151C249.715 109.151 249.339 109.151 248.958 109.151C248.329 109.151 247.732 109.702 247.76 110.349C247.787 111 248.283 111.546 248.958 111.546Z" fill="#D60055"/>
<path d="M292.142 59.0161C292.142 59.0161 292.142 59.0161 266.414 53.937C240.687 48.8579 239.452 33.4645 239.452 33.4645C239.452 33.4645 239.452 33.4645 234.779 42.8519C230.106 52.2394 215.78 65.3295 215.78 65.3295C215.78 65.3295 211.805 31.3815 220.715 21.0672C229.22 11.2301 251.868 9.61511 269.504 11.8496C270.339 11.9551 271.174 12.0698 271.987 12.1937C282.847 13.8408 287.951 30.6749 290.279 43.6916C291.784 52.1522 292.142 59.0161 292.142 59.0161Z" fill="#27215E"/>
<path d="M290.274 43.6868C288.177 36.9513 285.455 28.8669 279.873 21.067C276.848 16.8413 273.236 13.8911 269.504 11.8494C270.339 11.9549 271.175 12.0696 271.987 12.1935C282.843 13.8361 287.947 30.6701 290.274 43.6868Z" fill="#27215E"/>
<path d="M261.231 99.7917C260.603 101.439 259.616 102.907 258.358 104.105C256.233 106.128 253.355 107.376 250.192 107.376C246.772 107.376 243.702 105.931 241.553 103.614C241.553 103.614 241.553 103.614 241.549 103.614C240.521 102.513 239.704 101.219 239.153 99.7917C238.74 98.7135 239.121 97.5894 239.924 96.947C240.342 96.6121 240.874 96.4056 241.471 96.4056H258.909C259.446 96.4056 259.928 96.5662 260.318 96.8369C261.218 97.4609 261.663 98.6584 261.231 99.7917Z" fill="#9B315C"/>
<path d="M260.319 96.8368C260.176 97.5066 259.837 98.1031 259.368 98.5711C258.73 99.2088 257.844 99.6034 256.871 99.6034H243.34C241.687 99.6034 240.305 98.4747 239.92 96.9423C240.338 96.6073 240.87 96.4009 241.467 96.4009H258.905C259.446 96.4055 259.928 96.5661 260.319 96.8368Z" fill="white"/>
<path opacity="0.46" d="M258.358 104.105C256.233 106.128 253.355 107.376 250.192 107.376C246.773 107.376 243.702 105.931 241.554 103.614C243.844 103.109 246.369 102.829 249.013 102.829C252.405 102.829 255.595 103.292 258.358 104.105Z" fill="url(#paint19_linear_1510_58489)"/>
<g opacity="0.25">
<path d="M217.695 77.9562C217.695 77.9562 213.518 77.814 213.077 79.6814C212.637 81.5488 215.06 90.5921 216.488 92.4457C217.915 94.2994 218.792 94.0791 219.012 93.1982C219.233 92.3173 217.585 90.8903 217.915 90.2296C218.246 89.5689 218.797 89.8993 219.563 90.8903C220.334 91.8814 221.33 90.2296 221.33 90.2296C221.33 90.2296 218.796 76.8918 217.695 77.9562Z" fill="#D60055"/>
</g>
<g opacity="0.25">
<path d="M283.43 77.9564C283.43 77.9564 287.607 77.8141 288.048 79.6815C288.489 81.5489 286.065 90.5922 284.638 92.4459C283.21 94.2995 282.333 94.0793 282.113 93.1983C281.893 92.3174 283.54 90.8905 283.21 90.2298C282.879 89.5691 282.329 89.8994 281.562 90.8905C280.791 91.8815 279.795 90.2298 279.795 90.2298C279.795 90.2298 282.329 76.8919 283.43 77.9564Z" fill="#D60055"/>
</g>
<path d="M231.488 75.4006C231.401 74.0792 233.017 72.8955 234.081 72.4688C235.477 71.909 236.946 72.1017 238.249 72.8083C239.291 73.3727 240.218 71.7851 239.177 71.2208C237.267 70.1839 235.059 69.9774 233.058 70.9088C231.438 71.6659 229.523 73.469 229.647 75.4006C229.725 76.5752 231.566 76.5844 231.488 75.4006Z" fill="#27215E"/>
<path d="M271.537 75.4009C271.661 73.4647 269.747 71.6615 268.127 70.9091C266.126 69.9777 263.918 70.1841 262.008 71.221C260.966 71.7854 261.894 73.3729 262.936 72.8086C264.239 72.102 265.708 71.9093 267.103 72.469C268.168 72.8958 269.784 74.0795 269.697 75.4009C269.623 76.58 271.459 76.5755 271.537 75.4009Z" fill="#27215E"/>
<path d="M289.017 25.9079C287.272 40.4662 292.367 55.5935 302.769 65.9857C308.763 71.9733 316.103 76.3734 321.056 83.3933C325.605 89.8443 328.533 98.1398 326.615 106.041C324.664 114.093 317.903 121.26 309.305 121.576C308.447 121.608 308.442 122.948 309.305 122.916C316.016 122.668 321.763 118.599 325.187 112.955C329.02 106.642 329.36 99.0528 327.042 92.1292C324.421 84.2926 319.032 78.0573 312.78 72.8405C309.268 69.9086 305.61 67.1328 302.498 63.7696C299.666 60.7093 297.274 57.2544 295.36 53.5563C290.963 45.0728 289.228 35.3917 290.362 25.9125C290.458 25.0545 289.118 25.0637 289.017 25.9079Z" fill="#27215E"/>
<path d="M283.223 12.1117C282.599 17.8698 286.235 22.7746 290.357 26.3901C295.227 30.6617 300.588 34.0937 303.292 40.251C309.025 53.3136 302.635 67.3305 294.387 77.6494C293.854 78.3147 294.795 79.2736 295.337 78.5991C303.2 68.762 309.259 56.2363 305.821 43.4169C304.178 37.2917 300.409 32.8686 295.571 28.9412C290.329 24.6925 283.751 19.7051 284.573 12.1162C284.66 11.2537 283.315 11.2583 283.223 12.1117Z" fill="#27215E"/>
<path d="M211.874 31.2857C210.625 44.3895 203.24 56.1261 192.173 63.1827C187.39 66.2339 182.024 68.9914 179.031 74.043C176.172 78.8698 175.85 84.9491 177.457 90.2485C179.44 96.7821 184.14 102.008 189.511 106.023C190.204 106.541 190.869 105.376 190.185 104.866C185.012 101.003 180.454 95.8828 178.646 89.5602C176.86 83.3295 177.98 76.3508 182.589 71.6158C186.702 67.3901 192.347 65.0914 196.933 61.4667C201.294 58.021 204.947 53.6989 207.692 48.8722C210.763 43.4627 212.622 37.4843 213.21 31.2948C213.297 30.4276 211.957 30.4323 211.874 31.2857Z" fill="#27215E"/>
<path d="M329.415 482.68H263.027C263.027 482.68 258.331 434.725 257.441 430.637C256.546 426.548 248.054 482.68 248.054 482.68H176.962C176.962 482.68 173.62 448.622 171.834 411.563C171.219 398.744 171.637 386.191 172.454 375.248C174.001 354.551 176.962 339.625 176.962 339.625C176.962 339.625 222.129 337.721 264.817 335C307.51 332.275 321.143 341.814 327.849 359.795C328.721 362.139 329.396 365.957 329.906 370.829C333.303 403.337 329.415 482.68 329.415 482.68Z" fill="url(#paint20_linear_1510_58489)"/>
<path d="M265.263 410.205C257.661 411.297 276.66 411.022 278.45 411.297C280.24 411.568 267.723 416.748 263.922 418.111C260.122 419.473 273.979 418.657 276.885 420.29C279.79 421.924 265.933 426.828 264.143 428.737C262.619 430.361 268.889 470.779 270.771 482.69H263.023C263.023 482.69 258.327 434.734 257.436 430.646C256.541 426.558 248.049 482.69 248.049 482.69H241.981C244.345 470.471 252.525 428.03 252.525 425.47C252.525 422.474 245.373 422.745 241.348 419.473C237.322 416.202 245.148 417.294 249.89 416.748C254.632 416.202 239.337 412.114 234.642 408.618C229.946 405.117 240.008 409.935 245.566 408.618C251.13 407.301 234.642 404.213 227.486 401.488C220.334 398.762 242.684 401.758 245.369 401.488C248.049 401.217 222.794 392.224 194.184 383.502C186.243 381.084 178.908 378.18 172.454 375.252C174.001 354.555 176.962 339.63 176.962 339.63C176.962 339.63 222.129 337.726 264.817 335.005C307.51 332.28 321.143 341.818 327.849 359.799C328.722 362.144 329.396 365.961 329.906 370.834C312.509 383.516 270.876 396.863 267.498 397.946C263.252 399.308 278.225 398.216 284.486 397.946C290.743 397.67 272.864 409.113 265.263 410.205Z" fill="#533456"/>
<path d="M331.522 359.272C331.298 361.952 318.33 363.292 314.984 363.292C311.629 363.292 310.288 350.78 309.136 348.995C307.984 347.205 307.162 361.502 305.822 363.292C304.477 365.081 294.195 367.315 279.222 369.55C264.249 371.78 250.111 371.335 250.111 371.335L249.675 370.105V371.335C249.675 371.335 235.538 371.78 220.56 369.55C205.587 367.315 195.305 365.081 193.964 363.292C192.62 361.502 191.798 347.205 190.646 348.995C189.494 350.78 188.153 363.292 184.803 363.292C182.636 363.292 176.476 362.732 172.313 361.622C170.022 361.002 168.342 360.227 168.26 359.272C168.145 357.891 169.522 347.233 172.097 334.18C174.521 321.92 178.009 307.536 182.342 296.712C183.164 294.657 183.949 292.555 184.702 290.431C192.096 269.422 195.92 245.852 196.48 239.222C196.572 238.14 196.058 235.474 195.117 231.712C192.748 222.283 187.681 205.976 182.728 190.624C176.361 170.895 170.201 152.753 170.201 152.753C170.201 152.753 184.807 139.416 195.089 135.846C201.405 133.648 208.391 131.29 212.844 129.79C215.644 128.849 217.439 128.252 217.439 128.252C217.439 128.252 240.348 149.028 249.684 149.028V150.303L250.121 149.028C259.457 149.028 282.362 128.252 282.362 128.252C282.362 128.252 283.844 128.743 286.208 129.542C290.601 131.01 298.037 133.524 304.721 135.85C315.003 139.425 329.608 152.758 329.608 152.758C329.608 152.758 322.255 174.396 315.324 196.093C311.743 207.293 308.282 218.511 306.001 226.77C304.248 233.111 303.192 237.708 303.321 239.222C303.89 245.917 307.787 269.894 315.324 291.06C316.003 292.973 316.715 294.863 317.458 296.717C318.018 298.112 318.564 299.575 319.097 301.08C323.026 312.221 326.161 325.948 328.305 337.29C330.481 348.898 331.633 358.001 331.522 359.272Z" fill="url(#paint21_linear_1510_58489)"/>
<g opacity="0.25">
<path d="M319.078 301.076C314.079 296.721 309.048 292.587 307.061 291.794C302.59 290.004 211.888 287.77 208.069 289.559C204.241 291.349 185.017 305.2 182.787 312.349C181.396 316.795 176.108 342.686 172.312 361.617C170.017 361.002 168.337 360.217 168.259 359.268C168.034 356.588 173.4 319.052 182.341 296.708C191.283 274.363 195.859 246.522 196.479 239.222C196.8 235.414 189.649 212.083 182.722 190.624C187.436 187.321 192.04 185.862 196.41 186.784C196.41 186.784 199.775 225.568 202.01 226.729C204.246 227.894 248.219 221.64 248.219 221.64C248.219 221.64 292.313 227.219 294.548 224.875C296.783 222.535 307.432 193.996 307.432 193.996L315.314 196.089C308.989 215.887 303.017 235.74 303.311 239.222C303.93 246.522 308.507 274.368 317.448 296.708C317.999 298.112 318.55 299.571 319.078 301.076Z" fill="#0031C2"/>
</g>
<path d="M286.194 129.537C276.908 137.823 256.353 155.469 249.89 155.332C242.67 155.185 219.435 135.501 212.834 129.784C215.634 128.844 217.429 128.247 217.429 128.247C217.429 128.247 240.334 149.027 249.67 149.027V150.303L250.106 149.027C259.442 149.027 282.347 128.247 282.347 128.247C282.347 128.247 283.83 128.738 286.194 129.537Z" fill="white"/>
<g opacity="0.25">
<path d="M331.522 359.272C331.297 361.952 318.334 363.296 314.979 363.296C311.624 363.296 310.283 350.784 309.131 348.995C307.979 347.205 307.157 361.507 305.812 363.296C304.472 365.086 294.19 367.32 279.212 369.55C264.235 371.78 250.102 371.339 250.102 371.339L249.666 370.105V371.339C249.666 371.339 235.528 371.784 220.555 369.55C205.577 367.316 195.295 365.081 193.955 363.296C192.614 361.507 191.793 347.21 190.636 348.995C189.484 350.784 188.144 363.296 184.788 363.296C182.626 363.296 176.466 362.736 172.303 361.626C170.008 361.011 168.328 360.227 168.25 359.277C168.135 357.896 169.508 347.242 172.087 334.184C198.095 341.144 225.677 346.476 250.776 347.21C277.734 347.995 304.573 343.535 328.286 337.29C330.48 348.894 331.632 358.001 331.522 359.272Z" fill="#0031C2"/>
</g>
<g opacity="0.25">
<path d="M315.309 291.055C308.552 287.091 302.021 283.411 300.965 283.37C298.67 283.273 208.625 278.561 205.737 278.566C204.227 278.571 194.055 284.632 184.691 290.426C192.086 269.417 195.91 245.848 196.47 239.218C196.562 238.135 196.047 235.469 195.107 231.707C196.282 232.418 197.434 232.996 198.508 233.372C205.127 235.703 287.566 237.878 291.261 236.657C294.956 235.437 305.986 226.761 305.986 226.761C304.233 233.102 303.177 237.699 303.306 239.213C303.875 245.916 307.772 269.894 315.309 291.055Z" fill="#0031C2"/>
</g>
<path d="M233.59 276.157C230.01 277.497 224.75 273.698 222.799 274.592C220.843 275.487 194.248 281.071 189.777 281.741C185.306 282.411 181.06 281.741 177.035 279.951C173.009 278.162 162.952 268.109 160.942 265.65C158.931 263.191 157.811 230.124 158.931 207.114C159.074 204.154 159.285 201.025 159.56 197.809C160.194 190.381 161.171 182.521 162.475 175.423C162.479 175.4 162.479 175.382 162.484 175.364C162.498 175.281 162.512 175.208 162.525 175.13C162.585 174.827 162.64 174.524 162.7 174.221C165.206 161.048 168.846 150.762 173.459 151.179C173.459 151.179 181.391 155.235 187.936 162.998C187.936 162.998 187.936 163.003 187.941 163.008C192.894 168.871 197.053 176.846 196.41 186.779C194.923 209.867 188.662 233.395 190.154 234.294C190.934 234.762 191.599 235.441 191.957 236.102C192.288 236.703 192.375 237.277 192.091 237.662C191.677 238.213 191.549 238.878 191.801 239.383C191.912 239.617 192.104 239.814 192.389 239.956C193.284 240.401 206.995 240.511 209.23 237.662C211.466 234.813 214.596 233.244 218.172 233.583C221.748 233.923 223.451 241.406 222.808 245.535C222.161 249.66 216.749 261.314 224.878 263.636C227.586 264.407 230.184 265.054 232.461 265.567C237.005 266.6 240.255 267.118 240.535 267.178C240.944 267.27 237.175 274.817 233.59 276.157Z" fill="url(#paint22_linear_1510_58489)"/>
<g opacity="0.25">
<path d="M222.799 274.592C220.843 275.487 194.248 281.071 189.777 281.74C185.306 282.41 181.06 281.74 177.035 279.951C173.009 278.162 162.952 268.109 160.942 265.65C158.931 263.19 157.811 230.123 158.931 207.114C159.074 204.154 159.285 201.025 159.56 197.809C160.565 190.472 161.405 184.315 161.961 180.13C160.474 200.217 163.03 249.38 163.03 251.426C163.03 253.661 161.69 256.34 165.862 252.33C170.035 248.315 187.62 236.083 188.515 235.937C189.41 235.79 175.699 244.278 169.14 251.578C162.585 258.873 163.925 262.75 165.862 264.09C167.799 265.429 167.799 263.943 170.852 259.41C173.9 254.881 186.573 243.388 188.96 242.374C191.342 241.364 175.846 255 173.161 259.511C170.48 264.016 168.988 270.935 175.249 274.587C181.506 278.24 199.986 276.005 202.373 274.587C204.755 273.17 207.435 274.509 207.435 264.682C207.435 254.849 210.419 243.232 211.264 242.296C212.108 241.351 211.282 255.487 214.266 264.09C217.245 272.693 222.799 274.592 222.799 274.592Z" fill="#0031C2"/>
</g>
<path d="M192.829 196.648C194.89 177.135 188.12 163.384 187.941 163.012C192.893 168.876 197.052 176.85 196.409 186.784C194.922 209.871 188.661 233.4 190.153 234.299C190.933 234.767 191.599 235.446 191.957 236.107L179.825 242.296L188.514 235.937C188.51 235.937 190.745 216.423 192.829 196.648Z" fill="white"/>
<path d="M209.222 237.667C207.432 241.929 202.965 243.237 199.523 243.085C196.08 242.934 187.795 243.085 187.795 243.085L191.798 239.387C191.908 239.621 192.1 239.819 192.385 239.961C193.276 240.406 206.986 240.516 209.222 237.667Z" fill="white"/>
<path d="M266.896 276.157C270.477 277.497 275.737 273.698 277.688 274.592C279.643 275.487 306.239 281.071 310.709 281.741C315.18 282.411 319.426 281.741 323.452 279.951C327.477 278.162 337.534 268.109 339.545 265.65C341.555 263.191 342.675 230.124 341.555 207.114C341.413 204.154 341.202 201.025 340.926 197.809C340.293 190.381 339.315 182.521 338.012 175.423C338.007 175.4 338.007 175.382 338.002 175.364C337.989 175.281 337.975 175.208 337.961 175.13C337.902 174.827 337.846 174.524 337.787 174.221C335.281 161.048 331.641 150.762 327.027 151.179C327.027 151.179 319.096 155.235 312.55 162.998C312.55 162.998 312.55 163.003 312.545 163.008C307.593 168.871 303.434 176.846 304.077 186.779C305.564 209.867 311.825 233.395 310.333 234.294C309.553 234.762 308.887 235.441 308.529 236.102C308.199 236.703 308.111 237.277 308.396 237.662C308.809 238.213 308.938 238.878 308.685 239.383C308.575 239.617 308.382 239.814 308.098 239.956C307.203 240.401 293.492 240.511 291.256 237.662C289.021 234.813 285.89 233.244 282.315 233.583C278.739 233.923 277.036 241.406 277.679 245.535C278.326 249.66 283.738 261.314 275.608 263.636C272.9 264.407 270.302 265.054 268.025 265.567C263.481 266.6 260.231 267.118 259.951 267.178C259.543 267.27 263.311 274.817 266.896 276.157Z" fill="url(#paint23_linear_1510_58489)"/>
<g opacity="0.25">
<path d="M277.688 274.592C279.643 275.487 306.238 281.071 310.709 281.74C315.18 282.41 319.426 281.74 323.451 279.951C327.477 278.162 337.534 268.109 339.545 265.65C341.555 263.19 342.675 230.123 341.555 207.114C341.413 204.154 341.202 201.025 340.926 197.809C339.921 190.472 339.081 184.315 338.525 180.13C340.013 200.217 337.456 249.38 337.456 251.426C337.456 253.661 338.796 256.34 334.624 252.33C330.451 248.315 312.866 236.083 311.971 235.937C311.076 235.79 324.787 244.278 331.346 251.578C337.901 258.873 336.561 262.75 334.624 264.09C332.687 265.429 332.687 263.943 329.634 259.41C326.586 254.881 313.913 243.388 311.526 242.374C309.144 241.364 324.64 255 327.326 259.511C330.006 264.016 331.498 270.935 325.237 274.587C318.981 278.24 300.501 276.005 298.114 274.587C295.731 273.17 293.051 274.509 293.051 264.682C293.051 254.849 290.067 243.232 289.223 242.296C288.378 241.351 289.204 255.487 286.221 264.09C283.242 272.693 277.688 274.592 277.688 274.592Z" fill="#0031C2"/>
</g>
<path d="M307.657 196.648C305.596 177.135 312.366 163.384 312.545 163.012C307.593 168.876 303.434 176.85 304.077 186.784C305.564 209.871 311.825 233.4 310.333 234.299C309.553 234.767 308.887 235.446 308.529 236.107L320.661 242.296L311.972 235.937C311.976 235.937 309.741 216.423 307.657 196.648Z" fill="white"/>
<path d="M291.265 237.667C293.055 241.929 297.521 243.237 300.964 243.085C304.406 242.934 312.692 243.085 312.692 243.085L308.689 239.387C308.579 239.621 308.386 239.819 308.101 239.961C307.211 240.406 293.5 240.516 291.265 237.667Z" fill="white"/>
<path d="M248.819 200.796C248.819 200.796 254.337 194.505 260.621 195.423C266.905 196.341 271.04 198.066 271.04 198.066C271.04 198.066 257.398 204.636 248.819 200.796Z" fill="url(#paint24_linear_1510_58489)"/>
<path d="M249.669 201.135L264.413 197.873L249.669 199.929V201.135Z" fill="#396F72"/>
<path d="M247.654 214.418C247.654 214.418 242.688 208.596 234.104 205.839C225.52 203.081 222.422 202.489 218.989 200.796C215.555 199.103 214.256 198.488 214.256 198.488C214.256 198.488 214.027 208.293 226.136 214.418C238.244 220.544 247.654 214.418 247.654 214.418Z" fill="url(#paint25_linear_1510_58489)"/>
<path d="M248.764 232.785H248.774C249.311 232.766 249.728 232.321 249.715 231.785C249.591 227.293 249.054 208.605 249.04 207.44C249.127 203.65 249.861 195.832 254.057 189.638C259.863 181.053 265.881 177.08 265.941 177.038C266.391 176.745 266.515 176.148 266.216 175.703C265.913 175.254 265.303 175.139 264.857 175.432C264.6 175.602 258.454 179.663 252.423 188.568C250.674 191.152 249.485 193.964 248.686 196.671C248.356 190.248 247.736 183.081 246.584 179.218C244.128 171.023 239.616 168.968 239.428 168.885C238.937 168.674 238.354 168.885 238.138 169.376C237.918 169.862 238.138 170.431 238.634 170.652C238.666 170.665 242.531 172.505 244.707 179.768C246.524 185.848 246.97 201.108 247.075 207.206C247.043 208.555 247.612 227.325 247.755 231.849C247.773 232.386 248.223 232.808 248.764 232.785Z" fill="#5E4060"/>
<path d="M247.653 214.418C247.653 214.418 241.769 213.804 235.177 211.661C228.586 209.518 221.54 205.38 221.54 205.38C221.54 205.38 231.469 214.418 247.653 214.418Z" fill="#396F72"/>
<path d="M233.323 236.996C233.323 236.996 236.78 228.953 247.323 228.953C257.871 228.953 265.179 235.882 265.179 235.882C265.179 235.882 262.994 246.668 251.858 246.375C240.718 246.086 233.323 236.996 233.323 236.996Z" fill="#77555B"/>
<path opacity="0.5" d="M240.875 256.529C226.535 253.831 223.666 243.09 223.666 243.09C223.666 243.09 231.644 235.446 235.665 234.492C236.004 234.409 236.358 234.345 236.711 234.299C240.544 233.781 245.006 235.047 245.235 235.047C245.492 235.047 255.49 233.427 259.736 234.175C263.844 234.9 263.27 234.515 263.229 234.492C263.238 234.496 263.275 234.506 263.33 234.524C264.468 234.923 274.695 238.649 275.002 243.81C275.333 249.284 255.214 259.222 240.875 256.529Z" fill="#C98057"/>
<path d="M240.875 256.529C226.535 253.831 223.666 243.09 223.666 243.09C223.666 243.09 231.644 235.446 235.665 234.492C236.004 234.409 236.358 234.345 236.711 234.299C235.063 236.015 233.751 237.593 234.43 237.667C235.945 237.827 240.016 236.391 241.641 237.667C243.266 238.942 242.284 240.089 244.326 241.067C246.369 242.044 251.157 242.324 250.67 241.787C250.183 241.246 243.877 239.181 247.191 239.218C250.505 239.259 256.077 238.86 253.929 239.218C251.781 239.576 248.935 239.897 249.963 240.135C250.987 240.374 252.74 241.521 254.411 241.067C256.082 240.613 259.662 237.589 257.991 237.034C256.32 236.474 252.185 234.804 254.966 235.042C257.753 235.281 266.029 239.172 265.152 237.667C264.803 237.066 264.078 235.813 263.334 234.524C264.473 234.923 274.699 238.649 275.007 243.811C275.333 249.284 255.214 259.222 240.875 256.529Z" fill="#5E4060"/>
<path d="M246.152 259.548C246.152 262.172 251.523 265.751 254.506 266.944C256.912 267.908 260.015 267.472 261.13 267.265C261.396 267.219 261.552 267.183 261.552 267.183C261.552 267.183 262.034 267.508 262.746 267.889C263.912 268.513 265.711 269.284 267.047 269.018C268.658 268.692 269.865 267.761 270.365 267.311C270.535 267.16 270.627 267.063 270.627 267.063C270.627 267.063 270.976 267.297 271.536 267.605C272.849 268.325 275.3 269.435 277.021 268.853C279.137 268.132 281.543 263.521 282.167 262.255C282.268 262.048 282.323 261.934 282.323 261.934C282.323 261.934 282.451 261.97 282.667 262.03C283.654 262.287 286.518 262.911 287.693 261.934C289.125 260.741 291.035 258.236 290.796 255.492C290.558 252.748 289.961 248.096 289.722 244.632C289.534 241.943 288.272 239.397 287.712 238.396V238.392C287.556 238.107 287.455 237.947 287.455 237.947C287.455 237.947 287.487 237.818 287.533 237.598C287.675 236.896 287.914 235.253 287.455 233.891C286.858 232.101 280.771 226.852 274.8 226.733C269.989 226.637 265.408 231.739 263.815 233.716C263.43 234.194 263.219 234.492 263.219 234.492C266.037 235.951 270.962 240.429 272.146 241.525C272.293 241.663 272.385 241.746 272.404 241.769C272.39 241.764 272.348 241.746 272.28 241.723C272.229 241.7 272.156 241.677 272.073 241.645C271.99 241.613 271.894 241.576 271.788 241.539C271.784 241.535 271.779 241.535 271.779 241.535C270.026 240.883 264.963 239.052 261.529 238.272C259.964 237.915 258.739 237.777 258.316 238.071C257.141 238.883 257.541 241.269 257.802 242.379C257.885 242.737 257.958 242.962 257.958 242.962C257.958 242.962 257.678 242.907 257.233 242.847C255.75 242.65 252.432 242.439 251.509 244.274C251.018 245.256 251.032 246.04 251.22 246.628C251.486 247.472 252.106 247.903 252.106 247.903C252.106 247.903 251.895 247.885 251.569 247.908C250.573 247.967 248.498 248.38 248.043 250.72C247.557 253.253 249.696 255.152 250.499 255.763C250.655 255.882 250.761 255.951 250.784 255.969C250.674 255.932 250.559 255.905 250.44 255.887C248.668 255.57 246.152 257.084 246.152 259.548Z" fill="url(#paint26_linear_1510_58489)"/>
<path d="M257.729 243.228C260.337 245.595 281.217 261.539 282.108 262.218C282.126 262.232 282.149 262.246 282.172 262.255C282.323 262.328 282.507 262.287 282.613 262.15C282.64 262.113 282.663 262.072 282.672 262.026C282.714 261.888 282.663 261.737 282.544 261.645C282.328 261.48 260.8 245.04 258.216 242.691C258.101 242.585 257.968 242.48 257.821 242.374C257.904 242.732 257.977 242.957 257.977 242.957C257.977 242.957 257.697 242.902 257.252 242.842C257.431 242.971 257.592 243.099 257.729 243.228Z" fill="#F078A5"/>
<path d="M256.132 250.927C257.528 252.844 267.378 264.324 270.366 267.311C270.536 267.16 270.628 267.063 270.628 267.063C270.628 267.063 270.977 267.297 271.537 267.605C271.367 267.348 271.151 267.082 270.881 266.811C267.915 263.847 258.097 252.413 256.711 250.504C255.343 248.623 252.791 247.738 252.304 247.582C251.946 247.265 251.593 246.949 251.239 246.627C251.505 247.472 252.125 247.903 252.125 247.903C252.125 247.903 251.914 247.885 251.588 247.908C251.776 248.073 251.882 248.169 251.886 248.174L251.942 248.224L252.02 248.247C252.047 248.252 254.792 249.082 256.132 250.927Z" fill="#F078A5"/>
<path d="M250.537 256.198C250.656 256.336 253.429 259.626 254.742 260.878C255.908 261.989 260.236 266.361 261.136 267.265C261.402 267.219 261.558 267.183 261.558 267.183C261.558 267.183 262.04 267.508 262.751 267.889L261.815 266.93C261.765 266.875 256.546 261.603 255.242 260.36C253.957 259.135 251.12 255.767 251.088 255.73C250.959 255.579 250.734 255.561 250.583 255.689C250.56 255.707 250.542 255.73 250.523 255.758C250.496 255.795 250.477 255.836 250.468 255.882C250.436 255.987 250.459 256.107 250.537 256.198Z" fill="#F078A5"/>
<path d="M272.258 242.085C272.271 242.094 273.685 242.81 275.42 244.118C276.191 246.407 278.968 248.866 279.928 249.66L279.946 249.674C280.277 249.949 281.263 250.33 282.301 250.33C282.741 250.33 283.187 250.261 283.6 250.087C284.917 249.522 287.153 240.713 287.804 238.029C287.85 237.836 287.731 237.644 287.538 237.598C287.345 237.552 287.153 237.671 287.107 237.864C285.794 243.255 284.013 249.059 283.315 249.435C282.177 249.922 280.648 249.334 280.405 249.128L280.387 249.11C278.523 247.559 276.568 245.467 276.063 243.787C276.063 243.783 276.063 243.783 276.058 243.778C275.966 243.475 275.925 243.182 275.934 242.915C275.985 241.814 276.462 240.438 276.921 239.103C277.555 237.263 278.156 235.524 277.835 234.221L277.298 232.074C277.247 231.881 277.054 231.762 276.861 231.812C276.669 231.862 276.549 232.055 276.6 232.248L277.137 234.395C277.412 235.496 276.82 237.212 276.242 238.869C275.764 240.25 275.269 241.677 275.214 242.883C275.209 242.952 275.209 243.021 275.214 243.085C273.726 242.035 272.625 241.47 272.57 241.447C272.423 241.374 272.253 241.411 272.147 241.525C272.124 241.548 272.106 241.576 272.092 241.608C272.01 241.782 272.079 241.998 272.258 242.085Z" fill="#F078A5"/>
<path d="M263.224 234.487C266.042 235.946 270.967 240.424 272.151 241.521C272.257 241.406 272.427 241.374 272.574 241.443C272.629 241.47 273.735 242.03 275.218 243.081C275.213 243.012 275.213 242.943 275.218 242.879C275.273 241.672 275.769 240.245 276.246 238.864C276.82 237.208 277.416 235.492 277.141 234.391L276.604 232.243C276.604 232.243 275.163 239.259 273.372 239.259C272.028 239.259 268.319 234.739 263.82 233.712C263.435 234.193 263.224 234.487 263.224 234.487Z" fill="#DB588D"/>
<g opacity="0.47">
<path d="M258.85 239.222C258.85 239.222 258.331 241.65 258.331 242.044C258.331 242.443 259.984 244.269 261.388 244.352C262.788 244.435 264.381 240.493 258.85 239.222Z" fill="white"/>
<path d="M250.133 250.334L249.733 253.817C249.733 253.817 251.565 257.634 253.314 256.203C255.067 254.771 255.384 251.385 250.133 250.334Z" fill="white"/>
<path d="M248.54 257.116L247.186 259.787C247.186 259.787 248.301 262.599 249.733 261.75C251.17 260.897 251.087 257.869 248.54 257.116Z" fill="white"/>
<path d="M253.318 244.352C253.318 244.352 252.441 246.517 252.602 246.627C252.762 246.737 254.433 249.302 255.627 247.903C256.815 246.499 257.536 244.274 253.318 244.352Z" fill="white"/>
<path d="M285.151 243.085C285.151 243.085 284.357 241.993 282.681 242.379C281.011 242.764 279.656 244.035 279.34 244.352C279.023 244.673 280.056 247.912 281.41 248.32C282.764 248.729 282.658 249.119 283.48 248.32C284.302 247.522 285.151 243.085 285.151 243.085Z" fill="white"/>
</g>
<path d="M252.731 259.548C252.731 262.172 247.36 265.751 244.377 266.944C241.971 267.908 238.868 267.472 237.753 267.265C237.487 267.219 237.331 267.183 237.331 267.183C237.331 267.183 236.849 267.508 236.137 267.889C234.971 268.513 233.172 269.284 231.836 269.018C230.225 268.692 229.018 267.761 228.518 267.311C228.348 267.16 228.256 267.063 228.256 267.063C228.256 267.063 227.907 267.297 227.347 267.605C226.034 268.325 223.583 269.435 221.862 268.853C219.746 268.132 217.341 263.521 216.716 262.255C216.615 262.048 216.56 261.934 216.56 261.934C216.56 261.934 216.432 261.97 216.216 262.03C215.229 262.287 212.365 262.911 211.19 261.934C209.758 260.741 207.848 258.236 208.087 255.492C208.325 252.748 208.922 248.096 209.161 244.632C209.349 241.943 210.611 239.397 211.171 238.396V238.392C211.327 238.107 211.428 237.947 211.428 237.947C211.428 237.947 211.396 237.818 211.35 237.598C211.208 236.896 210.969 235.253 211.428 233.891C212.025 232.101 218.112 226.852 224.083 226.733C228.894 226.637 233.475 231.739 235.068 233.716C235.453 234.194 235.664 234.492 235.664 234.492C232.846 235.951 227.921 240.429 226.737 241.525C226.59 241.663 226.498 241.746 226.48 241.769C226.493 241.764 226.535 241.746 226.603 241.723C226.654 241.7 226.727 241.677 226.81 241.645C226.893 241.613 226.989 241.576 227.095 241.539C227.099 241.535 227.104 241.535 227.104 241.535C228.857 240.883 233.92 239.052 237.354 238.272C238.919 237.915 240.144 237.777 240.567 238.071C241.742 238.883 241.343 241.269 241.081 242.379C240.998 242.737 240.925 242.962 240.925 242.962C240.925 242.962 241.205 242.907 241.65 242.847C243.133 242.65 246.451 242.439 247.374 244.274C247.865 245.256 247.851 246.04 247.663 246.628C247.397 247.472 246.777 247.903 246.777 247.903C246.777 247.903 246.988 247.885 247.314 247.908C248.31 247.967 250.385 248.38 250.84 250.72C251.326 253.253 249.187 255.152 248.384 255.763C248.228 255.882 248.122 255.951 248.099 255.969C248.209 255.932 248.324 255.905 248.443 255.887C250.215 255.57 252.731 257.084 252.731 259.548Z" fill="url(#paint27_linear_1510_58489)"/>
<path d="M241.155 243.228C238.547 245.595 217.667 261.539 216.781 262.218C216.763 262.232 216.74 262.246 216.717 262.255C216.565 262.329 216.382 262.287 216.276 262.15C216.248 262.113 216.226 262.072 216.216 262.026C216.175 261.888 216.226 261.737 216.345 261.645C216.561 261.48 238.089 245.04 240.673 242.691C240.788 242.586 240.921 242.48 241.068 242.375C240.985 242.732 240.911 242.957 240.911 242.957C240.911 242.957 241.191 242.902 241.637 242.843C241.458 242.971 241.292 243.099 241.155 243.228Z" fill="#F078A5"/>
<path d="M242.756 250.927C241.361 252.844 231.51 264.324 228.522 267.311C228.352 267.16 228.26 267.063 228.26 267.063C228.26 267.063 227.912 267.297 227.352 267.605C227.521 267.348 227.737 267.082 228.008 266.811C230.973 263.847 240.792 252.413 242.178 250.504C243.546 248.623 246.098 247.738 246.584 247.582C246.942 247.265 247.296 246.949 247.649 246.627C247.383 247.472 246.763 247.903 246.763 247.903C246.763 247.903 246.974 247.885 247.3 247.908C247.112 248.073 247.007 248.169 247.002 248.174L246.947 248.224L246.869 248.247C246.837 248.252 244.096 249.082 242.756 250.927Z" fill="#F078A5"/>
<path d="M248.352 256.198C248.237 256.336 245.46 259.626 244.148 260.878C242.982 261.989 238.653 266.361 237.753 267.265C237.487 267.219 237.331 267.183 237.331 267.183C237.331 267.183 236.849 267.508 236.138 267.889L237.074 266.93C237.125 266.875 242.344 261.603 243.647 260.36C244.932 259.135 247.769 255.767 247.801 255.73C247.93 255.579 248.155 255.561 248.306 255.689C248.329 255.707 248.348 255.73 248.366 255.758C248.393 255.795 248.412 255.836 248.421 255.882C248.453 255.987 248.426 256.107 248.352 256.198Z" fill="#F078A5"/>
<path d="M226.631 242.085C226.617 242.094 225.203 242.81 223.468 244.118C222.697 246.407 219.92 248.866 218.961 249.66L218.942 249.674C218.612 249.949 217.625 250.33 216.588 250.33C216.147 250.33 215.697 250.261 215.289 250.087C213.971 249.523 211.736 240.713 211.084 238.029C211.038 237.836 211.158 237.644 211.35 237.598C211.543 237.552 211.736 237.671 211.782 237.864C213.095 243.255 214.876 249.059 215.573 249.435C216.712 249.922 218.24 249.334 218.483 249.128L218.502 249.11C220.365 247.559 222.321 245.467 222.826 243.787C222.826 243.783 222.826 243.783 222.83 243.778C222.922 243.475 222.963 243.182 222.954 242.916C222.904 241.814 222.426 240.438 221.967 239.103C221.334 237.263 220.733 235.524 221.054 234.221L221.591 232.074C221.641 231.881 221.834 231.762 222.027 231.812C222.22 231.863 222.339 232.055 222.289 232.248L221.752 234.395C221.476 235.496 222.068 237.212 222.647 238.869C223.124 240.25 223.62 241.677 223.675 242.883C223.679 242.952 223.679 243.021 223.675 243.085C225.162 242.035 226.264 241.47 226.319 241.447C226.466 241.374 226.636 241.411 226.741 241.525C226.764 241.548 226.782 241.576 226.796 241.608C226.879 241.782 226.805 241.998 226.631 242.085Z" fill="#F078A5"/>
<path d="M235.659 234.487C232.841 235.946 227.916 240.424 226.732 241.521C226.626 241.406 226.456 241.374 226.309 241.443C226.254 241.47 225.148 242.03 223.665 243.081C223.67 243.012 223.67 242.943 223.665 242.879C223.61 241.672 223.115 240.245 222.637 238.864C222.063 237.208 221.467 235.492 221.742 234.391L222.279 232.243C222.279 232.243 223.72 239.259 225.511 239.259C226.856 239.259 230.564 234.739 235.063 233.712C235.453 234.193 235.659 234.487 235.659 234.487Z" fill="#DB588D"/>
<g opacity="0.47">
<path d="M240.038 239.222C240.038 239.222 240.557 241.65 240.557 242.044C240.557 242.443 238.904 244.269 237.5 244.352C236.1 244.435 234.507 240.493 240.038 239.222Z" fill="white"/>
<path d="M248.75 250.334L249.149 253.817C249.149 253.817 247.318 257.634 245.569 256.203C243.82 254.771 243.499 251.385 248.75 250.334Z" fill="white"/>
<path d="M250.343 257.116L251.697 259.787C251.697 259.787 250.581 262.599 249.149 261.75C247.717 260.897 247.795 257.869 250.343 257.116Z" fill="white"/>
<path d="M245.569 244.352C245.569 244.352 246.445 246.517 246.285 246.627C246.124 246.737 244.453 249.302 243.26 247.903C242.066 246.499 241.35 244.274 245.569 244.352Z" fill="white"/>
<path d="M213.736 243.085C213.736 243.085 214.53 241.993 216.206 242.379C217.877 242.764 219.231 244.035 219.547 244.352C219.864 244.668 218.831 247.912 217.477 248.32C216.123 248.729 216.229 249.119 215.407 248.32C214.586 247.522 213.736 243.085 213.736 243.085Z" fill="white"/>
</g>
<path d="M251.247 190.757C251.247 190.757 266.528 188.912 273.042 180.787C279.555 172.661 281.051 168.417 279.615 168.082C278.178 167.747 262.356 163.292 255.521 171.573C248.686 179.855 251.247 190.757 251.247 190.757Z" fill="#396F72"/>
<path d="M247.245 192.487C247.245 192.487 255.554 183.677 250.693 173.491C245.827 163.306 238.405 159.488 229.569 159.842C220.733 160.195 218.621 160.31 219.374 161.516C220.127 162.723 227.113 170.128 230.257 177.034C233.402 183.939 232.493 190.734 247.245 192.487Z" fill="url(#paint28_linear_1510_58489)"/>
<path d="M247.246 192.487C247.246 192.487 247.645 180.782 243.665 174.244C239.686 167.71 232.167 165.26 232.167 165.26C232.167 165.26 239.511 169.165 241.641 173.423C243.766 177.676 247.246 192.487 247.246 192.487Z" fill="#396F72"/>
<path d="M251.248 190.757C251.248 190.757 254.516 183.14 259.928 178.369C265.34 173.592 273.676 171.307 273.676 171.307C273.676 171.307 256.279 180.805 251.248 190.757Z" fill="#274959"/>
<defs>
<linearGradient id="paint0_linear_1510_58489" x1="125.718" y1="104.764" x2="116.742" y2="159.443" gradientUnits="userSpaceOnUse">
<stop offset="0.3868" stop-color="#FFBD9F"/>
<stop offset="1" stop-color="#EF72A6"/>
</linearGradient>
<linearGradient id="paint1_linear_1510_58489" x1="124.601" y1="99.3424" x2="139.557" y2="149.072" gradientUnits="userSpaceOnUse">
<stop offset="0.3868" stop-color="#FFBD9F"/>
<stop offset="1" stop-color="#EF72A6"/>
</linearGradient>
<linearGradient id="paint2_linear_1510_58489" x1="108.305" y1="122.265" x2="118.839" y2="122.502" gradientUnits="userSpaceOnUse">
<stop offset="0.3868" stop-color="#FFBD9F"/>
<stop offset="1" stop-color="#EF72A6"/>
</linearGradient>
<linearGradient id="paint3_linear_1510_58489" x1="22.9274" y1="244.958" x2="88.0633" y2="244.958" gradientUnits="userSpaceOnUse">
<stop offset="0.3868" stop-color="#FFBD9F"/>
<stop offset="1" stop-color="#EF72A6"/>
</linearGradient>
<linearGradient id="paint4_linear_1510_58489" x1="53.4518" y1="180.972" x2="87.7974" y2="180.972" gradientUnits="userSpaceOnUse">
<stop offset="0.0188" stop-color="#FDE090"/>
<stop offset="1" stop-color="#FE9A81"/>
</linearGradient>
<linearGradient id="paint5_linear_1510_58489" x1="114.263" y1="136.474" x2="114.263" y2="316.106" gradientUnits="userSpaceOnUse">
<stop stop-color="#FE9A81"/>
<stop offset="0.9812" stop-color="#FDE090"/>
</linearGradient>
<linearGradient id="paint6_linear_1510_58489" x1="155.45" y1="184.47" x2="203.392" y2="184.47" gradientUnits="userSpaceOnUse">
<stop stop-color="#FE9A81"/>
<stop offset="0.9812" stop-color="#FDE090"/>
</linearGradient>
<linearGradient id="paint7_linear_1510_58489" x1="161.784" y1="236.466" x2="114.008" y2="236.466" gradientUnits="userSpaceOnUse">
<stop stop-color="#A1474F"/>
<stop offset="1" stop-color="#473D54"/>
</linearGradient>
<linearGradient id="paint8_linear_1510_58489" x1="156.698" y1="213.727" x2="119.094" y2="213.727" gradientUnits="userSpaceOnUse">
<stop stop-color="#A1474F"/>
<stop offset="1" stop-color="#473D54"/>
</linearGradient>
<linearGradient id="paint9_linear_1510_58489" x1="158.716" y1="136.794" x2="206.754" y2="136.794" gradientUnits="userSpaceOnUse">
<stop stop-color="#36875B"/>
<stop offset="0.9838" stop-color="#6FBF7B"/>
</linearGradient>
<linearGradient id="paint10_linear_1510_58489" x1="98.2393" y1="156.957" x2="132.842" y2="156.957" gradientUnits="userSpaceOnUse">
<stop offset="0.0162" stop-color="#6FBF7B"/>
<stop offset="1" stop-color="#36875B"/>
</linearGradient>
<linearGradient id="paint11_linear_1510_58489" x1="144.917" y1="125.577" x2="144.917" y2="220.252" gradientUnits="userSpaceOnUse">
<stop offset="0.0162" stop-color="#6FBF7B"/>
<stop offset="1" stop-color="#36875B"/>
</linearGradient>
<linearGradient id="paint12_linear_1510_58489" x1="118.756" y1="235.026" x2="209.6" y2="235.026" gradientUnits="userSpaceOnUse">
<stop offset="0.3868" stop-color="#FFBD9F"/>
<stop offset="1" stop-color="#EF72A6"/>
</linearGradient>
<linearGradient id="paint13_linear_1510_58489" x1="35.9247" y1="75.3651" x2="35.9247" y2="190.362" gradientUnits="userSpaceOnUse">
<stop stop-color="#CCCCCC"/>
<stop offset="1" stop-color="#F2F2F2"/>
</linearGradient>
<linearGradient id="paint14_linear_1510_58489" x1="7.27206" y1="282.909" x2="34.287" y2="282.909" gradientUnits="userSpaceOnUse">
<stop offset="0.3868" stop-color="#FFBD9F"/>
<stop offset="1" stop-color="#EF72A6"/>
</linearGradient>
<linearGradient id="paint15_linear_1510_58489" x1="250.197" y1="95.0004" x2="250.197" y2="164.139" gradientUnits="userSpaceOnUse">
<stop offset="0.6292" stop-color="#FFBF9F"/>
<stop offset="1" stop-color="#EF879F"/>
</linearGradient>
<linearGradient id="paint16_linear_1510_58489" x1="209.382" y1="86.6887" x2="223.593" y2="86.6887" gradientUnits="userSpaceOnUse">
<stop offset="0.6292" stop-color="#FFBF9F"/>
<stop offset="1" stop-color="#EF879F"/>
</linearGradient>
<linearGradient id="paint17_linear_1510_58489" x1="276.031" y1="87.6723" x2="290.229" y2="87.6723" gradientUnits="userSpaceOnUse">
<stop stop-color="#EF879F"/>
<stop offset="0.3708" stop-color="#FFBF9F"/>
</linearGradient>
<linearGradient id="paint18_linear_1510_58489" x1="250.796" y1="21.0678" x2="250.796" y2="121.826" gradientUnits="userSpaceOnUse">
<stop stop-color="#EF879F"/>
<stop offset="0.3708" stop-color="#FFBF9F"/>
</linearGradient>
<linearGradient id="paint19_linear_1510_58489" x1="241.55" y1="105.104" x2="258.358" y2="105.104" gradientUnits="userSpaceOnUse">
<stop stop-color="#EF879F"/>
<stop offset="0.3708" stop-color="#FFBF9F"/>
</linearGradient>
<linearGradient id="paint20_linear_1510_58489" x1="251.417" y1="334.54" x2="251.417" y2="482.682" gradientUnits="userSpaceOnUse">
<stop stop-color="#A1474F"/>
<stop offset="1" stop-color="#473D54"/>
</linearGradient>
<linearGradient id="paint21_linear_1510_58489" x1="249.889" y1="128.248" x2="249.889" y2="371.371" gradientUnits="userSpaceOnUse">
<stop stop-color="#F4F2FF"/>
<stop offset="1" stop-color="#D8DBF0"/>
</linearGradient>
<linearGradient id="paint22_linear_1510_58489" x1="158.487" y1="216.584" x2="240.556" y2="216.584" gradientUnits="userSpaceOnUse">
<stop stop-color="#F4F2FF"/>
<stop offset="1" stop-color="#D8DBF0"/>
</linearGradient>
<linearGradient id="paint23_linear_1510_58489" x1="259.93" y1="216.584" x2="342" y2="216.584" gradientUnits="userSpaceOnUse">
<stop stop-color="#F4F2FF"/>
<stop offset="1" stop-color="#D8DBF0"/>
</linearGradient>
<linearGradient id="paint24_linear_1510_58489" x1="248.818" y1="198.665" x2="271.04" y2="198.665" gradientUnits="userSpaceOnUse">
<stop stop-color="#AAC149"/>
<stop offset="1" stop-color="#008B4C"/>
</linearGradient>
<linearGradient id="paint25_linear_1510_58489" x1="214.26" y1="207.814" x2="247.655" y2="207.814" gradientUnits="userSpaceOnUse">
<stop stop-color="#AAC149"/>
<stop offset="1" stop-color="#008B4C"/>
</linearGradient>
<linearGradient id="paint26_linear_1510_58489" x1="246.153" y1="247.902" x2="290.819" y2="247.902" gradientUnits="userSpaceOnUse">
<stop offset="0.3868" stop-color="#FFBD9F"/>
<stop offset="1" stop-color="#EF72A6"/>
</linearGradient>
<linearGradient id="paint27_linear_1510_58489" x1="208.066" y1="247.902" x2="252.732" y2="247.902" gradientUnits="userSpaceOnUse">
<stop offset="0.3868" stop-color="#FFBD9F"/>
<stop offset="1" stop-color="#EF72A6"/>
</linearGradient>
<linearGradient id="paint28_linear_1510_58489" x1="219.23" y1="176.155" x2="252.215" y2="176.155" gradientUnits="userSpaceOnUse">
<stop stop-color="#AAC149"/>
<stop offset="1" stop-color="#008B4C"/>
</linearGradient>
</defs>
</svg>
