<svg width="350" height="372" viewBox="0 0 350 372" fill="none" xmlns="http://www.w3.org/2000/svg">
<path d="M276.428 421.961C275.87 488.2 273.648 570.102 270.303 576.101C266.966 582.093 230.213 574.478 192.902 576.101C186.457 576.387 180.967 576.77 176.264 577.16C153.745 579.027 149.258 581.055 144.318 572.631C143.845 571.823 143.399 569.803 142.988 566.744C140.382 547.646 138.953 488.214 138.737 433.415C138.71 429.451 138.703 425.5 138.703 421.606C138.654 379.606 139.344 342.4 140.772 331.28C143.043 313.603 185.147 304.365 217.135 299.892C237.048 297.098 253.031 296.15 253.031 296.15C253.031 296.15 256.215 304.079 260.228 317.352C267.252 340.484 276.79 379.878 276.428 421.961Z" fill="url(#paint0_linear_1510_58177)"/>
<g opacity="0.28">
<path d="M276.43 421.961C275.872 488.2 273.65 570.102 270.305 576.101C266.968 582.093 230.215 574.478 192.904 576.101C186.459 576.387 180.969 576.77 176.266 577.16L173.967 576.101C173.967 576.101 245.244 557.345 247.466 542.059C249.696 526.772 250.253 400.125 247.466 363.741C244.686 327.343 216.12 311.186 216.12 311.186C216.113 306.985 216.461 303.229 217.137 299.899C237.05 297.105 253.033 296.157 253.033 296.157C253.033 296.157 256.217 304.086 260.23 317.359C267.254 340.484 276.792 379.878 276.43 421.961Z" fill="#222956"/>
</g>
<path d="M265.982 76.8013C270.936 75.603 275.165 72.1262 277.304 67.5068C279.443 62.8804 279.346 57.404 277.053 52.8613C274.378 47.566 269.326 44.2844 264.435 41.1142C263.509 40.515 262.582 39.9158 261.676 39.3027C256.785 35.9931 251.037 30.6979 251.448 24.2182L249.302 24.0858C248.828 31.5758 255.12 37.4633 260.478 41.0863C261.391 41.7064 262.331 42.3126 263.272 42.9188C267.919 45.9357 272.734 49.0571 275.144 53.8298C277.116 57.7385 277.2 62.6296 275.367 66.608C273.528 70.5794 269.744 73.6869 265.494 74.7181L265.982 76.8013Z" fill="#4C2359"/>
<path d="M175.024 97.9129C175.602 97.9756 176.187 97.9965 176.772 97.9756C181.928 97.8014 186.917 94.6521 189.794 89.754L187.941 88.6671C185.475 92.8754 181.057 95.6833 176.703 95.8296C172.035 95.9829 167.499 92.8476 166.377 88.688C165.882 86.8556 166.001 84.8838 166.154 83.3788C166.593 79.1496 167.75 75.4429 169.589 72.3703C170.516 70.8235 171.616 69.4161 172.787 67.9321C173.519 67.0054 174.243 66.0787 174.926 65.1242C179.936 58.0801 182.381 49.0991 181.636 40.4874L179.497 40.6755C180.193 48.7856 177.887 57.251 173.17 63.884C172.508 64.8176 171.805 65.7094 171.094 66.6082C169.937 68.0853 168.732 69.6112 167.736 71.2764C165.736 74.6138 164.482 78.6201 164.008 83.1628C163.834 84.8559 163.708 87.0716 164.294 89.2524C165.555 93.8787 169.993 97.3764 175.024 97.9129Z" fill="#4C2359"/>
<path d="M324.839 126.207C324.839 126.207 276.735 134.088 294.398 106.239C306.96 86.4444 280.177 80.2225 263.637 78.2925C263.121 78.2298 262.612 78.1741 262.118 78.1183C261.358 78.0347 260.627 77.972 259.916 77.9093C255.283 77.4843 252.071 77.4216 251.869 77.4216C251.862 77.4216 251.862 77.4216 251.862 77.4216C251.862 77.4216 251.862 77.4216 251.862 77.4285L251.855 77.4355C251.771 77.7142 250.329 82.1385 245.473 90.8199C245.194 91.3355 244.894 91.8581 244.574 92.4015C244.574 92.4085 244.567 92.4085 244.567 92.4224C242.637 95.7668 242.525 105.117 244.657 115.875C245.062 117.93 245.556 120.034 246.135 122.166C246.323 122.863 246.518 123.56 246.72 124.257C252.447 143.689 265.274 163.915 287.437 160.968C325.57 155.875 324.839 126.207 324.839 126.207ZM286.845 110.022C286.086 109.681 287.242 89.7469 270.66 81.8459C270.66 81.8459 293.046 84.7792 294.53 94.0598C295.986 103.354 287.619 110.384 286.845 110.022Z" fill="#4C2359"/>
<path d="M178.753 70.7397C178.753 70.7397 163.989 32.8091 173.994 16.575C184 0.340893 202.338 4.0824 202.338 4.0824C202.338 4.0824 240.373 -10.9812 260.85 16.7631C281.328 44.5074 266.069 73.255 259.345 82.3057C252.622 91.3633 234.834 95.7319 234.834 95.7319L178.753 70.7397Z" fill="#4C2359"/>
<path d="M254.056 73.9239C253.895 75.2268 253.052 76.3973 251.875 77.4146C251.868 77.4355 251.868 77.4355 251.854 77.4355C250.063 79.0031 247.513 80.2294 245.43 81.0516C243.402 81.8319 241.835 82.2709 241.835 82.2709C241.835 82.2709 241.835 82.2918 241.814 82.3057C241.702 82.5217 241.152 83.6156 240.358 85.1763C240.288 85.3087 240.211 85.455 240.142 85.6083C239.528 86.8136 238.783 88.2559 237.996 89.7678C237.794 90.1301 237.605 90.4994 237.417 90.8826C237.153 91.3703 236.895 91.8789 236.63 92.3736C236.414 92.7777 236.198 93.1888 235.982 93.5929C235.94 93.6835 235.891 93.7671 235.85 93.8577C235.508 94.4917 235.16 95.1188 234.846 95.725H234.839C234.693 95.9967 234.54 96.2684 234.393 96.5401C234.373 96.5819 234.338 96.6377 234.31 96.6934C234.184 96.9164 234.059 97.1393 233.948 97.3414C233.23 98.6164 232.589 99.7312 232.08 100.519C230.297 103.285 213.833 105.242 201.166 105.695C198.609 105.793 196.205 105.814 194.108 105.786C194.108 105.786 194.017 105.779 193.843 105.765C186.36 105.18 187.489 99.8218 185.545 94.6241C185.301 93.9761 185.001 93.3212 184.639 92.6802C184.618 92.6523 184.604 92.6245 184.59 92.5896C181.169 86.5489 178.884 71.7082 178.745 70.7676V70.7189C178.717 68.775 178.786 67.054 178.982 65.6675C180.326 55.8434 184.43 51.9765 182.131 45.7616C181.957 45.3156 181.831 44.8488 181.741 44.3472C181.525 43.1766 181.518 41.8946 181.643 40.5848C181.831 38.5224 182.368 36.3764 182.981 34.4604C187.976 41.3442 204.12 34.6694 204.12 34.6694C204.434 35.3731 204.775 36.0838 205.151 36.8154C205.151 36.8154 218.905 64.3158 235.397 66.0577C236.574 66.1831 237.766 66.1831 238.95 66.0228C239.264 66.0159 239.584 65.9671 239.919 65.8486H239.947C239.947 65.8486 239.953 65.8486 239.967 65.8486C239.988 65.8486 239.995 65.8417 240.002 65.8277C240.03 65.8347 240.03 65.8068 240.044 65.8208C240.943 65.5421 241.87 64.9498 242.852 64.2392C242.859 64.2183 242.859 64.2113 242.873 64.2113C242.894 64.2043 242.901 64.1904 242.922 64.1834C243.193 63.9744 243.472 63.7584 243.751 63.5424C244.629 62.8457 245.527 62.0932 246.426 61.4243C247.032 60.9714 247.646 60.5534 248.266 60.205C248.684 59.9681 249.109 59.7591 249.527 59.6058C249.729 59.5222 249.917 59.4595 250.112 59.4038H250.119C251.08 59.132 252.049 59.132 252.996 59.5571C258.083 61.7727 254.69 68.7262 254.056 73.9239Z" fill="url(#paint1_linear_1510_58177)"/>
<path d="M189.56 61.7234C189.323 63.9948 188.131 65.7297 186.905 65.5973C185.679 65.4649 184.884 63.521 185.121 61.2496C185.365 58.9783 186.55 57.2434 187.776 57.3758C189.002 57.5012 189.803 59.452 189.56 61.7234Z" fill="#152E51"/>
<path d="M184.033 53.3141C183.803 53.4255 186.123 50.6664 187.538 50.5201C188.952 50.3738 190.352 50.325 190.666 51.2447C190.979 52.1714 191.258 53.3837 190.45 53.3001C189.635 53.2165 186.2 52.262 184.033 53.3141Z" fill="#152E51"/>
<path d="M190.318 59.0484C190.235 59.8148 189.656 60.3861 189.015 60.3165C188.374 60.2468 187.929 59.5709 188.005 58.8045C188.089 58.0381 188.667 57.4668 189.308 57.5365C189.949 57.6061 190.395 58.282 190.318 59.0484Z" fill="white"/>
<path d="M214.72 63.7864C214.671 65.9602 213.494 67.6951 212.079 67.6602C210.665 67.6254 209.564 65.8417 209.613 63.6749C209.662 61.501 210.839 59.7662 212.254 59.801C213.668 59.8358 214.762 61.6125 214.72 63.7864Z" fill="#152E51"/>
<path d="M210.693 53.377C210.693 53.377 210.15 55.0353 210.463 55.5439C210.777 56.0455 212.693 55.5927 214.588 56.9234C216.483 58.2542 218.162 59.2784 218.162 59.2784C218.162 59.2784 217.424 56.5611 216.274 54.9377C215.117 53.3073 211.014 51.8721 210.693 53.377Z" fill="#152E51"/>
<path d="M215.339 61.6547C215.262 62.3863 214.607 62.9158 213.875 62.8391C213.144 62.7625 212.614 62.1076 212.691 61.376C212.768 60.6444 213.423 60.1149 214.154 60.1915C214.886 60.2682 215.415 60.9231 215.339 61.6547Z" fill="white"/>
<path d="M250.127 59.4247C247.661 60.1005 245.187 62.5043 242.881 64.2252C244.741 63.1104 247.333 61.4801 250.127 59.4247Z" fill="url(#paint2_linear_1510_58177)"/>
<path d="M239.932 65.8695C239.959 65.8695 239.98 65.8627 240.007 65.8627C240.007 65.8627 240.013 65.8627 240.027 65.856C239.986 65.856 239.952 65.8763 239.932 65.8695Z" fill="url(#paint3_linear_1510_58177)"/>
<path opacity="0.62" d="M197.293 65.2425C198.519 66.8589 199.509 68.6914 198.492 70.6771C197.44 72.7185 192.165 75.2268 196.004 77.5539C197.119 78.2298 195.914 79.8671 194.799 79.1913C192.98 78.0904 192.096 75.9166 192.994 73.903C194.311 70.9558 198.624 70.3426 195.719 66.5175C194.924 65.4794 196.506 64.2043 197.293 65.2425Z" fill="#C14276"/>
<path d="M244.574 92.4222C244.852 92.6661 245.166 92.9587 245.528 93.2374C247.396 93.3907 249.799 92.7358 252.9 90.3877C259.393 85.413 263.407 79.3513 264.515 76.4459C264.779 75.7631 264.807 75.1152 264.71 74.5856C264.452 74.3627 264.271 74.2582 264.271 74.2582C262.675 72.4048 257.136 82.842 253.492 86.2352C249.862 89.6283 242.943 90.8894 244.574 92.4222Z" fill="url(#paint4_linear_1510_58177)"/>
<path d="M244.574 92.4222C244.852 92.6661 245.166 92.9587 245.528 93.2374C247.396 93.3907 249.799 92.7358 252.9 90.3877C259.393 85.413 263.407 79.3513 264.515 76.4459C264.779 75.7631 264.807 75.1152 264.71 74.5856C264.452 74.3627 264.271 74.2582 264.271 74.2582C262.675 72.4048 257.136 82.842 253.492 86.2352C249.862 89.6283 242.943 90.8894 244.574 92.4222Z" fill="url(#paint5_linear_1510_58177)"/>
<path d="M246.503 130.339C246.503 130.339 243.653 132.13 239.173 134.561C228.178 140.553 199.403 185.187 187.224 181.975C170.084 177.46 176.835 128.158 176.835 128.158C176.835 128.158 188.701 125.956 191.683 122.981C194.923 119.748 198.643 115.728 200.044 113.018C200.887 111.415 201.173 108.705 201.166 105.695C213.832 105.242 230.303 103.291 232.08 100.518C232.206 100.316 232.345 100.1 232.484 99.8704C233.028 98.9716 233.676 97.8289 234.386 96.54C234.54 96.2752 234.686 96.0035 234.839 95.7248C234.909 95.5924 234.986 95.4531 235.062 95.3067C235.313 94.8329 235.578 94.3452 235.843 93.8575C237.682 90.4226 239.598 86.6741 240.755 84.3958C240.838 84.2355 240.915 84.0683 240.991 83.922C241.444 83.0441 241.737 82.4588 241.814 82.3055C241.834 82.2846 241.834 82.2707 241.834 82.2707C241.834 82.2707 243.402 81.8248 245.43 81.0514C245.046 82.1522 243.193 87.545 241.214 93.7182C238.49 102.211 235.508 112.203 235.738 114.613C235.78 115.038 235.919 115.533 236.135 116.077C236.832 117.867 238.351 120.187 240.016 122.438C241.556 124.528 243.221 126.549 244.475 128.033C245.674 129.433 246.503 130.339 246.503 130.339Z" fill="url(#paint6_linear_1510_58177)"/>
<path opacity="0.43" d="M198.736 124.034C197.593 127.866 224.041 112.837 230.521 105.96C236.785 99.2925 241.543 83.3301 241.822 82.3198C241.411 83.142 234.785 96.3174 232.089 100.526C230.305 103.299 213.841 105.25 201.174 105.703C203.501 108.803 199.857 120.174 198.736 124.034Z" fill="#C14276"/>
<path opacity="0.43" d="M193.489 91.0983C197.892 91.0705 203.069 90.6385 206.184 87.1408C207.41 85.7683 205.487 83.6014 204.247 84.9949C201.655 87.9072 197.328 88.1929 193.67 88.2138C191.817 88.2208 191.629 91.1053 193.489 91.0983Z" fill="#C14276"/>
<path d="M278.541 148.712C278.763 147.339 278.875 146.58 278.875 146.58C279.112 147.514 278.993 148.162 278.541 148.712Z" fill="white"/>
<path d="M159.725 133.99C159.725 133.99 120.77 225.173 117.335 227.695C113.9 230.224 41.7524 252.652 32.5694 252.896C23.3863 253.133 16.6558 250.444 16.6558 250.444L22.2367 282.598C22.2367 282.598 33.4124 273.046 36.4154 272.614C39.4253 272.182 122.498 261.466 129.242 258.456C135.994 255.446 187.211 208.298 187.211 208.298L159.725 133.99Z" fill="url(#paint7_linear_1510_58177)"/>
<path d="M281.166 146.58C281.166 146.58 281.389 149.256 281.166 150.628C280.539 154.607 276.456 161.853 274.505 172.91C272.366 184.957 269.656 199.254 266.841 211.489C260.542 238.822 258.257 277.324 261.121 291.872C263.984 306.413 265.134 329.329 249.088 333.049C247.848 333.335 246.587 333.008 245.318 332.13C240.65 332.694 234.498 332.966 226.388 333.043C200.936 333.293 160.894 328.04 146.918 325.204C144.967 324.807 143.524 324.459 142.695 324.173C140.508 323.427 140.703 317.847 141.957 310.071C142.744 305.096 143.977 299.216 145.273 293.133C147.607 282.222 150.178 270.635 150.924 262.386C151.105 260.435 151.182 258.665 151.133 257.146C150.631 242.396 142.549 223.835 139.553 212.095C139.051 210.165 138.696 208.409 138.529 206.897C137.386 196.181 156.867 140.289 159.724 133.99C162.587 127.685 182.061 123.1 182.061 123.1C178.048 139.71 186.639 167.782 195.808 167.782C204.977 167.782 240.49 133.99 243.479 131.12C246.468 128.256 245.646 128.834 252.648 130.555C259.657 132.276 280.831 137.425 281.166 146.58Z" fill="url(#paint8_linear_1510_58177)"/>
<path opacity="0.36" d="M266.841 211.489C260.542 238.822 258.257 277.324 261.12 291.872C263.984 306.413 265.134 329.329 249.088 333.049C247.847 333.335 246.586 333.007 245.318 332.13C240.65 332.694 234.498 332.966 226.388 333.042C200.936 333.293 160.894 328.04 146.917 325.204L141.957 310.071C142.744 305.096 143.977 299.215 145.273 293.133C166.266 297.982 214.703 308.9 218.731 307.562C223.886 305.841 247.945 288.66 252.655 286.368C257.365 284.075 255.964 270.9 238.776 265.744C221.594 260.588 150.924 262.393 150.924 262.393C151.105 260.442 151.181 258.672 151.133 257.153C150.631 242.403 142.549 223.842 139.553 212.102C144.423 213.342 150.199 214.694 156.288 215.906C172.899 219.209 182.639 212.471 182.639 212.471C182.639 212.471 182.639 212.471 187.795 215.906C192.951 219.341 237.633 221.64 243.486 215.906C249.345 210.172 255.247 168.012 255.247 168.012C263.022 167.009 269.356 168.925 274.505 172.91C272.366 184.957 269.655 199.254 266.841 211.489Z" fill="#98269E"/>
<path d="M255.248 168.005C255.248 168.005 250.524 189.249 255.248 204.291C259.972 219.341 274.29 186.148 274.29 186.148L255.248 168.005Z" fill="url(#paint9_linear_1510_58177)"/>
<path d="M349.621 255.432C345.754 270.043 274.435 310.21 271.857 312.572C269.28 314.934 266.486 322.236 261.546 322.236C256.606 322.236 252.523 314.07 250.802 314.07C249.081 314.07 246.294 316.864 243.479 317.721C240.671 318.578 236.623 318.362 236.191 317.721C235.759 317.08 245.855 310.635 248.008 309.555C250.154 308.482 259.393 310.168 259.393 310.168C259.393 310.168 251.875 308.057 250.154 307.625C248.433 307.193 243.709 309.771 239.626 310.635C235.543 311.492 234.254 310.851 232.749 310.635C231.244 310.419 244.134 304.19 245.855 303.131C247.506 302.114 253.679 303.048 254.195 303.124C253.686 302.915 247.109 300.337 246.28 300.72C245.423 301.118 239.619 302.476 237.257 302.901C234.895 303.333 231.46 303.333 231.028 301.424C230.596 299.508 244.559 296.031 246.496 294.526C248.426 293.021 256.376 297.536 260.243 300.72C264.11 303.912 268.834 295.815 278.971 285.288C289.109 274.76 315.662 251.99 314.805 246.834C313.948 241.679 263.399 201.581 256.034 178.679C251.415 164.284 261.608 155.31 269.837 150.621C274.7 147.848 278.867 146.573 278.867 146.573C278.867 146.573 353.488 240.822 349.621 255.432Z" fill="url(#paint10_linear_1510_58177)"/>
<path d="M0.0865372 212.548L16.7944 310.593C17.3448 313.833 20.4035 316.035 23.6504 315.533L93.0738 304.775C96.4042 304.26 98.6686 301.104 98.0834 297.78L81.0132 200.996C80.4488 197.812 77.4737 195.638 74.2617 196.077L5.20063 205.573C1.83536 206.033 -0.484792 209.196 0.0865372 212.548Z" fill="url(#paint11_linear_1510_58177)"/>
<path d="M110.171 287.503L92.6762 291.182L40.1487 302.232C40.1487 302.232 26.8201 298.393 21.0998 279.205C21.0232 278.947 20.9465 278.682 20.8699 278.417C20.8699 278.404 20.8629 278.376 20.8559 278.355C18.6333 270.656 16.2574 259.173 14.2578 247.977C14.2508 247.907 14.2439 247.872 14.2439 247.872C11.1503 230.53 8.96255 213.892 9.64536 213.035C10.795 211.6 26.827 206.158 26.827 206.158C26.827 206.158 73.2301 203.002 75.2367 202.549C77.2364 202.096 81.8209 253.126 88.9834 266.587C96.139 280.062 110.171 287.503 110.171 287.503Z" fill="url(#paint12_linear_1510_58177)"/>
<path d="M21.9091 210.186L20.0279 200.578C19.8329 199.575 20.5157 198.613 21.5259 198.474L56.6487 193.52C57.5893 193.388 58.4672 194.015 58.6484 194.948L60.2857 203.525C60.4738 204.508 59.8189 205.448 58.8365 205.616L23.9576 211.601C23.003 211.768 22.0973 211.134 21.9091 210.186Z" fill="url(#paint13_linear_1510_58177)"/>
<path d="M92.989 296.958C92.4246 299.828 31.6965 309.276 29.4042 309.562C28.2546 309.708 24.4016 294.011 20.8691 278.411C20.9458 278.675 21.0224 278.94 21.0991 279.198C26.8193 298.386 40.148 302.225 40.148 302.225L92.6754 291.175C92.9959 293.788 93.1771 296.031 92.989 296.958Z" fill="#222956"/>
<g opacity="0.61">
<path d="M23.3917 230.245C24.2974 229.367 24.9454 228.148 25.6491 227.117C26.6106 225.702 27.5721 224.288 28.5336 222.873C29.4673 221.501 27.2377 220.205 26.311 221.57C25.3495 222.985 24.388 224.399 23.4265 225.814C23.0084 226.427 22.6183 227.291 22.0818 227.792C21.0924 228.726 20.6465 228.517 19.7477 227.59C18.5911 226.392 16.7726 228.217 17.9222 229.416C19.4551 230.997 21.5523 232.029 23.3917 230.245Z" fill="#222956"/>
<path d="M27.642 249.886C28.5826 249.356 29.1818 248.207 29.7601 247.35C30.7774 245.831 31.7528 244.284 32.7004 242.723C33.5644 241.302 31.3348 240.006 30.4778 241.42C29.5302 242.981 28.5548 244.528 27.5375 246.047C26.8687 247.043 26.165 248.039 25.0014 246.904C24.4719 246.388 24.026 245.831 23.4407 245.364C22.1587 244.333 20.3263 246.151 21.6152 247.189C23.3013 248.548 25.085 251.314 27.642 249.886Z" fill="#222956"/>
<path d="M31.9837 259.055C31.2173 260.323 30.4509 261.591 29.6845 262.859C29.5242 263.124 29.364 263.396 29.1967 263.661C29.1549 263.73 29.1131 263.793 29.0713 263.863C28.5557 263.535 27.5942 263.006 27.4618 262.929C26.0475 262.058 24.7515 264.288 26.1589 265.152C27.5803 266.022 29.3709 267.611 30.8062 265.911C31.4402 265.166 31.8792 264.19 32.3878 263.354C32.994 262.351 33.6001 261.347 34.2063 260.351C35.0703 258.937 32.8407 257.634 31.9837 259.055Z" fill="#222956"/>
<path d="M61.1901 218.86C52.9198 219.877 44.7052 221.201 36.5394 222.838C34.9159 223.166 35.5987 225.646 37.2222 225.326C45.165 223.73 53.1497 222.434 61.1901 221.438C62.8135 221.236 62.8344 218.658 61.1901 218.86Z" fill="#222956"/>
<path d="M65.726 239.03C57.1979 240.73 48.6279 242.152 40.0023 243.288C38.3789 243.504 38.358 246.081 40.0023 245.865C48.8509 244.702 57.6577 243.26 66.4088 241.518C68.0392 241.19 67.3494 238.703 65.726 239.03Z" fill="#222956"/>
<path d="M69.1536 254.993C61.0505 256.477 52.9404 257.954 44.8373 259.438C43.2069 259.737 43.8967 262.218 45.5201 261.925C53.6232 260.441 61.7333 258.964 69.8364 257.48C71.4668 257.18 70.777 254.693 69.1536 254.993Z" fill="#222956"/>
</g>
<path d="M24.0335 257.369C24.3958 257.857 24.6954 258.616 24.5979 259.724C24.3889 262.156 22.0966 262.734 19.0867 264.594C16.0767 266.448 15.9304 265.159 13.6451 268.315C11.3528 271.471 10.7466 275.171 10.7466 275.171C10.7466 275.171 5.45837 268.496 3.48659 261.947C3.48659 261.947 1.61932 253.154 3.05461 250.283C4.48293 247.413 16.8013 242.765 16.655 244.089C16.5087 245.406 18.5153 243.177 16.655 245.873C15.2824 247.866 10.1823 250.444 10.1823 250.444L7.9109 258.414C8.15476 258.115 11.952 253.217 12.7811 252.889C13.6381 252.562 24.2495 250.499 24.5352 252.387C24.779 254.011 24.2356 254.805 23.7757 255.474C23.6991 255.586 23.6294 255.697 23.5597 255.802C23.086 256.568 23.086 256.568 23.086 256.568C23.086 256.568 23.6085 256.791 24.0335 257.369Z" fill="url(#paint14_linear_1510_58177)"/>
<path opacity="0.43" d="M24.0342 257.37C17.5266 258.631 11.4998 261.174 11.228 261.285C11.3047 261.216 12.0641 260.547 16.2306 257.857C18.1955 256.575 21.1357 255.872 23.7903 255.474C23.7137 255.586 23.644 255.697 23.5743 255.802C23.1005 256.568 23.1005 256.568 23.1005 256.568C23.1005 256.568 23.6091 256.791 24.0342 257.37Z" fill="#C14276"/>
<defs>
<linearGradient id="paint0_linear_1510_58177" x1="138.71" y1="437.481" x2="276.44" y2="437.481" gradientUnits="userSpaceOnUse">
<stop stop-color="#955BED"/>
<stop offset="1" stop-color="#204CE0"/>
</linearGradient>
<linearGradient id="paint1_linear_1510_58177" x1="214.831" y1="62.1094" x2="236.081" y2="127.377" gradientUnits="userSpaceOnUse">
<stop offset="0.3868" stop-color="#FFBD9F"/>
<stop offset="1" stop-color="#EF72A6"/>
</linearGradient>
<linearGradient id="paint2_linear_1510_58177" x1="246.626" y1="61.552" x2="244.015" y2="67.3958" gradientUnits="userSpaceOnUse">
<stop offset="0.3868" stop-color="#FFBD9F"/>
<stop offset="1" stop-color="#EF72A6"/>
</linearGradient>
<linearGradient id="paint3_linear_1510_58177" x1="239.975" y1="65.8606" x2="239.957" y2="65.9021" gradientUnits="userSpaceOnUse">
<stop offset="0.3868" stop-color="#FFBD9F"/>
<stop offset="1" stop-color="#EF72A6"/>
</linearGradient>
<linearGradient id="paint4_linear_1510_58177" x1="263.776" y1="84.5979" x2="245.313" y2="82.6428" gradientUnits="userSpaceOnUse">
<stop stop-color="white"/>
<stop offset="0.8703" stop-color="#CFBBEA"/>
</linearGradient>
<linearGradient id="paint5_linear_1510_58177" x1="263.776" y1="84.5979" x2="245.313" y2="82.6428" gradientUnits="userSpaceOnUse">
<stop stop-color="white"/>
<stop offset="0.8703" stop-color="#CFBBEA"/>
</linearGradient>
<linearGradient id="paint6_linear_1510_58177" x1="211.012" y1="81.0561" x2="211.012" y2="182.143" gradientUnits="userSpaceOnUse">
<stop stop-color="#EF72A6"/>
<stop offset="0.6132" stop-color="#FFBD9F"/>
</linearGradient>
<linearGradient id="paint7_linear_1510_58177" x1="16.6609" y1="208.296" x2="187.222" y2="208.296" gradientUnits="userSpaceOnUse">
<stop offset="0.3868" stop-color="#FFBD9F"/>
<stop offset="1" stop-color="#EF72A6"/>
</linearGradient>
<linearGradient id="paint8_linear_1510_58177" x1="154.038" y1="121.725" x2="261.336" y2="332.141" gradientUnits="userSpaceOnUse">
<stop offset="0.0188" stop-color="#FDB6BC"/>
<stop offset="0.8108" stop-color="#FB5CB0"/>
</linearGradient>
<linearGradient id="paint9_linear_1510_58177" x1="263.722" y1="168.006" x2="263.722" y2="208.208" gradientUnits="userSpaceOnUse">
<stop stop-color="#FFBD9F"/>
<stop offset="1" stop-color="#EF72A6"/>
</linearGradient>
<linearGradient id="paint10_linear_1510_58177" x1="293.818" y1="290.513" x2="309.494" y2="343.811" gradientUnits="userSpaceOnUse">
<stop offset="0.3868" stop-color="#FFBD9F"/>
<stop offset="1" stop-color="#EF72A6"/>
</linearGradient>
<linearGradient id="paint11_linear_1510_58177" x1="1.07187" y1="207.974" x2="96.2916" y2="303.194" gradientUnits="userSpaceOnUse">
<stop stop-color="#4C5F9B"/>
<stop offset="0.6962" stop-color="#27316F"/>
</linearGradient>
<linearGradient id="paint12_linear_1510_58177" x1="9.51298" y1="252.395" x2="110.172" y2="252.395" gradientUnits="userSpaceOnUse">
<stop stop-color="#CEEDE0"/>
<stop offset="0.9812" stop-color="white"/>
</linearGradient>
<linearGradient id="paint13_linear_1510_58177" x1="19.9953" y1="202.562" x2="60.3181" y2="202.562" gradientUnits="userSpaceOnUse">
<stop offset="0.0188" stop-color="#FDB6BC"/>
<stop offset="0.8108" stop-color="#FB5CB0"/>
</linearGradient>
<linearGradient id="paint14_linear_1510_58177" x1="2.51547" y1="259.516" x2="24.6172" y2="259.516" gradientUnits="userSpaceOnUse">
<stop stop-color="#EF72A6"/>
<stop offset="0.6132" stop-color="#FFBD9F"/>
</linearGradient>
</defs>
</svg>
