<svg width="188" height="53" viewBox="0 0 188 53" fill="none" xmlns="http://www.w3.org/2000/svg">
<g clip-path="url(#clip0_2006_19732)">
<path d="M60.2548 9.71826H66.0644C66.6765 9.71084 67.2867 9.78808 67.8766 9.94767C68.3826 10.0835 68.8561 10.3152 69.2701 10.6295C69.658 10.9232 69.9677 11.3035 70.1729 11.7383C70.3885 12.2025 70.4957 12.7074 70.487 13.2168C70.4911 13.7256 70.358 14.2267 70.101 14.6697C69.8278 15.1287 69.4437 15.5158 68.9822 15.7976C69.6784 16.0185 70.2987 16.422 70.7748 16.9638C71.2414 17.5527 71.4737 18.2859 71.4291 19.0285C71.4645 19.5611 71.3683 20.0942 71.1486 20.5832C70.929 21.0722 70.5921 21.5027 70.1664 21.8387C69.098 22.5457 67.8176 22.8844 66.5289 22.801H60.209L60.2548 9.71826ZM65.626 14.931C65.8593 14.9565 66.0955 14.9358 66.3204 14.8701C66.5453 14.8044 66.7541 14.695 66.9345 14.5486C67.1812 14.2721 67.31 13.9141 67.2943 13.5481C67.3138 13.1835 67.1845 12.8261 66.9345 12.554C66.7527 12.4103 66.5434 12.3031 66.3189 12.2385C66.0943 12.174 65.8588 12.1534 65.626 12.178H63.3362V14.9055L65.626 14.931ZM66.4569 20.3412C66.9571 20.3867 67.4566 20.248 67.857 19.9525C68.0067 19.8153 68.1236 19.6477 68.1994 19.4616C68.2751 19.2755 68.3079 19.0754 68.2953 18.8755C68.3085 18.6728 68.2762 18.4696 68.2005 18.2803C68.1248 18.091 68.0075 17.9201 67.857 17.7795C67.454 17.4895 66.9559 17.3535 66.4569 17.3971H63.3362V20.3412H66.4569Z" fill="#1E1E1E"/>
<path d="M80.1042 23.0938C79.1497 23.1044 78.2026 22.9311 77.3171 22.584C76.5004 22.2568 75.7579 21.7761 75.132 21.1693C74.5079 20.5496 74.0204 19.8123 73.6992 19.0026C73.3528 18.1289 73.1796 17.1991 73.1889 16.2624C73.1783 15.3278 73.3516 14.3998 73.6992 13.5286C74.0228 12.7201 74.51 11.9833 75.132 11.362C75.7536 10.747 76.497 10.2613 77.3171 9.93456C79.1051 9.25489 81.0901 9.25489 82.8781 9.93456C83.7006 10.2606 84.4462 10.7463 85.0698 11.362C85.6918 11.9833 86.179 12.7201 86.5026 13.5286C86.8525 14.3994 87.0279 15.3274 87.0194 16.2624C87.0267 17.1995 86.8513 18.1293 86.5026 19.0026C86.1814 19.8123 85.6939 20.5496 85.0698 21.1693C84.4427 21.7776 83.6977 22.2585 82.8781 22.584C81.9966 22.9288 81.0541 23.102 80.1042 23.0938ZM80.1042 20.3217C80.647 20.3325 81.1855 20.2259 81.6809 20.0095C82.13 19.8138 82.5281 19.5219 82.8454 19.1556C83.1715 18.7805 83.4202 18.3478 83.5781 17.8811C83.9183 16.8339 83.9183 15.7101 83.5781 14.6629C83.4202 14.1962 83.1715 13.7635 82.8454 13.3884C82.5281 13.0221 82.13 12.7302 81.6809 12.5345C81.181 12.3286 80.6437 12.2225 80.1009 12.2225C79.5581 12.2225 79.0208 12.3286 78.5209 12.5345C78.0718 12.7302 77.6737 13.0221 77.3564 13.3884C77.0303 13.7635 76.7815 14.1962 76.6237 14.6629C76.2835 15.7101 76.2835 16.8339 76.6237 17.8811C76.7815 18.3478 77.0303 18.7805 77.3564 19.1556C77.6737 19.5219 78.0718 19.8138 78.5209 20.0095C79.0184 20.2266 79.5592 20.3332 80.1042 20.3217Z" fill="#1E1E1E"/>
<path d="M88.2166 20.3986C88.5394 20.4007 88.8617 20.3708 89.1783 20.3093C89.3312 20.2728 89.4752 20.2073 89.602 20.1166C89.7289 20.0258 89.8361 19.9116 89.9176 19.7804C90.175 19.3609 90.3502 18.8985 90.4344 18.4167C90.5926 17.5515 90.6844 16.6761 90.7092 15.7976L90.984 9.71826H101.36V22.801H98.2787V12.3119H93.843L93.6075 15.9506C93.5514 17.199 93.3583 18.4381 93.0317 19.6466C92.8317 20.4273 92.4588 21.1559 91.9392 21.7814C91.5158 22.2643 90.9488 22.6072 90.3167 22.7628C89.6205 22.9257 88.9064 23.0049 88.1904 22.9985L88.2166 20.3986Z" fill="#1E1E1E"/>
<path d="M110.69 23.0938C109.735 23.1037 108.788 22.9305 107.903 22.584C107.086 22.2568 106.343 21.7761 105.717 21.1693C105.093 20.5496 104.606 19.8123 104.285 19.0026C103.938 18.1289 103.765 17.1991 103.774 16.2624C103.764 15.3278 103.937 14.3998 104.285 13.5286C104.608 12.7201 105.095 11.9833 105.717 11.362C106.339 10.747 107.082 10.2613 107.903 9.93456C109.691 9.25489 111.676 9.25489 113.464 9.93456C114.287 10.2583 115.033 10.7443 115.655 11.362C116.277 11.9833 116.764 12.7201 117.088 13.5286C117.438 14.3994 117.613 15.3274 117.605 16.2624C117.612 17.1995 117.437 18.1293 117.088 19.0026C116.767 19.8123 116.279 20.5496 115.655 21.1693C115.029 21.7789 114.284 22.26 113.464 22.584C112.582 22.9288 111.64 23.102 110.69 23.0938ZM110.69 20.3217C111.232 20.3325 111.771 20.2259 112.266 20.0095C112.715 19.8138 113.114 19.5219 113.431 19.1556C113.757 18.7805 114.006 18.3478 114.164 17.8811C114.504 16.8339 114.504 15.7101 114.164 14.6629C114.006 14.1962 113.757 13.7635 113.431 13.3884C113.114 13.0221 112.715 12.7302 112.266 12.5345C111.766 12.3286 111.229 12.2225 110.686 12.2225C110.144 12.2225 109.606 12.3286 109.106 12.5345C108.657 12.7302 108.259 13.0221 107.942 13.3884C107.616 13.7635 107.367 14.1962 107.209 14.6629C106.869 15.7101 106.869 16.8339 107.209 17.8811C107.367 18.3478 107.616 18.7805 107.942 19.1556C108.259 19.5219 108.657 19.8138 109.106 20.0095C109.604 20.2266 110.145 20.3332 110.69 20.3217Z" fill="#1E1E1E"/>
<path d="M120.045 9.71826H123.126V14.9055H129.054V9.731H132.135V22.8137H129.054V17.5054H123.126V22.8137H120.045V9.71826Z" fill="#1E1E1E"/>
<path d="M138.167 12.3119H134.196V9.71826H145.226V12.3119H141.248V22.801H138.167V12.3119Z" fill="#1E1E1E"/>
<path d="M147.281 9.71826H156.963V12.3119H150.369V14.8609H155.995V17.4608H150.369V20.1755H156.963V22.7691H147.281V9.71826Z" fill="#1E1E1E"/>
<path d="M159.718 9.71806H165.154C165.816 9.71235 166.476 9.79163 167.117 9.95385C167.688 10.0974 168.221 10.3581 168.681 10.7185C169.124 11.0744 169.476 11.5261 169.708 12.0376C169.973 12.6409 170.101 13.2933 170.081 13.9494C170.099 14.6053 169.972 15.2574 169.708 15.8611C169.474 16.3699 169.122 16.8192 168.681 17.1739C168.223 17.5367 167.689 17.7977 167.117 17.9386C166.477 18.103 165.817 18.1844 165.154 18.1807H162.799V22.8326H159.718V9.71806ZM164.716 15.5489C165.008 15.5496 165.299 15.5261 165.586 15.4788C165.819 15.4386 166.041 15.3542 166.24 15.2303C166.434 15.1046 166.59 14.9308 166.692 14.7268C166.804 14.4755 166.862 14.2044 166.862 13.9303C166.862 13.6562 166.804 13.385 166.692 13.1337C166.59 12.9298 166.434 12.756 166.24 12.6303C166.041 12.5064 165.819 12.4219 165.586 12.3818C165.299 12.3344 165.008 12.311 164.716 12.3117H162.799V15.5425L164.716 15.5489Z" fill="#1E1E1E"/>
<path d="M172.207 9.71826H175.288V14.6824H178.331C179.635 14.5979 180.927 14.9759 181.968 15.7466C182.777 16.5445 183.23 17.6205 183.23 18.7417C183.23 19.8629 182.777 20.9389 181.968 21.7368C180.929 22.5101 179.636 22.8884 178.331 22.801H172.207V9.71826ZM178.239 20.2074C178.741 20.2514 179.242 20.113 179.646 19.8187C179.924 19.5255 180.078 19.1409 180.078 18.7417C180.078 18.3425 179.924 17.9579 179.646 17.6648C179.24 17.3754 178.74 17.2395 178.239 17.2824H175.315V20.2074H178.239ZM184.938 9.71826H188.02V22.801H184.912L184.938 9.71826Z" fill="#1E1E1E"/>
<path d="M65.3514 44.9326C64.0828 44.9681 62.8266 44.6803 61.7073 44.0978C60.7165 43.5559 59.8835 42.7774 59.2866 41.8356L61.5568 40.1596C61.9407 40.7422 62.4441 41.2412 63.0354 41.6253C63.7194 42.0111 64.5029 42.197 65.2925 42.1606C66.153 42.1923 66.9956 41.9157 67.6608 41.3831C68.3017 40.8528 68.7454 40.1317 68.9235 39.3312H63.827V36.7376H68.8842C68.6897 35.9704 68.247 35.2845 67.6215 34.7812C66.9589 34.2751 66.134 34.0133 65.2925 34.042C64.5029 34.0056 63.7194 34.1914 63.0354 34.5773C62.4455 34.963 61.9424 35.4617 61.5568 36.043L59.2866 34.367C59.8835 33.4252 60.7165 32.6467 61.7073 32.1048C62.6944 31.6169 63.7755 31.3359 64.8809 31.2799C65.9864 31.224 67.0916 31.3942 68.1253 31.7798C68.9486 32.1013 69.6947 32.5851 70.317 33.2008C70.9389 33.8221 71.4262 34.559 71.7497 35.3675C72.4389 37.1304 72.4389 39.0785 71.7497 40.8414C71.4327 41.6501 70.947 42.3859 70.3231 43.0023C69.6992 43.6188 68.9509 44.1025 68.1253 44.4228C67.2446 44.7706 66.3016 44.9439 65.3514 44.9326Z" fill="#1E1E1E"/>
<path d="M74.7065 31.5566H77.788V36.7375H78.5796L82.6293 31.5566H86.1883V31.614L81.033 37.9291L86.5023 44.5884V44.6457H82.9237L78.5992 39.3311H77.788V44.6457H74.7065V31.5566Z" fill="#1E1E1E"/>
<path d="M93.6076 44.9324C92.653 44.9456 91.7053 44.7723 90.8206 44.4226C89.9985 44.0992 89.2535 43.6143 88.6322 42.9981C88.0109 42.382 87.5265 41.6478 87.2092 40.8413C86.5201 39.0784 86.5201 37.1303 87.2092 35.3673C87.5328 34.5588 88.02 33.822 88.642 33.2007C89.2606 32.5866 90.0021 32.1029 90.8206 31.7796C92.6109 31.1002 94.5978 31.1002 96.3881 31.7796C97.21 32.1037 97.9556 32.5872 98.5798 33.2007C99.1974 33.8253 99.6841 34.5613 100.013 35.3673C100.693 37.1319 100.693 39.0768 100.013 40.8413C99.6889 41.6497 99.2016 42.3866 98.5798 43.0079C97.955 43.6191 97.2094 44.1004 96.3881 44.4226C95.505 44.7701 94.56 44.9434 93.6076 44.9324ZM93.6076 42.1604C94.1518 42.17 94.6917 42.0657 95.1909 41.8545C95.64 41.6588 96.0381 41.3669 96.3554 41.0006C96.6782 40.6234 96.9267 40.1913 97.0881 39.7261C97.4227 38.689 97.4227 37.577 97.0881 36.5399C96.9288 36.0737 96.6801 35.6413 96.3554 35.2654C96.0388 34.8967 95.6407 34.6026 95.1909 34.4051C94.1791 33.9976 93.0427 33.9976 92.0309 34.4051C91.5787 34.6018 91.1783 34.896 90.8599 35.2654C90.5372 35.6416 90.2908 36.0741 90.1337 36.5399C89.7905 37.5756 89.7905 38.6903 90.1337 39.7261C90.2929 40.191 90.5391 40.6231 90.8599 41.0006C91.1803 41.3664 91.5803 41.6581 92.0309 41.8545C92.5278 42.0658 93.0656 42.1701 93.6076 42.1604Z" fill="#1E1E1E"/>
<path d="M101.694 42.2369C102.014 42.241 102.334 42.2133 102.649 42.1541C102.959 42.0787 103.226 41.8891 103.395 41.6252C103.652 41.204 103.825 40.7391 103.905 40.2551C104.063 39.3919 104.157 38.5187 104.186 37.6424L104.461 31.5566H114.831V44.6457H111.749V34.1566H107.346L107.111 37.7953C107.048 39.0431 106.855 40.2815 106.535 41.4914C106.334 42.273 105.959 43.0019 105.436 43.6261C105.013 44.1067 104.449 44.4492 103.82 44.6075C103.124 44.7746 102.41 44.8581 101.694 44.856V42.2369Z" fill="#1E1E1E"/>
<path d="M124.186 44.9326C123.232 44.9458 122.284 44.7724 121.399 44.4228C120.577 44.0993 119.832 43.6144 119.211 42.9983C118.59 42.3821 118.105 41.6479 117.788 40.8415C117.099 39.0785 117.099 37.1304 117.788 35.3675C118.111 34.559 118.599 33.8221 119.221 33.2008C119.839 32.5867 120.581 32.103 121.399 31.7798C123.187 31.1001 125.172 31.1001 126.96 31.7798C127.784 32.1031 128.532 32.5867 129.158 33.2008C129.776 33.8255 130.263 34.5614 130.591 35.3675C131.271 37.132 131.271 39.0769 130.591 40.8415C130.267 41.6499 129.78 42.3867 129.158 43.0081C128.532 43.62 127.784 44.1013 126.96 44.4228C126.08 44.7712 125.137 44.9446 124.186 44.9326ZM124.186 42.1606C124.73 42.1702 125.27 42.0659 125.769 41.8547C126.219 41.659 126.617 41.3671 126.934 41.0008C127.257 40.6236 127.505 40.1915 127.667 39.7263C128.001 38.6892 128.001 37.5771 127.667 36.54C127.507 36.0739 127.259 35.6414 126.934 35.2655C126.617 34.8969 126.219 34.6028 125.769 34.4052C124.758 33.9977 123.621 33.9977 122.61 34.4052C122.157 34.602 121.757 34.8961 121.438 35.2655C121.116 35.6418 120.869 36.0743 120.712 36.54C120.369 37.5758 120.369 38.6905 120.712 39.7263C120.872 40.1911 121.118 40.6232 121.438 41.0008C121.759 41.3666 122.159 41.6583 122.61 41.8547C123.106 42.0659 123.644 42.1703 124.186 42.1606Z" fill="#1E1E1E"/>
<path d="M133.548 31.5566H142.753V34.1566H136.63V44.6457H133.548V31.5566Z" fill="#1E1E1E"/>
<path d="M144.814 31.5566H147.895V39.6816L154.595 31.5566H157.303V44.6457H154.215V36.5208L147.49 44.6457H144.821L144.814 31.5566Z" fill="#1E1E1E"/>
<path d="M7.58887 37.8462H18.2201C19.2612 37.8462 20.2596 37.4434 20.9958 36.7263C21.732 36.0093 22.1455 35.0368 22.1455 34.0227C22.1455 33.0087 21.732 32.0361 20.9958 31.3191C20.2596 30.602 19.2612 30.1992 18.2201 30.1992H7.58887V37.8462Z" fill="#059858"/>
<path d="M38.4754 7.7615C35.9493 5.30038 32.9501 3.34807 29.6493 2.01609C26.3485 0.684101 22.8106 -0.00146484 19.2377 -0.00146484C15.6648 -0.00146484 12.1269 0.684101 8.82607 2.01609C5.52523 3.34807 2.52611 5.30038 0 7.7615H18.2204C20.4461 7.76591 22.6228 8.39893 24.4867 9.58387C26.3506 10.7688 27.8218 12.4548 28.7219 14.4376C29.622 16.4204 29.9125 18.6149 29.5581 20.7553C29.2037 22.8956 28.2198 24.8899 26.7254 26.4966C28.2189 28.1041 29.2022 30.0987 29.5561 32.2391C29.9101 34.3795 29.6195 36.574 28.7196 38.5569C27.8198 40.5399 26.3492 42.2263 24.4858 43.412C22.6224 44.5978 20.4461 45.2321 18.2204 45.2381H0C5.10215 50.2078 12.0221 52.9998 19.2377 52.9998C26.4532 52.9998 33.3732 50.2078 38.4754 45.2381C43.5775 40.2684 46.4439 33.528 46.4439 26.4998C46.4439 19.4716 43.5775 12.7312 38.4754 7.7615Z" fill="#059858"/>
<path d="M18.2201 15.1538H7.58887V22.8008H18.2201C19.2612 22.8008 20.2596 22.398 20.9958 21.6809C21.732 20.9639 22.1455 19.9914 22.1455 18.9773C22.1455 17.9632 21.732 16.9907 20.9958 16.2737C20.2596 15.5566 19.2612 15.1538 18.2201 15.1538Z" fill="#059858"/>
</g>
<defs>
<clipPath id="clip0_2006_19732">
<rect width="188" height="53" fill="white"/>
</clipPath>
</defs>
</svg>
