<svg width="36" height="42" viewBox="0 0 36 42" fill="none" xmlns="http://www.w3.org/2000/svg">
<g clip-path="url(#clip0_726_37267)">
<path d="M5.88184 30.0528H14.1213C14.9281 30.0528 15.7019 29.7329 16.2725 29.1635C16.843 28.5941 17.1635 27.8218 17.1635 27.0166C17.1635 26.2114 16.843 25.4391 16.2725 24.8697C15.7019 24.3003 14.9281 23.9805 14.1213 23.9805H5.88184V30.0528Z" fill="#059858"/>
<path d="M29.8192 6.16341C27.8614 4.20909 25.537 2.65881 22.9788 1.60111C20.4206 0.543415 17.6786 -0.000976562 14.9096 -0.000976562C12.1405 -0.000976562 9.39859 0.543415 6.84037 1.60111C4.28216 2.65881 1.95779 4.20909 0 6.16341H14.1211C15.8461 6.16691 17.5331 6.66957 18.9777 7.61051C20.4223 8.55144 21.5624 9.89025 22.26 11.4648C22.9576 13.0392 23.1827 14.7819 22.9081 16.4815C22.6335 18.181 21.8709 19.7647 20.7127 21.0405C21.8702 22.3169 22.6323 23.9008 22.9066 25.6005C23.1809 27.3001 22.9557 29.0427 22.2583 30.6173C21.5609 32.1919 20.4211 33.531 18.977 34.4726C17.5328 35.4142 15.8462 35.9179 14.1211 35.9227H0C3.95427 39.869 9.3174 42.086 14.9096 42.086C20.5018 42.086 25.8649 39.869 29.8192 35.9227C33.7734 31.9764 35.9949 26.624 35.9949 21.043C35.9949 15.4621 33.7734 10.1097 29.8192 6.16341Z" fill="#059858"/>
<path d="M14.1213 12.0332H5.88184V18.1055H14.1213C14.9281 18.1055 15.7019 17.7856 16.2725 17.2162C16.843 16.6468 17.1635 15.8746 17.1635 15.0693C17.1635 14.2641 16.843 13.4919 16.2725 12.9225C15.7019 12.3531 14.9281 12.0332 14.1213 12.0332Z" fill="#059858"/>
</g>
<defs>
<clipPath id="clip0_726_37267">
<rect width="36" height="42" fill="white"/>
</clipPath>
</defs>
</svg>
