<svg width="703" height="566" viewBox="0 0 703 566" fill="none" xmlns="http://www.w3.org/2000/svg">
<path opacity="0.1" d="M1.27217 171.779C-8.64966 76.7701 182.385 30.546 291.052 19.4067C455.399 2.55959 622.393 5.94539 636.369 62.7881C652.238 127.322 584.632 147.635 607.278 209.782C631.316 275.75 689.641 249.22 700.597 290.808C719.299 361.796 586.121 421.457 391.549 456.446C150.507 499.791 78.3452 482.976 68.5222 430.632C58.6991 378.288 143.328 356.059 127.46 298.696C111.592 241.332 9.58404 251.371 1.27217 171.779Z" fill="url(#paint0_linear_1220_50859)"/>
<g opacity="0.1">
<path d="M341.5 565.766C513.823 565.766 653.518 556.964 653.518 546.106C653.518 535.249 513.823 526.447 341.5 526.447C169.177 526.447 29.4814 535.249 29.4814 546.106C29.4814 556.964 169.177 565.766 341.5 565.766Z" fill="url(#paint1_linear_1220_50859)"/>
<path d="M341.5 565.766C513.823 565.766 653.518 556.964 653.518 546.106C653.518 535.249 513.823 526.447 341.5 526.447C169.177 526.447 29.4814 535.249 29.4814 546.106C29.4814 556.964 169.177 565.766 341.5 565.766Z" fill="#6BA8BC"/>
</g>
<path opacity="0.3" d="M347.454 535.979C507.281 535.979 636.845 539.713 636.845 544.319C636.845 548.926 507.281 552.66 347.454 552.66C187.628 552.66 58.0635 548.926 58.0635 544.319C58.0635 539.713 187.628 535.979 347.454 535.979Z" fill="#6F8C9E"/>
<path d="M438.933 89.4223C438.933 89.4223 431.686 88.7611 428.672 83.9999C425.659 79.2387 429.656 76.7786 429.656 76.7786C429.656 76.7786 424.772 75.0053 425.126 67.0716C425.479 59.1379 433.746 61.7312 433.746 61.7312C433.746 61.7312 431.578 58.241 431.973 54.961C432.368 51.6809 436.785 56.9392 436.785 56.9392C436.785 56.9392 434.254 48.452 443.602 45.4795C452.95 42.5069 459.336 48.329 459.336 48.329C459.336 48.329 466.327 39.5805 469.181 41.2C472.036 42.8195 466.706 47.5449 466.706 47.5449C466.706 47.5449 475.203 44.7825 479.206 49.0824C483.204 53.3824 480.344 57.6516 480.344 57.6516C480.344 57.6516 485.802 57.4005 486.222 59.8401C486.643 62.2796 482.707 63.2841 482.707 63.2841C482.707 63.2841 489.769 64.8934 488.944 70.1928C488.114 75.4922 487.063 76.5428 487.063 76.5428C487.063 76.5428 492.065 82.9903 489.687 86.5522C487.304 90.1193 484.628 90.8624 484.628 90.8624C484.628 90.8624 484.664 99.8365 480.518 100.267C476.372 100.698 473.148 95.1419 473.148 95.1419L438.933 89.4223Z" fill="#152E51"/>
<path d="M482.056 128.645L458.977 133.826L448.204 134.226C448.204 134.226 459.285 118.513 456.497 107.401C455.374 102.932 458.08 98.3913 461.904 95.0804C467.587 90.1501 475.747 87.9206 477.51 92.646C477.51 92.646 473.845 106.684 477.95 117.662C482.056 128.645 482.056 128.645 482.056 128.645Z" fill="url(#paint2_linear_1220_50859)"/>
<path d="M474.88 97.52C474.88 97.52 471.958 117.513 461.918 125.273C461.611 125.508 461.283 125.734 460.939 125.939L453.441 124.975C453.441 124.975 459.279 118.518 456.491 107.406C455.368 102.937 458.075 98.3964 461.898 95.0855C469.514 94.7268 474.88 97.52 474.88 97.52Z" fill="#F078A5"/>
<path d="M481.912 87.2391C482.593 90.0836 476.95 93.9889 476.95 93.9889C476.95 93.9889 475.931 102.579 475.285 105.392C474.783 107.565 462.559 113.244 455.712 115.591C455.702 115.596 455.686 115.602 455.671 115.607C450.864 117.011 450.905 112.983 447.958 110.635C444.898 108.191 440.659 100.836 440.398 100.385C440.388 100.37 440.388 100.359 440.388 100.359C439.988 99.3498 439.681 98.4375 439.506 97.679C438.281 92.3027 439.742 89.4737 437.241 86.6959C434.735 83.9129 435.57 76.8864 435.57 76.8864L442.13 75.2463C442.13 75.2463 445.559 77.7935 453.472 76.0049C461.385 74.2162 467.131 69.7522 468.376 70.0033C469.627 70.2596 469.176 79.0799 469.873 81.7501C470.57 84.4152 469.365 86.6087 471.82 86.1885C474.275 85.7631 475.285 79.8282 478.478 79.9768C481.676 80.1203 481.225 84.3998 481.912 87.2391Z" fill="url(#paint3_linear_1220_50859)"/>
<path d="M445.334 90.3194C445.657 91.5494 445.242 92.7128 444.412 92.923C443.581 93.1331 442.643 92.3028 442.321 91.0728C441.998 89.8428 442.413 88.6794 443.243 88.4692C444.078 88.2642 445.016 89.0894 445.334 90.3194Z" fill="#152E51"/>
<path d="M460.172 87.2852C460.495 88.5153 460.08 89.6787 459.25 89.8888C458.419 90.0989 457.481 89.2687 457.158 88.0386C456.836 86.8086 457.251 85.6452 458.081 85.4351C458.911 85.23 459.849 86.0552 460.172 87.2852Z" fill="#152E51"/>
<path opacity="0.36" d="M448.409 92.2923C450.613 94.4705 447.512 95.7723 447.527 97.8633C447.538 99.2215 448.67 99.0114 449.393 99.7494C449.962 100.329 450.736 99.4162 450.167 98.8371C449.813 98.4732 448.809 98.2426 448.804 97.6481C448.798 97.3713 449.388 96.6077 449.506 96.4027C449.757 95.9619 450.069 95.5109 450.274 95.0445C450.879 93.6607 450.203 92.3846 449.183 91.38C448.609 90.8112 447.835 91.7234 448.409 92.2923Z" fill="#C14276"/>
<path d="M439.932 87.2084C439.804 87.316 440.742 85.3684 441.644 84.9738C442.54 84.5792 443.453 84.2409 443.852 84.6458C444.252 85.0558 444.698 85.6196 444.145 85.7579C443.591 85.9014 441.131 86.1782 439.932 87.2084Z" fill="#152E51"/>
<path d="M455.656 82.3035C455.656 82.3035 455.692 83.3234 455.979 83.5335C456.266 83.7436 457.26 83.0979 458.619 83.4361C459.977 83.7744 461.15 83.9896 461.15 83.9896C461.15 83.9896 460.161 82.6571 459.162 82.0011C458.168 81.3502 455.523 81.4168 455.656 82.3035Z" fill="#152E51"/>
<path d="M445.267 88.7662C445.375 89.1813 445.113 89.6067 444.678 89.7143C444.242 89.8219 443.807 89.5759 443.699 89.1557C443.591 88.7406 443.853 88.3152 444.288 88.2075C444.719 88.0999 445.16 88.351 445.267 88.7662Z" fill="white"/>
<path d="M460.038 85.8759C460.145 86.291 459.884 86.7164 459.448 86.824C459.013 86.9316 458.577 86.6856 458.469 86.2654C458.362 85.8502 458.623 85.4249 459.059 85.3172C459.495 85.2096 459.93 85.4556 460.038 85.8759Z" fill="white"/>
<path d="M458.886 105.284C458.414 105.833 457.825 106.381 457.102 106.899C455.221 108.262 453.099 108.641 451.249 108.216C449.809 107.888 448.538 107.078 447.672 105.869C447.354 105.428 447.6 104.844 448.118 104.721C448.164 104.7 448.22 104.695 448.277 104.69C449.327 104.649 450.962 104.444 452.966 103.706C455.606 102.737 458.424 100.482 459.798 99.821C460.28 99.5904 460.582 99.5545 460.644 99.8313C460.849 100.703 460.885 102.999 458.886 105.284Z" fill="#C14276"/>
<path d="M459.802 99.8315L459.961 100.8C459.997 101.015 457.922 102.932 454.698 104.183C451.479 105.433 449.337 105.51 448.845 105.551C448.625 105.567 448.353 105.172 448.117 104.726C448.163 104.706 448.22 104.7 448.276 104.695C449.327 104.654 450.962 104.449 452.966 103.711C455.61 102.748 458.429 100.493 459.802 99.8315Z" fill="white"/>
<path opacity="0.38" d="M458.885 105.285C458.414 105.833 457.825 106.381 457.102 106.899C455.221 108.262 453.099 108.641 451.249 108.216C451.756 106.745 453.525 105.469 455.774 105.115C456.892 104.941 457.968 105.018 458.885 105.285Z" fill="url(#paint4_linear_1220_50859)"/>
<path d="M482.39 284.15C482.39 284.15 462.624 375.256 441.484 400.702C420.345 426.152 463.621 228.612 482.39 284.15Z" fill="white"/>
<path d="M391.085 486.651C391.085 487.424 389.226 501.657 387.06 507.691C384.893 513.724 381.934 516.043 381.934 516.043C381.934 516.043 396.816 522.315 401.149 522.969C405.482 523.623 407.341 521.923 407.341 521.923L412.76 504.887L391.085 486.651Z" fill="url(#paint5_linear_1220_50859)"/>
<path d="M353.393 534.241C353.878 535.675 379.562 535.856 383.442 535.786C387.317 535.721 386.994 533.164 388.287 531.364C389.58 529.568 389.742 532.625 390.384 534.598C391.035 536.575 400.159 535.498 405.378 535.498C407.949 535.498 409.719 527.142 410.847 518.658C411.004 517.466 409.946 516.528 408.934 516.962C407.887 517.412 406.706 517.958 405.378 518.404C399.624 520.323 390.55 516.816 388.61 514.843C386.671 512.867 386.186 510.532 383.765 509.994C381.34 509.456 380.694 510.89 375.845 514.663C371 518.435 360.821 516.82 356.46 521.669C352.1 526.519 352.908 532.802 353.393 534.241Z" fill="url(#paint6_linear_1220_50859)"/>
<path d="M516.482 508.817C516.482 508.817 531.341 523.761 529.136 530.345C526.931 536.929 513.927 538.552 503.709 540.409C493.492 542.266 488.847 539.59 489.078 534.544C489.308 529.499 494.419 515.809 494.419 515.809L516.482 508.817Z" fill="url(#paint7_linear_1220_50859)"/>
<path d="M368.241 121.766C369.149 122.027 381.053 117.759 381.053 117.759C381.053 117.759 380.737 115.544 380.352 112.752C379.756 108.364 378.982 102.542 378.982 101.596C378.982 100.042 372.644 80.7756 370.958 81.164C369.276 81.5524 369.019 81.6831 369.276 83.6252C369.515 85.3826 371.77 93.5122 371.993 95.6004C372.017 95.8119 372.017 95.9657 371.993 96.0388C371.732 96.8156 362.676 102.246 362.415 103.926C362.161 105.599 367.333 121.504 368.241 121.766Z" fill="url(#paint8_linear_1220_50859)"/>
<path d="M362.415 103.919C362.157 105.599 367.333 121.504 368.237 121.766C369.146 122.027 381.049 117.759 381.049 117.759C381.049 117.759 380.733 115.544 380.348 112.752L367.652 117.693C367.652 117.693 365.647 112.844 365.451 112.067C365.255 111.291 371.924 113.94 373.61 113.686C375.292 113.425 376.715 105.795 376.715 104.503C376.715 103.211 371.99 95.5967 371.99 95.5967C372.013 95.8082 372.013 95.962 371.99 96.0351C371.732 96.808 362.676 102.242 362.415 103.919Z" fill="#F078A5"/>
<path d="M450.913 151.511C455.143 152.926 460.511 153.223 465.876 152.277C468.501 151.815 471.122 151.058 473.612 149.992C486.05 144.655 482.047 125.9 480.681 120.758C480.462 119.92 480.308 119.443 480.308 119.443C480.308 119.443 470.31 122.45 463.032 126.038C455.751 129.626 453.496 122.835 453.496 122.835C453.496 122.835 452.53 123.454 451.156 124.784C448.616 127.238 444.687 132.103 442.889 139.905C441.569 145.628 445.195 149.596 450.913 151.511Z" fill="url(#paint9_linear_1220_50859)"/>
<path opacity="0.1" d="M450.913 151.511C455.142 152.926 460.511 153.223 465.876 152.277L475.554 131.03L467.792 139.032C467.792 139.032 466.426 135.637 466.718 134.495C467.011 133.352 467.981 130.984 469.051 130.984C469.882 130.984 477.182 124.254 480.677 120.758C480.457 119.92 480.303 119.443 480.303 119.443C480.303 119.443 470.305 122.45 463.028 126.038C455.746 129.626 453.491 122.835 453.491 122.835C453.491 122.835 452.525 123.454 451.151 124.784C451.205 124.807 451.263 124.827 451.317 124.85C456.886 127.061 456.328 134.96 456.328 135.252C456.331 135.494 452.102 148.008 450.913 151.511Z" fill="#0031C2"/>
<path d="M463.559 146.958C463.385 142.351 463.181 134.922 463.67 134.491C463.693 134.479 463.709 134.472 463.709 134.472C464.486 134.376 466.233 127.78 466.233 127.78C466.814 123.123 461.33 123.223 461.33 123.223C461.33 123.223 459.148 123.708 457.79 124.969C456.431 126.231 456.527 131.757 456.812 133.491C456.947 134.333 457.251 134.706 457.528 134.86C457.728 134.975 457.921 134.979 458.017 134.968C458.059 134.964 458.082 134.956 458.082 134.956L458.075 134.979L457.863 135.529L452.29 150.085L463.713 150.569C463.709 150.569 463.636 149.058 463.559 146.958Z" fill="url(#paint10_linear_1220_50859)"/>
<g opacity="0.43">
<path d="M457.525 134.86L457.86 135.533L463.559 146.962C463.386 142.355 463.182 134.925 463.671 134.495C463.417 134.614 462.012 135.252 460.604 135.252C459.626 135.252 458.656 135.098 458.071 134.983L458.014 134.971C457.71 134.906 457.525 134.86 457.525 134.86Z" fill="#323A7B"/>
</g>
<path d="M386.363 495.965C388.156 498.842 397.493 506.583 405.609 509.086C410.647 510.648 415.222 510.179 417.227 505.275C422.465 492.473 450.297 346.006 455.558 331.87C460.819 317.737 468.631 279.897 468.878 263.207C469.128 246.521 434.13 237.153 434.13 237.153C434.13 237.153 432.625 245.19 430.343 257.519C423.997 291.849 411.643 359.462 409.073 379.586C405.578 406.932 383.45 491.308 386.363 495.965Z" fill="url(#paint11_linear_1220_50859)"/>
<g opacity="0.84">
<path d="M405.605 509.083C410.643 510.644 415.218 510.175 417.223 505.272C422.461 492.47 450.293 346.003 455.554 331.866C460.815 317.734 468.627 279.893 468.874 263.203C469.124 246.517 434.126 237.149 434.126 237.149C434.126 237.149 432.621 245.186 430.339 257.515C439.037 268.337 444.944 281.062 442.881 294.787C438.044 327.021 414.772 457.783 405.605 509.083Z" fill="#222956"/>
</g>
<path d="M453.907 247.375C453.907 247.375 454.403 252.585 455.215 260.999C458.541 295.352 467.146 383.174 468.877 388.316C470.917 394.365 483.817 483.002 486.069 509.944C486.199 511.517 486.299 512.882 486.353 514.001C487.35 534.367 508.066 514.001 516.352 511.675C524.638 509.348 505.738 394.134 506.319 388.316C506.9 382.497 509.232 374.348 514.801 330.705C520.374 287.065 509.128 244.279 509.128 244.279L453.907 247.375Z" fill="url(#paint12_linear_1220_50859)"/>
<g opacity="0.84">
<path d="M453.907 247.374C453.907 247.374 454.403 252.585 455.215 260.999C461.277 262.488 466.826 263.537 471.144 263.787C491.179 264.953 489.451 261.392 493.808 285.865C498.168 310.342 487.104 370.857 489.432 380.167C491.76 389.477 500.423 439.52 503.079 463.958C505.734 488.393 510.826 508.083 486.734 509.875C486.507 509.89 486.284 509.913 486.065 509.94C486.195 511.513 486.296 512.878 486.349 513.997C487.346 534.364 508.062 513.997 516.348 511.671C524.634 509.344 505.734 394.13 506.315 388.312C506.896 382.493 509.228 374.345 514.797 330.701C520.37 287.061 509.125 244.275 509.125 244.275L453.907 247.374Z" fill="#222956"/>
</g>
<path d="M510.202 239.895C510.202 239.895 512.222 243.775 511.114 245.713C510.006 247.652 487.104 258.323 467.688 257.739C448.277 257.158 425.37 246.294 426.34 244.356C427.31 242.418 429.446 236.984 429.446 236.984L510.202 239.895Z" fill="url(#paint13_linear_1220_50859)"/>
<path d="M364.612 120.731C364.612 122.804 386.867 193.405 393.602 194.44C400.329 195.474 426.341 181.749 426.341 181.749V136.121C426.341 136.121 409.854 154.692 403.704 159.472L403.7 159.475C402.688 160.26 401.953 160.671 401.622 160.56C399.294 159.783 385.316 112.971 383.507 112.971C382.037 112.971 370.492 116.724 366.209 119.239C365.216 119.824 364.612 120.343 364.612 120.731Z" fill="url(#paint14_linear_1220_50859)"/>
<path opacity="0.1" d="M364.612 120.731C364.612 122.804 386.867 193.405 393.602 194.44C400.329 195.474 426.341 181.749 426.341 181.749V141.067C426.187 140.955 426.098 140.905 426.098 140.905C426.098 140.905 417.924 184.745 413.525 184.422C409.127 184.099 403.7 159.472 403.7 159.472L403.697 159.476L401.618 160.56C401.618 160.56 410.42 182.842 406.279 186.31C402.142 189.783 391.786 186.937 389.715 183.061C387.976 179.804 371.462 133.883 366.205 119.239C365.216 119.824 364.612 120.343 364.612 120.731Z" fill="#0031C2"/>
<path d="M428.284 238.537C431.001 243.194 448.862 255.219 473.319 252.893C497.776 250.566 511.43 245.132 512.177 240.868C512.342 239.899 511.896 237.68 511.114 234.534C510.86 233.534 510.58 232.434 510.268 231.257C507.258 219.832 501.844 200.535 502.048 182.68C502.344 157.184 511.753 130.307 511.753 130.307C511.753 130.307 509.814 127.465 503.083 124.488C498.515 122.466 489.655 120.87 484.433 120.047C481.959 119.658 480.308 119.447 480.308 119.447C480.308 119.447 474.485 141.044 462.062 143.113C449.639 145.181 454.296 121.389 453.391 121.258C453.261 121.239 452.595 121.47 451.56 121.893C445.556 124.338 427.006 133.149 426.345 136.125C425.567 139.609 425.567 233.884 428.284 238.537Z" fill="url(#paint15_linear_1220_50859)"/>
<path d="M514.801 222.674C523.734 224.497 532.066 225.462 534.921 223.667C541.71 219.39 536.041 196.563 529.776 176.054L519.808 205.242L514.801 222.674Z" fill="url(#paint16_linear_1220_50859)"/>
<path d="M458.179 147.37C468.274 148.662 473.45 142.586 478.368 134.83C483.287 127.073 484.438 120.039 484.438 120.039C481.963 119.651 480.312 119.439 480.312 119.439C480.312 119.439 474.489 141.036 462.066 143.105C449.644 145.174 454.3 121.381 453.396 121.251C453.265 121.232 452.599 121.462 451.564 121.885C450.917 128.504 449.971 146.32 458.179 147.37Z" fill="white"/>
<path d="M511.753 130.299C511.753 130.299 510.071 127.973 505.153 130.299C500.234 132.626 496.613 138.833 497.387 150.473C498.164 162.11 503.028 168.571 503.028 168.571L511.753 130.299Z" fill="white"/>
<path d="M466.722 231.685H508.151C510.556 231.685 512.669 230.092 513.335 227.785L513.577 226.947L514.805 222.674L519.808 205.242L523.88 193.313L529.772 176.054L533.774 164.321C534.971 160.826 532.369 157.195 528.675 157.195H479.78C477.556 157.195 475.593 158.557 474.785 160.56C474.665 160.86 474.565 161.176 474.5 161.502L468.904 188.791L463.728 214.022L461.434 225.212C460.757 228.554 463.313 231.685 466.722 231.685Z" fill="url(#paint17_linear_1220_50859)"/>
<g opacity="0.43">
<path d="M453.907 234.53H511.114C510.86 233.53 510.579 232.43 510.268 231.254C509.613 231.534 508.898 231.684 508.151 231.684H466.722C463.313 231.684 460.757 228.558 461.442 225.216L474.508 161.502C474.573 161.175 474.669 160.86 474.793 160.56H466.072L453.907 234.53Z" fill="#323A7B"/>
</g>
<g opacity="0.69">
<path d="M463.735 214.021C468.561 214.494 479.241 215.737 482.512 217.713C484.64 219.002 493.545 225.493 501.943 231.68H508.15C510.556 231.68 512.668 230.088 513.334 227.781L513.577 226.943L514.804 222.67L519.807 205.242L523.879 193.313C514.269 194.128 493.326 195.72 489.362 194.494C485.006 193.14 472.691 189.806 468.911 188.791L463.735 214.021Z" fill="#222956"/>
</g>
<path d="M486.419 211.157C486.508 213.291 486.712 214.887 487.035 215.133C487.647 215.591 501.856 220.036 514.802 222.674L519.809 205.242L511.754 203.231C508.521 202.454 487.813 195.99 487.035 198.059C486.927 198.351 486.827 198.889 486.735 199.601C486.408 202.308 486.258 207.515 486.419 211.157Z" fill="url(#paint18_linear_1220_50859)"/>
<path d="M480.858 120.54C480.858 120.54 480.789 114.483 479.819 114.679C478.849 114.871 461.739 124.031 461.886 124.808C462.032 125.585 463.598 131.211 465.241 131.403C466.885 131.596 480.858 120.54 480.858 120.54Z" fill="url(#paint19_linear_1220_50859)"/>
<path d="M452.838 123.931C452.838 123.931 452.53 118.521 454.181 119.101C455.832 119.682 461.882 124.804 461.882 124.804C461.882 124.804 460.088 131.076 458.922 130.365C457.756 129.654 453.569 124.877 452.838 123.931Z" fill="url(#paint20_linear_1220_50859)"/>
<path d="M430.904 181.75V210.365C430.904 212.264 432.444 213.806 434.349 213.806H453.472C455.373 213.806 456.916 212.264 456.916 210.365V181.75H430.904Z" fill="url(#paint21_linear_1220_50859)"/>
<path d="M456.917 184.903C456.917 184.903 462.74 185.968 464.294 191.11C465.849 196.251 462.497 208.084 459.949 208.469C457.402 208.857 456.917 208.469 456.917 208.469V205.45C456.917 205.45 459.934 203.812 460.804 200.904C461.674 197.993 461.624 190.817 459.949 189.071C458.275 187.326 456.917 188.006 456.917 188.006V184.903Z" fill="#CEEDE0"/>
<path d="M456.72 200.616C456.72 200.616 455.554 203.235 455.554 203.815C455.554 204.258 456.793 205.434 458.071 206.396C458.471 206.7 458.875 206.976 459.245 207.211C460.8 208.18 464.971 210.015 466.426 210.168C467.881 210.314 474.966 208.28 477.005 208.669C478.379 208.934 483.336 210.299 486.415 211.161C486.257 207.519 486.403 202.312 486.734 199.608C483.917 198.643 479.268 196.963 478.071 195.967C476.324 194.513 470.806 189.952 469.055 189.179C467.3 188.402 462.932 188.498 462.932 188.498L464.29 191.117C464.29 191.117 461.7 190.471 459.945 190.102C459.249 189.96 458.687 189.856 458.467 189.856C457.69 189.856 456.428 190.825 456.235 191.41C456.043 191.99 457.594 193.252 457.594 193.252C457.594 193.252 455.654 194.028 455.654 194.997C455.654 195.967 456.917 196.647 456.917 196.647C456.917 196.647 456.043 197.812 455.654 198.685C455.266 199.558 456.139 200.07 456.432 200.351C456.72 200.616 456.72 200.616 456.72 200.616Z" fill="url(#paint22_linear_1220_50859)"/>
<path d="M456.72 200.616C456.72 200.616 455.554 203.235 455.554 203.815C455.554 204.258 456.793 205.434 458.071 206.396C457.96 204.892 457.886 203.042 457.886 200.808C457.886 195.813 458.991 192.248 459.949 190.094C459.253 189.952 458.691 189.848 458.471 189.848C457.694 189.848 456.432 190.817 456.239 191.402C456.047 191.982 457.598 193.244 457.598 193.244C457.598 193.244 455.658 194.021 455.658 194.99C455.658 195.959 456.92 196.639 456.92 196.639C456.92 196.639 456.047 197.805 455.658 198.678C455.27 199.551 456.143 200.062 456.436 200.343C456.72 200.616 456.72 200.616 456.72 200.616Z" fill="#F078A5"/>
<path d="M449.343 181.75H452.287V213.806H449.343V181.75Z" fill="white"/>
<path d="M441.48 181.75H446.61V213.806H441.48V181.75Z" fill="white"/>
<path d="M443.909 185.487C436.725 185.487 430.901 183.815 430.901 181.753C430.901 179.691 436.725 178.019 443.909 178.019C451.093 178.019 456.917 179.691 456.917 181.753C456.917 183.815 451.093 185.487 443.909 185.487Z" fill="url(#paint23_linear_1220_50859)"/>
<path d="M432.652 181.753C432.652 183.226 437.693 184.422 443.912 184.422C450.131 184.422 455.173 183.226 455.173 181.753C455.173 180.28 450.131 179.084 443.912 179.084C437.689 179.084 432.652 180.28 432.652 181.753Z" fill="url(#paint24_linear_1220_50859)"/>
<path d="M361.641 102.53C361.641 104.045 363.115 107.698 363.38 108.675C363.65 109.656 365.793 107.768 365.793 107.768C365.793 107.768 366.059 108.637 366.598 109.544C367.133 110.456 368.337 109.51 368.872 109.24C369.365 108.994 368.953 107.456 368.884 107.202C368.976 107.395 369.407 108.337 369.946 109.171C370.55 110.11 372.02 109.041 372.555 108.637C373.025 108.283 372.301 106.741 372.12 106.379C372.159 106.46 372.236 106.599 372.355 106.772C372.482 106.968 372.659 107.21 372.89 107.433C373.429 107.968 374.295 107.968 375.168 107.433C376.038 106.899 374.033 98.7382 373.629 97.3999C373.229 96.0655 371.331 95.2156 371.15 95.1233C370.469 94.7733 369.896 95.5194 369.638 95.9655C369.534 96.1385 369.476 96.2616 369.476 96.2616C369.476 96.2616 369.119 96.2077 368.672 96.1962C368.118 96.1808 367.433 96.227 367.133 96.5269C366.732 96.9307 366.367 97.6383 366.209 97.9614C366.155 98.069 366.128 98.1344 366.128 98.1344C366.128 98.1344 365.855 98.0306 365.459 98.0267C365.078 98.0229 364.585 98.1075 364.123 98.4728C363.188 99.2073 363.388 100.48 363.388 100.48C363.388 100.48 363.35 100.492 363.284 100.515C363.153 100.569 362.903 100.672 362.642 100.849C362.164 101.165 361.641 101.699 361.641 102.53Z" fill="url(#paint25_linear_1220_50859)"/>
<path d="M368.669 96.2044C368.869 96.3736 369.053 96.5505 369.207 96.7351C370.57 98.381 372.244 106.261 372.348 106.753C372.305 106.318 371.705 100.635 370.612 97.7388C370.308 96.935 369.965 96.3697 369.631 95.9736C369.527 96.1467 369.469 96.2698 369.469 96.2698C369.469 96.2698 369.111 96.2159 368.669 96.2044Z" fill="#F078A5"/>
<path d="M365.454 98.0308C367.144 101.246 368.722 106.664 368.86 107.137C368.799 106.853 368.345 104.734 367.598 101.688C367.309 100.504 366.771 99.1806 366.205 97.9692C366.151 98.0769 366.124 98.1423 366.124 98.1423C366.124 98.1423 365.851 98.0346 365.454 98.0308Z" fill="#F078A5"/>
<path d="M362.634 100.85C364.37 103.657 365.79 107.768 365.79 107.768C365.79 107.768 365.321 104.826 364.247 102.219C363.997 101.611 363.658 101.038 363.273 100.519C363.146 100.569 362.896 100.673 362.634 100.85Z" fill="#F078A5"/>
<path d="M498.815 148.92C498.865 150.769 499.396 153.673 500.224 157.199H523.519C518.854 144.27 514.421 134.349 511.754 130.299C511.754 130.299 498.361 132.045 498.815 148.92Z" fill="url(#paint26_linear_1220_50859)"/>
<path d="M580.354 5.05347V26.163C580.354 28.4201 578.534 30.2469 576.284 30.2469H543.841L529.424 39.6163C528.445 40.2537 527.227 39.2672 527.636 38.1752L530.597 30.2469H521.398C519.148 30.2469 517.328 28.4201 517.328 26.163V5.05347C517.328 2.80043 519.148 0.973633 521.398 0.973633H576.284C578.534 0.973633 580.354 2.80043 580.354 5.05347Z" fill="url(#paint27_linear_1220_50859)"/>
<path d="M536.179 18.0683C537.855 18.0683 539.213 16.7052 539.213 15.0237C539.213 13.3421 537.855 11.979 536.179 11.979C534.504 11.979 533.146 13.3421 533.146 15.0237C533.146 16.7052 534.504 18.0683 536.179 18.0683Z" fill="white"/>
<path d="M548.842 18.0688C550.517 18.0688 551.876 16.7057 551.876 15.0241C551.876 13.3426 550.517 11.9795 548.842 11.9795C547.166 11.9795 545.808 13.3426 545.808 15.0241C545.808 16.7057 547.166 18.0688 548.842 18.0688Z" fill="white"/>
<path d="M561.503 18.0688C563.178 18.0688 564.537 16.7057 564.537 15.0241C564.537 13.3426 563.178 11.9795 561.503 11.9795C559.827 11.9795 558.469 13.3426 558.469 15.0241C558.469 16.7057 559.827 18.0688 561.503 18.0688Z" fill="white"/>
<path d="M110.771 103.702V124.812C110.771 127.069 112.592 128.896 114.841 128.896H147.284L161.702 138.265C162.681 138.903 163.899 137.916 163.49 136.824L160.529 128.896H169.728C171.977 128.896 173.797 127.069 173.797 124.812V103.702C173.797 101.449 171.977 99.6226 169.728 99.6226H114.841C112.592 99.6226 110.771 101.449 110.771 103.702Z" fill="url(#paint28_linear_1220_50859)"/>
<path d="M110.771 103.702V124.812C110.771 127.069 112.592 128.896 114.841 128.896H147.284L161.702 138.265C162.681 138.903 163.899 137.916 163.49 136.824L160.529 128.896H169.728C171.977 128.896 173.797 127.069 173.797 124.812V103.702C173.797 101.449 171.977 99.6226 169.728 99.6226H114.841C112.592 99.6226 110.771 101.449 110.771 103.702Z" fill="url(#paint29_linear_1220_50859)"/>
<path d="M110.771 103.702V124.812C110.771 127.069 112.592 128.896 114.841 128.896H147.284L161.702 138.265C162.681 138.903 163.899 137.916 163.49 136.824L160.529 128.896H169.728C171.977 128.896 173.797 127.069 173.797 124.812V103.702C173.797 101.449 171.977 99.6226 169.728 99.6226H114.841C112.592 99.6226 110.771 101.449 110.771 103.702Z" fill="url(#paint30_linear_1220_50859)"/>
<path d="M110.771 103.702V124.812C110.771 127.069 112.592 128.896 114.841 128.896H147.284L161.702 138.265C162.681 138.903 163.899 137.916 163.49 136.824L160.529 128.896H169.728C171.977 128.896 173.797 127.069 173.797 124.812V103.702C173.797 101.449 171.977 99.6226 169.728 99.6226H114.841C112.592 99.6226 110.771 101.449 110.771 103.702Z" fill="url(#paint31_linear_1220_50859)"/>
<path d="M154.945 116.717C156.621 116.717 157.979 115.354 157.979 113.673C157.979 111.991 156.621 110.628 154.945 110.628C153.269 110.628 151.911 111.991 151.911 113.673C151.911 115.354 153.269 116.717 154.945 116.717Z" fill="white"/>
<path d="M142.284 116.717C143.96 116.717 145.318 115.354 145.318 113.673C145.318 111.991 143.96 110.628 142.284 110.628C140.608 110.628 139.25 111.991 139.25 113.673C139.25 115.354 140.608 116.717 142.284 116.717Z" fill="white"/>
<path d="M129.622 116.717C131.297 116.717 132.656 115.354 132.656 113.673C132.656 111.991 131.297 110.628 129.622 110.628C127.946 110.628 126.588 111.991 126.588 113.673C126.588 115.354 127.946 116.717 129.622 116.717Z" fill="white"/>
<path d="M538.197 295.639H487.732C485.887 295.639 484.395 297.137 484.395 298.988V303.429C484.395 305.28 485.887 306.778 487.732 306.778H538.197V295.639Z" fill="url(#paint32_linear_1220_50859)"/>
<path d="M538.197 295.639H487.732C485.887 295.639 484.395 297.137 484.395 298.988V303.429C484.395 305.28 485.887 306.778 487.732 306.778H538.197V295.639Z" fill="url(#paint33_linear_1220_50859)"/>
<path d="M538.197 295.639H487.732C485.887 295.639 484.395 297.137 484.395 298.988V303.429C484.395 305.28 485.887 306.778 487.732 306.778H538.197V295.639Z" fill="url(#paint34_linear_1220_50859)"/>
<path d="M565.775 297.059V305.357H567.729V306.778H535.504C533.902 306.778 532.604 305.475 532.604 303.871V298.545C532.604 296.942 533.902 295.638 535.504 295.638H567.729V297.059H565.775Z" fill="url(#paint35_linear_1220_50859)"/>
<path d="M565.775 297.059V305.357H567.729V306.778H535.504C533.902 306.778 532.604 305.475 532.604 303.871V298.545C532.604 296.942 533.902 295.638 535.504 295.638H567.729V297.059H565.775Z" fill="url(#paint36_linear_1220_50859)"/>
<path d="M565.774 297.06V305.357H537.109C535.807 305.357 534.715 304.647 534.431 303.689C534.379 303.53 534.354 303.364 534.354 303.194V299.223C534.354 299.134 534.363 299.045 534.379 298.955C534.407 298.765 534.468 298.582 534.561 298.411C534.965 297.62 535.956 297.06 537.109 297.06H565.774Z" fill="url(#paint37_linear_1220_50859)"/>
<g opacity="0.27">
<path d="M565.774 298.411V298.954H534.378C534.406 298.764 534.467 298.581 534.56 298.411H565.774Z" fill="#4E7C84"/>
<path d="M565.773 300.668H534.354V301.207H565.773V300.668Z" fill="#4E7C84"/>
<path d="M565.773 303.149V303.687H534.43C534.378 303.529 534.354 303.363 534.354 303.193V303.149H565.773Z" fill="#4E7C84"/>
</g>
<path d="M499.622 306.778H494.092C492.87 306.778 491.879 305.783 491.879 304.557V297.859C491.879 296.633 492.87 295.638 494.092 295.638H499.622C498.4 295.638 497.409 296.633 497.409 297.859V304.557C497.409 305.783 498.4 306.778 499.622 306.778Z" fill="url(#paint38_linear_1220_50859)"/>
<path d="M538.197 284.5H487.732C485.887 284.5 484.395 285.998 484.395 287.849V292.29C484.395 294.141 485.887 295.639 487.732 295.639H538.197V284.5Z" fill="url(#paint39_linear_1220_50859)"/>
<path d="M565.775 285.92V294.218H567.729V295.639H535.504C533.902 295.639 532.604 294.336 532.604 292.732V287.406C532.604 285.803 533.902 284.5 535.504 284.5H567.729V285.92H565.775Z" fill="url(#paint40_linear_1220_50859)"/>
<path d="M565.774 285.92V294.218H537.109C535.807 294.218 534.715 293.508 534.431 292.55C534.379 292.391 534.354 292.225 534.354 292.054V288.084C534.354 287.995 534.363 287.905 534.379 287.816C534.407 287.625 534.468 287.443 534.561 287.272C534.965 286.481 535.956 285.92 537.109 285.92H565.774Z" fill="url(#paint41_linear_1220_50859)"/>
<g opacity="0.4">
<path d="M565.774 287.272V287.815H534.378C534.406 287.624 534.467 287.442 534.56 287.272H565.774Z" fill="#4E7C84"/>
<path d="M565.773 289.529H534.354V290.068H565.773V289.529Z" fill="#4E7C84"/>
<path d="M565.773 292.01V292.548H534.43C534.378 292.39 534.354 292.224 534.354 292.054V292.01H565.773Z" fill="#4E7C84"/>
</g>
<path d="M499.622 295.639H494.092C492.87 295.639 491.879 294.644 491.879 293.418V286.72C491.879 285.494 492.87 284.5 494.092 284.5H499.622C498.4 284.5 497.409 285.494 497.409 286.72V293.418C497.409 294.644 498.4 295.639 499.622 295.639Z" fill="white"/>
<path d="M534.674 247.014C534.674 247.014 530.758 231.494 527.841 226.956C524.92 222.417 524.92 222.417 524.92 222.417L533.97 218.902L524.92 216.413C524.92 216.413 528.221 206.679 523.606 202.359C518.994 198.04 510.762 203.382 510.762 203.382C510.762 203.382 516.017 190.777 524.479 192.028C532.942 193.278 534.669 195.511 534.669 195.511V199.765L538.634 197.849C538.634 197.849 543.743 202.254 544.326 207.722C544.908 213.19 545.054 216.121 545.054 216.121L540.996 219.178L546.077 219.584C546.077 219.584 548.12 225.641 546.077 233.841C544.038 242.037 534.674 247.014 534.674 247.014Z" fill="url(#paint42_linear_1220_50859)"/>
<g opacity="0.62">
<path d="M534.674 247.014C534.674 247.014 530.758 231.494 527.841 226.956C524.92 222.417 524.92 222.417 524.92 222.417L533.97 218.902L524.92 216.413C524.92 216.413 528.221 206.679 523.606 202.359C518.994 198.04 510.762 203.382 510.762 203.382C510.762 203.382 516.017 190.777 524.479 192.028C532.942 193.278 534.669 195.511 534.669 195.511V199.765L538.634 197.849C538.634 197.849 543.743 202.254 544.326 207.722C544.908 213.19 545.054 216.121 545.054 216.121L540.996 219.178L546.077 219.584C546.077 219.584 548.12 225.641 546.077 233.841C544.038 242.037 534.674 247.014 534.674 247.014Z" fill="#059649"/>
</g>
<path d="M533.238 255.519C533.198 255.519 533.153 255.515 533.113 255.503C532.882 255.434 532.749 255.19 532.818 254.954C532.907 254.662 541.422 225.365 532.846 207.909C529.711 201.531 526.26 198.04 522.591 197.536C518.776 197.013 516.046 200.017 516.021 200.049C515.86 200.232 515.585 200.244 515.403 200.082C515.22 199.919 515.208 199.643 515.37 199.461C515.491 199.323 518.445 196.079 522.712 196.664C526.689 197.208 530.362 200.861 533.635 207.515C542.364 225.279 533.748 254.902 533.663 255.198C533.602 255.397 533.428 255.519 533.238 255.519Z" fill="#04783E"/>
<path d="M537.053 248.642C537.053 248.642 529.885 235.566 532.364 226.063C534.844 216.559 540.099 214.802 540.099 214.802L541.705 222.563L544.917 213.19L554.986 212.402L553.234 216.998L561.406 212.402C561.406 212.402 573.546 217.822 575.269 224.784C576.992 231.746 576.992 231.746 576.992 231.746C576.992 231.746 572.348 229.513 566.511 229.408C560.673 229.302 557.17 229.408 557.17 229.408L554.982 224.784L553.23 230.524L546.665 232.623L542.656 229.408L543.893 236.138L537.053 248.642Z" fill="url(#paint43_linear_1220_50859)"/>
<path d="M537.053 248.642C537.053 248.642 529.885 235.566 532.364 226.063C534.844 216.559 540.099 214.802 540.099 214.802L541.705 222.563L544.917 213.19L554.986 212.402L553.234 216.998L561.406 212.402C561.406 212.402 573.546 217.822 575.269 224.784C576.992 231.746 576.992 231.746 576.992 231.746C576.992 231.746 572.348 229.513 566.511 229.408C560.673 229.302 557.17 229.408 557.17 229.408L554.982 224.784L553.23 230.524L546.665 232.623L542.656 229.408L543.893 236.138L537.053 248.642Z" fill="url(#paint44_linear_1220_50859)"/>
<path d="M537.053 248.642C537.053 248.642 529.885 235.566 532.364 226.063C534.844 216.559 540.099 214.802 540.099 214.802L541.705 222.563L544.917 213.19L554.986 212.402L553.234 216.998L561.406 212.402C561.406 212.402 573.546 217.822 575.269 224.784C576.992 231.746 576.992 231.746 576.992 231.746C576.992 231.746 572.348 229.513 566.511 229.408C560.673 229.302 557.17 229.408 557.17 229.408L554.982 224.784L553.23 230.524L546.665 232.623L542.656 229.408L543.893 236.138L537.053 248.642Z" fill="url(#paint45_linear_1220_50859)"/>
<path d="M537.053 248.642C537.053 248.642 529.885 235.566 532.364 226.063C534.844 216.559 540.099 214.802 540.099 214.802L541.705 222.563L544.917 213.19L554.986 212.402L553.234 216.998L561.406 212.402C561.406 212.402 573.546 217.822 575.269 224.784C576.992 231.746 576.992 231.746 576.992 231.746C576.992 231.746 572.348 229.513 566.511 229.408C560.673 229.302 557.17 229.408 557.17 229.408L554.982 224.784L553.23 230.524L546.665 232.623L542.656 229.408L543.893 236.138L537.053 248.642Z" fill="url(#paint46_linear_1220_50859)"/>
<path d="M530.463 248.642C530.742 248.13 530.612 237.6 527.546 230.52C524.48 223.44 513.092 231.575 513.092 231.575L515.701 232.619L512.077 233.837C512.077 233.837 510.034 239.256 509.597 243.502C509.16 247.749 509.16 247.749 509.16 247.749C509.16 247.749 513.1 242.329 517.623 240.571C522.146 238.814 523.46 237.372 524.921 238.607C526.377 239.841 528.699 251.873 530.463 248.642Z" fill="url(#paint47_linear_1220_50859)"/>
<path d="M530.463 248.642C530.742 248.13 530.612 237.6 527.546 230.52C524.48 223.44 513.092 231.575 513.092 231.575L515.701 232.619L512.077 233.837C512.077 233.837 510.034 239.256 509.597 243.502C509.16 247.749 509.16 247.749 509.16 247.749C509.16 247.749 513.1 242.329 517.623 240.571C522.146 238.814 523.46 237.372 524.921 238.607C526.377 239.841 528.699 251.873 530.463 248.642Z" fill="url(#paint48_linear_1220_50859)"/>
<path d="M530.463 248.642C530.742 248.13 530.612 237.6 527.546 230.52C524.48 223.44 513.092 231.575 513.092 231.575L515.701 232.619L512.077 233.837C512.077 233.837 510.034 239.256 509.597 243.502C509.16 247.749 509.16 247.749 509.16 247.749C509.16 247.749 513.1 242.329 517.623 240.571C522.146 238.814 523.46 237.372 524.921 238.607C526.377 239.841 528.699 251.873 530.463 248.642Z" fill="url(#paint49_linear_1220_50859)"/>
<path d="M530.463 248.642C530.742 248.13 530.612 237.6 527.546 230.52C524.48 223.44 513.092 231.575 513.092 231.575L515.701 232.619L512.077 233.837C512.077 233.837 510.034 239.256 509.597 243.502C509.16 247.749 509.16 247.749 509.16 247.749C509.16 247.749 513.1 242.329 517.623 240.571C522.146 238.814 523.46 237.372 524.921 238.607C526.377 239.841 528.699 251.873 530.463 248.642Z" fill="url(#paint50_linear_1220_50859)"/>
<path d="M536.449 255.519C536.215 255.519 536.025 255.336 536.013 255.101C535.968 254.078 535.046 230.025 547.25 224.378C559.415 218.752 566.648 223.688 566.947 223.903C567.145 224.041 567.194 224.317 567.052 224.516C566.915 224.715 566.64 224.764 566.441 224.626C566.373 224.577 559.289 219.779 547.61 225.182C535.936 230.581 536.87 254.821 536.882 255.064C536.894 255.308 536.704 255.511 536.466 255.523C536.462 255.519 536.453 255.519 536.449 255.519Z" fill="#04783E"/>
<path d="M531.364 257.378C531.134 257.378 530.94 257.195 530.928 256.964C530.919 256.838 530.191 244.311 526.021 236.338C525.114 234.608 523.941 233.658 522.529 233.516C518.597 233.127 513.913 238.838 513.864 238.895C513.711 239.082 513.436 239.11 513.25 238.96C513.063 238.806 513.035 238.53 513.185 238.343C513.387 238.091 518.209 232.205 522.614 232.643C524.338 232.818 525.746 233.922 526.793 235.932C531.053 244.075 531.793 256.794 531.797 256.919C531.809 257.163 531.627 257.37 531.385 257.382C531.381 257.378 531.373 257.378 531.364 257.378Z" fill="#04783E"/>
<path d="M548.962 255.312L548.78 256.972L548.537 259.201L548.177 262.493L547.935 264.718L547.575 268.01L547.332 270.239L546.972 273.531L546.729 275.76L546.511 277.761L546.369 279.052L546.122 281.277L545.92 283.144C545.835 283.915 545.184 284.5 544.411 284.5H522.206C521.434 284.5 520.782 283.915 520.698 283.144L520.495 281.277L520.249 279.052L519.888 275.76L519.646 273.531L519.286 270.239L519.043 268.01L518.683 264.718L518.44 262.493L518.08 259.201L517.838 256.972L517.655 255.312C517.558 254.411 518.262 253.623 519.164 253.623H547.453C548.355 253.623 549.059 254.411 548.962 255.312Z" fill="url(#paint51_linear_1220_50859)"/>
<g opacity="0.35">
<path d="M548.778 256.972L548.536 259.201H518.079L517.836 256.972H548.778Z" fill="#4E7C84"/>
<path d="M548.177 262.493L547.934 264.718H518.682L518.439 262.493H548.177Z" fill="#4E7C84"/>
<path d="M547.574 268.01L547.331 270.238H519.285L519.042 268.01H547.574Z" fill="#4E7C84"/>
<path d="M546.971 273.531L546.728 275.76H519.887L519.645 273.531H546.971Z" fill="#4E7C84"/>
<path d="M546.369 279.052L546.122 281.277H520.495L520.248 279.052H546.369Z" fill="#4E7C84"/>
</g>
<g opacity="0.41">
<path d="M546.511 277.761L546.369 279.052L546.122 281.277L545.92 283.144C545.835 283.915 545.184 284.5 544.411 284.5H522.206C521.434 284.5 520.782 283.915 520.698 283.144L520.495 281.277L520.249 279.052L519.888 275.76L519.646 273.531L519.286 270.239L519.043 268.01L518.683 264.718L518.44 262.493L518.08 259.201L517.838 256.972L517.655 255.312C517.558 254.411 518.262 253.623 519.164 253.623H519.88L525.552 275.236C525.944 276.726 527.283 277.761 528.816 277.761H546.511Z" fill="#4E7C84"/>
</g>
<path d="M85.4688 280.535C81.2172 280.665 79.2431 285.841 82.2811 288.825C88.0861 294.528 94.2957 304.405 97.9769 321.492C106.347 360.341 104.255 393.942 104.255 393.942H201.039C201.039 393.942 204.178 327.268 190.574 301.543C176.974 275.818 170.695 277.917 170.695 277.917L85.4688 280.535Z" fill="url(#paint52_linear_1220_50859)"/>
<g opacity="0.93">
<path d="M85.4688 280.535C81.2172 280.665 79.2431 285.841 82.2811 288.825C88.0861 294.528 94.2957 304.405 97.9769 321.492C106.347 360.341 104.255 393.942 104.255 393.942H201.039C201.039 393.942 204.178 327.268 190.574 301.543C176.974 275.818 170.695 277.917 170.695 277.917L85.4688 280.535Z" fill="#8AAEB7"/>
</g>
<path d="M211.509 393.942H114.725C114.725 393.942 116.816 360.341 108.446 321.492C104.765 304.401 98.5516 294.528 92.7506 288.825C90.0038 286.125 91.355 281.639 94.7813 280.71C95.1414 280.608 95.5297 280.547 95.9383 280.535L181.169 277.917C181.169 277.917 187.447 275.818 201.048 301.543C208.22 315.114 210.74 340.068 211.517 360.625C212.209 379.048 211.509 393.942 211.509 393.942Z" fill="url(#paint53_linear_1220_50859)"/>
<path d="M238.449 405.491H109.043C106.398 405.491 104.258 403.339 104.258 400.689V393.942H238.449C240.908 393.942 242.899 395.939 242.899 398.407V401.026C242.899 403.49 240.904 405.491 238.449 405.491Z" fill="url(#paint54_linear_1220_50859)"/>
<g opacity="0.28">
<path d="M211.772 384.491C211.679 390.341 211.509 393.942 211.509 393.942H114.725C114.725 393.942 114.939 390.475 114.955 384.491C114.992 371.822 114.13 347.866 108.446 321.492C104.765 304.401 98.5516 294.528 92.7506 288.824C90.0038 286.125 91.355 281.639 94.7813 280.709C102.698 287.927 112.035 300.962 117.342 324.118C125.315 358.924 184.029 361.413 211.517 360.625C211.869 369.991 211.861 378.443 211.772 384.491Z" fill="#8AAEB7"/>
</g>
<g opacity="0.37">
<path d="M211.772 384.491C211.678 390.341 211.509 393.942 211.509 393.942H114.725C114.725 393.942 114.939 390.475 114.955 384.491H211.772Z" fill="#8AAEB7"/>
</g>
<path d="M166.976 405.492H158.485V528.796H166.976V405.492Z" fill="#8AAEB7"/>
<g opacity="0.26">
<path d="M166.976 405.492H158.485V424.539H166.976V405.492Z" fill="#222956"/>
</g>
<path d="M204.438 536.196C204.438 538.754 202.371 540.828 199.822 540.828H127.136C124.588 540.828 122.521 538.754 122.521 536.196C122.521 534.179 123.823 532.393 125.741 531.784L162.084 520.218C162.99 519.93 163.965 519.93 164.871 520.218L201.214 531.784C203.135 532.393 204.438 534.179 204.438 536.196Z" fill="url(#paint55_linear_1220_50859)"/>
<path d="M226.82 150.805C226.82 150.805 212.213 136.706 193.912 149.043C175.611 161.38 177.933 194.368 178.811 195.001C179.689 195.634 201.986 215.072 203.6 213.135C205.214 211.195 193.617 196.455 196.731 189.582C199.85 182.709 207.646 184.901 215.162 180.63C222.682 176.364 224.074 171.541 224.074 171.541L222.905 205.442C222.905 205.442 228.212 209.498 228.871 208.617C229.531 207.736 244.11 186.586 241.65 170.368C239.191 154.154 228.851 150.277 226.82 150.805Z" fill="#152E51"/>
<path d="M218.07 186.001C217.828 187.321 218.208 188.498 218.916 188.628C219.624 188.758 220.396 187.795 220.639 186.476C220.882 185.157 220.502 183.98 219.794 183.85C219.086 183.72 218.313 184.682 218.07 186.001Z" fill="#152E51"/>
<path d="M222.573 182.185C222.682 182.287 221.841 180.342 221.072 180.022C220.304 179.701 219.523 179.441 219.191 179.908C218.86 180.375 218.5 181.016 218.973 181.101C219.442 181.195 221.533 181.227 222.573 182.185Z" fill="#152E51"/>
<path d="M218.09 184.369C218.009 184.816 218.24 185.234 218.613 185.303C218.985 185.372 219.35 185.063 219.431 184.617C219.511 184.17 219.281 183.752 218.908 183.683C218.54 183.618 218.171 183.923 218.09 184.369Z" fill="white"/>
<path d="M203.593 182.965C203.257 184.199 203.633 185.372 204.43 185.591C205.227 185.81 206.145 184.986 206.481 183.756C206.817 182.522 206.441 181.349 205.644 181.13C204.847 180.906 203.928 181.731 203.593 182.965Z" fill="#152E51"/>
<path d="M207.589 177.768C207.589 177.768 207.617 178.796 207.358 179.027C207.099 179.258 206.096 178.682 204.814 179.116C203.527 179.551 202.415 179.847 202.415 179.847C202.415 179.847 203.285 178.438 204.199 177.712C205.113 176.989 207.658 176.867 207.589 177.768Z" fill="#152E51"/>
<path d="M203.601 181.658C203.524 182.084 203.803 182.49 204.228 182.567C204.652 182.644 205.057 182.364 205.134 181.942C205.211 181.515 204.932 181.11 204.507 181.032C204.086 180.951 203.677 181.235 203.601 181.658Z" fill="white"/>
<path d="M206.108 202.337C206.582 202.763 207.144 203.157 207.799 203.498C209.506 204.387 211.185 204.273 212.484 203.441C213.495 202.796 214.276 201.724 214.668 200.352C214.81 199.852 214.498 199.341 214.086 199.341C214.045 199.333 214.005 199.341 213.956 199.349C213.155 199.548 211.881 199.723 210.214 199.467C208.018 199.13 205.408 197.587 204.231 197.262C203.819 197.149 203.584 197.185 203.596 197.461C203.637 198.342 204.106 200.575 206.108 202.337Z" fill="#C14276"/>
<path d="M204.235 197.258L204.328 198.233C204.349 198.452 206.327 199.832 209.021 200.311C211.711 200.79 213.341 200.376 213.718 200.303C213.887 200.27 214.005 199.824 214.086 199.337C214.045 199.329 214.005 199.337 213.956 199.345C213.155 199.544 211.881 199.718 210.214 199.463C208.022 199.13 205.413 197.587 204.235 197.258Z" fill="white"/>
<path opacity="0.38" d="M206.108 202.337C206.582 202.763 207.144 203.157 207.799 203.498C209.506 204.387 211.185 204.274 212.484 203.441C211.784 202.13 210.178 201.302 208.41 201.468C207.528 201.546 206.739 201.866 206.108 202.337Z" fill="url(#paint56_linear_1220_50859)"/>
<path d="M188.442 182.084C188.426 182.08 188.418 182.076 188.402 182.068C188.402 182.068 188.398 182.068 188.394 182.06C188.414 182.068 188.426 182.08 188.442 182.084Z" fill="url(#paint57_linear_1220_50859)"/>
<path opacity="0.62" d="M213.139 186.699C212.18 187.406 211.319 188.274 211.561 189.565C211.812 190.893 214.361 193.186 211.816 193.86C211.076 194.055 211.485 195.18 212.221 194.985C213.426 194.668 214.284 193.588 214.114 192.306C213.867 190.426 211.545 189.358 213.811 187.686C214.43 187.227 213.758 186.241 213.139 186.699Z" fill="#C14276"/>
<path d="M215.247 246.634C202.286 251.445 180.02 222.046 182.067 212.108C182.067 212.108 184.151 211.99 186.675 211.479C187.334 211.349 188.018 211.187 188.71 210.996C188.71 210.996 193.58 208.231 195.603 204.557C197.626 200.883 198.059 197.051 198.059 197.051L217.824 200.713C217.824 200.713 216.521 210.159 218.932 213.793C218.936 213.801 218.936 213.801 218.936 213.805C219.778 214.706 220.971 215.514 222.682 216.123C225.126 216.992 226.537 220.406 226.78 224.672C227.237 232.609 223.673 243.504 215.247 246.634Z" fill="url(#paint58_linear_1220_50859)"/>
<path d="M215.247 246.634C202.286 251.445 180.02 222.046 182.067 212.108C182.067 212.108 184.151 211.99 186.675 211.479C187.334 211.349 188.018 211.187 188.71 210.996C188.71 210.996 193.58 208.231 195.603 204.557C197.626 200.883 198.059 197.051 198.059 197.051L217.824 200.713C217.824 200.713 216.521 210.159 218.932 213.793C218.936 213.801 218.936 213.801 218.936 213.805C219.778 214.706 220.971 215.514 222.682 216.123C225.126 216.992 226.537 220.406 226.78 224.672C227.237 232.609 223.673 243.504 215.247 246.634Z" fill="url(#paint59_linear_1220_50859)"/>
<path d="M232.132 192.322C232.132 192.322 232.132 192.334 232.124 192.346C231.885 192.846 228.099 200.912 225.17 203.717C222.351 206.413 222.666 210.659 217.711 209.53C217.699 209.53 217.686 209.526 217.67 209.518C210.599 207.545 197.86 202.455 197.213 200.202C196.38 197.283 194.766 188.295 194.766 188.295C194.766 188.295 188.799 184.593 189.3 181.544C189.802 178.495 189.054 174.018 192.274 173.624C192.881 173.547 193.419 173.705 193.916 174.022C195.19 174.813 196.177 176.583 197.189 177.935C197.193 177.943 197.193 177.943 197.197 177.947C197.626 178.52 198.05 179.007 198.512 179.319C198.516 179.319 198.52 179.327 198.524 179.331C198.544 179.34 198.556 179.356 198.572 179.356C198.738 179.47 198.908 179.555 199.086 179.608C199.086 179.608 199.09 179.608 199.098 179.608C208.835 183.931 222.945 168.781 222.945 168.781C223.277 168.436 223.588 168.095 223.88 167.746C223.88 167.746 231.837 174.221 235.797 171.164C235.842 173.413 235.595 176.092 234.398 177.679C232.059 180.793 233.726 183.671 232.848 189.432C232.715 190.239 232.468 191.222 232.132 192.322Z" fill="url(#paint60_linear_1220_50859)"/>
<g opacity="0.43">
<path d="M196.732 180.387C196.732 180.387 193.746 174.801 192.274 176.619C190.797 178.438 189.867 182.684 192.031 184.264C194.195 185.843 196.194 184.552 194.928 183.285C193.661 182.019 194.547 181.613 195.13 182.197C195.704 182.782 196.732 180.387 196.732 180.387Z" fill="#F078A5"/>
<path d="M196.732 180.387C196.732 180.387 193.746 174.801 192.274 176.619C190.797 178.438 189.867 182.684 192.031 184.264C194.195 185.843 196.194 184.552 194.928 183.285C193.661 182.019 194.547 181.613 195.13 182.197C195.704 182.782 196.732 180.387 196.732 180.387Z" fill="#C14242"/>
</g>
<path d="M230.786 183.759C231.029 182.439 230.651 181.262 229.941 181.13C229.231 180.999 228.459 181.963 228.216 183.284C227.973 184.604 228.351 185.781 229.06 185.913C229.77 186.044 230.543 185.08 230.786 183.759Z" fill="#152E51"/>
<path d="M232.698 179.457C232.807 179.559 231.966 177.614 231.197 177.294C230.429 176.973 229.648 176.713 229.316 177.18C228.985 177.647 228.624 178.288 229.098 178.373C229.567 178.467 231.658 178.499 232.698 179.457Z" fill="#152E51"/>
<path d="M228.215 181.642C228.134 182.088 228.365 182.506 228.738 182.575C229.11 182.644 229.475 182.336 229.556 181.889C229.636 181.443 229.406 181.024 229.033 180.955C228.665 180.886 228.296 181.195 228.215 181.642Z" fill="white"/>
<path d="M213.718 180.233C213.382 181.467 213.758 182.64 214.555 182.859C215.352 183.078 216.27 182.254 216.606 181.024C216.942 179.79 216.566 178.617 215.769 178.398C214.972 178.178 214.053 179.002 213.718 180.233Z" fill="#152E51"/>
<path d="M217.714 175.04C217.714 175.04 217.742 176.068 217.483 176.299C217.225 176.53 216.221 175.954 214.939 176.388C213.652 176.823 212.54 177.119 212.54 177.119C212.54 177.119 213.41 175.71 214.324 174.984C215.238 174.257 217.783 174.139 217.714 175.04Z" fill="#152E51"/>
<path d="M213.726 178.93C213.649 179.356 213.928 179.762 214.353 179.839C214.777 179.916 215.182 179.636 215.259 179.21C215.336 178.783 215.057 178.377 214.632 178.3C214.211 178.223 213.802 178.503 213.726 178.93Z" fill="white"/>
<path d="M216.234 199.604C216.708 200.031 217.27 200.425 217.925 200.766C219.632 201.655 221.311 201.541 222.61 200.709C223.621 200.063 224.402 198.991 224.794 197.619C224.936 197.12 224.624 196.609 224.212 196.609C224.171 196.6 224.131 196.609 224.082 196.617C223.281 196.816 222.007 196.99 220.34 196.734C218.144 196.397 215.534 194.855 214.357 194.53C213.945 194.416 213.71 194.453 213.722 194.729C213.763 195.614 214.232 197.843 216.234 199.604Z" fill="#C14276"/>
<path d="M214.361 194.53L214.454 195.505C214.475 195.724 216.453 197.104 219.147 197.583C221.837 198.062 223.467 197.648 223.844 197.575C224.013 197.542 224.131 197.096 224.212 196.609C224.171 196.601 224.131 196.609 224.082 196.617C223.281 196.816 222.007 196.99 220.34 196.735C218.148 196.398 215.539 194.855 214.361 194.53Z" fill="white"/>
<path opacity="0.38" d="M216.234 199.605C216.708 200.031 217.27 200.425 217.925 200.766C219.632 201.655 221.311 201.541 222.61 200.709C221.91 199.398 220.304 198.57 218.536 198.736C217.658 198.817 216.865 199.138 216.234 199.605Z" fill="url(#paint61_linear_1220_50859)"/>
<path d="M193.912 174.018C195.186 174.809 196.173 176.579 197.185 177.931C196.323 176.997 195.142 175.645 193.912 174.018Z" fill="url(#paint62_linear_1220_50859)"/>
<path d="M198.568 179.356C198.552 179.352 198.544 179.348 198.528 179.34C198.528 179.34 198.524 179.34 198.52 179.332C198.54 179.34 198.552 179.352 198.568 179.356Z" fill="url(#paint63_linear_1220_50859)"/>
<g opacity="0.43">
<path d="M199.891 202.446C199.891 202.446 211.974 225.484 213.37 223.726C214.769 221.969 217.706 209.53 217.706 209.53L199.891 202.446Z" fill="#F078A5"/>
<path d="M199.891 202.446C199.891 202.446 211.974 225.484 213.37 223.726C214.769 221.969 217.706 209.53 217.706 209.53L199.891 202.446Z" fill="#C14242"/>
</g>
<path opacity="0.62" d="M223.265 183.968C222.306 184.674 221.445 185.543 221.687 186.834C221.938 188.161 224.487 190.455 221.942 191.125C221.202 191.319 221.611 192.444 222.347 192.249C223.552 191.932 224.41 190.853 224.24 189.57C223.993 187.69 221.671 186.623 223.937 184.95C224.556 184.499 223.884 183.513 223.265 183.968Z" fill="#C14276"/>
<path d="M233.159 174.813C229.765 174.184 226.403 176.563 225.093 180.273C224.15 179.68 223.28 179.473 222.504 179.668C222.354 179.705 222.216 179.762 222.087 179.818C222.196 175.832 219.729 172.32 216.112 171.651C212.471 170.977 208.899 173.408 207.601 177.208L196.258 176.015L196.148 177.07L207.313 178.243C207.293 178.345 207.265 178.438 207.245 178.54C206.407 183.09 209.021 187.406 213.074 188.157C217.099 188.904 221.047 185.855 221.921 181.353C221.986 181.235 222.249 180.821 222.758 180.691C223.296 180.553 223.996 180.78 224.785 181.333C224.753 181.479 224.712 181.621 224.684 181.771C223.847 186.322 226.286 190.605 230.121 191.315C233.956 192.025 237.754 188.9 238.592 184.349C239.429 179.802 236.99 175.519 233.159 174.813ZM213.268 187.117C209.789 186.472 207.556 182.713 208.288 178.738C209.021 174.764 212.443 172.052 215.922 172.698C219.401 173.343 221.634 177.103 220.902 181.077C220.169 185.051 216.747 187.763 213.268 187.117ZM230.311 190.276C227.051 189.671 224.991 185.944 225.724 181.97C226.456 177.996 229.704 175.251 232.965 175.856C236.225 176.461 238.284 180.188 237.552 184.162C236.82 188.136 233.572 190.881 230.311 190.276Z" fill="white"/>
<path d="M202.411 171.541C202.411 171.541 199.47 184.426 198.519 196.17C197.569 207.911 200.348 210.115 198.519 209.717C196.691 209.319 189.268 203.693 189.268 203.693C189.268 203.693 192.706 181.43 195.841 174.399C198.972 167.372 202.411 171.541 202.411 171.541Z" fill="#152E51"/>
<path d="M216.229 546.183C213.555 548.7 200.339 537.629 195.748 533.022C191.16 528.41 179.49 524.736 179.085 521.915C178.68 519.09 181.164 516.942 185.048 511.632C187.447 508.34 190.659 503.144 192.75 499.665C192.155 501.516 191.957 502.746 192.285 503.188C193.956 505.417 202.738 509.079 206.892 509.29C206.694 510.435 206.658 511.636 206.957 512.728C207.94 516.329 209.247 522.504 210.95 528.447C212.665 534.386 216.047 538.851 217.337 539.96C218.624 541.06 218.903 543.674 216.229 546.183Z" fill="url(#paint64_linear_1220_50859)"/>
<path d="M216.229 546.183C213.555 548.7 200.339 537.629 195.748 533.022C191.16 528.41 179.49 524.736 179.085 521.915C178.68 519.09 181.164 516.942 185.048 511.632C187.447 508.34 190.659 503.144 192.75 499.665C192.155 501.516 191.957 502.746 192.285 503.188C193.956 505.417 202.738 509.079 206.892 509.29C206.694 510.435 206.658 511.636 206.957 512.728C207.94 516.329 209.247 522.504 210.95 528.447C212.665 534.386 216.047 538.851 217.337 539.96C218.624 541.06 218.903 543.674 216.229 546.183Z" fill="url(#paint65_linear_1220_50859)"/>
<path d="M218.24 538.011C218.264 538.08 218.297 538.141 218.337 538.198C218.948 539.087 223.932 546.585 220.869 550.011C217.613 553.657 215.024 553.287 211.678 550.998C208.333 548.708 198.503 539.635 192.314 534.536C186.124 529.437 185.979 528.134 184.28 528.516C182.577 528.898 182.273 531.983 180.704 531.199C179.134 530.416 173.616 527.501 174.324 525.39C175.032 523.279 178.827 517.003 181.921 512.542C185.016 508.076 187.083 504.723 188.321 504.796C189.559 504.869 189.842 510.646 196.521 516.601C203.2 522.561 209.089 526.892 211.44 526.372C213.661 525.877 217.803 536.842 218.24 538.011Z" fill="url(#paint66_linear_1220_50859)"/>
<path d="M320.242 539.111C319.316 542.68 302.257 540.374 295.926 538.937C289.595 537.492 277.77 540.621 275.93 538.458C274.085 536.278 275.052 533.136 275.509 526.567C275.776 522.699 275.752 516.983 275.679 512.944C281.124 513.747 290.218 514.198 293.025 513.516C293.43 514.36 293.952 515.152 294.627 515.769C297.37 518.294 301.759 522.812 306.355 526.929C310.958 531.041 316.197 533.01 317.872 533.253C319.55 533.501 321.177 535.559 320.242 539.111Z" fill="url(#paint67_linear_1220_50859)"/>
<path d="M320.242 539.111C319.316 542.68 302.257 540.374 295.926 538.937C289.595 537.492 277.77 540.621 275.93 538.458C274.085 536.278 275.052 533.136 275.509 526.567C275.776 522.699 275.752 516.983 275.679 512.944C281.124 513.747 290.218 514.198 293.025 513.516C293.43 514.36 293.952 515.152 294.627 515.769C297.37 518.294 301.759 522.812 306.355 526.929C310.958 531.041 316.197 533.01 317.872 533.253C319.55 533.501 321.177 535.559 320.242 539.111Z" fill="url(#paint68_linear_1220_50859)"/>
<path d="M317.609 531.126C317.665 531.171 317.726 531.203 317.791 531.232C318.778 531.658 326.978 535.336 326.209 539.87C325.392 544.697 323.001 545.769 318.956 545.623C314.911 545.477 301.771 543.057 293.826 542.055C285.881 541.052 285.064 540.025 283.831 541.259C282.593 542.493 283.972 545.266 282.233 545.44C280.493 545.615 274.271 546.102 273.75 543.938C273.228 541.77 273.102 534.435 273.353 529.003C273.604 523.572 273.568 519.63 274.652 519.025C275.736 518.424 279.045 523.157 287.86 524.627C296.674 526.097 303.96 526.612 305.671 524.911C307.285 523.308 316.618 530.367 317.609 531.126Z" fill="url(#paint69_linear_1220_50859)"/>
<path d="M295.379 495.508C295.234 498.686 295.193 501.264 295.197 503.355C295.221 511.742 295.962 512.408 293.425 513.39C293.312 513.435 293.174 513.475 293.025 513.512C290.217 514.194 281.123 513.743 275.679 512.939C273.183 512.566 271.455 512.119 271.455 511.677C271.455 510.828 271.54 492.215 272.046 473.249C272.418 459.374 273.017 445.316 273.979 437.862C275.436 426.565 278.632 412.856 280.747 404.461C281.928 399.748 282.77 396.711 282.77 396.711C282.77 396.711 280.355 396.354 276.382 395.554C260.743 392.42 220.99 382.47 209.554 360.679C195.217 333.35 192.467 315.869 225.577 325.263C231.573 326.964 310.027 373.527 311.249 378.914C312.467 384.297 296.111 479.586 295.379 495.508Z" fill="url(#paint70_linear_1220_50859)"/>
<g opacity="0.88">
<path d="M293.425 513.39C290.254 514.616 271.455 513.147 271.455 511.677C271.455 510.207 271.698 455.497 273.979 437.863C276.253 420.224 282.766 396.711 282.766 396.711C282.766 396.711 280.351 396.354 276.378 395.554C281.374 390.861 286.629 388.219 291.957 388.219C291.957 388.219 282.438 414.021 280.484 449.619C278.53 485.221 277.883 500.57 281.787 502.86C283.385 503.793 289.048 503.745 295.193 503.359C295.221 511.746 295.966 512.412 293.425 513.39Z" fill="#222956"/>
</g>
<path d="M291.961 388.218C290.521 396.122 221.763 492.881 210.153 507.289C209.287 508.36 208.741 508.973 208.563 509.067C208.183 509.257 207.604 509.322 206.892 509.286C202.738 509.075 193.955 505.417 192.285 503.184C191.957 502.742 192.151 501.512 192.75 499.661C195.699 490.478 208.462 466.032 216.047 447.005C219.558 438.195 224.821 428.522 229.967 419.952C234.979 411.597 239.882 404.294 242.94 399.873C244.894 397.052 246.095 395.4 246.095 395.4C246.095 395.4 217.677 393.934 186.112 391.803C154.538 389.672 154.028 351.439 154.028 351.439C154.028 351.439 165.942 343.34 175.909 336.849C178.98 334.852 181.86 333.005 184.162 331.592C193.927 325.596 210.359 331.592 210.359 331.592C210.359 331.592 293.51 379.726 291.961 388.218Z" fill="url(#paint71_linear_1220_50859)"/>
<g opacity="0.69">
<path d="M223.005 443.416C208.563 470.197 200.015 502.206 201.358 503.838C201.896 504.484 205.731 505.86 210.157 507.289C209.291 508.36 208.745 508.973 208.567 509.067C205.962 510.37 194.243 505.799 192.289 503.189C190.335 500.574 206.937 469.876 216.051 447.009C225.165 424.145 246.095 395.404 246.095 395.404C246.095 395.404 217.677 393.938 186.112 391.807C154.538 389.676 154.028 351.443 154.028 351.443C154.028 351.443 165.942 343.344 175.909 336.853C173.903 351.707 173.284 374.708 192.621 379.068C221.585 385.604 256.087 388.214 256.087 391.482C256.079 394.746 237.447 416.631 223.005 443.416Z" fill="#222956"/>
</g>
<path d="M304.518 288.151L302.9 301.953C302.9 301.953 265.598 300.277 259.251 296.847C252.904 293.416 235.817 266.96 235.817 266.96C235.817 266.96 235.327 272.351 232.398 276.269C229.874 279.646 229.522 277.568 228.855 283.202C228.741 284.104 228.628 285.208 228.495 286.56C227.52 296.359 227.03 321.346 228.495 325.754C229.959 330.163 211.897 329.672 192.366 336.041C176.743 341.136 161.747 354.382 156.12 355.965C154.712 356.363 153.895 356.03 153.798 354.658C153.309 347.798 162.099 326.733 163.074 310.077C163.207 307.852 163.256 305.359 163.244 302.704C163.211 289.848 161.771 273.257 161.043 265.681C160.8 263.108 160.635 261.577 160.635 261.577L169.182 216.07C169.19 216.066 169.203 216.062 169.211 216.062C169.235 216.046 169.263 216.037 169.287 216.033C169.316 216.017 169.352 216.009 169.381 216.001C169.413 215.993 169.449 215.977 169.478 215.968C170.331 215.664 173.066 214.763 178.207 213.573C184.554 212.104 190.412 210.634 190.412 210.634C190.412 210.634 199.198 227.29 211.893 226.312C224.587 225.334 215.311 210.143 216.286 210.634C217.261 211.125 228.98 215.043 233.373 220.434C237.766 225.825 269.012 281.185 269.987 280.694C270.97 280.19 304.518 288.151 304.518 288.151Z" fill="url(#paint72_linear_1220_50859)"/>
<path d="M304.518 288.151L302.9 301.953C302.9 301.953 265.598 300.277 259.251 296.847C252.904 293.416 235.817 266.96 235.817 266.96C235.817 266.96 235.327 272.351 232.398 276.269C229.874 279.646 229.522 277.568 228.855 283.202C228.741 284.104 228.628 285.208 228.495 286.56C227.52 296.359 227.03 321.346 228.495 325.754C229.959 330.163 211.897 329.672 192.366 336.041C176.743 341.136 161.747 354.382 156.12 355.965C154.712 356.363 153.895 356.03 153.798 354.658C153.309 347.798 162.099 326.733 163.074 310.077C163.207 307.852 163.256 305.359 163.244 302.704C163.211 289.848 161.771 273.257 161.043 265.681C160.8 263.108 160.635 261.577 160.635 261.577L169.182 216.07C169.19 216.066 169.203 216.062 169.211 216.062C169.235 216.046 169.263 216.037 169.287 216.033C169.316 216.017 169.352 216.009 169.381 216.001C169.413 215.993 169.449 215.977 169.478 215.968C170.331 215.664 173.066 214.763 178.207 213.573C184.554 212.104 190.412 210.634 190.412 210.634C190.412 210.634 199.198 227.29 211.893 226.312C224.587 225.334 215.311 210.143 216.286 210.634C217.261 211.125 228.98 215.043 233.373 220.434C237.766 225.825 269.012 281.185 269.987 280.694C270.97 280.19 304.518 288.151 304.518 288.151Z" fill="url(#paint73_linear_1220_50859)"/>
<g opacity="0.56">
<path d="M235.82 266.96C235.82 266.96 235.331 272.351 232.402 276.269C229.877 279.646 229.525 277.568 228.858 283.203C217.454 283.401 196.334 284.169 199.206 287.047C203.11 290.964 218.247 304.194 218.247 304.194L218.009 304.71L211.9 317.912C211.9 317.912 210.153 317.765 207.353 317.562C196.609 316.787 170.387 315.192 168.449 317.912C166.682 320.396 159.788 343.446 156.127 355.962C154.72 356.359 153.903 356.026 153.805 354.654C153.316 347.794 162.106 326.729 163.081 310.073C163.215 307.848 163.263 305.355 163.251 302.7C154.987 299.428 148.207 296.441 145.545 294.703C150.953 282.724 156.277 273.171 161.051 265.673C171.726 248.932 179.699 242.494 179.918 242.319C179.922 242.315 179.922 242.315 179.922 242.315C179.922 242.315 172.843 267.939 182.608 270.878C192.373 273.817 218.737 276.269 224.594 274.308C230.448 272.351 235.82 266.96 235.82 266.96Z" fill="#059649"/>
</g>
<path opacity="0.3" d="M235.821 266.96C235.821 266.96 237.366 259.365 235.821 254.303C234.275 249.24 231.347 244.178 231.347 244.178C231.347 244.178 237.856 251.039 240.461 258.387C243.066 265.734 243.208 277.872 243.208 277.872L235.821 266.96Z" fill="#064E2F"/>
<path d="M233.873 330.841L248.64 301.216C249.284 299.919 248.717 298.325 247.387 297.697L233.537 291.181C232.268 290.586 230.772 291.086 230.146 292.316L215.606 320.98C214.975 322.222 215.465 323.756 216.703 324.438L230.327 331.915C231.624 332.625 233.229 332.138 233.873 330.841Z" fill="#152E51"/>
<path d="M214.36 304.532C214.36 304.532 224.281 307.818 229.173 307.372C234.064 306.926 235.528 306.265 237.776 307.658C240.024 309.051 244.831 310.366 244.288 312.24C243.745 314.113 242.44 314.886 242.44 314.886C242.44 314.886 242.754 317.987 241.677 318.984C240.6 319.981 239.08 320.791 239.08 320.791C239.08 320.791 238.693 324.465 237.715 324.719C236.734 324.971 236.734 324.971 236.734 324.971C236.734 324.971 237.145 328.83 234.576 329.467C232.007 330.104 226.943 327.855 225.103 325.807C223.267 323.762 218.537 319.874 216.786 318.831C215.035 317.787 208.865 314.597 208.865 314.597L214.36 304.532Z" fill="url(#paint74_linear_1220_50859)"/>
<path d="M214.36 304.532C214.36 304.532 224.281 307.818 229.173 307.372C234.064 306.926 235.528 306.265 237.776 307.658C240.024 309.051 244.831 310.366 244.288 312.24C243.745 314.113 242.44 314.886 242.44 314.886C242.44 314.886 242.754 317.987 241.677 318.984C240.6 319.981 239.08 320.791 239.08 320.791C239.08 320.791 238.693 324.465 237.715 324.719C236.734 324.971 236.734 324.971 236.734 324.971C236.734 324.971 237.145 328.83 234.576 329.467C232.007 330.104 226.943 327.855 225.103 325.807C223.267 323.762 218.537 319.874 216.786 318.831C215.035 317.787 208.865 314.597 208.865 314.597L214.36 304.532Z" fill="url(#paint75_linear_1220_50859)"/>
<path d="M107.488 215.615L107.18 215.66C107.18 215.656 107.314 215.562 107.488 215.615Z" fill="white"/>
<g opacity="0.33">
<path d="M173.579 259.795C173.579 259.795 165.788 274.434 173.579 280.276C181.37 286.121 212.778 299.388 212.778 299.388L190.747 313.061L162.729 306.89C162.729 306.89 165.383 269.189 173.579 259.795Z" fill="#064E2F"/>
</g>
<path d="M214.251 315.253C213.434 316.381 212.604 317.319 211.896 317.912C211.472 318.265 209.841 318.107 207.35 317.563C198.405 315.606 178.345 308.68 163.244 302.697C154.979 299.425 148.199 296.437 145.537 294.699C145.064 294.391 144.72 294.127 144.522 293.9C140.618 289.491 150.869 240.009 157.701 228.249C160.942 222.675 164.615 219.062 167.588 216.906C168.082 216.553 168.62 216.261 169.178 216.054C169.186 216.05 169.198 216.046 169.206 216.046C169.231 216.03 169.259 216.021 169.283 216.017C169.312 216.001 169.348 215.993 169.376 215.985C169.409 215.977 169.445 215.961 169.473 215.952C169.68 215.888 169.89 215.835 170.096 215.79C170.307 215.745 170.513 215.717 170.719 215.697C177.143 215.108 181.763 220.316 182.592 227.275C183.001 230.685 181.816 236.153 179.906 242.315C179.906 242.315 179.906 242.315 179.902 242.319C174.963 258.269 165.153 278.908 165.505 280.674C165.994 283.121 215.788 301.251 217.742 304.19C217.843 304.349 217.932 304.519 217.993 304.706C218.887 307.166 216.613 311.989 214.251 315.253Z" fill="url(#paint76_linear_1220_50859)"/>
<path d="M214.251 315.253C213.434 316.381 212.604 317.319 211.896 317.912C211.472 318.265 209.841 318.107 207.35 317.563C198.405 315.606 178.345 308.68 163.244 302.697C154.979 299.425 148.199 296.437 145.537 294.699C145.064 294.391 144.72 294.127 144.522 293.9C140.618 289.491 150.869 240.009 157.701 228.249C160.942 222.675 164.615 219.062 167.588 216.906C168.082 216.553 168.62 216.261 169.178 216.054C169.186 216.05 169.198 216.046 169.206 216.046C169.231 216.03 169.259 216.021 169.283 216.017C169.312 216.001 169.348 215.993 169.376 215.985C169.409 215.977 169.445 215.961 169.473 215.952C169.68 215.888 169.89 215.835 170.096 215.79C170.307 215.745 170.513 215.717 170.719 215.697C177.143 215.108 181.763 220.316 182.592 227.275C183.001 230.685 181.816 236.153 179.906 242.315C179.906 242.315 179.906 242.315 179.902 242.319C174.963 258.269 165.153 278.908 165.505 280.674C165.994 283.121 215.788 301.251 217.742 304.19C217.843 304.349 217.932 304.519 217.993 304.706C218.887 307.166 216.613 311.989 214.251 315.253Z" fill="url(#paint77_linear_1220_50859)"/>
<path d="M214.251 315.253C213.434 316.381 212.604 317.319 211.896 317.912C211.472 318.265 209.841 318.107 207.35 317.563C198.405 315.606 178.345 308.68 163.244 302.697C154.979 299.425 148.199 296.437 145.537 294.699C145.064 294.391 144.72 294.127 144.522 293.9C140.618 289.491 150.869 240.009 157.701 228.249C160.942 222.675 164.615 219.062 167.588 216.906C168.082 216.553 168.62 216.261 169.178 216.054C169.186 216.05 169.198 216.046 169.206 216.046C169.231 216.03 169.259 216.021 169.283 216.017C169.312 216.001 169.348 215.993 169.376 215.985C169.409 215.977 169.445 215.961 169.473 215.952C169.68 215.888 169.89 215.835 170.096 215.79C170.307 215.745 170.513 215.717 170.719 215.697C177.143 215.108 181.763 220.316 182.592 227.275C183.001 230.685 181.816 236.153 179.906 242.315C179.906 242.315 179.906 242.315 179.902 242.319C174.963 258.269 165.153 278.908 165.505 280.674C165.994 283.121 215.788 301.251 217.742 304.19C217.843 304.349 217.932 304.519 217.993 304.706C218.887 307.166 216.613 311.989 214.251 315.253Z" fill="url(#paint78_linear_1220_50859)"/>
<path d="M214.251 315.253C213.434 316.381 212.604 317.319 211.896 317.912C211.472 318.265 209.841 318.107 207.35 317.563C198.405 315.606 178.345 308.68 163.244 302.697C154.979 299.425 148.199 296.437 145.537 294.699C145.064 294.391 144.72 294.127 144.522 293.9C140.618 289.491 150.869 240.009 157.701 228.249C160.942 222.675 164.615 219.062 167.588 216.906C168.082 216.553 168.62 216.261 169.178 216.054C169.186 216.05 169.198 216.046 169.206 216.046C169.231 216.03 169.259 216.021 169.283 216.017C169.312 216.001 169.348 215.993 169.376 215.985C169.409 215.977 169.445 215.961 169.473 215.952C169.68 215.888 169.89 215.835 170.096 215.79C170.307 215.745 170.513 215.717 170.719 215.697C177.143 215.108 181.763 220.316 182.592 227.275C183.001 230.685 181.816 236.153 179.906 242.315C179.906 242.315 179.906 242.315 179.902 242.319C174.963 258.269 165.153 278.908 165.505 280.674C165.994 283.121 215.788 301.251 217.742 304.19C217.843 304.349 217.932 304.519 217.993 304.706C218.887 307.166 216.613 311.989 214.251 315.253Z" fill="url(#paint79_linear_1220_50859)"/>
<path d="M214.251 315.253C213.434 316.381 212.604 317.319 211.896 317.912C211.472 318.265 209.841 318.107 207.35 317.563C198.405 315.606 178.345 308.68 163.244 302.697C154.979 299.425 148.199 296.437 145.537 294.699C145.064 294.391 144.72 294.127 144.522 293.9C140.618 289.491 150.869 240.009 157.701 228.249C160.942 222.675 164.615 219.062 167.588 216.906C168.082 216.553 168.62 216.261 169.178 216.054C169.186 216.05 169.198 216.046 169.206 216.046C169.231 216.03 169.259 216.021 169.283 216.017C169.312 216.001 169.348 215.993 169.376 215.985C169.409 215.977 169.445 215.961 169.473 215.952C169.68 215.888 169.89 215.835 170.096 215.79C170.307 215.745 170.513 215.717 170.719 215.697C177.143 215.108 181.763 220.316 182.592 227.275C183.001 230.685 181.816 236.153 179.906 242.315C179.906 242.315 179.906 242.315 179.902 242.319C174.963 258.269 165.153 278.908 165.505 280.674C165.994 283.121 215.788 301.251 217.742 304.19C217.843 304.349 217.932 304.519 217.993 304.706C218.887 307.166 216.613 311.989 214.251 315.253Z" fill="url(#paint80_linear_1220_50859)"/>
<g opacity="0.56">
<path d="M214.251 315.253C213.434 316.381 212.604 317.319 211.896 317.912C211.472 318.265 209.841 318.106 207.35 317.562C198.405 315.606 178.345 308.68 163.244 302.696C154.979 299.424 148.199 296.437 145.537 294.699C145.064 294.391 144.72 294.127 144.522 293.899C140.618 289.491 150.869 240.009 157.701 228.249C160.942 222.675 164.615 219.062 167.588 216.906C168.082 216.553 168.62 216.261 169.178 216.054C169.186 216.05 169.198 216.046 169.206 216.046C169.231 216.03 169.259 216.021 169.283 216.017C169.312 216.001 169.348 215.993 169.376 215.985C169.409 215.977 169.445 215.961 169.473 215.952C169.68 215.887 169.89 215.835 170.096 215.79C164.077 221.92 157.799 231.021 154.008 244.174C144.967 275.559 149.243 291.208 158.47 295.617C165.424 298.937 198.353 309.983 214.251 315.253Z" fill="#059649"/>
</g>
<path d="M573.727 324.038H239.215C237.204 324.038 235.574 322.402 235.574 320.384V310.544C235.574 308.526 237.204 306.89 239.215 306.89H573.723C575.733 306.89 577.363 308.526 577.363 310.544V320.384C577.368 322.402 575.737 324.038 573.727 324.038Z" fill="url(#paint81_linear_1220_50859)"/>
<path d="M557.436 544.255C555.296 544.535 553.338 543.025 553.055 540.877L529.888 363.468C527.46 344.899 511.554 330.894 492.893 330.894L314.029 330.894C295.364 330.894 279.458 344.899 277.034 363.468L253.867 540.877C253.588 543.025 251.626 544.535 249.486 544.255C247.346 543.975 245.841 542.006 246.12 539.863L269.288 362.457C272.221 339.996 291.452 323.059 314.025 323.059L492.889 323.059C515.462 323.059 534.693 339.995 537.626 362.457L560.794 539.862C561.081 542.006 559.576 543.975 557.436 544.255Z" fill="url(#paint82_linear_1220_50859)"/>
<g opacity="0.93">
<path d="M557.489 544.255C555.349 544.535 553.391 543.025 553.108 540.878L529.94 363.468C527.513 344.9 511.607 330.894 492.946 330.894H314.029C295.364 330.894 279.458 344.9 277.034 363.468L253.867 540.878C253.588 543.025 251.626 544.535 249.486 544.255C247.346 543.975 245.841 542.006 246.12 539.863L269.288 362.457C272.221 339.996 291.452 323.059 314.025 323.059H492.942C515.515 323.059 534.746 339.996 537.679 362.457L560.846 539.863C561.134 542.006 559.629 543.975 557.489 544.255Z" fill="#8AAEB7"/>
</g>
<path d="M257.426 300.35H316.641C318.206 300.35 319.473 301.621 319.473 303.192V304.048C319.473 305.619 318.206 306.89 316.641 306.89H257.426C255.86 306.89 254.594 305.619 254.594 304.048V303.192C254.594 301.621 255.864 300.35 257.426 300.35Z" fill="#222956"/>
<path d="M396.345 301.057L409.84 239.624C410.859 234.984 407.34 230.587 402.603 230.587H309.5C305.924 230.587 302.858 233.149 302.214 236.681L290.968 298.113C290.131 302.68 293.626 306.894 298.254 306.894H389.108C392.587 306.89 395.596 304.463 396.345 301.057Z" fill="#222956"/>
<path d="M401.312 301.057L414.808 239.624C415.827 234.984 412.308 230.587 407.571 230.587H314.468C310.892 230.587 307.825 233.149 307.182 236.681L295.936 298.113C295.099 302.68 298.594 306.894 303.222 306.894H394.075C397.554 306.89 400.564 304.463 401.312 301.057Z" fill="url(#paint83_linear_1220_50859)"/>
<path d="M358.089 272.061C355.85 271.13 354.786 268.553 355.714 266.306C356.642 264.058 359.209 262.991 361.449 263.922C363.688 264.853 364.752 267.429 363.824 269.677C362.896 271.924 360.329 272.992 358.089 272.061Z" fill="white"/>
<g opacity="0.49">
<g opacity="0.5">
<path d="M410.018 240.964L397.781 291.424C397.13 294.115 393.594 294.74 392.065 292.43L358.663 241.97C357.263 239.859 358.772 237.034 361.3 237.034H406.939C408.994 237.034 410.503 238.962 410.018 240.964Z" fill="#658DDC"/>
<path d="M410.018 240.964L397.781 291.424C397.13 294.115 393.594 294.74 392.065 292.43L358.663 241.97C357.263 239.859 358.772 237.034 361.3 237.034H406.939C408.994 237.034 410.503 238.962 410.018 240.964Z" fill="url(#paint84_linear_1220_50859)"/>
</g>
</g>
<defs>
<linearGradient id="paint0_linear_1220_50859" x1="351.621" y1="-2.35073" x2="351.621" y2="492.128" gradientUnits="userSpaceOnUse">
<stop stop-color="#A0F9FF"/>
<stop offset="1" stop-color="#43C5FF"/>
</linearGradient>
<linearGradient id="paint1_linear_1220_50859" x1="341.498" y1="525.371" x2="341.498" y2="566.681" gradientUnits="userSpaceOnUse">
<stop stop-color="#A0F9FF"/>
<stop offset="1" stop-color="#43C5FF"/>
</linearGradient>
<linearGradient id="paint2_linear_1220_50859" x1="460.691" y1="91.3699" x2="465.314" y2="133.13" gradientUnits="userSpaceOnUse">
<stop offset="0.3868" stop-color="#FFBD9F"/>
<stop offset="1" stop-color="#EF72A6"/>
</linearGradient>
<linearGradient id="paint3_linear_1220_50859" x1="458.333" y1="87.443" x2="479.811" y2="121.304" gradientUnits="userSpaceOnUse">
<stop offset="0.3868" stop-color="#FFBD9F"/>
<stop offset="1" stop-color="#EF72A6"/>
</linearGradient>
<linearGradient id="paint4_linear_1220_50859" x1="451.104" y1="107.65" x2="458.973" y2="105.636" gradientUnits="userSpaceOnUse">
<stop offset="0.3868" stop-color="#FFBD9F"/>
<stop offset="1" stop-color="#EF72A6"/>
</linearGradient>
<linearGradient id="paint5_linear_1220_50859" x1="412.759" y1="504.887" x2="381.932" y2="504.887" gradientUnits="userSpaceOnUse">
<stop offset="0.3868" stop-color="#FFBD9F"/>
<stop offset="1" stop-color="#EF72A6"/>
</linearGradient>
<linearGradient id="paint6_linear_1220_50859" x1="410.864" y1="522.84" x2="353" y2="522.84" gradientUnits="userSpaceOnUse">
<stop stop-color="#4C5F9B"/>
<stop offset="0.4382" stop-color="#27316F"/>
</linearGradient>
<linearGradient id="paint7_linear_1220_50859" x1="529.361" y1="524.91" x2="489.073" y2="524.91" gradientUnits="userSpaceOnUse">
<stop stop-color="#4C5F9B"/>
<stop offset="0.4382" stop-color="#27316F"/>
</linearGradient>
<linearGradient id="paint8_linear_1220_50859" x1="371.729" y1="81.1535" x2="371.729" y2="121.777" gradientUnits="userSpaceOnUse">
<stop offset="0.3868" stop-color="#FFBD9F"/>
<stop offset="1" stop-color="#EF72A6"/>
</linearGradient>
<linearGradient id="paint9_linear_1220_50859" x1="462.505" y1="119.442" x2="462.505" y2="152.824" gradientUnits="userSpaceOnUse">
<stop stop-color="#F4F2FF"/>
<stop offset="1" stop-color="#D8DBF0"/>
</linearGradient>
<linearGradient id="paint10_linear_1220_50859" x1="466.276" y1="136.896" x2="452.287" y2="136.896" gradientUnits="userSpaceOnUse">
<stop stop-color="#955BED"/>
<stop offset="1" stop-color="#204CE0"/>
</linearGradient>
<linearGradient id="paint11_linear_1220_50859" x1="468.878" y1="373.516" x2="386.098" y2="373.516" gradientUnits="userSpaceOnUse">
<stop offset="0.5618" stop-color="#27316F"/>
<stop offset="1" stop-color="#4C5F9B"/>
</linearGradient>
<linearGradient id="paint12_linear_1220_50859" x1="428.872" y1="261.818" x2="558.884" y2="487.172" gradientUnits="userSpaceOnUse">
<stop offset="0.5618" stop-color="#27316F"/>
<stop offset="1" stop-color="#4C5F9B"/>
</linearGradient>
<linearGradient id="paint13_linear_1220_50859" x1="468.879" y1="236.984" x2="468.879" y2="257.762" gradientUnits="userSpaceOnUse">
<stop stop-color="#F4F2FF"/>
<stop offset="1" stop-color="#D8DBF0"/>
</linearGradient>
<linearGradient id="paint14_linear_1220_50859" x1="395.477" y1="112.969" x2="395.477" y2="194.495" gradientUnits="userSpaceOnUse">
<stop stop-color="#F4F2FF"/>
<stop offset="1" stop-color="#D8DBF0"/>
</linearGradient>
<linearGradient id="paint15_linear_1220_50859" x1="490" y1="253" x2="490" y2="91.9995" gradientUnits="userSpaceOnUse">
<stop offset="0.0188" stop-color="#1965F2"/>
<stop offset="0.2849" stop-color="#1996F2"/>
<stop offset="0.8441" stop-color="#03CCE0"/>
<stop offset="1" stop-color="#03DDE0"/>
</linearGradient>
<linearGradient id="paint16_linear_1220_50859" x1="526.401" y1="176.053" x2="526.401" y2="224.622" gradientUnits="userSpaceOnUse">
<stop stop-color="#F4F2FF"/>
<stop offset="1" stop-color="#D8DBF0"/>
</linearGradient>
<linearGradient id="paint17_linear_1220_50859" x1="534.072" y1="194.44" x2="461.331" y2="194.44" gradientUnits="userSpaceOnUse">
<stop stop-color="#4C5F9B"/>
<stop offset="0.4382" stop-color="#27316F"/>
</linearGradient>
<linearGradient id="paint18_linear_1220_50859" x1="503.082" y1="197.652" x2="503.082" y2="222.674" gradientUnits="userSpaceOnUse">
<stop stop-color="#F4F2FF"/>
<stop offset="1" stop-color="#D8DBF0"/>
</linearGradient>
<linearGradient id="paint19_linear_1220_50859" x1="471.372" y1="114.674" x2="471.372" y2="131.406" gradientUnits="userSpaceOnUse">
<stop stop-color="#F4F2FF"/>
<stop offset="1" stop-color="#D8DBF0"/>
</linearGradient>
<linearGradient id="paint20_linear_1220_50859" x1="457.349" y1="119.057" x2="457.349" y2="130.421" gradientUnits="userSpaceOnUse">
<stop stop-color="#F4F2FF"/>
<stop offset="1" stop-color="#D8DBF0"/>
</linearGradient>
<linearGradient id="paint21_linear_1220_50859" x1="456.915" y1="197.778" x2="430.903" y2="197.778" gradientUnits="userSpaceOnUse">
<stop stop-color="#CEEDE0"/>
<stop offset="0.9812" stop-color="white"/>
</linearGradient>
<linearGradient id="paint22_linear_1220_50859" x1="471.146" y1="188.489" x2="471.146" y2="211.156" gradientUnits="userSpaceOnUse">
<stop offset="0.3868" stop-color="#FFBD9F"/>
<stop offset="1" stop-color="#EF72A6"/>
</linearGradient>
<linearGradient id="paint23_linear_1220_50859" x1="456.916" y1="181.752" x2="430.904" y2="181.752" gradientUnits="userSpaceOnUse">
<stop offset="0.0188" stop-color="white"/>
<stop offset="1" stop-color="#CEEDE0"/>
</linearGradient>
<linearGradient id="paint24_linear_1220_50859" x1="455.168" y1="181.752" x2="432.65" y2="181.752" gradientUnits="userSpaceOnUse">
<stop stop-color="#4C5F9B"/>
<stop offset="0.4382" stop-color="#27316F"/>
</linearGradient>
<linearGradient id="paint25_linear_1220_50859" x1="375.377" y1="102.485" x2="361.639" y2="102.485" gradientUnits="userSpaceOnUse">
<stop offset="0.3868" stop-color="#FFBD9F"/>
<stop offset="1" stop-color="#EF72A6"/>
</linearGradient>
<linearGradient id="paint26_linear_1220_50859" x1="511.162" y1="130.299" x2="511.162" y2="157.199" gradientUnits="userSpaceOnUse">
<stop stop-color="#F4F2FF"/>
<stop offset="1" stop-color="#D8DBF0"/>
</linearGradient>
<linearGradient id="paint27_linear_1220_50859" x1="533.546" y1="39.7625" x2="533.546" y2="-6.99811" gradientUnits="userSpaceOnUse">
<stop offset="0.0188" stop-color="#1965F2"/>
<stop offset="0.2849" stop-color="#1996F2"/>
<stop offset="0.8441" stop-color="#03CCE0"/>
<stop offset="1" stop-color="#03DDE0"/>
</linearGradient>
<linearGradient id="paint28_linear_1220_50859" x1="128.834" y1="90.8819" x2="157.979" y2="141.187" gradientUnits="userSpaceOnUse">
<stop stop-color="#74F195"/>
<stop offset="1" stop-color="#03CCE0"/>
</linearGradient>
<linearGradient id="paint29_linear_1220_50859" x1="130.808" y1="102.631" x2="135.09" y2="133.15" gradientUnits="userSpaceOnUse">
<stop stop-color="#82E76E"/>
<stop offset="1" stop-color="#059649"/>
</linearGradient>
<linearGradient id="paint30_linear_1220_50859" x1="136.56" y1="100.083" x2="153.448" y2="148.686" gradientUnits="userSpaceOnUse">
<stop stop-color="#82E76E"/>
<stop offset="1" stop-color="#10B948"/>
</linearGradient>
<linearGradient id="paint31_linear_1220_50859" x1="142.273" y1="94.4257" x2="142.273" y2="148.353" gradientUnits="userSpaceOnUse">
<stop stop-color="#A7F3C0"/>
<stop offset="0.760417" stop-color="#059649"/>
</linearGradient>
<linearGradient id="paint32_linear_1220_50859" x1="503.306" y1="286.097" x2="521.046" y2="316.716" gradientUnits="userSpaceOnUse">
<stop stop-color="#74F195"/>
<stop offset="1" stop-color="#03CCE0"/>
</linearGradient>
<linearGradient id="paint33_linear_1220_50859" x1="501.499" y1="296.502" x2="501.918" y2="305.406" gradientUnits="userSpaceOnUse">
<stop stop-color="#82E76E"/>
<stop offset="1" stop-color="#059649"/>
</linearGradient>
<linearGradient id="paint34_linear_1220_50859" x1="511.286" y1="294.149" x2="511.286" y2="309.614" gradientUnits="userSpaceOnUse">
<stop stop-color="#A7F3C0"/>
<stop offset="0.760417" stop-color="#059649"/>
</linearGradient>
<linearGradient id="paint35_linear_1220_50859" x1="532.603" y1="301.209" x2="567.729" y2="301.209" gradientUnits="userSpaceOnUse">
<stop stop-color="#74F195"/>
<stop offset="1" stop-color="#03CCE0"/>
</linearGradient>
<linearGradient id="paint36_linear_1220_50859" x1="531.5" y1="296" x2="568" y2="296" gradientUnits="userSpaceOnUse">
<stop stop-color="#A7F3C0"/>
<stop offset="0.760417" stop-color="#059649"/>
</linearGradient>
<linearGradient id="paint37_linear_1220_50859" x1="534.354" y1="301.209" x2="565.774" y2="301.209" gradientUnits="userSpaceOnUse">
<stop stop-color="#CEEDE0"/>
<stop offset="0.9812" stop-color="white"/>
</linearGradient>
<linearGradient id="paint38_linear_1220_50859" x1="495.75" y1="295.639" x2="495.75" y2="306.778" gradientUnits="userSpaceOnUse">
<stop stop-color="#4C5F9B"/>
<stop offset="0.4382" stop-color="#27316F"/>
</linearGradient>
<linearGradient id="paint39_linear_1220_50859" x1="498.239" y1="295.623" x2="498.239" y2="282.214" gradientUnits="userSpaceOnUse">
<stop offset="0.0188" stop-color="#1965F2"/>
<stop offset="0.2849" stop-color="#1996F2"/>
<stop offset="0.8441" stop-color="#03CCE0"/>
<stop offset="1" stop-color="#03DDE0"/>
</linearGradient>
<linearGradient id="paint40_linear_1220_50859" x1="568" y1="291.5" x2="533" y2="291.5" gradientUnits="userSpaceOnUse">
<stop offset="0.0188" stop-color="#1965F2"/>
<stop offset="0.2849" stop-color="#1996F2"/>
<stop offset="0.8441" stop-color="#03CCE0"/>
<stop offset="1" stop-color="#03DDE0"/>
</linearGradient>
<linearGradient id="paint41_linear_1220_50859" x1="534.354" y1="290.07" x2="565.774" y2="290.07" gradientUnits="userSpaceOnUse">
<stop stop-color="#CEEDE0"/>
<stop offset="0.9812" stop-color="white"/>
</linearGradient>
<linearGradient id="paint42_linear_1220_50859" x1="528.877" y1="191.933" x2="528.877" y2="247.012" gradientUnits="userSpaceOnUse">
<stop stop-color="#74F195"/>
<stop offset="1" stop-color="#03CCE0"/>
</linearGradient>
<linearGradient id="paint43_linear_1220_50859" x1="542.796" y1="213.16" x2="559.449" y2="241.903" gradientUnits="userSpaceOnUse">
<stop stop-color="#74F195"/>
<stop offset="1" stop-color="#03CCE0"/>
</linearGradient>
<linearGradient id="paint44_linear_1220_50859" x1="546.196" y1="215.209" x2="551.33" y2="243.304" gradientUnits="userSpaceOnUse">
<stop stop-color="#82E76E"/>
<stop offset="1" stop-color="#059649"/>
</linearGradient>
<linearGradient id="paint45_linear_1220_50859" x1="546.196" y1="215.209" x2="551.33" y2="243.304" gradientUnits="userSpaceOnUse">
<stop stop-color="#82E76E"/>
<stop offset="1" stop-color="#10B948"/>
</linearGradient>
<linearGradient id="paint46_linear_1220_50859" x1="554.409" y1="207.554" x2="554.409" y2="257.866" gradientUnits="userSpaceOnUse">
<stop stop-color="#A7F3C0"/>
<stop offset="0.760417" stop-color="#059649"/>
</linearGradient>
<linearGradient id="paint47_linear_1220_50859" x1="509.158" y1="238.407" x2="530.561" y2="238.407" gradientUnits="userSpaceOnUse">
<stop stop-color="#74F195"/>
<stop offset="1" stop-color="#03CCE0"/>
</linearGradient>
<linearGradient id="paint48_linear_1220_50859" x1="515.964" y1="229.296" x2="519.729" y2="245.709" gradientUnits="userSpaceOnUse">
<stop stop-color="#82E76E"/>
<stop offset="1" stop-color="#059649"/>
</linearGradient>
<linearGradient id="paint49_linear_1220_50859" x1="515.964" y1="229.296" x2="519.729" y2="245.709" gradientUnits="userSpaceOnUse">
<stop stop-color="#82E76E"/>
<stop offset="1" stop-color="#10B948"/>
</linearGradient>
<linearGradient id="paint50_linear_1220_50859" x1="519.857" y1="224.74" x2="519.857" y2="254.68" gradientUnits="userSpaceOnUse">
<stop stop-color="#A7F3C0"/>
<stop offset="0.760417" stop-color="#059649"/>
</linearGradient>
<linearGradient id="paint51_linear_1220_50859" x1="524.151" y1="250.499" x2="544.094" y2="284.92" gradientUnits="userSpaceOnUse">
<stop offset="0.0188" stop-color="#E2FFFF"/>
<stop offset="1" stop-color="#CEEDE0"/>
</linearGradient>
<linearGradient id="paint52_linear_1220_50859" x1="80.8152" y1="335.907" x2="201.358" y2="335.907" gradientUnits="userSpaceOnUse">
<stop offset="0.0188" stop-color="#E2FFFF"/>
<stop offset="1" stop-color="#CEEDE0"/>
</linearGradient>
<linearGradient id="paint53_linear_1220_50859" x1="113.154" y1="269.88" x2="191.686" y2="405.425" gradientUnits="userSpaceOnUse">
<stop offset="0.0188" stop-color="#E2FFFF"/>
<stop offset="1" stop-color="#CEEDE0"/>
</linearGradient>
<linearGradient id="paint54_linear_1220_50859" x1="104.258" y1="399.715" x2="242.897" y2="399.715" gradientUnits="userSpaceOnUse">
<stop offset="0.0188" stop-color="#E2FFFF"/>
<stop offset="1" stop-color="#CEEDE0"/>
</linearGradient>
<linearGradient id="paint55_linear_1220_50859" x1="122.523" y1="530.414" x2="204.439" y2="530.414" gradientUnits="userSpaceOnUse">
<stop offset="0.0188" stop-color="#8AAEB7"/>
<stop offset="1" stop-color="#CEEDE0"/>
</linearGradient>
<linearGradient id="paint56_linear_1220_50859" x1="212.474" y1="202.831" x2="206.12" y2="202.954" gradientUnits="userSpaceOnUse">
<stop offset="0.3868" stop-color="#FFBD9F"/>
<stop offset="1" stop-color="#EF72A6"/>
</linearGradient>
<linearGradient id="paint57_linear_1220_50859" x1="188.416" y1="182.07" x2="188.42" y2="182.098" gradientUnits="userSpaceOnUse">
<stop offset="0.3868" stop-color="#FFBD9F"/>
<stop offset="1" stop-color="#EF72A6"/>
</linearGradient>
<linearGradient id="paint58_linear_1220_50859" x1="217.118" y1="199.021" x2="179.352" y2="268.606" gradientUnits="userSpaceOnUse">
<stop offset="0.3868" stop-color="#FFBD9F"/>
<stop offset="1" stop-color="#EF72A6"/>
</linearGradient>
<linearGradient id="paint59_linear_1220_50859" x1="207.368" y1="236.202" x2="207.368" y2="186.654" gradientUnits="userSpaceOnUse">
<stop offset="0.3868" stop-color="#FFBD9F"/>
<stop offset="1" stop-color="#EF8172"/>
</linearGradient>
<linearGradient id="paint60_linear_1220_50859" x1="214.044" y1="188.069" x2="218.78" y2="223.551" gradientUnits="userSpaceOnUse">
<stop offset="0.3868" stop-color="#FFBD9F"/>
<stop offset="1" stop-color="#EF72A6"/>
</linearGradient>
<linearGradient id="paint61_linear_1220_50859" x1="222.6" y1="200.102" x2="216.246" y2="200.225" gradientUnits="userSpaceOnUse">
<stop offset="0.3868" stop-color="#FFBD9F"/>
<stop offset="1" stop-color="#EF72A6"/>
</linearGradient>
<linearGradient id="paint62_linear_1220_50859" x1="195.525" y1="175.802" x2="196.023" y2="179.533" gradientUnits="userSpaceOnUse">
<stop offset="0.3868" stop-color="#FFBD9F"/>
<stop offset="1" stop-color="#EF72A6"/>
</linearGradient>
<linearGradient id="paint63_linear_1220_50859" x1="198.543" y1="179.342" x2="198.546" y2="179.369" gradientUnits="userSpaceOnUse">
<stop offset="0.3868" stop-color="#FFBD9F"/>
<stop offset="1" stop-color="#EF72A6"/>
</linearGradient>
<linearGradient id="paint64_linear_1220_50859" x1="210.323" y1="508.586" x2="195.733" y2="537.322" gradientUnits="userSpaceOnUse">
<stop stop-color="#EF72A6"/>
<stop offset="0.2295" stop-color="#FFBD9F"/>
</linearGradient>
<linearGradient id="paint65_linear_1220_50859" x1="201.278" y1="536.296" x2="201.278" y2="492.231" gradientUnits="userSpaceOnUse">
<stop offset="0.3868" stop-color="#FFBD9F"/>
<stop offset="1" stop-color="#EF8172"/>
</linearGradient>
<linearGradient id="paint66_linear_1220_50859" x1="178.442" y1="517.01" x2="225.649" y2="540.807" gradientUnits="userSpaceOnUse">
<stop stop-color="#4C5F9B"/>
<stop offset="0.6962" stop-color="#27316F"/>
</linearGradient>
<linearGradient id="paint67_linear_1220_50859" x1="274.844" y1="526.973" x2="320.517" y2="526.973" gradientUnits="userSpaceOnUse">
<stop stop-color="#EF72A6"/>
<stop offset="0.6132" stop-color="#FFBD9F"/>
</linearGradient>
<linearGradient id="paint68_linear_1220_50859" x1="300.723" y1="534.868" x2="300.723" y2="508.494" gradientUnits="userSpaceOnUse">
<stop offset="0.3868" stop-color="#FFBD9F"/>
<stop offset="1" stop-color="#EF8172"/>
</linearGradient>
<linearGradient id="paint69_linear_1220_50859" x1="272.78" y1="534.648" x2="325.378" y2="529.715" gradientUnits="userSpaceOnUse">
<stop stop-color="#4C5F9B"/>
<stop offset="0.6962" stop-color="#27316F"/>
</linearGradient>
<linearGradient id="paint70_linear_1220_50859" x1="199.415" y1="418.271" x2="311.311" y2="418.271" gradientUnits="userSpaceOnUse">
<stop offset="0.724" stop-color="#27316F"/>
<stop offset="1" stop-color="#4C5F9B"/>
</linearGradient>
<linearGradient id="paint71_linear_1220_50859" x1="154.021" y1="419.113" x2="291.984" y2="419.113" gradientUnits="userSpaceOnUse">
<stop offset="0.5618" stop-color="#27316F"/>
<stop offset="1" stop-color="#4C5F9B"/>
</linearGradient>
<linearGradient id="paint72_linear_1220_50859" x1="201.699" y1="221.893" x2="226.134" y2="333.088" gradientUnits="userSpaceOnUse">
<stop stop-color="#82E76E"/>
<stop offset="1" stop-color="#10B948"/>
</linearGradient>
<linearGradient id="paint73_linear_1220_50859" x1="229.12" y1="191.156" x2="229.12" y2="393.155" gradientUnits="userSpaceOnUse">
<stop stop-color="#A7F3C0"/>
<stop offset="0.760417" stop-color="#059649"/>
</linearGradient>
<linearGradient id="paint74_linear_1220_50859" x1="240.194" y1="322.475" x2="214.407" y2="304.461" gradientUnits="userSpaceOnUse">
<stop offset="0.3868" stop-color="#FFBD9F"/>
<stop offset="1" stop-color="#EF72A6"/>
</linearGradient>
<linearGradient id="paint75_linear_1220_50859" x1="221.97" y1="339.466" x2="236.6" y2="314.737" gradientUnits="userSpaceOnUse">
<stop offset="0.0596604" stop-color="#EF8172"/>
<stop offset="0.980772" stop-color="#FFBD9F"/>
</linearGradient>
<linearGradient id="paint76_linear_1220_50859" x1="143.664" y1="266.879" x2="218.199" y2="266.879" gradientUnits="userSpaceOnUse">
<stop stop-color="#74F195"/>
<stop offset="1" stop-color="#03CCE0"/>
</linearGradient>
<linearGradient id="paint77_linear_1220_50859" x1="167.355" y1="223.587" x2="190.749" y2="298.341" gradientUnits="userSpaceOnUse">
<stop stop-color="#9DE59A"/>
<stop offset="1" stop-color="#2D9E3E"/>
</linearGradient>
<linearGradient id="paint78_linear_1220_50859" x1="167.355" y1="223.587" x2="190.749" y2="298.341" gradientUnits="userSpaceOnUse">
<stop stop-color="#82E76E"/>
<stop offset="1" stop-color="#059649"/>
</linearGradient>
<linearGradient id="paint79_linear_1220_50859" x1="167.355" y1="223.587" x2="190.749" y2="298.341" gradientUnits="userSpaceOnUse">
<stop stop-color="#82E76E"/>
<stop offset="1" stop-color="#10B948"/>
</linearGradient>
<linearGradient id="paint80_linear_1220_50859" x1="180.913" y1="201.945" x2="180.913" y2="344.176" gradientUnits="userSpaceOnUse">
<stop stop-color="#A7F3C0"/>
<stop offset="0.760417" stop-color="#059649"/>
</linearGradient>
<linearGradient id="paint81_linear_1220_50859" x1="487.732" y1="306.891" x2="487.732" y2="324.038" gradientUnits="userSpaceOnUse">
<stop offset="0.0188" stop-color="white"/>
<stop offset="1" stop-color="#CEEDE0"/>
</linearGradient>
<linearGradient id="paint82_linear_1220_50859" x1="482.728" y1="323.058" x2="482.728" y2="544.29" gradientUnits="userSpaceOnUse">
<stop stop-color="#CEEDE0"/>
<stop offset="0.9812" stop-color="#E2FFFF"/>
</linearGradient>
<linearGradient id="paint83_linear_1220_50859" x1="384.558" y1="216.1" x2="324.234" y2="320.218" gradientUnits="userSpaceOnUse">
<stop stop-color="#4C5F9B"/>
<stop offset="0.7247" stop-color="#27316F"/>
</linearGradient>
<linearGradient id="paint84_linear_1220_50859" x1="410.112" y1="265.443" x2="358.127" y2="265.443" gradientUnits="userSpaceOnUse">
<stop offset="0.5618" stop-color="#27316F"/>
<stop offset="1" stop-color="#4C5F9B"/>
</linearGradient>
</defs>
</svg>
