<svg width="146" height="85" viewBox="0 0 146 85" fill="none" xmlns="http://www.w3.org/2000/svg">
<path d="M103.321 46.4036C84.0886 63.2833 54.832 61.3969 37.9751 42.1901C21.1181 22.9832 23.0442 -6.27074 42.277 -23.1505C61.5098 -40.0303 90.7663 -38.1438 107.623 -18.937C124.48 0.269875 122.554 29.5238 103.321 46.4036Z" fill="url(#paint0_linear_2796_19528)"/>
<path opacity="0.46" d="M70.4093 47.9384C50.3526 46.6451 35.1637 29.3389 36.4841 9.28391C37.8045 -10.7711 55.1341 -25.9805 75.1908 -24.6872C95.2476 -23.394 110.436 -6.08778 109.116 13.9672C107.796 34.0222 90.4661 49.2316 70.4093 47.9384Z" fill="#C1338B"/>
<path d="M70.5818 45.3166C51.9732 44.1167 37.881 28.0601 39.1061 9.45315C40.3311 -9.15382 56.4095 -23.265 75.0181 -22.0652C93.6267 -20.8653 107.719 -4.80865 106.494 13.7983C105.269 32.4053 89.1904 46.5165 70.5818 45.3166Z" fill="#FDE090"/>
<path d="M80.8564 10.5191L69.6761 27.2655L64.5603 23.8501L75.6385 7.25671C76.5434 5.90126 77.0522 4.68163 77.1647 3.59783C77.2869 2.49946 77.098 1.51996 76.598 0.659339C76.0833 -0.211018 75.345 -0.9673 74.3831 -1.60951C73.4357 -2.242 72.4372 -2.6242 71.3874 -2.75613C70.3328 -2.91236 69.2974 -2.75022 68.2813 -2.26972C67.2603 -1.81351 66.3411 -0.973272 65.5238 0.25101L61.6559 6.04449L88.3496 23.8659L83.9709 30.4245L52.1396 9.17315L60.3716 -3.15713C62.0452 -5.66399 63.9201 -7.5097 65.9963 -8.69427C68.0822 -9.89341 70.226 -10.4534 72.4277 -10.3741C74.6295 -10.2949 76.736 -9.58389 78.7473 -8.24109C80.8606 -6.83016 82.3444 -5.12318 83.1985 -3.12012C84.0623 -1.13164 84.2966 1.02655 83.9014 3.35442C83.5159 5.66772 82.5009 8.05594 80.8564 10.5191ZM83.4519 10.5135L88.5676 13.9289L76.5845 31.8778L71.4688 28.4624L83.4519 10.5135Z" fill="#DA5B72"/>
<path opacity="0.22" d="M56.3763 44.1295C69.2307 50.6075 85.2901 49.0512 96.7884 38.9597C111.907 25.6908 113.421 2.69828 100.17 -12.3999C90.4421 -23.4836 75.4617 -27.2271 62.2044 -23.1805C66.2546 -21.1414 69.9829 -18.3092 73.1513 -14.6991C86.3976 0.393706 84.8885 23.3916 69.7699 36.6605C65.75 40.1886 61.1784 42.6689 56.3763 44.1295Z" fill="#C1338B"/>
<defs>
<linearGradient id="paint0_linear_2796_19528" x1="45.7914" y1="-19.1478" x2="99.1764" y2="41.6792" gradientUnits="userSpaceOnUse">
<stop offset="0.0188" stop-color="#FDE090"/>
<stop offset="1" stop-color="#FE9A81"/>
</linearGradient>
</defs>
</svg>
