<svg width="219" height="226" viewBox="0 0 219 226" fill="none" xmlns="http://www.w3.org/2000/svg">
<path d="M217.122 147.759C217.122 147.759 190.73 158.802 179.259 168.711C167.788 178.62 167.788 178.62 167.788 178.62L171.133 167.716L212.783 139.955L217.122 147.759Z" fill="#5E4060"/>
<path d="M202.971 137.912C202.971 137.912 204.385 147.725 211.018 146.795C217.657 145.871 217.514 141.171 217.514 141.171C217.514 141.171 228.323 148.705 231.884 137.02C235.453 125.328 234.23 123.742 234.23 123.742C234.23 123.742 240.911 124.302 239.055 114.79C237.2 105.278 234.036 104.392 234.036 104.392C234.036 104.392 244.216 91.2646 230.421 88.3884C216.619 85.519 212.777 88.1478 212.777 88.1478C212.777 88.1478 209.551 81.2414 201.255 80.9394C192.959 80.6375 193.184 84.3537 193.184 84.3537C193.184 84.3537 191.172 73.4717 183.365 74.3193C175.558 75.1669 174.908 79.6793 174.908 79.6793C174.908 79.6793 167.663 75.724 165.933 82.0151C164.197 88.313 164.768 90.3935 164.768 90.3935C164.768 90.3935 160.919 94.4987 161.246 100.043C161.58 105.58 165.28 107.272 165.28 107.272C165.28 107.272 157.909 112.693 162.934 117.435C167.965 122.183 173.41 121.669 173.41 121.669C173.41 121.669 171.565 130.461 177.953 131.673C184.349 132.878 190.172 125.072 190.172 125.072C190.172 125.072 189.935 128.664 194.551 129.546C199.168 130.429 200.654 128.033 200.654 128.033L202.971 137.912Z" fill="#396F72"/>
<path d="M194.895 124.743C194.895 124.743 186.165 125.503 192.541 132.634C198.918 139.765 201.606 140.391 201.606 140.391C201.606 140.391 201.451 144.523 205.661 148.247C209.87 151.972 210.739 150.4 210.739 150.4C210.739 150.4 208.901 155.572 213.171 158.629C217.442 161.687 218.962 160.187 218.962 160.187C218.962 160.187 221.659 164.892 224.224 163.158C226.79 161.423 227.041 160.353 227.041 160.353C227.041 160.353 230.116 160.409 231.413 158.065C232.702 155.728 231.242 153.459 231.242 153.459C231.242 153.459 236.49 154.528 235.145 150.46C234.866 149.615 234.513 148.858 234.14 148.188C232.7 145.602 230.839 144.24 230.839 144.24C230.839 144.24 234.124 141.567 231.13 138.317C228.142 135.059 223.064 135.616 223.064 135.616C223.064 135.616 224.137 134.302 221.984 131.948C219.832 129.593 218.433 129.893 218.433 129.893L219.837 124.988C219.837 124.988 221.696 120.498 218.023 117.984C214.35 115.47 213.176 117.383 213.176 117.383C213.176 117.383 209.576 109.713 204.648 112.778C202.524 114.105 201.356 115.067 200.711 115.744C199.863 116.634 199.931 117.012 199.931 117.012C199.931 117.012 196.624 113.894 195.071 118.447C193.517 123 194.895 124.743 194.895 124.743Z" fill="url(#paint0_linear_2796_19446)"/>
<path d="M194.895 124.743C194.895 124.743 186.165 125.503 192.541 132.634C198.918 139.765 201.606 140.391 201.606 140.391C201.606 140.391 201.451 144.523 205.661 148.247C209.87 151.972 210.739 150.4 210.739 150.4C210.739 150.4 208.901 155.572 213.171 158.629C217.442 161.687 218.962 160.187 218.962 160.187C218.962 160.187 221.659 164.892 224.224 163.158C226.79 161.423 227.041 160.353 227.041 160.353C227.041 160.353 230.116 160.409 231.413 158.065C232.702 155.728 231.242 153.459 231.242 153.459C231.242 153.459 236.49 154.528 235.145 150.46C234.866 149.615 234.513 148.858 234.14 148.188C232.7 145.602 230.839 144.24 230.839 144.24C230.839 144.24 234.124 141.567 231.13 138.317C228.142 135.059 223.064 135.616 223.064 135.616C223.064 135.616 224.137 134.302 221.984 131.948C219.832 129.593 218.433 129.893 218.433 129.893L219.837 124.988C219.837 124.988 221.696 120.498 218.023 117.984C214.35 115.47 213.176 117.383 213.176 117.383C213.176 117.383 209.576 109.713 204.648 112.778C202.524 114.105 201.356 115.067 200.711 115.744C199.863 116.634 199.931 117.012 199.931 117.012C199.931 117.012 196.624 113.894 195.071 118.447C193.517 123 194.895 124.743 194.895 124.743Z" fill="url(#paint1_linear_2796_19446)"/>
<path opacity="0.53" d="M194.897 124.743C194.897 124.743 186.166 125.503 192.543 132.634C198.919 139.765 201.607 140.391 201.607 140.391C201.607 140.391 201.452 144.523 205.662 148.247C209.872 151.972 210.74 150.4 210.74 150.4C210.74 150.4 208.902 155.572 213.173 158.629C217.443 161.687 218.964 160.187 218.964 160.187C218.964 160.187 221.66 164.892 224.226 163.158C226.791 161.423 227.042 160.353 227.042 160.353C227.042 160.353 230.118 160.409 231.414 158.065C232.703 155.728 231.243 153.459 231.243 153.459C231.243 153.459 236.491 154.528 235.146 150.46C234.867 149.615 234.514 148.858 234.141 148.188C231.65 150.374 228.969 152.479 226.769 153.582C220.938 156.514 219.52 159.463 216.851 155.015C214.182 150.567 216.965 145.867 212.613 145.425C208.254 144.976 206.992 143.537 206.577 140.845C206.162 138.152 206.664 136.294 203.867 135.29C201.076 134.293 200.94 129.155 200.94 129.155L205.441 130.731C205.441 130.731 209.405 129.667 206.723 127.996C204.041 126.325 202.928 126.816 202.785 123.006C202.641 119.196 206.308 121.393 205.988 118.552C205.832 117.142 203.299 116.807 200.713 115.73C199.864 116.621 199.932 116.999 199.932 116.999C199.932 116.999 196.625 113.881 195.072 118.434C193.518 122.987 194.897 124.743 194.897 124.743Z" fill="#396F72"/>
<path opacity="0.53" d="M229.15 146.19C229.15 146.19 224.819 149.301 222.965 145.681C221.104 142.054 221.293 140.235 221.293 140.235C221.293 140.235 216.188 138.418 216.364 135.332C216.546 132.252 220.206 133.067 220.206 133.067C220.206 133.067 218.8 130.11 216.54 132.258C214.279 134.407 213.465 138.19 215.427 139.276C217.397 140.355 217.75 140.708 217.75 140.708C217.75 140.708 218.28 146.847 222.028 149.261C225.783 151.667 229.15 146.19 229.15 146.19Z" fill="#396F72"/>
<path d="M162.259 132.394C162.259 132.394 169.178 135.579 171.376 130.741C173.575 125.902 170.485 124.013 170.485 124.013C170.485 124.013 179.894 119.94 173.857 112.61C167.827 105.285 166.279 105.436 166.279 105.436C166.279 105.436 169.448 101.191 162.544 98.4251C155.639 95.6588 153.732 97.4047 153.732 97.4047C153.732 97.4047 149.554 85.0309 141.891 93.0864C134.228 101.142 134.311 104.823 134.311 104.823C134.311 104.823 128.506 104.074 124.814 109.522C121.129 114.963 123.621 116.377 123.621 116.377C123.621 116.377 115.759 113.138 113.017 118.741C110.276 124.344 112.91 126.682 112.91 126.682C112.91 126.682 107.317 129.878 110.644 133.691C113.972 137.517 115.554 138.007 115.554 138.007C115.554 138.007 116.58 142.322 120.294 144.445C124.007 146.569 126.648 144.787 126.648 144.787C126.648 144.787 127.036 152.024 132.216 150.652C137.395 149.28 139.357 145.404 139.357 145.404C139.357 145.404 144.252 150.354 147.721 146.57C151.189 142.785 148.608 135.58 148.608 135.58C148.608 135.58 150.821 137.254 153.332 134.522C155.837 131.796 154.92 129.787 154.92 129.787L162.259 132.394Z" fill="#396F72"/>
<path d="M165.926 82.0349C165.926 82.0349 168.826 117.8 171.375 130.742C173.923 143.684 174.341 160.71 174.341 160.71L183.172 155.009C183.172 155.009 180.338 139.449 175.941 119.469C171.545 99.4889 172.709 83.9644 172.709 83.9644L165.926 82.0349Z" fill="#5E4060"/>
<path d="M141.372 270.295L141.7 278.441L143.003 310.777L174.585 312.823C174.585 312.823 165.378 274.835 161.419 267.06C157.446 259.286 164.265 245.925 165.483 225.358C166.7 204.791 172.815 193.313 176.485 182.829C180.162 172.339 181.691 175.983 187.472 164.658C192.555 154.71 195.261 141.037 195.837 137.866C195.911 137.428 195.959 137.192 195.959 137.192C196.095 137.058 196.217 136.924 196.346 136.797C206.106 126.741 205.739 124.284 205.664 121.877C205.616 120.158 205.208 119.71 204.326 119.272C203.952 119.087 203.504 118.909 202.954 118.642C201.101 117.746 201.272 123.376 197.926 130.033C194.581 136.69 194.791 133.705 193.69 131.945C192.59 130.184 192.079 121.787 191.99 118.827C191.895 115.86 190.706 111.017 190.706 111.017L187.834 111.111C187.834 111.111 186.898 114.759 187.585 120.083C188.272 125.407 187.954 132.436 187.954 132.436C187.954 132.436 187.893 133.117 187.662 134.45C187.303 136.53 186.544 140.219 184.949 145.433C182.331 153.99 181.705 150.655 179.038 152.8C176.37 154.945 175.074 155.927 172.773 157.387C170.472 158.847 170.484 150.73 167.007 148.628C164.631 147.196 163.721 145.072 161.989 141.777C161.188 140.247 160.21 138.474 158.817 136.394C154.437 129.83 151.89 120.583 151.89 120.583L150.226 121.13L147.151 122.14C147.151 122.14 147.425 131.176 150.821 136.971C154.216 142.753 159.141 155.887 158.294 163.614C157.894 167.271 157.813 169.442 157.433 171.192C157.02 173.137 156.226 174.568 154.23 176.94C154.224 176.947 154.224 176.947 154.224 176.947C150.402 181.456 152.641 205.372 152.641 205.372L147.679 238.856L141.372 270.295Z" fill="#77555B"/>
<path d="M204.318 119.267C202.71 122.916 199.636 129.804 196.338 136.792C206.098 126.736 205.731 124.279 205.656 121.872C205.601 120.145 205.2 119.691 204.318 119.267Z" fill="#5E4060"/>
<path d="M141.707 278.435L142.096 288.166L143.01 310.771L174.592 312.817C174.592 312.817 168.708 288.531 164.326 274.821C163.225 271.389 162.22 268.617 161.426 267.054C157.452 259.28 164.272 245.919 165.49 225.352C166.707 204.785 172.822 193.307 176.492 182.823C180.169 172.332 181.697 175.977 187.479 164.652C192.562 154.704 195.267 141.031 195.844 137.859C192.749 144.404 189.513 150.886 187.178 154.739C181.064 164.815 173.535 164.242 169.097 171.977C164.658 179.712 171.291 178.606 167.26 187.975C163.237 197.351 160.761 206.442 159.826 214.363C158.89 222.285 153.971 232.086 153.927 247.854C153.876 263.63 152.195 279.204 151.005 269.076C149.815 258.949 149.243 250.733 148.192 255.883C147.134 261.04 148.08 271.88 146.913 276.079C146.669 276.98 144.673 277.762 141.707 278.435Z" fill="#5E4060"/>
<g opacity="0.65">
<path d="M164.914 168.414C164.914 168.414 162.101 190.621 159.847 190.955C157.6 191.283 164.124 159.657 164.914 168.414Z" fill="#C98057"/>
<path d="M154.985 179.985C154.985 179.985 153.039 184.615 155.129 184.671C157.22 184.713 156.158 178.356 154.985 179.985Z" fill="#C98057"/>
<path d="M157.014 205.214C157.014 205.214 149.036 232.11 152.355 232.006C155.668 231.908 158.716 199.165 157.014 205.214Z" fill="#C98057"/>
<path d="M150.807 136.944C154.203 142.725 159.128 155.86 158.281 163.586C157.881 167.244 157.8 169.414 157.42 171.165C159.748 166.685 162.394 160.73 161.932 157.693C161.13 152.442 156.613 141.806 152.266 133.509C150.079 129.341 149.881 124.694 150.213 121.103L147.138 122.113C147.145 122.119 147.419 131.155 150.807 136.944Z" fill="#C98057"/>
</g>
<path opacity="0.35" d="M160.337 221.181C160.337 221.181 156.063 235.51 155.352 245.436C154.648 255.368 154.677 262.002 153.57 259.87C152.456 257.746 156.949 219.033 160.538 209.587C164.134 200.147 163.028 203.261 160.337 221.181Z" fill="#C98057"/>
<path opacity="0.5" d="M166.112 153.032C168.449 160.95 166.46 164.704 167.527 166.782C168.586 168.866 172.094 160.794 177.009 159.184C181.924 157.574 183.423 155.38 185.88 150.005C188.336 144.629 187.669 134.431 187.669 134.431C187.309 136.511 186.55 140.2 184.955 145.414C182.337 153.97 181.712 150.636 179.044 152.781C176.377 154.926 175.08 155.907 172.779 157.367C170.478 158.827 170.49 150.71 167.014 148.609C164.637 147.176 163.727 145.053 161.995 141.757L161.052 142.027C161.024 142.027 163.775 145.114 166.112 153.032Z" fill="#C98057"/>
<path d="M125.635 78.1396C125.635 78.1396 109.399 92.9362 130.479 96.7206C151.559 100.505 157.58 97.602 157.58 97.602C157.58 97.602 162.225 105.671 174.968 106.308C187.704 106.939 187.519 102.643 187.519 102.643C187.519 102.643 190.129 115.269 202.165 114.552C214.208 113.843 215.409 108.654 215.409 108.654C215.409 108.654 226.353 113.464 229.305 106.265C232.25 99.0591 231.468 96.6332 231.468 96.6332C231.468 96.6332 237.571 92.0318 237.304 85.6186C237.032 79.212 231.43 77.1427 231.43 77.1427C231.43 77.1427 243.004 71.1377 235.488 65.4951C233.926 64.3244 232.337 63.4096 230.789 62.7109C224.855 59.9988 219.574 60.2577 219.574 60.2577C219.574 60.2577 222.803 50.1682 213.033 48.568C203.264 46.9543 193.965 55.76 193.965 55.76C193.965 55.76 194.487 51.6311 187.433 50.4548C180.38 49.2786 177.997 51.9919 177.997 51.9919L174.859 40.5355C174.859 40.5355 173.125 29.1634 162.888 30.0072C152.657 30.8442 152.665 36.2713 152.665 36.2713C152.665 36.2713 136.391 27.2087 130.392 40.5684C127.807 46.3275 126.674 49.9532 126.22 52.2085C125.616 55.2042 126.207 55.8084 126.207 55.8084C126.207 55.8084 115.969 54.9398 118.395 65.9663C120.814 77.013 125.635 78.1396 125.635 78.1396Z" fill="url(#paint2_linear_2796_19446)"/>
<path d="M125.635 78.1396C125.635 78.1396 109.399 92.9362 130.479 96.7206C151.559 100.505 157.58 97.602 157.58 97.602C157.58 97.602 162.225 105.671 174.968 106.308C187.704 106.939 187.519 102.643 187.519 102.643C187.519 102.643 190.129 115.269 202.165 114.552C214.208 113.843 215.409 108.654 215.409 108.654C215.409 108.654 226.353 113.464 229.305 106.265C232.25 99.0591 231.468 96.6332 231.468 96.6332C231.468 96.6332 237.571 92.0318 237.304 85.6186C237.032 79.212 231.43 77.1427 231.43 77.1427C231.43 77.1427 243.004 71.1377 235.488 65.4951C233.926 64.3244 232.337 63.4096 230.789 62.7109C224.855 59.9988 219.574 60.2577 219.574 60.2577C219.574 60.2577 222.803 50.1682 213.033 48.568C203.264 46.9543 193.965 55.76 193.965 55.76C193.965 55.76 194.487 51.6311 187.433 50.4548C180.38 49.2786 177.997 51.9919 177.997 51.9919L174.859 40.5355C174.859 40.5355 173.125 29.1634 162.888 30.0072C152.657 30.8442 152.665 36.2713 152.665 36.2713C152.665 36.2713 136.391 27.2087 130.392 40.5684C127.807 46.3275 126.674 49.9532 126.22 52.2085C125.616 55.2042 126.207 55.8084 126.207 55.8084C126.207 55.8084 115.969 54.9398 118.395 65.9663C120.814 77.013 125.635 78.1396 125.635 78.1396Z" fill="url(#paint3_linear_2796_19446)"/>
<path opacity="0.53" d="M125.635 78.1396C125.635 78.1396 109.399 92.9362 130.479 96.7206C151.559 100.505 157.58 97.602 157.58 97.602C157.58 97.602 162.225 105.671 174.968 106.308C187.704 106.939 187.519 102.643 187.519 102.643C187.519 102.643 190.129 115.269 202.165 114.552C214.208 113.843 215.409 108.654 215.409 108.654C215.409 108.654 226.353 113.464 229.305 106.265C232.25 99.0591 231.468 96.6332 231.468 96.6332C231.468 96.6332 237.571 92.0318 237.304 85.6186C237.032 79.212 231.43 77.1427 231.43 77.1427C231.43 77.1427 243.004 71.1377 235.488 65.4951C233.926 64.3244 232.337 63.4096 230.789 62.7109C228.53 70.6702 225.796 78.7609 222.81 84.2138C214.891 98.6991 215.653 106.457 205.061 102.094C194.484 97.7308 194.304 84.5562 185.222 90.3566C176.14 96.157 171.917 95.3717 167.877 90.8866C163.83 86.4082 162.58 82.125 155.893 84.484C149.214 86.8498 142.79 77.3251 142.79 77.3251L153.508 73.4443C153.508 73.4443 160.017 65.3671 152.753 66.2995C145.483 67.2385 143.881 69.8698 139.025 62.8574C134.17 55.8451 144.013 54.4188 139.966 49.5089C137.963 47.0743 132.594 50.3056 126.226 52.2152C125.623 55.2109 126.214 55.8152 126.214 55.8152C126.214 55.8152 115.976 54.9466 118.402 65.9731C120.814 77.013 125.635 78.1396 125.635 78.1396Z" fill="#396F72"/>
<path opacity="0.53" d="M218.598 66.5064C218.598 66.5064 213.835 79.0389 205.844 74.9974C197.846 70.9492 196.019 67.2079 196.019 67.2079C196.019 67.2079 183.807 71.5636 180.465 65.4452C177.124 59.3268 185.29 55.266 185.29 55.266C185.29 55.266 178.989 51.8096 177.124 59.3268C175.265 66.8507 178.213 75.2989 183.366 74.3312C188.525 73.3703 189.652 73.4997 189.652 73.4997C189.652 73.4997 198.066 84.3532 208.317 83.1995C218.561 82.0524 218.598 66.5064 218.598 66.5064Z" fill="#396F72"/>
<path d="M116.378 131.596C116.378 131.596 116.243 132.619 116.162 134.021C116.033 136.117 116 139.063 116.652 140.645C117.746 143.275 122.673 139.05 122.673 139.05C122.673 139.05 124.724 142.152 131.411 142.058C138.098 141.965 137.6 132.705 137.6 132.705C137.6 132.705 143.324 135.179 150.627 128.962C157.937 122.737 147.053 115.871 147.053 115.871C147.053 115.871 147.053 115.871 154.704 112.885C162.354 109.899 154.423 103.573 154.423 103.573C151.374 96.1687 142.122 103.957 142.122 103.957C142.122 103.957 140.336 100.89 134.003 101.957C129.814 102.662 129.597 105.465 129.924 107.288C130.087 108.179 130.379 108.835 130.406 108.889C130.223 108.732 122.312 102.305 119.34 106.936C116.34 111.62 119.552 113.982 119.552 113.982C119.552 113.982 113.306 114.531 109.757 121.888C106.208 129.217 116.378 131.596 116.378 131.596Z" fill="url(#paint4_linear_2796_19446)"/>
<path d="M116.378 131.596C116.378 131.596 116.243 132.619 116.162 134.021C116.033 136.117 116 139.063 116.652 140.645C117.746 143.275 122.673 139.05 122.673 139.05C122.673 139.05 124.724 142.152 131.411 142.058C138.098 141.965 137.6 132.705 137.6 132.705C137.6 132.705 143.324 135.179 150.627 128.962C157.937 122.737 147.053 115.871 147.053 115.871C147.053 115.871 147.053 115.871 154.704 112.885C162.354 109.899 154.423 103.573 154.423 103.573C151.374 96.1687 142.122 103.957 142.122 103.957C142.122 103.957 140.336 100.89 134.003 101.957C129.814 102.662 129.597 105.465 129.924 107.288C130.087 108.179 130.379 108.835 130.406 108.889C130.223 108.732 122.312 102.305 119.34 106.936C116.34 111.62 119.552 113.982 119.552 113.982C119.552 113.982 113.306 114.531 109.757 121.888C106.208 129.217 116.378 131.596 116.378 131.596Z" fill="url(#paint5_linear_2796_19446)"/>
<path opacity="0.53" d="M116.162 134.021C116.033 136.117 116 139.063 116.652 140.645C117.746 143.275 122.673 139.05 122.673 139.05C122.673 139.05 124.724 142.152 131.411 142.058C138.098 141.965 137.6 132.705 137.6 132.705C137.6 132.705 143.324 135.179 150.627 128.962C157.937 122.737 147.053 115.871 147.053 115.871C147.053 115.871 147.053 115.871 154.704 112.885C162.354 109.899 154.423 103.573 154.423 103.573C151.374 96.1687 142.122 103.957 142.122 103.957C142.122 103.957 140.336 100.89 134.003 101.957C129.814 102.662 129.597 105.465 129.924 107.288C138.73 112.804 150.182 108.444 140.626 123.881C135.598 131.996 125.49 134.546 116.162 134.021Z" fill="#396F72"/>
<defs>
<linearGradient id="paint0_linear_2796_19446" x1="221.775" y1="130.474" x2="193.99" y2="155.171" gradientUnits="userSpaceOnUse">
<stop stop-color="#AAC149"/>
<stop offset="1" stop-color="#008B4C"/>
</linearGradient>
<linearGradient id="paint1_linear_2796_19446" x1="242.516" y1="140.103" x2="189.166" y2="152.038" gradientUnits="userSpaceOnUse">
<stop stop-color="#A7F3C0"/>
<stop offset="0.760417" stop-color="#059649"/>
</linearGradient>
<linearGradient id="paint2_linear_2796_19446" x1="183.895" y1="48.3927" x2="162.9" y2="134.927" gradientUnits="userSpaceOnUse">
<stop stop-color="#AAC149"/>
<stop offset="1" stop-color="#008B4C"/>
</linearGradient>
<linearGradient id="paint3_linear_2796_19446" x1="201.887" y1="26.7246" x2="181.475" y2="154.312" gradientUnits="userSpaceOnUse">
<stop stop-color="#A7F3C0"/>
<stop offset="0.760417" stop-color="#059649"/>
</linearGradient>
<linearGradient id="paint4_linear_2796_19446" x1="106.957" y1="106.694" x2="163.938" y2="136.381" gradientUnits="userSpaceOnUse">
<stop stop-color="#AAC149"/>
<stop offset="1" stop-color="#008B4C"/>
</linearGradient>
<linearGradient id="paint5_linear_2796_19446" x1="113.782" y1="105.738" x2="169.256" y2="127.73" gradientUnits="userSpaceOnUse">
<stop stop-color="#A7F3C0"/>
<stop offset="0.760417" stop-color="#059649"/>
</linearGradient>
</defs>
</svg>
