<svg width="214" height="155" viewBox="0 0 214 155" fill="none" xmlns="http://www.w3.org/2000/svg">
<path d="M42.7354 65.1358C42.7354 65.1358 38.9593 63.72 38.093 60.6872C37.2245 57.6565 39.7491 56.8994 39.7491 56.8994C39.7491 56.8994 37.4126 55.221 38.8434 50.9518C40.2742 46.6826 44.2908 49.3019 44.2908 49.3019C44.2908 49.3019 43.6783 47.0874 44.4024 45.3587C45.1266 43.63 46.6667 47.1377 46.6667 47.1377C46.6667 47.1377 46.6383 42.1486 52.1076 41.8926C57.577 41.6366 60.0819 45.7395 60.0819 45.7395C60.0819 45.7395 65.1925 41.9954 66.4658 43.2931C67.7412 44.5907 64.1468 46.3872 64.1468 46.3872C64.1468 46.3872 69.1283 46.1224 70.594 49.0481C72.0598 51.9737 69.8633 53.8796 69.8633 53.8796C69.8633 53.8796 72.8233 54.5405 72.6658 55.93C72.5083 57.3195 70.244 57.2911 70.244 57.2911C70.244 57.2911 73.7728 59.197 72.4996 61.9607C71.2263 64.7244 70.5 65.1424 70.5 65.1424C70.5 65.1424 72.1692 69.3809 70.3359 70.974C68.5025 72.567 66.9536 72.5845 66.9536 72.5845C66.9536 72.5845 65.5688 77.4751 63.2826 77.1053C60.9964 76.7355 60.141 73.2409 60.141 73.2409L42.7354 65.1358Z" fill="#152E51"/>
<path d="M59.6707 92.7816L46.5093 92.2389L40.6812 90.8866C40.6812 90.8866 49.069 83.9477 49.3162 77.4925C49.4146 74.8951 51.5717 72.8185 54.1357 71.5734C57.949 69.7178 62.6636 69.6937 62.867 72.5253C62.867 72.5253 58.7081 79.6326 59.1872 86.2082C59.6707 92.7815 59.6707 92.7816 59.6707 92.7816Z" fill="url(#paint0_linear_2796_19086)"/>
<path d="M60.7033 74.7881C60.7033 74.7881 56.0106 85.2477 49.4233 88.0071C49.2221 88.0902 49.012 88.1668 48.7954 88.2281L44.9341 86.611C44.9341 86.611 49.0689 83.9458 49.3161 77.4905C49.4146 74.8931 51.5717 72.8165 54.1357 71.5714C58.2684 72.4861 60.7033 74.7881 60.7033 74.7881Z" fill="#F078A5"/>
<path d="M66.0719 70.2168C65.9931 71.8645 62.3593 73.1665 62.3593 73.1665C62.3593 73.1665 60.4691 77.6939 59.6837 79.1316C59.0755 80.241 51.6437 81.5495 47.6139 81.8296C47.6052 81.8318 47.5986 81.8318 47.592 81.8318C44.7983 81.8953 45.4502 79.7071 44.2426 78.0003C42.989 76.2212 41.8711 71.6019 41.8011 71.3175C41.7989 71.3065 41.7989 71.3021 41.7989 71.3021C41.742 70.6938 41.7223 70.1511 41.7464 69.7157C41.9324 66.6106 43.1575 65.2846 42.254 63.4049C41.3482 61.523 42.895 57.8206 42.895 57.8206L46.6623 57.884C46.6623 57.884 48.0996 59.7724 52.6151 59.9519C57.1306 60.1313 60.9022 58.5383 61.5301 58.8578C62.1602 59.1794 60.5369 63.9169 60.4953 65.4706C60.4516 67.0242 59.4649 68.0439 60.8432 68.1708C62.2236 68.2977 63.6916 65.2145 65.3784 65.7616C67.0629 66.3064 66.1506 68.5713 66.0719 70.2168Z" fill="url(#paint1_linear_2796_19086)"/>
<path d="M46.0193 66.5605C45.9997 67.276 45.5949 67.8515 45.118 67.8428C44.6411 67.834 44.2691 67.2476 44.2888 66.532C44.3085 65.8165 44.7133 65.241 45.1902 65.2497C45.6693 65.2563 46.039 65.8427 46.0193 66.5605Z" fill="#152E51"/>
<path d="M54.431 67.0726C54.4113 67.7881 54.0065 68.3636 53.5296 68.3549C53.0527 68.3461 52.6808 67.7597 52.7005 67.0441C52.7201 66.3286 53.1249 65.7531 53.6018 65.7618C54.0809 65.7684 54.4528 66.3548 54.431 67.0726Z" fill="#152E51"/>
<path opacity="0.36" d="M47.3557 68.0812C48.1936 69.5867 46.3319 69.8449 46.0124 70.985C45.8046 71.7246 46.4456 71.775 46.7169 72.2826C46.9291 72.6809 47.487 72.2958 47.2748 71.8997C47.1413 71.6502 46.6403 71.3767 46.73 71.055C46.7716 70.9018 47.2048 70.5736 47.301 70.4795C47.5045 70.2782 47.7429 70.0769 47.9267 69.8515C48.4671 69.1863 48.3052 68.3942 47.9158 67.6961C47.6926 67.3044 47.1348 67.6874 47.3557 68.0812Z" fill="#C14276"/>
<path d="M43.6146 64.0789C43.5293 64.1204 44.3366 63.1948 44.8792 63.1117C45.4217 63.0285 45.9621 62.976 46.113 63.2561C46.264 63.5362 46.4128 63.9104 46.0955 63.9038C45.7761 63.8994 44.4175 63.6915 43.6146 64.0789Z" fill="#152E51"/>
<path d="M52.7965 63.7005C52.7965 63.7005 52.6565 64.2607 52.7768 64.4182C52.8972 64.5758 53.5316 64.3701 54.2054 64.7508C54.8793 65.1337 55.4743 65.4204 55.4743 65.4204C55.4743 65.4204 55.1527 64.5495 54.7217 64.0484C54.2886 63.5473 52.8643 63.1972 52.7965 63.7005Z" fill="#152E51"/>
<path d="M46.227 65.7046C46.2204 65.9475 46.0126 66.1401 45.7653 66.1357C45.5181 66.1314 45.3212 65.9322 45.3278 65.6893C45.3344 65.4464 45.5422 65.2539 45.7894 65.2583C46.0366 65.2626 46.2335 65.4618 46.227 65.7046Z" fill="white"/>
<path d="M54.5839 66.2825C54.5773 66.5254 54.3695 66.718 54.1223 66.7136C53.8729 66.7092 53.6782 66.5101 53.6847 66.2672C53.6913 66.0243 53.8991 65.8318 54.1463 65.8361C54.3936 65.8405 54.5905 66.0418 54.5839 66.2825Z" fill="white"/>
<path d="M50.9262 76.683C50.5893 76.9128 50.1889 77.125 49.7185 77.3023C48.5 77.7705 47.3055 77.6677 46.3801 77.1666C45.6625 76.7793 45.109 76.1535 44.8311 75.3679C44.7305 75.0812 44.9536 74.799 45.249 74.8077C45.2774 74.8033 45.3081 74.8099 45.3409 74.8143C45.9097 74.9434 46.8176 75.0703 48.0056 74.9631C49.5698 74.8208 51.4316 74.0046 52.2695 73.8449C52.5626 73.788 52.7311 73.8143 52.7201 73.9718C52.6961 74.4751 52.3548 75.7289 50.9262 76.683Z" fill="#C14276"/>
<path d="M52.2717 73.8472L52.2039 74.3964C52.1886 74.519 50.7775 75.2586 48.8588 75.4708C46.9423 75.6831 45.7829 75.4117 45.5138 75.3636C45.3934 75.3417 45.3103 75.0857 45.2534 74.8078C45.2819 74.8034 45.3125 74.81 45.3453 74.8144C45.9141 74.9435 46.822 75.0704 48.01 74.9632C49.572 74.8231 51.4338 74.0069 52.2717 73.8472Z" fill="white"/>
<path opacity="0.38" d="M50.926 76.6832C50.5891 76.9129 50.1887 77.1252 49.7184 77.3024C48.4998 77.7707 47.3053 77.6679 46.3799 77.1668C46.8831 76.4381 48.0251 76.0026 49.2852 76.1383C49.9153 76.2061 50.4775 76.4053 50.926 76.6832Z" fill="url(#paint2_linear_2796_19086)"/>
<path d="M73.5301 244.363C72.1387 244.223 70.7605 244.072 69.3975 243.908C65.0483 243.39 60.8478 242.757 56.7983 242.022C55.3085 232.177 53.8974 222.448 52.7422 214.755C49.1171 190.592 46.7566 176.831 45.8618 180.901C45.8552 180.923 45.8509 180.942 45.8487 180.964V180.966C45.8377 181.023 45.8246 181.089 45.8137 181.161C45.8027 181.238 45.7874 181.319 45.7787 181.409C45.3258 184.958 44.9451 200.356 44.5667 216.869C44.5557 217.354 44.5426 217.84 44.5317 218.326C44.5207 218.812 44.5098 219.302 44.4988 219.788C44.4879 220.276 44.477 220.768 44.466 221.256C44.4573 221.499 44.4551 221.744 44.4485 221.989C44.431 222.724 44.4157 223.457 44.3982 224.19C44.3916 224.433 44.3873 224.676 44.3829 224.921C44.3676 225.656 44.3479 226.385 44.3326 227.116C44.3085 228.087 44.2866 229.052 44.2647 230.015C44.256 230.256 44.2538 230.497 44.2472 230.735C44.2254 231.694 44.2035 232.643 44.1816 233.589C44.1729 233.827 44.1685 234.061 44.1641 234.295C44.1247 235.939 44.0853 237.556 44.0438 239.129C44.0416 239.18 44.0416 239.23 44.0394 239.28C42.4796 238.891 40.9459 238.486 39.4364 238.068C37.695 237.584 35.9885 237.085 34.3127 236.565C31.3199 235.643 28.4364 234.667 25.6536 233.65C25.2008 197.398 25.2139 154.695 25.2139 153.102C25.2139 153.071 25.2139 153.056 25.2139 153.056C25.2139 153.056 25.2774 152.233 25.4261 150.859C25.7433 147.887 26.4456 142.336 27.7079 136.937C29.0512 131.193 31.0267 125.622 33.8489 123.524C34.0261 123.392 34.2208 123.29 34.4287 123.22C37.509 122.156 43.7091 127.6 49.9988 134.452C52.2456 136.902 54.5034 139.528 56.632 142.104C56.7699 142.27 56.9055 142.434 57.0411 142.601C58.8373 144.778 60.5328 146.905 62.0445 148.844C62.0904 148.9 62.1342 148.957 62.178 149.014C62.7402 149.736 63.2762 150.432 63.7838 151.091C65.9715 153.946 67.5948 156.15 68.2905 157.106C68.5355 157.443 68.6668 157.625 68.6668 157.625C68.6668 157.625 70.0079 181.654 69.9379 197.516C69.9379 197.803 69.9357 198.089 69.9335 198.372C69.9313 198.582 69.9269 198.789 69.9247 198.995C69.9226 199.407 69.9138 199.809 69.9116 200.205C69.9051 200.461 69.9007 200.713 69.8963 200.962C69.8876 201.291 69.8832 201.612 69.8744 201.925C69.8635 202.343 69.8482 202.752 69.8372 203.144C69.8307 203.365 69.8219 203.584 69.8132 203.792C69.8022 204.002 69.7957 204.205 69.7847 204.404C69.7738 204.599 69.765 204.792 69.7541 204.978C69.3931 211.547 71.4037 228.214 73.5301 244.363Z" fill="#5E4060"/>
<path opacity="0.48" d="M73.53 244.363C72.1386 244.223 70.7604 244.072 69.3974 243.908C68.6164 231.341 67.4656 220.308 66.398 217.019C63.5846 208.356 65.1532 206.328 64.195 191.564C63.6174 182.645 60.3489 168.857 57.8549 159.34C57.4392 157.76 57.0476 156.301 56.691 154.997C55.6409 151.158 54.9146 148.703 54.9146 148.703C54.9146 148.703 55.5227 146.058 56.586 142.261C56.5991 142.209 56.6166 142.158 56.6297 142.106C56.7676 142.272 56.9032 142.436 57.0389 142.603C58.835 144.78 60.5305 146.907 62.0422 148.846C62.0882 148.902 62.1319 148.959 62.1757 149.016C62.7598 149.749 63.3155 150.351 63.8405 150.846C66.7743 153.605 68.6995 152.959 68.6995 152.959C68.6995 152.959 68.7651 154.34 68.8701 156.675C69.2246 164.791 70.01 184.43 69.9378 197.52C69.9378 197.807 69.9356 198.093 69.9334 198.376C69.9312 198.586 69.9268 198.794 69.9246 198.999C69.9225 199.411 69.9137 199.813 69.9115 200.209C69.905 200.465 69.9006 200.717 69.8962 200.967C69.8874 201.295 69.8831 201.616 69.8743 201.929C69.8634 202.347 69.8481 202.757 69.8371 203.148C69.8306 203.369 69.8218 203.588 69.8131 203.796C69.8021 204.006 69.7956 204.21 69.7846 204.409C69.7737 204.603 69.7649 204.796 69.754 204.982C69.393 211.547 71.4035 228.214 73.53 244.363Z" fill="#1A1535"/>
<path d="M29.3533 134.988C26.7345 138.791 11.591 151.695 11.591 151.695L9.66797 145.091C9.66797 145.091 11.2103 143.045 13.0262 140.574C15.5049 137.194 18.4846 133.018 18.7055 132.2C18.933 131.366 20.8911 122.97 22.4641 116.206C23.5623 111.48 24.4746 107.548 24.4746 107.548C24.4746 107.548 36.4 107.893 37.5529 110.103C38.7058 112.311 31.9742 131.187 29.3533 134.988Z" fill="url(#paint3_linear_2796_19086)"/>
<path d="M29.3533 134.988C26.7345 138.791 11.591 151.695 11.591 151.695L9.66797 145.091C9.66797 145.091 11.2103 143.045 13.0262 140.574C13.8947 143.021 14.6495 145.15 14.8617 145.787C15.4392 147.522 22.7441 137.966 22.3612 136.292C21.9871 134.649 18.8324 132.296 18.7099 132.204C18.8455 132.261 23.1532 134.167 24.4768 135.883C25.8244 137.625 26.7849 121.281 26.5945 119.495C26.5158 118.76 24.6409 117.469 22.4662 116.209C23.5645 111.482 24.4768 107.55 24.4768 107.55C24.4768 107.55 36.4021 107.896 37.5551 110.106C38.7058 112.311 31.9742 131.187 29.3533 134.988Z" fill="#F078A5"/>
<path d="M37.5703 88.3462C37.5703 88.3462 32.2715 92.7445 31.2783 94.4338C30.2851 96.1209 22.1729 110.285 22.8358 111.139C23.4987 111.992 31.5758 115.813 31.5758 115.813L37.5703 88.3462Z" fill="url(#paint4_linear_2796_19086)"/>
<g opacity="0.38">
<path d="M37.5703 88.3462C37.5703 88.3462 32.2715 92.7445 31.2783 94.4338C30.2851 96.1209 22.1729 110.285 22.8358 111.139C23.4987 111.992 31.5758 115.813 31.5758 115.813L37.5703 88.3462Z" fill="#FB6089"/>
</g>
<path d="M69.1921 117.789C69.0674 120.837 70.3516 154.041 69.0258 156.461C67.7022 158.883 51.642 160.113 44.6894 160.242C37.7368 160.373 24.4922 153.424 24.4922 152.345C24.4922 152.249 24.5906 151.651 24.7722 150.653C26.588 140.592 36.667 89.4074 37.5705 88.3462C38.5637 87.1777 47.4613 82.9566 47.4613 82.9566C47.4613 82.9566 45.722 90.6 50.3163 91.3134C54.9105 92.0246 61.1193 82.3373 61.7406 82.9566C62.362 83.578 73.2875 88.9173 73.4122 90.0355C73.4822 90.6569 72.2112 98.2128 71.0429 105.329C70.1109 111.023 69.2468 116.434 69.1921 117.789Z" fill="url(#paint5_linear_2796_19086)"/>
<g opacity="0.52">
<path d="M69.0234 156.461C67.6998 158.883 51.6396 160.113 44.687 160.242C37.7343 160.373 24.4897 153.424 24.4897 152.345C24.4897 152.249 24.5882 151.651 24.7698 150.653C30.8736 152.621 41.3419 155.905 43.1971 155.912C45.8465 155.923 62.8999 154.494 62.8999 154.494C62.8999 154.494 64.5538 148.45 64.3897 147.811C64.2235 147.17 61.5741 146.297 54.1096 140.334C46.6428 134.373 49.5022 122.907 49.5022 122.907C49.5022 122.907 64.5538 124.436 65.9255 122.45C67.2929 120.463 66.7087 102.079 66.7087 102.079L71.0448 105.329C70.1107 111.023 69.2465 116.434 69.1918 117.789C69.0671 120.837 70.3513 154.041 69.0234 156.461Z" fill="#FB6089"/>
</g>
<path d="M84.6068 112.414C83.1366 113.513 81.5024 114.414 80.9445 114.791C79.9841 115.441 76.8578 116.64 75.4095 117.029C75.112 117.108 74.8845 117.154 74.7642 117.154C74.0444 117.154 66.046 106.224 66.7089 100.655C67.3718 95.0882 73.4143 90.0356 73.4143 90.0356C77.3063 89.4141 86.5758 106.224 87.2387 108.596C87.5799 109.826 86.1885 111.233 84.6068 112.414Z" fill="url(#paint6_linear_2796_19086)"/>
<path d="M48.8433 116.178L50.9916 133.699C50.9916 133.699 54.3432 135.649 59.6113 135.747C64.8816 135.846 66.8921 134.686 66.8921 134.686L69.3927 116.18H48.8433V116.178Z" fill="url(#paint7_linear_2796_19086)"/>
<path d="M59.1171 119.666C64.7923 119.666 69.3929 118.104 69.3929 116.178C69.3929 114.252 64.7923 112.69 59.1171 112.69C53.442 112.69 48.8413 114.252 48.8413 116.178C48.8413 118.104 53.442 119.666 59.1171 119.666Z" fill="#D89C6F"/>
<path d="M59.1169 118.329C63.5838 118.329 67.205 117.366 67.205 116.178C67.205 114.99 63.5838 114.027 59.1169 114.027C54.65 114.027 51.0288 114.99 51.0288 116.178C51.0288 117.366 54.65 118.329 59.1169 118.329Z" fill="url(#paint8_linear_2796_19086)"/>
<path d="M68.1261 90.2675C68.1261 90.2675 67.4982 83.6088 70.5129 81.5365C73.5276 79.4643 73.9039 79.6525 75.5359 78.7094C77.168 77.7662 79.4914 77.9566 81.4385 77.9566C83.3855 77.9566 87.5926 76.8253 88.2839 76.136C88.9752 75.4445 88.7871 76.136 88.2839 76.7006C87.7807 77.2651 85.8971 79.6525 83.134 80.0923C80.3708 80.5321 79.0516 82.5409 75.7875 85.495C72.5234 88.4447 69.069 90.5169 68.1261 90.2675Z" fill="url(#paint9_linear_2796_19086)"/>
<path d="M60.8434 118.139C60.8434 118.139 61.6441 107.163 62.8692 103.064C64.0943 98.9655 66.479 94.3549 68.2139 91.2433C69.9487 88.1316 71.8652 84.3613 74.6589 82.2585C77.4527 80.1534 80.6555 79.1796 81.5044 79.0243C82.3532 78.8667 84.4863 78.4904 84.4863 78.4904C84.4863 78.4904 78.3956 78.5845 74.9718 81.4729C71.5501 84.3613 70.9835 84.5036 68.5814 89.206C66.1793 93.9085 63.9499 97.1755 62.6001 101.414C61.2503 105.653 60.9681 109.957 60.559 112.438C60.1498 114.92 59.686 118.718 59.686 118.718L60.8434 118.139Z" fill="#307762"/>
<path d="M56.8506 96.2238C56.8506 96.2238 57.1832 94.7227 56.5991 93.1319C56.0171 91.541 53.1359 89.5454 51.5826 88.9611C50.0271 88.3791 47.5374 88.1296 46.5836 88.1296C45.6297 88.1296 45.0828 88.1296 44.2339 88.1296C43.3851 88.1296 43.0154 88.0596 42.6085 87.7576C42.2015 87.4578 42.0615 87.2631 42.0615 87.2631C42.0615 87.2631 42.5035 88.1121 43.792 88.2521C45.0806 88.3922 47.4062 88.6044 49.502 89.401C51.6001 90.1953 52.147 91.1865 53.5603 92.6701C54.9736 94.1538 55.9055 94.3857 55.9055 94.3857L56.8506 96.2238Z" fill="url(#paint10_linear_2796_19086)"/>
<path d="M48.3491 88.6265C48.3491 88.6265 51.1582 89.2085 53.1009 90.6046C55.0436 92.0007 55.8224 93.0073 56.5291 95.1802C57.2357 97.3531 57.9599 100.392 58.2421 102.106C58.5243 103.819 59.2834 110.535 59.4256 112.548C59.5678 114.563 59.7079 116.841 59.7079 116.841H58.8765C58.8765 116.841 58.8065 111.417 58.5943 109.244C58.3821 107.071 58.288 104.403 57.8002 101.734C57.3123 99.0642 56.4853 96.2984 55.9625 94.5609C55.4396 92.8235 53.5603 91.1517 52.4818 90.4624C51.4054 89.7753 48.3491 88.6265 48.3491 88.6265Z" fill="#307762"/>
<path d="M59.9486 98.1648C59.9486 98.1648 62.5389 98.4011 65.4114 95.8562C68.2839 93.3113 69.2268 89.2609 68.332 84.1733C67.4372 79.0858 67.0128 77.7203 66.6846 76.7772C66.3543 75.8341 66.2143 75.4577 65.7417 75.7881C65.2713 76.1185 63.0574 77.9085 62.5389 78.9435C62.0204 79.9807 59.7123 80.4512 58.4412 82.8998C57.1701 85.3484 57.0279 86.9042 56.2272 88.1756C55.4265 89.4469 54.7199 93.2632 56.2272 95.6658C57.7346 98.0707 59.9486 98.1648 59.9486 98.1648Z" fill="#E1FF8D"/>
<path d="M65.4114 78.2388C65.4114 78.2388 64.0922 81.1119 63.4337 83.5627C62.7752 86.0113 60.9375 92.9895 60.325 97.1318C59.7124 101.274 59.6183 108.718 59.7124 110.791C59.8064 112.863 59.6818 118.988 59.6818 118.988H58.8657C58.8657 118.988 58.9598 109.832 59.0845 107.007C59.2092 104.182 59.2092 101.574 59.9333 96.7379C60.6553 91.902 62.132 86.8144 62.6965 84.9916C63.2609 83.1688 65.4114 78.2388 65.4114 78.2388Z" fill="url(#paint11_linear_2796_19086)"/>
<path d="M89.96 124.473C89.8572 126.364 89.8725 127.751 89.0412 128.412C88.212 129.073 75.2912 136.423 71.7865 137.053C68.2795 137.684 68.203 137.655 66.6693 138.084C65.1379 138.513 60.583 138.067 59.5898 138.248C58.5966 138.43 51.3136 134.878 50.9833 134.541C50.6507 134.207 51.2327 132.964 52.1406 133.049C53.0529 133.13 53.0528 133.13 53.0528 133.13C53.0528 133.13 51.9765 131.887 52.5562 131.474C53.1338 131.062 54.3764 131.309 54.3764 131.309C54.3764 131.309 53.6304 129.983 54.127 129.487C54.6237 128.99 54.9562 128.909 55.7022 129.156C56.4482 129.406 61.6616 130.977 62.3223 130.977C62.9852 130.977 66.4615 131.062 66.2952 130.231C66.1312 129.403 63.3155 128.907 63.6481 128.244C63.9784 127.583 64.3941 126.519 65.3873 127.217C66.3806 127.913 68.6974 129.817 69.7737 129.817C70.8523 129.817 72.8913 125.915 74.7683 124.469C76.6454 123.025 77.4724 122.123 77.3914 121.583C77.3739 121.469 77.2296 121.099 77.0086 120.578C76.8489 120.209 76.6564 119.764 76.4398 119.285C76.3873 119.163 76.3304 119.036 76.2735 118.911C76.256 118.874 76.2385 118.834 76.221 118.797C76.1094 118.548 75.9957 118.296 75.8775 118.042C75.72 117.699 75.5647 117.357 75.4137 117.027C76.862 116.637 79.9883 115.44 80.9487 114.788C81.5066 114.41 83.1408 113.508 84.611 112.412C84.7619 112.71 84.9173 113.014 85.0726 113.324C85.1689 113.519 85.2695 113.716 85.3701 113.915C85.427 114.029 85.4839 114.147 85.543 114.263C87.7001 118.578 90.0147 123.462 89.96 124.473Z" fill="url(#paint12_linear_2796_19086)"/>
<path d="M53.0485 133.132C53.0485 133.132 55.129 134.467 55.7482 134.623C56.3695 134.778 58.6666 134.933 58.6666 134.933C58.6666 134.933 56.4307 134.467 55.7175 134.187C55.0043 133.907 52.5781 132.45 52.5781 132.45L53.0485 133.132Z" fill="#F078A5"/>
<path d="M54.1074 130.719C54.1074 130.719 55.6235 131.673 56.3389 131.889C57.0521 132.106 60.0012 132.666 60.0012 132.666C60.0012 132.666 57.3365 132.452 57.0543 132.45C56.7721 132.447 54.3721 131.31 54.3721 131.31L54.1074 130.719Z" fill="#F078A5"/>
<path d="M85.5408 114.263C84.2872 115.46 83.1037 116.504 82.1848 117.152C80.4259 118.395 78.5116 119.631 77.0021 120.583C76.8424 120.213 76.6499 119.769 76.4333 119.29C76.3808 119.167 76.3239 119.04 76.267 118.915C76.2495 118.878 76.232 118.839 76.2145 118.802C76.1029 118.552 75.9892 118.301 75.871 118.047C75.7135 117.703 75.5582 117.362 75.4072 117.031C76.8555 116.642 79.9818 115.445 80.9422 114.793C81.5001 114.414 83.1343 113.513 84.6045 112.416C84.7554 112.714 84.9108 113.018 85.0661 113.329C85.1623 113.524 85.263 113.721 85.3636 113.92C85.4249 114.031 85.4818 114.147 85.5408 114.263Z" fill="#F078A5"/>
<path d="M0.604112 99.7883C2.73497 103.143 13.9537 106.121 13.9537 106.121C13.9537 106.121 28.0252 105.136 29.7667 103.519C31.3747 102.031 31.32 58.418 19.7053 56.6849C18.712 56.5252 17.6357 56.6762 16.463 57.1948C3.13094 63.0767 -0.769794 90.0792 0.120616 97.9262C0.227816 98.8058 0.385338 99.447 0.604112 99.7883Z" fill="url(#paint13_linear_2796_19086)"/>
<path d="M0.604101 99.7882C2.73496 103.143 13.9537 106.121 13.9537 106.121C13.9537 106.121 28.0252 105.136 29.7667 103.519C31.3747 102.031 31.32 58.4179 19.7052 56.6848C22.3152 61.1794 26.0059 68.906 26.3669 77.1906C26.9335 90.1448 21.1579 102.86 17.7691 100.74C14.3694 98.6132 18.7908 71.5975 17.6641 73.7748C16.5352 75.9433 14.4569 100.418 12.7176 100.823C11.6544 101.071 5.5462 99.9436 0.120605 97.9304C0.227805 98.8057 0.385327 99.4469 0.604101 99.7882Z" fill="#ADADAD"/>
<path d="M16.4697 92.5586L16.1765 105.942L13.735 139.601L13.5556 142.069L13.3368 145.084L13.1618 147.502L13.1246 148.008L12.9409 150.533L12.9365 150.621L12.8796 151.387L12.7943 152.575L7.48246 225.773C6.34046 225.193 5.22033 224.609 4.12646 224.02L9.28953 152.842L9.49518 149.999L9.53019 149.544L9.73801 146.653L9.76865 146.227L9.81459 145.599L9.87148 144.82L9.96336 143.537L12.7046 105.764L14.8223 92.1866C15.017 92.1275 15.2227 92.1034 15.4371 92.1209C15.5618 92.1297 15.6821 92.1516 15.7959 92.1866C16.0496 92.2588 16.2794 92.3879 16.4697 92.5586Z" fill="#77555B"/>
<path d="M15.437 92.1209C15.5617 92.1297 15.682 92.1516 15.7958 92.1866H14.8223C15.017 92.1275 15.2226 92.1034 15.437 92.1209Z" fill="#77555B"/>
<path d="M9.91492 140.644C9.91492 140.644 3.05855 138.75 3.00823 139.001C2.95791 139.251 2.75883 140.086 3.30795 140.644C3.85926 141.205 8.41632 143.157 8.41632 143.157C8.41632 143.157 7.86501 144.058 7.91533 144.66C7.96564 145.262 7.96565 145.262 7.96565 145.262C7.96565 145.262 7.34433 146.113 7.20431 147.014C7.0643 147.916 7.76656 148.397 7.76656 148.397C7.76656 148.397 7.19556 149.57 7.20431 150.321C7.21525 151.071 8.46664 152.675 8.81668 152.774C9.16672 152.874 11.8576 153.074 12.4658 152.774C13.074 152.474 13.5509 151.872 13.2862 151.671C13.0215 151.47 12.0217 150.82 12.0217 150.82C12.0217 150.82 13.2731 150.769 13.575 150.069C13.8747 149.369 14.0257 149.369 13.8747 148.918C13.7238 148.467 12.4658 147.415 12.4658 147.415C12.4658 147.415 14.0738 147.765 14.3254 147.115C14.5748 146.463 14.6754 146.063 14.3254 145.662C13.9754 145.262 9.6677 143.408 9.6677 143.408L9.91492 140.644Z" fill="url(#paint14_linear_2796_19086)"/>
<path d="M12.4133 147.607L12.5227 147.222C11.4988 146.935 8.71599 146.003 8.13406 145.148L7.80371 145.373C8.58473 146.522 12.2558 147.563 12.4133 147.607Z" fill="#F078A5"/>
<path d="M11.9803 151.014L12.0656 150.623C9.65472 150.093 7.93078 148.275 7.91328 148.257L7.62012 148.531C7.6945 148.612 9.44469 150.459 11.9803 151.014Z" fill="#F078A5"/>
<path d="M123.19 48.8991C125.192 48.3914 126.891 46.9603 127.736 45.0763C128.58 43.19 128.517 40.969 127.563 39.1375C126.454 37.0039 124.389 35.6976 122.391 34.435C122.013 34.1943 121.634 33.9558 121.265 33.7129C119.265 32.3956 116.911 30.273 117.044 27.6449L116.174 27.6012C116.018 30.6406 118.596 32.9995 120.783 34.4415C121.157 34.6888 121.54 34.9295 121.923 35.1724C123.822 36.3737 125.787 37.6145 126.789 39.5401C127.607 41.1156 127.666 43.1003 126.937 44.7196C126.211 46.3411 124.693 47.6168 122.973 48.0544L123.19 48.8991Z" fill="#4C2359"/>
<path d="M86.4141 57.8928C86.6482 57.9147 86.8844 57.9212 87.1251 57.9103C89.2144 57.8162 91.2227 56.5164 92.3647 54.5142L91.6078 54.0831C90.6255 55.8008 88.8512 56.9606 87.0857 57.0394C85.1955 57.1247 83.3403 55.8731 82.8677 54.1925C82.6599 53.4507 82.6971 52.652 82.7518 52.0415C82.9093 50.3238 83.36 48.8161 84.0929 47.5622C84.4604 46.9298 84.9023 46.3543 85.3683 45.746C85.6593 45.3675 85.9503 44.9867 86.2216 44.595C88.219 41.7153 89.1684 38.061 88.8271 34.573L87.9608 34.6583C88.2824 37.945 87.3876 41.3871 85.5062 44.0983C85.2414 44.479 84.9592 44.8467 84.677 45.2143C84.2132 45.8182 83.7341 46.4419 83.3381 47.1224C82.5418 48.4857 82.0539 50.1137 81.8833 51.9605C81.8198 52.6476 81.7804 53.547 82.0276 54.4267C82.5549 56.3041 84.3729 57.7002 86.4141 57.8928Z" fill="#4C2359"/>
<path d="M147.288 68.6569C147.288 68.6569 127.824 72.0814 134.853 60.7027C139.85 52.6151 128.963 50.2212 122.247 49.5144C122.037 49.4903 121.831 49.4706 121.63 49.4509C121.322 49.4225 121.024 49.3984 120.737 49.3765C118.858 49.2255 117.554 49.2146 117.473 49.2168C117.469 49.2168 117.469 49.2168 117.469 49.2168C117.469 49.2168 117.469 49.2168 117.469 49.2212L117.465 49.2255C117.434 49.3393 116.867 51.1402 114.942 54.6829C114.831 54.893 114.712 55.1074 114.586 55.3285C114.586 55.3328 114.581 55.3328 114.581 55.335C113.815 56.7027 113.813 60.4926 114.73 64.845C114.905 65.6765 115.113 66.5277 115.358 67.3877C115.439 67.67 115.517 67.9501 115.607 68.2324C118.022 76.0859 123.319 84.226 132.289 82.924C147.725 80.6833 147.288 68.6569 147.288 68.6569ZM131.807 62.2717C131.497 62.136 131.873 54.0484 125.111 50.9236C125.111 50.9236 134.201 52.0067 134.846 55.7639C135.481 59.5254 132.12 62.4161 131.807 62.2717Z" fill="#4C2359"/>
<path d="M87.7965 46.8576C87.7965 46.8576 81.6315 31.5445 85.611 24.9142C89.5905 18.2839 97.0419 19.715 97.0419 19.715C97.0419 19.715 112.389 13.4239 120.823 24.5794C129.256 35.7328 123.207 47.4616 120.523 51.1662C117.841 54.8709 110.65 56.7265 110.65 56.7265L87.7965 46.8576Z" fill="#4C2359"/>
<path d="M118.342 47.792C118.283 48.3215 117.946 48.7986 117.473 49.2187C117.469 49.2253 117.469 49.2252 117.467 49.2252C116.747 49.8686 115.719 50.3806 114.879 50.7242C114.061 51.0502 113.428 51.2362 113.428 51.2362C113.428 51.2362 113.428 51.2428 113.422 51.2515C113.378 51.3391 113.159 51.7877 112.844 52.4222C112.816 52.4769 112.787 52.536 112.759 52.5995C112.516 53.0896 112.221 53.6805 111.91 54.2975C111.831 54.4441 111.755 54.5973 111.68 54.7505C111.575 54.9496 111.472 55.1575 111.367 55.3588C111.282 55.5251 111.195 55.6914 111.109 55.8577C111.092 55.8949 111.074 55.9278 111.055 55.965C110.919 56.2232 110.781 56.4792 110.656 56.7264H110.652C110.595 56.838 110.534 56.9475 110.477 57.0591C110.47 57.0766 110.455 57.1006 110.444 57.1225C110.394 57.2144 110.344 57.3041 110.3 57.3895C110.015 57.9103 109.762 58.3654 109.558 58.6871C108.849 59.8184 102.181 60.6893 97.0487 60.9322C96.0117 60.9847 95.0381 61.0044 94.1871 61.0022C94.1871 61.0022 94.1499 61 94.0799 60.9957C91.0433 60.7922 91.4765 58.6149 90.6627 56.5186C90.5598 56.256 90.4373 55.9934 90.2864 55.733C90.2798 55.7221 90.2711 55.7111 90.2667 55.6958C88.8512 53.2603 87.8536 47.2537 87.7923 46.8729V46.8554C87.7727 46.0677 87.7923 45.3696 87.8645 44.8072C88.3633 40.8159 90.0085 39.2295 89.0459 36.7196C88.9737 36.5402 88.9212 36.3498 88.8818 36.1485C88.7878 35.6758 88.779 35.155 88.8228 34.6233C88.8906 33.7852 89.0962 32.9143 89.3369 32.1331C91.3956 34.9012 97.9063 32.1178 97.9063 32.1178C98.0375 32.4023 98.1775 32.6867 98.3351 32.9821C98.3351 32.9821 104.041 44.0676 110.737 44.6978C111.214 44.7438 111.7 44.7372 112.179 44.6672C112.308 44.6628 112.435 44.6431 112.571 44.5928H112.582C112.582 44.5928 112.586 44.5928 112.588 44.5928C112.595 44.5928 112.599 44.5884 112.603 44.5862C112.614 44.5906 112.614 44.5797 112.621 44.5819C112.982 44.4637 113.358 44.2208 113.75 43.9254C113.754 43.9188 113.754 43.9145 113.756 43.9145C113.763 43.9101 113.767 43.9079 113.774 43.9035C113.883 43.8182 113.995 43.7285 114.109 43.6387C114.461 43.3521 114.822 43.0436 115.185 42.7678C115.428 42.5818 115.677 42.409 115.924 42.2645C116.093 42.1683 116.264 42.0807 116.432 42.0173C116.513 41.9823 116.59 41.956 116.671 41.9341H116.675C117.062 41.8203 117.456 41.816 117.843 41.9823C119.917 42.8444 118.574 45.6782 118.342 47.792Z" fill="url(#paint15_linear_2796_19086)"/>
<path d="M92.1347 43.1486C92.0471 44.0698 91.5746 44.7788 91.078 44.7328C90.5814 44.6869 90.2488 43.9013 90.3342 42.9801C90.4217 42.0588 90.8942 41.3498 91.3908 41.3958C91.8896 41.4417 92.2222 42.2273 92.1347 43.1486Z" fill="#152E51"/>
<path d="M89.8553 39.7677C89.7612 39.8137 90.6888 38.6846 91.262 38.6167C91.8352 38.5511 92.404 38.5227 92.5353 38.8968C92.6665 39.271 92.7868 39.7634 92.4565 39.7305C92.1261 39.6999 90.7304 39.3279 89.8553 39.7677Z" fill="#152E51"/>
<path d="M92.4302 42.0612C92.4018 42.3719 92.1677 42.6061 91.9073 42.582C91.6492 42.5579 91.4632 42.2844 91.4916 41.9737C91.5201 41.6629 91.7542 41.4288 92.0145 41.4529C92.2727 41.4769 92.4586 41.7505 92.4302 42.0612Z" fill="white"/>
<path d="M102.345 43.8664C102.336 44.7483 101.866 45.4573 101.293 45.4507C100.722 45.4441 100.264 44.7264 100.273 43.8446C100.282 42.9627 100.752 42.2537 101.325 42.2603C101.896 42.2669 102.354 42.9846 102.345 43.8664Z" fill="#152E51"/>
<path d="M100.662 39.6648C100.662 39.6648 100.45 40.341 100.579 40.5445C100.708 40.748 101.483 40.5532 102.257 41.0828C103.032 41.6123 103.716 42.0215 103.716 42.0215C103.716 42.0215 103.404 40.923 102.929 40.2688C102.456 39.6145 100.785 39.0543 100.662 39.6648Z" fill="#152E51"/>
<path d="M102.585 42.9998C102.557 43.2974 102.295 43.5141 101.997 43.4856C101.699 43.4572 101.483 43.1946 101.511 42.897C101.54 42.5994 101.802 42.3828 102.1 42.4112C102.395 42.4396 102.614 42.7022 102.585 42.9998Z" fill="white"/>
<path d="M116.679 41.9298C115.682 42.2143 114.693 43.2033 113.765 43.9101C114.516 43.4506 115.557 42.7766 116.679 41.9298Z" fill="url(#paint16_linear_2796_19086)"/>
<path d="M112.577 44.5929C112.588 44.5929 112.595 44.5907 112.608 44.5885C112.608 44.5885 112.612 44.5885 112.615 44.5863C112.599 44.5863 112.588 44.5929 112.577 44.5929Z" fill="url(#paint17_linear_2796_19086)"/>
<path opacity="0.62" d="M95.2895 44.5404C95.7949 45.1881 96.204 45.9299 95.7992 46.7374C95.3836 47.5711 93.2549 48.6105 94.8213 49.5383C95.2764 49.8074 94.7951 50.4748 94.34 50.2079C93.5984 49.7702 93.2286 48.8928 93.583 48.0722C94.1015 46.8709 95.8474 46.6017 94.6529 45.0656C94.3291 44.6476 94.9635 44.1225 95.2895 44.5404Z" fill="#C14276"/>
<path d="M114.586 55.3368C114.699 55.4353 114.828 55.5513 114.975 55.6629C115.732 55.7154 116.703 55.4397 117.95 54.4725C120.558 52.4243 122.157 49.9472 122.593 48.7634C122.698 48.4833 122.704 48.2229 122.663 48.0085C122.558 47.9188 122.483 47.8772 122.483 47.8772C121.827 47.1332 119.633 51.3915 118.169 52.7854C116.716 54.1793 113.916 54.7219 114.586 55.3368Z" fill="url(#paint18_linear_2796_19086)"/>
<path d="M114.586 55.3368C114.699 55.4353 114.828 55.5513 114.975 55.6629C115.732 55.7154 116.703 55.4397 117.95 54.4725C120.558 52.4243 122.157 49.9472 122.593 48.7634C122.698 48.4833 122.704 48.2229 122.663 48.0085C122.558 47.9188 122.483 47.8772 122.483 47.8772C121.827 47.1332 119.633 51.3915 118.169 52.7854C116.716 54.1793 113.916 54.7219 114.586 55.3368Z" fill="url(#paint19_linear_2796_19086)"/>
<path d="M113.22 69.9475C113.22 69.9475 112.389 72.7615 110.827 73.8491C106.992 76.5231 96.2742 93.0266 92.1984 92.0681C86.4622 90.7202 89.6213 70.9103 89.6213 70.9103C89.6213 70.9103 93.6861 69.7221 94.7515 68.4573C95.9067 67.0853 97.2412 65.3851 97.7641 64.2713C98.0769 63.6104 98.2235 62.5229 98.2738 61.3259C102.579 60.8139 108.202 59.6016 108.856 58.4528C108.902 58.3697 108.952 58.2799 109.005 58.1837C109.204 57.8117 109.447 57.339 109.707 56.8073C109.764 56.6979 109.818 56.5863 109.875 56.4703C109.902 56.4134 109.93 56.3587 109.959 56.2996C110.053 56.1049 110.151 55.9035 110.247 55.7022C110.932 54.2843 111.647 52.7416 112.081 51.805C112.111 51.7372 112.142 51.6715 112.168 51.6125C112.337 51.2514 112.446 51.0085 112.477 50.9451C112.483 50.9363 112.483 50.9297 112.483 50.9297C112.483 50.9297 113.021 50.7131 113.724 50.3499C113.575 50.7984 112.851 52.9954 112.07 55.5053C110.995 58.9605 109.808 63.0174 109.845 63.9693C109.853 64.1378 109.891 64.3325 109.954 64.5426C110.16 65.2385 110.635 66.1203 111.16 66.9737C111.645 67.7659 112.175 68.5252 112.575 69.0831C112.956 69.6083 113.22 69.9475 113.22 69.9475Z" fill="url(#paint20_linear_2796_19086)"/>
<path opacity="0.43" d="M97.1227 68.6894C96.6676 70.2474 105.906 63.5668 108.228 60.6565C110.47 57.8381 112.365 51.3544 112.478 50.9452C112.325 51.2822 109.844 56.7046 108.856 58.4508C108.201 59.6018 102.581 60.8118 98.2734 61.3239C99.0085 62.499 97.5712 67.1226 97.1227 68.6894Z" fill="#C14276"/>
<path opacity="0.43" d="M93.8674 55.0416C95.6526 55.011 97.7506 54.8118 98.9954 53.3764C99.4855 52.814 98.6957 51.9453 98.1991 52.5164C97.1621 53.709 95.4097 53.8447 93.9264 53.8709C93.176 53.884 93.1126 55.0547 93.8674 55.0416Z" fill="#C14276"/>
<path d="M120.849 217.759C121.083 219.974 121.982 228.018 123.426 237.93L117.821 237.07L103.64 234.895C103.434 231.51 103.666 227.576 101.85 224.311C99.6735 220.4 96.1709 187.831 96.1709 187.831C96.1709 187.831 90.3384 221.545 89.2664 223.783C88.8114 224.733 89.0433 228.155 89.4961 232.727L82.0338 231.58L70.3775 229.792C69.509 224.512 68.7389 220.917 68.9795 218.07C69.4827 212.096 68.6689 207.816 68.4763 201.529C68.3363 196.903 71.7558 166.314 73.5716 150.478C74.2214 144.793 74.6698 141.003 74.6698 141.003C74.6698 141.003 114.191 126.622 122.643 148.452C131.096 170.286 120.529 214.729 120.849 217.759Z" fill="url(#paint21_linear_2796_19086)"/>
<path opacity="0.66" d="M120.849 217.759C121.083 219.974 121.982 228.018 123.426 237.93L117.821 237.07C116.561 228.921 115.139 222.422 114.202 219.766C110.741 209.932 121.686 192.737 120.658 181.509C119.63 170.282 120.89 155.347 98.1705 154.338C86.5295 153.82 78.5683 152.067 73.5693 150.48C74.2191 144.795 74.6676 141.005 74.6676 141.005C74.6676 141.005 114.189 126.624 122.64 148.454C131.096 170.286 120.529 214.729 120.849 217.759Z" fill="#0D1942"/>
<path d="M88.5582 68.6194C88.5582 68.6194 80.3848 74.0221 79.3544 74.9674C78.3239 75.9127 68.5885 104.823 70.0762 111.051C71.5638 117.279 83.708 111.567 85.9985 105.828C88.2913 100.09 88.5582 68.6194 88.5582 68.6194Z" fill="url(#paint22_linear_2796_19086)"/>
<path d="M127.101 91.1622C126.307 95.6524 125.443 100.033 124.763 102.823C124.66 103.248 124.553 103.694 124.443 104.16C122.643 111.904 120.33 124.646 120.33 126.804C120.33 127.012 120.368 127.346 120.431 127.78C120.923 131.077 123.096 140.204 123.892 145.053C124.133 146.524 124.246 147.603 124.15 148.005C123.693 149.909 113.31 154.043 111.857 154.487C111.126 154.708 106.692 154.931 101.931 154.986C99.2755 155.016 96.5211 154.992 94.2503 154.89C92.4695 154.809 90.9883 154.679 90.0848 154.487C85.9609 153.601 72.6704 149.793 72.6704 148.005C72.6704 146.563 77.234 130.077 79.1658 122.108C79.6318 120.189 79.9425 118.764 80.0015 118.165C80.2772 115.377 76.604 101.068 75.8558 95.9303C75.7704 95.3504 75.7245 94.8865 75.7245 94.5714C75.7245 91.4401 88.5556 68.6214 88.5556 68.6214L95.3901 65.7133C95.3901 65.7133 91.8394 72.9125 97.9104 73.6871C103.981 74.4618 110.971 64.8292 112.461 65.7133C113.951 66.5995 116.815 69.1466 120.939 70.6958C125.062 72.2473 128.843 73.0788 129.302 74.6565C129.595 75.6456 128.449 83.556 127.101 91.1622Z" fill="url(#paint23_linear_2796_19086)"/>
<g opacity="0.56">
<path d="M127.102 91.1623C126.307 95.6525 125.443 100.033 124.763 102.823C124.66 103.248 124.553 103.694 124.443 104.16C122.623 101.957 120.711 99.7423 120.197 99.5169C119.147 99.0595 112.234 127.935 113.306 128.134C113.804 128.228 117.084 128.023 120.431 127.78C120.923 131.077 123.096 140.205 123.892 145.054C118.252 144.806 108.902 144.38 108.265 144.246C107.567 144.104 103.723 151.467 101.932 154.986C99.2757 155.017 96.5213 154.992 94.2505 154.89C96.5739 148.137 109.818 109.666 110.096 108.725C110.4 107.699 96.8057 119.683 87.335 121.572C84.1015 122.217 81.3669 122.292 79.166 122.106C79.632 120.187 79.9427 118.762 80.0017 118.163C80.2774 115.375 76.6042 101.066 75.856 95.9282C76.8076 96.088 77.9255 96.228 79.2382 96.333C86.0399 96.8779 102.457 92.6415 104.9 91.6984C107.346 90.7575 121.72 86.0988 121.72 86.0988L127.102 91.1623Z" fill="#EA4276"/>
</g>
<path d="M155.77 123.456C154.667 126.751 120.641 142.187 119.088 142.443C118.466 142.544 117.615 141.135 116.832 139.331C116.821 139.31 116.813 139.288 116.802 139.266C115.861 137.091 115.021 134.364 114.809 133.023C114.756 132.686 114.743 132.439 114.774 132.305C115.049 131.207 125.682 125.517 128.524 124.045C131.365 122.574 138.915 116.885 139.071 116.22C139.228 115.552 120.796 97.3856 120.116 90.0157C119.633 84.7618 124.085 79.1928 126.684 76.4269C127.732 75.3109 128.478 74.6522 128.478 74.6522C143.51 81.8383 156.872 120.156 155.77 123.456Z" fill="url(#paint24_linear_2796_19086)"/>
<g opacity="0.56">
<path d="M143.323 116.219C142.223 117.182 118.121 133.117 117.491 134.08C117.114 134.653 116.906 137.255 116.801 139.264C115.624 136.541 114.609 132.961 114.773 132.305C115.049 131.206 125.684 125.515 128.525 124.044C131.365 122.574 138.915 116.885 139.07 116.219C139.228 115.554 120.798 97.3855 120.118 90.0156C119.634 84.7617 124.084 79.1949 126.683 76.429C124.546 80.2715 122.899 84.5122 123.634 87.6501C125.366 95.0397 137.81 113.41 139.7 114.254C141.593 115.097 144.428 115.254 143.323 116.219Z" fill="#EA4276"/>
</g>
<path d="M96.8843 166.669C96.7114 166.669 96.5342 166.645 96.3614 166.592C95.39 166.303 94.8387 165.281 95.1275 164.312L130.873 44.142C131.162 43.1704 132.183 42.619 133.153 42.9078C134.124 43.1967 134.675 44.2164 134.387 45.1879L98.641 165.356C98.4047 166.152 97.6741 166.669 96.8843 166.669Z" fill="#77555B"/>
<path d="M123.527 89.0967C123.691 89.4272 123.8 89.9129 123.437 90.4228C123.174 90.7948 123.017 91.018 122.923 91.1493C122.787 91.3418 122.787 91.3418 122.787 91.3418C122.787 91.3418 122.892 91.4819 122.962 91.6985C123.056 91.9917 123.089 92.4316 122.715 92.8692C122.45 93.1799 122.29 93.3659 122.199 93.4753C122.063 93.6329 122.063 93.6329 122.063 93.6329C122.063 93.6329 122.126 93.7795 122.17 93.9918C122.247 94.3375 122.273 94.8605 121.919 95.2369C121.341 95.8496 120.908 95.8496 120.258 95.8496C119.608 95.8496 119.245 96.204 117.151 96.3332C115.056 96.4623 114.622 96.0793 113.826 96.6898C113.032 97.3003 109.418 98.6264 109.418 98.6264L108.263 93.6329C108.263 93.6329 112.743 89.5847 113.826 88.6678C114.909 87.751 118.668 85.8144 119.101 85.9041C119.534 85.9939 123.509 86.6044 123.728 87.4446C123.868 87.9939 123.61 88.3484 123.415 88.5256C123.31 88.6219 123.222 88.6678 123.222 88.6678C123.222 88.6678 123.393 88.8341 123.527 89.0967Z" fill="url(#paint25_linear_2796_19086)"/>
<path d="M87.3766 116.233C81.8766 119.213 76.1491 119.097 74.7752 119.075C73.4013 119.053 70.0781 113.025 70.0781 111.049C70.0781 109.983 71.7518 107.425 73.2875 105.303C73.9264 104.421 74.6768 103.629 75.5147 102.952C76.6829 102.005 78.0262 101.274 79.4745 100.806C87.5779 98.1712 106.399 92.1295 107.655 92.3965C108.602 92.5978 109.626 94.5125 110.4 96.3309C110.943 97.5979 111.363 98.8211 111.551 99.3857C112.008 100.764 92.8766 113.255 87.3766 116.233Z" fill="url(#paint26_linear_2796_19086)"/>
<g opacity="0.56">
<path d="M87.3766 116.232C81.8766 119.213 76.1491 119.097 74.7752 119.075C73.4013 119.053 70.0781 113.025 70.0781 111.049C70.0781 109.983 71.7518 107.425 73.2875 105.302C73.9264 104.421 74.6768 103.628 75.5147 102.952C73.6595 105.733 72.0537 109.051 72.6706 111.587C73.9701 116.931 85.9611 112.353 88.558 110.517C91.1548 108.681 108.913 100.315 109.484 99.6283C109.797 99.2498 110.149 97.6764 110.398 96.3307C110.941 97.5977 111.361 98.8209 111.549 99.3854C112.008 100.764 92.8766 113.254 87.3766 116.232Z" fill="#EA4276"/>
</g>
<g opacity="0.43">
<path d="M123.527 89.0967C122.448 88.7925 121.378 88.3286 120.239 88.5693C119.913 88.6372 119.777 88.1404 120.101 88.0726C121.265 87.8275 122.321 88.2083 123.413 88.5277C123.308 88.624 123.22 88.67 123.22 88.67C123.22 88.67 123.393 88.8341 123.527 89.0967Z" fill="#C14276"/>
<path d="M122.964 91.6984C121.912 91.3679 120.836 91.2235 119.722 91.2695C119.39 91.2804 119.392 90.7662 119.722 90.753C120.818 90.7093 121.884 90.8384 122.925 91.1469C122.789 91.3395 122.789 91.3395 122.789 91.3395C122.789 91.3395 122.894 91.4817 122.964 91.6984Z" fill="#C14276"/>
<path d="M122.065 93.6327C122.065 93.6327 122.129 93.7793 122.172 93.9916C121.604 93.9259 121.024 93.9785 120.444 94.0375C120.112 94.0726 120.116 93.5561 120.444 93.5211C121.03 93.462 121.621 93.4139 122.199 93.473C122.065 93.6327 122.065 93.6327 122.065 93.6327Z" fill="#C14276"/>
</g>
<path d="M100.415 165.999C100.31 166.133 100.361 166.404 100.516 166.809C100.614 167.067 100.757 167.38 100.932 167.741C100.982 167.844 101.032 167.951 101.087 168.065C101.49 168.896 102.017 169.955 102.548 171.22C102.597 171.334 102.645 171.452 102.693 171.568C102.85 171.955 103.01 172.36 103.163 172.785C103.216 172.925 103.266 173.069 103.316 173.214C103.36 173.336 103.402 173.457 103.443 173.581C103.459 173.625 103.474 173.671 103.489 173.717C103.531 173.846 103.574 173.975 103.616 174.106C103.712 174.411 103.806 174.726 103.894 175.043C103.938 175.194 103.979 175.345 104.021 175.5C104.023 175.509 104.025 175.518 104.027 175.529C104.067 175.684 104.108 175.844 104.145 176.001C104.187 176.176 104.229 176.352 104.268 176.531C104.303 176.686 104.336 176.844 104.369 177.004C104.408 177.192 104.445 177.384 104.478 177.577C104.506 177.728 104.531 177.877 104.557 178.03C104.609 178.358 104.657 178.693 104.701 179.032C104.714 179.155 104.73 179.277 104.743 179.402C104.762 179.581 104.78 179.761 104.795 179.942C104.808 180.085 104.822 180.227 104.83 180.371C104.843 180.564 104.857 180.759 104.865 180.956C104.876 181.179 104.885 181.398 104.887 181.623C104.892 181.802 104.894 181.98 104.894 182.161C104.894 182.391 104.892 182.623 104.885 182.855C104.625 192.538 94.9045 212.98 94.9045 212.98H91.6207C91.6207 212.98 95.2983 202.461 95.4295 201.505C95.4667 201.24 94.9767 202.006 94.2482 203.251C94.246 203.256 94.2438 203.262 94.2416 203.267C92.7474 205.831 90.2643 210.394 89.2842 212.208C89.0217 212.693 88.8641 212.98 88.8641 212.98H87.1577C87.1577 212.98 90.8353 204.133 91.0978 203.267C91.2247 202.851 89.4439 205.098 87.5602 207.531C85.5453 210.146 83.4145 212.98 83.4145 212.98H79.4087C79.4087 212.98 80.0804 210.995 80.9226 208.44C80.9314 208.42 80.9358 208.396 80.9423 208.376C82.3665 204.065 84.2655 198.168 84.2655 197.391C84.2655 196.151 76.254 212.98 76.254 212.98H74.6766L80.5879 199.111L72.9702 212.98H66.2735L71.0012 200.19L65.4137 208.971L63.5498 208.383L63.552 208.376L73.76 175.323C76.9038 169.811 82.1478 167.393 86.182 166.03C86.3745 165.964 86.5648 165.901 86.753 165.842C86.9127 165.789 87.0746 165.739 87.2299 165.688C87.6171 165.566 87.989 165.452 88.3413 165.347C88.4244 165.321 88.5053 165.297 88.5863 165.273C88.9123 165.174 89.2185 165.08 89.5073 164.993C89.6386 164.953 89.7611 164.914 89.8836 164.877C89.8902 164.872 89.8946 164.87 89.9011 164.87C89.9711 164.848 90.0411 164.826 90.1068 164.804C90.3452 164.723 90.564 164.649 90.7565 164.572C90.7872 164.559 90.8156 164.546 90.844 164.535C91.0278 164.461 91.1853 164.389 91.321 164.312C91.3538 164.297 91.3844 164.277 91.415 164.259C91.5682 164.165 91.6841 164.067 91.7519 163.966C91.811 163.881 91.8592 163.772 91.8985 163.64C92.032 163.203 92.0714 162.529 92.0582 161.712C92.0167 158.338 91.1087 152.566 92.4083 151.294C94.1147 149.62 102.389 153.445 102.389 153.445V156.553L105.408 154.879C105.408 154.879 108.429 156.553 108.429 157.747C108.429 158.942 102.387 163.962 102.387 163.962C102.387 163.962 101.96 164.351 101.47 164.842C101.422 164.888 101.376 164.936 101.33 164.984C101.234 165.08 101.14 165.176 101.048 165.275C101.03 165.29 101.013 165.31 100.997 165.327C100.945 165.382 100.892 165.439 100.842 165.498C100.682 165.673 100.538 165.842 100.415 165.999Z" fill="url(#paint27_linear_2796_19086)"/>
<path d="M116.832 139.332C115.633 140.209 114.052 141.358 112.466 142.448C109.258 144.66 105.113 143.605 104.292 143.491C103.474 143.375 101.011 143.636 101.011 143.636C101.011 143.636 100.932 142.833 101.011 142.448C101.067 142.17 101.588 141.542 101.873 141.216C101.982 141.089 102.059 141.01 102.059 141.01C102.059 141.01 102.059 141.01 101.724 140.515C101.656 140.417 101.577 140.301 101.481 140.161C101.168 139.701 101.439 139.132 101.752 138.708C101.986 138.391 102.242 138.159 102.297 138.108C102.297 138.108 102.297 138.108 102.299 138.108C102.306 138.102 102.308 138.1 102.308 138.1C102.308 138.1 102.308 138.1 102.229 137.34C102.153 136.579 102.995 136.222 102.995 136.222C102.995 136.222 102.986 136.137 102.975 136.01C102.966 135.918 102.958 135.806 102.947 135.684C102.918 135.283 102.907 134.782 102.995 134.636C103.146 134.38 104.518 132.743 104.563 132.585C104.612 132.426 110.173 133.286 111.56 133.388C112.35 133.445 113.75 133.226 114.809 133.027C115.021 134.369 115.861 137.095 116.802 139.27C116.813 139.288 116.821 139.307 116.832 139.332Z" fill="url(#paint28_linear_2796_19086)"/>
<g opacity="0.43">
<path d="M103.585 140.712C105.648 141.17 105.648 141.17 105.648 141.17C105.648 141.17 103.861 141.027 101.872 141.213C101.982 141.087 102.058 141.008 102.058 141.008C102.058 141.008 102.058 141.008 101.724 140.513C102.362 140.526 103.01 140.585 103.585 140.712Z" fill="#C14276"/>
<path d="M103.299 138.2C105.303 138.478 106.163 138.649 106.163 138.649C106.163 138.649 103.642 138.647 101.75 138.704C101.984 138.386 102.24 138.154 102.295 138.104C102.295 138.104 102.295 138.104 102.297 138.104C102.627 138.126 102.964 138.154 103.299 138.2Z" fill="#C14276"/>
<path d="M102.975 136.005C102.966 135.913 102.958 135.802 102.947 135.679C103.664 135.671 104.454 135.692 105.132 135.798C106.909 136.071 107.882 136.358 107.882 136.358C107.882 136.358 104.896 136.084 102.975 136.005Z" fill="#C14276"/>
</g>
<path d="M166.01 1.27933C166.01 1.27933 153.778 -1.24806 149.28 9.70395C144.78 20.656 143.553 27.9624 146.01 34.2076C148.469 40.4527 147.327 43.8642 142.98 45.8445C138.635 47.8248 135.152 50.7745 138.224 56.8818C141.297 62.9891 143.345 63.5406 135.561 67.8973C127.777 72.2562 138.869 92.6679 153.645 91.0158C168.421 89.3637 194.711 89.8319 200.213 84.8866C205.715 79.939 206.442 70.1512 201.117 65.5165C195.792 60.8819 204.285 57.9431 204.748 49.0918C205.212 40.2427 195.529 36.7415 194.84 31.8574C194.151 26.9733 192.803 15.599 189.073 8.01684C185.343 0.436872 171.261 -1.6682 166.01 1.27933Z" fill="#27215E"/>
<path d="M156.034 41.0349C156.034 41.0349 144.428 33.5687 147.606 18.8661C150.785 4.16351 163.507 -0.937211 175.069 2.21382C186.634 5.36484 191.79 13.9229 190.86 24.9472C189.93 35.9692 185.389 39.9627 185.389 39.9627L156.034 41.0349Z" fill="#27215E"/>
<path d="M188.443 61.2736C188.443 61.2736 179.58 77.6918 172.805 78.2651C166.032 78.8362 149.729 63.5756 152.325 61.2736C152.77 60.8776 160.315 57.4486 160.529 56.8075C161.551 53.7112 160.241 48.5032 160.241 48.5032C160.241 48.5032 182.768 41.7154 180.466 47.9299C179.438 50.7111 179.698 53.9956 180.309 56.7769C181.053 60.2036 188.443 61.2736 188.443 61.2736Z" fill="url(#paint29_linear_2796_19086)"/>
<g opacity="0.25">
<path d="M180.464 47.9278C179.436 50.709 179.696 53.9935 180.307 56.7748C176.791 59.9389 173.225 63.9018 170.436 63.9083C166.786 63.9193 163.236 59.7092 160.529 56.8076C161.551 53.7113 160.241 48.5033 160.241 48.5033C160.241 48.5033 182.766 41.7133 180.464 47.9278Z" fill="#D60055"/>
</g>
<path d="M155.189 35.7307C155.189 35.7307 151.709 34.2602 150.958 36.7416C150.208 39.2231 152.256 42.8095 152.529 44.326C152.803 45.8424 157.034 47.6367 157.513 47.361C157.987 47.0853 155.189 35.7307 155.189 35.7307Z" fill="url(#paint30_linear_2796_19086)"/>
<path d="M185.29 36.0765C185.29 36.0765 188.408 34.7657 189.161 37.2493C189.911 39.7308 187.863 43.3173 187.59 44.8337C187.316 46.3501 183.085 48.1445 182.606 47.8687C182.129 47.5908 185.29 36.0765 185.29 36.0765Z" fill="url(#paint31_linear_2796_19086)"/>
<path d="M185.923 34.9537C185.905 35.3542 185.879 35.7371 185.833 36.096C185.573 38.2689 185.245 40.0588 184.895 41.6497C184.442 43.7066 183.949 45.4309 183.51 47.2099C182.829 49.9736 178.681 54.28 175.894 56.21C175.87 56.221 175.853 56.2319 175.829 56.2494C175.454 56.5055 175.1 56.7155 174.792 56.8731C172.665 57.9519 171.867 58.1138 170.65 58.0985H170.534C170.49 58.0985 170.445 58.0985 170.401 58.1028C169.195 58.1094 168.397 57.9497 166.27 56.8731C163.647 55.5448 158.331 50.3675 157.559 47.2099C157.077 45.2558 156.528 43.374 156.036 41.037C155.734 39.5993 155.456 37.9953 155.229 36.096C155.102 35.0062 155.095 33.6889 155.176 32.2994C155.22 31.5117 155.231 30.6736 155.316 29.864L155.327 29.8158C155.347 29.6364 155.364 29.4613 155.389 29.2841C155.393 29.2622 155.382 29.2775 155.382 29.2556C155.859 25.1856 156.749 21.4043 156.749 21.4043C157.368 13.9841 162.943 11.1394 167.019 10.0497C168.281 10.1482 169.482 10.4501 170.534 11.0278C172.328 12.0081 174.544 11.6777 176.607 10.9359C180.147 12.4567 183.82 15.4655 184.317 21.4043C184.315 21.4021 186.144 29.7611 185.923 34.9537Z" fill="url(#paint32_linear_2796_19086)"/>
<path d="M187.016 15.8025C186.017 11.9512 185.389 10.7805 185.238 10.0475C186.109 11.7674 186.64 13.7149 187.016 15.8025Z" fill="#27215E"/>
<path d="M159.722 30.1748C159.722 30.1748 162.229 29.3455 162.894 29.2689C163.562 29.1923 163.846 29.921 163.879 30.1748C163.912 30.4287 159.722 30.1748 159.722 30.1748Z" fill="#27215E"/>
<path d="M181.145 30.1748C181.145 30.1748 178.638 29.3455 177.972 29.2689C177.305 29.1923 177.021 29.921 176.988 30.1748C176.957 30.4287 181.145 30.1748 181.145 30.1748Z" fill="#27215E"/>
<g opacity="0.33">
<path d="M170.252 38.1025C171.09 40.4483 168.907 40.6167 167.977 42.1835C167.325 43.2798 168.581 43.6365 169.438 44.0435C169.935 44.2776 170.368 43.5402 169.871 43.3039C169.712 43.2273 168.933 42.9406 168.847 42.7809C168.651 42.4133 169.222 42.1004 169.528 41.8575C169.926 41.5445 170.326 41.2623 170.648 40.864C171.385 39.9493 171.471 38.9668 171.081 37.8749C170.893 37.3585 170.066 37.5817 170.252 38.1025Z" fill="#D60055"/>
</g>
<path opacity="0.33" d="M169.654 53.1989C169.834 53.1989 170.013 53.1989 170.195 53.1989C170.495 53.1989 170.779 52.9363 170.766 52.6278C170.753 52.3192 170.514 52.0566 170.195 52.0566C170.015 52.0566 169.836 52.0566 169.654 52.0566C169.355 52.0566 169.07 52.3192 169.083 52.6278C169.097 52.9385 169.333 53.1989 169.654 53.1989Z" fill="#D60055"/>
<path d="M190.237 28.1461C190.237 28.1461 190.237 28.1461 177.975 25.7238C165.712 23.3014 165.124 15.96 165.124 15.96C165.124 15.96 165.124 15.9599 162.897 20.437C160.67 24.9141 153.842 31.1571 153.842 31.1571C153.842 31.1571 151.947 14.9665 156.194 10.0474C160.247 5.35587 171.042 4.58562 179.447 5.65128C179.845 5.70161 180.243 5.75632 180.631 5.8154C185.807 6.60097 188.239 14.6295 189.349 20.8375C190.066 24.8725 190.237 28.1461 190.237 28.1461Z" fill="#27215E"/>
<path d="M189.346 20.8352C188.347 17.6229 187.049 13.7673 184.389 10.0474C182.947 8.03201 181.225 6.625 179.447 5.65125C179.845 5.70157 180.243 5.75628 180.63 5.81536C185.804 6.59874 188.237 14.6273 189.346 20.8352Z" fill="#27215E"/>
<path d="M175.505 47.5929C175.205 48.3785 174.735 49.0787 174.135 49.6498C173.122 50.6148 171.751 51.21 170.243 51.21C168.613 51.21 167.15 50.5208 166.126 49.4157C166.126 49.4157 166.126 49.4157 166.124 49.4157C165.634 48.8905 165.244 48.2735 164.982 47.5929C164.785 47.0787 164.966 46.5426 165.349 46.2362C165.548 46.0765 165.802 45.978 166.086 45.978H174.398C174.654 45.978 174.883 46.0546 175.069 46.1837C175.498 46.4813 175.71 47.0524 175.505 47.5929Z" fill="#9B315C"/>
<path d="M175.069 46.1837C175.002 46.5032 174.84 46.7877 174.617 47.0109C174.313 47.315 173.89 47.5032 173.426 47.5032H166.977C166.189 47.5032 165.531 46.9649 165.347 46.234C165.546 46.0743 165.8 45.9758 166.084 45.9758H174.396C174.654 45.978 174.884 46.0546 175.069 46.1837Z" fill="white"/>
<path opacity="0.46" d="M174.135 49.6498C173.122 50.6148 171.751 51.21 170.243 51.21C168.613 51.21 167.15 50.5207 166.126 49.4157C167.218 49.175 168.421 49.0415 169.681 49.0415C171.298 49.0415 172.818 49.2625 174.135 49.6498Z" fill="url(#paint33_linear_2796_19086)"/>
<g opacity="0.25">
<path d="M154.754 37.1791C154.754 37.1791 152.763 37.1113 152.553 38.0019C152.343 38.8925 153.498 43.2055 154.178 44.0895C154.859 44.9735 155.277 44.8685 155.382 44.4484C155.487 44.0282 154.701 43.3477 154.859 43.0326C155.016 42.7175 155.279 42.875 155.644 43.3477C156.012 43.8203 156.487 43.0326 156.487 43.0326C156.487 43.0326 155.279 36.6714 154.754 37.1791Z" fill="#D60055"/>
</g>
<g opacity="0.25">
<path d="M186.085 37.1791C186.085 37.1791 188.076 37.1113 188.286 38.0019C188.496 38.8925 187.341 43.2055 186.66 44.0895C185.98 44.9735 185.562 44.8685 185.457 44.4484C185.352 44.0282 186.137 43.3477 185.98 43.0326C185.822 42.7175 185.56 42.875 185.194 43.3477C184.827 43.8203 184.352 43.0326 184.352 43.0326C184.352 43.0326 185.56 36.6714 186.085 37.1791Z" fill="#D60055"/>
</g>
<path d="M161.328 35.9603C161.287 35.33 162.057 34.7655 162.564 34.562C163.229 34.295 163.929 34.3869 164.551 34.7239C165.047 34.9931 165.489 34.2359 164.993 33.9668C164.083 33.4723 163.03 33.3738 162.076 33.818C161.304 34.1791 160.392 35.039 160.451 35.9603C160.488 36.5204 161.365 36.5248 161.328 35.9603Z" fill="#27215E"/>
<path d="M180.417 35.9604C180.476 35.0369 179.563 34.177 178.791 33.8181C177.837 33.3739 176.785 33.4724 175.875 33.9669C175.378 34.2361 175.82 34.9932 176.317 34.724C176.938 34.3871 177.638 34.2952 178.303 34.5621C178.811 34.7656 179.581 35.3302 179.539 35.9604C179.504 36.5227 180.379 36.5206 180.417 35.9604Z" fill="#27215E"/>
<path d="M188.747 12.3561C187.916 19.2993 190.344 26.5138 195.301 31.4701C198.159 34.3257 201.657 36.4242 204.017 39.7722C206.185 42.8488 207.581 46.8051 206.667 50.5732C205.737 54.4135 202.514 57.8315 198.417 57.9825C198.008 57.9978 198.006 58.6368 198.417 58.6215C201.615 58.5033 204.354 56.5624 205.986 53.8709C207.813 50.8599 207.975 47.2406 206.87 43.9386C205.621 40.2011 203.053 37.2273 200.073 34.7393C198.399 33.341 196.656 32.0172 195.172 30.4132C193.823 28.9537 192.683 27.306 191.77 25.5423C189.675 21.4962 188.848 16.8791 189.388 12.3583C189.434 11.9491 188.795 11.9534 188.747 12.3561Z" fill="#27215E"/>
<path d="M185.986 5.77626C185.689 8.52247 187.421 10.8617 189.386 12.586C191.707 14.6232 194.262 16.26 195.551 19.1966C198.283 25.4264 195.238 32.1114 191.307 37.0327C191.053 37.35 191.501 37.8073 191.76 37.4857C195.507 32.7941 198.395 26.8203 196.756 20.7064C195.973 17.7852 194.177 15.6758 191.871 13.8026C189.373 11.7764 186.238 9.39776 186.629 5.77845C186.671 5.36707 186.03 5.36925 185.986 5.77626Z" fill="#27215E"/>
<path d="M151.98 14.9208C151.385 21.1703 147.865 26.7677 142.59 30.1332C140.31 31.5884 137.753 32.9035 136.326 35.3127C134.963 37.6147 134.81 40.5141 135.576 43.0415C136.521 46.1575 138.761 48.6499 141.321 50.5646C141.651 50.8118 141.969 50.256 141.643 50.0131C139.177 48.1707 137.005 45.7286 136.143 42.7133C135.292 39.7417 135.825 36.4134 138.022 34.1552C139.982 32.1398 142.673 31.0435 144.859 29.3148C146.937 27.6715 148.678 25.6102 149.987 23.3082C151.45 20.7283 152.336 17.877 152.616 14.9251C152.658 14.5116 152.019 14.5138 151.98 14.9208Z" fill="#27215E"/>
<path d="M209.006 171.345C208.898 172.623 202.718 173.262 201.123 173.262C199.524 173.262 198.885 167.295 198.336 166.444C197.787 165.59 197.395 172.409 196.756 173.262C196.115 174.116 191.215 175.181 184.079 176.247C176.942 177.31 170.204 177.098 170.204 177.098L169.996 176.512V177.098C169.996 177.098 163.258 177.31 156.119 176.247C148.983 175.181 144.082 174.116 143.443 173.262C142.802 172.409 142.411 165.59 141.862 166.444C141.313 167.295 140.674 173.262 139.077 173.262C138.044 173.262 135.108 172.995 133.124 172.466C132.032 172.17 131.232 171.8 131.192 171.345C131.137 170.687 131.794 165.603 133.021 159.378C134.176 153.531 135.839 146.671 137.904 141.509C138.296 140.529 138.67 139.526 139.029 138.513C142.553 128.493 144.375 117.253 144.642 114.091C144.686 113.574 144.441 112.303 143.993 110.509C142.864 106.012 140.448 98.2348 138.088 90.9131C135.053 81.5038 132.118 72.8516 132.118 72.8516C132.118 72.8516 139.079 66.4904 143.979 64.788C146.99 63.7399 150.32 62.6151 152.442 61.8996C153.776 61.451 154.632 61.1665 154.632 61.1665C154.632 61.1665 165.551 71.0747 170 71.0747V71.6831L170.208 71.0747C174.658 71.0747 185.575 61.1665 185.575 61.1665C185.575 61.1665 186.282 61.4006 187.408 61.7814C189.502 62.4816 193.046 63.6808 196.231 64.7902C201.132 66.4948 208.093 72.8538 208.093 72.8538C208.093 72.8538 204.589 83.1734 201.285 93.5214C199.579 98.8629 197.929 104.213 196.842 108.152C196.006 111.176 195.503 113.369 195.564 114.091C195.835 117.283 197.693 128.719 201.285 138.813C201.609 139.726 201.948 140.627 202.302 141.511C202.569 142.176 202.83 142.874 203.083 143.592C204.956 148.905 206.45 155.452 207.472 160.861C208.509 166.398 209.058 170.739 209.006 171.345Z" fill="url(#paint34_linear_2796_19086)"/>
<g opacity="0.25">
<path d="M203.075 143.59C200.692 141.513 198.295 139.542 197.347 139.163C195.216 138.31 151.987 137.244 150.166 138.097C148.342 138.951 139.18 145.557 138.116 148.966C137.454 151.087 134.933 163.435 133.124 172.463C132.03 172.17 131.229 171.796 131.192 171.343C131.085 170.065 133.642 152.163 137.904 141.507C142.166 130.85 144.347 117.572 144.642 114.091C144.796 112.274 141.387 101.147 138.086 90.913C140.333 89.3375 142.527 88.6416 144.61 89.0815C144.61 89.0815 146.213 107.578 147.279 108.132C148.344 108.688 169.303 105.705 169.303 105.705C169.303 105.705 190.318 108.366 191.383 107.248C192.449 106.132 197.524 92.5213 197.524 92.5213L201.281 93.5192C198.266 102.961 195.42 112.43 195.56 114.091C195.855 117.572 198.036 130.852 202.298 141.507C202.561 142.176 202.823 142.872 203.075 143.59Z" fill="#0031C2"/>
</g>
<path d="M187.401 61.779C182.976 65.7309 173.179 74.1467 170.099 74.0811C166.657 74.0111 155.583 64.6236 152.437 61.8971C153.772 61.4485 154.627 61.1641 154.627 61.1641C154.627 61.1641 165.544 71.0745 169.994 71.0745V71.6828L170.201 71.0745C174.651 71.0745 185.568 61.1641 185.568 61.1641C185.568 61.1641 186.275 61.3982 187.401 61.779Z" fill="white"/>
<g opacity="0.25">
<path d="M201.278 138.811C198.058 136.92 194.945 135.165 194.442 135.146C193.348 135.1 150.431 132.852 149.055 132.854C148.335 132.857 143.487 135.747 139.024 138.511C142.548 128.491 144.371 117.25 144.638 114.088C144.681 113.572 144.436 112.301 143.988 110.506C144.548 110.845 145.097 111.121 145.609 111.301C148.764 112.412 188.056 113.449 189.817 112.867C191.578 112.285 196.835 108.147 196.835 108.147C195.999 111.171 195.496 113.364 195.557 114.086C195.829 117.283 197.686 128.719 201.278 138.811Z" fill="#0031C2"/>
</g>
<path d="M162.33 131.706C160.624 132.345 158.117 130.533 157.187 130.96C156.255 131.386 143.579 134.049 141.448 134.369C139.317 134.688 137.294 134.369 135.375 133.515C133.457 132.662 128.663 127.868 127.705 126.695C126.747 125.522 126.213 109.751 126.747 98.7774C126.815 97.3661 126.915 95.8737 127.046 94.3398C127.348 90.797 127.814 87.0486 128.436 83.6635C128.438 83.6525 128.438 83.6438 128.44 83.635C128.447 83.5956 128.453 83.5606 128.46 83.5234C128.488 83.379 128.514 83.2346 128.543 83.0901C129.737 76.8078 131.472 71.9018 133.671 72.1009C133.671 72.1009 137.451 74.0353 140.571 77.7378C140.571 77.7378 140.571 77.74 140.573 77.7422C142.934 80.5387 144.916 84.3418 144.61 89.0793C143.901 100.09 140.917 111.312 141.628 111.74C142 111.964 142.317 112.287 142.488 112.603C142.645 112.889 142.687 113.163 142.551 113.347C142.354 113.609 142.293 113.926 142.413 114.167C142.466 114.279 142.558 114.373 142.693 114.441C143.12 114.653 149.655 114.705 150.72 113.347C151.785 111.988 153.277 111.239 154.982 111.401C156.686 111.563 157.498 115.132 157.191 117.102C156.883 119.069 154.304 124.627 158.178 125.734C159.469 126.102 160.707 126.41 161.792 126.655C163.958 127.148 165.507 127.395 165.64 127.423C165.835 127.467 164.039 131.067 162.33 131.706Z" fill="url(#paint35_linear_2796_19086)"/>
<g opacity="0.25">
<path d="M157.187 130.959C156.255 131.386 143.579 134.049 141.448 134.369C139.317 134.688 137.294 134.369 135.375 133.515C133.457 132.662 128.663 127.867 127.705 126.695C126.747 125.522 126.213 109.751 126.747 98.7773C126.815 97.3659 126.915 95.8736 127.046 94.3396C127.526 90.8407 127.926 87.9041 128.191 85.9084C127.482 95.4884 128.7 118.935 128.7 119.911C128.7 120.977 128.062 122.255 130.05 120.342C132.039 118.427 140.42 112.594 140.847 112.524C141.273 112.454 134.739 116.502 131.612 119.983C128.488 123.463 129.127 125.312 130.05 125.951C130.973 126.59 130.973 125.881 132.428 123.719C133.881 121.559 139.921 116.077 141.059 115.594C142.194 115.112 134.809 121.616 133.529 123.767C132.251 125.916 131.54 129.215 134.524 130.957C137.506 132.699 146.314 131.633 147.451 130.957C148.587 130.281 149.865 130.92 149.865 126.233C149.865 121.543 151.287 116.003 151.689 115.557C152.092 115.106 151.698 121.848 153.12 125.951C154.54 130.053 157.187 130.959 157.187 130.959Z" fill="#0031C2"/>
</g>
<path d="M142.903 93.7862C143.885 84.4797 140.658 77.9216 140.573 77.7444C142.934 80.5409 144.916 84.344 144.609 89.0815C143.901 100.093 140.916 111.314 141.627 111.743C141.999 111.966 142.317 112.29 142.487 112.605L136.705 115.557L140.846 112.524C140.844 112.524 141.91 103.217 142.903 93.7862Z" fill="white"/>
<path d="M150.716 113.349C149.863 115.382 147.734 116.005 146.093 115.933C144.452 115.861 140.503 115.933 140.503 115.933L142.411 114.169C142.464 114.281 142.556 114.375 142.691 114.443C143.116 114.655 149.65 114.708 150.716 113.349Z" fill="white"/>
<path d="M178.204 131.706C179.911 132.345 182.418 130.533 183.348 130.96C184.28 131.386 196.956 134.049 199.086 134.369C201.217 134.688 203.241 134.369 205.16 133.515C207.078 132.662 211.872 127.868 212.83 126.695C213.788 125.522 214.322 109.751 213.788 98.7774C213.72 97.3661 213.62 95.8737 213.488 94.3398C213.186 90.797 212.72 87.0486 212.099 83.6635C212.097 83.6525 212.097 83.6438 212.095 83.635C212.088 83.5956 212.082 83.5606 212.075 83.5234C212.047 83.379 212.02 83.2346 211.992 83.0901C210.797 76.8078 209.063 71.9018 206.864 72.1009C206.864 72.1009 203.083 74.0353 199.964 77.7378C199.964 77.7378 199.964 77.74 199.962 77.7422C197.601 80.5387 195.619 84.3418 195.925 89.0793C196.634 100.09 199.618 111.312 198.907 111.74C198.535 111.964 198.218 112.287 198.047 112.603C197.89 112.889 197.848 113.163 197.984 113.347C198.181 113.609 198.242 113.926 198.122 114.167C198.069 114.279 197.977 114.373 197.842 114.441C197.415 114.653 190.88 114.705 189.815 113.347C188.749 111.988 187.257 111.239 185.553 111.401C183.849 111.563 183.037 115.132 183.343 117.102C183.652 119.069 186.231 124.627 182.357 125.734C181.066 126.102 179.828 126.41 178.743 126.655C176.577 127.148 175.028 127.395 174.894 127.423C174.7 127.467 176.496 131.067 178.204 131.706Z" fill="url(#paint36_linear_2796_19086)"/>
<g opacity="0.25">
<path d="M183.348 130.959C184.28 131.386 196.955 134.049 199.086 134.369C201.217 134.688 203.241 134.369 205.159 133.515C207.078 132.662 211.871 127.867 212.83 126.695C213.788 125.522 214.322 109.751 213.788 98.7773C213.72 97.3659 213.619 95.8736 213.488 94.3396C213.009 90.8407 212.609 87.9041 212.344 85.9084C213.053 95.4884 211.834 118.935 211.834 119.911C211.834 120.977 212.473 122.255 210.484 120.342C208.496 118.427 200.114 112.594 199.688 112.524C199.261 112.454 205.796 116.502 208.922 119.983C212.046 123.463 211.408 125.312 210.484 125.951C209.561 126.59 209.561 125.881 208.106 123.719C206.654 121.559 200.613 116.077 199.476 115.594C198.34 115.112 205.726 121.616 207.006 123.767C208.284 125.916 208.995 129.215 206.01 130.957C203.029 132.699 194.221 131.633 193.083 130.957C191.948 130.281 190.67 130.92 190.67 126.233C190.67 121.543 189.248 116.003 188.845 115.557C188.443 115.106 188.837 121.848 187.415 125.951C185.995 130.053 183.348 130.959 183.348 130.959Z" fill="#0031C2"/>
</g>
<path d="M197.631 93.7862C196.649 84.4797 199.876 77.9216 199.961 77.7444C197.601 80.5409 195.619 84.344 195.925 89.0815C196.634 100.093 199.618 111.314 198.907 111.743C198.535 111.966 198.218 112.29 198.047 112.605L203.829 115.557L199.688 112.524C199.69 112.524 198.625 103.217 197.631 93.7862Z" fill="white"/>
<path d="M189.819 113.349C190.672 115.382 192.801 116.005 194.442 115.933C196.082 115.861 200.031 115.933 200.031 115.933L198.123 114.169C198.071 114.281 197.979 114.375 197.843 114.443C197.419 114.655 190.884 114.708 189.819 113.349Z" fill="white"/>
<path d="M169.589 95.7642C169.589 95.7642 172.219 92.7642 175.214 93.2018C178.209 93.6395 180.18 94.4622 180.18 94.4622C180.18 94.4622 173.678 97.5958 169.589 95.7642Z" fill="url(#paint37_linear_2796_19086)"/>
<path d="M169.994 95.9262L177.021 94.3704L169.994 95.3507V95.9262Z" fill="#396F72"/>
<path d="M169.033 102.261C169.033 102.261 166.666 99.4843 162.575 98.1692C158.484 96.8541 157.007 96.5718 155.371 95.7644C153.735 94.9569 153.115 94.6637 153.115 94.6637C153.115 94.6637 153.006 99.3399 158.777 102.261C164.549 105.182 169.033 102.261 169.033 102.261Z" fill="url(#paint38_linear_2796_19086)"/>
<path d="M169.563 111.02H169.567C169.823 111.012 170.022 110.799 170.016 110.543C169.957 108.401 169.701 99.4886 169.694 98.9328C169.736 97.1253 170.086 93.3966 172.085 90.4425C174.853 86.3484 177.721 84.4534 177.749 84.4337C177.964 84.2936 178.023 84.0092 177.881 83.7969C177.736 83.5825 177.445 83.5278 177.233 83.6678C177.111 83.7488 174.181 85.6853 171.306 89.9327C170.473 91.1646 169.906 92.506 169.526 93.797C169.368 90.7335 169.073 87.3156 168.524 85.4731C167.353 81.5649 165.203 80.5846 165.113 80.5452C164.879 80.4446 164.601 80.5452 164.498 80.7794C164.393 81.0113 164.498 81.2827 164.734 81.3877C164.75 81.3943 166.592 82.2717 167.629 85.7357C168.495 88.6351 168.707 95.9131 168.758 98.8212C168.742 99.4645 169.014 108.417 169.082 110.574C169.09 110.83 169.305 111.031 169.563 111.02Z" fill="#5E4060"/>
<path d="M169.033 102.261C169.033 102.261 166.229 101.968 163.087 100.946C159.946 99.9241 156.587 97.9503 156.587 97.9503C156.587 97.9503 161.319 102.261 169.033 102.261Z" fill="#396F72"/>
<path d="M162.203 113.029C162.203 113.029 163.85 109.193 168.876 109.193C173.903 109.193 177.386 112.497 177.386 112.497C177.386 112.497 176.345 117.642 171.037 117.502C165.728 117.364 162.203 113.029 162.203 113.029Z" fill="#77555B"/>
<path opacity="0.5" d="M165.802 122.345C158.967 121.058 157.6 115.935 157.6 115.935C157.6 115.935 161.402 112.29 163.319 111.835C163.481 111.795 163.649 111.765 163.818 111.743C165.644 111.495 167.771 112.099 167.88 112.099C168.003 112.099 172.768 111.327 174.791 111.684C176.749 112.029 176.476 111.846 176.456 111.835C176.461 111.837 176.478 111.841 176.504 111.85C177.047 112.04 181.921 113.817 182.068 116.279C182.225 118.889 172.636 123.629 165.802 122.345Z" fill="#C98057"/>
<path d="M165.802 122.345C158.967 121.058 157.6 115.935 157.6 115.935C157.6 115.935 161.402 112.29 163.319 111.835C163.481 111.795 163.649 111.765 163.818 111.743C163.032 112.561 162.407 113.314 162.73 113.349C163.452 113.425 165.393 112.74 166.167 113.349C166.942 113.957 166.474 114.504 167.447 114.97C168.421 115.436 170.702 115.57 170.471 115.314C170.239 115.056 167.233 114.071 168.812 114.088C170.392 114.108 173.048 113.918 172.024 114.088C171 114.259 169.644 114.412 170.134 114.526C170.622 114.64 171.457 115.187 172.254 114.97C173.05 114.754 174.756 113.312 173.96 113.047C173.164 112.78 171.193 111.983 172.518 112.097C173.846 112.211 177.791 114.067 177.373 113.349C177.207 113.062 176.861 112.465 176.507 111.85C177.049 112.04 181.923 113.817 182.07 116.279C182.225 118.889 172.636 123.629 165.802 122.345Z" fill="#5E4060"/>
<path d="M168.318 123.784C168.318 125.036 170.878 126.743 172.3 127.312C173.446 127.771 174.925 127.563 175.456 127.465C175.583 127.443 175.658 127.426 175.658 127.426C175.658 127.426 175.887 127.581 176.227 127.763C176.782 128.06 177.64 128.428 178.276 128.301C179.044 128.146 179.62 127.701 179.858 127.487C179.939 127.415 179.983 127.369 179.983 127.369C179.983 127.369 180.149 127.48 180.416 127.627C181.042 127.97 182.21 128.5 183.03 128.222C184.039 127.879 185.185 125.679 185.483 125.075C185.531 124.977 185.557 124.922 185.557 124.922C185.557 124.922 185.619 124.94 185.721 124.968C186.192 125.091 187.557 125.388 188.117 124.922C188.799 124.353 189.71 123.159 189.596 121.85C189.482 120.541 189.198 118.323 189.084 116.671C188.994 115.388 188.393 114.174 188.126 113.697V113.695C188.051 113.559 188.003 113.482 188.003 113.482C188.003 113.482 188.018 113.421 188.04 113.316C188.108 112.981 188.222 112.198 188.003 111.548C187.719 110.695 184.818 108.191 181.972 108.134C179.679 108.088 177.495 110.522 176.736 111.465C176.553 111.692 176.452 111.835 176.452 111.835C177.795 112.53 180.143 114.666 180.707 115.189C180.777 115.255 180.821 115.294 180.83 115.305C180.823 115.303 180.803 115.294 180.77 115.283C180.746 115.272 180.711 115.261 180.672 115.246C180.633 115.231 180.587 115.213 180.536 115.196C180.534 115.193 180.532 115.193 180.532 115.193C179.696 114.883 177.283 114.01 175.647 113.638C174.901 113.467 174.317 113.401 174.115 113.541C173.555 113.929 173.746 115.067 173.87 115.596C173.91 115.767 173.945 115.874 173.945 115.874C173.945 115.874 173.811 115.848 173.599 115.819C172.892 115.725 171.311 115.625 170.871 116.5C170.637 116.968 170.643 117.342 170.733 117.622C170.86 118.025 171.155 118.231 171.155 118.231C171.155 118.231 171.055 118.222 170.899 118.233C170.425 118.261 169.436 118.458 169.219 119.574C168.987 120.782 170.007 121.688 170.39 121.979C170.464 122.036 170.514 122.069 170.525 122.078C170.473 122.06 170.418 122.047 170.361 122.038C169.517 121.887 168.318 122.609 168.318 123.784Z" fill="url(#paint39_linear_2796_19086)"/>
<path d="M173.835 116.001C175.078 117.13 185.03 124.734 185.455 125.058C185.463 125.065 185.474 125.071 185.485 125.076C185.557 125.111 185.645 125.091 185.695 125.025C185.708 125.008 185.719 124.988 185.724 124.966C185.743 124.9 185.719 124.828 185.662 124.784C185.56 124.706 175.299 116.865 174.067 115.745C174.013 115.695 173.949 115.644 173.879 115.594C173.919 115.765 173.954 115.872 173.954 115.872C173.954 115.872 173.82 115.846 173.608 115.817C173.693 115.878 173.77 115.94 173.835 116.001Z" fill="#F078A5"/>
<path d="M173.074 119.673C173.739 120.587 178.434 126.062 179.858 127.487C179.939 127.415 179.983 127.369 179.983 127.369C179.983 127.369 180.149 127.48 180.416 127.627C180.335 127.504 180.233 127.377 180.104 127.248C178.69 125.835 174.011 120.382 173.35 119.471C172.698 118.574 171.482 118.152 171.25 118.077C171.079 117.926 170.911 117.775 170.742 117.622C170.869 118.025 171.164 118.231 171.164 118.231C171.164 118.231 171.064 118.222 170.908 118.233C170.998 118.312 171.048 118.358 171.051 118.36L171.077 118.384L171.114 118.395C171.127 118.397 172.435 118.793 173.074 119.673Z" fill="#F078A5"/>
<path d="M170.407 122.187C170.464 122.253 171.785 123.822 172.411 124.419C172.967 124.949 175.03 127.034 175.459 127.465C175.586 127.443 175.66 127.426 175.66 127.426C175.66 127.426 175.89 127.581 176.229 127.763L175.782 127.305C175.758 127.279 173.271 124.765 172.65 124.172C172.037 123.587 170.685 121.981 170.67 121.964C170.608 121.892 170.501 121.883 170.429 121.944C170.418 121.953 170.409 121.964 170.401 121.977C170.388 121.994 170.379 122.014 170.374 122.036C170.359 122.086 170.37 122.143 170.407 122.187Z" fill="#F078A5"/>
<path d="M180.76 115.456C180.766 115.46 181.44 115.802 182.267 116.425C182.635 117.517 183.958 118.69 184.416 119.069L184.424 119.075C184.582 119.207 185.052 119.388 185.547 119.388C185.757 119.388 185.969 119.355 186.166 119.272C186.794 119.003 187.859 114.802 188.17 113.522C188.192 113.43 188.135 113.338 188.043 113.316C187.951 113.294 187.859 113.351 187.837 113.443C187.212 116.014 186.363 118.782 186.03 118.961C185.488 119.193 184.759 118.913 184.643 118.815L184.634 118.806C183.746 118.067 182.814 117.069 182.573 116.268C182.573 116.266 182.573 116.266 182.571 116.263C182.528 116.119 182.508 115.979 182.512 115.852C182.536 115.327 182.764 114.67 182.983 114.034C183.284 113.156 183.571 112.327 183.418 111.705L183.162 110.681C183.138 110.589 183.046 110.532 182.954 110.557C182.862 110.581 182.805 110.673 182.829 110.764L183.085 111.789C183.217 112.314 182.934 113.132 182.659 113.922C182.431 114.581 182.195 115.261 182.169 115.837C182.167 115.87 182.167 115.902 182.169 115.933C181.46 115.432 180.935 115.163 180.909 115.152C180.839 115.117 180.758 115.134 180.707 115.189C180.696 115.2 180.688 115.213 180.681 115.228C180.642 115.312 180.675 115.414 180.76 115.456Z" fill="#F078A5"/>
<path d="M176.454 111.832C177.797 112.528 180.145 114.664 180.709 115.187C180.76 115.132 180.841 115.117 180.911 115.15C180.937 115.163 181.464 115.43 182.171 115.931C182.168 115.898 182.168 115.865 182.171 115.835C182.197 115.259 182.433 114.579 182.661 113.92C182.934 113.13 183.219 112.312 183.087 111.786L182.831 110.762C182.831 110.762 182.144 114.108 181.291 114.108C180.65 114.108 178.882 111.953 176.738 111.463C176.555 111.692 176.454 111.832 176.454 111.832Z" fill="#DB588D"/>
<g opacity="0.47">
<path d="M174.369 114.091C174.369 114.091 174.122 115.248 174.122 115.436C174.122 115.627 174.91 116.498 175.579 116.537C176.246 116.577 177.006 114.697 174.369 114.091Z" fill="white"/>
<path d="M170.215 119.39L170.024 121.051C170.024 121.051 170.897 122.872 171.731 122.189C172.567 121.506 172.718 119.891 170.215 119.39Z" fill="white"/>
<path d="M169.455 122.625L168.81 123.898C168.81 123.898 169.342 125.24 170.024 124.835C170.709 124.428 170.67 122.984 169.455 122.625Z" fill="white"/>
<path d="M171.733 116.537C171.733 116.537 171.315 117.57 171.392 117.622C171.468 117.675 172.265 118.898 172.833 118.231C173.4 117.561 173.744 116.5 171.733 116.537Z" fill="white"/>
<path d="M186.905 115.933C186.905 115.933 186.527 115.412 185.728 115.596C184.932 115.78 184.286 116.386 184.135 116.537C183.984 116.69 184.477 118.235 185.122 118.43C185.767 118.624 185.717 118.81 186.109 118.43C186.5 118.049 186.905 115.933 186.905 115.933Z" fill="white"/>
</g>
<path d="M171.453 123.784C171.453 125.036 168.894 126.743 167.471 127.312C166.325 127.771 164.846 127.563 164.315 127.465C164.188 127.443 164.113 127.426 164.113 127.426C164.113 127.426 163.884 127.581 163.545 127.763C162.989 128.06 162.131 128.428 161.495 128.301C160.727 128.146 160.151 127.701 159.913 127.487C159.832 127.415 159.788 127.369 159.788 127.369C159.788 127.369 159.622 127.48 159.355 127.627C158.729 127.97 157.561 128.5 156.741 128.222C155.732 127.879 154.586 125.679 154.288 125.075C154.24 124.977 154.214 124.922 154.214 124.922C154.214 124.922 154.153 124.94 154.05 124.968C153.579 125.091 152.214 125.388 151.654 124.922C150.972 124.353 150.061 123.159 150.175 121.85C150.289 120.541 150.573 118.323 150.687 116.671C150.777 115.388 151.378 114.174 151.645 113.697V113.695C151.72 113.559 151.768 113.482 151.768 113.482C151.768 113.482 151.753 113.421 151.731 113.316C151.663 112.981 151.549 112.198 151.768 111.548C152.052 110.695 154.953 108.191 157.8 108.134C160.092 108.088 162.276 110.522 163.035 111.465C163.219 111.692 163.319 111.835 163.319 111.835C161.976 112.53 159.628 114.666 159.064 115.189C158.994 115.255 158.95 115.294 158.941 115.305C158.948 115.303 158.968 115.294 159.001 115.283C159.025 115.272 159.06 115.261 159.099 115.246C159.138 115.231 159.184 115.213 159.235 115.196C159.237 115.193 159.239 115.193 159.239 115.193C160.075 114.883 162.488 114.01 164.124 113.638C164.87 113.467 165.454 113.401 165.656 113.541C166.216 113.929 166.025 115.067 165.901 115.596C165.861 115.767 165.826 115.874 165.826 115.874C165.826 115.874 165.96 115.848 166.172 115.819C166.879 115.725 168.46 115.625 168.9 116.5C169.134 116.968 169.128 117.342 169.038 117.622C168.911 118.025 168.616 118.231 168.616 118.231C168.616 118.231 168.716 118.222 168.872 118.233C169.346 118.261 170.335 118.458 170.552 119.574C170.784 120.782 169.764 121.688 169.381 121.979C169.307 122.036 169.257 122.069 169.246 122.078C169.298 122.06 169.353 122.047 169.41 122.038C170.254 121.887 171.453 122.609 171.453 123.784Z" fill="url(#paint40_linear_2796_19086)"/>
<path d="M165.936 116.001C164.693 117.13 154.741 124.734 154.319 125.058C154.31 125.065 154.299 125.071 154.288 125.076C154.216 125.111 154.129 125.091 154.078 125.025C154.065 125.008 154.054 124.988 154.05 124.966C154.03 124.9 154.054 124.828 154.111 124.784C154.214 124.706 164.474 116.865 165.706 115.745C165.761 115.695 165.824 115.644 165.894 115.594C165.855 115.765 165.82 115.872 165.82 115.872C165.82 115.872 165.953 115.846 166.165 115.817C166.08 115.878 166.001 115.94 165.936 116.001Z" fill="#F078A5"/>
<path d="M166.699 119.673C166.034 120.587 161.34 126.062 159.915 127.487C159.834 127.415 159.791 127.369 159.791 127.369C159.791 127.369 159.624 127.48 159.357 127.627C159.438 127.504 159.541 127.377 159.67 127.248C161.084 125.835 165.763 120.382 166.424 119.471C167.076 118.574 168.292 118.152 168.524 118.077C168.695 117.926 168.863 117.775 169.032 117.622C168.905 118.025 168.609 118.231 168.609 118.231C168.609 118.231 168.71 118.222 168.865 118.233C168.776 118.312 168.725 118.358 168.723 118.36L168.697 118.384L168.66 118.395C168.644 118.397 167.338 118.793 166.699 119.673Z" fill="#F078A5"/>
<path d="M169.366 122.187C169.311 122.253 167.988 123.822 167.362 124.419C166.806 124.949 164.743 127.034 164.315 127.465C164.188 127.443 164.113 127.426 164.113 127.426C164.113 127.426 163.884 127.581 163.544 127.763L163.991 127.305C164.015 127.279 166.502 124.765 167.124 124.172C167.736 123.587 169.088 121.981 169.103 121.964C169.165 121.892 169.272 121.883 169.344 121.944C169.355 121.953 169.364 121.964 169.373 121.977C169.386 121.994 169.394 122.014 169.399 122.036C169.414 122.086 169.401 122.143 169.366 122.187Z" fill="#F078A5"/>
<path d="M159.014 115.456C159.007 115.46 158.333 115.802 157.506 116.425C157.139 117.517 155.815 118.69 155.358 119.069L155.349 119.075C155.192 119.207 154.721 119.388 154.227 119.388C154.017 119.388 153.802 119.355 153.608 119.272C152.98 119.003 151.914 114.802 151.604 113.522C151.582 113.43 151.639 113.338 151.731 113.316C151.823 113.294 151.914 113.351 151.936 113.443C152.562 116.014 153.411 118.782 153.743 118.961C154.286 119.193 155.015 118.913 155.13 118.815L155.139 118.806C156.027 118.067 156.959 117.069 157.2 116.268C157.2 116.266 157.2 116.266 157.202 116.263C157.246 116.119 157.266 115.979 157.261 115.852C157.237 115.327 157.01 114.67 156.791 114.034C156.489 113.156 156.202 112.327 156.356 111.705L156.612 110.681C156.636 110.589 156.728 110.532 156.819 110.557C156.911 110.581 156.968 110.673 156.944 110.764L156.688 111.789C156.557 112.314 156.839 113.132 157.115 113.922C157.342 114.581 157.579 115.261 157.605 115.837C157.607 115.87 157.607 115.902 157.605 115.933C158.314 115.432 158.839 115.163 158.865 115.152C158.935 115.117 159.016 115.134 159.066 115.189C159.077 115.2 159.086 115.213 159.092 115.228C159.132 115.312 159.097 115.414 159.014 115.456Z" fill="#F078A5"/>
<path d="M163.317 111.832C161.973 112.528 159.626 114.664 159.061 115.187C159.011 115.132 158.93 115.117 158.86 115.15C158.834 115.163 158.307 115.43 157.6 115.931C157.602 115.898 157.602 115.865 157.6 115.835C157.574 115.259 157.338 114.579 157.11 113.92C156.837 113.13 156.552 112.312 156.683 111.786L156.939 110.762C156.939 110.762 157.626 114.108 158.48 114.108C159.121 114.108 160.888 111.953 163.032 111.463C163.218 111.692 163.317 111.832 163.317 111.832Z" fill="#DB588D"/>
<g opacity="0.47">
<path d="M165.404 114.091C165.404 114.091 165.651 115.248 165.651 115.436C165.651 115.627 164.863 116.498 164.194 116.537C163.527 116.577 162.768 114.697 165.404 114.091Z" fill="white"/>
<path d="M169.556 119.39L169.747 121.051C169.747 121.051 168.874 122.872 168.04 122.189C167.207 121.506 167.054 119.891 169.556 119.39Z" fill="white"/>
<path d="M170.315 122.625L170.961 123.898C170.961 123.898 170.429 125.24 169.747 124.835C169.064 124.428 169.101 122.984 170.315 122.625Z" fill="white"/>
<path d="M168.04 116.537C168.04 116.537 168.458 117.57 168.381 117.622C168.305 117.675 167.508 118.898 166.939 118.231C166.371 117.561 166.029 116.5 168.04 116.537Z" fill="white"/>
<path d="M152.868 115.933C152.868 115.933 153.247 115.412 154.045 115.596C154.842 115.78 155.487 116.386 155.638 116.537C155.789 116.688 155.297 118.235 154.651 118.43C154.006 118.624 154.056 118.81 153.665 118.43C153.273 118.049 152.868 115.933 152.868 115.933Z" fill="white"/>
</g>
<path d="M170.747 90.9762C170.747 90.9762 178.03 90.0965 181.134 86.2212C184.238 82.3459 184.952 80.3218 184.267 80.1621C183.582 80.0023 176.041 77.8776 172.783 81.8273C169.526 85.777 170.747 90.9762 170.747 90.9762Z" fill="#396F72"/>
<path d="M168.839 91.8013C168.839 91.8013 172.799 87.6 170.482 82.7421C168.163 77.8843 164.625 76.0637 160.414 76.2322C156.202 76.4007 155.196 76.4554 155.555 77.0309C155.914 77.6064 159.243 81.1382 160.742 84.4314C162.241 87.7247 161.807 90.9654 168.839 91.8013Z" fill="url(#paint41_linear_2796_19086)"/>
<path d="M168.839 91.8013C168.839 91.8013 169.029 86.2191 167.132 83.1009C165.235 79.9849 161.652 78.8164 161.652 78.8164C161.652 78.8164 165.152 80.6786 166.167 82.7092C167.18 84.7377 168.839 91.8013 168.839 91.8013Z" fill="#396F72"/>
<path d="M170.747 90.9764C170.747 90.9764 172.304 87.344 174.884 85.0682C177.463 82.7903 181.436 81.7006 181.436 81.7006C181.436 81.7006 173.144 86.2302 170.747 90.9764Z" fill="#274959"/>
<defs>
<linearGradient id="paint0_linear_2796_19086" x1="53.8798" y1="69.2796" x2="50.0145" y2="92.8132" gradientUnits="userSpaceOnUse">
<stop offset="0.3868" stop-color="#FFBD9F"/>
<stop offset="1" stop-color="#EF72A6"/>
</linearGradient>
<linearGradient id="paint1_linear_2796_19086" x1="53.3992" y1="66.9464" x2="59.8396" y2="88.3478" gradientUnits="userSpaceOnUse">
<stop offset="0.3868" stop-color="#FFBD9F"/>
<stop offset="1" stop-color="#EF72A6"/>
</linearGradient>
<linearGradient id="paint2_linear_2796_19086" x1="46.3896" y1="76.8124" x2="50.9207" y2="76.9143" gradientUnits="userSpaceOnUse">
<stop offset="0.3868" stop-color="#FFBD9F"/>
<stop offset="1" stop-color="#EF72A6"/>
</linearGradient>
<linearGradient id="paint3_linear_2796_19086" x1="9.66698" y1="129.62" x2="37.6837" y2="129.62" gradientUnits="userSpaceOnUse">
<stop offset="0.3868" stop-color="#FFBD9F"/>
<stop offset="1" stop-color="#EF72A6"/>
</linearGradient>
<linearGradient id="paint4_linear_2796_19086" x1="22.7964" y1="102.08" x2="37.5694" y2="102.08" gradientUnits="userSpaceOnUse">
<stop offset="0.0188" stop-color="#FDE090"/>
<stop offset="1" stop-color="#FE9A81"/>
</linearGradient>
<linearGradient id="paint5_linear_2796_19086" x1="48.953" y1="82.9281" x2="48.953" y2="160.243" gradientUnits="userSpaceOnUse">
<stop stop-color="#FE9A81"/>
<stop offset="0.9812" stop-color="#FDE090"/>
</linearGradient>
<linearGradient id="paint6_linear_2796_19086" x1="66.6686" y1="103.586" x2="87.29" y2="103.586" gradientUnits="userSpaceOnUse">
<stop stop-color="#FE9A81"/>
<stop offset="0.9812" stop-color="#FDE090"/>
</linearGradient>
<linearGradient id="paint7_linear_2796_19086" x1="69.3923" y1="125.965" x2="48.8427" y2="125.965" gradientUnits="userSpaceOnUse">
<stop stop-color="#A1474F"/>
<stop offset="1" stop-color="#473D54"/>
</linearGradient>
<linearGradient id="paint8_linear_2796_19086" x1="67.2048" y1="116.178" x2="51.0301" y2="116.178" gradientUnits="userSpaceOnUse">
<stop stop-color="#A1474F"/>
<stop offset="1" stop-color="#473D54"/>
</linearGradient>
<linearGradient id="paint9_linear_2796_19086" x1="68.0726" y1="83.0659" x2="88.7351" y2="83.0659" gradientUnits="userSpaceOnUse">
<stop stop-color="#36875B"/>
<stop offset="0.9838" stop-color="#6FBF7B"/>
</linearGradient>
<linearGradient id="paint10_linear_2796_19086" x1="42.0603" y1="91.7442" x2="56.944" y2="91.7442" gradientUnits="userSpaceOnUse">
<stop offset="0.0162" stop-color="#6FBF7B"/>
<stop offset="1" stop-color="#36875B"/>
</linearGradient>
<linearGradient id="paint11_linear_2796_19086" x1="62.138" y1="78.2381" x2="62.138" y2="118.987" gradientUnits="userSpaceOnUse">
<stop offset="0.0162" stop-color="#6FBF7B"/>
<stop offset="1" stop-color="#36875B"/>
</linearGradient>
<linearGradient id="paint12_linear_2796_19086" x1="50.8855" y1="125.345" x2="89.9601" y2="125.345" gradientUnits="userSpaceOnUse">
<stop offset="0.3868" stop-color="#FFBD9F"/>
<stop offset="1" stop-color="#EF72A6"/>
</linearGradient>
<linearGradient id="paint13_linear_2796_19086" x1="15.2573" y1="56.6263" x2="15.2573" y2="106.122" gradientUnits="userSpaceOnUse">
<stop stop-color="#CCCCCC"/>
<stop offset="1" stop-color="#F2F2F2"/>
</linearGradient>
<linearGradient id="paint14_linear_2796_19086" x1="2.93273" y1="145.955" x2="14.5526" y2="145.955" gradientUnits="userSpaceOnUse">
<stop offset="0.3868" stop-color="#FFBD9F"/>
<stop offset="1" stop-color="#EF72A6"/>
</linearGradient>
<linearGradient id="paint15_linear_2796_19086" x1="102.384" y1="43.1862" x2="111.312" y2="69.5507" gradientUnits="userSpaceOnUse">
<stop offset="0.3868" stop-color="#FFBD9F"/>
<stop offset="1" stop-color="#EF72A6"/>
</linearGradient>
<linearGradient id="paint16_linear_2796_19086" x1="115.271" y1="42.8092" x2="114.24" y2="45.191" gradientUnits="userSpaceOnUse">
<stop offset="0.3868" stop-color="#FFBD9F"/>
<stop offset="1" stop-color="#EF72A6"/>
</linearGradient>
<linearGradient id="paint17_linear_2796_19086" x1="112.596" y1="44.5878" x2="112.589" y2="44.6053" gradientUnits="userSpaceOnUse">
<stop offset="0.3868" stop-color="#FFBD9F"/>
<stop offset="1" stop-color="#EF72A6"/>
</linearGradient>
<linearGradient id="paint18_linear_2796_19086" x1="122.333" y1="52.0727" x2="114.838" y2="51.3682" gradientUnits="userSpaceOnUse">
<stop stop-color="white"/>
<stop offset="0.8703" stop-color="#CFBBEA"/>
</linearGradient>
<linearGradient id="paint19_linear_2796_19086" x1="122.333" y1="52.0727" x2="114.838" y2="51.3682" gradientUnits="userSpaceOnUse">
<stop stop-color="white"/>
<stop offset="0.8703" stop-color="#CFBBEA"/>
</linearGradient>
<linearGradient id="paint20_linear_2796_19086" x1="101.055" y1="50.4965" x2="101.541" y2="92.0025" gradientUnits="userSpaceOnUse">
<stop stop-color="#EF72A6"/>
<stop offset="0.6132" stop-color="#FFBD9F"/>
</linearGradient>
<linearGradient id="paint21_linear_2796_19086" x1="70.3141" y1="143.521" x2="124.481" y2="237.321" gradientUnits="userSpaceOnUse">
<stop offset="0.2392" stop-color="#27316F"/>
<stop offset="1" stop-color="#4C5F9B"/>
</linearGradient>
<linearGradient id="paint22_linear_2796_19086" x1="69.9227" y1="91.1868" x2="88.5589" y2="91.1868" gradientUnits="userSpaceOnUse">
<stop offset="0.0188" stop-color="#FDB6A7"/>
<stop offset="1" stop-color="#FB5C88"/>
</linearGradient>
<linearGradient id="paint23_linear_2796_19086" x1="101.011" y1="65.6526" x2="101.011" y2="154.998" gradientUnits="userSpaceOnUse">
<stop stop-color="#FB5C88"/>
<stop offset="0.9812" stop-color="#FDB6A7"/>
</linearGradient>
<linearGradient id="paint24_linear_2796_19086" x1="114.757" y1="108.55" x2="155.833" y2="108.55" gradientUnits="userSpaceOnUse">
<stop stop-color="#FB5C88"/>
<stop offset="0.9812" stop-color="#FDB6A7"/>
</linearGradient>
<linearGradient id="paint25_linear_2796_19086" x1="108.265" y1="92.2653" x2="123.769" y2="92.2653" gradientUnits="userSpaceOnUse">
<stop offset="0.3868" stop-color="#FFBD9F"/>
<stop offset="1" stop-color="#EF72A6"/>
</linearGradient>
<linearGradient id="paint26_linear_2796_19086" x1="70.0775" y1="105.736" x2="111.559" y2="105.736" gradientUnits="userSpaceOnUse">
<stop stop-color="#FB5C88"/>
<stop offset="0.9812" stop-color="#FDB6A7"/>
</linearGradient>
<linearGradient id="paint27_linear_2796_19086" x1="63.5448" y1="181.924" x2="108.427" y2="181.924" gradientUnits="userSpaceOnUse">
<stop stop-color="#FE9A81"/>
<stop offset="0.9812" stop-color="#FDE090"/>
</linearGradient>
<linearGradient id="paint28_linear_2796_19086" x1="100.976" y1="138.201" x2="116.832" y2="138.201" gradientUnits="userSpaceOnUse">
<stop offset="0.3868" stop-color="#FFBD9F"/>
<stop offset="1" stop-color="#EF72A6"/>
</linearGradient>
<linearGradient id="paint29_linear_2796_19086" x1="170.245" y1="45.3079" x2="170.245" y2="78.2815" gradientUnits="userSpaceOnUse">
<stop offset="0.6292" stop-color="#FFBF9F"/>
<stop offset="1" stop-color="#EF879F"/>
</linearGradient>
<linearGradient id="paint30_linear_2796_19086" x1="150.792" y1="41.3439" x2="157.565" y2="41.3439" gradientUnits="userSpaceOnUse">
<stop offset="0.6292" stop-color="#FFBF9F"/>
<stop offset="1" stop-color="#EF879F"/>
</linearGradient>
<linearGradient id="paint31_linear_2796_19086" x1="182.558" y1="41.813" x2="189.325" y2="41.813" gradientUnits="userSpaceOnUse">
<stop stop-color="#EF879F"/>
<stop offset="0.3708" stop-color="#FFBF9F"/>
</linearGradient>
<linearGradient id="paint32_linear_2796_19086" x1="170.531" y1="10.0476" x2="170.531" y2="58.1018" gradientUnits="userSpaceOnUse">
<stop stop-color="#EF879F"/>
<stop offset="0.3708" stop-color="#FFBF9F"/>
</linearGradient>
<linearGradient id="paint33_linear_2796_19086" x1="166.124" y1="50.1265" x2="174.135" y2="50.1265" gradientUnits="userSpaceOnUse">
<stop stop-color="#EF879F"/>
<stop offset="0.3708" stop-color="#FFBF9F"/>
</linearGradient>
<linearGradient id="paint34_linear_2796_19086" x1="170.098" y1="61.1644" x2="170.098" y2="177.115" gradientUnits="userSpaceOnUse">
<stop stop-color="#F4F2FF"/>
<stop offset="1" stop-color="#D8DBF0"/>
</linearGradient>
<linearGradient id="paint35_linear_2796_19086" x1="126.535" y1="103.294" x2="165.65" y2="103.294" gradientUnits="userSpaceOnUse">
<stop stop-color="#F4F2FF"/>
<stop offset="1" stop-color="#D8DBF0"/>
</linearGradient>
<linearGradient id="paint36_linear_2796_19086" x1="174.884" y1="103.294" x2="214" y2="103.294" gradientUnits="userSpaceOnUse">
<stop stop-color="#F4F2FF"/>
<stop offset="1" stop-color="#D8DBF0"/>
</linearGradient>
<linearGradient id="paint37_linear_2796_19086" x1="169.589" y1="94.7482" x2="180.18" y2="94.7482" gradientUnits="userSpaceOnUse">
<stop stop-color="#AAC149"/>
<stop offset="1" stop-color="#008B4C"/>
</linearGradient>
<linearGradient id="paint38_linear_2796_19086" x1="153.117" y1="99.1114" x2="169.034" y2="99.1114" gradientUnits="userSpaceOnUse">
<stop stop-color="#AAC149"/>
<stop offset="1" stop-color="#008B4C"/>
</linearGradient>
<linearGradient id="paint39_linear_2796_19086" x1="168.318" y1="118.23" x2="189.607" y2="118.23" gradientUnits="userSpaceOnUse">
<stop offset="0.3868" stop-color="#FFBD9F"/>
<stop offset="1" stop-color="#EF72A6"/>
</linearGradient>
<linearGradient id="paint40_linear_2796_19086" x1="150.165" y1="118.23" x2="171.454" y2="118.23" gradientUnits="userSpaceOnUse">
<stop offset="0.3868" stop-color="#FFBD9F"/>
<stop offset="1" stop-color="#EF72A6"/>
</linearGradient>
<linearGradient id="paint41_linear_2796_19086" x1="155.486" y1="84.0122" x2="171.207" y2="84.0122" gradientUnits="userSpaceOnUse">
<stop stop-color="#AAC149"/>
<stop offset="1" stop-color="#008B4C"/>
</linearGradient>
</defs>
</svg>
