<svg width="133" height="133" viewBox="0 0 133 133" fill="none" xmlns="http://www.w3.org/2000/svg">
<path d="M55.8497 121.934C25.0976 116.019 4.96863 86.3263 10.8904 55.6125C16.8123 24.8987 46.5424 4.79485 77.2945 10.7093C108.047 16.6237 128.175 46.3168 122.254 77.0306C116.332 107.744 86.6018 127.848 55.8497 121.934Z" fill="#C4336B"/>
<path d="M73.6493 122.93C42.3335 122.93 16.9471 97.5751 16.9471 66.2983C16.9471 35.0215 42.3335 9.66663 73.6493 9.66663C104.965 9.66663 130.352 35.0215 130.352 66.2983C130.352 97.5751 104.965 122.93 73.6493 122.93Z" fill="url(#paint0_linear_2796_19541)"/>
<path opacity="0.46" d="M73.649 110.812C49.0344 110.812 29.0803 90.8823 29.0803 66.2983C29.0803 41.7143 49.0344 21.785 73.649 21.785C98.2637 21.785 118.218 41.7143 118.218 66.2983C118.218 90.8823 98.2637 110.812 73.649 110.812Z" fill="#C1338B"/>
<path d="M73.6486 107.592C50.8141 107.592 32.3031 89.1045 32.3031 66.2984C32.3031 43.4924 50.8141 25.0044 73.6486 25.0044C96.4831 25.0044 114.994 43.4924 114.994 66.2984C114.994 89.1045 96.4831 107.592 73.6486 107.592Z" fill="#FFE576"/>
<path d="M77.6894 73.1583L54.4291 68.3977L55.8833 61.2921L78.9312 66.0091C80.8138 66.3944 82.372 66.4075 83.6055 66.0483C84.8594 65.6933 85.845 65.0513 86.5624 64.1224C87.2839 63.1733 87.7814 62.0307 88.0549 60.6946C88.3242 59.3787 88.2974 58.1183 87.9746 56.9133C87.6761 55.6921 87.0385 54.6336 86.0618 53.7376C85.1095 52.8256 83.7831 52.1956 82.0826 51.8476L74.0356 50.2006L66.4473 87.2775L57.3375 85.4131L66.3863 41.2002L83.5127 44.7053C86.9947 45.418 89.8442 46.6445 92.0612 48.3848C94.2985 50.1293 95.8635 52.2213 96.7563 54.6609C97.6491 57.1005 97.8096 59.7171 97.2378 62.5107C96.6371 65.4461 95.433 67.8256 93.6255 69.6493C91.8382 71.4771 89.5857 72.6929 86.8678 73.2967C84.1701 73.9046 81.1107 73.8585 77.6894 73.1583ZM78.85 75.9901L77.3957 83.0958L52.4652 77.9934L53.9195 70.8877L78.85 75.9901Z" fill="#DA5B72"/>
<path opacity="0.22" d="M32.3035 82.9384C38.9007 99.2777 54.9241 110.811 73.649 110.811C98.2639 110.811 118.218 90.8823 118.218 66.2981C118.218 48.2507 107.458 32.7105 92.0029 25.7278C94.0783 30.8751 95.2262 36.4913 95.2262 42.3681C95.2262 66.9465 75.2722 86.8814 50.6574 86.8814C44.1066 86.8814 37.8978 85.4744 32.3035 82.9384Z" fill="#C1338B"/>
<defs>
<linearGradient id="paint0_linear_2796_19541" x1="73.6503" y1="16.1842" x2="73.6503" y2="115.239" gradientUnits="userSpaceOnUse">
<stop offset="0.0188" stop-color="#FDE04C"/>
<stop offset="1" stop-color="#FE884D"/>
</linearGradient>
</defs>
</svg>
