<svg width="183" height="225" viewBox="0 0 183 225" fill="none" xmlns="http://www.w3.org/2000/svg">
<path d="M155.772 237.21C155.458 274.447 154.209 320.489 152.329 323.862C150.453 327.23 129.792 322.949 108.817 323.862C105.194 324.022 102.107 324.238 99.4636 324.457C86.8044 325.507 84.282 326.647 81.505 321.911C81.2386 321.457 80.988 320.321 80.7569 318.602C79.292 307.866 78.489 274.455 78.3676 243.649C78.3519 241.421 78.348 239.2 78.348 237.01C78.3206 213.4 78.7084 192.484 79.5113 186.233C80.7882 176.296 104.458 171.102 122.44 168.587C133.634 167.017 142.619 166.484 142.619 166.484C142.619 166.484 144.409 170.941 146.665 178.403C150.613 191.407 155.975 213.553 155.772 237.21Z" fill="url(#paint0_linear_2796_19017)"/>
<g opacity="0.28">
<path d="M155.773 237.21C155.459 274.447 154.21 320.49 152.33 323.862C150.454 327.23 129.792 322.949 108.818 323.862C105.195 324.023 102.108 324.238 99.4644 324.457L98.1719 323.862C98.1719 323.862 138.241 313.318 139.49 304.724C140.744 296.131 141.057 224.935 139.49 204.481C137.928 184.02 121.869 174.937 121.869 174.937C121.865 172.575 122.061 170.464 122.44 168.591C133.635 167.021 142.62 166.488 142.62 166.488C142.62 166.488 144.41 170.945 146.666 178.407C150.614 191.407 155.976 213.553 155.773 237.21Z" fill="#222956"/>
</g>
<path d="M149.9 43.1747C152.685 42.501 155.063 40.5465 156.265 37.9496C157.468 35.3489 157.413 32.2703 156.124 29.7165C154.62 26.7397 151.78 24.8949 149.031 23.1127C148.51 22.7759 147.989 22.439 147.48 22.0944C144.73 20.2339 141.499 17.2571 141.73 13.6145L140.523 13.54C140.257 17.7506 143.794 21.0603 146.806 23.0971C147.319 23.4457 147.848 23.7864 148.377 24.1272C150.989 25.8232 153.696 27.5779 155.051 30.2609C156.159 32.4583 156.206 35.2079 155.176 37.4444C154.142 39.677 152.015 41.4239 149.626 42.0035L149.9 43.1747Z" fill="#4C2359"/>
<path d="M98.7663 55.0428C99.0914 55.078 99.4204 55.0898 99.7494 55.078C102.648 54.9801 105.452 53.2097 107.07 50.4562L106.028 49.8452C104.642 52.2109 102.158 53.7894 99.7103 53.8717C97.086 53.9578 94.5362 52.1953 93.9055 49.8569C93.6275 48.8268 93.694 47.7183 93.7802 46.8723C94.027 44.4948 94.6772 42.4111 95.7112 40.6837C96.2321 39.8142 96.851 39.023 97.509 38.1887C97.9203 37.6678 98.3276 37.1468 98.7115 36.6102C101.528 32.6503 102.902 27.6016 102.483 22.7604L101.281 22.8661C101.673 27.4253 100.376 32.1842 97.7244 35.9131C97.3523 36.4379 96.9568 36.9393 96.5572 37.4445C95.907 38.2749 95.2294 39.1327 94.6693 40.0688C93.5452 41.945 92.8402 44.1971 92.5738 46.7509C92.4759 47.7027 92.4054 48.9482 92.7344 50.1742C93.4434 52.775 95.9384 54.7412 98.7663 55.0428Z" fill="#4C2359"/>
<path d="M182.986 70.949C182.986 70.949 155.945 75.3789 165.874 59.7234C172.936 48.5957 157.879 45.098 148.581 44.013C148.291 43.9778 148.005 43.9465 147.727 43.9151C147.3 43.8681 146.889 43.8329 146.489 43.7976C143.885 43.5587 142.079 43.5234 141.965 43.5234C141.962 43.5234 141.962 43.5234 141.962 43.5234C141.962 43.5234 141.962 43.5234 141.962 43.5274L141.958 43.5313C141.911 43.6879 141.1 46.1751 138.37 51.0555C138.213 51.3453 138.045 51.6391 137.865 51.9446C137.865 51.9485 137.861 51.9485 137.861 51.9563C136.776 53.8364 136.713 59.0928 137.912 65.1404C138.139 66.2958 138.417 67.4787 138.742 68.6772C138.848 69.0689 138.957 69.4606 139.071 69.8523C142.291 80.7763 149.501 92.1468 161.961 90.49C183.398 87.6268 182.986 70.949 182.986 70.949ZM161.628 61.8502C161.201 61.6583 161.851 50.4523 152.529 46.0106C152.529 46.0106 165.114 47.6596 165.948 52.8768C166.767 58.1018 162.063 62.0539 161.628 61.8502Z" fill="#4C2359"/>
<path d="M100.862 39.7672C100.862 39.7672 92.5625 18.444 98.187 9.31782C103.812 0.191637 114.121 2.29497 114.121 2.29497C114.121 2.29497 135.503 -6.17319 147.014 9.42358C158.526 25.0203 149.948 41.1811 146.168 46.2691C142.388 51.3609 132.389 53.8168 132.389 53.8168L100.862 39.7672Z" fill="#4C2359"/>
<path d="M143.195 41.5572C143.105 42.2896 142.631 42.9476 141.969 43.5195C141.965 43.5312 141.965 43.5312 141.957 43.5312C140.951 44.4125 139.517 45.1019 138.346 45.5641C137.206 46.0028 136.325 46.2495 136.325 46.2495C136.325 46.2495 136.325 46.2613 136.313 46.2691C136.251 46.3905 135.941 47.0055 135.495 47.8828C135.456 47.9573 135.412 48.0395 135.373 48.1257C135.029 48.8033 134.61 49.6141 134.167 50.464C134.053 50.6677 133.948 50.8753 133.842 51.0907C133.693 51.3649 133.548 51.6508 133.399 51.9289C133.278 52.1561 133.156 52.3872 133.035 52.6143C133.011 52.6653 132.984 52.7123 132.961 52.7632C132.769 53.1196 132.573 53.4721 132.397 53.8129H132.393C132.31 53.9656 132.224 54.1184 132.142 54.2712C132.13 54.2947 132.111 54.326 132.095 54.3573C132.024 54.4827 131.954 54.608 131.891 54.7216C131.488 55.4384 131.127 56.0651 130.842 56.5077C129.839 58.0626 120.583 59.1633 113.463 59.4179C112.025 59.4727 110.674 59.4844 109.495 59.4688C109.495 59.4688 109.444 59.4649 109.346 59.457C105.139 59.128 105.774 56.116 104.681 53.194C104.544 52.8298 104.376 52.4616 104.172 52.1012C104.16 52.0856 104.152 52.0699 104.144 52.0503C102.221 48.6544 100.937 40.3116 100.858 39.7829V39.7554C100.843 38.6626 100.882 37.6952 100.991 36.9157C101.747 31.393 104.054 29.2192 102.762 25.7254C102.664 25.4747 102.593 25.2123 102.543 24.9303C102.421 24.2723 102.417 23.5516 102.488 22.8152C102.593 21.6558 102.895 20.4494 103.24 19.3723C106.048 23.2421 115.123 19.4898 115.123 19.4898C115.3 19.8854 115.492 20.2849 115.703 20.6962C115.703 20.6962 123.435 36.1559 132.706 37.1351C133.368 37.2056 134.038 37.2056 134.704 37.1155C134.88 37.1116 135.06 37.0842 135.248 37.0176H135.264C135.264 37.0176 135.268 37.0176 135.275 37.0176C135.287 37.0176 135.291 37.0137 135.295 37.0058C135.311 37.0097 135.311 36.9941 135.318 37.0019C135.824 36.8452 136.345 36.5123 136.897 36.1128C136.901 36.101 136.901 36.0971 136.909 36.0971C136.92 36.0932 136.924 36.0854 136.936 36.0815C137.089 35.964 137.246 35.8425 137.402 35.7211C137.896 35.3294 138.401 34.9064 138.906 34.5304C139.247 34.2758 139.592 34.0408 139.94 33.845C140.175 33.7118 140.414 33.5943 140.649 33.5081C140.763 33.4611 140.869 33.4259 140.978 33.3945H140.982C141.523 33.2418 142.067 33.2418 142.6 33.4807C145.459 34.7262 143.552 38.6352 143.195 41.5572Z" fill="url(#paint1_linear_2796_19017)"/>
<path d="M106.937 34.6986C106.804 35.9755 106.134 36.9507 105.445 36.8763C104.756 36.8019 104.309 35.7091 104.442 34.4322C104.58 33.1553 105.245 32.1801 105.935 32.2545C106.624 32.325 107.075 33.4217 106.937 34.6986Z" fill="#152E51"/>
<path d="M103.831 29.9711C103.702 30.0338 105.006 28.4827 105.801 28.4005C106.596 28.3182 107.384 28.2908 107.56 28.8078C107.736 29.3288 107.893 30.0103 107.439 29.9633C106.98 29.9163 105.049 29.3797 103.831 29.9711Z" fill="#152E51"/>
<path d="M107.364 33.1947C107.317 33.6256 106.992 33.9468 106.632 33.9076C106.271 33.8684 106.021 33.4885 106.064 33.0576C106.111 32.6268 106.436 32.3056 106.796 32.3448C107.157 32.384 107.407 32.7639 107.364 33.1947Z" fill="white"/>
<path d="M121.081 35.8583C121.053 37.0803 120.392 38.0556 119.596 38.036C118.801 38.0164 118.182 37.0137 118.21 35.7956C118.237 34.5735 118.899 33.5983 119.694 33.6178C120.489 33.6374 121.104 34.6362 121.081 35.8583Z" fill="#152E51"/>
<path d="M118.817 30.0065C118.817 30.0065 118.512 30.9387 118.688 31.2246C118.864 31.5066 119.941 31.252 121.007 32.0002C122.072 32.7483 123.016 33.324 123.016 33.324C123.016 33.324 122.601 31.7965 121.955 30.8839C121.305 29.9673 118.998 29.1605 118.817 30.0065Z" fill="#152E51"/>
<path d="M121.429 34.6599C121.386 35.0712 121.018 35.3689 120.607 35.3258C120.195 35.2827 119.898 34.9145 119.941 34.5033C119.984 34.092 120.352 33.7943 120.763 33.8374C121.174 33.8805 121.472 34.2487 121.429 34.6599Z" fill="white"/>
<path d="M140.986 33.4062C139.6 33.7862 138.209 35.1375 136.913 36.1049C137.958 35.4782 139.415 34.5617 140.986 33.4062Z" fill="url(#paint2_linear_2796_19017)"/>
<path d="M135.255 37.0295C135.271 37.0295 135.282 37.0256 135.298 37.0256C135.298 37.0256 135.302 37.0256 135.309 37.0217C135.286 37.0217 135.267 37.0333 135.255 37.0295Z" fill="url(#paint3_linear_2796_19017)"/>
<path opacity="0.62" d="M111.285 36.6768C111.974 37.5855 112.531 38.6156 111.959 39.7319C111.367 40.8795 108.402 42.2896 110.56 43.5978C111.187 43.9777 110.509 44.8982 109.883 44.5183C108.86 43.8994 108.363 42.6774 108.868 41.5454C109.609 39.8886 112.033 39.5439 110.4 37.3936C109.953 36.81 110.842 36.0932 111.285 36.6768Z" fill="#C14276"/>
<path d="M137.864 51.9562C138.021 52.0933 138.197 52.2578 138.401 52.4144C139.45 52.5006 140.802 52.1324 142.545 50.8125C146.195 48.0159 148.451 44.6082 149.074 42.9749C149.223 42.5911 149.239 42.2268 149.184 41.9291C149.039 41.8038 148.937 41.745 148.937 41.745C148.04 40.7032 144.926 46.5705 142.878 48.478C140.837 50.3855 136.948 51.0945 137.864 51.9562Z" fill="url(#paint4_linear_2796_19017)"/>
<path d="M137.864 51.9562C138.021 52.0933 138.197 52.2578 138.401 52.4144C139.45 52.5006 140.802 52.1324 142.545 50.8125C146.195 48.0159 148.451 44.6082 149.074 42.9749C149.223 42.5911 149.239 42.2268 149.184 41.9291C149.039 41.8038 148.937 41.745 148.937 41.745C148.04 40.7032 144.926 46.5705 142.878 48.478C140.837 50.3855 136.948 51.0945 137.864 51.9562Z" fill="url(#paint5_linear_2796_19017)"/>
<path d="M138.949 73.2715C138.949 73.2715 137.347 74.2782 134.829 75.6451C128.648 79.0136 112.471 104.105 105.625 102.299C95.9894 99.761 99.7848 72.0456 99.7848 72.0456C99.7848 72.0456 106.455 70.8078 108.132 69.1354C109.953 67.318 112.044 65.058 112.832 63.5343C113.306 62.6335 113.466 61.1098 113.462 59.4177C120.583 59.1632 129.842 58.0664 130.841 56.5076C130.912 56.394 130.99 56.2725 131.068 56.1433C131.374 55.638 131.738 54.9957 132.138 54.271C132.224 54.1222 132.306 53.9695 132.392 53.8128C132.431 53.7384 132.475 53.66 132.518 53.5778C132.659 53.3114 132.808 53.0373 132.956 52.7631C133.99 50.8321 135.068 48.7248 135.718 47.444C135.765 47.3539 135.808 47.2599 135.851 47.1777C136.105 46.6842 136.27 46.3552 136.313 46.269C136.325 46.2572 136.325 46.2494 136.325 46.2494C136.325 46.2494 137.206 45.9987 138.346 45.564C138.13 46.1828 137.089 49.2144 135.976 52.6847C134.445 57.4593 132.768 63.0761 132.898 64.4313C132.921 64.6702 132.999 64.9483 133.121 65.2538C133.513 66.2604 134.366 67.5647 135.303 68.8299C136.168 70.0049 137.104 71.1408 137.809 71.9751C138.483 72.7623 138.949 73.2715 138.949 73.2715Z" fill="url(#paint6_linear_2796_19017)"/>
<path opacity="0.43" d="M112.096 69.727C111.454 71.8812 126.322 63.4326 129.964 59.5667C133.486 55.8183 136.161 46.8449 136.317 46.277C136.086 46.7392 132.361 54.1459 130.846 56.5116C129.843 58.0705 120.588 59.1672 113.467 59.4218C114.775 61.1648 112.726 67.557 112.096 69.727Z" fill="#C14276"/>
<path opacity="0.43" d="M109.146 51.2119C111.622 51.1962 114.532 50.9534 116.283 48.9872C116.972 48.2155 115.891 46.9974 115.194 47.7808C113.737 49.418 111.305 49.5786 109.248 49.5903C108.206 49.5943 108.101 51.2158 109.146 51.2119Z" fill="#C14276"/>
<path d="M156.959 83.6002C157.084 82.8285 157.147 82.4016 157.147 82.4016C157.28 82.9265 157.214 83.2907 156.959 83.6002Z" fill="white"/>
<path d="M90.1652 75.3241C90.1652 75.3241 68.2663 126.583 66.3353 128.001C64.4043 129.423 23.8457 142.031 18.6833 142.169C13.521 142.302 9.7373 140.79 9.7373 140.79L12.8747 158.866C12.8747 158.866 19.1572 153.496 20.8454 153.253C22.5375 153.01 69.2377 146.986 73.0292 145.294C76.8246 143.602 105.617 117.097 105.617 117.097L90.1652 75.3241Z" fill="url(#paint7_linear_2796_19017)"/>
<path d="M158.435 82.4018C158.435 82.4018 158.561 83.9059 158.435 84.6775C158.083 86.914 155.788 90.9875 154.691 97.2035C153.488 103.976 151.965 112.013 150.382 118.891C146.842 134.257 145.557 155.901 147.167 164.079C148.777 172.254 149.423 185.136 140.402 187.228C139.705 187.388 138.996 187.204 138.283 186.711C135.659 187.028 132.201 187.181 127.641 187.224C113.333 187.365 90.8233 184.411 82.9661 182.817C81.8694 182.594 81.0587 182.398 80.5926 182.238C79.3627 181.818 79.4723 178.681 80.1774 174.31C80.62 171.513 81.3132 168.208 82.0418 164.788C83.3539 158.654 84.7992 152.141 85.2183 147.503C85.3202 146.407 85.3632 145.412 85.3358 144.558C85.0538 136.266 80.5103 125.831 78.8261 119.232C78.5441 118.147 78.3443 117.16 78.2503 116.31C77.6079 110.286 88.5594 78.8649 90.1653 75.3241C91.7751 71.7794 102.723 69.2021 102.723 69.2021C100.466 78.5398 105.296 94.3207 110.45 94.3207C115.605 94.3207 135.569 75.3241 137.249 73.7104C138.93 72.1006 138.467 72.4257 142.404 73.3931C146.344 74.3606 158.247 77.2551 158.435 82.4018Z" fill="url(#paint8_linear_2796_19017)"/>
<path opacity="0.36" d="M150.382 118.891C146.841 134.256 145.557 155.901 147.166 164.079C148.776 172.253 149.422 185.136 140.402 187.227C139.705 187.388 138.996 187.204 138.283 186.71C135.659 187.028 132.2 187.18 127.641 187.224C113.333 187.365 90.8229 184.411 82.9658 182.817L80.177 174.31C80.6196 171.513 81.3129 168.207 82.0414 164.788C93.8428 167.514 121.072 173.652 123.336 172.9C126.235 171.932 139.76 162.273 142.407 160.985C145.055 159.696 144.268 152.289 134.605 149.391C124.946 146.493 85.2179 147.507 85.2179 147.507C85.3198 146.41 85.3629 145.415 85.3354 144.562C85.0534 136.27 80.5099 125.835 78.8257 119.235C81.5635 119.933 84.8106 120.692 88.2339 121.374C97.5716 123.231 103.047 119.443 103.047 119.443C103.047 119.443 103.047 119.443 105.946 121.374C108.844 123.305 133.963 124.598 137.253 121.374C140.547 118.15 143.864 94.4498 143.864 94.4498C148.236 93.8858 151.796 94.9629 154.691 97.2033C153.488 103.975 151.964 112.013 150.382 118.891Z" fill="#98269E"/>
<path d="M143.865 94.4459C143.865 94.4459 141.21 106.388 143.865 114.845C146.521 123.305 154.57 104.645 154.57 104.645L143.865 94.4459Z" fill="url(#paint9_linear_2796_19017)"/>
<path d="M196.918 143.594C194.744 151.808 154.651 174.388 153.202 175.716C151.753 177.044 150.182 181.149 147.405 181.149C144.628 181.149 142.333 176.558 141.366 176.558C140.398 176.558 138.831 178.129 137.249 178.611C135.671 179.092 133.395 178.971 133.152 178.611C132.909 178.25 138.585 174.627 139.795 174.02C141.001 173.417 146.195 174.365 146.195 174.365C146.195 174.365 141.969 173.178 141.001 172.935C140.034 172.692 137.378 174.141 135.083 174.627C132.788 175.109 132.063 174.749 131.217 174.627C130.371 174.506 137.617 171.004 138.585 170.409C139.513 169.837 142.983 170.362 143.273 170.405C142.987 170.287 139.29 168.838 138.824 169.053C138.342 169.277 135.079 170.041 133.751 170.279C132.423 170.522 130.493 170.522 130.25 169.449C130.007 168.372 137.856 166.417 138.945 165.571C140.03 164.725 144.499 167.264 146.673 169.053C148.847 170.847 151.502 166.296 157.201 160.378C162.9 154.459 177.827 141.659 177.345 138.761C176.864 135.862 148.447 113.321 144.307 100.447C141.71 92.3544 147.441 87.3095 152.066 84.6735C154.8 83.1146 157.143 82.3978 157.143 82.3978C157.143 82.3978 199.092 135.381 196.918 143.594Z" fill="url(#paint10_linear_2796_19017)"/>
<path d="M0.42316 119.486L9.81569 174.604C10.1251 176.425 11.8446 177.663 13.6698 177.381L52.697 171.333C54.5692 171.043 55.8422 169.269 55.5132 167.4L45.917 112.992C45.5997 111.202 43.9272 109.98 42.1216 110.227L3.2981 115.565C1.40628 115.824 0.101981 117.602 0.42316 119.486Z" fill="url(#paint11_linear_2796_19017)"/>
<path d="M62.3089 161.623L52.4737 163.691L22.9448 169.903C22.9448 169.903 15.452 167.745 12.2363 156.958C12.1932 156.813 12.1501 156.664 12.107 156.516C12.107 156.508 12.1031 156.492 12.0992 156.48C10.8497 152.152 9.51408 145.697 8.38995 139.403C8.38604 139.364 8.38212 139.344 8.38212 139.344C6.64305 129.595 5.41317 120.242 5.79702 119.76C6.4433 118.953 15.4559 115.894 15.4559 115.894C15.4559 115.894 41.5419 114.12 42.6699 113.865C43.7941 113.611 46.3713 142.298 50.3978 149.865C54.4204 157.44 62.3089 161.623 62.3089 161.623Z" fill="url(#paint12_linear_2796_19017)"/>
<path d="M12.691 118.158L11.6335 112.757C11.5238 112.193 11.9076 111.653 12.4756 111.574L32.2203 108.789C32.749 108.715 33.2426 109.068 33.3444 109.592L34.2648 114.414C34.3706 114.966 34.0024 115.495 33.4501 115.589L13.8426 118.954C13.306 119.048 12.7968 118.691 12.691 118.158Z" fill="url(#paint13_linear_2796_19017)"/>
<path d="M52.6499 166.938C52.3327 168.552 18.1937 173.863 16.905 174.024C16.2588 174.106 14.0928 165.281 12.1069 156.512C12.15 156.661 12.1931 156.809 12.2362 156.954C15.4519 167.741 22.9448 169.899 22.9448 169.899L52.4737 163.687C52.6538 165.156 52.7557 166.417 52.6499 166.938Z" fill="#222956"/>
<g opacity="0.61">
<path d="M13.5249 129.435C14.0341 128.941 14.3984 128.256 14.794 127.676C15.3345 126.881 15.875 126.086 16.4155 125.291C16.9404 124.519 15.687 123.791 15.1661 124.558C14.6255 125.353 14.085 126.149 13.5445 126.944C13.3095 127.288 13.0901 127.774 12.7885 128.056C12.2324 128.581 11.9817 128.463 11.4764 127.942C10.8262 127.269 9.80393 128.295 10.4502 128.969C11.3119 129.858 12.4909 130.437 13.5249 129.435Z" fill="#222956"/>
<path d="M15.9139 140.476C16.4427 140.178 16.7795 139.532 17.1046 139.05C17.6765 138.197 18.2248 137.327 18.7575 136.45C19.2432 135.651 17.9898 134.922 17.508 135.717C16.9754 136.595 16.427 137.464 15.8551 138.318C15.4791 138.878 15.0835 139.438 14.4294 138.8C14.1317 138.51 13.8811 138.197 13.5521 137.934C12.8314 137.354 11.8012 138.377 12.5258 138.96C13.4737 139.724 14.4764 141.279 15.9139 140.476Z" fill="#222956"/>
<path d="M18.3543 145.631C17.9234 146.344 17.4926 147.057 17.0617 147.769C16.9716 147.918 16.8816 148.071 16.7876 148.22C16.7641 148.259 16.7406 148.294 16.7171 148.333C16.4272 148.149 15.8867 147.852 15.8123 147.809C15.0172 147.319 14.2886 148.572 15.0798 149.058C15.8789 149.548 16.8855 150.441 17.6923 149.485C18.0488 149.066 18.2955 148.517 18.5815 148.047C18.9222 147.483 19.263 146.919 19.6038 146.359C20.0894 145.564 18.8361 144.832 18.3543 145.631Z" fill="#222956"/>
<path d="M34.7732 123.035C30.124 123.607 25.506 124.351 20.9155 125.271C20.0029 125.455 20.3868 126.85 21.2994 126.669C25.7645 125.773 30.2532 125.044 34.7732 124.484C35.6858 124.37 35.6976 122.921 34.7732 123.035Z" fill="#222956"/>
<path d="M37.3231 134.374C32.5289 135.329 27.7112 136.128 22.8622 136.767C21.9496 136.888 21.9378 138.338 22.8622 138.216C27.8366 137.562 32.7874 136.751 37.707 135.772C38.6235 135.588 38.2357 134.19 37.3231 134.374Z" fill="#222956"/>
<path d="M39.2505 143.347C34.6952 144.181 30.1361 145.012 25.5808 145.846C24.6643 146.014 25.052 147.409 25.9646 147.244C30.5199 146.41 35.0791 145.58 39.6343 144.745C40.5509 144.577 40.1631 143.179 39.2505 143.347Z" fill="#222956"/>
</g>
<path d="M13.8851 144.683C14.0887 144.957 14.2572 145.384 14.2023 146.007C14.0848 147.374 12.7962 147.699 11.1041 148.745C9.41207 149.787 9.32982 149.062 8.0451 150.836C6.75647 152.611 6.4157 154.691 6.4157 154.691C6.4157 154.691 3.44284 150.938 2.33438 147.256C2.33438 147.256 1.28467 142.313 2.09154 140.7C2.89449 139.086 9.81942 136.473 9.73717 137.218C9.65491 137.958 10.783 136.704 9.73717 138.22C8.96555 139.341 6.09844 140.79 6.09844 140.79L4.82156 145.271C4.95865 145.102 7.09331 142.349 7.55941 142.165C8.04118 141.98 14.0065 140.821 14.1671 141.883C14.3042 142.795 13.9987 143.242 13.7402 143.618C13.6971 143.68 13.6579 143.743 13.6187 143.802C13.3524 144.233 13.3524 144.233 13.3524 144.233C13.3524 144.233 13.6461 144.358 13.8851 144.683Z" fill="url(#paint14_linear_2796_19017)"/>
<path opacity="0.43" d="M13.8851 144.683C10.2268 145.392 6.83879 146.822 6.68604 146.884C6.72912 146.845 7.15605 146.469 9.49831 144.957C10.6029 144.237 12.2557 143.841 13.7481 143.618C13.705 143.68 13.6658 143.743 13.6266 143.802C13.3603 144.233 13.3603 144.233 13.3603 144.233C13.3603 144.233 13.6462 144.358 13.8851 144.683Z" fill="#C14276"/>
<defs>
<linearGradient id="paint0_linear_2796_19017" x1="78.3524" y1="245.935" x2="155.779" y2="245.935" gradientUnits="userSpaceOnUse">
<stop stop-color="#955BED"/>
<stop offset="1" stop-color="#204CE0"/>
</linearGradient>
<linearGradient id="paint1_linear_2796_19017" x1="121.145" y1="34.9155" x2="133.091" y2="71.6064" gradientUnits="userSpaceOnUse">
<stop offset="0.3868" stop-color="#FFBD9F"/>
<stop offset="1" stop-color="#EF72A6"/>
</linearGradient>
<linearGradient id="paint2_linear_2796_19017" x1="139.018" y1="34.6022" x2="137.55" y2="37.8873" gradientUnits="userSpaceOnUse">
<stop offset="0.3868" stop-color="#FFBD9F"/>
<stop offset="1" stop-color="#EF72A6"/>
</linearGradient>
<linearGradient id="paint3_linear_2796_19017" x1="135.28" y1="37.0244" x2="135.269" y2="37.0481" gradientUnits="userSpaceOnUse">
<stop offset="0.3868" stop-color="#FFBD9F"/>
<stop offset="1" stop-color="#EF72A6"/>
</linearGradient>
<linearGradient id="paint4_linear_2796_19017" x1="148.659" y1="47.5576" x2="138.28" y2="46.4585" gradientUnits="userSpaceOnUse">
<stop stop-color="white"/>
<stop offset="0.8703" stop-color="#CFBBEA"/>
</linearGradient>
<linearGradient id="paint5_linear_2796_19017" x1="148.659" y1="47.5576" x2="138.28" y2="46.4585" gradientUnits="userSpaceOnUse">
<stop stop-color="white"/>
<stop offset="0.8703" stop-color="#CFBBEA"/>
</linearGradient>
<linearGradient id="paint6_linear_2796_19017" x1="118.997" y1="45.5666" x2="118.997" y2="102.394" gradientUnits="userSpaceOnUse">
<stop stop-color="#EF72A6"/>
<stop offset="0.6132" stop-color="#FFBD9F"/>
</linearGradient>
<linearGradient id="paint7_linear_2796_19017" x1="9.7402" y1="117.096" x2="105.623" y2="117.096" gradientUnits="userSpaceOnUse">
<stop offset="0.3868" stop-color="#FFBD9F"/>
<stop offset="1" stop-color="#EF72A6"/>
</linearGradient>
<linearGradient id="paint8_linear_2796_19017" x1="86.9688" y1="68.4289" x2="147.288" y2="186.717" gradientUnits="userSpaceOnUse">
<stop offset="0.0188" stop-color="#FDB6BC"/>
<stop offset="0.8108" stop-color="#FB5CB0"/>
</linearGradient>
<linearGradient id="paint9_linear_2796_19017" x1="148.629" y1="94.4464" x2="148.629" y2="117.047" gradientUnits="userSpaceOnUse">
<stop stop-color="#FFBD9F"/>
<stop offset="1" stop-color="#EF72A6"/>
</linearGradient>
<linearGradient id="paint10_linear_2796_19017" x1="165.548" y1="163.315" x2="174.36" y2="193.278" gradientUnits="userSpaceOnUse">
<stop offset="0.3868" stop-color="#FFBD9F"/>
<stop offset="1" stop-color="#EF72A6"/>
</linearGradient>
<linearGradient id="paint11_linear_2796_19017" x1="0.977075" y1="116.915" x2="54.5059" y2="170.444" gradientUnits="userSpaceOnUse">
<stop stop-color="#4C5F9B"/>
<stop offset="0.6962" stop-color="#27316F"/>
</linearGradient>
<linearGradient id="paint12_linear_2796_19017" x1="5.7226" y1="141.887" x2="62.3093" y2="141.887" gradientUnits="userSpaceOnUse">
<stop stop-color="#CEEDE0"/>
<stop offset="0.9812" stop-color="white"/>
</linearGradient>
<linearGradient id="paint13_linear_2796_19017" x1="11.6151" y1="113.873" x2="34.2831" y2="113.873" gradientUnits="userSpaceOnUse">
<stop offset="0.0188" stop-color="#FDB6BC"/>
<stop offset="0.8108" stop-color="#FB5CB0"/>
</linearGradient>
<linearGradient id="paint14_linear_2796_19017" x1="1.78845" y1="145.89" x2="14.2132" y2="145.89" gradientUnits="userSpaceOnUse">
<stop stop-color="#EF72A6"/>
<stop offset="0.6132" stop-color="#FFBD9F"/>
</linearGradient>
</defs>
</svg>
