<svg width="164" height="120" viewBox="0 0 164 120" fill="none" xmlns="http://www.w3.org/2000/svg">
<path d="M81.6088 154.825C41.0579 154.825 8.18486 121.996 8.18486 81.5004C8.18486 41.0043 41.0579 8.17566 81.6088 8.17566C122.16 8.17566 155.033 41.0043 155.033 81.5004C155.033 121.996 122.16 154.825 81.6088 154.825Z" fill="url(#paint0_linear_2796_19553)"/>
<path opacity="0.46" d="M40.8054 122.25C18.2693 99.7444 18.2693 63.2556 40.8054 40.75C63.3414 18.2444 99.8795 18.2444 122.416 40.75C144.952 63.2556 144.952 99.7444 122.416 122.25C99.8795 144.756 63.3414 144.756 40.8054 122.25Z" fill="#C1338B"/>
<path d="M43.7511 119.308C22.8423 98.4271 22.8423 64.5729 43.7511 43.6923C64.66 22.8117 98.56 22.8117 119.469 43.6923C140.378 64.5729 140.378 98.4271 119.469 119.308C98.5599 140.188 64.66 140.188 43.7511 119.308Z" fill="#FDE090"/>
<path d="M92.3623 88.6035L61.5414 96.8619L59.0186 87.4467L89.5578 79.2637C92.0525 78.5952 93.9333 77.6744 95.2001 76.5012C96.4939 75.3208 97.2927 73.9567 97.5968 72.409C97.8936 70.8345 97.8049 69.162 97.3305 67.3916C96.8633 65.6481 96.0735 64.149 94.9612 62.8946C93.8684 61.6062 92.4658 60.717 90.7533 60.2271C89.0604 59.7032 87.0873 59.7431 84.8341 60.3469L74.1715 63.2039L87.3354 112.332L75.2646 115.567L59.567 56.9828L82.2603 50.9022C86.874 49.6659 91.0364 49.4275 94.7474 50.1869C98.4852 50.9391 101.624 52.5131 104.163 54.9089C106.703 57.3047 108.468 60.3535 109.46 64.0552C110.502 67.9447 110.485 71.5287 109.409 74.8072C108.359 78.0784 106.382 80.8938 103.478 83.2532C100.601 85.6054 96.8956 87.3888 92.3623 88.6035ZM95.4594 91.3099L97.9822 100.725L64.9482 109.577L62.4254 100.161L95.4594 91.3099Z" fill="#DA5B72"/>
<path opacity="0.22" d="M28.073 103.045C36.6114 124.197 57.3652 139.13 81.6084 139.13C113.485 139.13 139.322 113.328 139.322 81.4947C139.322 58.1257 125.393 38.0081 105.373 28.9697C108.066 35.632 109.546 42.9025 109.546 50.5141C109.546 82.3361 83.7088 108.149 51.8324 108.149C43.3567 108.149 35.3192 106.325 28.073 103.045Z" fill="#C1338B"/>
<defs>
<linearGradient id="paint0_linear_2796_19553" x1="81.6105" y1="16.6164" x2="81.6105" y2="144.866" gradientUnits="userSpaceOnUse">
<stop offset="0.0188" stop-color="#FDE090"/>
<stop offset="1" stop-color="#FE9A81"/>
</linearGradient>
</defs>
</svg>
