<svg width="24" height="24" viewBox="0 0 24 24" fill="none" xmlns="http://www.w3.org/2000/svg">
<path fill-rule="evenodd" clip-rule="evenodd" d="M4.25 7C4.25 5.48122 5.48122 4.25 7 4.25H17.5C19.0188 4.25 20.25 5.48122 20.25 7V13.073V13.909C19.8448 13.0749 18.9896 12.5 18 12.5C16.6193 12.5 15.5 13.6193 15.5 15V15.5H15C13.6193 15.5 12.5 16.6193 12.5 18C12.5 18.9896 13.0749 19.8448 13.909 20.25H7C5.48122 20.25 4.25 19.0188 4.25 17.5V16.25V7ZM18.75 7V12.1206L16.8356 9.68948C16.0163 8.73582 14.5315 8.76599 13.7513 9.75018L13.7414 9.76295L13.7226 9.78722L13.7225 9.78733L13.7222 9.7878C13.525 10.0427 12.1581 11.8099 11.165 13.073L10.8356 12.6895C10.0145 11.7337 8.5249 11.7661 7.74619 12.7567L5.75 15.296V7C5.75 6.30964 6.30964 5.75 7 5.75H17.5C18.1904 5.75 18.75 6.30964 18.75 7Z" fill="#1C1C1C"/>
<path d="M18 15V18M18 18V21M18 18H21M18 18H15" stroke="#1C1C1C" stroke-width="1.5" stroke-linecap="round" stroke-linejoin="round"/>
</svg>
