<svg width="24" height="24" viewBox="0 0 24 24" xmlns="http://www.w3.org/2000/svg">
<path fill-rule="evenodd" clip-rule="evenodd" d="M4.25 7C4.25 5.48122 5.48122 4.25 7 4.25H17C18.5188 4.25 19.75 5.48122 19.75 7V13C19.75 13.4142 19.4142 13.75 19 13.75C18.5858 13.75 18.25 13.4142 18.25 13V12.3403L15.9551 10.3323C15.4495 9.88988 14.6846 9.9263 14.2232 10.4148L11.8357 12.9428L12.9881 13.9306C13.3026 14.2001 13.339 14.6736 13.0694 14.9881C12.7999 15.3026 12.3264 15.339 12.0119 15.0694L9.9181 13.2747C9.42217 12.8497 8.68259 12.8781 8.22073 13.3399L5.75 15.8107V17C5.75 17.6904 6.30964 18.25 7 18.25H11C11.4142 18.25 11.75 18.5858 11.75 19C11.75 19.4142 11.4142 19.75 11 19.75H7C5.48122 19.75 4.25 18.5188 4.25 17V7ZM5.75 13.6893L7.16007 12.2793C8.1136 11.3257 9.60522 11.212 10.6869 11.9745L13.1327 9.38482C14.1476 8.3102 15.8305 8.2301 16.9429 9.20345L18.25 10.3472V7C18.25 6.30964 17.6904 5.75 17 5.75H7C6.30964 5.75 5.75 6.30964 5.75 7V13.6893ZM17 14.25C17.4142 14.25 17.75 14.5858 17.75 15V17.25H20C20.4142 17.25 20.75 17.5858 20.75 18C20.75 18.4142 20.4142 18.75 20 18.75H17.75V21C17.75 21.4142 17.4142 21.75 17 21.75C16.5858 21.75 16.25 21.4142 16.25 21V18.75H14C13.5858 18.75 13.25 18.4142 13.25 18C13.25 17.5858 13.5858 17.25 14 17.25H16.25V15C16.25 14.5858 16.5858 14.25 17 14.25Z"/>
</svg>
