<svg width="24" height="24" viewBox="0 0 24 24" fill="none" xmlns="http://www.w3.org/2000/svg">
<path d="M5 15.5V17C5 18.1046 5.89543 19 7 19H11M5 15.5V7C5 5.89543 5.89543 5 7 5H17C18.1046 5 19 5.89543 19 7V12M5 15.5L7.6904 12.8096C8.42937 12.0706 9.61271 12.0252 10.4062 12.7053L10.75 13M10.75 13L12.5 14.5M10.75 13L13.678 9.89979C14.4161 9.11825 15.64 9.05999 16.449 9.76788L19 12M19 12V13M17 15V18M17 18V21M17 18H20M17 18H14" stroke="#1C1C1C" stroke-width="1.5" stroke-linecap="round" stroke-linejoin="round"/>
</svg>
