<svg width="24" height="24" viewBox="0 0 24 24" xmlns="http://www.w3.org/2000/svg">
<path fill-rule="evenodd" clip-rule="evenodd" d="M12.0002 2.27124C12.4144 2.27124 12.7502 2.60703 12.7502 3.02124V3.96637C12.7502 4.38059 12.4144 4.71637 12.0002 4.71637C11.5859 4.71637 11.2502 4.38059 11.2502 3.96637V3.02124C11.2502 2.60703 11.5859 2.27124 12.0002 2.27124ZM4.52219 4.52202C4.81508 4.22912 5.28996 4.22912 5.58285 4.52202L6.52798 5.46715C6.82088 5.76004 6.82088 6.23492 6.52798 6.52781C6.23509 6.8207 5.76022 6.8207 5.46732 6.52781L4.52219 5.58268C4.2293 5.28978 4.2293 4.81491 4.52219 4.52202ZM19.4781 4.52202C19.771 4.81491 19.771 5.28978 19.4781 5.58268L18.533 6.52781C18.2401 6.8207 17.7652 6.8207 17.4723 6.52781C17.1794 6.23492 17.1794 5.76004 17.4723 5.46715L18.4175 4.52202C18.7104 4.22912 19.1852 4.22912 19.4781 4.52202ZM12.0002 7.24812C15.0996 7.18189 17.6718 9.63357 17.752 12.735L17.7522 12.7544V17.2556C18.4512 17.297 19.0627 17.7529 19.2983 18.4193L19.6521 19.4198C19.8415 19.9555 19.7591 20.5499 19.4311 21.0139C19.103 21.4779 18.5701 21.7537 18.0018 21.7537H5.95333C5.39774 21.7537 4.87516 21.49 4.54516 21.043C4.21516 20.5961 4.11693 20.019 4.28047 19.4881L4.5886 18.4876C4.81344 17.7577 5.48535 17.2583 6.24807 17.2525V12.7544L6.24832 12.735C6.32848 9.63357 8.90068 7.18189 12.0002 7.24812ZM6.26147 18.7525C6.15156 18.7525 6.0545 18.8241 6.02215 18.9292C6.02215 18.9292 6.02215 18.9292 6.02215 18.9292L5.71402 19.9296C5.69062 20.0055 5.70467 20.0881 5.75188 20.1521C5.79909 20.216 5.87385 20.2537 5.95333 20.2537H18.0018C18.0831 20.2537 18.1594 20.2143 18.2063 20.1479C18.2532 20.0815 18.265 19.9965 18.2379 19.9198L17.8841 18.9194C17.8488 18.8194 17.7542 18.7525 17.6481 18.7525H6.26147ZM16.2522 17.2525H7.74807V12.7645C7.8119 10.4887 9.70457 8.69213 11.9817 8.74809C11.994 8.74839 12.0063 8.74839 12.0186 8.74809C14.2957 8.69213 16.1884 10.4887 16.2522 12.7645V17.2525ZM1.30127 12C1.30127 11.5858 1.63706 11.25 2.05127 11.25H2.9964C3.41062 11.25 3.7464 11.5858 3.7464 12C3.7464 12.4142 3.41062 12.75 2.9964 12.75H2.05127C1.63706 12.75 1.30127 12.4142 1.30127 12ZM20.2289 12C20.2289 11.5858 20.5647 11.25 20.9789 11.25H21.924C22.3382 11.25 22.674 11.5858 22.674 12C22.674 12.4142 22.3382 12.75 21.924 12.75H20.9789C20.5647 12.75 20.2289 12.4142 20.2289 12ZM14.001 12.2504C14.4152 12.2504 14.751 12.5862 14.751 13.0004V15.0012C14.751 15.4154 14.4152 15.7512 14.001 15.7512C13.5868 15.7512 13.251 15.4154 13.251 15.0012V13.0004C13.251 12.5862 13.5868 12.2504 14.001 12.2504Z"/>
</svg>
