<svg width="24" height="24" viewBox="0 0 24 24" xmlns="http://www.w3.org/2000/svg">
<path fill-rule="evenodd" clip-rule="evenodd" d="M4.85491 17.5039C4.47397 18.1705 4.95533 19 5.72316 19H18.2768C19.0446 19 19.526 18.1705 19.145 17.5039L12.8682 6.51943C12.4843 5.84761 11.5156 5.84761 11.1317 6.51942L4.85491 17.5039ZM12.75 10.7037C12.75 10.2895 12.4142 9.95367 12 9.95367C11.5858 9.95367 11.25 10.2895 11.25 10.7037V13.2963C11.25 13.7105 11.5858 14.0463 12 14.0463C12.4142 14.0463 12.75 13.7105 12.75 13.2963V10.7037ZM12.75 16.4074C12.75 15.9932 12.4142 15.6574 12 15.6574C11.5858 15.6574 11.25 15.9932 11.25 16.4074V16.9259C11.25 17.3401 11.5858 17.6759 12 17.6759C12.4142 17.6759 12.75 17.3401 12.75 16.9259V16.4074Z"/>
</svg>
