<svg width="24" height="24" viewBox="0 0 24 24" xmlns="http://www.w3.org/2000/svg">
<path fill-rule="evenodd" clip-rule="evenodd" d="M12.2172 6.89153C12.1212 6.72357 11.879 6.72358 11.783 6.89153L5.50623 17.876C5.41099 18.0426 5.53133 18.25 5.72329 18.25H18.2769C18.4689 18.25 18.5892 18.0426 18.494 17.876L12.2172 6.89153ZM10.4807 6.14732C11.1525 4.97164 12.8477 4.97165 13.5195 6.14732L19.7964 17.1318C20.463 18.2984 19.6206 19.75 18.2769 19.75H5.72329C4.3796 19.75 3.53721 18.2984 4.20386 17.1318L10.4807 6.14732ZM12.0001 9.9537C12.4143 9.9537 12.7501 10.2895 12.7501 10.7037V13.2963C12.7501 13.7105 12.4143 14.0463 12.0001 14.0463C11.5859 14.0463 11.2501 13.7105 11.2501 13.2963V10.7037C11.2501 10.2895 11.5859 9.9537 12.0001 9.9537ZM12.0001 15.6574C12.4143 15.6574 12.7501 15.9932 12.7501 16.4074V16.9259C12.7501 17.3401 12.4143 17.6759 12.0001 17.6759C11.5859 17.6759 11.2501 17.3401 11.2501 16.9259V16.4074C11.2501 15.9932 11.5859 15.6574 12.0001 15.6574Z"/>
</svg>
