<svg width="24" height="24" viewBox="0 0 24 24" xmlns="http://www.w3.org/2000/svg">
<path d="M18.5018 5.49564C16.5077 3.50145 13.2629 3.50145 11.2685 5.49564L5.0682 11.6959C3.64385 13.1204 3.64395 15.4382 5.06839 16.8626C5.78067 17.5748 6.71598 17.931 7.65167 17.9309C8.58711 17.9308 9.52292 17.5748 10.2351 16.8626L15.9185 11.179C16.3325 10.765 16.5606 10.2146 16.5607 9.62905C16.5607 9.04352 16.3327 8.49308 15.9186 8.07896C15.0638 7.2243 13.6731 7.22433 12.8185 8.07911L9.10177 11.7957C8.81642 12.0811 8.81642 12.5437 9.10171 12.8291C9.38702 13.1145 9.84968 13.1144 10.1351 12.8291L13.8518 9.11243C14.1367 8.82752 14.6002 8.82746 14.8852 9.11237C15.0232 9.25037 15.0992 9.43387 15.0992 9.62902C15.0992 9.82418 15.0232 10.0076 14.8852 10.1457L9.20174 15.8292C8.34702 16.6838 6.95639 16.6839 6.10173 15.8292C5.24708 14.9745 5.24701 13.5838 6.10158 12.7291L12.3018 6.52899C13.7264 5.10449 16.0442 5.10449 17.4685 6.52899C18.1586 7.21899 18.5387 8.13646 18.5387 9.1123C18.5387 10.0881 18.1586 11.0056 17.4685 11.6957L11.2684 17.896C10.9831 18.1813 10.9831 18.644 11.2684 18.9293C11.4111 19.0721 11.5981 19.1433 11.7851 19.1433C11.9721 19.1433 12.1591 19.072 12.3018 18.9293L18.5018 12.7291C19.4679 11.763 20 10.4786 20 9.11233C20 7.74611 19.4679 6.46167 18.5018 5.49564Z"/>
</svg>
