<svg width="24" height="24" viewBox="0 0 24 24" xmlns="http://www.w3.org/2000/svg">
<path d="M18.5018 5.49564C16.5077 3.50145 13.2629 3.50145 11.2685 5.49564L5.0682 11.6959C3.64386 13.1204 3.64395 15.4382 5.06839 16.8626C5.78067 17.5748 6.71598 17.931 7.65167 17.9309C8.58711 17.9308 9.52292 17.5748 10.2351 16.8626L15.9185 11.179C16.3325 10.765 16.5606 10.2146 16.5607 9.62905C16.5607 9.04352 16.3327 8.49308 15.9186 8.07896C15.0638 7.2243 13.6731 7.22433 12.8185 8.07911L9.10177 11.7957C8.81642 12.0811 8.81642 12.5437 9.10171 12.8291C9.38702 13.1145 9.84968 13.1144 10.1351 12.8291L13.8518 9.11243C14.1367 8.82752 14.6002 8.82746 14.8852 9.11237C15.0232 9.25037 15.0992 9.43387 15.0992 9.62902C15.0992 9.82418 15.0232 10.0076 14.8852 10.1457L9.20174 15.8292C8.34702 16.6838 6.95639 16.6839 6.10173 15.8292C5.24708 14.9745 5.24701 13.5838 6.10158 12.7291L12.3018 6.52899C13.7264 5.10449 16.0442 5.10449 17.4685 6.52899C18.1586 7.21899 18.5387 8.13646 18.5387 9.1123C18.5387 10.0881 18.1586 11.0056 17.4685 11.6957L17.3686 11.7957C17.0833 12.0811 17.0833 12.5437 17.3687 12.8291C17.5114 12.9718 17.6984 13.0431 17.8853 13.0431C18.0723 13.0431 18.2593 12.9717 18.402 12.8291L18.5018 12.7291C19.4679 11.763 20 10.4786 20 9.11233C20 7.74611 19.4679 6.46167 18.5018 5.49564Z"/>
<path fill-rule="evenodd" clip-rule="evenodd" d="M17.25 14.25C17.6642 14.25 18 14.5858 18 15V16.5H19.5C19.9142 16.5 20.25 16.8358 20.25 17.25C20.25 17.6642 19.9142 18 19.5 18H18V19.5C18 19.9142 17.6642 20.25 17.25 20.25C16.8358 20.25 16.5 19.9142 16.5 19.5V18H15C14.5858 18 14.25 17.6642 14.25 17.25C14.25 16.8358 14.5858 16.5 15 16.5H16.5V15C16.5 14.5858 16.8358 14.25 17.25 14.25Z"/>
</svg>
