<svg width="25" height="24" viewBox="0 0 25 24" fill="none" xmlns="http://www.w3.org/2000/svg">
<path fill-rule="evenodd" clip-rule="evenodd" d="M23.2205 6.17707C23.3873 5.65411 23.2205 5.27377 22.4818 5.27377H20.0274C19.4079 5.27377 19.1219 5.60657 18.9551 5.96313C18.9551 5.96313 17.6922 9.00584 15.9288 10.9788C15.3569 11.5493 15.0948 11.7395 14.785 11.7395C14.6182 11.7395 14.4037 11.5494 14.4037 11.0264V6.1533C14.4037 5.53525 14.2131 5.25 13.6888 5.25H9.82852C9.44725 5.25 9.20896 5.53525 9.20896 5.82051C9.20896 6.41478 10.0906 6.55741 10.186 8.22139V11.8346C10.186 12.619 10.043 12.7617 9.7332 12.7617C8.89918 12.7617 6.87369 9.6952 5.6584 6.20085C5.42011 5.51148 5.18182 5.25 4.56226 5.25H2.08402C1.36915 5.25 1.25 5.58279 1.25 5.93936C1.25 6.58118 2.08402 9.81406 5.13416 14.0929C7.15964 17.0167 10.043 18.5856 12.6404 18.5856C14.2131 18.5856 14.4037 18.229 14.4037 17.6348V15.424C14.4037 14.7109 14.5467 14.5921 15.0471 14.5921C15.4046 14.5921 16.0479 14.7822 17.5015 16.1847C19.1696 17.8487 19.4555 18.6094 20.3849 18.6094H22.8393C23.5541 18.6094 23.8877 18.2528 23.6971 17.5634C23.4827 16.8741 22.6725 15.8757 21.624 14.6871C21.0521 14.0215 20.1942 13.2846 19.9321 12.9281C19.5747 12.4527 19.67 12.2625 19.9321 11.8346C19.9083 11.8346 22.9108 7.60334 23.2205 6.17707Z" fill="#4680C2"/>
</svg>
