<svg width="25" height="24" viewBox="0 0 25 24" fill="none" xmlns="http://www.w3.org/2000/svg">
<path fill-rule="evenodd" clip-rule="evenodd" d="M12.5 4.5C13.6928 4.50116 14.868 4.7877 15.9274 5.33569C16.9869 5.88368 17.8998 6.67719 18.59 7.64999L16.154 9.39001C15.79 8.87369 15.3205 8.44059 14.7765 8.11941C14.2326 7.79824 13.6266 7.59631 12.9987 7.52701C12.3708 7.4577 11.7353 7.5226 11.1344 7.7174C10.5335 7.91221 9.98081 8.2325 9.513 8.65701L7.53101 6.392C8.89909 5.17301 10.6676 4.49962 12.5 4.5V4.5Z" fill="#EA4335"/>
<path fill-rule="evenodd" clip-rule="evenodd" d="M16.5 14.5H12V11.5H20V14.5C19.4685 15.8938 18.5223 17.0909 17.289 17.93L14.107 16.195C15.0657 15.901 15.9046 15.3068 16.5 14.5Z" fill="#4285F4"/>
<path fill-rule="evenodd" clip-rule="evenodd" d="M14.1389 16.212L17.2739 17.922C15.8832 18.9273 14.2159 19.4785 12.4999 19.5C11.5133 19.5019 10.536 19.3084 9.62451 18.9308C8.71299 18.5533 7.88526 17.999 7.18896 17.3L9.29791 15.163C9.71605 15.5874 10.2146 15.9242 10.7643 16.1537C11.3141 16.3833 11.9042 16.501 12.4999 16.5C13.0584 16.4951 13.6122 16.3978 14.1389 16.212V16.212Z" fill="#34A853"/>
<path fill-rule="evenodd" clip-rule="evenodd" d="M9.51308 8.65698C9.05635 9.05989 8.68677 9.55188 8.42708 10.1028C8.16739 10.6537 8.02308 11.2519 8.00295 11.8606C7.98281 12.4693 8.0873 13.0757 8.31001 13.6425C8.53273 14.2094 8.86895 14.7248 9.29805 15.157L7.1891 17.294C6.46613 16.5726 5.8991 15.7104 5.52321 14.7608C5.14732 13.8112 4.9706 12.7944 5.00398 11.7737C5.03736 10.7529 5.28011 9.74992 5.71724 8.8269C6.15437 7.90388 6.7765 7.08054 7.54506 6.40796L9.51308 8.65698Z" fill="#FBBC05"/>
</svg>
