<svg width="25" height="24" viewBox="0 0 25 24" fill="none" xmlns="http://www.w3.org/2000/svg">
<path fill-rule="evenodd" clip-rule="evenodd" d="M15.4627 3C15.604 3.95998 15.2133 4.90044 14.6979 5.56582C14.1464 6.27953 13.1958 6.83154 12.2749 6.80273C12.1067 5.88365 12.5372 4.93668 13.061 4.3001C13.6355 3.59755 14.6203 3.05855 15.4627 3ZM18.2293 16.5122C18.7041 15.7845 18.8814 15.4174 19.25 14.5959C16.5693 13.5765 16.1397 9.76537 18.7927 8.30264C17.9835 7.28783 16.8464 6.69958 15.773 6.69958C14.9996 6.69958 14.4697 6.90142 13.9879 7.0849C13.5865 7.23781 13.2184 7.37798 12.7708 7.37798C12.2872 7.37798 11.8588 7.2244 11.4103 7.06359C10.9175 6.88688 10.4003 6.70144 9.75851 6.70144C8.55394 6.70144 7.27178 7.43745 6.45889 8.69574C5.31621 10.4679 5.51112 13.7995 7.36416 16.6376C8.02648 17.6534 8.91143 18.7945 10.0689 18.8048C10.5492 18.8095 10.8687 18.6662 11.2146 18.5111C11.6104 18.3335 12.0407 18.1406 12.7856 18.1366C13.535 18.1321 13.9584 18.3274 14.349 18.5076C14.686 18.663 14.9985 18.8071 15.4746 18.802C16.633 18.7927 17.5669 17.5279 18.2293 16.5122Z" fill="#241C16"/>
</svg>
