<svg width="24" height="24" viewBox="0 0 24 24" xmlns="http://www.w3.org/2000/svg">
<path fill-rule="evenodd" clip-rule="evenodd" d="M6.2069 20H17.7931C19.012 20 20 19.012 20 17.7931V12.9081V6.2069C20 4.98806 19.012 4 17.7931 4H6.2069C4.98806 4 4 4.98806 4 6.2069V16.4138V17.7931C4 19.012 4.98806 20 6.2069 20ZM8.12903 6C6.9532 6 6 6.9532 6 8.12903V8.90323C6 9.22391 6.25996 9.48387 6.58065 9.48387C6.90133 9.48387 7.16129 9.22391 7.16129 8.90323V8.12903C7.16129 7.59456 7.59456 7.16129 8.12903 7.16129H8.90323C9.22391 7.16129 9.48387 6.90133 9.48387 6.58065C9.48387 6.25996 9.22391 6 8.90323 6H8.12903ZM15.0968 6C14.7761 6 14.5161 6.25996 14.5161 6.58065C14.5161 6.90133 14.7761 7.16129 15.0968 7.16129H15.871C16.4054 7.16129 16.8387 7.59456 16.8387 8.12903V8.90323C16.8387 9.22391 17.0987 9.48387 17.4194 9.48387C17.74 9.48387 18 9.22391 18 8.90323V8.12903C18 6.9532 17.0468 6 15.871 6H15.0968ZM10.258 10.0645C10.258 9.7438 9.99807 9.48384 9.67739 9.48384C9.35671 9.48384 9.09674 9.7438 9.09674 10.0645V13.9355C9.09674 14.2561 9.35671 14.5161 9.67739 14.5161C9.99807 14.5161 10.258 14.2561 10.258 13.9355V10.0645ZM12.5806 10.0645C12.5806 9.7438 12.3207 9.48384 12 9.48384C11.6793 9.48384 11.4193 9.7438 11.4193 10.0645V13.9355C11.4193 14.2561 11.6793 14.5161 12 14.5161C12.3207 14.5161 12.5806 14.2561 12.5806 13.9355V10.0645ZM14.9032 10.0645C14.9032 9.7438 14.6432 9.48384 14.3225 9.48384C14.0019 9.48384 13.7419 9.7438 13.7419 10.0645V13.9355C13.7419 14.2561 14.0019 14.5161 14.3225 14.5161C14.6432 14.5161 14.9032 14.2561 14.9032 13.9355V10.0645ZM7.16129 15.0968C7.16129 14.7761 6.90133 14.5161 6.58065 14.5161C6.25996 14.5161 6 14.7761 6 15.0968V15.871C6 17.0468 6.9532 18 8.12903 18H8.90323C9.22391 18 9.48387 17.74 9.48387 17.4194C9.48387 17.0987 9.22391 16.8387 8.90323 16.8387H8.12903C7.59456 16.8387 7.16129 16.4054 7.16129 15.871V15.0968ZM18 15.0968C18 14.7761 17.74 14.5161 17.4194 14.5161C17.0987 14.5161 16.8387 14.7761 16.8387 15.0968V15.871C16.8387 16.4054 16.4054 16.8387 15.871 16.8387H15.0968C14.7761 16.8387 14.5161 17.0987 14.5161 17.4194C14.5161 17.74 14.7761 18 15.0968 18H15.871C17.0468 18 18 17.0468 18 15.871V15.0968Z"/>
</svg>
