<svg width="24" height="24" viewBox="0 0 24 24" xmlns="http://www.w3.org/2000/svg">
<path fill-rule="evenodd" clip-rule="evenodd" d="M4.25 7C4.25 5.48122 5.48122 4.25 7 4.25H8C8.41421 4.25 8.75 4.58579 8.75 5C8.75 5.41421 8.41421 5.75 8 5.75H7C6.30964 5.75 5.75 6.30964 5.75 7V8C5.75 8.41421 5.41421 8.75 5 8.75C4.58579 8.75 4.25 8.41421 4.25 8V7ZM15.25 5C15.25 4.58579 15.5858 4.25 16 4.25H17C18.5188 4.25 19.75 5.48122 19.75 7V8C19.75 8.41421 19.4142 8.75 19 8.75C18.5858 8.75 18.25 8.41421 18.25 8V7C18.25 6.30964 17.6904 5.75 17 5.75H16C15.5858 5.75 15.25 5.41421 15.25 5ZM8.99996 8.74996C9.41417 8.74996 9.74996 9.08575 9.74996 9.49996V14.5C9.74996 14.9142 9.41417 15.25 8.99996 15.25C8.58575 15.25 8.24996 14.9142 8.24996 14.5V9.49996C8.24996 9.08575 8.58575 8.74996 8.99996 8.74996ZM12 8.74996C12.4142 8.74996 12.75 9.08575 12.75 9.49996V14.5C12.75 14.9142 12.4142 15.25 12 15.25C11.5857 15.25 11.25 14.9142 11.25 14.5V9.49996C11.25 9.08575 11.5857 8.74996 12 8.74996ZM15 8.74996C15.4142 8.74996 15.75 9.08575 15.75 9.49996V14.5C15.75 14.9142 15.4142 15.25 15 15.25C14.5857 15.25 14.25 14.9142 14.25 14.5V9.49996C14.25 9.08575 14.5857 8.74996 15 8.74996ZM5 15.25C5.41421 15.25 5.75 15.5858 5.75 16V17C5.75 17.6904 6.30964 18.25 7 18.25H8C8.41421 18.25 8.75 18.5858 8.75 19C8.75 19.4142 8.41421 19.75 8 19.75H7C5.48122 19.75 4.25 18.5188 4.25 17V16C4.25 15.5858 4.58579 15.25 5 15.25ZM19 15.25C19.4142 15.25 19.75 15.5858 19.75 16V17C19.75 18.5188 18.5188 19.75 17 19.75H16C15.5858 19.75 15.25 19.4142 15.25 19C15.25 18.5858 15.5858 18.25 16 18.25H17C17.6904 18.25 18.25 17.6904 18.25 17V16C18.25 15.5858 18.5858 15.25 19 15.25Z"/>
</svg>
