<svg width="24" height="24" viewBox="0 0 24 24" xmlns="http://www.w3.org/2000/svg">
<path fill-rule="evenodd" clip-rule="evenodd" d="M6.25 9C6.25 5.82479 8.82479 3.25 12 3.25C15.1752 3.25 17.75 5.82479 17.75 9V11.504C17.75 11.5424 17.7713 11.5795 17.8093 11.5991L18.3099 11.8489C19.1918 12.2899 19.75 13.1917 19.75 14.178C19.75 15.6162 18.5842 16.782 17.146 16.782H6.854C5.41579 16.782 4.25 15.6162 4.25 14.178C4.25 13.1916 4.80775 12.2905 5.68874 11.8486L6.19166 11.5976C6.22793 11.5793 6.25 11.5429 6.25 11.504V9ZM12 4.75C9.65321 4.75 7.75 6.65321 7.75 9V11.504C7.75 12.1129 7.40583 12.6667 6.86434 12.9384L6.36126 13.1894C5.9865 13.3776 5.75 13.7606 5.75 14.178C5.75 14.7878 6.24421 15.282 6.854 15.282H17.146C17.7558 15.282 18.25 14.7878 18.25 14.178C18.25 13.7605 18.0139 13.3782 17.6401 13.1911M17.6401 13.1911L17.1371 12.9401L17.1338 12.9384C16.5943 12.6659 16.25 12.1133 16.25 11.504V9C16.25 6.65321 14.3468 4.75 12 4.75M9.65 19C9.65 18.5858 9.98579 18.25 10.4 18.25H13.6C14.0142 18.25 14.35 18.5858 14.35 19C14.35 19.4142 14.0142 19.75 13.6 19.75H10.4C9.98579 19.75 9.65 19.4142 9.65 19Z"/>
</svg>
