<svg width="24" height="24" viewBox="0 0 24 24" fill="none" xmlns="http://www.w3.org/2000/svg">
<path d="M13.6 19H10.4M12 4C9.239 4 7 6.239 7 9V11.504C7 11.828 6.817 12.123 6.528 12.268L6.025 12.519C5.397 12.834 5 13.476 5 14.178C5 15.202 5.83 16.032 6.854 16.032H17.146C18.17 16.032 19 15.202 19 14.178C19 13.476 18.603 12.834 17.975 12.52L17.472 12.269C17.183 12.123 17 11.828 17 11.504V9C17 6.239 14.761 4 12 4Z" stroke="#1C1C1C" stroke-width="1.5" stroke-linecap="round" stroke-linejoin="round"/>
</svg>
