<svg width="24" height="24" viewBox="0 0 24 24" xmlns="http://www.w3.org/2000/svg">
<path fill-rule="evenodd" clip-rule="evenodd" d="M9 5.75C8.30964 5.75 7.75 6.30964 7.75 7V17.8693L11.7619 14.4306C12.0428 14.1898 12.4572 14.1898 12.7381 14.4306L16.75 17.8693V7C16.75 6.30964 16.1904 5.75 15.5 5.75H9ZM6.25 7C6.25 5.48122 7.48122 4.25 9 4.25H15.5C17.0188 4.25 18.25 5.48122 18.25 7V19.5C18.25 19.7929 18.0795 20.059 17.8134 20.1814C17.5473 20.3038 17.2343 20.2601 17.0119 20.0694L12.25 15.9878L7.48809 20.0694C7.26571 20.2601 6.95271 20.3038 6.68661 20.1814C6.42051 20.059 6.25 19.7929 6.25 19.5V7Z"/>
</svg>
