<svg width="24" height="24" viewBox="0 0 24 24" xmlns="http://www.w3.org/2000/svg">
<path fill-rule="evenodd" clip-rule="evenodd" d="M7.95212 3.10104C7.65228 3.26277 7.56485 3.51629 7.56485 4.22361V4.8561L6.73602 4.87821C5.94945 4.89926 5.89045 4.91068 5.57864 5.10254C5.37543 5.2276 5.17242 5.42947 5.04662 5.63162L4.84328 5.95849L4.82392 8.18505L4.8045 10.4117L4.48793 10.4131C4.31375 10.4139 4.04918 10.4697 3.89986 10.5371C3.53208 10.7033 3.09663 11.2084 3.00316 11.5775C2.95215 11.7787 2.92809 13.1179 2.92809 15.7521V19.6305L2.7433 19.6308C2.32196 19.6313 1.91983 20.089 2.01378 20.4611C2.03669 20.552 2.12822 20.7103 2.21719 20.8132L2.37887 21H12H21.6212L21.7828 20.8132C21.8718 20.7103 21.9633 20.552 21.9862 20.4611C22.0801 20.0895 21.6782 19.6313 21.2579 19.6308L21.0744 19.6305L21.0563 12.7665L21.0383 5.90244L20.8933 5.63523C20.7261 5.3272 20.4538 5.05878 20.1647 4.91696C20.0539 4.86258 18.8896 4.41573 17.5776 3.92399C15.4074 3.1106 15.1525 3.0299 14.7552 3.03017C14.2279 3.03057 13.7858 3.25336 13.4804 3.67241C13.1952 4.06375 13.1424 4.44413 13.1424 6.10613V7.60593H12.4368H11.7312V6.83555C11.7312 6.34007 11.6989 5.98849 11.6406 5.8502C11.4937 5.50169 11.189 5.19279 10.8268 5.02511C10.5349 4.88997 10.3835 4.86819 9.73203 4.86766L8.97604 4.86699V4.15888V3.45076L8.74756 3.22363C8.49395 2.97151 8.25936 2.93537 7.95212 3.10104ZM17.2752 5.29153L19.6271 6.1742L19.6443 12.9024L19.6614 19.6305H18.0502H16.439L16.4203 14.303L16.4016 8.9754L16.223 8.64138C15.9282 8.08965 15.4471 7.74207 14.8392 7.64147L14.5536 7.59417V6.07693C14.5536 4.52396 14.5744 4.39295 14.819 4.40411C14.8764 4.40672 15.9816 4.80607 17.2752 5.29153ZM10.2573 6.2722C10.3715 6.33299 10.3872 6.41683 10.3872 6.96508V7.58876L9.66483 7.61962C8.86839 7.65363 8.44745 7.8048 8.09304 8.18424C7.72916 8.57384 7.61183 8.91848 7.57836 9.6958L7.54738 10.4161L6.86732 10.3972L6.18727 10.3783L6.16845 8.47437C6.15803 7.42723 6.16563 6.50501 6.18525 6.42505C6.20487 6.34508 6.27389 6.26592 6.33853 6.24909C6.591 6.18348 10.1297 6.20439 10.2573 6.2722ZM14.8896 9.14241C15.0217 9.27374 15.024 9.36506 15.024 14.4533V19.6305H12H8.97604V14.4533C8.97604 9.36506 8.97833 9.27374 9.11044 9.14241C9.24047 9.01314 9.33442 9.0088 12 9.0088C14.6656 9.0088 14.7596 9.01314 14.8896 9.14241ZM10.2602 10.5049C9.87692 10.7161 9.80286 11.2439 10.1133 11.5525L10.3097 11.7477H12H13.6903L13.8868 11.5525C14.1836 11.2574 14.1414 10.8133 13.7897 10.53C13.6627 10.4278 13.4624 10.4147 12.0336 10.4155C10.8219 10.4162 10.3809 10.4384 10.2602 10.5049ZM7.56485 15.6891V19.6305H5.95207H4.33928V15.7593C4.33928 12.1428 4.34701 11.8835 4.45688 11.8199C4.5269 11.7793 5.17968 11.751 6.06967 11.7497L7.56485 11.7477V15.6891ZM10.3461 12.9471C10.1173 13.0419 9.91683 13.3469 9.91683 13.6005C9.91683 13.7747 9.97341 13.8882 10.1453 14.0591L10.3738 14.2863H12H13.6262L13.8547 14.0591C14.1565 13.7591 14.1675 13.4469 13.8872 13.135L13.6912 12.9168L12.0897 12.9026C11.2087 12.8947 10.4242 12.9148 10.3461 12.9471ZM10.1133 15.6172C9.81644 15.9123 9.85864 16.3564 10.2103 16.6396C10.3374 16.742 10.5402 16.755 12 16.755C13.4599 16.755 13.6627 16.742 13.7897 16.6396C14.1414 16.3564 14.1836 15.9123 13.8868 15.6172L13.6903 15.4219H12H10.3097L10.1133 15.6172Z"/>
</svg>
