<svg width="24" height="24" viewBox="0 0 24 24" xmlns="http://www.w3.org/2000/svg">
<path fill-rule="evenodd" clip-rule="evenodd" d="M8 3.25C8.41421 3.25 8.75 3.58579 8.75 4V4.58333H15.25V4C15.25 3.58579 15.5858 3.25 16 3.25C16.4142 3.25 16.75 3.58579 16.75 4V4.58333H17.3333C19.2203 4.58333 20.75 6.11303 20.75 8V11.1111C20.75 11.5253 20.4142 11.8611 20 11.8611C19.5858 11.8611 19.25 11.5253 19.25 11.1111V8C19.25 6.94145 18.3919 6.08333 17.3333 6.08333H16.75V6.66667C16.75 7.08088 16.4142 7.41667 16 7.41667C15.5858 7.41667 15.25 7.08088 15.25 6.66667V6.08333H8.75V6.66667C8.75 7.08088 8.41421 7.41667 8 7.41667C7.58579 7.41667 7.25 7.08088 7.25 6.66667V6.08333H6.66667C5.60812 6.08333 4.75 6.94145 4.75 8V17.3333C4.75 18.3919 5.60812 19.25 6.66667 19.25H9.33333C9.74755 19.25 10.0833 19.5858 10.0833 20C10.0833 20.4142 9.74755 20.75 9.33333 20.75H6.66667C4.77969 20.75 3.25 19.2203 3.25 17.3333V8C3.25 6.11303 4.77969 4.58333 6.66667 4.58333H7.25V4C7.25 3.58579 7.58579 3.25 8 3.25ZM7.25 11C7.25 10.5858 7.58579 10.25 8 10.25H12C12.4142 10.25 12.75 10.5858 12.75 11C12.75 11.4142 12.4142 11.75 12 11.75H8C7.58579 11.75 7.25 11.4142 7.25 11ZM15.4167 13.6389V19.25H16.5833V13.6389H15.4167ZM18.0833 13.9167V13.3333C18.0833 12.6737 17.5486 12.1389 16.8889 12.1389H15.1111C14.4514 12.1389 13.9167 12.6737 13.9167 13.3333V15.6944H12.4444C11.7848 15.6944 11.25 16.2292 11.25 16.8889V20C11.25 20.4142 11.5858 20.75 12 20.75H20C20.4142 20.75 20.75 20.4142 20.75 20V15.1111C20.75 14.4514 20.2152 13.9167 19.5556 13.9167H18.0833ZM18.0833 15.4167V19.25H19.25V15.4167H18.0833ZM13.9167 17.1944H12.75V19.25H13.9167V17.1944ZM7.25 14C7.25 13.5858 7.58579 13.25 8 13.25H10C10.4142 13.25 10.75 13.5858 10.75 14C10.75 14.4142 10.4142 14.75 10 14.75H8C7.58579 14.75 7.25 14.4142 7.25 14Z"/>
</svg>
