<svg width="24" height="24" viewBox="0 0 24 24" xmlns="http://www.w3.org/2000/svg">
<path fill-rule="evenodd" clip-rule="evenodd" d="M6.66667 5.33331H7.25V6.66667C7.25 7.08088 7.58579 7.41667 8 7.41667C8.41421 7.41667 8.75 7.08088 8.75 6.66667V5.33331H15.25V6.66667C15.25 7.08088 15.5858 7.41667 16 7.41667C16.4142 7.41667 16.75 7.08088 16.75 6.66667V5.33331H17.3333C18.8061 5.33331 20 6.52722 20 7.99998V14.0021C19.8626 13.947 19.7126 13.9167 19.5556 13.9167H18.0833V13.3333C18.0833 12.6737 17.5486 12.1389 16.8889 12.1389H15.1111C14.4514 12.1389 13.9167 12.6737 13.9167 13.3333V15.6944H12.4444C11.7848 15.6944 11.25 16.2292 11.25 16.8889V20L6.66667 20C5.19391 20 4 18.8061 4 17.3333V7.99998C4 6.52722 5.19391 5.33331 6.66667 5.33331ZM19.25 19.1874C19.2295 19.2086 19.2086 19.2295 19.1874 19.25H18.0833V15.4167H19.25V19.1874ZM8 10.25C7.58579 10.25 7.25 10.5858 7.25 11C7.25 11.4142 7.58579 11.75 8 11.75H12C12.4142 11.75 12.75 11.4142 12.75 11C12.75 10.5858 12.4142 10.25 12 10.25H8ZM15.4167 19.25V13.6389H16.5833V19.25H15.4167ZM12.75 17.1944H13.9167V19.25H12.75V17.1944ZM8 13.25C7.58579 13.25 7.25 13.5858 7.25 14C7.25 14.4142 7.58579 14.75 8 14.75H10C10.4142 14.75 10.75 14.4142 10.75 14C10.75 13.5858 10.4142 13.25 10 13.25H8Z"/>
</svg>
