<svg width="24" height="24" viewBox="0 0 24 24" fill="none" xmlns="http://www.w3.org/2000/svg">
<path fill-rule="evenodd" clip-rule="evenodd" d="M6.66667 5.33331H7.25011V6.66667C7.25011 7.08088 7.5859 7.41667 8.00011 7.41667C8.41432 7.41667 8.75011 7.08088 8.75011 6.66667V5.33331H15.2501V6.66667C15.2501 7.08088 15.5859 7.41667 16.0001 7.41667C16.4143 7.41667 16.7501 7.08088 16.7501 6.66667V5.33331H17.3333C18.8061 5.33331 20 6.52722 20 7.99998V14.2145L19.5178 13.7322C18.5415 12.7559 16.9585 12.7559 15.9822 13.7322C15.5549 14.1596 15.3146 14.7032 15.2614 15.2612C13.9926 15.3814 13 16.4498 13 17.75C13 18.7395 13.5749 19.5948 14.4089 20L6.66667 20C5.19391 20 4 18.8061 4 17.3333V7.99998C4 6.52722 5.19391 5.33331 6.66667 5.33331ZM6.80566 10.2222C6.80566 9.80801 7.14145 9.47222 7.55566 9.47222H16.4446C16.8588 9.47222 17.1946 9.80801 17.1946 10.2222C17.1946 10.6364 16.8588 10.9722 16.4446 10.9722H7.55566C7.14145 10.9722 6.80566 10.6364 6.80566 10.2222Z" fill="#1C1C1C"/>
<path d="M20 17.75H15.5M20 17.75L17.75 15.5M20 17.75L17.75 20" stroke="#1C1C1C" stroke-width="1.5" stroke-linecap="round" stroke-linejoin="round"/>
</svg>
