<svg width="24" height="24" viewBox="0 0 24 24" xmlns="http://www.w3.org/2000/svg">
<path fill-rule="evenodd" clip-rule="evenodd" d="M8 3.25C8.41421 3.25 8.75 3.58579 8.75 4V4.58333H15.25V4C15.25 3.58579 15.5858 3.25 16 3.25C16.4142 3.25 16.75 3.58579 16.75 4V4.58333H17.3333C19.2203 4.58333 20.75 6.11303 20.75 8V17.3333C20.75 19.2203 19.2203 20.75 17.3333 20.75L6.66667 20.75C4.77969 20.75 3.25 19.2203 3.25 17.3333V8C3.25 6.11303 4.77969 4.58333 6.66667 4.58333H7.25V4C7.25 3.58579 7.58579 3.25 8 3.25ZM7.25 6.08333H6.66667C5.60812 6.08333 4.75 6.94145 4.75 8V17.3333C4.75 18.3919 5.60812 19.25 6.66667 19.25L17.3333 19.25C18.3919 19.25 19.25 18.3919 19.25 17.3333V8C19.25 6.94145 18.3919 6.08333 17.3333 6.08333H16.75V6.66667C16.75 7.08088 16.4142 7.41667 16 7.41667C15.5858 7.41667 15.25 7.08088 15.25 6.66667V6.08333H8.75V6.66667C8.75 7.08088 8.41421 7.41667 8 7.41667C7.58579 7.41667 7.25 7.08088 7.25 6.66667V6.08333ZM6.80556 10.2222C6.80556 9.80801 7.14134 9.47222 7.55556 9.47222H16.4444C16.8587 9.47222 17.1944 9.80801 17.1944 10.2222C17.1944 10.6364 16.8587 10.9722 16.4444 10.9722H7.55556C7.14134 10.9722 6.80556 10.6364 6.80556 10.2222Z"/>
</svg>
