<svg width="24" height="24" viewBox="0 0 24 24" xmlns="http://www.w3.org/2000/svg">
<path fill-rule="evenodd" clip-rule="evenodd" d="M7.25011 5.33331H6.66667C5.19391 5.33331 4 6.52722 4 7.99998V17.3333C4 18.8061 5.19391 20 6.66667 20L17.3333 20C18.8061 20 20 18.8061 20 17.3333V7.99998C20 6.52722 18.8061 5.33331 17.3333 5.33331H16.7501V6.66667C16.7501 7.08088 16.4143 7.41667 16.0001 7.41667C15.5859 7.41667 15.2501 7.08088 15.2501 6.66667V5.33331H8.75011V6.66667C8.75011 7.08088 8.41432 7.41667 8.00011 7.41667C7.5859 7.41667 7.25011 7.08088 7.25011 6.66667V5.33331ZM7.55566 9.47222C7.14145 9.47222 6.80566 9.80801 6.80566 10.2222C6.80566 10.6364 7.14145 10.9722 7.55566 10.9722H16.4446C16.8588 10.9722 17.1946 10.6364 17.1946 10.2222C17.1946 9.80801 16.8588 9.47222 16.4446 9.47222H7.55566Z"/>
</svg>
