<svg width="24" height="24" viewBox="0 0 24 24" xmlns="http://www.w3.org/2000/svg">
<path fill-rule="evenodd" clip-rule="evenodd" d="M8.25 4.25C8.66421 4.25 9 4.58579 9 5V6.25H15.5V5C15.5 4.58579 15.8358 4.25 16.25 4.25C16.6642 4.25 17 4.58579 17 5V6.25H17.5C19.0188 6.25 20.25 7.48122 20.25 9V11.5C20.25 11.9142 19.9142 12.25 19.5 12.25C19.0858 12.25 18.75 11.9142 18.75 11.5V9C18.75 8.30964 18.1904 7.75 17.5 7.75H17V8.5C17 8.91421 16.6642 9.25 16.25 9.25C15.8358 9.25 15.5 8.91421 15.5 8.5V7.75H9V8.5C9 8.91421 8.66421 9.25 8.25 9.25C7.83579 9.25 7.5 8.91421 7.5 8.5V7.75H7C6.30964 7.75 5.75 8.30964 5.75 9V17.5C5.75 18.1904 6.30964 18.75 7 18.75H11.5C11.9142 18.75 12.25 19.0858 12.25 19.5C12.25 19.9142 11.9142 20.25 11.5 20.25H7C5.48122 20.25 4.25 19.0188 4.25 17.5V9C4.25 7.48122 5.48122 6.25 7 6.25H7.5V5C7.5 4.58579 7.83579 4.25 8.25 4.25ZM7.25 11C7.25 10.5858 7.58579 10.25 8 10.25H16.5C16.9142 10.25 17.25 10.5858 17.25 11C17.25 11.4142 16.9142 11.75 16.5 11.75H8C7.58579 11.75 7.25 11.4142 7.25 11ZM15.1287 15.1287C15.4216 14.8358 15.8964 14.8358 16.1893 15.1287L17.25 16.1893L18.3107 15.1287C18.6036 14.8358 19.0784 14.8358 19.3713 15.1287C19.6642 15.4216 19.6642 15.8965 19.3713 16.1893L18.3107 17.25L19.3713 18.3107C19.6642 18.6036 19.6642 19.0784 19.3713 19.3713C19.0784 19.6642 18.6036 19.6642 18.3107 19.3713L17.25 18.3107L16.1893 19.3713C15.8964 19.6642 15.4216 19.6642 15.1287 19.3713C14.8358 19.0784 14.8358 18.6036 15.1287 18.3107L16.1893 17.25L15.1287 16.1893C14.8358 15.8965 14.8358 15.4216 15.1287 15.1287Z"/>
</svg>
