<svg width="24" height="24" viewBox="0 0 24 24" fill="none" xmlns="http://www.w3.org/2000/svg">
<path fill-rule="evenodd" clip-rule="evenodd" d="M6.66667 5.33331H7.25011V6.66667C7.25011 7.08088 7.5859 7.41667 8.00011 7.41667C8.41432 7.41667 8.75011 7.08088 8.75011 6.66667V5.33331H15.2501V6.66667C15.2501 7.08088 15.5859 7.41667 16.0001 7.41667C16.4143 7.41667 16.7501 7.08088 16.7501 6.66667V5.33331H17.3333C18.8061 5.33331 20 6.52722 20 7.99998V14.996C19.9189 14.9651 19.8357 14.9383 19.7507 14.9159C19.4682 13.8451 18.4929 13.0555 17.3333 13.0555C16.1737 13.0555 15.1985 13.8451 14.9159 14.9159C13.8451 15.1985 13.0555 16.1737 13.0555 17.3333C13.0555 18.4929 13.8451 19.4682 14.9159 19.7507C14.9383 19.8357 14.9651 19.9188 14.996 20L6.66667 20C5.19391 20 4 18.8061 4 17.3333V7.99998C4 6.52722 5.19391 5.33331 6.66667 5.33331ZM6.80566 10.2222C6.80566 9.80801 7.14145 9.47222 7.55566 9.47222H16.4446C16.8588 9.47222 17.1946 9.80801 17.1946 10.2222C17.1946 10.6364 16.8588 10.9722 16.4446 10.9722H7.55566C7.14145 10.9722 6.80566 10.6364 6.80566 10.2222Z" fill="#1C1C1C"/>
<path d="M17.3333 15.5555V19.1111M15.5555 17.3333H19.1111" stroke="#1C1C1C" stroke-width="1.5" stroke-linecap="round" stroke-linejoin="round"/>
</svg>
