<svg width="24" height="24" viewBox="0 0 24 24" fill="none" xmlns="http://www.w3.org/2000/svg">
<path fill-rule="evenodd" clip-rule="evenodd" d="M6.66667 5.33331H7.25011V6.66667C7.25011 7.08088 7.5859 7.41667 8.00011 7.41667C8.41432 7.41667 8.75011 7.08088 8.75011 6.66667V5.33331H15.2501V6.66667C15.2501 7.08088 15.5859 7.41667 16.0001 7.41667C16.4143 7.41667 16.7501 7.08088 16.7501 6.66667V5.33331H17.3333C18.8061 5.33331 20 6.52722 20 7.99998V14.5516C19.1082 14.213 18.0616 14.4029 17.3433 15.1211L16.8351 15.6294C15.8752 15.0567 14.6142 15.1836 13.7878 16.01C12.8115 16.9863 12.8115 18.5692 13.7878 19.5455L14.2422 20L6.66667 20C5.19391 20 4 18.8061 4 17.3333V7.99998C4 6.52722 5.19391 5.33331 6.66667 5.33331ZM6.80566 10.2222C6.80566 9.80801 7.14145 9.47222 7.55566 9.47222H16.4446C16.8588 9.47222 17.1946 9.80801 17.1946 10.2222C17.1946 10.6364 16.8588 10.9722 16.4446 10.9722H7.55566C7.14145 10.9722 6.80566 10.6364 6.80566 10.2222Z" fill="#1C1C1C"/>
<path d="M19.1111 16.8889L16.8889 19.1111L15.5555 17.7778" stroke="#1C1C1C" stroke-width="1.5" stroke-linecap="round" stroke-linejoin="round"/>
</svg>
