<svg width="24" height="24" viewBox="0 0 24 24" xmlns="http://www.w3.org/2000/svg">
<path fill-rule="evenodd" clip-rule="evenodd" d="M8 3.25C8.41421 3.25 8.75 3.58579 8.75 4V4.58333H15.25V4C15.25 3.58579 15.5858 3.25 16 3.25C16.4142 3.25 16.75 3.58579 16.75 4V4.58333H17.3333C19.2203 4.58333 20.75 6.11303 20.75 8V12.8889C20.75 13.3031 20.4142 13.6389 20 13.6389C19.5858 13.6389 19.25 13.3031 19.25 12.8889V8C19.25 6.94145 18.3919 6.08333 17.3333 6.08333H16.75V6.66667C16.75 7.08088 16.4142 7.41667 16 7.41667C15.5858 7.41667 15.25 7.08088 15.25 6.66667V6.08333H8.75V6.66667C8.75 7.08088 8.41421 7.41667 8 7.41667C7.58579 7.41667 7.25 7.08088 7.25 6.66667V6.08333H6.66667C5.60812 6.08333 4.75 6.94145 4.75 8V17.3333C4.75 18.3919 5.60812 19.25 6.66667 19.25H12C12.4142 19.25 12.75 19.5858 12.75 20C12.75 20.4142 12.4142 20.75 12 20.75H6.66667C4.77969 20.75 3.25 19.2203 3.25 17.3333V8C3.25 6.11303 4.77969 4.58333 6.66667 4.58333H7.25V4C7.25 3.58579 7.58579 3.25 8 3.25ZM6.80556 10.2222C6.80556 9.80801 7.14134 9.47222 7.55556 9.47222H16.4444C16.8587 9.47222 17.1944 9.80801 17.1944 10.2222C17.1944 10.6364 16.8587 10.9722 16.4444 10.9722H7.55556C7.14134 10.9722 6.80556 10.6364 6.80556 10.2222ZM17.2197 14.9697C17.5126 14.6768 17.9874 14.6768 18.2803 14.9697L20.5303 17.2197C20.8232 17.5126 20.8232 17.9874 20.5303 18.2803L18.2803 20.5303C17.9874 20.8232 17.5126 20.8232 17.2197 20.5303C16.9268 20.2374 16.9268 19.7626 17.2197 19.4697L18.1893 18.5H15.5C15.0858 18.5 14.75 18.1642 14.75 17.75C14.75 17.3358 15.0858 17 15.5 17H18.1893L17.2197 16.0303C16.9268 15.7374 16.9268 15.2626 17.2197 14.9697Z"/>
</svg>
