<svg width="24" height="24" viewBox="0 0 24 24" xmlns="http://www.w3.org/2000/svg">
<path fill-rule="evenodd" clip-rule="evenodd" d="M20.5 9.75V17.25C20.5 18.3546 19.4811 19.25 18.2241 19.25H6.27586C5.01894 19.25 4 18.3546 4 17.25V9.75C4 8.64543 5.01894 7.75 6.27586 7.75H6.65517C7.11455 7.75 7.52888 7.50726 7.70557 7.13462L8.54443 5.36538C8.72112 4.99274 9.13545 4.75 9.59483 4.75H14.9051C15.3645 4.75 15.7788 4.99274 15.9556 5.36538L16.7944 7.13462C16.9712 7.50726 17.3855 7.75 17.8449 7.75H18.2241C19.4811 7.75 20.5 8.64543 20.5 9.75ZM9.75 13C9.75 11.6193 10.8693 10.5 12.25 10.5C13.6307 10.5 14.75 11.6193 14.75 13C14.75 14.3807 13.6307 15.5 12.25 15.5C10.8693 15.5 9.75 14.3807 9.75 13ZM12.25 9C10.0409 9 8.25 10.7909 8.25 13C8.25 15.2091 10.0409 17 12.25 17C14.4591 17 16.25 15.2091 16.25 13C16.25 10.7909 14.4591 9 12.25 9Z"/>
</svg>
