<svg width="24" height="24" viewBox="0 0 24 24" xmlns="http://www.w3.org/2000/svg">
<path fill-rule="evenodd" clip-rule="evenodd" d="M7.86675 5.04406C8.18437 4.37419 8.88711 4 9.59483 4H14.9051C15.6129 4 16.3156 4.3742 16.6332 5.04401L16.6332 5.04406L17.4721 6.81325C17.4721 6.81326 17.4721 6.81328 17.4721 6.8133C17.5079 6.88877 17.6339 7 17.8449 7H18.2241C19.8013 7 21.25 8.14311 21.25 9.75V17.25C21.25 18.8569 19.8013 20 18.2241 20H6.27586C4.69872 20 3.25 18.8569 3.25 17.25V9.75C3.25 8.1431 4.69871 7 6.27586 7H6.65517C6.8662 7 6.99213 6.88871 7.02788 6.81331C7.02789 6.8133 7.02789 6.8133 7.02789 6.8133L7.86675 5.04406L7.86675 5.04406ZM9.22211 5.6867L8.38325 7.45594L8.38325 7.45594C8.06563 8.12581 7.36289 8.5 6.65517 8.5H6.27586C5.33917 8.5 4.75 9.14776 4.75 9.75V17.25C4.75 17.8523 5.33916 18.5 6.27586 18.5H18.2241C19.1609 18.5 19.75 17.8523 19.75 17.25V9.75C19.75 9.14775 19.1609 8.5 18.2241 8.5H17.8449C17.1371 8.5 16.4344 8.1258 16.1168 7.45599L16.1168 7.45594L15.2779 5.68675C15.2779 5.68674 15.2779 5.68672 15.2779 5.6867C15.2421 5.61123 15.1161 5.5 14.9051 5.5H9.59483C9.38379 5.5 9.25787 5.61129 9.22211 5.6867Z"/>
<path fill-rule="evenodd" clip-rule="evenodd" d="M12 10.5C10.6193 10.5 9.5 11.6193 9.5 13C9.5 14.3807 10.6193 15.5 12 15.5C13.3807 15.5 14.5 14.3807 14.5 13C14.5 11.6193 13.3807 10.5 12 10.5ZM8 13C8 10.7909 9.79089 9 12 9C14.2091 9 16 10.7909 16 13C16 15.2091 14.2091 17 12 17C9.79089 17 8 15.2091 8 13Z"/>
</svg>
