<svg width="24" height="24" viewBox="0 0 24 24" xmlns="http://www.w3.org/2000/svg">
<path fill-rule="evenodd" clip-rule="evenodd" d="M5 12.25C5 8.24594 8.24594 5 12.25 5C16.2541 5 19.5 8.24594 19.5 12.25C19.5 16.2541 16.2541 19.5 12.25 19.5C8.24594 19.5 5 16.2541 5 12.25ZM10.5303 9.46967C10.2374 9.17678 9.76256 9.17678 9.46967 9.46967C9.17678 9.76256 9.17678 10.2374 9.46967 10.5303L11.1893 12.25L9.46967 13.9697C9.17678 14.2626 9.17678 14.7374 9.46967 15.0303C9.76256 15.3232 10.2374 15.3232 10.5303 15.0303L12.25 13.3107L13.9697 15.0303C14.2626 15.3232 14.7374 15.3232 15.0303 15.0303C15.3232 14.7374 15.3232 14.2626 15.0303 13.9697L13.3107 12.25L15.0303 10.5303C15.3232 10.2374 15.3232 9.76256 15.0303 9.46967C14.7374 9.17678 14.2626 9.17678 13.9697 9.46967L12.25 11.1893L10.5303 9.46967Z"/>
</svg>
