<svg width="24" height="24" viewBox="0 0 24 24" xmlns="http://www.w3.org/2000/svg">
<path fill-rule="evenodd" clip-rule="evenodd" d="M4.25 7C4.25 5.48122 5.48122 4.25 7 4.25H17.5C19.0188 4.25 20.25 5.48122 20.25 7V17.5C20.25 19.0188 19.0188 20.25 17.5 20.25H7C5.48122 20.25 4.25 19.0188 4.25 17.5V7ZM7 5.75C6.30964 5.75 5.75 6.30964 5.75 7V17.5C5.75 18.1904 6.30964 18.75 7 18.75H17.5C18.1904 18.75 18.75 18.1904 18.75 17.5V7C18.75 6.30964 18.1904 5.75 17.5 5.75H7ZM9.46967 9.46967C9.76256 9.17678 10.2374 9.17678 10.5303 9.46967L12.25 11.1893L13.9697 9.46967C14.2626 9.17678 14.7374 9.17678 15.0303 9.46967C15.3232 9.76256 15.3232 10.2374 15.0303 10.5303L13.3107 12.25L15.0303 13.9697C15.3232 14.2626 15.3232 14.7374 15.0303 15.0303C14.7374 15.3232 14.2626 15.3232 13.9697 15.0303L12.25 13.3107L10.5303 15.0303C10.2374 15.3232 9.76256 15.3232 9.46967 15.0303C9.17678 14.7374 9.17678 14.2626 9.46967 13.9697L11.1893 12.25L9.46967 10.5303C9.17678 10.2374 9.17678 9.76256 9.46967 9.46967Z"/>
</svg>
