<svg width="24" height="24" viewBox="0 0 24 24" xmlns="http://www.w3.org/2000/svg">
<path fill-rule="evenodd" clip-rule="evenodd" d="M12.25 5.75C8.66015 5.75 5.75 8.66015 5.75 12.25C5.75 15.8399 8.66015 18.75 12.25 18.75C15.8399 18.75 18.75 15.8399 18.75 12.25C18.75 8.66015 15.8399 5.75 12.25 5.75ZM4.25 12.25C4.25 7.83173 7.83173 4.25 12.25 4.25C16.6683 4.25 20.25 7.83173 20.25 12.25C20.25 16.6683 16.6683 20.25 12.25 20.25C7.83173 20.25 4.25 16.6683 4.25 12.25ZM9.46967 9.46967C9.76256 9.17678 10.2374 9.17678 10.5303 9.46967L12.25 11.1893L13.9697 9.46967C14.2626 9.17678 14.7374 9.17678 15.0303 9.46967C15.3232 9.76256 15.3232 10.2374 15.0303 10.5303L13.3107 12.25L15.0303 13.9697C15.3232 14.2626 15.3232 14.7374 15.0303 15.0303C14.7374 15.3232 14.2626 15.3232 13.9697 15.0303L12.25 13.3107L10.5303 15.0303C10.2374 15.3232 9.76256 15.3232 9.46967 15.0303C9.17678 14.7374 9.17678 14.2626 9.46967 13.9697L11.1893 12.25L9.46967 10.5303C9.17678 10.2374 9.17678 9.76256 9.46967 9.46967Z"/>
</svg>
