<svg width="24" height="24" viewBox="0 0 24 24" xmlns="http://www.w3.org/2000/svg">
<path fill-rule="evenodd" clip-rule="evenodd" d="M6 5.75C5.30964 5.75 4.75 6.30964 4.75 7V13.5C4.75 14.1904 5.30964 14.75 6 14.75H15.7502L15.75 9.00002C15.75 8.99423 15.7501 8.98844 15.7502 8.98266V7C15.7502 6.30964 15.1906 5.75 14.5002 5.75H6ZM17.2502 8.25V7C17.2502 5.48122 16.019 4.25 14.5002 4.25H6C4.48122 4.25 3.25 5.48122 3.25 7V13.5C3.25 14.7588 4.09575 15.82 5.25 16.1465L5.25 16.5C5.25 17.8807 6.36929 19 7.75 19C9.13071 19 10.25 17.8807 10.25 16.5V16.25H14.25V16.5C14.25 17.8807 15.3693 19 16.75 19C18.1307 19 19.25 17.8807 19.25 16.5V16.25H20.5002C20.9144 16.25 21.2502 15.9142 21.2502 15.5V12C21.2502 9.92889 19.5713 8.25 17.5002 8.25H17.2502ZM17.2502 14.75V9.75H17.5002C18.7429 9.75 19.7502 10.7573 19.7502 12V14.75H17.2502ZM17.75 16.25H15.75V16.5C15.75 17.0523 16.1977 17.5 16.75 17.5C17.3023 17.5 17.75 17.0523 17.75 16.5V16.25ZM8.75 16.25H6.75L6.75 16.5C6.75 17.0523 7.19771 17.5 7.75 17.5C8.30229 17.5 8.75 17.0523 8.75 16.5V16.25Z"/>
</svg>
