<svg width="24" height="24" viewBox="0 0 24 24" xmlns="http://www.w3.org/2000/svg">
<path d="M10.75 16C10.8881 16 11.0013 16.1122 10.9875 16.2496C10.9632 16.4923 10.9034 16.7305 10.8097 16.9567C10.6841 17.26 10.4999 17.5356 10.2678 17.7678C10.0356 17.9999 9.76002 18.1841 9.45671 18.3097C9.15339 18.4353 8.8283 18.5 8.5 18.5C8.1717 18.5 7.84661 18.4353 7.54329 18.3097C7.23998 18.1841 6.96438 17.9999 6.73223 17.7678C6.50009 17.5356 6.31594 17.26 6.1903 16.9567C6.09662 16.7305 6.03684 16.4923 6.01249 16.2496C5.99871 16.1122 6.11193 16 6.25 16L8.5 16H10.75Z"/>
<path d="M18.25 16C18.3881 16 18.5013 16.1122 18.4875 16.2496C18.4632 16.4923 18.4034 16.7305 18.3097 16.9567C18.1841 17.26 17.9999 17.5356 17.7678 17.7678C17.5356 17.9999 17.26 18.1841 16.9567 18.3097C16.6534 18.4353 16.3283 18.5 16 18.5C15.6717 18.5 15.3466 18.4353 15.0433 18.3097C14.74 18.1841 14.4644 17.9999 14.2322 17.7678C14.0001 17.5356 13.8159 17.26 13.6903 16.9567C13.5966 16.7305 13.5368 16.4923 13.5125 16.2496C13.4987 16.1122 13.6119 16 13.75 16H16H18.25Z"/>
<path d="M18.25 16C18.3881 16 18.5013 16.1122 18.4875 16.2496C18.4632 16.4923 18.4034 16.7305 18.3097 16.9567C18.1841 17.26 17.9999 17.5356 17.7678 17.7678C17.5356 17.9999 17.26 18.1841 16.9567 18.3097C16.6534 18.4353 16.3283 18.5 16 18.5C15.6717 18.5 15.3466 18.4353 15.0433 18.3097C14.74 18.1841 14.4644 17.9999 14.2322 17.7678C14.0001 17.5356 13.8159 17.26 13.6903 16.9567C13.5966 16.7305 13.5368 16.4923 13.5125 16.2496C13.4987 16.1122 13.6119 16 13.75 16H16H18.25Z"/>
<path d="M18.25 16C18.3881 16 18.5013 16.1122 18.4875 16.2496C18.4632 16.4923 18.4034 16.7305 18.3097 16.9567C18.1841 17.26 17.9999 17.5356 17.7678 17.7678C17.5356 17.9999 17.26 18.1841 16.9567 18.3097C16.6534 18.4353 16.3283 18.5 16 18.5C15.6717 18.5 15.3466 18.4353 15.0433 18.3097C14.74 18.1841 14.4644 17.9999 14.2322 17.7678C14.0001 17.5356 13.8159 17.26 13.6903 16.9567C13.5966 16.7305 13.5368 16.4923 13.5125 16.2496C13.4987 16.1122 13.6119 16 13.75 16H16H18.25Z"/>
<path d="M4 7V13C4 14.1046 4.89543 15 6 15H15V6C15 5.44772 14.5523 5 14 5H6C4.89543 5 4 5.89543 4 7Z"/>
<path d="M17 9H16V15H19C19.5523 15 20 14.5523 20 14V12C20 10.3431 18.6569 9 17 9Z"/>
</svg>
