<svg width="24" height="24" viewBox="0 0 24 24" fill="none" xmlns="http://www.w3.org/2000/svg">
<path fill-rule="evenodd" clip-rule="evenodd" d="M6 6H18C19.1046 6 20 6.89543 20 8V12.5C18.6193 12.5 17.5 13.6193 17.5 15V15.5H17C15.6193 15.5 14.5 16.6193 14.5 18H6C4.89543 18 4 17.1046 4 16V8C4 6.89543 4.89543 6 6 6ZM6.67859 10.2C6.67859 9.7858 7.01438 9.45001 7.42859 9.45001H16.5714C16.9857 9.45001 17.3214 9.7858 17.3214 10.2C17.3214 10.6142 16.9857 10.95 16.5714 10.95H7.42859C7.01438 10.95 6.67859 10.6142 6.67859 10.2ZM6.67859 14.4C6.67859 13.9858 7.01438 13.65 7.42859 13.65H9.7143C10.1285 13.65 10.4643 13.9858 10.4643 14.4C10.4643 14.8142 10.1285 15.15 9.7143 15.15H7.42859C7.01438 15.15 6.67859 14.8142 6.67859 14.4Z" fill="#1C1C1C"/>
<path d="M20 15V21M23 18L17 18" stroke="#1C1C1C" stroke-width="1.5" stroke-linecap="round" stroke-linejoin="round"/>
</svg>
