<svg width="24" height="24" viewBox="0 0 24 24" xmlns="http://www.w3.org/2000/svg">
<path fill-rule="evenodd" clip-rule="evenodd" d="M3.25 8C3.25 6.48122 4.48122 5.25 6 5.25H18C19.5188 5.25 20.75 6.48122 20.75 8V16C20.75 17.5188 19.5188 18.75 18 18.75H6C4.48122 18.75 3.25 17.5188 3.25 16V8ZM6 6.75C5.30964 6.75 4.75 7.30964 4.75 8V16C4.75 16.6904 5.30964 17.25 6 17.25H18C18.6904 17.25 19.25 16.6904 19.25 16V8C19.25 7.30964 18.6904 6.75 18 6.75H6ZM6.67857 10.2C6.67857 9.78579 7.01436 9.45 7.42857 9.45H16.5714C16.9856 9.45 17.3214 9.78579 17.3214 10.2C17.3214 10.6142 16.9856 10.95 16.5714 10.95H7.42857C7.01436 10.95 6.67857 10.6142 6.67857 10.2ZM6.67857 14.4C6.67857 13.9858 7.01436 13.65 7.42857 13.65H9.71429C10.1285 13.65 10.4643 13.9858 10.4643 14.4C10.4643 14.8142 10.1285 15.15 9.71429 15.15H7.42857C7.01436 15.15 6.67857 14.8142 6.67857 14.4Z"/>
</svg>
