<svg width="24" height="24" viewBox="0 0 24 24" xmlns="http://www.w3.org/2000/svg">
<path fill-rule="evenodd" clip-rule="evenodd" d="M18 6H6C4.89543 6 4 6.89543 4 8V16C4 17.1046 4.89543 18 6 18H18C19.1046 18 20 17.1046 20 16V8C20 6.89543 19.1046 6 18 6ZM7.42859 9.45001C7.01438 9.45001 6.67859 9.7858 6.67859 10.2C6.67859 10.6142 7.01438 10.95 7.42859 10.95H16.5714C16.9857 10.95 17.3214 10.6142 17.3214 10.2C17.3214 9.7858 16.9857 9.45001 16.5714 9.45001H7.42859ZM7.42859 13.65C7.01438 13.65 6.67859 13.9858 6.67859 14.4C6.67859 14.8142 7.01438 15.15 7.42859 15.15H9.7143C10.1285 15.15 10.4643 14.8142 10.4643 14.4C10.4643 13.9858 10.1285 13.65 9.7143 13.65H7.42859Z"/>
</svg>
