<svg width="24" height="24" viewBox="0 0 24 24" xmlns="http://www.w3.org/2000/svg">
<path fill-rule="evenodd" clip-rule="evenodd" d="M6.2069 4C4.98806 4 4 4.98806 4 6.2069V17.7931C4 19.012 4.98806 20 6.2069 20H17.7931C19.012 20 20 19.012 20 17.7931V6.2069C20 4.98806 19.012 4 17.7931 4H6.2069ZM9.16382 9.51721C9.16382 9.103 8.82803 8.76721 8.41382 8.76721C7.9996 8.76721 7.66382 9.103 7.66382 9.51721V15.5862C7.66382 16.0004 7.9996 16.3362 8.41382 16.3362C8.82803 16.3362 9.16382 16.0004 9.16382 15.5862V9.51721ZM16.3362 9.51721C16.3362 9.103 16.0004 8.76721 15.5862 8.76721C15.172 8.76721 14.8362 9.103 14.8362 9.51721V15.5862C14.8362 16.0004 15.172 16.3362 15.5862 16.3362C16.0004 16.3362 16.3362 16.0004 16.3362 15.5862V9.51721ZM12.75 12.8276C12.75 12.4133 12.4142 12.0776 12 12.0776C11.5858 12.0776 11.25 12.4133 11.25 12.8276V15.5862C11.25 16.0004 11.5858 16.3362 12 16.3362C12.4142 16.3362 12.75 16.0004 12.75 15.5862V12.8276Z"/>
</svg>
