<svg width="24" height="24" viewBox="0 0 24 24" xmlns="http://www.w3.org/2000/svg">
<path fill-rule="evenodd" clip-rule="evenodd" d="M6.2069 4.75C5.40227 4.75 4.75 5.40227 4.75 6.2069V17.7931C4.75 18.5978 5.40227 19.25 6.2069 19.25H17.7931C18.5978 19.25 19.25 18.5978 19.25 17.7931V6.2069C19.25 5.40227 18.5978 4.75 17.7931 4.75H6.2069ZM3.25 6.2069C3.25 4.57385 4.57385 3.25 6.2069 3.25H17.7931C19.4262 3.25 20.75 4.57385 20.75 6.2069V17.7931C20.75 19.4262 19.4262 20.75 17.7931 20.75H6.2069C4.57385 20.75 3.25 19.4262 3.25 17.7931V6.2069ZM8.41379 8.76724C8.82801 8.76724 9.16379 9.10303 9.16379 9.51724V15.5862C9.16379 16.0004 8.82801 16.3362 8.41379 16.3362C7.99958 16.3362 7.66379 16.0004 7.66379 15.5862V9.51724C7.66379 9.10303 7.99958 8.76724 8.41379 8.76724ZM15.5862 8.76724C16.0004 8.76724 16.3362 9.10303 16.3362 9.51724V15.5862C16.3362 16.0004 16.0004 16.3362 15.5862 16.3362C15.172 16.3362 14.8362 16.0004 14.8362 15.5862V9.51724C14.8362 9.10303 15.172 8.76724 15.5862 8.76724ZM12 12.0776C12.4142 12.0776 12.75 12.4134 12.75 12.8276V15.5862C12.75 16.0004 12.4142 16.3362 12 16.3362C11.5858 16.3362 11.25 16.0004 11.25 15.5862V12.8276C11.25 12.4134 11.5858 12.0776 12 12.0776Z"/>
</svg>
