<svg width="24" height="24" viewBox="0 0 24 24" xmlns="http://www.w3.org/2000/svg">
<path fill-rule="evenodd" clip-rule="evenodd" d="M10.703 4.75C9.12415 4.75 7.60998 5.37718 6.49358 6.49359C5.37718 7.60999 4.75 9.12415 4.75 10.703C4.75 12.874 5.9319 14.8729 7.8342 15.9191L12.1389 18.2866V16.4557C12.1389 16.035 12.4799 15.694 12.9005 15.694H13.8101C15.2529 15.694 16.6365 15.1209 17.6567 14.1007C18.6769 13.0806 19.25 11.6969 19.25 10.2541V10.1899C19.25 7.18553 16.8145 4.75 13.8101 4.75H10.703ZM5.43292 5.43293C6.83063 4.03522 8.72632 3.25 10.703 3.25H13.8101C17.6429 3.25001 20.75 6.3571 20.75 10.1899V10.2541C20.75 12.0947 20.0188 13.8599 18.7174 15.1614C17.4159 16.4629 15.6507 17.194 13.8101 17.194H13.6389V18.4667C13.6389 18.9594 13.3787 19.4154 12.9546 19.6662C12.5305 19.917 12.0055 19.9252 11.5738 19.6877L7.11133 17.2334C4.7297 15.9236 3.25 13.4211 3.25 10.703C3.24999 8.72633 4.03522 6.83063 5.43292 5.43293ZM7.69444 10.6667C7.69444 10.2524 8.03023 9.91666 8.44444 9.91666H9.23457C9.64878 9.91666 9.98457 10.2524 9.98457 10.6667C9.98457 11.0809 9.64878 11.4167 9.23457 11.4167H8.44444C8.03023 11.4167 7.69444 11.0809 7.69444 10.6667ZM10.8549 10.6667C10.8549 10.2524 11.1907 9.91666 11.6049 9.91666H12.3951C12.8093 9.91666 13.1451 10.2524 13.1451 10.6667C13.1451 11.0809 12.8093 11.4167 12.3951 11.4167H11.6049C11.1907 11.4167 10.8549 11.0809 10.8549 10.6667ZM14.0154 10.6667C14.0154 10.2524 14.3512 9.91666 14.7654 9.91666H15.5556C15.9698 9.91666 16.3056 10.2524 16.3056 10.6667C16.3056 11.0809 15.9698 11.4167 15.5556 11.4167H14.7654C14.3512 11.4167 14.0154 11.0809 14.0154 10.6667Z"/>
</svg>
