<svg width="24" height="24" viewBox="0 0 24 24" xmlns="http://www.w3.org/2000/svg">
<path fill-rule="evenodd" clip-rule="evenodd" d="M10.703 3.99005H13.8101C17.2287 3.99006 20 6.76136 20 10.1799V10.2442C20 11.8859 19.3479 13.4603 18.187 14.6211C17.0262 15.7819 15.4518 16.4341 13.8101 16.4341H12.9005C12.8941 16.4341 12.8889 16.4393 12.8889 16.4457V18.4567C12.8889 18.6842 12.7687 18.8949 12.5729 19.0107C12.377 19.1265 12.1346 19.1303 11.9352 19.0206L7.47276 16.5663C5.3308 15.3883 4 13.1376 4 10.693C4 8.9153 4.7062 7.21036 5.96325 5.95331C7.2203 4.69625 8.92524 3.99005 10.703 3.99005ZM7.69434 10.6666C7.69434 10.2524 8.03012 9.91662 8.44434 9.91662H9.23446C9.64867 9.91662 9.98446 10.2524 9.98446 10.6666C9.98446 11.0808 9.64867 11.4166 9.23446 11.4166H8.44434C8.03012 11.4166 7.69434 11.0808 7.69434 10.6666ZM10.8548 10.6666C10.8548 10.2524 11.1906 9.91662 11.6048 9.91662H12.3949C12.8092 9.91662 13.1449 10.2524 13.1449 10.6666C13.1449 11.0808 12.8092 11.4166 12.3949 11.4166H11.6048C11.1906 11.4166 10.8548 11.0808 10.8548 10.6666ZM14.0153 10.6666C14.0153 10.2524 14.3511 9.91662 14.7653 9.91662H15.5554C15.9697 9.91662 16.3054 10.2524 16.3054 10.6666C16.3054 11.0808 15.9697 11.4166 15.5554 11.4166H14.7653C14.3511 11.4166 14.0153 11.0808 14.0153 10.6666Z"/>
</svg>
