<svg width="24" height="24" viewBox="0 0 24 24" xmlns="http://www.w3.org/2000/svg">
<path fill-rule="evenodd" clip-rule="evenodd" d="M12.25 5.75C8.66015 5.75 5.75 8.66015 5.75 12.25C5.75 15.8399 8.66015 18.75 12.25 18.75C15.8399 18.75 18.75 15.8399 18.75 12.25C18.75 8.66015 15.8399 5.75 12.25 5.75ZM4.25 12.25C4.25 7.83172 7.83172 4.25 12.25 4.25C16.6683 4.25 20.25 7.83172 20.25 12.25C20.25 16.6683 16.6683 20.25 12.25 20.25C7.83172 20.25 4.25 16.6683 4.25 12.25ZM11.5 8.25H13V11.9393L14.7803 13.7197L13.7197 14.7803L11.5 12.5607V8.25Z"/>
</svg>
