<svg width="24" height="24" viewBox="0 0 24 24" fill="none" xmlns="http://www.w3.org/2000/svg">
<rect width="24" height="24" rx="6" fill="#FEF3C7"/>
<path d="M13.3327 7.33333C13.3334 6.59667 11.8401 6 10.0001 6C8.16008 6 6.66808 6.59733 6.66675 7.33333C6.66675 8.07 8.15875 8.66667 10.0001 8.66667C11.8414 8.66667 13.3334 8.07 13.3334 7.33333" stroke="#F59E0B" stroke-width="1.5" stroke-linecap="round" stroke-linejoin="round"/>
<path d="M13.3333 7.33301V12.5063" stroke="#F59E0B" stroke-width="1.5" stroke-linecap="round" stroke-linejoin="round"/>
<path d="M6.66724 10C6.66724 10.7367 8.15924 11.3333 10.0006 11.3333C11.8419 11.3333 13.3339 10.7367 13.3339 10" stroke="#F59E0B" stroke-width="1.5" stroke-linecap="round" stroke-linejoin="round"/>
<path d="M17.1214 12.8785C18.2927 14.0498 18.2927 15.9498 17.1214 17.1212C15.9501 18.2925 14.0501 18.2925 12.8787 17.1212C11.7074 15.9498 11.7074 14.0498 12.8787 12.8785C14.0501 11.7072 15.9501 11.7072 17.1214 12.8785" stroke="#F59E0B" stroke-width="1.5" stroke-linecap="round" stroke-linejoin="round"/>
<path d="M12.3366 13.617C11.7352 13.8537 10.9106 14.0003 9.9999 14.0003C8.15924 14.0003 6.66724 13.4037 6.66724 12.667" stroke="#F59E0B" stroke-width="1.5" stroke-linecap="round" stroke-linejoin="round"/>
<path d="M12.2967 16.2957C11.6987 16.5243 10.8927 16.6663 10.0001 16.6663C8.15941 16.6663 6.66741 16.0697 6.66675 15.333V7.33301" stroke="#F59E0B" stroke-width="1.5" stroke-linecap="round" stroke-linejoin="round"/>
</svg>
