<svg width="24" height="24" viewBox="0 0 24 24" xmlns="http://www.w3.org/2000/svg">
<path fill-rule="evenodd" clip-rule="evenodd" d="M13.2 14.9479H14.7872L16.7566 16.5368C16.8838 16.6395 17.0593 16.6604 17.2074 16.5906C17.3556 16.5209 17.45 16.3729 17.45 16.2103V14.9479C18.8583 14.9479 20 13.8168 20 12.4215V6.52644C20 5.13113 18.8583 4 17.45 4H10.65C9.24167 4 8.1 5.13113 8.1 6.52644V9.89503H5.55C4.14167 9.89503 3 11.0262 3 12.4215V15.7901C3 17.1854 4.14167 18.3165 5.55 18.3165V19.5789C5.55 19.7414 5.6444 19.8895 5.79256 19.9592C5.94071 20.029 6.11616 20.0081 6.24336 19.9054L8.21279 18.3165H10.65C12.0583 18.3165 13.2 17.1854 13.2 15.7901V14.9479ZM14 6C13.6791 6 13.3861 6.18918 13.2442 6.48797L12.8154 7.39074C12.6926 7.64912 12.4553 7.82822 12.1808 7.86965L11.2215 8.01443C10.9041 8.06237 10.6405 8.29323 10.5413 8.60999C10.4422 8.92674 10.5247 9.27449 10.7543 9.50708L11.4487 10.2104C11.6472 10.4115 11.7377 10.7011 11.6909 10.9849L11.527 11.9768C11.4728 12.3052 11.6028 12.637 11.8623 12.8328C12.1218 13.0286 12.4658 13.0545 12.7497 12.8995L13.6079 12.4312C13.8534 12.2972 14.1466 12.2972 14.3921 12.4312L15.2502 12.8995C15.5342 13.0545 15.8782 13.0286 16.1377 12.8328C16.3972 12.637 16.5271 12.3052 16.4729 11.9768L16.3091 10.9849C16.2622 10.7011 16.3528 10.4115 16.5513 10.2104L17.2457 9.50708C17.4753 9.2745 17.5578 8.92675 17.4587 8.60999C17.3595 8.29322 17.0959 8.06236 16.7785 8.01442L15.8192 7.86963C15.5447 7.8282 15.3074 7.6491 15.1846 7.39072L14.7558 6.48797C14.6138 6.18918 14.3208 6 14 6Z"/>
</svg>
