<svg width="24" height="24" viewBox="0 0 24 24" xmlns="http://www.w3.org/2000/svg">
<path d="M8.44444 9.91666C8.03023 9.91666 7.69444 10.2524 7.69444 10.6667C7.69444 11.0809 8.03023 11.4167 8.44444 11.4167V9.91666ZM9.23457 11.4167C9.64878 11.4167 9.98457 11.0809 9.98457 10.6667C9.98457 10.2524 9.64878 9.91666 9.23457 9.91666V11.4167ZM11.6049 9.91666C11.1907 9.91666 10.8549 10.2524 10.8549 10.6667C10.8549 11.0809 11.1907 11.4167 11.6049 11.4167V9.91666ZM12.3951 11.4167C12.8093 11.4167 13.1451 11.0809 13.1451 10.6667C13.1451 10.2524 12.8093 9.91666 12.3951 9.91666V11.4167ZM14.7654 9.91666C14.3512 9.91666 14.0154 10.2524 14.0154 10.6667C14.0154 11.0809 14.3512 11.4167 14.7654 11.4167V9.91666ZM15.5556 11.4167C15.9698 11.4167 16.3056 11.0809 16.3056 10.6667C16.3056 10.2524 15.9698 9.91666 15.5556 9.91666V11.4167ZM10.703 4L10.703 4.75H10.703V4ZM13.8101 4L13.8101 3.25H13.8101V4ZM20 10.1899H19.25H20ZM12.8889 18.4667L13.6389 18.4667V18.4667H12.8889ZM11.9352 19.0306L11.5738 19.6877L11.5738 19.6877L11.9352 19.0306ZM7.47276 16.5763L7.8342 15.9191L7.8342 15.9191L7.47276 16.5763ZM4 10.703L4.75 10.703V10.703L4 10.703ZM8.44444 11.4167H9.23457V9.91666H8.44444V11.4167ZM11.6049 11.4167H12.3951V9.91666H11.6049V11.4167ZM14.7654 11.4167H15.5556V9.91666H14.7654V11.4167ZM10.703 4.75H13.8101V3.25H10.703V4.75ZM13.8101 4.75C16.8145 4.75 19.25 7.18553 19.25 10.1899H20.75C20.75 6.3571 17.6429 3.25001 13.8101 3.25L13.8101 4.75ZM19.25 10.1899V10.2541H20.75V10.1899H19.25ZM19.25 10.2541C19.25 11.6969 18.6769 13.0806 17.6567 14.1007L18.7174 15.1614C20.0188 13.8599 20.75 12.0947 20.75 10.2541H19.25ZM17.6567 14.1007C16.6365 15.1209 15.2529 15.694 13.8101 15.694V17.194C15.6507 17.194 17.4159 16.4629 18.7174 15.1614L17.6567 14.1007ZM13.8101 15.694H12.9005V17.194H13.8101V15.694ZM12.9005 15.694C12.4799 15.694 12.1389 16.035 12.1389 16.4557H13.6389C13.6389 16.8635 13.3083 17.194 12.9005 17.194V15.694ZM12.1389 16.4557V18.4667H13.6389V16.4557H12.1389ZM12.1389 18.4667C12.1389 18.429 12.1588 18.3942 12.1912 18.375L12.9546 19.6662C13.3787 19.4154 13.6389 18.9594 13.6389 18.4667L12.1389 18.4667ZM12.1912 18.375C12.2235 18.3559 12.2636 18.3552 12.2966 18.3734L11.5738 19.6877C12.0055 19.9252 12.5305 19.917 12.9546 19.6662L12.1912 18.375ZM12.2966 18.3734L7.8342 15.9191L7.11133 17.2334L11.5738 19.6877L12.2966 18.3734ZM7.8342 15.9191C5.9319 14.8729 4.75 12.874 4.75 10.703L3.25 10.703C3.25 13.4211 4.7297 15.9236 7.11133 17.2334L7.8342 15.9191ZM4.75 10.703C4.75 9.12415 5.37718 7.60999 6.49358 6.49359L5.43292 5.43293C4.03522 6.83063 3.24999 8.72633 3.25 10.703L4.75 10.703ZM6.49358 6.49359C7.60998 5.37718 9.12415 4.75 10.703 4.75L10.703 3.25C8.72632 3.25 6.83063 4.03522 5.43292 5.43293L6.49358 6.49359Z"/>
</svg>
