<svg width="24" height="24" viewBox="0 0 24 24" xmlns="http://www.w3.org/2000/svg">
<path fill-rule="evenodd" clip-rule="evenodd" d="M7.35 6.52644V9.14503H5.55C3.73404 9.14503 2.25 10.6054 2.25 12.4215V15.7901C2.25 17.3483 3.34261 18.6447 4.8 18.9814V19.5789C4.8 20.0347 5.06469 20.4455 5.47303 20.6378C5.88042 20.8296 6.36294 20.7726 6.7143 20.4891L8.47761 19.0665H10.65C12.466 19.0665 13.95 17.6061 13.95 15.7901V15.6979H14.5224L16.2857 17.1206C16.6371 17.404 17.1196 17.461 17.527 17.2692C17.9353 17.0769 18.2 16.6662 18.2 16.2103V15.6128C19.6574 15.2761 20.75 13.9797 20.75 12.4215V6.52644C20.75 4.71037 19.266 3.25 17.45 3.25H10.65C8.83404 3.25 7.35 4.71037 7.35 6.52644ZM12.45 15.6979H10.65C8.83404 15.6979 7.35 14.2375 7.35 12.4215V10.645H5.55C4.54931 10.645 3.75 11.4469 3.75 12.4215V15.7901C3.75 16.7646 4.54931 17.5665 5.55 17.5665C5.96421 17.5665 6.3 17.9023 6.3 18.3165V18.8961L7.74185 17.7328C7.87522 17.6252 8.04142 17.5665 8.21279 17.5665H10.65C11.6507 17.5665 12.45 16.7646 12.45 15.7901V15.6979ZM8.85 6.52644C8.85 5.55189 9.64931 4.75 10.65 4.75H17.45C18.4507 4.75 19.25 5.55189 19.25 6.52644V12.4215C19.25 13.396 18.4507 14.1979 17.45 14.1979C17.0358 14.1979 16.7 14.5337 16.7 14.9479V15.5275L15.2582 14.3642C15.1248 14.2566 14.9586 14.1979 14.7872 14.1979H14.2657H13.7802H10.65C9.64931 14.1979 8.85 13.396 8.85 12.4215V10.3237V10.241V6.52644Z"/>
<path fill-rule="evenodd" clip-rule="evenodd" d="M14.0501 7.0699L14.4241 7.82107C14.6431 8.26096 15.0647 8.56266 15.5486 8.63234L16.3708 8.75075L15.7803 9.3214C15.4275 9.66237 15.2648 10.1557 15.3488 10.6407L15.4896 11.4542L14.7425 11.0651C14.3088 10.8393 13.7914 10.8393 13.3577 11.0651L12.6105 11.4542L12.7514 10.6407C12.8353 10.1557 12.6726 9.66237 12.3198 9.32141L11.7293 8.75075L12.5516 8.63234C13.0354 8.56266 13.457 8.26097 13.6761 7.82107L14.0501 7.0699ZM16.395 8.75423L16.3979 8.73434L16.3931 8.72923M12.7117 6.39243C12.9651 5.88377 13.4851 5.56595 14.0501 5.56595C14.615 5.56595 15.1351 5.88377 15.3884 6.39243L15.7646 7.14797L16.6089 7.26955C17.1681 7.35014 17.6375 7.73915 17.8148 8.27948C17.9924 8.8206 17.8437 9.41327 17.4355 9.80783L16.8284 10.3945L16.9714 11.2199C17.0685 11.7813 16.8349 12.3459 16.3747 12.6772C15.9155 13.0078 15.3084 13.051 14.807 12.7899L14.0501 12.3958L13.2932 12.7899C12.7918 13.0509 12.1846 13.0078 11.7254 12.6772C11.2652 12.3459 11.0316 11.7814 11.1287 11.22L11.2717 10.3945L10.6647 9.80788C10.2565 9.41332 10.1077 8.8206 10.2853 8.27948C10.4626 7.73915 10.932 7.35015 11.4912 7.26956L12.3356 7.14797L12.7117 6.39243Z"/>
</svg>
