<svg width="24" height="24" viewBox="0 0 24 24" xmlns="http://www.w3.org/2000/svg">
<path fill-rule="evenodd" clip-rule="evenodd" d="M7.00962 4.2579C7.28237 3.72672 7.83571 3.36316 8.47368 3.36316H10.2632C10.9011 3.36316 11.4545 3.72672 11.7272 4.2579H18.3158C18.9882 4.2579 19.6057 4.49466 20.0572 4.9432C20.5092 5.39222 20.75 6.0089 20.75 6.68421V13C20.75 13.4142 20.4142 13.75 20 13.75C19.5858 13.75 19.25 13.4142 19.25 13V6.68421C19.25 6.37083 19.143 6.14936 19.0001 6.00739C18.8567 5.86494 18.6321 5.7579 18.3158 5.7579H11.9079V9.48158C11.9079 9.74151 11.7733 9.98291 11.5522 10.1196C11.3311 10.2562 11.055 10.2686 10.8225 10.1524L9.36842 9.42537L7.91436 10.1524C7.68187 10.2686 7.40576 10.2562 7.18465 10.1196C6.96354 9.98291 6.82895 9.74151 6.82895 9.48158V5.7579H5.78947C5.14899 5.7579 4.75 6.1728 4.75 6.68421V18.3158C4.75 18.8317 5.15388 19.25 5.78947 19.25H13C13.4142 19.25 13.75 19.5858 13.75 20C13.75 20.4142 13.4142 20.75 13 20.75H5.78947C4.4477 20.75 3.25 19.7773 3.25 18.3158V6.68421C3.25 5.21825 4.45258 4.2579 5.78947 4.2579H7.00962ZM8.47368 4.86316C8.394 4.86316 8.32895 4.92821 8.32895 5.0079V8.26805L9.03301 7.91602C9.24416 7.81045 9.49269 7.81045 9.70383 7.91602L10.4079 8.26805V5.0079C10.4079 4.92821 10.3428 4.86316 10.2632 4.86316H8.47368ZM13.75 9.48158C13.75 9.06737 14.0858 8.73158 14.5 8.73158H16C16.4142 8.73158 16.75 9.06737 16.75 9.48158C16.75 9.89579 16.4142 10.2316 16 10.2316H14.5C14.0858 10.2316 13.75 9.89579 13.75 9.48158ZM7.27632 13C7.27632 12.5858 7.6121 12.25 8.02632 12.25H16C16.4142 12.25 16.75 12.5858 16.75 13C16.75 13.4142 16.4142 13.75 16 13.75H8.02632C7.6121 13.75 7.27632 13.4142 7.27632 13ZM7.25 16C7.25 15.5858 7.58579 15.25 8 15.25H12C12.4142 15.25 12.75 15.5858 12.75 16C12.75 16.4142 12.4142 16.75 12 16.75H8C7.58579 16.75 7.25 16.4142 7.25 16ZM18 15.25C18.4142 15.25 18.75 15.5858 18.75 16V17.25H20C20.4142 17.25 20.75 17.5858 20.75 18C20.75 18.4142 20.4142 18.75 20 18.75H18.75V20C18.75 20.4142 18.4142 20.75 18 20.75C17.5858 20.75 17.25 20.4142 17.25 20V18.75H16C15.5858 18.75 15.25 18.4142 15.25 18C15.25 17.5858 15.5858 17.25 16 17.25H17.25V16C17.25 15.5858 17.5858 15.25 18 15.25Z"/>
</svg>
