<svg width="24" height="24" viewBox="0 0 24 24" xmlns="http://www.w3.org/2000/svg">
<path fill-rule="evenodd" clip-rule="evenodd" d="M6.01618 5.41321C6.00552 5.48886 6 5.56616 6 5.64474V10.1184C6 10.3784 6.13459 10.6198 6.3557 10.7564C6.57681 10.8931 6.85292 10.9055 7.08541 10.7892L8.53947 10.0622L9.99354 10.7892C10.226 10.9055 10.5021 10.8931 10.7232 10.7564C10.9444 10.6198 11.0789 10.3784 11.0789 10.1184V5.64474C11.0789 5.53827 11.0688 5.43416 11.0495 5.33331H17.3333C18.8061 5.33331 20 6.52722 20 7.99998V17.0952C19.7533 16.9623 19.471 16.8868 19.1711 16.8868H18.9211V16.6368C18.9211 15.6703 18.1376 14.8868 17.1711 14.8868C16.2046 14.8868 15.4211 15.6703 15.4211 16.6368V16.8868H15.1711C14.2046 16.8868 13.4211 17.6703 13.4211 18.6368C13.4211 19.1877 13.6757 19.6792 14.0736 20L6.66667 20C5.19391 20 4 18.8061 4 17.3333V7.99998C4 6.7516 4.85783 5.70358 6.01618 5.41321ZM7.5 5.64474C7.5 5.56506 7.56506 5.5 7.64474 5.5H9.43421C9.51389 5.5 9.57895 5.56506 9.57895 5.64474V8.9049L8.87488 8.55286C8.66374 8.44729 8.41521 8.44729 8.20406 8.55286L7.5 8.9049V5.64474ZM13.6711 9.36842C13.2568 9.36842 12.9211 9.70421 12.9211 10.1184C12.9211 10.5326 13.2568 10.8684 13.6711 10.8684H15.1711C15.5853 10.8684 15.9211 10.5326 15.9211 10.1184C15.9211 9.70421 15.5853 9.36842 15.1711 9.36842H13.6711ZM7.19737 12.8868C6.78315 12.8868 6.44737 13.2226 6.44737 13.6368C6.44737 14.0511 6.78315 14.3868 7.19737 14.3868H15.1711C15.5853 14.3868 15.9211 14.0511 15.9211 13.6368C15.9211 13.2226 15.5853 12.8868 15.1711 12.8868H7.19737ZM7.17105 15.8868C6.75684 15.8868 6.42105 16.2226 6.42105 16.6368C6.42105 17.0511 6.75684 17.3868 7.17105 17.3868H11.1711C11.5853 17.3868 11.9211 17.0511 11.9211 16.6368C11.9211 16.2226 11.5853 15.8868 11.1711 15.8868H7.17105ZM17.1711 18.5483C17.1435 18.5796 17.1139 18.6092 17.0826 18.6368C17.1139 18.6645 17.1435 18.6941 17.1711 18.7254C17.1988 18.6941 17.2284 18.6645 17.2597 18.6368C17.2284 18.6092 17.1988 18.5796 17.1711 18.5483Z"/>
<path d="M17.1711 15.8868C17.5854 15.8868 17.9211 16.2226 17.9211 16.6368V17.8868H19.1711C19.5854 17.8868 19.9211 18.2226 19.9211 18.6368C19.9211 19.0511 19.5854 19.3868 19.1711 19.3868H17.9211V20.6368C17.9211 21.0511 17.5854 21.3868 17.1711 21.3868C16.7569 21.3868 16.4211 21.0511 16.4211 20.6368V19.3868H15.1711C14.7569 19.3868 14.4211 19.0511 14.4211 18.6368C14.4211 18.2226 14.7569 17.8868 15.1711 17.8868H16.4211V16.6368C16.4211 16.2226 16.7569 15.8868 17.1711 15.8868Z"/>
</svg>
