<svg width="24" height="24" viewBox="0 0 24 24" xmlns="http://www.w3.org/2000/svg">
<path fill-rule="evenodd" clip-rule="evenodd" d="M7 5.75C6.30964 5.75 5.75 6.30964 5.75 7V13.75C5.75 14.3023 6.19771 14.75 6.75 14.75C7.16421 14.75 7.5 15.0858 7.5 15.5C7.5 15.9142 7.16421 16.25 6.75 16.25C5.36929 16.25 4.25 15.1307 4.25 13.75V7C4.25 5.48122 5.48122 4.25 7 4.25H13.75C15.1307 4.25 16.25 5.36929 16.25 6.75C16.25 7.16421 15.9142 7.5 15.5 7.5C15.0858 7.5 14.75 7.16421 14.75 6.75C14.75 6.19771 14.3023 5.75 13.75 5.75H7ZM11 9.75C10.3096 9.75 9.75 10.3096 9.75 11V17.5C9.75 18.1904 10.3096 18.75 11 18.75H17.5C18.1904 18.75 18.75 18.1904 18.75 17.5V11C18.75 10.3096 18.1904 9.75 17.5 9.75H11ZM8.25 11C8.25 9.48122 9.48122 8.25 11 8.25H17.5C19.0188 8.25 20.25 9.48122 20.25 11V17.5C20.25 19.0188 19.0188 20.25 17.5 20.25H11C9.48122 20.25 8.25 19.0188 8.25 17.5V11Z"/>
</svg>
