<svg width="24" height="24" viewBox="0 0 24 24" xmlns="http://www.w3.org/2000/svg">
<path fill-rule="evenodd" clip-rule="evenodd" d="M17.6796 9.18536C17.8884 9.09256 18.0783 8.99932 18.25 8.90823V12.147C18.2274 12.1637 18.203 12.1813 18.1769 12.1998C17.9491 12.3605 17.5855 12.5857 17.0704 12.8146C16.0428 13.2714 14.3967 13.75 12 13.75C9.60328 13.75 7.95721 13.2714 6.9296 12.8146C6.41446 12.5857 6.05086 12.3605 5.82314 12.1998C5.79698 12.1813 5.77261 12.1637 5.75 12.147V8.90823C5.92168 8.99932 6.11161 9.09256 6.3204 9.18536C7.54279 9.72865 9.39672 10.25 12 10.25C14.6033 10.25 16.4572 9.72865 17.6796 9.18536ZM17.6796 14.1854C17.8884 14.0926 18.0783 13.9993 18.25 13.9082V17.0858C18.25 17.1204 18.243 17.1425 18.2385 17.1524C18.2348 17.1605 18.2338 17.1589 18.2376 17.1561C17.6192 17.6088 15.7004 18.75 12 18.75C8.30299 18.75 6.38431 17.6109 5.7641 17.1574C5.76354 17.1565 5.76267 17.1549 5.76154 17.1524C5.75701 17.1425 5.75 17.1204 5.75 17.0858V13.9082C5.92168 13.9993 6.11161 14.0926 6.3204 14.1854C7.54279 14.7286 9.39672 15.25 12 15.25C14.6033 15.25 16.4572 14.7286 17.6796 14.1854ZM17.0108 6.90562C17.3406 7.08886 17.6086 7.27059 17.8187 7.4308C17.6185 7.5495 17.3701 7.68143 17.0704 7.81464C16.0428 8.27135 14.3967 8.75 12 8.75C9.60328 8.75 7.95721 8.27135 6.9296 7.81464C6.62989 7.68143 6.38146 7.5495 6.18126 7.4308C6.39143 7.27059 6.6594 7.08886 6.98923 6.90562C8.00625 6.34061 9.63133 5.75 12 5.75C14.3687 5.75 15.9938 6.34061 17.0108 6.90562Z"/>
</svg>
