<svg width="24" height="24" viewBox="0 0 24 24" xmlns="http://www.w3.org/2000/svg">
<path fill-rule="evenodd" clip-rule="evenodd" d="M5 7.5C4.41435 7.03148 4.41464 7.03112 4.41493 7.03075L4.41556 7.02997L4.41696 7.02823L4.42034 7.02406L4.42942 7.01306C4.4365 7.00455 4.44566 6.99372 4.45691 6.98073C4.47943 6.95475 4.51038 6.92011 4.55001 6.87807C4.62927 6.79401 4.74338 6.68026 4.89441 6.547C5.19652 6.28043 5.64657 5.9356 6.26077 5.59438C7.49375 4.90939 9.36867 4.25 12 4.25C14.6313 4.25 16.5062 4.90939 17.7392 5.59438C18.3534 5.9356 18.8035 6.28043 19.1056 6.547C19.2566 6.68026 19.3707 6.79401 19.45 6.87807C19.4896 6.92011 19.5206 6.95475 19.5431 6.98073C19.5543 6.99372 19.5635 7.00455 19.5706 7.01306L19.5797 7.02406L19.583 7.02823L19.5844 7.02997L19.5851 7.03075C19.5854 7.03112 19.5857 7.03148 19 7.5L19.5851 7.03075C19.6915 7.16374 19.75 7.3297 19.75 7.5V17.0858C19.75 17.5427 19.5659 18.0427 19.1237 18.3664C18.2613 18.9978 16.0349 20.25 12 20.25C7.96514 20.25 5.73874 18.9978 4.87632 18.3664C4.43406 18.0427 4.25 17.5427 4.25 17.0858V7.5C4.25 7.3297 4.30854 7.16374 4.41493 7.03075L5 7.5ZM18.25 8.90823C18.0783 8.99932 17.8884 9.09256 17.6796 9.18536C16.4572 9.72865 14.6033 10.25 12 10.25C9.39672 10.25 7.54279 9.72865 6.3204 9.18536C6.11161 9.09256 5.92168 8.99932 5.75 8.90823V12.147C5.77261 12.1637 5.79698 12.1813 5.82314 12.1998C6.05086 12.3605 6.41446 12.5857 6.9296 12.8146C7.95721 13.2714 9.60328 13.75 12 13.75C14.3967 13.75 16.0428 13.2714 17.0704 12.8146C17.5855 12.5857 17.9491 12.3605 18.1769 12.1998C18.203 12.1813 18.2274 12.1637 18.25 12.147V8.90823ZM18.25 13.9082C18.0783 13.9993 17.8884 14.0926 17.6796 14.1854C16.4572 14.7286 14.6033 15.25 12 15.25C9.39672 15.25 7.54279 14.7286 6.3204 14.1854C6.11161 14.0926 5.92168 13.9993 5.75 13.9082V17.0858C5.75 17.1204 5.75701 17.1425 5.76154 17.1524C5.76267 17.1549 5.76354 17.1565 5.7641 17.1574C6.38431 17.6109 8.30299 18.75 12 18.75C15.7004 18.75 17.6192 17.6088 18.2376 17.1561C18.2338 17.1589 18.2348 17.1605 18.2385 17.1524C18.243 17.1425 18.25 17.1204 18.25 17.0858V13.9082ZM17.8187 7.4308C17.6086 7.27059 17.3406 7.08886 17.0108 6.90562C15.9938 6.34061 14.3687 5.75 12 5.75C9.63133 5.75 8.00625 6.34061 6.98923 6.90562C6.6594 7.08886 6.39143 7.27059 6.18126 7.4308C6.38146 7.5495 6.62989 7.68143 6.9296 7.81464C7.95721 8.27135 9.60328 8.75 12 8.75C14.3967 8.75 16.0428 8.27135 17.0704 7.81464C17.3701 7.68143 17.6185 7.5495 17.8187 7.4308Z"/>
</svg>
