<svg width="24" height="24" viewBox="0 0 24 24" xmlns="http://www.w3.org/2000/svg">
<path fill-rule="evenodd" clip-rule="evenodd" d="M19 7C19 6.44772 18.5523 6 18 6H6C5.44771 6 5 6.44772 5 7C5 7.55228 5.44771 8 6 8H18C18.5523 8 19 7.55228 19 7ZM19 12C19 11.4477 18.5523 11 18 11H6C5.44771 11 5 11.4477 5 12C5 12.5523 5.44771 13 6 13H18C18.5523 13 19 12.5523 19 12ZM19 17C19 16.4477 18.5523 16 18 16H11C10.4477 16 10 16.4477 10 17C10 17.5523 10.4477 18 11 18H18C18.5523 18 19 17.5523 19 17Z"/>
</svg>
