<svg width="24" height="24" viewBox="0 0 24 24" xmlns="http://www.w3.org/2000/svg">
<path fill-rule="evenodd" clip-rule="evenodd" d="M5 18V6C5 4.89543 5.89543 4 7 4H11.8226C12.0988 4 12.322 4.22355 12.322 4.4997V7.9661C12.322 9.07067 13.2175 9.9661 14.322 9.9661H17.7884C18.0646 9.9661 18.2881 10.189 18.2881 10.4651V18C18.2881 19.1046 17.3927 20 16.2881 20H15.8475H7.71186H7C5.89543 20 5 19.1046 5 18ZM8.5 12.3929C8.08579 12.3929 7.75 12.7287 7.75 13.1429C7.75 13.5571 8.08579 13.8929 8.5 13.8929H10.8333C11.2475 13.8929 11.5833 13.5571 11.5833 13.1429C11.5833 12.7287 11.2475 12.3929 10.8333 12.3929H8.5ZM8.5 15.8215C8.08579 15.8215 7.75 16.1572 7.75 16.5715C7.75 16.9857 8.08579 17.3215 8.5 17.3215H15.5C15.9142 17.3215 16.25 16.9857 16.25 16.5715C16.25 16.1572 15.9142 15.8215 15.5 15.8215H8.5Z"/>
<path d="M17.3344 8.98757C17.7738 8.99226 18.0051 8.46849 17.7056 8.14687L14.188 4.36896C13.8785 4.03662 13.322 4.25558 13.322 4.70968V6.96612C13.322 8.07069 14.2175 8.96613 15.322 8.96613L17.3344 8.98757Z"/>
</svg>
