<svg width="24" height="24" viewBox="0 0 24 24" xmlns="http://www.w3.org/2000/svg">
<path fill-rule="evenodd" clip-rule="evenodd" d="M7 4.75C6.30964 4.75 5.75 5.30964 5.75 6V18C5.75 18.6904 6.30964 19.25 7 19.25H17C17.6904 19.25 18.25 18.6904 18.25 18V10.4643H14.1667C13.2002 10.4643 12.4167 9.68078 12.4167 8.71428V4.75H7ZM13.9167 5.78459L17.1626 8.96429H14.1667C14.0286 8.96429 13.9167 8.85236 13.9167 8.71428V5.78459ZM4.25 6C4.25 4.48122 5.48122 3.25 7 3.25H13.4728L19.75 9.39909V18C19.75 19.5188 18.5188 20.75 17 20.75H7C5.48122 20.75 4.25 19.5188 4.25 18V6ZM7.75 13.1429C7.75 12.7286 8.08579 12.3929 8.5 12.3929H10.8333C11.2475 12.3929 11.5833 12.7286 11.5833 13.1429C11.5833 13.5571 11.2475 13.8929 10.8333 13.8929H8.5C8.08579 13.8929 7.75 13.5571 7.75 13.1429ZM7.75 16.5714C7.75 16.1572 8.08579 15.8214 8.5 15.8214H15.5C15.9142 15.8214 16.25 16.1572 16.25 16.5714C16.25 16.9856 15.9142 17.3214 15.5 17.3214H8.5C8.08579 17.3214 7.75 16.9856 7.75 16.5714Z"/>
</svg>
