<svg width="24" height="24" viewBox="0 0 24 24" xmlns="http://www.w3.org/2000/svg">
<path fill-rule="evenodd" clip-rule="evenodd" d="M4.25 6C4.25 5.0335 5.0335 4.25 6 4.25H10C10.4142 4.25 10.75 4.58579 10.75 5C10.75 5.41421 10.4142 5.75 10 5.75H6C5.86193 5.75 5.75 5.86193 5.75 6V18C5.75 18.1381 5.86193 18.25 6 18.25H14.25V13C14.25 12.5858 14.5858 12.25 15 12.25C15.4142 12.25 15.75 12.5858 15.75 13V18.25H19C19.4142 18.25 19.75 18.5858 19.75 19C19.75 19.4142 19.4142 19.75 19 19.75H6C5.0335 19.75 4.25 18.9665 4.25 18V6ZM15.7197 4.46967C16.0126 4.17678 16.4874 4.17678 16.7803 4.46967C17.0732 4.76256 17.0732 5.23744 16.7803 5.53033L15.8107 6.5H18.5C18.9142 6.5 19.25 6.83579 19.25 7.25C19.25 7.66421 18.9142 8 18.5 8H15.8107L16.7803 8.96967C17.0732 9.26256 17.0732 9.73744 16.7803 10.0303C16.4874 10.3232 16.0126 10.3232 15.7197 10.0303L13.4697 7.78033C13.1768 7.48744 13.1768 7.01256 13.4697 6.71967L15.7197 4.46967ZM12 12.25C12.1381 12.25 12.25 12.1381 12.25 12C12.25 11.8619 12.1381 11.75 12 11.75C11.8619 11.75 11.75 11.8619 11.75 12C11.75 12.1381 11.8619 12.25 12 12.25ZM10.75 12C10.75 11.3096 11.3096 10.75 12 10.75C12.6904 10.75 13.25 11.3096 13.25 12C13.25 12.6904 12.6904 13.25 12 13.25C11.3096 13.25 10.75 12.6904 10.75 12Z"/>
</svg>
