<svg width="24" height="24" viewBox="0 0 24 24" xmlns="http://www.w3.org/2000/svg">
<path fill-rule="evenodd" clip-rule="evenodd" d="M4.25 6C4.25 5.0335 5.0335 4.25 6 4.25H10C10.4142 4.25 10.75 4.58579 10.75 5C10.75 5.41421 10.4142 5.75 10 5.75H6C5.86193 5.75 5.75 5.86193 5.75 6V18C5.75 18.1381 5.86193 18.25 6 18.25H14.25V13C14.25 12.5858 14.5858 12.25 15 12.25C15.4142 12.25 15.75 12.5858 15.75 13V18.25H19C19.4142 18.25 19.75 18.5858 19.75 19C19.75 19.4142 19.4142 19.75 19 19.75H6C5.0335 19.75 4.25 18.9665 4.25 18V6ZM14.4697 4.46968C14.7626 4.17679 15.2374 4.17679 15.5303 4.46968L16.591 5.53034L17.6517 4.46968C17.9445 4.17679 18.4194 4.17679 18.7123 4.46968C19.0052 4.76258 19.0052 5.23745 18.7123 5.53034L17.6517 6.591L18.7123 7.65166C19.0052 7.94456 19.0052 8.41943 18.7123 8.71232C18.4194 9.00522 17.9445 9.00522 17.6516 8.71232L16.591 7.65166L15.5303 8.71232C15.2374 9.00522 14.7626 9.00522 14.4697 8.71232C14.1768 8.41943 14.1768 7.94456 14.4697 7.65166L15.5303 6.591L14.4697 5.53034C14.1768 5.23745 14.1768 4.76258 14.4697 4.46968ZM12 12.25C12.1381 12.25 12.25 12.1381 12.25 12C12.25 11.8619 12.1381 11.75 12 11.75C11.8619 11.75 11.75 11.8619 11.75 12C11.75 12.1381 11.8619 12.25 12 12.25ZM10.75 12C10.75 11.3096 11.3096 10.75 12 10.75C12.6904 10.75 13.25 11.3096 13.25 12C13.25 12.6904 12.6904 13.25 12 13.25C11.3096 13.25 10.75 12.6904 10.75 12Z"/>
</svg>
