<svg width="24" height="24" viewBox="0 0 24 24" fill="none" xmlns="http://www.w3.org/2000/svg">
<path fill-rule="evenodd" clip-rule="evenodd" d="M13.0714 6.59099C12.6905 6.13035 12.5 5.56517 12.5 5H6C5.44772 5 5 5.44772 5 6V18C5 18.5523 5.44772 19 6 19H14C14.5523 19 15 18.5523 15 18V13V10.682C14.3602 10.682 13.7204 10.4379 13.2322 9.94975C12.3129 9.03038 12.2592 7.5731 13.0714 6.59099ZM11 12.5C11 11.6716 11.6716 11 12.5 11C13.3284 11 14 11.6716 14 12.5C14 13.3284 13.3284 14 12.5 14C11.6716 14 11 13.3284 11 12.5Z" fill="#1C1C1C"/>
<path d="M12.5 5H13.25C13.25 4.58579 12.9142 4.25 12.5 4.25V5ZM13.0714 6.59099L13.6494 7.06894C13.8787 6.79158 13.8787 6.3904 13.6494 6.11304L13.0714 6.59099ZM15 10.682H15.75C15.75 10.2678 15.4142 9.93198 15 9.93198V10.682ZM13.2322 9.94975L12.7019 10.4801H12.7019L13.2322 9.94975ZM6 18.25C5.58579 18.25 5.25 18.5858 5.25 19C5.25 19.4142 5.58579 19.75 6 19.75V18.25ZM19 19.75C19.4142 19.75 19.75 19.4142 19.75 19C19.75 18.5858 19.4142 18.25 19 18.25V19.75ZM15.75 10.682C15.75 10.2678 15.4142 9.93198 15 9.93198C14.5858 9.93198 14.25 10.2678 14.25 10.682H15.75ZM11.75 5C11.75 5.73339 11.9974 6.46909 12.4934 7.06894L13.6494 6.11304C13.3835 5.7916 13.25 5.39695 13.25 5H11.75ZM6 5.75H12.5V4.25H6V5.75ZM5.75 6C5.75 5.86193 5.86193 5.75 6 5.75V4.25C5.0335 4.25 4.25 5.0335 4.25 6H5.75ZM5.75 18V6H4.25V18H5.75ZM6 18.25C5.86193 18.25 5.75 18.1381 5.75 18H4.25C4.25 18.9665 5.0335 19.75 6 19.75V18.25ZM14 18.25H6V19.75H14V18.25ZM14.25 18C14.25 18.1381 14.1381 18.25 14 18.25V19.75C14.9665 19.75 15.75 18.9665 15.75 18H14.25ZM14.25 13V18H15.75V13H14.25ZM14.25 10.682V13H15.75V10.682H14.25ZM12.7019 10.4801C13.3364 11.1145 14.1694 11.432 15 11.432V9.93198C14.551 9.93198 14.1044 9.76127 13.7626 9.41942L12.7019 10.4801ZM12.4934 6.11304C11.4371 7.39041 11.5064 9.2846 12.7019 10.4801L13.7626 9.41942C13.1193 8.77617 13.0814 7.7558 13.6494 7.06894L12.4934 6.11304ZM12.5 10.25C11.2574 10.25 10.25 11.2574 10.25 12.5H11.75C11.75 12.0858 12.0858 11.75 12.5 11.75V10.25ZM14.75 12.5C14.75 11.2574 13.7426 10.25 12.5 10.25V11.75C12.9142 11.75 13.25 12.0858 13.25 12.5H14.75ZM12.5 14.75C13.7426 14.75 14.75 13.7426 14.75 12.5H13.25C13.25 12.9142 12.9142 13.25 12.5 13.25V14.75ZM10.25 12.5C10.25 13.7426 11.2574 14.75 12.5 14.75V13.25C12.0858 13.25 11.75 12.9142 11.75 12.5H10.25ZM6 19.75H15V18.25H6V19.75ZM15 19.75H19V18.25H15V19.75ZM15.75 19V13H14.25V19H15.75ZM14.25 10.682V13H15.75V10.682H14.25Z" fill="#1C1C1C"/>
<path d="M18.182 5L16.591 6.59099M16.591 6.59099L15 8.18198M16.591 6.59099L18.182 8.18198M16.591 6.59099L15 5" stroke="#1C1C1C" stroke-width="1.5" stroke-linecap="round" stroke-linejoin="round"/>
</svg>
