<svg width="24" height="24" viewBox="0 0 24 24" fill="none" xmlns="http://www.w3.org/2000/svg">
<path fill-rule="evenodd" clip-rule="evenodd" d="M6 5H12.7145L12.2322 5.48223C11.2559 6.45854 11.2559 8.04146 12.2322 9.01777L14.4822 11.2678C14.6406 11.4261 14.8149 11.5588 15 11.6658V13V18C15 18.5523 14.5523 19 14 19H6C5.44772 19 5 18.5523 5 18V6C5 5.44772 5.44772 5 6 5ZM11 12.5C11 11.6716 11.6716 11 12.5 11C13.3284 11 14 11.6716 14 12.5C14 13.3284 13.3284 14 12.5 14C11.6716 14 11 13.3284 11 12.5Z" fill="#1C1C1C"/>
<path d="M12.7145 5L13.2448 5.53033C13.4593 5.31583 13.5235 4.99324 13.4074 4.71299C13.2913 4.43273 13.0178 4.25 12.7145 4.25V5ZM14.4822 11.2678L15.0126 10.7374L15.0126 10.7374L14.4822 11.2678ZM15 11.6658H15.75C15.75 11.398 15.6072 11.1505 15.3753 11.0164L15 11.6658ZM6 18.25C5.58579 18.25 5.25 18.5858 5.25 19C5.25 19.4142 5.58579 19.75 6 19.75V18.25ZM19 19.75C19.4142 19.75 19.75 19.4142 19.75 19C19.75 18.5858 19.4142 18.25 19 18.25V19.75ZM15.75 11.6658C15.75 11.2516 15.4142 10.9158 15 10.9158C14.5858 10.9158 14.25 11.2516 14.25 11.6658H15.75ZM12.7145 4.25H6V5.75H12.7145V4.25ZM12.7626 6.01256L13.2448 5.53033L12.1841 4.46967L11.7019 4.9519L12.7626 6.01256ZM12.7626 8.48744C12.0791 7.80402 12.0791 6.69598 12.7626 6.01256L11.7019 4.9519C10.4327 6.22111 10.4327 8.27889 11.7019 9.5481L12.7626 8.48744ZM15.0126 10.7374L12.7626 8.48744L11.7019 9.5481L13.9519 11.7981L15.0126 10.7374ZM15.3753 11.0164C15.2464 10.9419 15.1242 10.8491 15.0126 10.7374L13.9519 11.7981C14.1569 12.0031 14.3835 12.1757 14.6247 12.3151L15.3753 11.0164ZM15.75 13V11.6658H14.25V13H15.75ZM15.75 18V13H14.25V18H15.75ZM14 19.75C14.9665 19.75 15.75 18.9665 15.75 18H14.25C14.25 18.1381 14.1381 18.25 14 18.25V19.75ZM6 19.75H14V18.25H6V19.75ZM4.25 18C4.25 18.9665 5.0335 19.75 6 19.75V18.25C5.86193 18.25 5.75 18.1381 5.75 18H4.25ZM4.25 6V18H5.75V6H4.25ZM6 4.25C5.0335 4.25 4.25 5.0335 4.25 6H5.75C5.75 5.86193 5.86193 5.75 6 5.75V4.25ZM12.5 10.25C11.2574 10.25 10.25 11.2574 10.25 12.5H11.75C11.75 12.0858 12.0858 11.75 12.5 11.75V10.25ZM14.75 12.5C14.75 11.2574 13.7426 10.25 12.5 10.25V11.75C12.9142 11.75 13.25 12.0858 13.25 12.5H14.75ZM12.5 14.75C13.7426 14.75 14.75 13.7426 14.75 12.5H13.25C13.25 12.9142 12.9142 13.25 12.5 13.25V14.75ZM10.25 12.5C10.25 13.7426 11.2574 14.75 12.5 14.75V13.25C12.0858 13.25 11.75 12.9142 11.75 12.5H10.25ZM6 19.75H15V18.25H6V19.75ZM15 19.75H19V18.25H15V19.75ZM15.75 19V13H14.25V19H15.75ZM14.25 11.6658V13H15.75V11.6658H14.25Z" fill="#1C1C1C"/>
<path d="M14 7.25H18.5M14 7.25L16.25 5M14 7.25L16.25 9.5" stroke="#1C1C1C" stroke-width="1.5" stroke-linecap="round" stroke-linejoin="round"/>
</svg>
