<svg width="24" height="24" viewBox="0 0 24 24" xmlns="http://www.w3.org/2000/svg">
<path fill-rule="evenodd" clip-rule="evenodd" d="M15.5303 7.46967C15.8232 7.76256 15.8232 8.23744 15.5303 8.53033L13.0303 11.0303C12.7374 11.3232 12.2626 11.3232 11.9697 11.0303C11.6768 10.7374 11.6768 10.2626 11.9697 9.96967L14.4697 7.46967C14.7626 7.17678 15.2374 7.17678 15.5303 7.46967ZM20.5303 7.46967C20.8232 7.76256 20.8232 8.23744 20.5303 8.53033L13.1265 15.9342C12.8336 16.2271 12.3587 16.2271 12.0658 15.9342L8.46967 12.338C8.17678 12.0451 8.17678 11.5703 8.46967 11.2774C8.76256 10.9845 9.23744 10.9845 9.53033 11.2774L12.5962 14.3432L19.4697 7.46967C19.7626 7.17678 20.2374 7.17678 20.5303 7.46967ZM3.46967 11.2774C3.76256 10.9845 4.23744 10.9845 4.53033 11.2774L8.12648 14.8735C8.41938 15.1664 8.41938 15.6413 8.12648 15.9342C7.83359 16.2271 7.35872 16.2271 7.06582 15.9342L3.46967 12.338C3.17678 12.0451 3.17678 11.5703 3.46967 11.2774Z"/>
</svg>
