<svg width="24" height="24" viewBox="0 0 24 24" fill="none" xmlns="http://www.w3.org/2000/svg">
<path d="M12.322 4L12.8524 3.46967L12.6327 3.25H12.322V4ZM18.2881 9.9661H19.0381V9.65544L18.8185 9.43577L18.2881 9.9661ZM7.71186 20.75C8.12608 20.75 8.46186 20.4142 8.46186 20C8.46186 19.5858 8.12608 19.25 7.71186 19.25V20.75ZM15.8475 19.25C15.4332 19.25 15.0975 19.5858 15.0975 20C15.0975 20.4142 15.4332 20.75 15.8475 20.75V19.25ZM14.764 17.9484C15.0493 17.6481 15.0372 17.1734 14.737 16.888C14.4367 16.6027 13.962 16.6148 13.6767 16.9151L14.764 17.9484ZM11.7797 20L11.236 20.5167C11.3776 20.6656 11.5741 20.75 11.7797 20.75C11.9852 20.75 12.1817 20.6656 12.3233 20.5167L11.7797 20ZM9.88265 16.9151C9.59731 16.6148 9.12259 16.6027 8.82233 16.888C8.52207 17.1734 8.50998 17.6481 8.79532 17.9484L9.88265 16.9151ZM11.0297 19.8166C11.0297 20.2308 11.3654 20.5665 11.7797 20.5665C12.1939 20.5666 12.5297 20.2308 12.5297 19.8166H11.0297ZM12.5297 13.7627C12.5297 13.3485 12.1939 13.0127 11.7797 13.0127C11.3654 13.0127 11.0297 13.3485 11.0297 13.7627H12.5297ZM5.75 18V6H4.25V18H5.75ZM7 4.75H12.322V3.25H7V4.75ZM17.5381 9.9661V18H19.0381V9.9661H17.5381ZM11.7917 4.53033L17.7578 10.4964L18.8185 9.43577L12.8524 3.46967L11.7917 4.53033ZM11.572 4V7.9661H13.072V4H11.572ZM14.322 10.7161H18.2881V9.2161H14.322V10.7161ZM7.71186 19.25H7V20.75H7.71186V19.25ZM16.2881 19.25H15.8475V20.75H16.2881V19.25ZM13.6767 16.9151L11.236 19.4833L12.3233 20.5167L14.764 17.9484L13.6767 16.9151ZM12.3233 19.4833L9.88265 16.9151L8.79532 17.9484L11.236 20.5167L12.3233 19.4833ZM12.5297 19.8166L12.5297 13.7627H11.0297L11.0297 19.8166H12.5297ZM17.5381 18C17.5381 18.6904 16.9785 19.25 16.2881 19.25V20.75C17.8069 20.75 19.0381 19.5188 19.0381 18H17.5381ZM5.75 6C5.75 5.30964 6.30964 4.75 7 4.75V3.25C5.48122 3.25 4.25 4.48122 4.25 6H5.75ZM11.572 7.9661C11.572 9.48488 12.8032 10.7161 14.322 10.7161V9.2161C13.6317 9.2161 13.072 8.65646 13.072 7.9661H11.572ZM4.25 18C4.25 19.5188 5.48122 20.75 7 20.75V19.25C6.30964 19.25 5.75 18.6904 5.75 18H4.25Z" fill="#1C1C1C"/>
</svg>
