<svg width="24" height="24" viewBox="0 0 24 24" xmlns="http://www.w3.org/2000/svg">
<path fill-rule="evenodd" clip-rule="evenodd" d="M7 4.75C6.30964 4.75 5.75 5.30964 5.75 6V18C5.75 18.6904 6.30964 19.25 7 19.25H7.71186C8.12608 19.25 8.46186 19.5858 8.46186 20C8.46186 20.4142 8.12608 20.75 7.71186 20.75H7C5.48122 20.75 4.25 19.5188 4.25 18V6C4.25 4.48122 5.48122 3.25 7 3.25H12.6327L19.0381 9.65544V18C19.0381 19.5188 17.8069 20.75 16.2881 20.75H15.8475C15.4332 20.75 15.0975 20.4142 15.0975 20C15.0975 19.5858 15.4332 19.25 15.8475 19.25H16.2881C16.9785 19.25 17.5381 18.6904 17.5381 18V10.7161H14.322C12.8032 10.7161 11.572 9.48488 11.572 7.9661V4.75H7ZM13.072 5.81066L16.4775 9.2161H14.322C13.6317 9.2161 13.072 8.65646 13.072 7.9661V5.81066ZM11.7797 13.0127C12.1939 13.0127 12.5297 13.3485 12.5297 13.7627V18.122L13.6767 16.9151C13.962 16.6148 14.4367 16.6027 14.737 16.888C15.0372 17.1734 15.0493 17.6481 14.764 17.9484L12.3233 20.5167C12.1817 20.6656 11.9852 20.75 11.7797 20.75C11.5741 20.75 11.3776 20.6656 11.236 20.5167L8.79532 17.9484C8.50998 17.6481 8.52207 17.1734 8.82233 16.888C9.12259 16.6027 9.59731 16.6148 9.88265 16.9151L11.0297 18.122L11.0297 13.7627C11.0297 13.3485 11.3654 13.0127 11.7797 13.0127Z"/>
</svg>
