<svg width="24" height="24" viewBox="0 0 24 24" fill="none" xmlns="http://www.w3.org/2000/svg">
<path fill-rule="evenodd" clip-rule="evenodd" d="M5 18V6C5 4.89543 5.89543 4 7 4H11.8226C12.0988 4 12.322 4.22355 12.322 4.4997V7.9661C12.322 9.07067 13.2175 9.9661 14.322 9.9661H17.7884C18.0646 9.9661 18.2881 10.189 18.2881 10.4651V18C18.2881 19.1046 17.3927 20 16.2881 20H16.1674C16.9773 18.9968 16.8935 17.5232 15.9425 16.6195C15.4742 16.1744 14.8784 15.9464 14.2797 15.9324V14.7627C14.2797 13.382 13.1604 12.2627 11.7797 12.2627C10.399 12.2627 9.27967 13.382 9.27967 14.7627V15.9324C8.6809 15.9464 8.08519 16.1744 7.61683 16.6195C6.66586 17.5232 6.58206 18.9968 7.39193 20H7C5.89543 20 5 19.1046 5 18Z" fill="#1C1C1C"/>
<path d="M14.2203 18.4317L11.7797 21M11.7797 21L9.33899 18.4317M11.7797 21C11.7797 18.6358 11.7797 14.7627 11.7797 14.7627" stroke="#1C1C1C" stroke-width="1.5" stroke-linecap="round" stroke-linejoin="round"/>
<path d="M17.3344 8.98754C17.7738 8.99222 18.0051 8.46846 17.7056 8.14684L14.188 4.36892C13.8785 4.03659 13.322 4.25555 13.322 4.70965V6.96609C13.322 8.07066 14.2175 8.96609 15.322 8.96609L17.3344 8.98754Z" fill="#1C1C1C"/>
</svg>
