<svg width="24" height="24" viewBox="0 0 24 24" xmlns="http://www.w3.org/2000/svg">
<path fill-rule="evenodd" clip-rule="evenodd" d="M5.5 9C5.5 8.72386 5.72386 8.5 6 8.5H18C18.2761 8.5 18.5 8.72386 18.5 9C18.5 9.27614 18.2761 9.5 18 9.5H6C5.72386 9.5 5.5 9.27614 5.5 9ZM5.5 12C5.5 11.7239 5.72386 11.5 6 11.5H18C18.2761 11.5 18.5 11.7239 18.5 12C18.5 12.2761 18.2761 12.5 18 12.5H6C5.72386 12.5 5.5 12.2761 5.5 12ZM5.5 15C5.5 14.7239 5.72386 14.5 6 14.5H18C18.2761 14.5 18.5 14.7239 18.5 15C18.5 15.2761 18.2761 15.5 18 15.5H6C5.72386 15.5 5.5 15.2761 5.5 15Z"/>
</svg>
