<svg width="24" height="24" viewBox="0 0 24 24" xmlns="http://www.w3.org/2000/svg">
<path fill-rule="evenodd" clip-rule="evenodd" d="M12 3.75C11.9278 3.75 11.8591 3.78122 11.8117 3.83563L10.0256 5.88241C9.15815 6.87646 9.15815 8.3584 10.0256 9.35245C10.5232 9.92273 11.2431 10.25 12 10.25C12.7569 10.25 13.4768 9.92272 13.9745 9.35243C14.8419 8.35839 14.8419 6.87645 13.9745 5.88241L12.1884 3.83563C12.1409 3.78122 12.0722 3.75 12 3.75ZM10.6815 2.84939C11.0138 2.46855 11.4946 2.25 12 2.25C12.5055 2.25 12.9862 2.46855 13.3186 2.84939L15.1047 4.89617C16.4652 6.45526 16.4652 8.77957 15.1047 10.3387C14.3222 11.2354 13.1902 11.75 12 11.75C10.8099 11.75 9.67789 11.2354 8.89538 10.3387C7.53488 8.77959 7.53488 6.45528 8.89538 4.89618L10.6815 2.84939ZM3.5 10.75C3.08579 10.75 2.75 11.0858 2.75 11.5V18.0557C2.74993 18.56 2.8673 19.0575 3.09282 19.5086C3.09282 19.5086 3.09282 19.5086 3.09282 19.5086L3.67082 20.6646C3.85606 21.0351 3.70589 21.4856 3.33541 21.6708C2.96493 21.856 2.51442 21.7059 2.32918 21.3354L1.75118 20.1794C1.42151 19.52 1.24991 18.7929 1.25 18.0557C1.25 18.0556 1.25 18.0557 1.25 18.0557V11.5C1.25 10.2573 2.25736 9.24999 3.5 9.24999C4.74264 9.24999 5.75 10.2573 5.75 11.5V13.4166C6.0771 13.2871 6.43264 13.2305 6.79162 13.256C7.47791 13.3048 8.10925 13.649 8.52206 14.1994L10.2 16.4366C10.557 16.9127 10.75 17.4916 10.75 18.0866V21C10.75 21.4142 10.4142 21.75 10 21.75C9.58579 21.75 9.25 21.4142 9.25 21V18.0866C9.25 17.8162 9.16228 17.553 9 17.3366L7.32206 15.0994C7.17015 14.8968 6.93783 14.7702 6.68529 14.7522C6.43274 14.7343 6.18484 14.8268 6.00582 15.0058C5.69849 15.3132 5.66392 15.7997 5.9247 16.1474L6.97665 17.55C7.22518 17.8814 7.15802 18.3515 6.82665 18.6C6.49528 18.8485 6.02518 18.7814 5.77665 18.45L4.7247 17.0474C4.38949 16.6005 4.23387 16.0691 4.25132 15.5448C4.25044 15.53 4.25 15.515 4.25 15.5V11.5C4.25 11.0858 3.91421 10.75 3.5 10.75ZM20.5 10.75C20.0858 10.75 19.75 11.0858 19.75 11.5V15.5C19.75 15.515 19.7496 15.53 19.7487 15.5448C19.7661 16.0691 19.6105 16.6005 19.2753 17.0474L18.2233 18.45C17.9748 18.7814 17.5047 18.8485 17.1733 18.6C16.842 18.3515 16.7748 17.8814 17.0234 17.55L18.0753 16.1474C18.3361 15.7997 18.3015 15.3132 17.9942 15.0058C17.8152 14.8268 17.5673 14.7343 17.3147 14.7522C17.0622 14.7702 16.8298 14.8968 16.6779 15.0994L15 17.3366C14.8377 17.553 14.75 17.8162 14.75 18.0866V21C14.75 21.4142 14.4142 21.75 14 21.75C13.5858 21.75 13.25 21.4142 13.25 21V18.0866C13.25 17.4916 13.443 16.9127 13.8 16.4366L15.4779 14.1994C15.8907 13.649 16.5221 13.3048 17.2084 13.256C17.5674 13.2305 17.9229 13.2871 18.25 13.4166V11.5C18.25 10.2573 19.2574 9.24999 20.5 9.24999C21.7426 9.24999 22.75 10.2573 22.75 11.5V18.0556C22.75 18.0555 22.75 18.0556 22.75 18.0556C22.7501 18.7928 22.5785 19.52 22.2488 20.1794L21.6708 21.3354C21.4856 21.7059 21.0351 21.856 20.6646 21.6708C20.2941 21.4856 20.1439 21.0351 20.3292 20.6646L20.9072 19.5086C20.9072 19.5086 20.9072 19.5086 20.9072 19.5086C21.1327 19.0575 21.2501 18.5601 21.25 18.0558V11.5C21.25 11.0858 20.9142 10.75 20.5 10.75Z"/>
</svg>
