<svg width="24" height="24" viewBox="0 0 24 24" fill="none" xmlns="http://www.w3.org/2000/svg">
<path d="M8 11H12M8 4V6.66667M16 4V6.66667M9.33333 20H6.66667C5.19391 20 4 18.8061 4 17.3333V8C4 6.52724 5.19391 5.33333 6.66667 5.33333H17.3333C18.8061 5.33333 20 6.52724 20 8V11.1111M14.6667 20V16.8889C14.6667 16.6434 14.4677 16.4444 14.2222 16.4444H12.4444C12.199 16.4444 12 16.6434 12 16.8889V20H14.6667ZM14.6667 20H17.3333M14.6667 20V13.3333C14.6667 13.0879 14.8657 12.8889 15.1111 12.8889H16.8889C17.1343 12.8889 17.3333 13.0879 17.3333 13.3333V20M17.3333 20H20V15.1111C20 14.8657 19.801 14.6667 19.5556 14.6667H17.7778C17.5323 14.6667 17.3333 14.8657 17.3333 15.1111V20ZM8 14H10" stroke="#1C1C1C" stroke-width="1.5" stroke-linecap="round" stroke-linejoin="round"/>
</svg>
