<svg width="24" height="24" viewBox="0 0 24 24" fill="none" xmlns="http://www.w3.org/2000/svg">
<path d="M11.1008 3.89474H6.6628C5.19218 3.89474 4 5.09656 4 6.5791V14.6322C4 16.1147 5.19218 17.3165 6.6628 17.3165H8.44422V19.5024C8.44422 19.6937 8.55298 19.868 8.72399 19.9509C8.89501 20.0337 9.098 20.0104 9.24616 19.891L12.4384 17.3165H17.314C18.7846 17.3165 19.9768 16.1147 19.9768 14.6322V12.8426M11.1008 9.26345H7.5504M7.5504 12.8426H14.6512M16.518 3.49886C16.6675 3.1934 16.9761 3 17.314 3C17.6519 3 17.9605 3.1934 18.11 3.49886L18.5616 4.42177C18.6909 4.68591 18.9408 4.86901 19.2299 4.91137L20.2401 5.05938C20.5744 5.10839 20.8521 5.34441 20.9565 5.66824C21.0609 5.99208 20.974 6.34759 20.7322 6.58536L20.0009 7.30443C19.7918 7.50998 19.6964 7.80606 19.7458 8.09621L19.9184 9.11026C19.9754 9.4459 19.8386 9.78511 19.5653 9.9853C19.292 10.1855 18.9297 10.2119 18.6307 10.0536L17.7269 9.57472C17.4684 9.43774 17.1596 9.43774 16.9011 9.57472L15.9973 10.0536C15.6983 10.212 15.336 10.1855 15.0627 9.98532C14.7894 9.78513 14.6526 9.44591 14.7096 9.11026L14.8822 8.09621C14.9316 7.80606 14.8362 7.50998 14.6271 7.30443L13.8959 6.58536C13.6541 6.34758 13.5671 5.99207 13.6716 5.66825C13.776 5.34442 14.0537 5.10841 14.3879 5.0594L15.3981 4.91138C15.6873 4.86902 15.9372 4.68593 16.0665 4.42178L16.518 3.49886Z" stroke="#1C1C1C" stroke-width="1.5" stroke-linecap="round" stroke-linejoin="round"/>
</svg>
