<svg width="24" height="24" viewBox="0 0 24 24" fill="none" xmlns="http://www.w3.org/2000/svg">
<path d="M8.1 9.89503H5.55C4.14167 9.89503 3 11.0262 3 12.4215V15.7901C3 17.1854 4.14167 18.3165 5.55 18.3165V19.5789C5.55 19.7414 5.6444 19.8895 5.79256 19.9592C5.94071 20.029 6.11616 20.0081 6.24336 19.9054L8.21279 18.3165H10.65C12.0583 18.3165 13.2 17.1854 13.2 15.7901V14.9479M13.383 6.72678C13.5083 6.47522 13.7669 6.31596 14.05 6.31596C14.3331 6.31596 14.5917 6.47522 14.717 6.72678L15.0954 7.4868C15.2037 7.70433 15.4131 7.85512 15.6554 7.89L16.5019 8.01191C16.782 8.05227 17.0147 8.24663 17.1022 8.51331C17.1896 8.77998 17.1168 9.07275 16.9142 9.26857L16.3014 9.86073C16.1263 10.03 16.0463 10.2738 16.0877 10.5128L16.2323 11.3479C16.2801 11.6243 16.1654 11.9037 15.9365 12.0685C15.7075 12.2334 15.4039 12.2552 15.1533 12.1247L14.396 11.7304C14.1794 11.6176 13.9206 11.6176 13.704 11.7304L12.9467 12.1247C12.6961 12.2552 12.3925 12.2334 12.1635 12.0685C11.9346 11.9037 11.8199 11.6243 11.8677 11.3479L12.0123 10.5128C12.0537 10.2738 11.9737 10.03 11.7986 9.86073L11.1858 9.26857C10.9832 9.07275 10.9104 8.77998 10.9978 8.51331C11.0853 8.24663 11.318 8.05227 11.5981 8.01191L12.4446 7.89C12.6869 7.85512 12.8963 7.70433 13.0046 7.4868L13.383 6.72678ZM14.7872 14.9479H10.65C9.24167 14.9479 8.1 13.8168 8.1 12.4215V6.52644C8.1 5.13113 9.24167 4 10.65 4H17.45C18.8583 4 20 5.13113 20 6.52644V12.4215C20 13.8168 18.8583 14.9479 17.45 14.9479V16.2103C17.45 16.3729 17.3556 16.5209 17.2074 16.5906C17.0593 16.6604 16.8838 16.6395 16.7566 16.5368L14.7872 14.9479Z" stroke="#1C1C1C" stroke-width="1.5" stroke-linecap="round" stroke-linejoin="round"/>
</svg>
