<svg width="24" height="24" viewBox="0 0 24 24" fill="none" xmlns="http://www.w3.org/2000/svg">
<path d="M14.5 9.48158H16M8 16H12M20 13V6.68421C20 5.69553 19.3045 5.0079 18.3158 5.0079H11.1579M13 20H5.78947C4.80079 20 4 19.3045 4 18.3158V6.68421C4 5.69553 4.80079 5.0079 5.78947 5.0079H7.57895M8.02632 13H16M7.57895 5.0079C7.57895 4.514 7.97979 4.11316 8.47368 4.11316H10.2632C10.7571 4.11316 11.1579 4.514 11.1579 5.0079M7.57895 5.0079V9.48158L9.36842 8.58684L11.1579 9.48158V5.0079M18 16V20M20 18H16" stroke="#1C1C1C" stroke-width="1.5" stroke-linecap="round" stroke-linejoin="round"/>
</svg>
