<svg width="24" height="24" viewBox="0 0 24 24" fill="none" xmlns="http://www.w3.org/2000/svg">
<path d="M9.33333 7.5445H14.6667M7.55556 10.9445H16.4444M14.4444 16.4313L16.8889 18.7688M16.8889 18.7688L14.5556 21L12.2133 18.7603M16.8889 18.7688H18.2222C19.2044 18.7688 20 18.008 20 17.0688V5.7C20 4.76075 19.2044 4 18.2222 4H5.77778C4.79556 4 4 4.76075 4 5.7V17.0688C4 18.008 4.79556 18.7688 5.77778 18.7688H7.11111M11.7867 18.7603L9.44444 21L7.11111 18.7688M7.11111 18.7688L9.55556 16.4313M13.7284 14.7784C14.6831 15.6913 14.6831 17.1713 13.7284 18.0842C12.7738 18.997 11.2261 18.997 10.2715 18.0842C9.31686 17.1713 9.31686 15.6913 10.2715 14.7784C11.2261 13.8656 12.7738 13.8656 13.7284 14.7784Z" stroke="#1C1C1C" stroke-width="1.5" stroke-linecap="round" stroke-linejoin="round"/>
</svg>
