<svg width="24" height="24" viewBox="0 0 24 24" fill="none" xmlns="http://www.w3.org/2000/svg">
<path d="M12.4018 3.05882V2M7.58316 7.29412H6.51235M18.2913 7.29412H17.2205M9.18939 4.11765L8.43221 3.36895M15.6143 4.11765L16.3714 3.36895M9.09244 11.8865V20M14.5732 11.8865H16.8461C17.4986 11.8865 18.116 12.179 18.5249 12.682C18.9337 13.1849 19.0899 13.844 18.9496 14.4742L18.0917 18.3281C17.8743 19.3045 16.9993 20 15.9881 20L6.07696 20C5.48217 20 5 19.5232 5 18.9351V12.9514C5.00001 12.3633 5.48217 11.8865 6.07696 11.8865H9.10269L11.022 8.24843C11.4748 7.39007 12.5398 7.04891 13.4156 7.48162L13.7789 7.66111C14.2656 7.90155 14.5731 8.39331 14.5731 8.93126L14.5732 11.8865Z" stroke="#1C1C1C" stroke-width="1.5" stroke-linecap="round" stroke-linejoin="round"/>
</svg>
