<svg width="24" height="24" viewBox="0 0 24 24" fill="none" xmlns="http://www.w3.org/2000/svg">
<path fill-rule="evenodd" clip-rule="evenodd" d="M15 5H7C5.89543 5 5 5.89543 5 7V17.5C5 18.6046 5.89543 19.5 7 19.5H15C15.7828 19.5 16.4606 19.0502 16.7891 18.395C15.7472 18.678 14.5872 18.3874 13.8016 17.5414C13.2038 16.8976 12.9428 16.0615 13.0104 15.25H11C9.34315 15.25 8 13.9069 8 12.25C8 10.5931 9.34315 9.25 11 9.25H13.0104C12.9428 8.43848 13.2038 7.60241 13.8016 6.95865C14.5872 6.11259 15.7472 5.82196 16.7891 6.105C16.4606 5.44976 15.7828 5 15 5Z" fill="#1C1C1C"/>
<path d="M16.7891 18.395L17.4595 18.7311C17.5921 18.4667 17.5568 18.149 17.3695 17.9201C17.1822 17.6912 16.8779 17.5937 16.5924 17.6712L16.7891 18.395ZM13.8016 17.5414L14.3512 17.031L13.8016 17.5414ZM13.0104 15.25L13.7578 15.3123C13.7752 15.1033 13.7043 14.8965 13.5623 14.7422C13.4203 14.5878 13.2202 14.5 13.0104 14.5V15.25ZM13.0104 9.25V10C13.2202 10 13.4203 9.91218 13.5623 9.75783C13.7043 9.60349 13.7752 9.39673 13.7578 9.18771L13.0104 9.25ZM13.8016 6.95865L14.3512 7.46899L13.8016 6.95865ZM16.7891 6.105L16.5925 6.82877C16.8779 6.90631 17.1822 6.80884 17.3695 6.57992C17.5568 6.35099 17.5921 6.03336 17.4596 5.76893L16.7891 6.105ZM7 5.75H15V4.25H7V5.75ZM5.75 7C5.75 6.30964 6.30964 5.75 7 5.75V4.25C5.48122 4.25 4.25 5.48122 4.25 7H5.75ZM5.75 17.5V7H4.25V17.5H5.75ZM7 18.75C6.30964 18.75 5.75 18.1904 5.75 17.5H4.25C4.25 19.0188 5.48122 20.25 7 20.25V18.75ZM15 18.75H7V20.25H15V18.75ZM16.1186 18.0589C15.9124 18.4703 15.4882 18.75 15 18.75V20.25C16.0775 20.25 17.0089 19.6302 17.4595 18.7311L16.1186 18.0589ZM16.5924 17.6712C15.809 17.8841 14.9397 17.6648 14.3512 17.031L13.252 18.0517C14.2348 19.11 15.6853 19.472 16.9857 19.1188L16.5924 17.6712ZM14.3512 17.031C13.9029 16.5482 13.707 15.9225 13.7578 15.3123L12.263 15.1877C12.1786 16.2006 12.5048 17.247 13.252 18.0517L14.3512 17.031ZM13.0104 14.5H11V16H13.0104V14.5ZM11 14.5C9.75736 14.5 8.75 13.4926 8.75 12.25H7.25C7.25 14.3211 8.92893 16 11 16V14.5ZM8.75 12.25C8.75 11.0074 9.75736 10 11 10V8.5C8.92893 8.5 7.25 10.1789 7.25 12.25H8.75ZM11 10H13.0104V8.5H11V10ZM13.7578 9.18771C13.707 8.57754 13.9029 7.95179 14.3512 7.46899L13.252 6.44831C12.5048 7.25303 12.1786 8.29942 12.263 9.31229L13.7578 9.18771ZM14.3512 7.46899C14.9397 6.83521 15.809 6.61593 16.5925 6.82877L16.9857 5.38123C15.6854 5.02799 14.2348 5.38996 13.252 6.44831L14.3512 7.46899ZM15 5.75C15.4882 5.75 15.9124 6.02972 16.1186 6.44107L17.4596 5.76893C17.0089 4.8698 16.0775 4.25 15 4.25V5.75Z" fill="#1C1C1C"/>
<path d="M16 9L19.5 12.25L16 15.5M19.25 12.25H11" stroke="#1C1C1C" stroke-width="1.5" stroke-linecap="round" stroke-linejoin="round"/>
</svg>
