<svg width="24" height="24" viewBox="0 0 24 24" xmlns="http://www.w3.org/2000/svg">
<path fill-rule="evenodd" clip-rule="evenodd" d="M4.25 7C4.25 5.48122 5.48122 4.25 7 4.25H15.5C15.9142 4.25 16.25 4.58579 16.25 5C16.25 5.41421 15.9142 5.75 15.5 5.75H7C6.30964 5.75 5.75 6.30964 5.75 7V17.5C5.75 18.1904 6.30964 18.75 7 18.75H15.5C15.9142 18.75 16.25 19.0858 16.25 19.5C16.25 19.9142 15.9142 20.25 15.5 20.25H7C5.48122 20.25 4.25 19.0188 4.25 17.5V7ZM15.4504 8.48966C15.7323 8.18613 16.2068 8.16855 16.5103 8.45041L20.0103 11.7004C20.1632 11.8423 20.25 12.0414 20.25 12.25C20.25 12.4586 20.1632 12.6577 20.0103 12.7996L16.5103 16.0496C16.2068 16.3314 15.7323 16.3139 15.4504 16.0103C15.1686 15.7068 15.1861 15.2323 15.4897 14.9504L17.5901 13H11C10.5858 13 10.25 12.6642 10.25 12.25C10.25 11.8358 10.5858 11.5 11 11.5H17.5901L15.4897 9.5496C15.1861 9.26774 15.1686 8.79319 15.4504 8.48966Z"/>
</svg>
