<svg width="24" height="24" viewBox="0 0 24 24" xmlns="http://www.w3.org/2000/svg">
<path fill-rule="evenodd" clip-rule="evenodd" d="M4.25 7C4.25 5.48122 5.48122 4.25 7 4.25H9.5C9.91421 4.25 10.25 4.58579 10.25 5C10.25 5.41421 9.91421 5.75 9.5 5.75H7C6.30964 5.75 5.75 6.30964 5.75 7V17.5C5.75 18.1904 6.30964 18.75 7 18.75H17.5C18.1904 18.75 18.75 18.1904 18.75 17.5V15C18.75 14.5858 19.0858 14.25 19.5 14.25C19.9142 14.25 20.25 14.5858 20.25 15V17.5C20.25 19.0188 19.0188 20.25 17.5 20.25H7C5.48122 20.25 4.25 19.0188 4.25 17.5V7ZM14.25 5C14.25 4.58579 14.5858 4.25 15 4.25H19.5C19.9142 4.25 20.25 4.58579 20.25 5V9.5C20.25 9.91421 19.9142 10.25 19.5 10.25C19.0858 10.25 18.75 9.91421 18.75 9.5V6.81066L12.5303 13.0303C12.2374 13.3232 11.7626 13.3232 11.4697 13.0303C11.1768 12.7374 11.1768 12.2626 11.4697 11.9697L17.6893 5.75H15C14.5858 5.75 14.25 5.41421 14.25 5Z"/>
</svg>
