<svg width="24" height="24" viewBox="0 0 24 24" fill="none" xmlns="http://www.w3.org/2000/svg">
<path fill-rule="evenodd" clip-rule="evenodd" d="M12.708 5H6.93103C5.86455 5 5 5.86455 5 6.93103V15.8621V17.069C5 18.1355 5.86455 19 6.93103 19H17.069C18.1355 19 19 18.1355 19 17.069V12.7946V10.95C18.2764 10.8031 17.6663 10.3437 17.3167 9.71882L13.7678 13.2678C12.7915 14.2441 11.2085 14.2441 10.2322 13.2678C9.25592 12.2915 9.25592 10.7085 10.2322 9.73223L13.7812 6.18328C13.3065 5.91771 12.9273 5.5018 12.708 5Z" fill="#1C1C1C"/>
<path d="M12.708 5L13.3953 4.69972C13.2759 4.42655 13.0061 4.25 12.708 4.25V5ZM19 10.95H19.75C19.75 10.5933 19.4988 10.2859 19.1492 10.215L19 10.95ZM17.3167 9.71882L17.9712 9.35264C17.8565 9.1476 17.6524 9.00816 17.4196 8.97591C17.1869 8.94367 16.9525 9.02235 16.7864 9.18849L17.3167 9.71882ZM13.7678 13.2678L14.2981 13.7981L13.7678 13.2678ZM10.2322 9.73223L10.7626 10.2626L10.2322 9.73223ZM13.7812 6.18328L14.3115 6.71361C14.4776 6.54748 14.5563 6.31309 14.5241 6.08036C14.4918 5.84763 14.3524 5.64346 14.1474 5.52875L13.7812 6.18328ZM6.93103 5.75H12.708V4.25H6.93103V5.75ZM5.75 6.93103C5.75 6.27877 6.27877 5.75 6.93103 5.75V4.25C5.45034 4.25 4.25 5.45034 4.25 6.93103H5.75ZM5.75 15.8621V6.93103H4.25V15.8621H5.75ZM5.75 17.069V15.8621H4.25V17.069H5.75ZM6.93103 18.25C6.27876 18.25 5.75 17.7213 5.75 17.069H4.25C4.25 18.5497 5.45035 19.75 6.93103 19.75V18.25ZM17.069 18.25H6.93103V19.75H17.069V18.25ZM18.25 17.069C18.25 17.7213 17.7213 18.25 17.069 18.25V19.75C18.5497 19.75 19.75 18.5497 19.75 17.069H18.25ZM18.25 12.7946V17.069H19.75V12.7946H18.25ZM18.25 10.95V12.7946H19.75V10.95H18.25ZM19.1492 10.215C18.6448 10.1126 18.2167 9.79141 17.9712 9.35264L16.6622 10.085C17.1159 10.896 17.908 11.4936 18.8508 11.685L19.1492 10.215ZM16.7864 9.18849L13.2374 12.7374L14.2981 13.7981L17.847 10.2491L16.7864 9.18849ZM13.2374 12.7374C12.554 13.4209 11.446 13.4209 10.7626 12.7374L9.7019 13.7981C10.9711 15.0673 13.0289 15.0673 14.2981 13.7981L13.2374 12.7374ZM10.7626 12.7374C10.0791 12.054 10.0791 10.946 10.7626 10.2626L9.7019 9.2019C8.4327 10.4711 8.4327 12.5289 9.7019 13.7981L10.7626 12.7374ZM10.7626 10.2626L14.3115 6.71361L13.2509 5.65295L9.7019 9.2019L10.7626 10.2626ZM14.1474 5.52875C13.8145 5.34256 13.5486 5.05061 13.3953 4.69972L12.0208 5.30028C12.3059 5.95298 12.7984 6.49286 13.415 6.83782L14.1474 5.52875Z" fill="#1C1C1C"/>
<path d="M19.5 8.5V4M19.5 4H15M19.5 4L12 11.5" stroke="#1C1C1C" stroke-width="1.5" stroke-linecap="round" stroke-linejoin="round"/>
</svg>
