<svg width="24" height="24" viewBox="0 0 24 24" xmlns="http://www.w3.org/2000/svg">
<path fill-rule="evenodd" clip-rule="evenodd" d="M20.5303 3.46967C20.8232 3.76256 20.8232 4.23744 20.5303 4.53033L4.53033 20.5303C4.23744 20.8232 3.76256 20.8232 3.46967 20.5303C3.17678 20.2374 3.17678 19.7626 3.46967 19.4697L5.82548 17.1139C4.91363 16.1855 4.28511 15.1448 3.87993 14.2464C3.46779 13.3325 3.25 12.482 3.25 12C3.25 11.5841 3.41061 10.9113 3.69901 10.1813C3.99732 9.42623 4.4621 8.53361 5.13351 7.6757C6.48623 5.94722 8.68911 4.35345 12 4.35345C14.0882 4.35345 15.748 4.9892 17.0323 5.90702L19.4697 3.46967C19.7626 3.17678 20.2374 3.17678 20.5303 3.46967ZM15.9538 6.98556C14.9412 6.31675 13.6473 5.85345 12 5.85345C9.24192 5.85345 7.4448 7.15623 6.31477 8.60016C5.74479 9.32846 5.34751 10.091 5.09409 10.7325C4.83077 11.399 4.75 11.8642 4.75 12C4.75 12.1706 4.86991 12.7928 5.24732 13.6297C5.59414 14.3988 6.12752 15.2779 6.88619 16.0532L9.24559 13.6937C8.47803 12.4478 8.63419 10.794 9.71408 9.71409C10.794 8.63417 12.4478 8.47799 13.6938 9.24559L15.9538 6.98556ZM10.7748 10.7747C11.2615 10.288 11.9657 10.1514 12.5745 10.3648ZM10.7748 10.7747C10.2881 11.2615 10.1514 11.9657 10.3648 12.5745L12.5745 10.3648M19.4473 9.05577C19.6804 9.09918 19.8793 9.25032 19.9836 9.46334C20.2449 9.99712 20.433 10.499 20.557 10.9234C20.6762 11.3318 20.75 11.7153 20.75 12C20.75 12.4159 20.5894 13.0886 20.301 13.8187C20.0027 14.5738 19.5379 15.4664 18.8665 16.3243C17.5138 18.0528 15.3109 19.6466 12 19.6466C11.1288 19.6466 10.3289 19.5359 9.5971 19.3378C9.33388 19.2665 9.13009 19.058 9.06487 18.7932C8.99965 18.5285 9.08328 18.2491 9.28327 18.0638L18.8002 9.24304C18.9741 9.08181 19.2141 9.01236 19.4473 9.05577ZM11.4217 18.127C11.6092 18.1399 11.802 18.1466 12 18.1466C14.7581 18.1466 16.5552 16.8438 17.6852 15.3998C18.2552 14.6715 18.6525 13.909 18.9059 13.2675C19.1692 12.601 19.25 12.1358 19.25 12C19.25 11.9255 19.2215 11.7014 19.1171 11.3439C19.0922 11.2587 19.0637 11.1684 19.0315 11.0738L11.4217 18.127Z"/>
</svg>
