<svg width="24" height="24" viewBox="0 0 24 24" fill="none" xmlns="http://www.w3.org/2000/svg">
<path fill-rule="evenodd" clip-rule="evenodd" d="M18.9524 14.7663C19.6966 13.5081 20 12.3339 20 11.8966C20 10.7931 18.069 5 12 5C11.0899 5 10.2729 5.13026 9.54153 5.35544L13.0112 8.82514C13.9832 9.14498 14.7516 9.91333 15.0714 10.8853L18.9524 14.7663ZM11.1824 10.3685L13.5281 12.7142C13.236 13.2589 12.6613 13.6293 12 13.6293C11.043 13.6293 10.2672 12.8536 10.2672 11.8966C10.2672 11.2353 10.6377 10.6605 11.1824 10.3685ZM10.0969 9.28303C9.29094 9.87091 8.76721 10.8226 8.76721 11.8966C8.76721 13.682 10.2146 15.1293 12 15.1293C13.074 15.1293 14.0256 14.6056 14.6135 13.7996L17.4682 16.6543C16.2219 17.851 14.4474 18.7931 12 18.7931C5.93103 18.7931 4 13 4 11.8966C4 11.1534 4.87589 8.28308 7.30183 6.48792L10.0969 9.28303Z" fill="#1C1C1C"/>
<path d="M19 18.5L5 4.5" stroke="#1C1C1C" stroke-width="1.5" stroke-linecap="round"/>
</svg>
