<svg width="24" height="24" viewBox="0 0 24 24" xmlns="http://www.w3.org/2000/svg">
<path fill-rule="evenodd" clip-rule="evenodd" d="M12 18.7931C18.069 18.7931 20 13 20 11.8966C20 10.7931 18.069 5 12 5C5.93103 5 4 10.7931 4 11.8966C4 13 5.93103 18.7931 12 18.7931ZM10.2672 11.8966C10.2672 10.9396 11.043 10.1638 12 10.1638C12.9569 10.1638 13.7327 10.9396 13.7327 11.8966C13.7327 12.8536 12.9569 13.6293 12 13.6293C11.043 13.6293 10.2672 12.8536 10.2672 11.8966ZM12 8.66382C10.2146 8.66382 8.76721 10.1112 8.76721 11.8966C8.76721 13.682 10.2146 15.1293 12 15.1293C13.7854 15.1293 15.2327 13.682 15.2327 11.8966C15.2327 10.1112 13.7854 8.66382 12 8.66382Z"/>
</svg>
