<svg width="24" height="24" viewBox="0 0 24 24" xmlns="http://www.w3.org/2000/svg">
<path fill-rule="evenodd" clip-rule="evenodd" d="M5.09409 10.629C4.83077 11.2955 4.75 11.7607 4.75 11.8966C4.75 12.0324 4.83077 12.4976 5.09409 13.1641C5.34751 13.8055 5.74479 14.5681 6.31477 15.2964C7.4448 16.7403 9.24192 18.0431 12 18.0431C14.7581 18.0431 16.5552 16.7403 17.6852 15.2964C18.2552 14.5681 18.6525 13.8055 18.9059 13.1641C19.1692 12.4976 19.25 12.0324 19.25 11.8966C19.25 11.7607 19.1692 11.2955 18.9059 10.629C18.6525 9.98756 18.2552 9.22501 17.6852 8.49671C16.5552 7.05278 14.7581 5.75 12 5.75C9.24192 5.75 7.4448 7.05278 6.31477 8.49671C5.74479 9.22501 5.34751 9.98756 5.09409 10.629ZM5.13351 7.57225C6.48623 5.84377 8.68911 4.25 12 4.25C15.3109 4.25 17.5138 5.84377 18.8665 7.57225C19.5379 8.43016 20.0027 9.32278 20.301 10.0779C20.5894 10.8079 20.75 11.4806 20.75 11.8966C20.75 12.3125 20.5894 12.9852 20.301 13.7152C20.0027 14.4703 19.5379 15.3629 18.8665 16.2209C17.5138 17.9493 15.3109 19.5431 12 19.5431C8.68911 19.5431 6.48623 17.9493 5.13351 16.2209C4.4621 15.3629 3.99732 14.4703 3.69901 13.7152C3.41061 12.9852 3.25 12.3125 3.25 11.8966C3.25 11.4806 3.41061 10.8079 3.69901 10.0779C3.99732 9.32278 4.4621 8.43016 5.13351 7.57225ZM12 10.1638C11.043 10.1638 10.2672 10.9396 10.2672 11.8966C10.2672 12.8535 11.043 13.6293 12 13.6293C12.957 13.6293 13.7328 12.8535 13.7328 11.8966C13.7328 10.9396 12.957 10.1638 12 10.1638ZM8.76724 11.8966C8.76724 10.1111 10.2146 8.66379 12 8.66379C13.7854 8.66379 15.2328 10.1111 15.2328 11.8966C15.2328 13.682 13.7854 15.1293 12 15.1293C10.2146 15.1293 8.76724 13.682 8.76724 11.8966Z"/>
</svg>
