<svg width="24" height="24" viewBox="0 0 24 24" xmlns="http://www.w3.org/2000/svg">
<path d="M13.1104 4.69026L14.6233 7.75562C14.8036 8.12109 15.1523 8.37441 15.5556 8.43301L18.9384 8.92456C19.9541 9.07215 20.3596 10.3203 19.6247 11.0367L17.1769 13.4227C16.885 13.7072 16.7518 14.1171 16.8207 14.5188L17.3986 17.8879C17.5721 18.8995 16.5104 19.6709 15.6019 19.1933L12.5762 17.6026C12.2155 17.4129 11.7845 17.4129 11.4238 17.6026L8.39808 19.1933C7.48965 19.6709 6.42791 18.8995 6.60141 17.8879L7.17926 14.5188C7.24816 14.1171 7.11498 13.7072 6.82314 13.4227L4.3753 11.0367C3.64036 10.3203 4.04591 9.07215 5.06157 8.92456L8.4444 8.43301C8.84772 8.3744 9.19637 8.12109 9.37674 7.75562L10.8896 4.69026C11.3438 3.76991 12.6562 3.76991 13.1104 4.69026Z"/>
</svg>
