<svg width="24" height="24" viewBox="0 0 24 24" xmlns="http://www.w3.org/2000/svg">
<path fill-rule="evenodd" clip-rule="evenodd" d="M5.25 7C5.25 5.48122 6.48122 4.25 8 4.25H14.25C14.4489 4.25 14.6397 4.32902 14.7803 4.46967L19.0303 8.71967C19.171 8.86032 19.25 9.05109 19.25 9.25V17.5C19.25 19.0188 18.0188 20.25 16.5 20.25H8C6.48122 20.25 5.25 19.0188 5.25 17.5V7ZM8 5.75C7.30964 5.75 6.75 6.30964 6.75 7V17.5C6.75 18.1904 7.30964 18.75 8 18.75H16.5C17.1904 18.75 17.75 18.1904 17.75 17.5V10.25H14C13.5858 10.25 13.25 9.91421 13.25 9.5V5.75H8ZM14.75 6.56066L16.9393 8.75H14.75V6.56066Z"/>
</svg>
