<svg width="24" height="24" viewBox="0 0 24 24" xmlns="http://www.w3.org/2000/svg">
<path d="M5 6V18C5 19.1046 5.89543 20 7 20H16.2881C17.3927 20 18.2881 19.1046 18.2881 18C18.2881 18 18.2881 13.596 18.2881 10.4651C18.2881 10.189 18.0646 9.9661 17.7884 9.9661C16.2695 9.9661 14.322 9.9661 14.322 9.9661C13.2175 9.9661 12.322 9.07067 12.322 7.9661C12.322 7.9661 12.322 6.01865 12.322 4.4997C12.322 4.22355 12.0988 4 11.8226 4C9.76284 4 7 4 7 4C5.89543 4 5 4.89543 5 6Z"/>
<path d="M17.3344 8.98757C17.7738 8.99226 18.0051 8.46849 17.7056 8.14687L14.188 4.36896C13.8785 4.03662 13.322 4.25558 13.322 4.70968V6.96612C13.322 8.07069 14.2175 8.96613 15.322 8.96613L17.3344 8.98757Z"/>
</svg>
