<svg width="24" height="24" viewBox="0 0 24 24" xmlns="http://www.w3.org/2000/svg">
<path fill-rule="evenodd" clip-rule="evenodd" d="M7 5.75C6.30964 5.75 5.75 6.30964 5.75 7V17.5C5.75 18.1904 6.30964 18.75 7 18.75H10.5C10.9142 18.75 11.25 19.0858 11.25 19.5C11.25 19.9142 10.9142 20.25 10.5 20.25H7C5.48122 20.25 4.25 19.0188 4.25 17.5V7C4.25 5.48122 5.48122 4.25 7 4.25H13.25C13.4489 4.25 13.6397 4.32902 13.7803 4.46967L18.0303 8.71967C18.171 8.86032 18.25 9.05109 18.25 9.25V11.5C18.25 11.9142 17.9142 12.25 17.5 12.25C17.0858 12.25 16.75 11.9142 16.75 11.5V10.25H13C12.5858 10.25 12.25 9.91421 12.25 9.5V5.75H7ZM13.75 6.56066L15.9393 8.75H13.75V6.56066ZM16.25 14.25C16.6642 14.25 17 14.5858 17 15V16.5H18.5C18.9142 16.5 19.25 16.8358 19.25 17.25C19.25 17.6642 18.9142 18 18.5 18H17V19.5C17 19.9142 16.6642 20.25 16.25 20.25C15.8358 20.25 15.5 19.9142 15.5 19.5V18H14C13.5858 18 13.25 17.6642 13.25 17.25C13.25 16.8358 13.5858 16.5 14 16.5H15.5V15C15.5 14.5858 15.8358 14.25 16.25 14.25Z"/>
</svg>
