<svg width="24" height="24" viewBox="0 0 24 24" fill="none" xmlns="http://www.w3.org/2000/svg">
<path fill-rule="evenodd" clip-rule="evenodd" d="M5 18V6C5 4.89543 5.89543 4 7 4H11.8226C12.0988 4 12.322 4.22355 12.322 4.4997V7.9661C12.322 9.07067 13.2175 9.9661 14.322 9.9661H17.7884C18.0646 9.9661 18.2881 10.189 18.2881 10.4651V13.5519C17.835 12.9152 17.091 12.5 16.25 12.5C14.9498 12.5 13.8815 13.4925 13.7613 14.7613C12.4925 14.8815 11.5 15.9498 11.5 17.25C11.5 18.5502 12.4925 19.6185 13.7613 19.7387C13.7696 19.8273 13.7826 19.9144 13.8 20H7.71186H7C5.89543 20 5 19.1046 5 18Z" fill="#1C1C1C"/>
<path d="M16.25 15V19.5M18.5 17.25H14" stroke="#1C1C1C" stroke-width="1.5" stroke-linecap="round" stroke-linejoin="round"/>
<path d="M17.3344 8.98757C17.7738 8.99226 18.0051 8.46849 17.7056 8.14687L14.188 4.36896C13.8785 4.03662 13.322 4.25558 13.322 4.70968V6.96612C13.322 8.07069 14.2175 8.96613 15.322 8.96613L17.3344 8.98757Z" fill="#1C1C1C"/>
</svg>
