<svg width="24" height="24" viewBox="0 0 24 24" xmlns="http://www.w3.org/2000/svg">
<path fill-rule="evenodd" clip-rule="evenodd" d="M4.07403 4.42511C4.19892 4.16526 4.4617 4 4.75001 4H19.25C19.5383 4 19.8011 4.16526 19.926 4.42511C20.0509 4.68495 20.0158 4.99339 19.8357 5.21852L15.274 10.9207C15.0966 11.1423 15 11.4177 15 11.7016V15.9503C15 17.037 14.36 18.0219 13.3669 18.4632L11.4607 19.3104C10.3035 19.8247 9.00001 18.9776 9.00001 17.7112V11.7016C9.00001 11.4177 8.9034 11.1423 8.72611 10.9207L4.16435 5.21852C3.98425 4.99339 3.94914 4.68496 4.07403 4.42511ZM6.31047 5.5L9.89738 9.98366C9.89739 9.98367 9.89738 9.98365 9.89738 9.98366C10.2875 10.4713 10.5 11.0771 10.5 11.7016V17.7112C10.5 17.8922 10.6862 18.0132 10.8515 17.9397L12.7577 17.0925C13.2091 16.8919 13.5 16.4442 13.5 15.9503V11.7016C13.5 11.0771 13.7126 10.4712 14.1027 9.98366L17.6896 5.5H6.31047Z"/>
</svg>
