<svg width="24" height="24" viewBox="0 0 24 24" xmlns="http://www.w3.org/2000/svg">
<path fill-rule="evenodd" clip-rule="evenodd" d="M5.75 6.50429V13.9045C5.85803 13.8663 5.97178 13.8272 6.08991 13.7881C6.85271 13.5353 7.88846 13.25 8.75 13.25C10.4103 13.25 11.446 13.8301 12.349 14.3358L12.3665 14.3456C13.2449 14.8376 13.9921 15.25 15.25 15.25C15.8529 15.25 16.6922 15.0353 17.4383 14.7881C17.7515 14.6843 18.0325 14.5802 18.25 14.4957V7.09545C18.142 7.13367 18.0282 7.17279 17.9101 7.21193C17.1473 7.4647 16.1115 7.75 15.25 7.75C13.5897 7.75 12.554 7.16994 11.651 6.66417L11.6335 6.65436C10.7551 6.16241 10.0079 5.75 8.75 5.75C8.14707 5.75 7.30782 5.9647 6.56174 6.21193C6.24845 6.31574 5.9675 6.4198 5.75 6.50429ZM18.6995 5.31283C18.9314 5.21144 19.1987 5.23381 19.4105 5.37232C19.6223 5.51085 19.75 5.74689 19.75 6V15C19.75 15.298 19.5736 15.5677 19.3006 15.6871L19 15C19.3006 15.6871 19.3007 15.6871 19.3006 15.6871L19.2977 15.6884L19.2914 15.6911L19.2693 15.7006C19.2504 15.7088 19.2231 15.7203 19.1884 15.7349C19.119 15.7639 19.0194 15.8048 18.8957 15.8537C18.6489 15.9513 18.3038 16.0815 17.9101 16.2119C17.1473 16.4647 16.1115 16.75 15.25 16.75C13.5897 16.75 12.554 16.1699 11.651 15.6642L11.6335 15.6544C10.7551 15.1624 10.0079 14.75 8.75 14.75C8.14707 14.75 7.30782 14.9647 6.56174 15.2119C6.24845 15.3157 5.9675 15.4198 5.75 15.5043V19.5C5.75 19.9142 5.41421 20.25 5 20.25C4.58579 20.25 4.25 19.9142 4.25 19.5V6C4.25 5.70203 4.42639 5.43233 4.69937 5.31289L5 6C4.69937 5.31289 4.69927 5.31293 4.69937 5.31289L4.70231 5.31161L4.70855 5.3089L4.73069 5.29936C4.74964 5.29125 4.77686 5.27968 4.81159 5.26515C4.88102 5.2361 4.98062 5.19515 5.10427 5.14627C5.35109 5.0487 5.69616 4.91855 6.08991 4.78807C6.85271 4.5353 7.88846 4.25 8.75 4.25C10.4103 4.25 11.446 4.83006 12.349 5.33583L12.3665 5.34564C13.2449 5.83759 13.9921 6.25 15.25 6.25C15.8529 6.25 16.6922 6.0353 17.4383 5.78807C17.799 5.66855 18.1168 5.5487 18.3443 5.45877C18.4578 5.4139 18.5482 5.37672 18.6095 5.35108C18.6401 5.33827 18.6634 5.32836 18.6786 5.32183L18.6954 5.31463L18.6995 5.31283Z"/>
</svg>
