<svg width="24" height="24" viewBox="0 0 24 24" fill="none" xmlns="http://www.w3.org/2000/svg">
<path d="M19 6V15C19 15 16.7145 16 15.25 16C12.3211 16 11.6789 14 8.75 14C7.28553 14 5 15 5 15V6C5 6 7.28553 5 8.75 5C11.6789 5 12.3211 7 15.25 7C16.7145 7 19 6 19 6Z" fill="#1C1C1C"/>
<path d="M5 15V6C5 6 7.28553 5 8.75 5C11.6789 5 12.3211 7 15.25 7C16.7145 7 19 6 19 6V15C19 15 16.7145 16 15.25 16C12.3211 16 11.6789 14 8.75 14C7.28553 14 5 15 5 15ZM5 15V19.5" stroke="#1C1C1C" stroke-width="1.5" stroke-linecap="round" stroke-linejoin="round"/>
</svg>
