<svg width="24" height="24" viewBox="0 0 24 24" xmlns="http://www.w3.org/2000/svg">
<path fill-rule="evenodd" clip-rule="evenodd" d="M3.25 6.93103C3.25 5.3594 4.67105 4.25 6.2069 4.25H10.6899C11.724 4.25 12.7238 4.74333 13.2638 5.60959C13.2638 5.60962 13.2638 5.60957 13.2638 5.60959L14.2219 7.14655H17.7931C19.329 7.14655 20.75 8.25596 20.75 9.82759V17.069C20.75 18.6406 19.329 19.75 17.7931 19.75H6.2069C4.67106 19.75 3.25 18.6406 3.25 17.069V6.93103ZM4.75 8.64655V17.069C4.75 17.6303 5.30506 18.25 6.2069 18.25H17.7931C18.695 18.25 19.25 17.6303 19.25 17.069V9.82759C19.25 9.26625 18.695 8.64655 17.7931 8.64655H4.75ZM4.75 7.14655V6.93103C4.75 6.36971 5.30507 5.75 6.2069 5.75H10.6899C11.271 5.75 11.7574 6.02861 11.9908 6.40306L12.4543 7.14655H4.75Z"/>
</svg>
