<svg width="24" height="24" viewBox="0 0 24 24" xmlns="http://www.w3.org/2000/svg">
<path fill-rule="evenodd" clip-rule="evenodd" d="M12.8594 4.30564C13.1416 4.19047 13.4654 4.25748 13.6786 4.47519L20.5358 11.4752C20.8214 11.7668 20.8214 12.2333 20.5358 12.5249L13.6786 19.5249C13.4654 19.7426 13.1416 19.8096 12.8594 19.6944C12.5773 19.5792 12.3929 19.3048 12.3929 19V15.3334C12.3929 15.1953 12.2809 15.0834 12.1429 15.0834H5C4.0335 15.0834 3.25 14.2999 3.25 13.3334V10.6667C3.25 9.70019 4.0335 8.91669 5 8.91669H12.1429C12.2809 8.91669 12.3929 8.80476 12.3929 8.66669V5.00002C12.3929 4.69527 12.5773 4.42082 12.8594 4.30564ZM13.8929 6.83741V8.66669C13.8929 9.63319 13.1094 10.4167 12.1429 10.4167H5C4.86193 10.4167 4.75 10.5286 4.75 10.6667V13.3334C4.75 13.4714 4.86193 13.5834 5 13.5834H12.1429C13.1094 13.5834 13.8929 14.3669 13.8929 15.3334V17.1626L18.9501 12L13.8929 6.83741Z"/>
</svg>
