<svg width="24" height="24" viewBox="0 0 24 24" xmlns="http://www.w3.org/2000/svg">
<path fill-rule="evenodd" clip-rule="evenodd" d="M11.2702 2.27716C16.0802 1.91764 20.4298 5.13042 21.5004 9.83358C21.5923 10.2375 21.3394 10.6394 20.9356 10.7313C20.5317 10.8233 20.1297 10.5704 20.0378 10.1665C19.3933 7.33517 17.3443 5.14222 14.7498 4.22212V7.00004C14.7498 8.51883 13.5186 9.75004 11.9998 9.75004H9.9998C9.30944 9.75004 8.7498 10.3097 8.7498 11V13C8.7498 14.5188 7.51858 15.75 5.9998 15.75H4.65288C5.73395 17.8626 7.70985 19.4789 10.1663 20.038C10.5701 20.13 10.823 20.5319 10.7311 20.9358C10.6392 21.3397 10.2372 21.5926 9.83334 21.5006C6.50102 20.7421 3.9169 18.3375 2.82147 15.2893C2.8109 15.264 2.80168 15.238 2.79389 15.2115C2.36276 13.979 2.17429 12.6435 2.27692 11.2704C2.63644 6.46035 6.46011 2.63668 11.2702 2.27716ZM4.06234 14.25H5.9998C6.69016 14.25 7.2498 13.6904 7.2498 13V11C7.2498 9.48126 8.48102 8.25004 9.9998 8.25004H11.9998C12.6902 8.25004 13.2498 7.6904 13.2498 7.00004V3.84471C12.6427 3.75166 12.0171 3.72552 11.382 3.77299C7.31216 4.07718 4.07694 7.3124 3.77275 11.3822C3.69872 12.3727 3.80371 13.3401 4.06234 14.25ZM17.2461 12.2504C19.3623 12.2313 21.3579 13.234 22.6056 14.9435C22.7311 15.1154 22.7776 15.3326 22.7336 15.5409C22.6895 15.7491 22.559 15.9289 22.3746 16.0353C22.143 16.1689 21.8985 16.4256 21.5991 16.8354C21.4559 17.0313 21.3133 17.2431 21.1577 17.4744L21.1501 17.4858C20.9944 17.717 20.8268 17.9658 20.6482 18.2097C19.9427 19.1736 18.934 20.25 17.2498 20.25C15.9821 20.25 14.8521 19.6603 14.1192 18.7401C13.9432 18.9474 13.7809 19.168 13.6338 19.4007C13.4125 19.7509 12.9492 19.8553 12.5991 19.634C12.249 19.4127 12.1445 18.9495 12.3658 18.5993C12.662 18.1306 13.0075 17.7013 13.3937 17.3169C13.2999 16.9773 13.2498 16.6195 13.2498 16.25C13.2498 14.042 15.0388 12.2524 17.2461 12.2504ZM15.2329 17.7275C15.9371 17.2365 16.7485 16.901 17.614 16.7562C18.0225 16.6878 18.2983 16.3013 18.2299 15.8927C18.1616 15.4842 17.775 15.2084 17.3665 15.2768C16.4295 15.4335 15.5431 15.7681 14.7498 16.2524C14.7498 16.2516 14.7498 16.2508 14.7498 16.25C14.7498 14.8694 15.869 13.7504 17.2498 13.7504V13.7505L17.257 13.7504C18.6521 13.737 19.9794 14.2994 20.9371 15.2858C20.7315 15.4977 20.5504 15.728 20.3879 15.9504C20.2273 16.1702 20.0706 16.4031 19.9206 16.626L19.9056 16.6483C19.7481 16.8823 19.5963 17.1073 19.4378 17.3237C18.7956 18.2011 18.1777 18.75 17.2498 18.75C16.4218 18.75 15.6879 18.3475 15.2329 17.7275Z"/>
</svg>
