<svg width="24" height="24" viewBox="0 0 24 24" fill="none" xmlns="http://www.w3.org/2000/svg">
<path d="M12.25 19.5C16.2541 19.5 19.5 16.2541 19.5 12.25C19.5 8.24594 16.2541 5 12.25 5M12.25 19.5C8.24594 19.5 5 16.2541 5 12.25C5 8.24594 8.24594 5 12.25 5M12.25 19.5C13.4926 19.5 15.5 16.75 15.5 12.25C15.5 7.75 13.4926 5 12.25 5M12.25 19.5C11.0074 19.5 9 16.75 9 12.25C9 7.75 11.0074 5 12.25 5M5.25 12.25H19.25" stroke="#1C1C1C" stroke-width="1.5" stroke-linecap="round" stroke-linejoin="round"/>
</svg>
