<svg width="24" height="24" viewBox="0 0 24 24" xmlns="http://www.w3.org/2000/svg">
<path d="M12.25 5.75C12.2041 5.75 12.0186 5.78722 11.7209 6.05634C11.4386 6.31164 11.1212 6.71914 10.8229 7.28651C10.2995 8.28191 9.86624 9.71098 9.76996 11.5H14.73C14.6338 9.71098 14.2005 8.28191 13.6771 7.28651C13.3788 6.71914 13.0614 6.31164 12.7791 6.05634C12.4814 5.78722 12.2959 5.75 12.25 5.75Z"/>
<path d="M5.7928 11.5H8.26802C8.36591 9.48031 8.8532 7.80958 9.49518 6.58849C9.54985 6.48451 9.60587 6.38334 9.66314 6.28513C7.57917 7.19016 6.06218 9.15532 5.7928 11.5Z"/>
<path d="M9.66314 18.2149C9.60587 18.1167 9.54985 18.0155 9.49518 17.9115C8.8532 16.6904 8.36591 15.0197 8.26802 13H5.7928C6.06218 15.3447 7.57917 17.3098 9.66314 18.2149Z"/>
<path d="M9.76996 13C9.86624 14.789 10.2995 16.2181 10.8229 17.2135C11.1212 17.7809 11.4386 18.1884 11.7209 18.4437C12.0186 18.7128 12.2041 18.75 12.25 18.75C12.2959 18.75 12.4814 18.7128 12.7791 18.4437C13.0614 18.1884 13.3788 17.7809 13.6771 17.2135C14.2005 16.2181 14.6338 14.789 14.73 13H9.76996Z"/>
<path d="M14.8369 18.2149C14.8941 18.1167 14.9502 18.0155 15.0048 17.9115C15.6468 16.6904 16.1341 15.0197 16.232 13H18.7072C18.4378 15.3447 16.9208 17.3098 14.8369 18.2149Z"/>
<path d="M16.232 11.5C16.1341 9.48031 15.6468 7.80958 15.0048 6.58849C14.9502 6.48451 14.8941 6.38334 14.8369 6.28513C16.9208 7.19016 18.4378 9.15532 18.7072 11.5H16.232Z"/>
</svg>
