<svg width="24" height="24" viewBox="0 0 24 24" xmlns="http://www.w3.org/2000/svg">
<path fill-rule="evenodd" clip-rule="evenodd" d="M11.9943 5.60665C10.138 3.99899 7.38208 3.66638 5.24455 5.44199C2.93265 7.36246 2.59133 10.6094 4.42554 12.9042C4.44771 12.9319 4.47183 12.9581 4.49771 12.9824L11.4808 19.5465C11.7695 19.8178 12.2195 19.8178 12.5082 19.5465L19.4914 12.9824C19.5172 12.9581 19.5414 12.9319 19.5635 12.9042C21.3909 10.618 21.1012 7.34624 18.7367 5.43555C16.5747 3.68856 13.8486 3.99838 11.9943 5.60665ZM11.4314 7.1566C10.0549 5.59205 7.84476 5.23206 6.20302 6.59582C4.52061 7.99338 4.28761 10.2869 5.56559 11.9275L11.9945 17.9707L18.4235 11.9275C19.7087 10.2783 19.4926 7.97485 17.7939 6.60226C16.1099 5.2415 13.9286 5.59834 12.5576 7.15662C12.4152 7.31845 12.2101 7.41119 11.9945 7.41119C11.7789 7.41119 11.5738 7.31844 11.4314 7.1566Z"/>
</svg>
