<svg width="24" height="24" viewBox="0 0 24 24" xmlns="http://www.w3.org/2000/svg">
<path fill-rule="evenodd" clip-rule="evenodd" d="M12 4.75C7.99594 4.75 4.75 7.99594 4.75 12C4.75 16.0041 7.99594 19.25 12 19.25C16.0041 19.25 19.25 16.0041 19.25 12C19.25 7.99594 16.0041 4.75 12 4.75ZM3.25 12C3.25 7.16751 7.16751 3.25 12 3.25C16.8325 3.25 20.75 7.16752 20.75 12C20.75 16.8325 16.8325 20.75 12 20.75C7.16752 20.75 3.25 16.8325 3.25 12Z"/>
<path d="M10.2622 9.87933L10.2624 9.87807L10.2626 9.87656L10.2635 9.86977C10.265 9.85923 10.2678 9.84074 10.2722 9.81544C10.2811 9.76465 10.2964 9.68765 10.3208 9.59341C10.3704 9.40194 10.4537 9.15523 10.5866 8.91598C10.8433 8.45403 11.249 8.06036 12 8.06036C12.9379 8.06036 13.2939 8.34327 13.4586 8.57388C13.6607 8.85681 13.7327 9.275 13.7327 9.79312C13.7327 10.3373 13.4334 10.8721 12.8108 11.1127C12.1229 11.3785 11.25 12.0359 11.25 13.104V13.3793C11.25 13.7935 11.5858 14.1293 12 14.1293C12.4142 14.1293 12.75 13.7935 12.75 13.3793V13.1035C12.75 13.0232 12.7805 12.9282 12.8824 12.8162C12.9889 12.699 13.1544 12.588 13.3514 12.5119C14.5976 12.0304 15.2327 10.907 15.2327 9.79312C15.2327 9.2078 15.1668 8.38461 14.6792 7.70202C14.1543 6.96711 13.269 6.56036 12 6.56036C10.5441 6.56036 9.7084 7.40808 9.27539 8.18751C9.06348 8.56894 8.93985 8.94293 8.8688 9.21697C8.83289 9.35549 8.80939 9.47246 8.79455 9.55744C8.78712 9.60003 8.7818 9.63488 8.77817 9.66071L8.7739 9.69265L8.7726 9.70331L8.77214 9.70727L8.77196 9.7089L8.7718 9.7103C8.72606 10.122 9.02271 10.4928 9.43439 10.5385C9.84494 10.5842 10.2148 10.2893 10.2622 9.87933Z"/>
<path d="M12.75 16C12.75 16.4142 12.4142 16.75 12 16.75C11.5858 16.75 11.25 16.4142 11.25 16C11.25 15.5858 11.5858 15.25 12 15.25C12.4142 15.25 12.75 15.5858 12.75 16Z"/>
</svg>
