<svg width="24" height="24" viewBox="0 0 24 24" xmlns="http://www.w3.org/2000/svg">
<path fill-rule="evenodd" clip-rule="evenodd" d="M20 12C20 16.4183 16.4183 20 12 20C7.58173 20 4 16.4183 4 12C4 7.58173 7.58173 4 12 4C16.4183 4 20 7.58173 20 12ZM10.3874 10.7391C10.3434 11.0774 10.0002 11.3208 9.61919 11.2832C9.23716 11.2454 8.96187 10.9394 9.00432 10.5996C9.00432 10.5998 9.00557 10.5999 9.09073 10.6083L9.694 10.6678L9.00432 10.5996L9.00446 10.5985L9.00464 10.5971L9.00506 10.5939L9.00627 10.5851L9.01023 10.5587C9.0136 10.5374 9.01853 10.5086 9.02543 10.4735C9.0392 10.4033 9.06101 10.3068 9.09433 10.1925C9.16027 9.96633 9.275 9.65768 9.47164 9.34288C9.87348 8.69962 10.649 8 12 8C13.1776 8 13.9992 8.33569 14.4864 8.94221C14.9388 9.50555 15 10.1849 15 10.668C15 11.5872 14.4106 12.5144 13.2542 12.9118C13.0713 12.9746 12.9178 13.0662 12.8189 13.1629C12.7244 13.2554 12.696 13.3338 12.696 13.4V13.6277C12.696 13.9695 12.3844 14.2467 12 14.2467C11.6156 14.2467 11.304 13.9695 11.304 13.6277V13.4C11.304 12.5185 12.1142 11.9764 12.7525 11.7571C13.3303 11.5585 13.608 11.1171 13.608 10.668C13.608 10.2404 13.5412 9.89525 13.3537 9.66175C13.2008 9.47143 12.8704 9.23795 12 9.23795C11.3031 9.23795 10.9266 9.56284 10.6885 9.94408C10.5651 10.1415 10.4878 10.3451 10.4418 10.5032C10.4191 10.5809 10.4049 10.6445 10.3967 10.6864C10.3926 10.7073 10.39 10.7225 10.3886 10.7312L10.3874 10.7391ZM11.024 16.132C11.024 15.6527 11.461 15.264 12 15.264C12.539 15.264 12.976 15.6527 12.976 16.132C12.976 16.6114 12.539 17 12 17C11.461 17 11.024 16.6114 11.024 16.132Z"/>
</svg>
