<svg width="24" height="24" viewBox="0 0 24 24" xmlns="http://www.w3.org/2000/svg">
<path fill-rule="evenodd" clip-rule="evenodd" d="M8.25 19.5H7C5.89544 19.5 5 18.6046 5 17.5V10.5251C5 10.1963 5.16161 9.88856 5.43226 9.7019L11.6822 5.39154C12.024 5.15582 12.4759 5.15582 12.8177 5.39154L19.0677 9.7019C19.3383 9.88856 19.5 10.1963 19.5 10.5251V17.5C19.5 18.6046 18.6046 19.5 17.5 19.5H16.25V16.6C16.25 14.6117 14.5969 13 12.5577 13H11.9423C9.90317 13 8.25 14.6117 8.25 16.6V19.5ZM13.7885 19.5H10.7115V16.6C10.7115 15.9372 11.2626 15.4 11.9423 15.4H12.5577C13.2374 15.4 13.7885 15.9372 13.7885 16.6V19.5Z"/>
</svg>
