<svg width="24" height="24" viewBox="0 0 24 24" xmlns="http://www.w3.org/2000/svg">
<path fill-rule="evenodd" clip-rule="evenodd" d="M11.5744 4.13259C11.8307 3.9558 12.1697 3.9558 12.426 4.13259L19.676 9.1326C19.879 9.2726 20.0002 9.50343 20.0002 9.75001V17.25C20.0002 18.7688 18.769 20 17.2502 20H6.75024C5.23148 20 4.00024 18.7688 4.00024 17.25V9.75001C4.00024 9.50343 4.12145 9.2726 4.32444 9.1326L11.5744 4.13259ZM12.0002 5.66107L5.50024 10.1438V17.25C5.50024 17.9403 6.05989 18.5 6.75024 18.5H8.99963V15.7491C8.99963 14.2302 10.2309 12.9991 11.7496 12.9991H12.2496C13.7684 12.9991 14.9996 14.2302 14.9996 15.7491V18.5H17.2502C17.9406 18.5 18.5002 17.9403 18.5002 17.25V10.1438L12.0002 5.66107ZM13.4996 18.4991V15.7491C13.4996 15.0587 12.94 14.4991 12.2496 14.4991H11.7496C11.0593 14.4991 10.4996 15.0587 10.4996 15.7491V18.4991H13.4996Z"/>
</svg>
