<svg width="24" height="24" viewBox="0 0 24 24" fill="none" xmlns="http://www.w3.org/2000/svg">
<path d="M5 16.25V17.5M19.5 13.073V17.5M19.5 17.5C19.5 18.6046 18.6046 19.5 17.5 19.5H7C5.89543 19.5 5 18.6046 5 17.5M19.5 17.5V7C19.5 5.89543 18.6046 5 17.5 5H7C5.89543 5 5 5.89543 5 7V17.5" stroke="#1C1C1C" stroke-width="1.5" stroke-linecap="round" stroke-linejoin="round"/>
<path d="M7.74619 12.7567L5 16.25V17.5C5 18.6046 5.89543 19.5 7 19.5H17.5C18.6046 19.5 19.5 18.6046 19.5 17.5V13.073L16.8356 9.68948C16.0163 8.73582 14.5315 8.76599 13.7513 9.75018L13.7414 9.76295L13.7226 9.78722C13.5271 10.04 12.1588 11.8089 11.165 13.073L10.8356 12.6895C10.0145 11.7337 8.5249 11.7661 7.74619 12.7567Z" fill="#1C1C1C"/>
</svg>
