<svg width="24" height="24" viewBox="0 0 24 24" xmlns="http://www.w3.org/2000/svg">
<path fill-rule="evenodd" clip-rule="evenodd" d="M7.00003 4.25C5.48125 4.25 4.25003 5.48122 4.25003 7V16.2426V16.2564V17.5C4.25003 19.0188 5.48126 20.25 7.00003 20.25H17.5C19.0188 20.25 20.25 19.0188 20.25 17.5V7C20.25 5.48122 19.0189 4.25 17.5 4.25H7.00003ZM7.15659 12.2932C8.14259 11.0389 9.95749 10.9019 11.1202 11.9143C12.0078 10.7784 12.9671 9.5382 13.1293 9.32852L13.1464 9.3064L13.1625 9.28566L13.1636 9.28426C14.2364 7.93096 16.278 7.88946 17.4045 9.20075L18.75 10.767V7C18.75 6.30964 18.1904 5.75 17.5 5.75H7.00003C6.30968 5.75 5.75003 6.30964 5.75003 7V14.0824L7.15659 12.2932ZM5.75003 17.5V16.5095L8.33585 13.2202C8.82254 12.6011 9.75355 12.5808 10.2667 13.1782L10.5849 13.5486C10.5919 13.5571 10.599 13.5654 10.6063 13.5736L12.6811 15.9887C12.951 16.3029 13.4246 16.3388 13.7388 16.0689C14.053 15.799 14.0888 15.3255 13.8189 15.0113L12.1352 13.0513C13.0693 11.8577 14.1453 10.4666 14.316 10.2459L14.3346 10.2219L14.3378 10.2178L14.3402 10.2147C14.828 9.60077 15.755 9.58259 16.2667 10.1782L18.6811 12.9887C18.7028 13.014 18.7259 13.0375 18.75 13.0591V17.5C18.75 18.1904 18.1904 18.75 17.5 18.75H7.00003C6.30967 18.75 5.75003 18.1904 5.75003 17.5Z"/>
</svg>
