<svg width="24" height="24" viewBox="0 0 24 24" xmlns="http://www.w3.org/2000/svg">
<path fill-rule="evenodd" clip-rule="evenodd" d="M7 4.75C6.30964 4.75 5.75 5.30964 5.75 6V18C5.75 18.6904 6.30964 19.25 7 19.25H7.71186C8.12608 19.25 8.46186 19.5858 8.46186 20C8.46186 20.4142 8.12608 20.75 7.71186 20.75H7C5.48122 20.75 4.25 19.5188 4.25 18V6C4.25 4.48122 5.48122 3.25 7 3.25H12.6327L19.0381 9.65544V18C19.0381 19.5188 17.8069 20.75 16.2881 20.75H15.8475C15.4332 20.75 15.0975 20.4142 15.0975 20C15.0975 19.5858 15.4332 19.25 15.8475 19.25H16.2881C16.9785 19.25 17.5381 18.6904 17.5381 18V10.7161H14.322C12.8032 10.7161 11.572 9.48488 11.572 7.9661V4.75H7ZM13.072 5.81066L16.4775 9.2161H14.322C13.6317 9.2161 13.072 8.65646 13.072 7.9661V5.81066ZM11.7797 13.0127C11.9852 13.0127 12.1817 13.0971 12.3233 13.2461L14.764 15.8144C15.0493 16.1146 15.0373 16.5893 14.737 16.8747C14.4367 17.16 13.962 17.1479 13.6767 16.8477L12.5297 15.6407V20C12.5297 20.4142 12.1939 20.75 11.7797 20.75C11.3655 20.75 11.0297 20.4142 11.0297 20L11.0297 15.6407L9.88265 16.8477C9.59732 17.1479 9.1226 17.16 8.82234 16.8747C8.52208 16.5893 8.50999 16.1146 8.79532 15.8144L11.236 13.2461C11.3776 13.0971 11.5741 13.0127 11.7797 13.0127Z"/>
</svg>
