<svg width="24" height="24" viewBox="0 0 24 24" fill="none" xmlns="http://www.w3.org/2000/svg">
<path fill-rule="evenodd" clip-rule="evenodd" d="M5 18V6C5 4.89543 5.89543 4 7 4H11.8226C12.0988 4 12.322 4.22355 12.322 4.4997V7.9661C12.322 9.07067 13.2175 9.9661 14.322 9.9661H17.7884C18.0646 9.9661 18.2881 10.189 18.2881 10.4651V18C18.2881 19.1046 17.3927 20 16.2881 20H15.8475H14.2797V19.8303C14.8784 19.8163 15.4741 19.5883 15.9425 19.1432C16.9434 18.1921 16.9837 16.6097 16.0325 15.6088L13.5919 13.0405C13.1199 12.5439 12.4648 12.2627 11.7797 12.2627C11.0945 12.2627 10.4394 12.5439 9.96744 13.0405L7.52676 15.6088C6.57563 16.6097 6.61595 18.1921 7.61681 19.1432C8.08517 19.5883 8.68088 19.8163 9.27965 19.8303V20H7.71186H7C5.89543 20 5 19.1046 5 18Z" fill="#1C1C1C"/>
<path d="M9.33898 17.331L11.7797 14.7627M11.7797 14.7627L14.2203 17.331M11.7797 14.7627C11.7797 17.1269 11.7797 21 11.7797 21" stroke="#1C1C1C" stroke-width="1.5" stroke-linecap="round" stroke-linejoin="round"/>
<path d="M17.3344 8.98757C17.7738 8.99226 18.0051 8.46849 17.7056 8.14687L14.188 4.36896C13.8785 4.03662 13.322 4.25558 13.322 4.70968V6.96612C13.322 8.07069 14.2175 8.96613 15.322 8.96613L17.3344 8.98757Z" fill="#1C1C1C"/>
</svg>
