<svg width="24" height="24" viewBox="0 0 24 24" xmlns="http://www.w3.org/2000/svg">
<path fill-rule="evenodd" clip-rule="evenodd" d="M3 12C3 7.032 7.023 3 11.991 3C16.968 3 21 7.032 21 12C21 16.968 16.968 21 11.991 21C7.023 21 3 16.968 3 12ZM12.9 8.4C12.9 7.905 12.495 7.5 12 7.5C11.505 7.5 11.1 7.905 11.1 8.4V12C11.1 12.495 11.505 12.9 12 12.9C12.495 12.9 12.9 12.495 12.9 12V8.4ZM12 19.2C8.022 19.2 4.8 15.978 4.8 12C4.8 8.022 8.022 4.8 12 4.8C15.978 4.8 19.2 8.022 19.2 12C19.2 15.978 15.978 19.2 12 19.2ZM11.1 14.7V16.5H12.9V14.7H11.1Z"/>
</svg>
