<svg width="24" height="24" viewBox="0 0 24 24" xmlns="http://www.w3.org/2000/svg">
<path fill-rule="evenodd" clip-rule="evenodd" d="M11.991 3C7.023 3 3 7.032 3 12C3 16.968 7.023 21 11.991 21C16.968 21 21 16.968 21 12C21 7.032 16.968 3 11.991 3ZM12 7.5C12.495 7.5 12.9 7.905 12.9 8.4V12C12.9 12.495 12.495 12.9 12 12.9C11.505 12.9 11.1 12.495 11.1 12V8.4C11.1 7.905 11.505 7.5 12 7.5ZM12.9 15.6C12.9 15.1029 12.497 14.7 12 14.7C11.5029 14.7 11.1 15.1029 11.1 15.6C11.1 16.0971 11.5029 16.5 12 16.5C12.497 16.5 12.9 16.0971 12.9 15.6Z"/>
</svg>
