<svg width="24" height="24" viewBox="0 0 24 24" xmlns="http://www.w3.org/2000/svg">
<path fill-rule="evenodd" clip-rule="evenodd" d="M11.991 21C7.023 21 3 16.968 3 12C3 7.032 7.023 3 11.991 3C16.968 3 21 7.032 21 12C21 16.968 16.968 21 11.991 21ZM12.9 8.4C12.9 8.89706 12.497 9.3 12 9.3C11.5029 9.3 11.1 8.89706 11.1 8.4C11.1 7.90294 11.5029 7.5 12 7.5C12.497 7.5 12.9 7.90294 12.9 8.4ZM12 16.5C12.495 16.5 12.9 16.095 12.9 15.6V12C12.9 11.505 12.495 11.1 12 11.1C11.505 11.1 11.1 11.505 11.1 12V15.6C11.1 16.095 11.505 16.5 12 16.5Z"/>
</svg>
