<svg width="24" height="24" viewBox="0 0 24 24" xmlns="http://www.w3.org/2000/svg">
<path fill-rule="evenodd" clip-rule="evenodd" d="M3 12C3 16.968 7.023 21 11.991 21C16.968 21 21 16.968 21 12C21 7.032 16.968 3 11.991 3C7.023 3 3 7.032 3 12ZM12.9 15.6C12.9 16.095 12.495 16.5 12 16.5C11.505 16.5 11.1 16.095 11.1 15.6V12C11.1 11.505 11.505 11.1 12 11.1C12.495 11.1 12.9 11.505 12.9 12V15.6ZM12 4.8C8.022 4.8 4.8 8.022 4.8 12C4.8 15.978 8.022 19.2 12 19.2C15.978 19.2 19.2 15.978 19.2 12C19.2 8.022 15.978 4.8 12 4.8ZM11.1 9.3V7.5H12.9V9.3H11.1Z"/>
</svg>
