<svg width="24" height="24" viewBox="0 0 24 24" fill="none" xmlns="http://www.w3.org/2000/svg">
<path d="M14.8891 12.528C15.3033 12.528 15.6391 12.1922 15.6391 11.778C15.6391 11.3638 15.3033 11.028 14.8891 11.028V12.528ZM11.0001 11.778L10.9998 12.528H11.0001V11.778ZM8.66712 14.111L9.41712 14.1113L9.41712 14.1107L8.66712 14.111ZM11.0001 16.444V15.694H10.9998L11.0001 16.444ZM11.2001 7.556V6.806H11.1999L11.2001 7.556ZM9.62912 8.206L10.1577 8.73813L10.1589 8.7369L9.62912 8.206ZM8.80459 7.96788C8.51071 8.25977 8.5091 8.73464 8.801 9.02853C9.0929 9.32241 9.56777 9.32402 9.86165 9.03213L8.80459 7.96788ZM16.4441 20.75C16.8583 20.75 17.1941 20.4142 17.1941 20C17.1941 19.5858 16.8583 19.25 16.4441 19.25V20.75ZM19.2189 15.6635L18.6887 15.1331L19.2189 15.6635ZM17.3331 16.444L17.3334 15.694H17.3331V16.444ZM15.6391 11.556C15.6391 11.1418 15.3033 10.806 14.8891 10.806C14.4749 10.806 14.1391 11.1418 14.1391 11.556H15.6391ZM14.8891 11.028H11.0001V12.528H14.8891V11.028ZM11.0004 11.028C10.1826 11.0276 9.39813 11.3524 8.81982 11.9307L9.88048 12.9914C10.1773 12.6945 10.58 12.5278 10.9998 12.528L11.0004 11.028ZM8.81982 11.9307C8.24151 12.509 7.91677 13.2935 7.91712 14.1113L9.41712 14.1107C9.41694 13.6909 9.58363 13.2882 9.88048 12.9914L8.81982 11.9307ZM7.91712 14.1107C7.91677 14.9285 8.24151 15.713 8.81982 16.2913L9.88048 15.2306C9.58363 14.9338 9.41694 14.5311 9.41712 14.1113L7.91712 14.1107ZM8.81982 16.2913C9.39813 16.8696 10.1826 17.1944 11.0004 17.194L10.9998 15.694C10.58 15.6942 10.1773 15.5275 9.88048 15.2306L8.81982 16.2913ZM11.0001 17.194H12.6671V15.694H11.0001V17.194ZM12.6671 17.194C14.3085 17.194 15.6391 15.8634 15.6391 14.222H14.1391C14.1391 15.035 13.4801 15.694 12.6671 15.694V17.194ZM15.6391 14.222V9.778H14.1391V14.222H15.6391ZM15.6391 9.778C15.6391 8.13661 14.3085 6.806 12.6671 6.806V8.306C13.4801 8.306 14.1391 8.96504 14.1391 9.778H15.6391ZM12.6671 6.806H11.2001V8.306H12.6671V6.806ZM11.1999 6.806C10.4123 6.80622 9.65689 7.11877 9.09936 7.6751L10.1589 8.7369C10.4353 8.46107 10.8098 8.30611 11.2003 8.306L11.1999 6.806ZM9.10059 7.67388L8.80459 7.96788L9.86165 9.03213L10.1577 8.73813L9.10059 7.67388ZM16.4441 19.25H9.33312V20.75H16.4441V19.25ZM9.33312 19.25C6.802 19.25 4.75012 17.1981 4.75012 14.667H3.25012C3.25012 18.0265 5.97357 20.75 9.33312 20.75V19.25ZM4.75012 14.667V9.333H3.25012V14.667H4.75012ZM4.75012 9.333C4.75012 6.80188 6.802 4.75 9.33312 4.75V3.25C5.97357 3.25 3.25012 5.97345 3.25012 9.333H4.75012ZM9.33312 4.75H14.6671V3.25H9.33312V4.75ZM14.6671 4.75C17.1982 4.75 19.2501 6.80188 19.2501 9.333H20.7501C20.7501 5.97345 18.0267 3.25 14.6671 3.25V4.75ZM19.2501 9.333V13.778H20.7501V9.333H19.2501ZM19.2501 13.778C19.2501 14.2863 19.0482 14.7737 18.6887 15.1331L19.7491 16.1939C20.39 15.5533 20.7501 14.6842 20.7501 13.778H19.2501ZM18.6887 15.1331C18.3292 15.4924 17.8417 15.6942 17.3334 15.694L17.3328 17.194C18.239 17.1943 19.1082 16.8346 19.7491 16.1939L18.6887 15.1331ZM17.3331 15.694C16.3976 15.694 15.6391 14.9356 15.6391 14H14.1391C14.1391 15.764 15.5691 17.194 17.3331 17.194V15.694ZM15.6391 14V11.556H14.1391V14H15.6391Z" fill="#AEAFB0"/>
</svg>
