<svg width="24" height="24" viewBox="0 0 24 24" xmlns="http://www.w3.org/2000/svg">
<path fill-rule="evenodd" clip-rule="evenodd" d="M5.77778 4.75C5.1778 4.75 4.75 5.20623 4.75 5.7V17.0688C4.75 17.5625 5.1778 18.0188 5.77778 18.0188H6.81023L8.82469 16.0924C8.90177 15.4135 9.21125 14.7545 9.75314 14.2364C10.9977 13.0463 13.0022 13.0463 14.2468 14.2364C14.7886 14.7545 15.0981 15.4134 15.1752 16.0923L17.1898 18.0188H18.2222C18.8222 18.0188 19.25 17.5625 19.25 17.0688V5.7C19.25 5.20623 18.8222 4.75 18.2222 4.75H5.77778ZM15.8037 18.7688L14.8399 17.8471C14.6898 18.1282 14.4921 18.3916 14.2468 18.6262C14.059 18.8058 13.8539 18.9583 13.6367 19.0836L14.5556 19.9623L15.8037 18.7688ZM10.3632 19.0837C10.1461 18.9583 9.94094 18.8058 9.75314 18.6262C9.50782 18.3916 9.31014 18.1282 9.16009 17.8471L8.19631 18.7688L9.44444 19.9623L10.3632 19.0837ZM6.81023 19.5187H5.77778C4.41332 19.5187 3.25 18.4535 3.25 17.0688V5.7C3.25 4.31527 4.41332 3.25 5.77778 3.25H18.2222C19.5867 3.25 20.75 4.31527 20.75 5.7V17.0688C20.75 18.4535 19.5867 19.5187 18.2222 19.5187H17.1898L15.0739 21.5421C14.784 21.8193 14.3272 21.8193 14.0372 21.5421L12 19.594L9.96278 21.5421C9.67284 21.8193 9.21605 21.8193 8.9261 21.5421L6.81023 19.5187ZM10.3055 16.4376C10.3072 16.8365 10.4686 17.235 10.7898 17.5421C11.4545 18.1777 12.5454 18.1777 13.2101 17.5421C13.8558 16.9246 13.8558 15.938 13.2101 15.3205C12.5454 14.6849 11.4545 14.6849 10.7898 15.3205C10.4687 15.6276 10.3073 16.0259 10.3055 16.4248C10.3056 16.4291 10.3056 16.4333 10.3055 16.4376ZM8.58333 7.5445C8.58333 7.13029 8.91912 6.7945 9.33333 6.7945H14.6667C15.0809 6.7945 15.4167 7.13029 15.4167 7.5445C15.4167 7.95871 15.0809 8.2945 14.6667 8.2945H9.33333C8.91912 8.2945 8.58333 7.95871 8.58333 7.5445ZM6.80556 10.9445C6.80556 10.5303 7.14134 10.1945 7.55556 10.1945H16.4444C16.8587 10.1945 17.1944 10.5303 17.1944 10.9445C17.1944 11.3587 16.8587 11.6945 16.4444 11.6945H7.55556C7.14134 11.6945 6.80556 11.3587 6.80556 10.9445Z"/>
</svg>
