<svg width="24" height="25" viewBox="0 0 24 25" fill="none" xmlns="http://www.w3.org/2000/svg">
<path fill-rule="evenodd" clip-rule="evenodd" d="M18.0823 19.8837L16.1938 18.0242C16.0545 17.1815 15.6555 16.3727 14.9969 15.7242C13.3391 14.0919 10.6608 14.0919 9.003 15.7242C8.34438 16.3727 7.94539 17.1816 7.80605 18.0243L5.91767 19.8837C4.80952 19.5306 4 18.4139 4 17.0909V6.90909C4 5.30244 5.19391 4 6.66667 4H17.3333C18.8061 4 20 5.30244 20 6.90909V17.0909C20 18.4139 19.1905 19.5306 18.0823 19.8837ZM8.58344 6.4122C8.58344 5.96033 8.91923 5.59402 9.33344 5.59402H14.6668C15.081 5.59402 15.4168 5.96033 15.4168 6.4122C15.4168 6.86407 15.081 7.23038 14.6668 7.23038H9.33344C8.91923 7.23038 8.58344 6.86407 8.58344 6.4122ZM6.80566 10.1213C6.80566 9.66942 7.14145 9.30311 7.55566 9.30311H16.4446C16.8588 9.30311 17.1946 9.66942 17.1946 10.1213C17.1946 10.5732 16.8588 10.9395 16.4446 10.9395H7.55566C7.14145 10.9395 6.80566 10.5732 6.80566 10.1213Z" fill="#1C1C1C"/>
<path d="M14.75 18.7077L17.5 21.4154L14.875 24L12.24 21.4055M11.76 21.4055L9.125 24L6.5 21.4154L9.25 18.7077M9.25 18.7077C9.25 18.1813 9.40485 17.6551 9.7146 17.2007M9.25 18.7077C9.25 19.314 9.45552 19.9204 9.86663 20.4167M9.7146 17.2007C9.81267 17.0569 9.92628 16.9202 10.0554 16.7931C11.1293 15.7356 12.8706 15.7356 13.9445 16.7931C15.0184 17.8505 15.0184 19.5649 13.9445 20.6223C12.8706 21.6798 11.1293 21.6798 10.0554 20.6223C9.98829 20.5563 9.92536 20.4876 9.86663 20.4167M9.7146 17.2007C9.04798 18.1785 9.09865 19.4896 9.86663 20.4167" stroke="#1C1C1C" stroke-width="1.5" stroke-linecap="round" stroke-linejoin="round"/>
</svg>
