<svg width="24" height="24" viewBox="0 0 24 24" xmlns="http://www.w3.org/2000/svg">
<path fill-rule="evenodd" clip-rule="evenodd" d="M11.7123 5.7123C13.6621 3.76257 16.8232 3.76257 18.773 5.7123C20.7228 7.66205 20.7228 10.8232 18.773 12.773L17.523 14.023C17.2301 14.3159 16.7552 14.3159 16.4623 14.023C16.1694 13.7301 16.1694 13.2552 16.4623 12.9623L17.7123 11.7123C19.0763 10.3483 19.0763 8.13693 17.7123 6.77298C16.3483 5.40901 14.137 5.40901 12.773 6.77297C12.773 6.77297 12.773 6.77297 12.773 6.77298L11.523 8.02297C11.2301 8.31586 10.7552 8.31586 10.4623 8.02297C10.1694 7.73007 10.1694 7.2552 10.4623 6.96231L11.7123 5.71231L11.7123 5.7123ZM15.023 9.46231C15.3159 9.7552 15.3159 10.2301 15.023 10.523L10.523 15.023C10.2301 15.3159 9.7552 15.3159 9.46231 15.023C9.16941 14.7301 9.16941 14.2552 9.46231 13.9623L13.9623 9.46231C14.2552 9.16941 14.7301 9.16941 15.023 9.46231ZM8.02297 10.4623C8.31586 10.7552 8.31586 11.2301 8.02297 11.523L6.77298 12.773C6.77297 12.773 6.77297 12.773 6.77297 12.773C5.40901 14.137 5.40901 16.3483 6.77298 17.7123C8.13693 19.0763 10.3483 19.0763 11.7123 17.7123L12.9623 16.4623C13.2552 16.1694 13.7301 16.1694 14.023 16.4623C14.3159 16.7552 14.3159 17.2301 14.023 17.523L12.773 18.773C10.8232 20.7228 7.66205 20.7228 5.7123 18.773C3.76257 16.8232 3.76257 13.6621 5.7123 11.7123L5.71231 11.7123L6.96231 10.4623C7.2552 10.1694 7.73007 10.1694 8.02297 10.4623Z"/>
</svg>
