<svg width="24" height="24" viewBox="0 0 24 24" xmlns="http://www.w3.org/2000/svg">
<path fill-rule="evenodd" clip-rule="evenodd" d="M17.2783 4.36664C18.7479 3.8217 20.1776 5.25353 19.6335 6.72213L15.2495 18.5544C14.6228 20.2432 12.1914 20.1096 11.7531 18.363L10.5313 13.482L5.63549 12.2516C3.88991 11.8127 3.75753 9.38231 5.44495 8.75567L17.2783 4.36664ZM17.7998 5.77307C17.7997 5.77308 17.7998 5.77306 17.7998 5.77307L5.96714 10.1618C5.96713 10.1618 5.96716 10.1618 5.96714 10.1618C5.66017 10.2759 5.68537 10.7174 6.00109 10.7968C6.00111 10.7968 6.00107 10.7968 6.00109 10.7968L11.0422 12.0637C11.4892 12.176 11.8382 12.5253 11.9501 12.9725L13.208 17.9979C13.208 17.9979 13.208 17.9978 13.208 17.9979C13.2878 18.3154 13.7294 18.3392 13.8431 18.0329L18.2269 6.201C18.326 5.9335 18.0655 5.67459 17.7998 5.77307Z"/>
</svg>
