<svg width="24" height="24" viewBox="0 0 24 24" fill="none" xmlns="http://www.w3.org/2000/svg">
<path d="M6 12C6 11.4477 6.44772 11 7 11H17.5C18.0523 11 18.5 11.4477 18.5 12V17.5C18.5 18.6046 17.6046 19.5 16.5 19.5H8C6.89543 19.5 6 18.6046 6 17.5V12Z" fill="#1C1C1C"/>
<path d="M8 10.75V10.5927C8 9.03147 7.90607 7.29125 8.99646 6.1739C9.61829 5.5367 10.6245 5 12.25 5C13.8755 5 14.8817 5.5367 15.5035 6.1739C16.5939 7.29125 16.5 9.03147 16.5 10.5927V10.75M6 12C6 11.4477 6.44772 11 7 11H17.5C18.0523 11 18.5 11.4477 18.5 12V17.5C18.5 18.6046 17.6046 19.5 16.5 19.5H8C6.89543 19.5 6 18.6046 6 17.5V12Z" stroke="#1C1C1C" stroke-linecap="round" stroke-linejoin="round"/>
</svg>
