<svg width="24" height="24" viewBox="0 0 24 24" xmlns="http://www.w3.org/2000/svg">
<path fill-rule="evenodd" clip-rule="evenodd" d="M12.25 5.75C10.8078 5.75 10.0013 6.21804 9.53322 6.69772C9.13985 7.10081 8.93168 7.6413 8.83141 8.32559C8.74394 8.92246 8.74642 9.55603 8.74907 10.2346C8.74909 10.2397 8.74911 10.2449 8.74913 10.25H15.7509C15.7509 10.2449 15.7509 10.2398 15.7509 10.2347C15.7536 9.5561 15.7561 8.9225 15.6686 8.3256C15.5683 7.64131 15.3601 7.10082 14.9667 6.69772L14.9667 6.6977C14.4987 6.21804 13.6922 5.75 12.25 5.75ZM17.2511 10.25H17.5C18.4665 10.25 19.25 11.0335 19.25 12V17.5C19.25 19.0188 18.0188 20.25 16.5 20.25H8C6.48122 20.25 5.25 19.0188 5.25 17.5V12C5.25 11.0335 6.03352 10.25 7 10.25H7.24887C7.24564 9.58021 7.24261 8.82227 7.34726 8.1081C7.47262 7.25264 7.76268 6.36434 8.45969 5.65009L8.4597 5.65008C9.23525 4.85536 10.4412 4.25 12.25 4.25C14.0588 4.25 15.2647 4.85535 16.0403 5.65008C16.7373 6.36433 17.0274 7.25263 17.1527 8.10809C17.2574 8.82227 17.2544 9.5802 17.2511 10.25ZM7 11.75C6.86192 11.75 6.75 11.8619 6.75 12V17.5C6.75 18.1904 7.30964 18.75 8 18.75H16.5C17.1904 18.75 17.75 18.1904 17.75 17.5V12C17.75 11.8619 17.6381 11.75 17.5 11.75H7Z"/>
</svg>
