<svg width="24" height="24" viewBox="0 0 24 24" xmlns="http://www.w3.org/2000/svg">
<path d="M12.667 17.194C13.584 17.194 14.404 16.7787 14.9492 16.1259L14.0251 14.7907C13.8027 15.3213 13.2784 15.694 12.667 15.694H10.9997C10.5799 15.6942 10.1772 15.5275 9.88036 15.2306C9.58351 14.9338 9.41682 14.5305 9.417 14.1107C9.41682 13.6909 9.58351 13.2882 9.88036 12.9914C10.1772 12.6945 10.5802 12.5278 11 12.528H12.4591L11.421 11.028H11C10.1823 11.0277 9.39793 11.3525 8.8197 11.9307C8.24146 12.5089 7.91673 13.2933 7.917 14.111C7.91673 14.9287 8.24146 15.7131 8.8197 16.2913C9.39793 16.8695 10.1826 17.1943 11.0003 17.194H12.667Z"/>
<path d="M4.75 9.333C4.75 6.80188 6.80188 4.75 9.333 4.75H14.667C17.1981 4.75 19.25 6.80188 19.25 9.333V13.778C19.25 14.2863 19.048 14.7737 18.6886 15.1331C18.3291 15.4924 17.8413 15.6942 17.333 15.694C16.3974 15.694 15.639 14.9356 15.639 14V9.778C15.639 9.40181 15.5691 9.04194 15.4416 8.71067C15.0127 7.59657 13.9322 6.806 12.667 6.806H11.1998C11.0256 6.80605 10.853 6.82137 10.6838 6.85122C10.0881 6.9563 9.5341 7.24147 9.09996 7.67438L9.09924 7.6751L8.80447 7.96788C8.51059 8.25977 8.50898 8.73464 8.80087 9.02853C9.09277 9.32241 9.56764 9.32402 9.86153 9.03213L9.96709 8.92728L10.1575 8.73813L10.1588 8.7369C10.4351 8.46112 10.8098 8.30617 11.2002 8.306H11.6191H12.667C13.48 8.306 14.139 8.96504 14.139 9.778V11.028H13.369H11.421L12.4591 12.528H14.139V14.222C14.139 14.4236 14.0985 14.6157 14.0251 14.7907L14.9492 16.1259C15.5341 16.7813 16.3855 17.1939 17.333 17.194C18.2391 17.1943 19.1082 16.8345 19.749 16.1939C20.3899 15.5533 20.75 14.6842 20.75 13.778V9.333C20.75 5.97345 18.0265 3.25 14.667 3.25H9.333C5.97345 3.25 3.25 5.97345 3.25 9.333V14.667C3.25 18.0265 5.97345 20.75 9.333 20.75H16.444C16.8582 20.75 17.194 20.4142 17.194 20C17.194 19.5858 16.8582 19.25 16.444 19.25H9.333C6.80188 19.25 4.75 17.1981 4.75 14.667V9.333Z"/>
</svg>
