<svg width="24" height="24" viewBox="0 0 24 24" fill="none" xmlns="http://www.w3.org/2000/svg">
<path fill-rule="evenodd" clip-rule="evenodd" d="M4 14.625C4 17.0412 5.98985 19 8.44444 19H14.2573C13.6502 18.5439 13.2576 17.8178 13.2576 17C13.2576 15.7394 14.1906 14.6967 15.4037 14.5249C15.5756 13.3117 16.6183 12.3787 17.8789 12.3787C18.7734 12.3787 19.5582 12.8485 20 13.5548V9.375C20 6.95875 18.0102 5 15.5556 5H8.44444C5.98985 5 4 6.95875 4 9.375V14.625ZM17.0536 8.93722C17.2953 9.27355 17.2187 9.7422 16.8824 9.98397L13.9334 12.1039C12.7086 12.9844 11.0427 12.9632 9.8412 12.0512L9.8412 12.0512L7.10228 9.97241C6.77233 9.72198 6.70787 9.25151 6.95829 8.92157C7.20872 8.59162 7.67919 8.52716 8.00913 8.77758L10.7481 10.8564L10.7481 10.8564C11.4247 11.3699 12.3675 11.3822 13.0579 10.8859L16.0068 8.76602C16.3432 8.52424 16.8118 8.60089 17.0536 8.93722Z" fill="#1C1C1C"/>
<path d="M17.8789 14.8787V19.1213M15.7576 17H20.0002" stroke="#1C1C1C" stroke-width="1.5" stroke-linecap="round" stroke-linejoin="round"/>
</svg>
