<svg width="24" height="24" viewBox="0 0 24 24" xmlns="http://www.w3.org/2000/svg">
<path fill-rule="evenodd" clip-rule="evenodd" d="M8.44444 5.75C6.39288 5.75 4.75 7.38406 4.75 9.375V14.625C4.75 16.6159 6.39288 18.25 8.44444 18.25H12.5556C12.9698 18.25 13.3056 18.5858 13.3056 19C13.3056 19.4142 12.9698 19.75 12.5556 19.75H8.44444C5.58681 19.75 3.25 17.4666 3.25 14.625V9.375C3.25 6.53345 5.58681 4.25 8.44444 4.25H15.5556C18.4132 4.25 20.75 6.53345 20.75 9.375V12.625C20.75 13.0392 20.4142 13.375 20 13.375C19.5858 13.375 19.25 13.0392 19.25 12.625V9.375C19.25 7.38406 17.6071 5.75 15.5556 5.75H8.44444ZM17.0534 8.93723C17.2952 9.27356 17.2185 9.7422 16.8822 9.98398L13.9333 12.1039C12.7084 12.9844 11.0426 12.9632 9.84105 12.0512C9.84105 12.0512 9.84105 12.0512 9.84105 12.0512L7.10213 9.97241C6.77219 9.72199 6.70772 9.25151 6.95815 8.92157C7.20857 8.59163 7.67905 8.52717 8.00899 8.77759L10.7479 10.8564C11.4245 11.3699 12.3673 11.3822 13.0577 10.8859L16.0067 8.76602C16.343 8.52425 16.8116 8.6009 17.0534 8.93723ZM17.8788 14.1287C18.293 14.1287 18.6288 14.4645 18.6288 14.8787V16.25H20.0001C20.4143 16.25 20.7501 16.5858 20.7501 17C20.7501 17.4142 20.4143 17.75 20.0001 17.75H18.6288V19.1213C18.6288 19.5355 18.293 19.8713 17.8788 19.8713C17.4646 19.8713 17.1288 19.5355 17.1288 19.1213V17.75H15.7575C15.3433 17.75 15.0075 17.4142 15.0075 17C15.0075 16.5858 15.3433 16.25 15.7575 16.25H17.1288V14.8787C17.1288 14.4645 17.4646 14.1287 17.8788 14.1287Z"/>
</svg>
