<svg width="24" height="24" viewBox="0 0 24 24" xmlns="http://www.w3.org/2000/svg">
<path fill-rule="evenodd" clip-rule="evenodd" d="M8.44444 5.75C6.39288 5.75 4.75 7.38406 4.75 9.375V14.625C4.75 16.6159 6.39288 18.25 8.44444 18.25H15.5556C17.6071 18.25 19.25 16.6159 19.25 14.625V9.375C19.25 7.38406 17.6071 5.75 15.5556 5.75H8.44444ZM3.25 9.375C3.25 6.53345 5.58681 4.25 8.44444 4.25H15.5556C18.4132 4.25 20.75 6.53345 20.75 9.375V14.625C20.75 17.4666 18.4132 19.75 15.5556 19.75H8.44444C5.58681 19.75 3.25 17.4666 3.25 14.625V9.375ZM17.0534 8.93723C17.2952 9.27356 17.2185 9.7422 16.8822 9.98398L13.9333 12.1039C12.7084 12.9844 11.0426 12.9632 9.84105 12.0512L7.10213 9.97241C6.77218 9.72199 6.70772 9.25151 6.95814 8.92157C7.20857 8.59163 7.67904 8.52717 8.00899 8.77759L10.7479 10.8564C11.4245 11.3699 12.3673 11.3822 13.0577 10.8859L16.0067 8.76602C16.343 8.52425 16.8116 8.6009 17.0534 8.93723Z"/>
</svg>
