<svg width="24" height="24" viewBox="0 0 24 24" fill="none" xmlns="http://www.w3.org/2000/svg">
<path d="M14.8891 11.778H11.0001C10.3813 11.7777 9.78773 12.0234 9.35015 12.461C8.91257 12.8986 8.66686 13.4922 8.66712 14.111C8.66686 14.7298 8.91257 15.3234 9.35015 15.761C9.78773 16.1986 10.3813 16.4443 11.0001 16.444H12.6671C13.8943 16.444 14.8891 15.4492 14.8891 14.222V9.778C14.8891 8.55082 13.8943 7.556 12.6671 7.556H11.2001C10.6111 7.55617 10.0461 7.78992 9.62912 8.206L9.33312 8.5M16.4441 20H9.33312C6.38779 20 4.00012 17.6123 4.00012 14.667V9.333C4.00012 6.38767 6.38779 4 9.33312 4H14.6671C17.6125 4 20.0001 6.38767 20.0001 9.333V13.778C20.0001 14.4852 19.7191 15.1635 19.2189 15.6635C18.7187 16.1635 18.0404 16.4443 17.3331 16.444C15.9833 16.444 14.8891 15.3498 14.8891 14V11.556" stroke="#1C1C1C" stroke-width="1.5" stroke-linecap="round" stroke-linejoin="round"/>
</svg>
