<svg width="24" height="24" viewBox="0 0 24 24" xmlns="http://www.w3.org/2000/svg">
<path fill-rule="evenodd" clip-rule="evenodd" d="M8.44444 19C5.98985 19 4 17.0412 4 14.625V9.375C4 6.95875 5.98985 5 8.44444 5H15.5556C18.0102 5 20 6.95875 20 9.375V14.625C20 17.0412 18.0102 19 15.5556 19H8.44444ZM16.8824 9.98397C17.2187 9.7422 17.2953 9.27355 17.0536 8.93722C16.8118 8.60089 16.3432 8.52424 16.0068 8.76602L13.0579 10.8859C12.3675 11.3822 11.4247 11.3699 10.7481 10.8564L10.7481 10.8564L8.00913 8.77758C7.67919 8.52716 7.20872 8.59162 6.95829 8.92157C6.70787 9.25151 6.77233 9.72198 7.10228 9.97241L9.8412 12.0512L9.8412 12.0512C11.0427 12.9632 12.7086 12.9844 13.9334 12.1039L16.8824 9.98397Z"/>
</svg>
