<svg width="24" height="24" viewBox="0 0 24 24" fill="none" xmlns="http://www.w3.org/2000/svg">
<path fill-rule="evenodd" clip-rule="evenodd" d="M16.9497 6.02291C19.6834 8.72013 19.6834 13.0932 16.9497 15.7904L13.1664 19.5233C12.5222 20.1589 11.4778 20.1589 10.8336 19.5233L7.05025 15.7904C4.31658 13.0932 4.31658 8.72013 7.05025 6.02291C9.78392 3.3257 14.2161 3.3257 16.9497 6.02291Z" stroke="#AEAFB0" stroke-width="1.5" stroke-linecap="round" stroke-linejoin="round"/>
<path fill-rule="evenodd" clip-rule="evenodd" d="M16.9497 6.02291C19.6834 8.72013 19.6834 13.0932 16.9497 15.7904L13.1664 19.5233C12.5222 20.1589 11.4778 20.1589 10.8336 19.5233L7.05025 15.7904C4.31658 13.0932 4.31658 8.72013 7.05025 6.02291C9.78392 3.3257 14.2161 3.3257 16.9497 6.02291Z" stroke="#AEAFB0" stroke-width="1.5" stroke-linecap="round" stroke-linejoin="round"/>
<path d="M14.402 10.9068C14.402 12.2156 13.3267 13.2766 12.0002 13.2766C10.6738 13.2766 9.59843 12.2156 9.59843 10.9068C9.59843 9.59803 10.6738 8.53704 12.0002 8.53704C13.3267 8.53704 14.402 9.59803 14.402 10.9068Z" stroke="#AEAFB0" stroke-width="1.5" stroke-linecap="round" stroke-linejoin="round"/>
</svg>
