<svg width="24" height="24" viewBox="0 0 24 24" xmlns="http://www.w3.org/2000/svg">
<path fill-rule="evenodd" clip-rule="evenodd" d="M19.9087 4.37113C20.1216 4.50948 20.25 4.74612 20.25 5V17.5C20.25 17.7964 20.0754 18.065 19.8046 18.1854L15.3046 20.1854C15.1272 20.2642 14.9261 20.2712 14.7437 20.2048L9.52808 18.3083L5.3046 20.1854C5.0726 20.2885 4.80419 20.2672 4.59131 20.1289C4.37844 19.9905 4.25 19.7539 4.25 19.5V7C4.25 6.70361 4.42455 6.43502 4.6954 6.31464L9.1954 4.31464C9.3728 4.2358 9.57386 4.22881 9.75631 4.29516L14.9719 6.19174L19.1954 4.31464C19.4274 4.21153 19.6958 4.23279 19.9087 4.37113ZM14.25 7.52532L10.25 6.07078V16.9747L14.25 18.4292V7.52532ZM15.75 18.3459L18.75 17.0126V6.15407L15.75 7.48741V18.3459ZM8.75 17.0126V6.15407L5.75 7.48741V18.3459L8.75 17.0126Z"/>
</svg>
