<svg width="48" height="48" viewBox="0 0 48 48" fill="none" xmlns="http://www.w3.org/2000/svg">
<path fill-rule="evenodd" clip-rule="evenodd" d="M16.6323 0H31.3677C44.8158 0 48 3.18419 48 16.6323V31.3677C48 44.8158 44.8158 48 31.3677 48H16.6323C3.18419 48 0 44.8158 0 31.3677V16.6323C0 3.18419 3.18419 0 16.6323 0Z" fill="#2DA4D7"/>
<path d="M20.7792 33.6673C20.0046 33.6673 20.1362 33.3722 19.8691 32.6282L17.5912 25.0655L35.1248 14.5718" fill="#C8DAEA"/>
<path d="M20.7792 33.6673C21.3769 33.6673 21.641 33.3915 21.9746 33.0643L25.1626 29.937L21.186 27.5179" fill="#A9C9DD"/>
<path d="M21.1856 27.5186L30.8211 34.7003C31.9206 35.3124 32.7142 34.9955 32.9881 33.6705L36.9102 15.0246C37.3118 13.4004 36.2966 12.6638 35.2446 13.1455L12.2139 22.1045C10.6419 22.7407 10.6511 23.6255 11.9274 24.0197L17.8376 25.8807L31.5204 17.1722C32.1663 16.777 32.7591 16.9894 32.2725 17.4251" fill="url(#paint0_linear_298_14672)"/>
<defs>
<linearGradient id="paint0_linear_298_14672" x1="22.1695" y1="24.0937" x2="24.7656" y2="32.4175" gradientUnits="userSpaceOnUse">
<stop stop-color="#EFF7FC"/>
<stop offset="1" stop-color="white"/>
</linearGradient>
</defs>
</svg>
