<svg width="48" height="48" viewBox="0 0 48 48" fill="none" xmlns="http://www.w3.org/2000/svg">
<path fill-rule="evenodd" clip-rule="evenodd" d="M16.6323 0H31.3677C44.8158 0 48 3.18419 48 16.6323V31.3677C48 44.8158 44.8158 48 31.3677 48H16.6323C3.18419 48 0 44.8158 0 31.3677V16.6323C0 3.18419 3.18419 0 16.6323 0Z" fill="#E11B7E"/>
<path fill-rule="evenodd" clip-rule="evenodd" d="M16.6323 0H31.3677C44.8158 0 48 3.18419 48 16.6323V31.3677C48 44.8158 44.8158 48 31.3677 48H16.6323C3.18419 48 0 44.8158 0 31.3677V16.6323C0 3.18419 3.18419 0 16.6323 0Z" fill="url(#paint0_linear_298_14660)"/>
<path fill-rule="evenodd" clip-rule="evenodd" d="M16.6323 0H31.3677C44.8158 0 48 3.18419 48 16.6323V31.3677C48 44.8158 44.8158 48 31.3677 48H16.6323C3.18419 48 0 44.8158 0 31.3677V16.6323C0 3.18419 3.18419 0 16.6323 0Z" fill="url(#paint1_radial_298_14660)"/>
<path fill-rule="evenodd" clip-rule="evenodd" d="M16.6323 0H31.3677C44.8158 0 48 3.18419 48 16.6323V31.3677C48 44.8158 44.8158 48 31.3677 48H16.6323C3.18419 48 0 44.8158 0 31.3677V16.6323C0 3.18419 3.18419 0 16.6323 0Z" fill="url(#paint2_radial_298_14660)"/>
<path fill-rule="evenodd" clip-rule="evenodd" d="M24.0011 11C20.4705 11 20.0274 11.0154 18.6408 11.0785C17.2568 11.1419 16.3122 11.3611 15.4856 11.6825C14.6305 12.0145 13.9053 12.4587 13.1827 13.1815C12.4595 13.9041 12.0154 14.6294 11.6823 15.4841C11.3599 16.311 11.1406 17.256 11.0783 18.6393C11.0162 20.0261 11 20.4694 11 23.9999C11 27.5305 11.0157 27.9723 11.0785 29.3589C11.1422 30.7429 11.3613 31.6875 11.6825 32.5141C12.0148 33.3692 12.459 34.0944 13.1818 34.817C13.9041 35.5402 14.6294 35.9854 15.4839 36.3174C16.311 36.639 17.256 36.858 18.6396 36.9214C20.0264 36.9846 20.4692 37 23.9994 37C27.5303 37 27.972 36.9846 29.3587 36.9214C30.7426 36.858 31.6884 36.639 32.5156 36.3174C33.3703 35.9854 34.0944 35.5402 34.8168 34.817C35.54 34.0944 35.9841 33.3692 36.3172 32.5144C36.6368 31.6875 36.8562 30.7426 36.9212 29.3592C36.9834 27.9725 36.9997 27.5305 36.9997 23.9999C36.9997 20.4694 36.9834 20.0263 36.9212 18.6396C36.8562 17.2557 36.6368 16.311 36.3172 15.4844C35.9841 14.6294 35.54 13.9041 34.8168 13.1815C34.0936 12.4584 33.3705 12.0143 32.5147 11.6825C31.686 11.3611 30.7408 11.1419 29.3568 11.0785C27.9702 11.0154 27.5287 11 23.997 11H24.0011ZM23.5675 13.3425L24.0011 13.3427C27.472 13.3427 27.8834 13.3551 29.2541 13.4175C30.5216 13.4754 31.2096 13.6872 31.6678 13.8651C32.2745 14.1008 32.707 14.3824 33.1617 14.8374C33.6167 15.2924 33.8984 15.7257 34.1345 16.3324C34.3125 16.7901 34.5245 17.478 34.5822 18.7455C34.6446 20.1159 34.6581 20.5276 34.6581 23.997C34.6581 27.4663 34.6446 27.878 34.5822 29.2484C34.5242 30.5159 34.3125 31.2038 34.1345 31.6615C33.8989 32.2683 33.6167 32.7002 33.1617 33.1549C32.7067 33.6099 32.2748 33.8916 31.6678 34.1272C31.2101 34.306 30.5216 34.5172 29.2541 34.5751C27.8838 34.6375 27.472 34.651 24.0011 34.651C20.5298 34.651 20.1184 34.6375 18.748 34.5751C17.4805 34.5166 16.7926 34.3049 16.3341 34.1269C15.7274 33.8913 15.2941 33.6097 14.839 33.1547C14.384 32.6997 14.1024 32.2674 13.8663 31.6604C13.6883 31.2028 13.4763 30.5148 13.4186 29.2473C13.3562 27.877 13.3438 27.4652 13.3438 23.9938C13.3438 20.5222 13.3562 20.1127 13.4186 18.7422C13.4765 17.4747 13.6883 16.7869 13.8663 16.3286C14.1019 15.7219 14.384 15.2886 14.839 14.8336C15.2941 14.3786 15.7274 14.0969 16.3341 13.8608C16.7923 13.682 17.4805 13.4708 18.748 13.4126C19.9472 13.3584 20.412 13.3421 22.8348 13.3395V13.3427C23.0612 13.3423 23.3048 13.3424 23.5675 13.3425ZM29.3804 17.0607C29.3804 16.1991 30.0791 15.5012 30.9403 15.5012C31.8016 15.5012 32.5003 16.1994 32.5003 17.0607C32.5003 17.9219 31.8016 18.6207 30.9403 18.6207C30.0791 18.6207 29.3804 17.9219 29.3804 17.0607Z" fill="white"/>
<path fill-rule="evenodd" clip-rule="evenodd" d="M17.0937 23.7697C17.0937 20.0828 20.0828 17.0937 23.7697 17.0937C27.4566 17.0937 30.4446 20.0828 30.4446 23.7697C30.4446 27.4565 27.4566 30.4443 23.7697 30.4443C20.0828 30.4443 17.0937 27.4565 17.0937 23.7697ZM28.103 23.7697C28.103 21.3763 26.1628 19.4364 23.7697 19.4364C21.3764 19.4364 19.4364 21.3763 19.4364 23.7697C19.4364 26.1628 21.3764 28.103 23.7697 28.103C26.1628 28.103 28.103 26.1628 28.103 23.7697Z" fill="white"/>
<defs>
<linearGradient id="paint0_linear_298_14660" x1="5.27344" y1="8.66695e-08" x2="21.0469" y2="43.0078" gradientUnits="userSpaceOnUse">
<stop offset="0.04" stop-color="#4263DF"/>
<stop offset="1" stop-color="#D53585" stop-opacity="0"/>
</linearGradient>
<radialGradient id="paint1_radial_298_14660" cx="0" cy="0" r="1" gradientUnits="userSpaceOnUse" gradientTransform="translate(10.5703 48) rotate(-36.1187) scale(44.3335)">
<stop offset="0.13" stop-color="#FFAD05"/>
<stop offset="1" stop-color="#FF3F00" stop-opacity="0"/>
</radialGradient>
<radialGradient id="paint2_radial_298_14660" cx="0" cy="0" r="1" gradientUnits="userSpaceOnUse" gradientTransform="translate(13.7109 48) rotate(-40.6013) scale(30.0355)">
<stop offset="0.01" stop-color="#FDDB86"/>
<stop offset="1" stop-color="#F06942" stop-opacity="0"/>
</radialGradient>
</defs>
</svg>
