<svg width="48" height="48" viewBox="0 0 48 48" fill="none" xmlns="http://www.w3.org/2000/svg">
<path fill-rule="evenodd" clip-rule="evenodd" d="M16.6323 0H31.3677C44.8158 0 48 3.18419 48 16.6323V31.3677C48 44.8158 44.8158 48 31.3677 48H16.6323C3.18419 48 0 44.8158 0 31.3677V16.6323C0 3.18419 3.18419 0 16.6323 0Z" fill="#25D366"/>
<path fill-rule="evenodd" clip-rule="evenodd" d="M23.9913 37.7594H23.9856C21.6635 37.7586 19.3817 37.1759 17.3552 36.0705L10 38L11.9684 30.8102C10.7542 28.706 10.1153 26.3192 10.1164 23.8738C10.1194 16.2239 16.3436 10 23.9912 10C27.7029 10.0016 31.1865 11.4466 33.806 14.0691C36.4256 16.6916 37.8675 20.1775 37.866 23.8848C37.8629 31.5331 31.6412 37.7563 23.9913 37.7594ZM17.696 33.5588L18.1171 33.8087C19.8877 34.8594 21.9173 35.4153 23.9867 35.4161H23.9913C30.3475 35.4161 35.5207 30.2427 35.5234 23.884C35.5245 20.8026 34.3262 17.9052 32.1489 15.7254C29.9716 13.5456 27.0761 12.3445 23.9959 12.3435C17.6349 12.3435 12.4615 17.5164 12.4589 23.8747C12.4581 26.0537 13.0677 28.1758 14.2222 30.0118L14.4963 30.4482L13.3313 34.7037L17.696 33.5588ZM30.5065 26.8719C30.7483 26.9888 30.9116 27.0678 30.9813 27.1841C31.068 27.3287 31.068 28.0229 30.7792 28.8327C30.4902 29.6426 29.1052 30.3817 28.4391 30.4811C27.8418 30.5705 27.086 30.6077 26.2556 30.3438C25.7519 30.184 25.1063 29.9707 24.2791 29.6135C21.0291 28.2101 18.8326 25.0601 18.4176 24.4647C18.3885 24.423 18.3681 24.3939 18.3568 24.3787L18.354 24.375C18.1706 24.1302 16.9412 22.49 16.9412 20.7925C16.9412 19.1955 17.7257 18.3585 18.0867 17.9732C18.1114 17.9469 18.1342 17.9225 18.1546 17.9003C18.4723 17.5532 18.848 17.4664 19.0791 17.4664C19.3102 17.4664 19.5415 17.4685 19.7435 17.4787C19.7684 17.48 19.7944 17.4798 19.8212 17.4796C20.0232 17.4784 20.275 17.477 20.5235 18.0738C20.6191 18.3035 20.759 18.644 20.9065 19.0032C21.2049 19.7294 21.5344 20.5319 21.5924 20.648C21.6791 20.8215 21.7369 21.0239 21.6214 21.2553C21.604 21.29 21.5879 21.3228 21.5726 21.3541C21.4858 21.5313 21.422 21.6616 21.2747 21.8337C21.2167 21.9013 21.1568 21.9742 21.0969 22.0471C20.9777 22.1924 20.8585 22.3376 20.7546 22.441C20.5811 22.6139 20.4003 22.8014 20.6026 23.1485C20.8049 23.4956 21.5006 24.6309 22.5313 25.5502C23.6391 26.5384 24.602 26.956 25.0901 27.1677C25.1853 27.2091 25.2625 27.2426 25.3192 27.2709C25.6657 27.4445 25.868 27.4154 26.0702 27.1841C26.2725 26.9527 26.9369 26.1718 27.168 25.8248C27.3991 25.4779 27.6303 25.5356 27.948 25.6512C28.2658 25.7671 29.9702 26.6057 30.3169 26.7792C30.3846 26.813 30.4479 26.8437 30.5065 26.8719Z" fill="#FDFDFD"/>
</svg>
