<svg width="48" height="48" viewBox="0 0 48 48" fill="none" xmlns="http://www.w3.org/2000/svg">
<path fill-rule="evenodd" clip-rule="evenodd" d="M16.6323 0H31.3677C44.8158 0 48 3.18419 48 16.6323V31.3677C48 44.8158 44.8158 48 31.3677 48H16.6323C3.18419 48 0 44.8158 0 31.3677V16.6323C0 3.18419 3.18419 0 16.6323 0Z" fill="#7F4DA0"/>
<path d="M29.5162 21.5054C29.4272 20.7965 29.2051 20.2398 28.8107 19.7467C28.2985 19.1117 27.6439 18.7315 26.6748 18.506C26.0433 18.3556 25.7881 18.3729 25.5597 18.5776C25.3469 18.7694 25.3054 19.1538 25.468 19.4028C25.5823 19.5835 25.7142 19.6482 26.0811 19.7188C26.5696 19.8071 26.9073 19.9215 27.2144 20.0938C27.8663 20.4631 28.1699 21.0409 28.2024 21.9765C28.2176 22.4157 28.2563 22.5508 28.4126 22.7066C28.7025 22.9913 29.2184 22.936 29.4372 22.5952C29.5175 22.4667 29.5297 22.4108 29.5382 22.1126C29.5438 21.9279 29.5357 21.653 29.5162 21.5054Z" fill="white"/>
<path d="M32.0695 22.3048C31.9407 20.1327 31.0748 18.3851 29.5249 17.1556C28.6517 16.4646 27.5961 15.9896 26.4391 15.7586C26.0153 15.6759 25.235 15.609 25.1012 15.6472C24.9748 15.6827 24.7961 15.8169 24.7165 15.9383C24.6323 16.0699 24.6133 16.3637 24.6852 16.5336C24.8011 16.8177 25.0168 16.9181 25.6209 16.97C26.5522 17.0499 27.5128 17.3709 28.2386 17.8461C29.0672 18.3872 29.7259 19.1273 30.152 19.9969C30.5201 20.7441 30.7466 21.8209 30.7403 22.7852C30.7382 23.1339 30.7931 23.3309 30.9361 23.4749C31.1519 23.6963 31.4664 23.7447 31.744 23.5977C32.0516 23.4389 32.1237 23.1603 32.0695 22.3048Z" fill="white"/>
<path d="M34.8949 30.6698C34.8516 30.5456 34.7505 30.3541 34.6784 30.2442C34.2235 29.5703 31.7798 27.6942 30.5598 27.0806C29.8631 26.7295 29.3469 26.6125 28.9643 26.7223C28.5528 26.8359 28.3362 27.0238 27.6468 27.8644C27.3689 28.2014 27.0837 28.517 27.0079 28.5666C26.8202 28.6943 26.452 28.7972 26.1921 28.7972C25.5893 28.7936 24.4956 28.4106 23.6546 27.9069C23.0013 27.5168 22.1638 26.8182 21.5213 26.1266C20.7633 25.3144 20.2471 24.598 19.8392 23.7893C19.3122 22.7502 19.1786 22.1153 19.3988 21.6507C19.453 21.5337 19.5252 21.4096 19.5576 21.3706C19.5901 21.3351 19.9295 21.062 20.3048 20.7641C21.0412 20.1895 21.1604 20.0583 21.2975 19.6646C21.4707 19.1645 21.4239 18.6538 21.1567 18.1396C20.9509 17.7494 20.4132 16.8983 20.0233 16.3486C19.5072 15.6251 18.2221 14.0788 17.9658 13.8694C17.5038 13.5006 16.9118 13.4368 16.2584 13.6851C15.5691 13.9475 14.2768 14.969 13.7245 15.6818C13.2264 16.3273 13.0351 16.7848 13.0062 17.3877C12.981 17.8842 13.0243 18.0899 13.2914 18.7248C15.3813 23.7042 18.5 27.68 22.7847 30.8365C25.0226 32.4856 27.3436 33.7412 29.7512 34.5995C31.1553 35.0995 31.7653 35.1243 32.4836 34.713C32.7869 34.5356 33.5376 33.7802 33.9564 33.2305C34.6494 32.3154 34.9057 31.8934 34.9779 31.5565C35.0284 31.3259 34.9887 30.9252 34.8949 30.6698Z" fill="white"/>
<path d="M34.6687 22.8036C34.6225 21.575 34.4116 20.5672 33.9719 19.4435C33.5379 18.3383 33.0985 17.617 32.2688 16.6415C31.4844 15.7269 30.8751 15.2046 29.9088 14.6233C28.5607 13.8133 26.9199 13.2773 25.0813 13.0519C24.4542 12.9731 24.3124 12.9787 24.12 13.1047C23.7472 13.3432 23.7522 13.9382 24.1261 14.1732C24.2499 14.2479 24.3598 14.2752 24.8613 14.3396C25.6313 14.4413 26.1264 14.5371 26.7139 14.6944C29.0176 15.3122 30.7891 16.5751 31.9735 18.4497C32.9646 20.0122 33.3761 21.5749 33.3177 23.5706C33.2973 24.2453 33.3121 24.364 33.4172 24.5262C33.6186 24.8283 34.1495 24.8881 34.4218 24.6373C34.5913 24.4845 34.6232 24.3698 34.6566 23.7924C34.6726 23.4911 34.6761 23.0464 34.6687 22.8036Z" fill="white"/>
</svg>
