<svg width="48" height="48" viewBox="0 0 48 48" fill="none" xmlns="http://www.w3.org/2000/svg">
<path fill-rule="evenodd" clip-rule="evenodd" d="M16.6323 0H31.3677C44.8158 0 48 3.18419 48 16.6323V31.3677C48 44.8158 44.8158 48 31.3677 48H16.6323C3.18419 48 0 44.8158 0 31.3677V16.6323C0 3.18419 3.18419 0 16.6323 0Z" fill="#4680C2"/>
<path fill-rule="evenodd" clip-rule="evenodd" d="M39.247 16.3185C39.4842 15.5747 39.247 15.0338 38.1964 15.0338H34.7057C33.8245 15.0338 33.4178 15.5071 33.1806 16.0142C33.1806 16.0142 31.3844 20.3416 28.8765 23.1477C28.0631 23.9591 27.6903 24.2295 27.2498 24.2295C27.0125 24.2295 26.7075 23.9591 26.7075 23.2153V16.2847C26.7075 15.4057 26.4364 15 25.6908 15H20.2006C19.6583 15 19.3194 15.4057 19.3194 15.8114C19.3194 16.6566 20.5733 16.8594 20.7089 19.226V24.3648C20.7089 25.4804 20.5056 25.6833 20.065 25.6833C18.8788 25.6833 15.9981 21.3221 14.2697 16.3523C13.9308 15.3719 13.5919 15 12.7108 15H9.18617C8.16945 15 8 15.4733 8 15.9804C8 16.8932 9.18617 21.4911 13.5241 27.5765C16.4048 31.7349 20.5056 33.9662 24.1996 33.9662C26.4364 33.9662 26.7075 33.4591 26.7075 32.6139V29.4698C26.7075 28.4555 26.9109 28.2865 27.6226 28.2865C28.1309 28.2865 29.046 28.5569 31.1133 30.5516C33.4856 32.9182 33.8923 34 35.214 34H38.7047C39.7214 34 40.1959 33.4929 39.9248 32.5125C39.6198 31.532 38.4675 30.1121 36.9763 28.4217C36.1629 27.4751 34.9429 26.427 34.5701 25.9199C34.0617 25.2438 34.1973 24.9733 34.5701 24.3648C34.5362 24.3648 38.8064 18.347 39.247 16.3185Z" fill="white"/>
</svg>
