<svg width="48" height="48" viewBox="0 0 48 48" fill="none" xmlns="http://www.w3.org/2000/svg">
<path fill-rule="evenodd" clip-rule="evenodd" d="M16.6323 0H31.3677C44.8158 0 48 3.18419 48 16.6323V31.3677C48 44.8158 44.8158 48 31.3677 48H16.6323C3.18419 48 0 44.8158 0 31.3677V16.6323C0 3.18419 3.18419 0 16.6323 0Z" fill="#1A53C6"/>
<path fill-rule="evenodd" clip-rule="evenodd" d="M36 16.5855C36 14.6054 34.3947 13 32.4145 13H15.6154C13.6352 13 12.0299 14.6054 12.0299 16.5855V27.3422V27.354L12 27.3422V32.8288C12 33.8928 13.2857 34.4264 14.0391 33.6751L16.794 30.9279H32.4145C34.3947 30.9279 36 29.3226 36 27.3422V16.5855ZM30.6723 20.3719C31.2231 20.738 31.3718 21.4801 31.0047 22.0293C29.1954 24.7358 26.8366 26.147 24.015 26.147C21.1933 26.147 18.8344 24.7358 17.0252 22.0293C16.6579 21.4801 16.8068 20.738 17.3575 20.3719C17.9083 20.0058 18.6524 20.1542 19.0196 20.7033C20.4063 22.7777 22.0426 23.7567 24.015 23.7567C25.9873 23.7567 27.6235 22.7777 29.0103 20.7033C29.3774 20.1542 30.1216 20.0058 30.6723 20.3719Z" fill="white"/>
</svg>
