<svg width="48" height="48" viewBox="0 0 48 48" fill="none" xmlns="http://www.w3.org/2000/svg">
<path fill-rule="evenodd" clip-rule="evenodd" d="M16.6323 0H31.3677C44.8158 0 48 3.18419 48 16.6323V31.3677C48 44.8158 44.8158 48 31.3677 48H16.6323C3.18419 48 0 44.8158 0 31.3677V16.6323C0 3.18419 3.18419 0 16.6323 0Z" fill="#FD5D4F"/>
<path fill-rule="evenodd" clip-rule="evenodd" d="M25.7097 23.4902H27.284V11H25.7097V23.4902ZM15.8525 14.6364V16.3677H17.0899V17.5526H15.8525V21.5285C15.8525 21.8006 15.9043 21.9981 16.008 22.121C16.116 22.2395 16.306 22.2987 16.5781 22.2987C16.7595 22.2987 16.9431 22.2768 17.1288 22.2329V23.4704C16.7703 23.5714 16.4248 23.6218 16.0922 23.6218C14.8829 23.6218 14.2782 22.9438 14.2782 21.5878V17.5526H13.125V16.3677H14.2782V14.6364H15.8525ZM22.553 23.4902C22.4839 23.3541 22.4234 23.1325 22.3716 22.8253C21.8706 23.3563 21.2573 23.6218 20.5317 23.6218C19.8276 23.6218 19.2532 23.4178 18.8083 23.0096C18.3635 22.6015 18.141 22.0968 18.141 21.4956C18.141 20.7364 18.4175 20.1549 18.9703 19.7512C19.5275 19.3431 20.3222 19.139 21.3545 19.139H22.3198V18.6716C22.3198 18.303 22.2183 18.009 22.0153 17.7895C21.8123 17.5657 21.5035 17.4538 21.0888 17.4538C20.7303 17.4538 20.4366 17.546 20.2077 17.7303C19.9788 17.9102 19.8644 18.1406 19.8644 18.4215H18.29C18.29 18.0309 18.4175 17.6667 18.6723 17.3287C18.9271 16.9864 19.2726 16.7187 19.7089 16.5257C20.1494 16.3326 20.6396 16.236 21.1795 16.236C22.0002 16.236 22.6545 16.4467 23.1426 16.868C23.6306 17.2849 23.8811 17.8729 23.8941 18.6321V21.8445C23.8941 22.4852 23.9826 22.9965 24.1597 23.3783V23.4902H22.553ZM20.8232 22.3382C21.1342 22.3382 21.4257 22.2614 21.6978 22.1078C21.9742 21.9542 22.1816 21.7479 22.3198 21.489V20.1462H21.4711C20.888 20.1462 20.4496 20.2493 20.1559 20.4555C19.8622 20.6618 19.7154 20.9536 19.7154 21.331C19.7154 21.6382 19.8147 21.884 20.0134 22.0683C20.2164 22.2482 20.4863 22.3382 20.8232 22.3382ZM31.3477 20.4358L30.648 21.1665V23.4902H29.0736V11H30.648V19.2114L31.1403 18.586L33.0775 16.3677H34.9692L32.3648 19.3365L35.2478 23.4902H33.4273L31.3477 20.4358ZM15.7504 25.4578L15.7957 26.1899C16.2881 25.6155 16.9619 25.3282 17.8171 25.3282C18.7543 25.3282 19.3957 25.6867 19.7412 26.4037C20.2509 25.6867 20.9679 25.3282 21.8921 25.3282C22.6653 25.3282 23.2397 25.542 23.6155 25.9696C23.9956 26.3972 24.1899 27.0278 24.1985 27.8614V32.4677H22.6242V27.9067C22.6242 27.4619 22.5271 27.1358 22.3327 26.9285C22.1383 26.7212 21.8166 26.6175 21.3674 26.6175C21.0089 26.6175 20.7152 26.7147 20.4863 26.909C20.2617 27.0991 20.104 27.3496 20.0133 27.6606L20.0198 32.4677H18.4455V27.8549C18.4239 27.03 18.0028 26.6175 17.1822 26.6175C16.5516 26.6175 16.1045 26.8745 15.8411 27.3885V32.4677H14.2668V25.4578H15.7504ZM28.9684 32.5973C27.9707 32.5973 27.1609 32.2842 26.5389 31.6579C25.9213 31.0273 25.6124 30.1894 25.6124 29.1442V28.9498C25.6124 28.2501 25.7463 27.626 26.0141 27.0775C26.2862 26.5246 26.6663 26.0949 27.1544 25.7882C27.6424 25.4816 28.1866 25.3282 28.787 25.3282C29.7415 25.3282 30.4779 25.6327 30.9962 26.2417C31.5188 26.8507 31.7801 27.7124 31.7801 28.8267V29.4616H27.1997C27.2472 30.0404 27.4394 30.4982 27.7763 30.8351C28.1175 31.172 28.5451 31.3404 29.0591 31.3404C29.7804 31.3404 30.3678 31.0489 30.8213 30.4658L31.67 31.2756C31.3893 31.6946 31.0135 32.0207 30.5427 32.2539C30.0762 32.4828 29.5515 32.5973 28.9684 32.5973ZM28.7805 26.5916C28.3486 26.5916 27.9988 26.7427 27.731 27.0451C27.4675 27.3474 27.2991 27.7685 27.2256 28.3084H30.2253V28.1918C30.1907 27.6649 30.0503 27.2675 29.8041 26.9997C29.558 26.7276 29.2167 26.5916 28.7805 26.5916ZM13.8537 11.0044H24.3903V12.5653H13.8537C11.4829 12.5653 9.56098 14.4872 9.56098 16.858V26.6141H8V16.858C8 13.6251 10.6208 11.0044 13.8537 11.0044ZM8.05158 31.297C8.43315 34.1609 10.8854 36.3702 13.8537 36.3702H40V16.858C40 13.6251 37.3792 11.0044 34.1463 11.0044H31.4146V12.5653H34.1463C36.5171 12.5653 38.439 14.4872 38.439 16.858V34.8092H13.8537C11.7494 34.8092 9.99878 33.2952 9.63175 31.297H8.05158ZM8 28.1751H12.6829V29.7361H8V28.1751Z" fill="white"/>
</svg>
