<svg width="48" height="48" viewBox="0 0 48 48" fill="none" xmlns="http://www.w3.org/2000/svg">
<path fill-rule="evenodd" clip-rule="evenodd" d="M16.6323 0H31.3677C44.8158 0 48 3.18419 48 16.6323V31.3677C48 44.8158 44.8158 48 31.3677 48H16.6323C3.18419 48 0 44.8158 0 31.3677V16.6323C0 3.18419 3.18419 0 16.6323 0Z" fill="black"/>
<path fill-rule="evenodd" clip-rule="evenodd" d="M22.3453 21.6313V20.5782C21.9777 20.5265 21.6069 20.4996 21.2356 20.4978C16.6945 20.4978 13 24.1711 13 28.6853C13 31.4544 14.3922 33.9057 16.516 35.388C15.0939 33.8762 14.3034 31.8835 14.3045 29.8138C14.3045 25.3639 17.8938 21.7352 22.3453 21.6313Z" fill="#00F2EA"/>
<path fill-rule="evenodd" clip-rule="evenodd" d="M22.5394 33.5526C24.5655 33.5526 26.2183 31.9504 26.2936 29.9536L26.3004 12.1286H29.5762C29.5063 11.7564 29.4709 11.3786 29.4705 11H24.9966L24.9891 28.8257C24.9145 30.8218 23.261 32.4234 21.2356 32.4234C20.6275 32.4237 20.0285 32.2764 19.4907 31.9943C19.8379 32.4759 20.2956 32.8685 20.8257 33.1394C21.3559 33.4104 21.9433 33.552 22.5394 33.5526ZM35.6955 18.1789V17.1882C34.4916 17.1893 33.3136 16.8412 32.3059 16.1864C33.1894 17.1977 34.379 17.8968 35.6961 18.1789" fill="#00F2EA"/>
<path fill-rule="evenodd" clip-rule="evenodd" d="M32.3058 16.1858C31.3183 15.0625 30.7743 13.6211 30.7749 12.1292H29.5762C29.7314 12.9538 30.0534 13.7385 30.5226 14.4358C30.9918 15.1331 31.5984 15.7284 32.3058 16.1858ZM21.2355 24.9459C20.2384 24.947 19.2824 25.3413 18.5774 26.0422C17.8723 26.7431 17.4757 27.6934 17.4745 28.6847C17.4752 29.3665 17.6633 30.0353 18.0185 30.6186C18.3737 31.2019 18.8826 31.6776 19.49 31.9943C19.0275 31.3602 18.7784 30.5971 18.7784 29.8138C18.7794 28.8225 19.1759 27.872 19.881 27.171C20.5861 26.47 21.5422 26.0756 22.5394 26.0745C22.9269 26.0745 23.2983 26.1382 23.6492 26.2476V21.7068C23.2815 21.655 22.9107 21.6282 22.5394 21.6264C22.4741 21.6264 22.41 21.6301 22.3453 21.6313V25.1191C21.9864 25.0055 21.6122 24.9471 21.2355 24.9459Z" fill="#FF004F"/>
<path fill-rule="evenodd" clip-rule="evenodd" d="M35.6955 18.1788V21.6356C33.3752 21.6356 31.226 20.8979 29.4705 19.6457V28.6846C29.4705 33.1988 25.7767 36.8714 21.2356 36.8714C19.4807 36.8714 17.8534 36.3211 16.516 35.3873C17.2849 36.2116 18.2168 36.8692 19.2533 37.3188C20.2898 37.7684 21.4086 38.0003 22.5394 38C27.0805 38 30.775 34.3274 30.775 29.8138V20.7748C32.5885 22.0712 34.7663 22.7674 37 22.7648V18.3161C36.5521 18.3161 36.1167 18.2679 35.6955 18.1782" fill="#FF004F"/>
<path fill-rule="evenodd" clip-rule="evenodd" d="M29.4705 28.6847V19.6457C31.2839 20.9422 33.4618 21.6384 35.6955 21.6357V18.1789C34.3785 17.8965 33.1891 17.1972 32.3059 16.1858C31.5985 15.7284 30.9918 15.1331 30.5226 14.4358C30.0534 13.7385 29.7315 12.9538 29.5763 12.1292H26.3005L26.2936 29.9542C26.2183 31.9504 24.5655 33.5526 22.5394 33.5526C21.9433 33.552 21.3559 33.4104 20.8258 33.1394C20.2956 32.8684 19.838 32.4759 19.4907 31.9943C18.8831 31.6777 18.3742 31.202 18.0188 30.6187C17.6635 30.0354 17.4753 29.3666 17.4746 28.6847C17.4757 27.6934 17.8723 26.7431 18.5774 26.0422C19.2825 25.3413 20.2384 24.9471 21.2356 24.9459C21.6225 24.9459 21.9939 25.009 22.3453 25.1191V21.6313C17.8938 21.7352 14.3045 25.3639 14.3045 29.8138C14.3045 31.9658 15.1455 33.9249 16.516 35.388C17.8975 36.3548 19.5461 36.873 21.2356 36.8715C25.7767 36.8715 29.4705 33.1989 29.4705 28.6847Z" fill="white"/>
</svg>
