<svg width="48" height="48" viewBox="0 0 48 48" fill="none" xmlns="http://www.w3.org/2000/svg">
<path fill-rule="evenodd" clip-rule="evenodd" d="M16.6323 0H31.3677C44.8158 0 48 3.18419 48 16.6323V31.3677C48 44.8158 44.8158 48 31.3677 48H16.6323C3.18419 48 0 44.8158 0 31.3677V16.6323C0 3.18419 3.18419 0 16.6323 0Z" fill="#3B5998"/>
<path d="M26.1016 37.1115V24.0542H29.706L30.1836 19.5546H26.1016L26.1077 17.3025C26.1077 16.1289 26.2192 15.5001 27.9048 15.5001H30.1581V11H26.5532C22.2232 11 20.6991 13.1828 20.6991 16.8536V19.5551H18V24.0547H20.6991V37.1115H26.1016Z" fill="white"/>
</svg>
