<svg width="48" height="48" viewBox="0 0 48 48" fill="none" xmlns="http://www.w3.org/2000/svg">
<path d="M13.92 27.84C21.6078 27.84 27.84 21.6078 27.84 13.92C27.84 6.2322 21.6078 0 13.92 0C6.2322 0 0 6.2322 0 13.92C0 21.6078 6.2322 27.84 13.92 27.84Z" fill="#28A8EA"/>
<path d="M34.08 48C41.7678 48 48 41.7678 48 34.08C48 26.3922 41.7678 20.16 34.08 20.16C26.3922 20.16 20.16 26.3922 20.16 34.08C20.16 41.7678 26.3922 48 34.08 48Z" fill="#28A8EA"/>
<path d="M24 47.04C36.7246 47.04 47.04 36.7246 47.04 24C47.04 11.2754 36.7246 0.959991 24 0.959991C11.2754 0.959991 0.959991 11.2754 0.959991 24C0.959991 36.7246 11.2754 47.04 24 47.04Z" fill="#28A8EA"/>
<path fill-rule="evenodd" clip-rule="evenodd" d="M18.0249 23.5625C17.1242 22.9692 16.3727 22.1758 15.8291 21.2441C15.304 20.2605 15.0447 19.1567 15.077 18.0421C15.037 16.6274 15.5197 15.2476 16.4328 14.1664C17.3815 13.0806 18.6009 12.2655 19.967 11.8042C21.453 11.2794 23.0188 11.016 24.5947 11.0255C25.6261 11.0158 26.6563 11.0948 27.6741 11.2617C28.4021 11.3743 29.1172 11.5589 29.8087 11.8129C30.4439 12.0281 31.0174 12.3943 31.4797 12.8802C31.8204 13.2799 32.0039 13.79 31.9958 14.3151C32.008 14.5879 31.9665 14.8604 31.8734 15.1171C31.7803 15.3738 31.6376 15.6096 31.4534 15.8112C31.2789 15.9969 31.0671 16.1436 30.8319 16.2416C30.5967 16.3396 30.3434 16.3867 30.0886 16.3799C29.738 16.3773 29.392 16.2997 29.0739 16.1523C28.2907 15.8017 27.4838 15.5065 26.6593 15.2687C25.9001 15.0687 25.1174 14.9716 24.3324 14.9801C23.31 14.9421 22.2983 15.2004 21.4192 15.7236C21.0478 15.9492 20.7439 16.2704 20.5392 16.6536C20.3346 17.0368 20.2366 17.468 20.2557 17.9021C20.2502 18.4715 20.4667 19.0206 20.8593 19.4331C21.3261 19.9171 21.8776 20.3115 22.4865 20.5967C23.1689 20.9351 24.1866 21.3843 25.5395 21.944C25.6895 21.9914 25.8358 22.0499 25.977 22.119C27.2973 22.6412 28.5631 23.2917 29.7562 24.0612C30.6987 24.6758 31.4934 25.4915 32.0832 26.4496C32.6637 27.4562 32.9543 28.6038 32.923 29.7653C32.9718 31.1881 32.5641 32.5892 31.7594 33.7636C30.9401 34.8753 29.8068 35.7164 28.5053 36.1783C26.937 36.7383 25.2799 37.0081 23.615 36.9744C21.327 37.0549 19.0498 36.6246 16.9491 35.7146C16.4115 35.4755 15.9401 35.1092 15.5756 34.6473C15.2735 34.2243 15.1169 33.7146 15.1294 33.1949C15.1143 32.9207 15.1589 32.6466 15.2601 32.3913C15.3612 32.136 15.5166 31.9058 15.7154 31.7164C16.1327 31.3509 16.6746 31.1598 17.2288 31.1827C17.8457 31.1912 18.4516 31.3472 18.9959 31.6376C19.6722 31.9761 20.2059 32.2299 20.5969 32.3989C21.0435 32.586 21.5062 32.7324 21.9791 32.8363C22.5622 32.9643 23.1579 33.026 23.7548 33.0199C24.8102 33.095 25.8604 32.8148 26.7381 32.2239C27.0667 31.9668 27.3293 31.635 27.5043 31.2562C27.6792 30.8774 27.7614 30.4623 27.744 30.0454C27.7453 29.4537 27.5199 28.8839 27.1142 28.4531C26.5781 27.9008 25.9508 27.445 25.2597 27.1059C24.4431 26.6743 23.2941 26.1494 21.8128 25.5311C20.4876 25.0031 19.2186 24.3436 18.0249 23.5625" fill="white"/>
<path opacity="0.1" fill-rule="evenodd" clip-rule="evenodd" d="M18.2688 0.700795C17.6601 0.497002 17.0378 0.3366 16.4064 0.220795C12.6159 1.43727 9.17015 3.54025 6.3552 6.3552C3.54025 9.17015 1.43727 12.6159 0.220795 16.4064C0.33662 17.0378 0.497021 17.6601 0.700795 18.2688C0.870981 18.8199 1.0861 19.3561 1.34399 19.872C2.17788 15.2643 4.39892 11.0211 7.70999 7.70999C11.0211 4.39892 15.2643 2.17788 19.872 1.34399C19.3561 1.08613 18.8199 0.871013 18.2688 0.700795Z" fill="black"/>
<path opacity="0.1" fill-rule="evenodd" clip-rule="evenodd" d="M18.2688 0.700806C14.0172 1.74942 10.1332 3.9404 7.03678 7.03682C3.94037 10.1332 1.74939 14.0172 0.700775 18.2688C0.870962 18.8199 1.08608 19.3561 1.34397 19.872C2.17786 15.2643 4.3989 11.0211 7.70998 7.71001C11.021 4.39893 15.2643 2.17789 19.872 1.34401C19.3561 1.08614 18.8199 0.871024 18.2688 0.700806Z" fill="black"/>
<path opacity="0.1" fill-rule="evenodd" clip-rule="evenodd" d="M47.2992 29.7312C47.129 29.1801 46.9139 28.6439 46.656 28.128C45.8221 32.7357 43.6011 36.9789 40.29 40.29C36.9789 43.6011 32.7357 45.8221 28.128 46.656C28.6439 46.9139 29.1801 47.129 29.7312 47.2992C30.3399 47.503 30.9622 47.6634 31.5936 47.7792C35.3841 46.5627 38.8298 44.4597 41.6448 41.6448C44.4597 38.8298 46.5627 35.3841 47.7792 31.5936C47.6634 30.9622 47.503 30.3399 47.2992 29.7312Z" fill="black"/>
<path opacity="0.1" fill-rule="evenodd" clip-rule="evenodd" d="M46.656 28.128C45.8221 32.7357 43.6011 36.9789 40.29 40.29C36.9789 43.6011 32.7357 45.8221 28.128 46.656C28.6439 46.9139 29.1801 47.129 29.7312 47.2992C33.9828 46.2506 37.8668 44.0596 40.9632 40.9632C44.0596 37.8668 46.2506 33.9828 47.2992 29.7312C47.129 29.1801 46.9139 28.6439 46.656 28.128Z" fill="black"/>
</svg>
