<svg width="49" height="49" viewBox="0 0 49 49" fill="none" xmlns="http://www.w3.org/2000/svg">
<path fill-rule="evenodd" clip-rule="evenodd" d="M17.5322 0.900024H32.2676C45.7157 0.900024 48.8999 4.08422 48.8999 17.5323V32.2677C48.8999 45.7158 45.7157 48.9 32.2676 48.9H17.5322C4.08409 48.9 0.899902 45.7158 0.899902 32.2677V17.5323C0.899902 4.08422 4.08409 0.900024 17.5322 0.900024Z" fill="#F68634"/>
<path d="M27.796 30.4403L31.3826 33.9028C32.1174 34.6106 32.1174 35.7601 31.3826 36.4686C30.6486 37.1771 29.459 37.1771 28.7257 36.4686L25.1993 33.0661L21.676 36.4686C21.3086 36.8225 20.8272 36.9996 20.3458 36.9996C19.8652 36.9996 19.3846 36.8225 19.0172 36.4686C18.2832 35.7601 18.2832 34.6113 19.0164 33.9028L22.6035 30.4403C21.2975 30.1531 20.038 29.6536 18.8778 28.951C17.9999 28.4167 17.7362 27.2972 18.2893 26.449C18.841 25.5996 20.0011 25.3439 20.8806 25.8783C23.5072 27.4732 26.8907 27.4736 29.5188 25.8783C30.3983 25.3439 31.5581 25.5996 32.1109 26.449C32.664 27.2964 32.3995 28.4167 31.5216 28.951C30.3615 29.6543 29.1019 30.1531 27.796 30.4403Z" fill="white"/>
<path fill-rule="evenodd" clip-rule="evenodd" d="M18.7678 19.1936C18.7678 22.6079 21.6454 25.3853 25.1837 25.3853C28.7228 25.3853 31.5996 22.6079 31.5996 19.1936C31.5996 15.7781 28.7228 13 25.1837 13C21.6454 13 18.7678 15.7781 18.7678 19.1936ZM27.8402 19.1936C27.8402 17.7795 26.6486 16.6297 25.1837 16.6297C23.7199 16.6297 22.5272 17.7795 22.5272 19.1936C22.5272 20.6065 23.7199 21.7571 25.1837 21.7571C26.6486 21.7571 27.8402 20.6065 27.8402 19.1936Z" fill="white"/>
</svg>
