<svg width="24" height="24" viewBox="0 0 24 24" xmlns="http://www.w3.org/2000/svg">
<path fill-rule="evenodd" clip-rule="evenodd" d="M12.4018 1.25C12.816 1.25 13.1518 1.58579 13.1518 2V3.05882C13.1518 3.47303 12.816 3.80882 12.4018 3.80882C11.9876 3.80882 11.6518 3.47303 11.6518 3.05882V2C11.6518 1.58579 11.9876 1.25 12.4018 1.25ZM7.8989 2.84161C8.19014 2.54708 8.66501 2.5444 8.95955 2.83564L9.71672 3.58434C10.0113 3.87558 10.0139 4.35045 9.72269 4.64499C9.43146 4.93952 8.95659 4.9422 8.66205 4.65096L7.90487 3.90226C7.61034 3.61102 7.60766 3.13615 7.8989 2.84161ZM16.9047 2.84161C17.196 3.13615 17.1933 3.61102 16.8988 3.90226L16.1416 4.65096C15.8471 4.9422 15.3722 4.93952 15.081 4.64499C14.7897 4.35045 14.7924 3.87558 15.0869 3.58434L15.8441 2.83564C16.1386 2.5444 16.6135 2.54708 16.9047 2.84161ZM5.76235 7.29412C5.76235 6.87991 6.09814 6.54412 6.51235 6.54412H7.58316C7.99738 6.54412 8.33316 6.87991 8.33316 7.29412C8.33316 7.70833 7.99738 8.04412 7.58316 8.04412H6.51235C6.09814 8.04412 5.76235 7.70833 5.76235 7.29412ZM16.4705 7.29412C16.4705 6.87991 16.8063 6.54412 17.2205 6.54412H18.2913C18.7055 6.54412 19.0413 6.87991 19.0413 7.29412C19.0413 7.70833 18.7055 8.04412 18.2913 8.04412H17.2205C16.8063 8.04412 16.4705 7.70833 16.4705 7.29412ZM10.3586 7.89847C11.0032 6.67667 12.5116 6.19845 13.7478 6.80921L14.1111 6.98869C14.8507 7.35407 15.3231 8.10463 15.3231 8.93124L15.3231 11.1365H16.8461C17.7226 11.1365 18.5544 11.5294 19.1068 12.2089C19.6596 12.8889 19.872 13.7821 19.6817 14.6371L18.8237 18.491C18.5288 19.8159 17.3451 20.75 15.9881 20.75L6.07696 20.75C5.07594 20.75 4.25 19.9454 4.25 18.9351V12.9514C4.25001 11.9411 5.07595 11.1365 6.07696 11.1365H8.65038L10.3586 7.89847ZM8.34244 12.6365H6.07696C5.8884 12.6365 5.75 12.7854 5.75 12.9514V18.9351C5.75 19.1011 5.8884 19.25 6.07696 19.25L8.34244 19.25V12.6365ZM9.84244 19.25L15.9881 19.25C16.6534 19.25 17.2198 18.7931 17.3596 18.1651L18.2175 14.3112C18.3078 13.9059 18.2078 13.4809 17.9429 13.1551C17.6776 12.8287 17.2747 12.6365 16.8461 12.6365H14.5732C14.159 12.6365 13.8232 12.3007 13.8232 11.8865L13.8231 8.93128C13.8231 8.68199 13.6805 8.44903 13.4467 8.33353L13.0834 8.15404C12.568 7.89937 11.9464 8.10348 11.6853 8.59838L9.84244 12.0916V19.25Z"/>
</svg>
