<svg width="24" height="24" viewBox="0 0 24 24" fill="none" xmlns="http://www.w3.org/2000/svg">
<path fill-rule="evenodd" clip-rule="evenodd" d="M13.1518 2C13.1518 1.58579 12.816 1.25 12.4018 1.25C11.9876 1.25 11.6518 1.58579 11.6518 2V3.05882C11.6518 3.47303 11.9876 3.80882 12.4018 3.80882C12.816 3.80882 13.1518 3.47303 13.1518 3.05882V2ZM8.95952 2.83564C8.66498 2.5444 8.19012 2.54708 7.89888 2.84161C7.60764 3.13615 7.61031 3.61102 7.90485 3.90226L8.66203 4.65096C8.95656 4.9422 9.43143 4.93952 9.72267 4.64499C10.0139 4.35045 10.0112 3.87558 9.7167 3.58434L8.95952 2.83564ZM16.8988 3.90226C17.1933 3.61102 17.196 3.13615 16.9047 2.84161C16.6135 2.54708 16.1386 2.5444 15.8441 2.83564L15.0869 3.58434C14.7924 3.87558 14.7897 4.35045 15.0809 4.64499C15.3722 4.93952 15.847 4.9422 16.1416 4.65096L16.8988 3.90226ZM6.51233 6.54412C6.09812 6.54412 5.76233 6.87991 5.76233 7.29412C5.76233 7.70833 6.09812 8.04412 6.51233 8.04412H7.58314C7.99735 8.04412 8.33314 7.70833 8.33314 7.29412C8.33314 6.87991 7.99735 6.54412 7.58314 6.54412H6.51233ZM17.2205 6.54412C16.8063 6.54412 16.4705 6.87991 16.4705 7.29412C16.4705 7.70833 16.8063 8.04412 17.2205 8.04412H18.2913C18.7055 8.04412 19.0413 7.70833 19.0413 7.29412C19.0413 6.87991 18.7055 6.54412 18.2913 6.54412H17.2205ZM9.5 12.5183C9.5 12.1784 9.58662 11.8441 9.75169 11.547L11.3401 8.6879C11.7091 8.02366 12.5358 7.7679 13.2154 8.10772C13.6963 8.34814 14 8.83958 14 9.37716V12C14 12.2761 14.2239 12.5 14.5 12.5H16.3944C16.7893 12.5 17.1753 12.6169 17.5038 12.8359L17.8645 13.0763C18.2397 13.3265 18.4011 13.7968 18.2585 14.2246L16.9558 18.1325C16.6836 18.9491 15.9193 19.5 15.0585 19.5H11.5C10.3954 19.5 9.5 18.6046 9.5 17.5V12.5183ZM6.5 12.5C5.94772 12.5 5.5 12.9477 5.5 13.5V18.5C5.5 19.0523 5.94772 19.5 6.5 19.5H7C7.55228 19.5 8 19.0523 8 18.5V13.5C8 12.9477 7.55228 12.5 7 12.5H6.5Z" fill="black"/>
</svg>
