<svg width="24" height="24" viewBox="0 0 24 24" xmlns="http://www.w3.org/2000/svg">
<path d="M15.9375 3H8.0625C6.92475 3 6 3.92475 6 5.0625V18.9375C6 20.0753 6.92475 21 8.0625 21H15.9375C17.0753 21 18 20.0753 18 18.9375V5.0625C18 3.92475 17.0753 3 15.9375 3ZM16.5 18.75C16.5 19.164 16.164 19.5 15.75 19.5H8.25C7.836 19.5 7.5 19.164 7.5 18.75V5.25C7.5 4.836 7.836 4.5 8.25 4.5H8.625C9.039 4.5 9.375 4.836 9.375 5.25C9.375 5.664 9.711 6 10.125 6H13.875C14.289 6 14.625 5.664 14.625 5.25C14.625 4.836 14.961 4.5 15.375 4.5H15.75C16.164 4.5 16.5 4.836 16.5 5.25V18.75Z"/>
</svg>
