<svg width="24" height="24" viewBox="0 0 24 24" xmlns="http://www.w3.org/2000/svg">
<path fill-rule="evenodd" clip-rule="evenodd" d="M15.5 6.15823C15.3283 6.24932 15.1384 6.34256 14.9296 6.43536C13.7072 6.97865 11.8533 7.5 9.25 7.5C6.64672 7.5 4.79279 6.97865 3.5704 6.43536C3.36161 6.34256 3.17168 6.24932 3 6.15823V9.39701C3.02261 9.41369 3.04698 9.43131 3.07314 9.44977C3.30086 9.61052 3.66446 9.83569 4.1796 10.0646C5.20721 10.5214 6.85328 11 9.25 11C11.6467 11 13.2928 10.5214 14.3204 10.0646C14.8355 9.83569 15.1991 9.61052 15.4269 9.44977C15.453 9.43131 15.4774 9.41369 15.5 9.39701V6.15823ZM15.5 11.1582C15.3283 11.2493 15.1384 11.3426 14.9296 11.4354C13.7072 11.9786 11.8533 12.5 9.25 12.5C6.64672 12.5 4.79279 11.9786 3.5704 11.4354C3.36161 11.3426 3.17168 11.2493 3 11.1582V14.397C3.02261 14.4137 3.04698 14.4313 3.07314 14.4498C3.30086 14.6105 3.66446 14.8357 4.1796 15.0646C5.20721 15.5214 6.85328 16 9.25 16C10.0845 16 10.8279 15.942 11.486 15.8471C12.2223 14.306 13.7245 13.201 15.5 13.0247V11.1582ZM11.0341 17.4131C11.0116 17.6056 11 17.8014 11 18C11 19.0329 11.3132 19.9926 11.8498 20.7894C11.1049 20.9181 10.2414 21 9.25 21C5.55299 21 3.63431 19.8609 3.0141 19.4074C3.01354 19.4065 3.01267 19.4049 3.01154 19.4024C3.00701 19.3925 3 19.3704 3 19.3358V16.1582C3.17168 16.2493 3.36161 16.3426 3.5704 16.4354C4.79279 16.9786 6.64672 17.5 9.25 17.5C9.88931 17.5 10.4834 17.4686 11.0341 17.4131ZM15.0687 4.6808C14.8586 4.52059 14.5906 4.33886 14.2608 4.15562C13.2438 3.59061 11.6187 3 9.25 3C6.88133 3 5.25625 3.59061 4.23923 4.15562C3.9094 4.33886 3.64143 4.52059 3.43126 4.6808C3.63146 4.7995 3.87989 4.93143 4.1796 5.06464C5.20721 5.52135 6.85328 6 9.25 6C11.6467 6 13.2928 5.52135 14.3204 5.06464C14.6201 4.93143 14.8685 4.7995 15.0687 4.6808Z"/>
<circle cx="16" cy="18" r="4"/>
</svg>
