<svg width="24" height="24" viewBox="0 0 24 24" xmlns="http://www.w3.org/2000/svg">
<path fill-rule="evenodd" clip-rule="evenodd" d="M10.0097 3.03302C8.97689 3.18085 8.20268 4.06178 8.15092 5.14791C8.12581 5.67538 8.25843 6.14806 8.55738 6.59652L8.63187 6.70831H7.40904C6.30564 6.70831 6.16576 6.71467 5.97659 6.77349C5.1793 7.02131 4.69174 7.86657 4.88328 8.6689C4.90811 8.77295 5.08419 9.16613 5.27456 9.54264L5.62072 10.2272L4.57917 11.9504C4.00634 12.8981 3.49102 13.7664 3.43403 13.88C2.9516 14.8408 2.86475 16.0648 3.20657 17.086C3.31347 17.4054 3.55652 17.8999 3.73567 18.1623C3.90537 18.411 4.73624 19.3763 5.09049 19.7363C5.70691 20.3629 6.44287 20.7555 7.34468 20.9391C7.62138 20.9955 7.96837 21 12 21C16.0363 21 16.3783 20.9955 16.6562 20.9389C17.4721 20.7729 18.2073 20.405 18.7573 19.8877C19.0113 19.6487 19.9414 18.5932 20.1867 18.2655C21.0568 17.1031 21.2454 15.4876 20.6718 14.1109C20.611 13.965 20.0696 13.0304 19.4686 12.034L18.376 10.2224L18.6972 9.60617C19.0692 8.89268 19.1275 8.73962 19.1529 8.41093C19.2082 7.69304 18.7241 6.99132 18.0233 6.77349C17.8342 6.71467 17.6943 6.70831 16.5942 6.70831C15.9235 6.70831 15.3748 6.69953 15.3748 6.6888C15.3748 6.67811 15.4118 6.62004 15.457 6.55982C15.7016 6.23429 15.8569 5.73069 15.8569 5.26366C15.8569 4.74104 15.6795 4.2327 15.3514 3.81495C14.5762 2.82808 13.0448 2.7392 12.1536 3.62935L12 3.78279L11.8463 3.62935C11.5264 3.30981 11.0866 3.09693 10.6092 3.03061C10.3126 2.9894 10.3144 2.9894 10.0097 3.03302ZM10.6796 4.4787C11.0582 4.65646 11.2626 5.21086 11.3019 6.16673L11.3214 6.63982L11.2044 6.61691C10.9752 6.57199 10.5087 6.39881 10.2942 6.279C10.0199 6.1258 9.71126 5.84609 9.61398 5.66255C9.55685 5.55475 9.53911 5.46099 9.53849 5.26366C9.53784 5.04221 9.55192 4.98009 9.63795 4.82497C9.73688 4.64659 9.88968 4.50167 10.044 4.43983C10.1939 4.37974 10.51 4.3991 10.6796 4.4787ZM14.0391 4.49703C14.4346 4.71204 14.5921 5.25351 14.38 5.66878C14.2906 5.84389 13.9795 6.12615 13.7108 6.27594C13.5189 6.38295 13.0377 6.56068 12.7782 6.62042L12.6783 6.64343L12.6979 6.16852C12.7221 5.58 12.7939 5.21561 12.948 4.89816C13.1228 4.53824 13.31 4.40977 13.6655 4.40592C13.8227 4.40423 13.9054 4.42439 14.0391 4.49703ZM17.714 8.1748C17.7533 8.22464 17.7854 8.28473 17.7854 8.30836C17.7854 8.3757 17.2666 9.369 17.2063 9.41702C17.1344 9.47432 6.90281 9.48062 6.79582 9.42342C6.73035 9.3884 6.21452 8.39913 6.21452 8.30856C6.21452 8.28483 6.24665 8.22464 6.28591 8.1748L6.35726 8.08416H12H17.6426L17.714 8.1748ZM18.1712 12.5557C18.739 13.4921 19.2638 14.3821 19.3375 14.5335C19.5523 14.975 19.5934 15.1771 19.5929 15.7889C19.5924 16.301 19.588 16.3348 19.4805 16.6437C19.4189 16.8206 19.3076 17.0694 19.2333 17.1966C19.073 17.4707 18.1328 18.5734 17.7859 18.8942C17.5126 19.147 17.092 19.3815 16.6834 19.5091L16.4251 19.5897H11.9827H7.54035L7.21833 19.4774C6.55217 19.2452 6.27141 19.0199 5.43238 18.0448C4.833 17.3481 4.66967 17.0977 4.51704 16.6413C4.41649 16.3407 4.41015 16.291 4.40843 15.7889C4.40633 15.1908 4.44659 14.9818 4.64346 14.5679C4.74423 14.3561 5.2425 13.5197 6.5134 11.4291L6.87416 10.8356L12.0065 10.8444L17.1389 10.8531L18.1712 12.5557Z"/>
</svg>
