<svg width="24" height="24" viewBox="0 0 24 24" xmlns="http://www.w3.org/2000/svg">
<path fill-rule="evenodd" clip-rule="evenodd" d="M5.18714 2.88967C6.20059 2.48418 7.54889 2.25 9 2.25C10.451 2.25 11.7998 2.48389 12.8134 2.88925C13.3181 3.09109 13.777 3.35024 14.1218 3.67646C14.4569 3.99343 14.7309 4.42217 14.7481 4.94678C14.7494 4.96436 14.75 4.98211 14.75 5C14.75 5.54878 14.469 5.99578 14.1226 6.32352C13.7777 6.64972 13.319 6.90888 12.8143 7.11074C11.8007 7.51613 10.4519 7.75 9 7.75C7.54807 7.75 6.19926 7.51613 5.18572 7.11074C4.68103 6.90888 4.22228 6.64972 3.87744 6.32352C3.53098 5.99578 3.25 5.54878 3.25 5V4.99864H3.25C3.25099 4.45031 3.53248 4.00389 3.87889 3.6766C4.22382 3.3507 4.68248 3.09159 5.18714 2.88967ZM13.2491 5.01002C13.249 5.00646 13.249 5.00289 13.249 4.99932V4.99923C13.249 4.99481 13.2493 4.91588 13.0911 4.76619C12.93 4.61382 12.6565 4.44203 12.2564 4.282C11.4602 3.96361 10.309 3.75 9 3.75C7.69111 3.75 6.54041 3.96382 5.74436 4.28233C5.34427 4.44241 5.07056 4.6143 4.90905 4.7669C4.75462 4.91281 4.75013 4.99202 4.75 5.00069C4.75012 5.00951 4.7545 5.08839 4.90825 5.23382C5.06934 5.38621 5.34272 5.558 5.74278 5.71801C6.53874 6.03637 7.68993 6.25 9 6.25C10.3101 6.25 11.4613 6.03637 12.2572 5.71801C12.6573 5.558 12.9307 5.38621 13.0918 5.23382C13.2214 5.11123 13.2448 5.03592 13.2491 5.01002Z"/>
<path fill-rule="evenodd" clip-rule="evenodd" d="M14 4.25C14.4142 4.25 14.75 4.58579 14.75 5V12.76C14.75 13.1742 14.4142 13.51 14 13.51C13.5858 13.51 13.25 13.1742 13.25 12.76V5C13.25 4.58579 13.5858 4.25 14 4.25Z"/>
<path fill-rule="evenodd" clip-rule="evenodd" d="M4.00098 8.25C4.41519 8.25 4.75098 8.58579 4.75098 9L4.75098 9.00008C4.75097 9.00478 4.75081 9.08398 4.90922 9.23382C5.07032 9.38622 5.34369 9.558 5.74375 9.71801C6.53972 10.0364 7.6909 10.25 9.00098 10.25C10.3111 10.25 11.4622 10.0364 12.2582 9.71801C12.6583 9.558 12.9316 9.38622 13.0927 9.23382C13.2511 9.08398 13.251 9.00478 13.251 9.00008V9C13.251 8.58579 13.5868 8.25 14.001 8.25C14.4152 8.25 14.751 8.58579 14.751 9C14.751 9.54878 14.47 9.99578 14.1235 10.3235C13.7787 10.6497 13.3199 10.9089 12.8153 11.1107C11.8017 11.5161 10.4529 11.75 9.00098 11.75C7.54905 11.75 6.20024 11.5161 5.1867 11.1107C4.68201 10.9089 4.22326 10.6497 3.87842 10.3235C3.53195 9.99578 3.25098 9.54878 3.25098 9C3.25098 8.58579 3.58676 8.25 4.00098 8.25Z"/>
<path fill-rule="evenodd" clip-rule="evenodd" d="M19.1517 13.8483C17.6876 12.3842 15.3124 12.3842 13.8483 13.8483C12.3842 15.3124 12.3842 17.6876 13.8483 19.1517C15.3124 20.6158 17.6876 20.6158 19.1517 19.1517C20.6158 17.6876 20.6158 15.3124 19.1517 13.8483ZM20.2123 12.7877C18.1624 10.7378 14.8376 10.7378 12.7877 12.7877C10.7378 14.8376 10.7378 18.1624 12.7877 20.2123C14.8376 22.2622 18.1624 22.2622 20.2123 20.2123C22.2622 18.1624 22.2622 14.8376 20.2123 12.7877Z"/>
<path fill-rule="evenodd" clip-rule="evenodd" d="M4.00098 12.25C4.41519 12.25 4.75098 12.5858 4.75098 13L4.75098 13.0001C4.75097 13.0048 4.75082 13.084 4.90922 13.2338C5.07032 13.3862 5.34366 13.558 5.74366 13.718C6.5395 14.0364 7.69043 14.25 8.99998 14.25C10.2949 14.25 11.4349 14.0402 12.2303 13.7271C12.6157 13.5754 13.0512 13.7649 13.2029 14.1503C13.3546 14.5358 13.1651 14.9712 12.7796 15.1229C11.7711 15.5198 10.437 15.75 8.99998 15.75C7.54852 15.75 6.19995 15.5161 5.18654 15.1107C4.68191 14.9089 4.2232 14.6497 3.87839 14.3235C3.53195 13.9958 3.25098 13.5488 3.25098 13C3.25098 12.5858 3.58676 12.25 4.00098 12.25Z"/>
<path fill-rule="evenodd" clip-rule="evenodd" d="M4 4.25C4.41421 4.25 4.75 4.58579 4.75 5V16.9996C4.75003 17.0065 4.75219 17.0857 4.90867 17.2337C5.06995 17.3862 5.34346 17.558 5.74353 17.718C6.53952 18.0364 7.69046 18.25 9 18.25C10.2676 18.25 11.3826 18.0473 12.1771 17.7435C12.564 17.5955 12.9976 17.7892 13.1455 18.1761C13.2935 18.563 13.0998 18.9966 12.7129 19.1445C11.7134 19.5267 10.4104 19.75 9 19.75C7.54854 19.75 6.19998 19.5161 5.18647 19.1107C4.68179 18.9089 4.22305 18.6498 3.87814 18.3236C3.53164 17.996 3.2505 17.5493 3.25 17.0007L3.25 5C3.25 4.58579 3.58579 4.25 4 4.25Z"/>
</svg>
