<svg width="24" height="24" viewBox="0 0 24 24" xmlns="http://www.w3.org/2000/svg">
<path d="M17.3561 10.5H6.64391C6.25177 10.5 5.89582 10.7292 5.73355 11.0862L3.94422 15.0227C3.66679 15.6331 3.71363 16.3418 4.06895 16.9103L4.825 18.12C5.55595 19.2895 6.83783 20 8.21699 20H15.783C17.1622 20 18.444 19.2895 19.175 18.12L19.931 16.9103C20.2864 16.3418 20.3332 15.6331 20.0558 15.0227L18.2665 11.0862C18.1042 10.7292 17.7482 10.5 17.3561 10.5Z"/>
<path d="M17.1225 7.5H6.8775C6.01491 7.5 5.45388 8.40776 5.83964 9.17929C5.93792 9.37584 6.13881 9.5 6.35857 9.5H17.6414C17.8612 9.5 18.0621 9.37584 18.1604 9.17929C18.5461 8.40776 17.9851 7.5 17.1225 7.5Z"/>
<path d="M14.44 4.97695L13.4726 4.49864C12.9928 4.26143 12.4262 4.5886 12.3917 5.12267L12.3223 6.1996C12.2837 6.79738 12.9269 7.1969 13.4457 6.89739L14.4825 6.29878C15.0013 5.99927 14.9769 5.24245 14.44 4.97695Z"/>
<path d="M9.50622 4.97695L10.4736 4.49864C10.9533 4.26143 11.52 4.5886 11.5545 5.12267L11.6239 6.1996C11.6625 6.79738 11.0192 7.1969 10.5005 6.89739L9.46364 6.29878C8.94487 5.99927 8.96925 5.24245 9.50622 4.97695Z"/>
</svg>
