<svg width="24" height="24" viewBox="0 0 24 24" xmlns="http://www.w3.org/2000/svg">
<path d="M13.8226 5H7C5.34315 5 4 6.34315 4 8V17C4 18.6569 5.34315 20 7 20H16C17.6569 20 19 18.6569 19 17L19 10.1775L14.486 14.6915C14.223 14.9544 13.8919 15.1389 13.5299 15.2241L10.4581 15.9468C9.7839 16.1055 9.07559 15.904 8.58583 15.4142C8.09606 14.9244 7.89456 14.2161 8.05321 13.5419L8.77597 10.4702C8.86115 10.1081 9.0456 9.77703 9.30859 9.51404L13.8226 5Z"/>
<path d="M10 14L13.0717 13.2772L19.7883 6.56068C20.0706 6.27842 20.0706 5.82079 19.7883 5.53853L18.4615 4.2117C18.1792 3.92943 17.7216 3.92943 17.4393 4.2117L10.7228 10.9283L10 14Z"/>
</svg>
