<svg width="24" height="24" viewBox="0 0 24 24" xmlns="http://www.w3.org/2000/svg">
<path fill-rule="evenodd" clip-rule="evenodd" d="M16.909 3.68139C17.4841 3.1062 18.4167 3.1062 18.9918 3.68139L20.3186 5.0082L20.3187 5.00822C20.8938 5.58337 20.8938 6.51584 20.3187 7.09099L20.3186 7.09101L13.6021 13.8076C13.5035 13.9062 13.3793 13.9754 13.2435 14.0073L10.1718 14.7301C9.91895 14.7896 9.65333 14.714 9.46967 14.5303C9.28601 14.3467 9.21045 14.0811 9.26994 13.8282L9.9927 10.7565C10.0246 10.6207 10.0938 10.4965 10.1924 10.3979L16.909 3.68139ZM17.9312 4.74212L17.9311 4.74203L17.9311 4.74201C17.9312 4.74204 17.9312 4.74208 17.9312 4.74212ZM17.9504 4.76129L19.2387 6.0496L12.6923 12.596L11.0076 12.9924L11.404 11.3077L17.9504 4.76129ZM17.9696 4.74209L17.9697 4.74203L17.9697 4.74201C17.9697 4.74203 17.9696 4.74206 17.9696 4.74209ZM7 5.75C5.75736 5.75 4.75 6.75736 4.75 8V17C4.75 18.2426 5.75736 19.25 7 19.25H16C17.2426 19.25 18.25 18.2426 18.25 17V13C18.25 12.5858 18.5858 12.25 19 12.25C19.4142 12.25 19.75 12.5858 19.75 13V17C19.75 19.0711 18.0711 20.75 16 20.75H7C4.92893 20.75 3.25 19.0711 3.25 17V8C3.25 5.92893 4.92893 4.25 7 4.25H11C11.4142 4.25 11.75 4.58579 11.75 5C11.75 5.41421 11.4142 5.75 11 5.75H7Z"/>
</svg>
