<svg width="24" height="24" viewBox="0 0 24 24" fill="none" xmlns="http://www.w3.org/2000/svg">
<path fill-rule="evenodd" clip-rule="evenodd" d="M18.9378 19.1497L15.3347 15.5466C14.6011 16.4343 13.4916 17 12.25 17C10.0409 17 8.25 15.2091 8.25 13C8.25 11.7584 8.8157 10.6489 9.70341 9.91526L7.33806 7.54992C7.14508 7.67712 6.90689 7.75 6.65517 7.75H6.27586C5.01894 7.75 4 8.64543 4 9.75V17.25C4 18.3546 5.01894 19.25 6.27586 19.25H18.2241C18.4734 19.25 18.7134 19.2148 18.9378 19.1497ZM8.53841 5.37807L8.54443 5.36538C8.72112 4.99274 9.13545 4.75 9.59483 4.75H14.9051C15.3645 4.75 15.7788 4.99274 15.9556 5.36538L16.7944 7.13462C16.9712 7.50726 17.3855 7.75 17.8449 7.75H18.2241C19.4811 7.75 20.5 8.64543 20.5 9.75V17.25C20.5 17.2793 20.4993 17.3085 20.4979 17.3375L16.249 13.0887C16.2497 13.0592 16.25 13.0296 16.25 13C16.25 10.7909 14.4591 9 12.25 9C12.2204 9 12.1908 9.00032 12.1613 9.00096L8.53841 5.37807ZM10.7718 10.9836C10.1522 11.4387 9.75 12.1724 9.75 13C9.75 14.3807 10.8693 15.5 12.25 15.5C13.0776 15.5 13.8113 15.0978 14.2664 14.4782L10.7718 10.9836Z" fill="#1C1C1C"/>
<path d="M18.5 18.5L4.5 4.5" stroke="#1C1C1C" stroke-width="1.5" stroke-linecap="round"/>
</svg>
