<svg width="24" height="24" viewBox="0 0 24 24" xmlns="http://www.w3.org/2000/svg">
<path fill-rule="evenodd" clip-rule="evenodd" d="M4.48132 4.45827C4.77592 4.1762 5.24193 4.18127 5.53033 4.46967L18.3232 17.2626C19.4257 18.3651 18.6448 20.25 17.0858 20.25H7C5.48123 20.25 4.25 19.0188 4.25 17.5V10C4.25 8.77279 5.05386 7.73334 6.16375 7.37946L4.44714 5.50679C4.17153 5.20613 4.18672 4.74035 4.48132 4.45827ZM7.68934 8.75H7C6.30965 8.75 5.75 9.30964 5.75 10V17.5C5.75 18.1904 6.30964 18.75 7 18.75H17.0858C17.3086 18.75 17.4201 18.4807 17.2626 18.3232L15.0479 16.1086C14.3273 16.8138 13.3393 17.25 12.25 17.25C10.0409 17.25 8.25 15.4591 8.25 13.25C8.25 12.1607 8.68615 11.1727 9.39143 10.4521L7.68934 8.75ZM10.4522 11.5128C10.0166 11.9633 9.75 12.5753 9.75 13.25C9.75 14.6307 10.8693 15.75 12.25 15.75C12.9247 15.75 13.5367 15.4834 13.9872 15.0478L10.4522 11.5128ZM9.31448 4.69577C9.43477 4.42472 9.70346 4.25 10 4.25H14.5833C15.2898 4.25 15.9269 4.6748 16.1987 5.32687L16.1987 5.32691L16.9359 7.09611C16.9359 7.09612 16.9359 7.09614 16.9359 7.09615C16.9748 7.18934 17.0658 7.25 17.1667 7.25H17.5C19.0188 7.25 20.25 8.48122 20.25 10V15.5C20.25 15.8102 20.0591 16.0884 19.7696 16.1999C19.4802 16.3114 19.152 16.2332 18.9439 16.0032L9.44385 5.50319C9.2449 5.28329 9.19419 4.96682 9.31448 4.69577ZM11.69 5.75L18.75 13.5532V10C18.75 9.30964 18.1904 8.75 17.5 8.75H17.1667C16.4602 8.75 15.8231 8.3252 15.5513 7.67313L15.5513 7.67309L14.8141 5.90389C14.8141 5.90388 14.8141 5.90386 14.8141 5.90385C14.7752 5.81066 14.6842 5.75 14.5833 5.75H11.69Z"/>
</svg>
