<svg width="24" height="24" viewBox="0 0 24 24" xmlns="http://www.w3.org/2000/svg">
<path fill-rule="evenodd" clip-rule="evenodd" d="M7 6H8.27273C8.82501 6 9.27273 6.44772 9.27273 7V17C9.27273 17.5523 8.82501 18 8.27273 18H7C6.44771 18 6 17.5523 6 17V7C6 6.44772 6.44772 6 7 6ZM11.3636 6H17C17.5523 6 18 6.44772 18 7V17C18 17.5523 17.5523 18 17 18H11.3636C10.8114 18 10.3636 17.5523 10.3636 17V7C10.3636 6.44772 10.8114 6 11.3636 6ZM13.5 8.25C13.0858 8.25 12.75 8.58579 12.75 9C12.75 9.41421 13.0858 9.75 13.5 9.75H14.5C14.9142 9.75 15.25 9.41421 15.25 9C15.25 8.58579 14.9142 8.25 14.5 8.25H13.5ZM13.5 11.25C13.0858 11.25 12.75 11.5858 12.75 12C12.75 12.4142 13.0858 12.75 13.5 12.75H14.5C14.9142 12.75 15.25 12.4142 15.25 12C15.25 11.5858 14.9142 11.25 14.5 11.25H13.5Z"/>
</svg>
