<svg width="24" height="24" viewBox="0 0 24 24" xmlns="http://www.w3.org/2000/svg">
<path fill-rule="evenodd" clip-rule="evenodd" d="M7 5.75C6.86193 5.75 6.75 5.86193 6.75 6V17C6.75 17.1381 6.86193 17.25 7 17.25H9.25V5.75H7ZM10.75 5.75V17.25H17C17.1381 17.25 17.25 17.1381 17.25 17V6C17.25 5.86193 17.1381 5.75 17 5.75H10.75ZM10.75 18.75H17C17.9665 18.75 18.75 17.9665 18.75 17V6C18.75 5.0335 17.9665 4.25 17 4.25H7C6.0335 4.25 5.25 5.0335 5.25 6V17C5.25 17.9665 6.0335 18.75 7 18.75H9.25V19.5C9.25 19.9142 9.58579 20.25 10 20.25C10.4142 20.25 10.75 19.9142 10.75 19.5V18.75ZM12.75 8C12.75 7.58579 13.0858 7.25 13.5 7.25H14.5C14.9142 7.25 15.25 7.58579 15.25 8C15.25 8.41421 14.9142 8.75 14.5 8.75H13.5C13.0858 8.75 12.75 8.41421 12.75 8ZM12.75 11C12.75 10.5858 13.0858 10.25 13.5 10.25H14.5C14.9142 10.25 15.25 10.5858 15.25 11C15.25 11.4142 14.9142 11.75 14.5 11.75H13.5C13.0858 11.75 12.75 11.4142 12.75 11Z"/>
</svg>
