<svg width="24" height="24" viewBox="0 0 24 24" xmlns="http://www.w3.org/2000/svg">
<path d="M8.35 5.7L7.3 7.1C7.17639 7.26481 7.29399 7.5 7.5 7.5H17C17.206 7.5 17.3236 7.26481 17.2 7.1L16.15 5.7C16.0556 5.5741 15.9074 5.5 15.75 5.5H8.75C8.59262 5.5 8.44443 5.5741 8.35 5.7Z"/>
<path fill-rule="evenodd" clip-rule="evenodd" d="M6.50001 9.5V17.4594C6.50001 17.4863 6.49568 17.513 6.48719 17.5385L6.1097 18.6709C6.05574 18.8328 6.17623 19 6.34687 19H18.1532C18.3238 19 18.4443 18.8328 18.3903 18.6709L18.0128 17.5385C18.0043 17.513 18 17.4863 18 17.4594V9.5C18 8.94772 17.5523 8.5 17 8.5H7.50001C6.94773 8.5 6.50001 8.94772 6.50001 9.5ZM10.75 11C10.75 10.5858 10.4142 10.25 10 10.25C9.5858 10.25 9.25001 10.5858 9.25001 11V12C9.25001 13.6568 10.5932 15 12.25 15C13.9068 15 15.25 13.6568 15.25 12V11C15.25 10.5858 14.9142 10.25 14.5 10.25C14.0858 10.25 13.75 10.5858 13.75 11V12C13.75 12.8284 13.0784 13.5 12.25 13.5C11.4216 13.5 10.75 12.8284 10.75 12V11Z"/>
</svg>
