<svg width="24" height="24" viewBox="0 0 24 24" xmlns="http://www.w3.org/2000/svg">
<path fill-rule="evenodd" clip-rule="evenodd" d="M7.37597 4.58397C7.51507 4.37533 7.74924 4.25 8 4.25H16.5C16.7508 4.25 16.9849 4.37533 17.124 4.58397L19.124 7.58397C19.2062 7.70718 19.25 7.85193 19.25 8V16.8556L20.1964 19.2215C20.2888 19.4525 20.2606 19.7144 20.1211 19.9205C19.9815 20.1266 19.7489 20.25 19.5 20.25H5C4.75114 20.25 4.51848 20.1266 4.37895 19.9205C4.23943 19.7144 4.21122 19.4525 4.30365 19.2215L5.25 16.8556V8C5.25 7.85193 5.29383 7.70718 5.37597 7.58397L7.37597 4.58397ZM8.40139 5.75L7.40139 7.25H17.0986L16.0986 5.75H8.40139ZM17.75 8.75H6.75V17C6.75 17.0954 6.7318 17.19 6.69636 17.2785L6.10778 18.75H18.3922L17.8036 17.2785C17.7682 17.19 17.75 17.0954 17.75 17V8.75ZM10 10.25C10.4142 10.25 10.75 10.5858 10.75 11V12C10.75 12.8284 11.4216 13.5 12.25 13.5C13.0784 13.5 13.75 12.8284 13.75 12V11C13.75 10.5858 14.0858 10.25 14.5 10.25C14.9142 10.25 15.25 10.5858 15.25 11V12C15.25 13.6568 13.9068 15 12.25 15C10.5932 15 9.25 13.6568 9.25 12V11C9.25 10.5858 9.58579 10.25 10 10.25Z"/>
</svg>
