<svg width="24" height="24" viewBox="0 0 24 24" xmlns="http://www.w3.org/2000/svg">
<path fill-rule="evenodd" clip-rule="evenodd" d="M7.37597 4.58397C7.51507 4.37533 7.74924 4.25 8 4.25H16.5C16.7508 4.25 16.9849 4.37533 17.124 4.58397L19.124 7.58397C19.2062 7.70718 19.25 7.85193 19.25 8V12.5C19.25 12.9142 18.9142 13.25 18.5 13.25C18.0858 13.25 17.75 12.9142 17.75 12.5V8.75H6.75V17C6.75 17.0954 6.7318 17.19 6.69636 17.2785L6.10778 18.75H12.25C12.6642 18.75 13 19.0858 13 19.5C13 19.9142 12.6642 20.25 12.25 20.25H5C4.75114 20.25 4.51848 20.1266 4.37895 19.9205C4.23943 19.7144 4.21122 19.4525 4.30365 19.2215L5.25 16.8556V8C5.25 7.85193 5.29383 7.70718 5.37597 7.58397L7.37597 4.58397ZM7.40139 7.25H17.0986L16.0986 5.75H8.40139L7.40139 7.25ZM10 10.25C10.4142 10.25 10.75 10.5858 10.75 11V12C10.75 12.8284 11.4216 13.5 12.25 13.5C13.0784 13.5 13.75 12.8284 13.75 12V11C13.75 10.5858 14.0858 10.25 14.5 10.25C14.9142 10.25 15.25 10.5858 15.25 11V12C15.25 13.6568 13.9068 15 12.25 15C10.5932 15 9.25 13.6568 9.25 12V11C9.25 10.5858 9.58579 10.25 10 10.25ZM18.25 16.25C18.6642 16.25 19 16.5858 19 17V18.5H20.5C20.9142 18.5 21.25 18.8358 21.25 19.25C21.25 19.6642 20.9142 20 20.5 20H19V21.5C19 21.9142 18.6642 22.25 18.25 22.25C17.8358 22.25 17.5 21.9142 17.5 21.5V20H16C15.5858 20 15.25 19.6642 15.25 19.25C15.25 18.8358 15.5858 18.5 16 18.5H17.5V17C17.5 16.5858 17.8358 16.25 18.25 16.25Z"/>
</svg>
