<svg width="24" height="24" viewBox="0 0 24 24" fill="none" xmlns="http://www.w3.org/2000/svg">
<path d="M8.35 5.7L7.3 7.1C7.17639 7.26481 7.29399 7.5 7.5 7.5H17C17.206 7.5 17.3236 7.26481 17.2 7.1L16.15 5.7C16.0556 5.5741 15.9074 5.5 15.75 5.5H8.75C8.59262 5.5 8.44443 5.5741 8.35 5.7Z" fill="#1C1C1C"/>
<path fill-rule="evenodd" clip-rule="evenodd" d="M6.50001 17.4594V9.5C6.50001 8.94772 6.94773 8.5 7.50001 8.5H17C17.5523 8.5 18 8.94772 18 9.5V12.5C18 12.5 18 12.5 18 12.5C16.6193 12.5 15.5 13.6193 15.5 15V15.5H15C13.6193 15.5 12.5 16.6193 12.5 18C12.5 18.3556 12.5742 18.6938 12.708 19H6.34687C6.17623 19 6.05574 18.8328 6.1097 18.6709L6.48719 17.5385C6.49568 17.513 6.50001 17.4863 6.50001 17.4594ZM10 10.25C10.4142 10.25 10.75 10.5858 10.75 11V12C10.75 12.8284 11.4216 13.5 12.25 13.5C13.0784 13.5 13.75 12.8284 13.75 12V11C13.75 10.5858 14.0858 10.25 14.5 10.25C14.9142 10.25 15.25 10.5858 15.25 11V12C15.25 13.6568 13.9068 15 12.25 15C10.5932 15 9.25001 13.6568 9.25001 12V11C9.25001 10.5858 9.5858 10.25 10 10.25Z" fill="#1C1C1C"/>
<path d="M18 15V18M18 18V21M18 18H21M18 18H15" stroke="#1C1C1C" stroke-width="1.5" stroke-linecap="round" stroke-linejoin="round"/>
</svg>
