<svg width="24" height="24" viewBox="0 0 24 24" xmlns="http://www.w3.org/2000/svg">
<path fill-rule="evenodd" clip-rule="evenodd" d="M14.8847 4.76606C15.5728 4.07798 16.6884 4.07798 17.3764 4.76606L19.234 6.62361L19.234 6.62363C19.922 7.31169 19.922 8.42721 19.234 9.11526L19.234 9.11528L9.83079 18.5185C9.73217 18.6171 9.608 18.6863 9.47224 18.7182L5.17179 19.7301C4.91896 19.7896 4.65335 19.714 4.46968 19.5303C4.28602 19.3467 4.21046 19.0811 4.26995 18.8282L5.28182 14.5278C5.31377 14.392 5.38293 14.2679 5.48155 14.1692L14.8847 4.76606ZM16.3157 5.82668C16.2135 5.72444 16.0477 5.72444 15.9454 5.82668L15.9454 5.8267L6.69308 15.079L6.00757 17.9925L8.921 17.3069L18.1733 8.05464C18.1733 8.05463 18.1733 8.05463 18.1733 8.05462C18.2756 7.95235 18.2756 7.78655 18.1733 7.68428C18.1733 7.68427 18.1733 7.68426 18.1733 7.68425L16.3157 5.82671L16.3157 5.82668Z"/>
</svg>
