<svg width="24" height="24" viewBox="0 0 24 24" xmlns="http://www.w3.org/2000/svg">
<path fill-rule="evenodd" clip-rule="evenodd" d="M14.7626 4.76259C15.446 4.07914 16.5541 4.07914 17.2375 4.76259L19.0732 6.59834L19.0733 6.59837C19.7566 7.28179 19.7566 8.38979 19.0733 9.07321L19.0732 9.07323L9.78034 18.3661C9.68172 18.4647 9.55756 18.5339 9.42179 18.5659L5.17179 19.5659C4.91896 19.6253 4.65335 19.5498 4.46968 19.3661C4.28602 19.1825 4.21046 18.9168 4.26995 18.664L5.26995 14.414C5.3019 14.2782 5.37106 14.1541 5.46969 14.0555L14.7626 4.76259ZM16.1768 5.82321C16.0792 5.7256 15.9209 5.7256 15.8233 5.82321L15.8232 5.82323L6.68121 14.9653L6.00757 17.8282L8.87055 17.1546L18.0126 8.01259C18.0126 8.01258 18.0126 8.01257 18.0126 8.01257C18.1102 7.91492 18.1102 7.75662 18.0126 7.65899L16.1768 5.82323L16.1768 5.82321ZM13.25 18.8358C13.25 18.4216 13.5858 18.0858 14 18.0858H19.5C19.9142 18.0858 20.25 18.4216 20.25 18.8358C20.25 19.25 19.9142 19.5858 19.5 19.5858H14C13.5858 19.5858 13.25 19.25 13.25 18.8358Z"/>
</svg>
