<svg width="24" height="24" viewBox="0 0 24 24" xmlns="http://www.w3.org/2000/svg">
<path fill-rule="evenodd" clip-rule="evenodd" d="M8.25 7.75C7.97386 7.75 7.75 7.97386 7.75 8.25C7.75 8.52614 7.97386 8.75 8.25 8.75C8.52614 8.75 8.75 8.52614 8.75 8.25C8.75 7.97386 8.52614 7.75 8.25 7.75ZM6.25 8.25C6.25 7.14543 7.14543 6.25 8.25 6.25C9.35457 6.25 10.25 7.14543 10.25 8.25C10.25 9.35457 9.35457 10.25 8.25 10.25C7.14543 10.25 6.25 9.35457 6.25 8.25ZM18.0303 6.46967C18.3232 6.76256 18.3232 7.23744 18.0303 7.53033L7.53033 18.0303C7.23744 18.3232 6.76256 18.3232 6.46967 18.0303C6.17678 17.7374 6.17678 17.2626 6.46967 16.9697L16.9697 6.46967C17.2626 6.17678 17.7374 6.17678 18.0303 6.46967ZM16.25 15.75C15.9739 15.75 15.75 15.9739 15.75 16.25C15.75 16.5261 15.9739 16.75 16.25 16.75C16.5261 16.75 16.75 16.5261 16.75 16.25C16.75 15.9739 16.5261 15.75 16.25 15.75ZM14.25 16.25C14.25 15.1454 15.1454 14.25 16.25 14.25C17.3546 14.25 18.25 15.1454 18.25 16.25C18.25 17.3546 17.3546 18.25 16.25 18.25C15.1454 18.25 14.25 17.3546 14.25 16.25Z"/>
</svg>
