<svg width="24" height="24" viewBox="0 0 24 24" xmlns="http://www.w3.org/2000/svg">
<path fill-rule="evenodd" clip-rule="evenodd" d="M7.08805 6.32789C6.86875 6.84071 6.74734 7.40539 6.74734 7.99842V15.0013C6.74734 15.9887 7.38292 16.8275 8.26724 17.1311C8.2737 17.1331 8.28016 17.1352 8.28661 17.1373C8.29301 17.1394 8.29936 17.1416 8.30566 17.1439C8.52395 17.2145 8.75682 17.2526 8.99859 17.2526C9.25302 17.2526 9.49759 17.2104 9.72568 17.1326C9.74105 17.1266 9.75667 17.121 9.77252 17.116C10.6346 16.8004 11.2498 15.9727 11.2498 15.0013V14.1676C10.9461 13.9395 10.7496 13.5763 10.7496 13.1672C10.7496 12.6609 11.1601 12.2505 11.6664 12.2505H12.3333C12.8396 12.2505 13.2501 12.661 13.2501 13.1672C13.2501 13.5763 13.0536 13.9395 12.7498 14.1676V15.0013C12.7498 15.9761 13.3694 16.8062 14.2361 17.1193C14.2459 17.1225 14.2556 17.1259 14.2652 17.1296C14.4958 17.2093 14.7434 17.2526 15.0011 17.2526C15.2429 17.2526 15.4757 17.2145 15.694 17.1439C15.7003 17.1416 15.7067 17.1394 15.7131 17.1373C15.7195 17.1351 15.726 17.1331 15.7325 17.1311C16.6168 16.8275 17.2523 15.9887 17.2523 15.0013L17.2523 13.0005L17.2523 7.99842C17.2523 7.40508 17.1308 6.84013 16.9113 6.3271C16.9018 6.30772 16.8931 6.28788 16.8853 6.26761C16.2224 4.78189 14.7323 3.74634 13.0003 3.74634H10.9994C9.26774 3.74634 7.77783 4.78151 7.11475 6.26681C7.10674 6.28763 7.09782 6.30801 7.08805 6.32789ZM5.3645 6.83776C5.28768 7.21264 5.24734 7.60082 5.24734 7.99842V13.0005C5.24734 13.1388 5.13523 13.2509 4.99693 13.2509C4.30611 13.2509 3.74609 12.6909 3.74609 12.0001V8.99884C3.74609 7.97523 4.42925 7.11118 5.3645 6.83776ZM5.94633 5.24793C3.89809 5.27523 2.24609 6.94411 2.24609 8.99884V12.0001C2.24609 13.5193 3.47768 14.7509 4.99693 14.7509C5.08195 14.7509 5.16556 14.7449 5.24734 14.7331V15.0013C5.24734 16.3905 6.00244 17.6033 7.12458 18.2517L6.28625 20.7667C6.15526 21.1596 6.36763 21.5844 6.76059 21.7153C7.15355 21.8463 7.57829 21.634 7.70927 21.241L8.54769 18.7258C8.69552 18.7435 8.84599 18.7526 8.99859 18.7526C9.08706 18.7526 9.1748 18.7495 9.26173 18.7435C9.38186 19.8733 10.338 20.7534 11.4996 20.7534H12.5001C13.6617 20.7534 14.6178 19.8733 14.738 18.7435C14.8249 18.7495 14.9126 18.7526 15.0011 18.7526C15.1537 18.7526 15.3042 18.7435 15.452 18.7258L16.2904 21.241C16.4214 21.634 16.8461 21.8463 17.2391 21.7153C17.6321 21.5844 17.8444 21.1596 17.7134 20.7667L16.8751 18.2517C17.9972 17.6033 18.7523 16.3905 18.7523 15.0013V14.7331C18.8341 14.7449 18.9177 14.7509 19.0028 14.7509C20.522 14.7509 21.7536 13.5193 21.7536 12.0001V8.99884C21.7536 6.94411 20.1016 5.27523 18.0534 5.24793C17.0779 3.45963 15.1808 2.24634 13.0003 2.24634H10.9994C8.81892 2.24634 6.9218 3.45963 5.94633 5.24793ZM18.6352 6.83776C18.712 7.21265 18.7523 7.60082 18.7523 7.99842L18.7523 13.0005C18.7527 13.1385 18.8647 13.2509 19.0028 13.2509C19.6936 13.2509 20.2536 12.6909 20.2536 12.0001V8.99884C20.2536 7.97523 19.5704 7.11118 18.6352 6.83776ZM13.2507 18.32C12.7588 18.06 12.3317 17.6939 11.9998 17.2521C11.668 17.6939 11.2409 18.06 10.749 18.32V18.5028C10.749 18.9174 11.0851 19.2534 11.4996 19.2534H12.5001C12.9146 19.2534 13.2507 18.9174 13.2507 18.5028V18.32ZM11.9998 13.6458C12.1508 13.5404 12.2496 13.3654 12.2496 13.1672C12.2496 13.0293 12.1378 12.9175 11.9998 12.9175C11.8619 12.9175 11.7501 13.0293 11.7501 13.1672C11.7501 13.3654 11.8488 13.5404 11.9998 13.6458Z"/>
<path d="M21 19.5C21 20.0523 20.5523 20.5 20 20.5C19.4477 20.5 19 20.0523 19 19.5C19 18.9477 19.4477 18.5 20 18.5C20.5523 18.5 21 18.9477 21 19.5Z"/>
<path d="M11 9.5C11 10.0523 10.5523 10.5 10 10.5C9.44772 10.5 9 10.0523 9 9.5C9 8.94772 9.44772 8.5 10 8.5C10.5523 8.5 11 8.94772 11 9.5Z"/>
<path d="M15 9.5C15 10.0523 14.5523 10.5 14 10.5C13.4477 10.5 13 10.0523 13 9.5C13 8.94772 13.4477 8.5 14 8.5C14.5523 8.5 15 8.94772 15 9.5Z"/>
</svg>
