<svg width="24" height="24" viewBox="0 0 24 24" fill="none" xmlns="http://www.w3.org/2000/svg">
<path d="M9.14286 5H6.31818C5.59017 5 5 5.59017 5 6.31818C5 11.6781 8.19902 16.2908 12.7919 18.3513C13.4254 18.6323 14.1007 16.7686 14.5 15.5C14.5 15.5 14.0837 15.2637 13.7321 15.0821C13.1358 14.774 12.1681 14.1952 11.2143 13.2857C10.2377 12.3545 9.66548 11.3511 9.37829 10.744C9.21734 10.4037 9.31052 10.0109 9.57669 9.74474L11.2143 8.10714L9.14286 5Z" fill="#1C1C1C"/>
<path d="M14.25 5.27936C16.6812 5.97562 18.5896 7.90944 19.25 10.3556M18.25 16V18.25M18.25 18.25V20.5M18.25 18.25H20.5M18.25 18.25H16M9.14286 5H6.31818C5.59017 5 5 5.59017 5 6.31818C5 11.6781 8.19902 16.2908 12.7919 18.3513C13.4254 18.6323 14.1007 16.7686 14.5 15.5C14.5 15.5 14.0837 15.2637 13.7321 15.0821C13.1358 14.774 12.1681 14.1952 11.2143 13.2857C10.2377 12.3545 9.66548 11.3511 9.37829 10.744C9.21734 10.4037 9.31052 10.0109 9.57669 9.74474L11.2143 8.10714L9.14286 5Z" stroke="#1C1C1C" stroke-linecap="round" stroke-linejoin="round"/>
</svg>
