<svg width="24" height="24" viewBox="0 0 24 24" xmlns="http://www.w3.org/2000/svg">
<path d="M14.4565 4.55834C14.0583 4.4443 13.643 4.67467 13.529 5.07287C13.4149 5.47108 13.6453 5.88633 14.0435 6.00037C16.2224 6.62436 17.9341 8.35904 18.5259 10.5511C18.6339 10.951 19.0456 11.1876 19.4455 11.0797C19.8454 10.9717 20.082 10.56 19.9741 10.1601C19.2451 7.45984 17.14 5.32688 14.4565 4.55834Z"/>
<path d="M19 16C19 15.5858 18.6642 15.25 18.25 15.25C17.8358 15.25 17.5 15.5858 17.5 16V17.5H16C15.5858 17.5 15.25 17.8358 15.25 18.25C15.25 18.6642 15.5858 19 16 19H17.5V20.5C17.5 20.9142 17.8358 21.25 18.25 21.25C18.6642 21.25 19 20.9142 19 20.5V19H20.5C20.9142 19 21.25 18.6642 21.25 18.25C21.25 17.8358 20.9142 17.5 20.5 17.5H19V16Z"/>
<path d="M6.31818 4.25C5.17596 4.25 4.25 5.17596 4.25 6.31818C4.25 11.9842 7.63234 16.8586 12.4849 19.0356C12.8628 19.2051 13.3066 19.0362 13.4762 18.6583C13.6457 18.2803 13.4768 17.8365 13.0989 17.667C9.08178 15.8649 6.19698 11.994 5.79748 7.41227C5.76605 7.05175 5.75 6.68684 5.75 6.31818C5.75 6.11057 5.86135 5.92897 6.02759 5.82983C6.11261 5.77913 6.21199 5.75 6.31818 5.75H8.74147L10.2492 8.01158L9.56909 8.69168L9.04636 9.21441C8.95096 9.30981 8.86672 9.41673 8.79593 9.53221C8.52576 9.97295 8.45143 10.5385 8.7003 11.0647C9.01336 11.7265 9.63389 12.8151 10.6967 13.8285C11.7164 14.8008 12.7485 15.4181 13.3878 15.7484C14.0608 16.096 14.8273 15.9119 15.312 15.4271L16.9232 13.816C17.2161 13.5232 17.2161 13.0483 16.9232 12.7554C16.6304 12.4625 16.1555 12.4625 15.8626 12.7554L14.2514 14.3665C14.2157 14.4022 14.1772 14.4195 14.147 14.4251C14.1192 14.4302 14.097 14.4264 14.0764 14.4158C13.5231 14.1299 12.6198 13.5896 11.7319 12.7429C10.8415 11.894 10.3176 10.9757 10.0563 10.4233C10.0527 10.4158 10.0502 10.4079 10.0494 10.3988C10.0486 10.3905 10.0491 10.3812 10.0514 10.3703C10.0567 10.3449 10.0727 10.3094 10.107 10.2751L11.7446 8.63747C11.9974 8.38467 12.0366 7.98858 11.8383 7.69111L9.7669 4.58397C9.6278 4.37533 9.39362 4.25 9.14286 4.25H6.31818Z"/>
</svg>
