<svg width="24" height="24" viewBox="0 0 24 24" xmlns="http://www.w3.org/2000/svg">
<path d="M14.4565 4.55834C14.0583 4.4443 13.643 4.67467 13.529 5.07287C13.4149 5.47108 13.6453 5.88633 14.0435 6.00037C16.2224 6.62436 17.9341 8.35904 18.5259 10.5511C18.6339 10.951 19.0456 11.1876 19.4455 11.0797C19.8454 10.9717 20.082 10.56 19.9741 10.1601C19.2451 7.45984 17.14 5.32688 14.4565 4.55834Z"/>
<path fill-rule="evenodd" clip-rule="evenodd" d="M6.31818 4.25C5.17596 4.25 4.25 5.17596 4.25 6.31818C4.25 14.0125 10.4875 20.25 18.1818 20.25C19.324 20.25 20.25 19.324 20.25 18.1818V15.3571C20.25 15.1063 20.1247 14.8722 19.916 14.7331L16.8089 12.6617C16.5115 12.4634 16.1154 12.5026 15.8626 12.7554L14.2513 14.3666C14.2156 14.4023 14.1772 14.4195 14.147 14.4251C14.1192 14.4302 14.097 14.4264 14.0764 14.4158C13.6961 14.2193 13.1503 13.9025 12.5579 13.4487C12.2885 13.2423 10.2492 11 10.0563 10.4233C10.0495 10.4089 10.0466 10.3931 10.0514 10.3703C10.0567 10.3449 10.0727 10.3094 10.107 10.2751L11.7446 8.63747C11.9974 8.38467 12.0366 7.98858 11.8383 7.69111L9.7669 4.58397C9.6278 4.37533 9.39362 4.25 9.14286 4.25H6.31818ZM5.75 6.31818C5.75 6.00438 6.00438 5.75 6.31818 5.75H8.74147L10.2492 8.01158L9.04636 9.21441C8.95096 9.30981 8.86672 9.41673 8.79593 9.53222C8.59831 9.85461 8.50549 10.2438 8.56728 10.6355C8.58996 10.7793 8.63349 10.9234 8.70032 11.0647C9.01338 11.7265 9.63389 12.8151 10.6967 13.8285C11.7164 14.8008 12.7486 15.4181 13.3879 15.7485C13.5333 15.8236 13.6831 15.8738 13.8334 15.9016C14.079 15.947 14.3261 15.9324 14.5583 15.8679C14.8419 15.7891 15.1032 15.636 15.3121 15.427L16.4884 14.2508L18.75 15.7585V18.1818C18.75 18.4956 18.4956 18.75 18.1818 18.75C17.7443 18.75 17.3121 18.7274 16.8863 18.6833C16.7837 18.6727 16.6814 18.6608 16.5795 18.6477C10.995 17.9291 6.57085 13.505 5.85227 7.92046C5.83061 7.75209 5.81234 7.58267 5.79748 7.41227C5.76605 7.05176 5.75 6.68685 5.75 6.31818Z"/>
<path fill-rule="evenodd" clip-rule="evenodd" d="M5.85227 7.92046C5.83061 7.75209 5.81234 7.58267 5.79748 7.41227L5.85227 7.92046Z"/>
</svg>
