<svg width="20" height="20" viewBox="0 0 20 20" fill="none" xmlns="http://www.w3.org/2000/svg">
<path d="M17.084 14.3747V8.12467C17.084 7.2042 16.2349 6.45801 15.1874 6.45801H14.8714C14.4886 6.45801 14.1433 6.25572 13.996 5.94519L13.297 4.47082C13.1497 4.16029 12.8044 3.95801 12.4216 3.95801H7.99634C7.61353 3.95801 7.26825 4.16029 7.12101 4.47082L6.42196 5.94519C6.27472 6.25572 5.92944 6.45801 5.54663 6.45801H5.23054C4.1831 6.45801 3.33398 7.2042 3.33398 8.12467V14.3747C3.33398 15.2952 4.1831 16.0413 5.23054 16.0413H15.1874C16.2349 16.0413 17.084 15.2952 17.084 14.3747Z" stroke="#494A4A" stroke-width="1.5" stroke-linecap="round"/>
<path d="M12.7077 10.8333C12.7077 12.3291 11.4951 13.5417 9.99935 13.5417C8.5036 13.5417 7.29102 12.3291 7.29102 10.8333C7.29102 9.33758 8.5036 8.125 9.99935 8.125C11.4951 8.125 12.7077 9.33758 12.7077 10.8333Z" stroke="#1C1C1C" stroke-width="1.5" stroke-linecap="round"/>
</svg>
