<svg width="24" height="24" viewBox="0 0 24 24" xmlns="http://www.w3.org/2000/svg">
<path fill-rule="evenodd" clip-rule="evenodd" d="M16.9497 15.7904C19.6834 13.0932 19.6834 8.72013 16.9497 6.02291C14.2161 3.3257 9.78392 3.3257 7.05025 6.02291C4.31658 8.72013 4.31658 13.0932 7.05025 15.7904L10.8336 19.5233C11.4778 20.1589 12.5222 20.1589 13.1664 19.5233L16.9497 15.7904ZM15 10C15 11.6569 13.6569 13 12 13C10.3431 13 9 11.6569 9 10C9 8.34315 10.3431 7 12 7C13.6569 7 15 8.34315 15 10Z"/>
<path d="M16.9497 6.02291L16.423 6.55679L16.9497 6.02291ZM16.9497 15.7904L16.423 15.2565L16.9497 15.7904ZM7.05025 6.02291L7.57701 6.55679V6.55679L7.05025 6.02291ZM7.05025 15.7904L7.57701 15.2565L7.05025 15.7904ZM10.8336 19.5233L11.3604 18.9894H11.3604L10.8336 19.5233ZM13.1664 19.5233L12.6396 18.9894L13.1664 19.5233ZM16.423 6.55679C18.859 8.96032 18.859 12.853 16.423 15.2565L17.4765 16.3243C20.5078 13.3334 20.5078 8.47994 17.4765 5.48904L16.423 6.55679ZM7.57701 6.55679C10.0186 4.14774 13.9814 4.14774 16.423 6.55679L17.4765 5.48904C14.4508 2.50365 9.54922 2.50365 6.52349 5.48904L7.57701 6.55679ZM7.57701 15.2565C5.141 12.853 5.141 8.96032 7.57701 6.55679L6.52349 5.48904C3.49217 8.47994 3.49217 13.3334 6.52349 16.3243L7.57701 15.2565ZM11.3604 18.9894L7.57701 15.2565L6.52349 16.3243L10.3068 20.0572L11.3604 18.9894ZM12.6396 18.9894C12.2875 19.3369 11.7125 19.3369 11.3604 18.9894L10.3068 20.0572C11.2431 20.9809 12.7569 20.9809 13.6932 20.0572L12.6396 18.9894ZM16.423 15.2565L12.6396 18.9894L13.6932 20.0572L17.4765 16.3243L16.423 15.2565ZM12 13.75C14.0711 13.75 15.75 12.0711 15.75 10H14.25C14.25 11.2426 13.2426 12.25 12 12.25V13.75ZM8.25 10C8.25 12.0711 9.92893 13.75 12 13.75V12.25C10.7574 12.25 9.75 11.2426 9.75 10H8.25ZM12 6.25C9.92893 6.25 8.25 7.92893 8.25 10H9.75C9.75 8.75736 10.7574 7.75 12 7.75V6.25ZM15.75 10C15.75 7.92893 14.0711 6.25 12 6.25V7.75C13.2426 7.75 14.25 8.75736 14.25 10H15.75Z"/>
</svg>
