<svg width="24" height="24" viewBox="0 0 24 24" xmlns="http://www.w3.org/2000/svg">
<path fill-rule="evenodd" clip-rule="evenodd" d="M16.423 6.55679C13.9814 4.14774 10.0186 4.14774 7.57701 6.55679C5.141 8.96033 5.141 12.853 7.57701 15.2565L11.3604 18.9894C11.7125 19.3369 12.2875 19.3369 12.6396 18.9894L16.423 15.2565C18.859 12.853 18.859 8.96033 16.423 6.55679ZM6.52349 5.48904C9.54922 2.50365 14.4508 2.50365 17.4765 5.48904C20.5078 8.47994 20.5078 13.3334 17.4765 16.3243L13.6932 20.0572C12.7569 20.9809 11.2431 20.9809 10.3068 20.0572L6.52349 16.3243C3.49217 13.3334 3.49217 8.47994 6.52349 5.48904ZM12.0002 9.28704C11.0784 9.28704 10.3484 10.0217 10.3484 10.9068C10.3484 11.7919 11.0784 12.5266 12.0002 12.5266C12.922 12.5266 13.652 11.7919 13.652 10.9068C13.652 10.0217 12.922 9.28704 12.0002 9.28704ZM8.84843 10.9068C8.84843 9.17436 10.2691 7.78704 12.0002 7.78704C13.7314 7.78704 15.152 9.17436 15.152 10.9068C15.152 12.6393 13.7314 14.0266 12.0002 14.0266C10.2691 14.0266 8.84843 12.6393 8.84843 10.9068Z"/>
</svg>
