<svg width="12" height="13" viewBox="0 0 12 13" xmlns="http://www.w3.org/2000/svg">
<path d="M9.95124 4.96063C10.8935 5.64801 11.3646 5.99169 11.3646 6.5C11.3646 7.00831 10.8935 7.35199 9.95124 8.03937C8.90161 8.80508 7.62146 9.70271 6.54545 10.35C5.50437 10.9763 4.11949 11.69 2.92444 12.2795C1.77822 12.8449 1.20511 13.1276 0.741629 12.8589C0.27815 12.5902 0.238568 11.9503 0.159402 10.6705C0.0765482 9.33111 -5.26179e-08 7.75424 0 6.5C5.2618e-08 5.24576 0.0765486 3.66888 0.159403 2.32946C0.238568 1.04967 0.278151 0.409772 0.74163 0.141083C1.20511 -0.127605 1.77822 0.155106 2.92444 0.720528C4.11949 1.31004 5.50437 2.02372 6.54545 2.65C7.62146 3.29728 8.90161 4.19492 9.95124 4.96063Z"/>
</svg>
