<svg width="24" height="24" viewBox="0 0 24 24" xmlns="http://www.w3.org/2000/svg">
<path fill-rule="evenodd" clip-rule="evenodd" d="M6 11.5C5.44772 11.5 5 11.9477 5 12.5V17.5C5 18.6046 5.89543 19.5 7 19.5H17.5C18.6046 19.5 19.5 18.6046 19.5 17.5V12.5C19.5 11.9477 19.0523 11.5 18.5 11.5H6ZM7.25 16.5C7.25 16.0858 7.58579 15.75 8 15.75H16.5C16.9142 15.75 17.25 16.0858 17.25 16.5C17.25 16.9142 16.9142 17.25 16.5 17.25H8C7.58579 17.25 7.25 16.9142 7.25 16.5Z"/>
<path d="M7 9.99997C7 10.2761 7.22386 10.5 7.5 10.5H17C17.2761 10.5 17.5 10.2761 17.5 9.99997V5.99997C17.5 5.72383 17.2761 5.49997 17 5.49997H7.5C7.22386 5.49997 7 5.72383 7 5.99997V9.99997Z"/>
</svg>
