<svg width="24" height="24" viewBox="0 0 24 24" xmlns="http://www.w3.org/2000/svg">
<path fill-rule="evenodd" clip-rule="evenodd" d="M6.25 5C6.25 4.58579 6.58579 4.25 7 4.25H17.5C17.9142 4.25 18.25 4.58579 18.25 5V10.25H19.5C19.9142 10.25 20.25 10.5858 20.25 11V17.5C20.25 19.0188 19.0188 20.25 17.5 20.25H7C5.48122 20.25 4.25 19.0188 4.25 17.5V11C4.25 10.5858 4.58579 10.25 5 10.25H6.25V5ZM7.75 10.25H16.75V5.75H7.75V10.25ZM5.75 11.75V17.5C5.75 18.1904 6.30964 18.75 7 18.75H17.5C18.1904 18.75 18.75 18.1904 18.75 17.5V11.75H5.75ZM7.25 16.5C7.25 16.0858 7.58579 15.75 8 15.75H16.5C16.9142 15.75 17.25 16.0858 17.25 16.5C17.25 16.9142 16.9142 17.25 16.5 17.25H8C7.58579 17.25 7.25 16.9142 7.25 16.5Z"/>
</svg>
