<svg width="24" height="24" viewBox="0 0 24 24" xmlns="http://www.w3.org/2000/svg">
<path fill-rule="evenodd" clip-rule="evenodd" d="M6.2069 20H17.7931C19.012 20 20 19.012 20 17.7931V12.9081V6.2069C20 4.98806 19.012 4 17.7931 4H6.2069C4.98806 4 4 4.98806 4 6.2069V16.4138V17.7931C4 19.012 4.98806 20 6.2069 20ZM7.33333 8.44444C7.33333 7.83079 7.83079 7.33333 8.44444 7.33333H9.03704C9.40523 7.33333 9.7037 7.03486 9.7037 6.66667C9.7037 6.29848 9.40523 6 9.03704 6H8.44444C7.09442 6 6 7.09442 6 8.44444V9.03704C6 9.40523 6.29848 9.7037 6.66667 9.7037C7.03486 9.7037 7.33333 9.40523 7.33333 9.03704V8.44444ZM14.963 6C14.5948 6 14.2963 6.29848 14.2963 6.66667C14.2963 7.03486 14.5948 7.33333 14.963 7.33333H15.5556C16.1692 7.33333 16.6667 7.8308 16.6667 8.44444V9.03704C16.6667 9.40523 16.9651 9.7037 17.3333 9.7037C17.7015 9.7037 18 9.40523 18 9.03704V8.44444C18 7.09441 16.9056 6 15.5556 6H14.963ZM9.40741 9.62964C9.40741 9.26145 9.10894 8.96297 8.74075 8.96297C8.37256 8.96297 8.07408 9.26145 8.07408 9.62964V11.3333H7.25926C6.89107 11.3333 6.59259 11.6318 6.59259 12C6.59259 12.3682 6.89107 12.6667 7.25926 12.6667H8.7378L8.74075 12.6667L8.74369 12.6667H10.9106L10.9136 12.6667L10.9165 12.6667H13.0835L13.0864 12.6667L13.0894 12.6667H15.2563L15.2593 12.6667L15.2622 12.6667H16.7407C17.1089 12.6667 17.4074 12.3682 17.4074 12C17.4074 11.6318 17.1089 11.3333 16.7407 11.3333H15.9259V9.62964C15.9259 9.26145 15.6274 8.96297 15.2593 8.96297C14.8911 8.96297 14.5926 9.26145 14.5926 9.62964V11.3333H13.7531V9.62964C13.7531 9.26145 13.4546 8.96297 13.0864 8.96297C12.7182 8.96297 12.4198 9.26145 12.4198 9.62964V11.3333H11.5803V9.62964C11.5803 9.26145 11.2818 8.96297 10.9136 8.96297C10.5454 8.96297 10.2469 9.26145 10.2469 9.62964V11.3333H9.40741V9.62964ZM9.40742 13.7778C9.40742 13.4096 9.10894 13.1111 8.74075 13.1111C8.37256 13.1111 8.07409 13.4096 8.07409 13.7778V14.963C8.07409 15.3312 8.37256 15.6297 8.74075 15.6297C9.10894 15.6297 9.40742 15.3312 9.40742 14.963V13.7778ZM11.5803 13.7778C11.5803 13.4096 11.2818 13.1111 10.9136 13.1111C10.5454 13.1111 10.2469 13.4096 10.2469 13.7778V14.963C10.2469 15.3312 10.5454 15.6297 10.9136 15.6297C11.2818 15.6297 11.5803 15.3312 11.5803 14.963V13.7778ZM13.7531 13.8519C13.7531 13.4837 13.4546 13.1852 13.0864 13.1852C12.7182 13.1852 12.4198 13.4837 12.4198 13.8519V14.963C12.4198 15.3312 12.7182 15.6297 13.0864 15.6297C13.4546 15.6297 13.7531 15.3312 13.7531 14.963V13.8519ZM15.9259 13.8519C15.9259 13.4837 15.6275 13.1852 15.2593 13.1852C14.8911 13.1852 14.5926 13.4837 14.5926 13.8519V14.963C14.5926 15.3312 14.8911 15.6297 15.2593 15.6297C15.6275 15.6297 15.9259 15.3312 15.9259 14.963V13.8519ZM7.33333 14.963C7.33333 14.5948 7.03486 14.2963 6.66667 14.2963C6.29848 14.2963 6 14.5948 6 14.963V15.5556C6 16.9056 7.09441 18 8.44444 18H9.03704C9.40523 18 9.7037 17.7015 9.7037 17.3333C9.7037 16.9651 9.40523 16.6667 9.03704 16.6667H8.44444C7.8308 16.6667 7.33333 16.1692 7.33333 15.5556V14.963ZM18 14.963C18 14.5948 17.7015 14.2963 17.3333 14.2963C16.9651 14.2963 16.6667 14.5948 16.6667 14.963V15.5556C16.6667 16.1692 16.1692 16.6667 15.5556 16.6667H14.963C14.5948 16.6667 14.2963 16.9651 14.2963 17.3333C14.2963 17.7015 14.5948 18 14.963 18H15.5556C16.9056 18 18 16.9056 18 15.5556V14.963Z"/>
</svg>
