<svg width="24" height="24" viewBox="0 0 24 24" xmlns="http://www.w3.org/2000/svg">
<path fill-rule="evenodd" clip-rule="evenodd" d="M7.33333 5.75C6.45888 5.75 5.75 6.45888 5.75 7.33333V8.11111C5.75 8.52532 5.41421 8.86111 5 8.86111C4.58579 8.86111 4.25 8.52532 4.25 8.11111V7.33333C4.25 5.63046 5.63046 4.25 7.33333 4.25H8.11111C8.52532 4.25 8.86111 4.58579 8.86111 5C8.86111 5.41421 8.52532 5.75 8.11111 5.75H7.33333ZM15.1389 5C15.1389 4.58579 15.4747 4.25 15.8889 4.25H16.6667C18.3695 4.25 19.75 5.63045 19.75 7.33333V8.11111C19.75 8.52532 19.4142 8.86111 19 8.86111C18.5858 8.86111 18.25 8.52532 18.25 8.11111V7.33333C18.25 6.45888 17.5411 5.75 16.6667 5.75H15.8889C15.4747 5.75 15.1389 5.41421 15.1389 5ZM7.72223 8.1389C8.13644 8.1389 8.47223 8.47469 8.47223 8.8889V11.25H9.82408V8.8889C9.82408 8.47469 10.1599 8.1389 10.5741 8.1389C10.9883 8.1389 11.3241 8.47469 11.3241 8.8889V11.25H12.6759V8.8889C12.6759 8.47469 13.0117 8.1389 13.4259 8.1389C13.8401 8.1389 14.1759 8.47469 14.1759 8.8889V11.25H15.5278V8.8889C15.5278 8.47469 15.8636 8.1389 16.2778 8.1389C16.692 8.1389 17.0278 8.47469 17.0278 8.8889V11.25H18.2222C18.6364 11.25 18.9722 11.5858 18.9722 12C18.9722 12.4142 18.6364 12.75 18.2222 12.75H16.2813C16.2801 12.75 16.279 12.75 16.2778 12.75C16.2766 12.75 16.2754 12.75 16.2743 12.75H13.4295C13.4283 12.75 13.4271 12.75 13.4259 12.75C13.4248 12.75 13.4236 12.75 13.4224 12.75H10.5776C10.5764 12.75 10.5753 12.75 10.5741 12.75C10.5729 12.75 10.5717 12.75 10.5706 12.75H7.72575C7.72458 12.75 7.72341 12.75 7.72223 12.75C7.72105 12.75 7.71988 12.75 7.71871 12.75H5.77778C5.36356 12.75 5.02778 12.4142 5.02778 12C5.02778 11.5858 5.36356 11.25 5.77778 11.25H6.97223V8.8889C6.97223 8.47469 7.30802 8.1389 7.72223 8.1389ZM7.72224 13.5834C8.13645 13.5834 8.47224 13.9191 8.47224 14.3334V15.8889C8.47224 16.3031 8.13645 16.6389 7.72224 16.6389C7.30802 16.6389 6.97224 16.3031 6.97224 15.8889V14.3334C6.97224 13.9191 7.30802 13.5834 7.72224 13.5834ZM10.5741 13.5834C10.9883 13.5834 11.3241 13.9191 11.3241 14.3334V15.8889C11.3241 16.3031 10.9883 16.6389 10.5741 16.6389C10.1599 16.6389 9.82408 16.3031 9.82408 15.8889V14.3334C9.82408 13.9191 10.1599 13.5834 10.5741 13.5834ZM13.4259 13.6806C13.8402 13.6806 14.1759 14.0164 14.1759 14.4306V15.8889C14.1759 16.3031 13.8402 16.6389 13.4259 16.6389C13.0117 16.6389 12.6759 16.3031 12.6759 15.8889V14.4306C12.6759 14.0164 13.0117 13.6806 13.4259 13.6806ZM16.2778 13.6806C16.692 13.6806 17.0278 14.0164 17.0278 14.4306V15.8889C17.0278 16.3031 16.692 16.6389 16.2778 16.6389C15.8636 16.6389 15.5278 16.3031 15.5278 15.8889V14.4306C15.5278 14.0164 15.8636 13.6806 16.2778 13.6806ZM5 15.1389C5.41421 15.1389 5.75 15.4747 5.75 15.8889V16.6667C5.75 17.5411 6.45888 18.25 7.33333 18.25H8.11111C8.52532 18.25 8.86111 18.5858 8.86111 19C8.86111 19.4142 8.52532 19.75 8.11111 19.75H7.33333C5.63045 19.75 4.25 18.3695 4.25 16.6667V15.8889C4.25 15.4747 4.58579 15.1389 5 15.1389ZM19 15.1389C19.4142 15.1389 19.75 15.4747 19.75 15.8889V16.6667C19.75 18.3695 18.3695 19.75 16.6667 19.75H15.8889C15.4747 19.75 15.1389 19.4142 15.1389 19C15.1389 18.5858 15.4747 18.25 15.8889 18.25H16.6667C17.5411 18.25 18.25 17.5411 18.25 16.6667V15.8889C18.25 15.4747 18.5858 15.1389 19 15.1389Z"/>
</svg>
