<svg width="24" height="24" viewBox="0 0 24 24" xmlns="http://www.w3.org/2000/svg">
<path fill-rule="evenodd" clip-rule="evenodd" d="M12.0575 4.49828C12.3346 4.80617 12.3096 5.28038 12.0017 5.55748L10.9545 6.50001H13.5C17.2279 6.50001 20.25 9.52208 20.25 13.25V13.5C20.25 13.9142 19.9142 14.25 19.5 14.25C19.0858 14.25 18.75 13.9142 18.75 13.5V13.25C18.75 10.3505 16.3995 8.00001 13.5 8.00001H10.9545L12.0017 8.94254C12.3096 9.21963 12.3346 9.69385 12.0575 10.0017C11.7804 10.3096 11.3062 10.3346 10.9983 10.0575L8.49828 7.80748C8.34024 7.66525 8.25 7.46262 8.25 7.25001C8.25 7.03739 8.34024 6.83477 8.49828 6.69254L10.9983 4.44254C11.3062 4.16544 11.7804 4.1904 12.0575 4.49828ZM5 10.25C5.41421 10.25 5.75 10.5858 5.75 11V11.25C5.75 14.1495 8.1005 16.5 11 16.5H13.5455L12.4983 15.5575C12.1904 15.2804 12.1654 14.8062 12.4425 14.4983C12.7196 14.1904 13.1938 14.1654 13.5017 14.4425L16.0017 16.6925C16.1598 16.8348 16.25 17.0374 16.25 17.25C16.25 17.4626 16.1598 17.6652 16.0017 17.8075L13.5017 20.0575C13.1938 20.3346 12.7196 20.3096 12.4425 20.0017C12.1654 19.6938 12.1904 19.2196 12.4983 18.9425L13.5455 18H11C7.27208 18 4.25 14.9779 4.25 11.25V11C4.25 10.5858 4.58579 10.25 5 10.25Z"/>
</svg>
