<svg width="24" height="24" viewBox="0 0 24 24" xmlns="http://www.w3.org/2000/svg">
<path fill-rule="evenodd" clip-rule="evenodd" d="M12.1406 4.30564C11.8584 4.19047 11.5346 4.25748 11.3214 4.47519L4.46423 11.4752C4.17859 11.7668 4.17859 12.2333 4.46423 12.5249L11.3214 19.5249C11.5346 19.7426 11.8584 19.8096 12.1406 19.6944C12.4227 19.5792 12.6071 19.3048 12.6071 19V15.2031C12.6071 15.1384 12.6307 15.0916 12.6551 15.0651C12.6766 15.0419 12.6998 15.031 12.7322 15.0307C13.644 15.0205 15.1228 15.1405 16.4433 15.8362C17.7216 16.5096 18.9031 17.7454 19.2581 20.1113C19.3163 20.4995 19.6641 20.7772 20.0556 20.7479C20.447 20.7187 20.7498 20.3926 20.7498 20V17.6496C20.7498 13.025 17.1549 9.2399 12.6071 8.93633V5.00002C12.6071 4.69527 12.4227 4.42082 12.1406 4.30564ZM11.1071 6.83741V9.50703C11.1071 10.0094 11.5144 10.4167 12.0168 10.4167C15.4524 10.4167 18.3285 12.812 19.0663 16.0237C18.4985 15.3685 17.8367 14.8748 17.1425 14.5091C15.5044 13.6461 13.7373 13.5194 12.7155 13.5308C11.7569 13.5414 11.1071 14.3442 11.1071 15.2031V17.1626L6.04989 12L11.1071 6.83741Z"/>
</svg>
