<svg width="24" height="24" viewBox="0 0 24 24" xmlns="http://www.w3.org/2000/svg">
<path fill-rule="evenodd" clip-rule="evenodd" d="M17.314 2.25C16.6874 2.25 16.1187 2.60862 15.8444 3.16916L15.3928 4.09213C15.3715 4.13572 15.3319 4.16309 15.2894 4.16931L14.2791 4.31733C13.6596 4.40817 13.1491 4.84479 12.9578 5.43807C12.7666 6.03073 12.9251 6.68259 13.37 7.12013L14.1013 7.83921C14.1346 7.87195 14.1512 7.92099 14.1428 7.9704L13.9703 8.98451C13.8659 9.59838 14.1156 10.2212 14.6195 10.5903C15.1243 10.9601 15.7951 11.0094 16.3485 10.7163L17.2522 10.2374C17.2911 10.2168 17.3369 10.2168 17.3758 10.2374L18.2796 10.7163C18.833 11.0094 19.5037 10.9601 20.0085 10.5903C20.5124 10.2212 20.7621 9.5983 20.6577 8.98445L20.4852 7.9704C20.4768 7.92099 20.4934 7.87195 20.5267 7.83921L21.258 7.12011C21.703 6.68258 21.8614 6.03075 21.6703 5.43808C21.479 4.84479 20.9684 4.40815 20.3489 4.3173L19.3386 4.16929C19.2962 4.16307 19.2566 4.1357 19.2353 4.09212L18.7836 3.16916C18.5093 2.60862 17.9407 2.25 17.314 2.25ZM6.6628 3.14474C4.77227 3.14474 3.25 4.68806 3.25 6.5791V14.6322C3.25 16.5232 4.77227 18.0665 6.6628 18.0665H7.69422V19.5024C7.69422 19.9787 7.9651 20.4166 8.39697 20.6258C8.82972 20.8355 9.34338 20.7761 9.71697 20.4748L12.7032 18.0665H17.314C19.2045 18.0665 20.7268 16.5232 20.7268 14.6322V12.8426C20.7268 12.4284 20.391 12.0926 19.9768 12.0926C19.5626 12.0926 19.2268 12.4284 19.2268 12.8426V14.6322C19.2268 15.7062 18.3647 16.5665 17.314 16.5665H12.4384C12.2671 16.5665 12.101 16.6252 11.9676 16.7327L9.19422 18.9693V17.3165C9.19422 16.9023 8.85843 16.5665 8.44422 16.5665H6.6628C5.61208 16.5665 4.75 15.7062 4.75 14.6322V6.5791C4.75 5.50507 5.61208 4.64474 6.6628 4.64474H11.1008C11.515 4.64474 11.8508 4.30895 11.8508 3.89474C11.8508 3.48052 11.515 3.14474 11.1008 3.14474H6.6628ZM7.5504 8.51345C7.13619 8.51345 6.8004 8.84924 6.8004 9.26345C6.8004 9.67767 7.13619 10.0135 7.5504 10.0135H11.1008C11.515 10.0135 11.8508 9.67767 11.8508 9.26345C11.8508 8.84924 11.515 8.51345 11.1008 8.51345H7.5504ZM7.5504 12.0926C7.13619 12.0926 6.8004 12.4284 6.8004 12.8426C6.8004 13.2568 7.13619 13.5926 7.5504 13.5926H14.6512C15.0654 13.5926 15.4012 13.2568 15.4012 12.8426C15.4012 12.4284 15.0654 12.0926 14.6512 12.0926H7.5504ZM17.314 3.75C17.2649 3.75 17.2163 3.77817 17.1917 3.82857L17.1767 3.85925L17.1409 3.93234L16.7401 4.75141C16.503 5.23611 16.0427 5.57496 15.5069 5.65346L14.7887 5.75869L14.4967 5.80147C14.4478 5.80867 14.4029 5.84408 14.3854 5.89842C14.3676 5.9534 14.3831 6.01257 14.4217 6.05059L15.153 6.76964C15.5378 7.14802 15.7119 7.69114 15.6216 8.22203L15.449 9.236C15.4393 9.29341 15.4633 9.34904 15.5059 9.38028C15.5476 9.41086 15.6015 9.41449 15.6462 9.39082L16.55 8.91199C17.0281 8.65865 17.5999 8.65865 18.0781 8.91199L18.9817 9.39078C19.0265 9.41448 19.0803 9.41086 19.1221 9.38027C19.1647 9.34903 19.1887 9.29347 19.179 9.23607L19.0064 8.22203C18.9161 7.69113 19.0902 7.14802 19.475 6.76965L20.2063 6.05061C20.2449 6.01259 20.2604 5.95339 20.2427 5.89841C20.2252 5.84406 20.1803 5.80866 20.1314 5.80146L19.1212 5.65344C18.5854 5.57494 18.1251 5.23611 17.8879 4.75141L17.4364 3.82857C17.4117 3.77821 17.3631 3.75 17.314 3.75Z"/>
</svg>
