<svg width="24" height="24" viewBox="0 0 24 24" fill="none" xmlns="http://www.w3.org/2000/svg">
<path fill-rule="evenodd" clip-rule="evenodd" d="M17.5701 5.61101C17.8456 5.47177 18.0967 5.28929 18.314 5.07111C18.5313 5.28927 18.7824 5.47174 19.0579 5.61097C18.9123 5.89213 18.8138 6.19519 18.7662 6.5077C18.4666 6.46012 18.1614 6.46012 17.8618 6.5077C17.8142 6.19521 17.7157 5.89215 17.5701 5.61101ZM20 11.156C19.553 11.1493 19.1054 11.0386 18.6946 10.821L18.314 10.6193L17.9337 10.8209C16.9565 11.3385 15.7715 11.2512 14.8808 10.5988C13.9925 9.94809 13.5547 8.85254 13.7379 7.77497L13.8142 7.32672L13.4936 7.01145C12.7101 6.24097 12.4325 5.09519 12.7681 4.05447C12.7855 4.0005 12.8044 3.94725 12.8248 3.89478L11.1008 3.89478H6.6628C5.19218 3.89478 4 5.0966 4 6.57913V14.6322C4 16.1147 5.19218 17.3166 6.6628 17.3166H8.44422V19.5024C8.44422 19.6937 8.55298 19.8681 8.72399 19.9509C8.89501 20.0338 9.098 20.0105 9.24616 19.891L12.4384 17.3166H17.314C18.7846 17.3166 20 16.1148 20 14.6322V13V11.156ZM6.80042 9.26349C6.80042 8.84928 7.1362 8.51349 7.55042 8.51349H11.1008C11.515 8.51349 11.8508 8.84928 11.8508 9.26349C11.8508 9.6777 11.515 10.0135 11.1008 10.0135H7.55042C7.1362 10.0135 6.80042 9.6777 6.80042 9.26349ZM6.80042 12.8426C6.80042 12.4284 7.1362 12.0926 7.55042 12.0926H14.6512C15.0654 12.0926 15.4012 12.4284 15.4012 12.8426C15.4012 13.2568 15.0654 13.5926 14.6512 13.5926H7.55042C7.1362 13.5926 6.80042 13.2568 6.80042 12.8426Z" fill="#1C1C1C"/>
<path d="M17.518 2.49886C17.6675 2.1934 17.9761 2 18.314 2C18.6519 2 18.9605 2.1934 19.11 2.49886L19.5616 3.42177C19.6909 3.68591 19.9408 3.86901 20.2299 3.91137L21.2401 4.05938C21.5744 4.10839 21.8521 4.34441 21.9565 4.66824C22.0609 4.99208 21.974 5.34759 21.7322 5.58536L21.0009 6.30443C20.7918 6.50998 20.6964 6.80606 20.7458 7.09621L20.9184 8.11026C20.9754 8.4459 20.8386 8.78511 20.5653 8.9853C20.292 9.18548 19.9297 9.21194 19.6307 9.05355L18.7269 8.57472C18.4684 8.43774 18.1596 8.43774 17.9011 8.57472L16.9973 9.05355C16.6983 9.21196 16.336 9.18551 16.0627 8.98532C15.7894 8.78513 15.6526 8.44591 15.7096 8.11026L15.8822 7.09621C15.9316 6.80606 15.8362 6.50998 15.6271 6.30443L14.8959 5.58536C14.6541 5.34758 14.5671 4.99207 14.6716 4.66825C14.776 4.34442 15.0537 4.10841 15.3879 4.0594L16.3981 3.91138C16.6873 3.86902 16.9372 3.68593 17.0665 3.42178L17.518 2.49886Z" fill="#1C1C1C" stroke="#1C1C1C" stroke-linecap="round" stroke-linejoin="round"/>
</svg>
