<svg width="24" height="24" viewBox="0 0 24 24" xmlns="http://www.w3.org/2000/svg">
<path fill-rule="evenodd" clip-rule="evenodd" d="M4 5.75C4 4.78351 4.78351 4 5.75 4H18.25C19.2165 4 20 4.78352 20 5.75V9.25025C20 10.2168 19.2165 11.0002 18.25 11.0002H5.75C4.78355 11.0002 4 10.2168 4 9.25025V5.75ZM5.75 5.5C5.61193 5.5 5.5 5.61193 5.5 5.75V9.25025C5.5 9.38827 5.61189 9.5002 5.75 9.5002H18.25C18.3881 9.5002 18.5 9.38828 18.5 9.25025V5.75C18.5 5.61192 18.3881 5.5 18.25 5.5H5.75ZM4 14.75C4 13.7835 4.78352 13 5.75 13H18.25C19.2165 13 20 13.7835 20 14.75V18.2502C20 19.2167 19.2165 20.0002 18.25 20.0002H5.75C4.78352 20.0002 4 19.2167 4 18.2502V14.75ZM5.75 14.5C5.61192 14.5 5.5 14.6119 5.5 14.75V18.2502C5.5 18.3883 5.61192 18.5002 5.75 18.5002H18.25C18.3881 18.5002 18.5 18.3883 18.5 18.2502V14.75C18.5 14.6119 18.3881 14.5 18.25 14.5H5.75Z"/>
</svg>
