<svg width="24" height="24" viewBox="0 0 24 24" xmlns="http://www.w3.org/2000/svg">
<path fill-rule="evenodd" clip-rule="evenodd" d="M4 5.60709C4 4.61519 4.89618 4 5.75 4H18.25C19.1039 4 20 4.6152 20 5.60709V6.89295C20 7.88489 19.1038 8.5 18.25 8.5H5.75C4.89623 8.5 4 7.8849 4 6.89295V5.60709ZM5.5 5.60799V6.89205C5.5002 6.89258 5.50055 6.89344 5.50114 6.89465C5.50372 6.89986 5.51169 6.913 5.53095 6.92951C5.57076 6.96362 5.64586 7 5.75 7H18.25C18.3542 7 18.4293 6.96362 18.4691 6.92951C18.4883 6.91301 18.4963 6.89987 18.4989 6.89465C18.4995 6.89345 18.4998 6.89258 18.5 6.89205V5.60798C18.4998 5.60745 18.4995 5.60659 18.4989 5.60537C18.4963 5.60014 18.4883 5.587 18.469 5.57049C18.4292 5.53638 18.3541 5.5 18.25 5.5H5.75C5.64588 5.5 5.57078 5.53637 5.53097 5.57049C5.51171 5.58701 5.50373 5.60015 5.50115 5.60538C5.50055 5.60659 5.5002 5.60746 5.5 5.60799ZM4 11.2673C4 10.2753 4.89618 9.66016 5.75 9.66016H18.25C19.1039 9.66016 20 10.2754 20 11.2673V12.5531C20 13.545 19.1038 14.1602 18.25 14.1602H5.75C4.89623 14.1602 4 13.5451 4 12.5531V11.2673ZM5.5 11.2681V12.5522C5.5002 12.5527 5.50055 12.5536 5.50114 12.5548C5.50372 12.56 5.51169 12.5732 5.53095 12.5897C5.57076 12.6238 5.64586 12.6602 5.75 12.6602H18.25C18.3542 12.6602 18.4293 12.6238 18.4691 12.5897C18.4883 12.5732 18.4963 12.56 18.4989 12.5548C18.4995 12.5536 18.4998 12.5527 18.5 12.5522V11.2681C18.4998 11.2676 18.4995 11.2667 18.4989 11.2655C18.4963 11.2603 18.4883 11.2472 18.469 11.2306C18.4292 11.1965 18.3541 11.1602 18.25 11.1602H5.75C5.64588 11.1602 5.57078 11.1965 5.53097 11.2307C5.51171 11.2472 5.50373 11.2603 5.50115 11.2655C5.50055 11.2667 5.5002 11.2676 5.5 11.2681ZM4 16.9274C4 15.9355 4.89618 15.3203 5.75 15.3203H18.25C19.1039 15.3203 20 15.9355 20 16.9274V18.2133C20 19.2052 19.1038 19.8203 18.25 19.8203H5.75C4.89623 19.8203 4 19.2052 4 18.2133V16.9274ZM5.5 16.9283V18.2124C5.5002 18.2129 5.50055 18.2138 5.50114 18.215C5.50372 18.2202 5.51169 18.2333 5.53095 18.2498C5.57076 18.2839 5.64586 18.3203 5.75 18.3203H18.25C18.3542 18.3203 18.4293 18.2839 18.4691 18.2498C18.4883 18.2333 18.4963 18.2202 18.4989 18.215C18.4995 18.2138 18.4998 18.2129 18.5 18.2124V16.9283C18.4998 16.9278 18.4995 16.9269 18.4989 16.9257C18.4963 16.9205 18.4883 16.9073 18.469 16.8908C18.4292 16.8567 18.3541 16.8203 18.25 16.8203H5.75C5.64588 16.8203 5.57078 16.8567 5.53097 16.8908C5.51171 16.9073 5.50373 16.9205 5.50115 16.9257C5.50055 16.9269 5.5002 16.9278 5.5 16.9283Z"/>
</svg>
