<svg width="24" height="24" viewBox="0 0 24 24" fill="none" xmlns="http://www.w3.org/2000/svg">
<path d="M5.75 7.75H18.25C18.8023 7.75 19.25 7.3663 19.25 6.89295V5.60709C19.25 5.13374 18.8023 4.75 18.25 4.75H5.75C5.19772 4.75 4.75 5.13374 4.75 5.60709V6.89295C4.75 7.3663 5.19772 7.75 5.75 7.75Z" fill="#1C1C1C"/>
<path d="M5.75 13.4102H18.25C18.8023 13.4102 19.25 13.0265 19.25 12.5531V11.2673C19.25 10.7939 18.8023 10.4102 18.25 10.4102H5.75C5.19772 10.4102 4.75 10.7939 4.75 11.2673V12.5531C4.75 13.0265 5.19772 13.4102 5.75 13.4102Z" fill="#1C1C1C"/>
<path d="M5.75 19.0703H18.25C18.8023 19.0703 19.25 18.6866 19.25 18.2133V16.9274C19.25 16.4541 18.8023 16.0703 18.25 16.0703H5.75C5.19772 16.0703 4.75 16.4541 4.75 16.9274V18.2133C4.75 18.6866 5.19772 19.0703 5.75 19.0703Z" fill="#1C1C1C"/>
<path d="M5.75 7.75H18.25C18.8023 7.75 19.25 7.3663 19.25 6.89295V5.60709C19.25 5.13374 18.8023 4.75 18.25 4.75H5.75C5.19772 4.75 4.75 5.13374 4.75 5.60709V6.89295C4.75 7.3663 5.19772 7.75 5.75 7.75Z" stroke="#1C1C1C" stroke-linecap="round" stroke-linejoin="round"/>
<path d="M5.75 13.4102H18.25C18.8023 13.4102 19.25 13.0265 19.25 12.5531V11.2673C19.25 10.7939 18.8023 10.4102 18.25 10.4102H5.75C5.19772 10.4102 4.75 10.7939 4.75 11.2673V12.5531C4.75 13.0265 5.19772 13.4102 5.75 13.4102Z" stroke="#1C1C1C" stroke-linecap="round" stroke-linejoin="round"/>
<path d="M5.75 19.0703H18.25C18.8023 19.0703 19.25 18.6866 19.25 18.2133V16.9274C19.25 16.4541 18.8023 16.0703 18.25 16.0703H5.75C5.19772 16.0703 4.75 16.4541 4.75 16.9274V18.2133C4.75 18.6866 5.19772 19.0703 5.75 19.0703Z" stroke="#1C1C1C" stroke-linecap="round" stroke-linejoin="round"/>
</svg>
