<svg width="24" height="24" viewBox="0 0 24 24" xmlns="http://www.w3.org/2000/svg">
<path fill-rule="evenodd" clip-rule="evenodd" d="M11.6897 3.56084C12.3637 2.61714 13.4447 2.22104 14.4939 2.35219C14.5173 2.35511 14.5405 2.35914 14.5635 2.36425C15.3248 2.53342 15.8354 3.11648 16.1583 3.7792C16.4834 4.44622 16.6752 5.29878 16.7609 6.24233C16.9332 8.13718 16.6934 10.5779 16.0261 13.0928C16.0221 13.1079 16.0177 13.1228 16.0127 13.1376L15.9009 13.4733C16.9308 13.0246 17.829 12.5289 18.5463 12.0244C19.2429 11.5344 19.7342 11.0603 20.0184 10.644C20.3041 10.2256 20.3236 9.95694 20.2817 9.80238C20.1986 9.51709 19.8766 9.21369 18.8873 8.91689C18.4906 8.79787 18.2654 8.37975 18.3844 7.98301C18.5035 7.58626 18.9216 7.36113 19.3183 7.48015C20.3266 7.78264 21.4063 8.27857 21.7247 9.39306L21.7263 9.39836C21.9335 10.1446 21.6765 10.8757 21.2572 11.4898C20.8349 12.1083 20.1883 12.7034 19.4092 13.2513C17.8456 14.3512 15.6088 15.3588 13.0925 16.0264C13.0642 16.0339 13.0354 16.0398 13.0063 16.0439C12.9007 16.059 12.7971 16.0767 12.6942 16.0964C13.5894 16.7599 14.4553 17.2844 15.2404 17.6468C16.0053 17.9998 16.6544 18.1806 17.156 18.2106C17.6121 18.2378 17.8767 18.1395 18.0313 18.0099C18.355 17.5175 18.3957 16.9229 18.2134 16.4973C18.0502 16.1166 18.2266 15.6757 18.6073 15.5125C18.988 15.3493 19.4289 15.5257 19.5921 15.9064C20.0029 16.8649 19.8541 18.041 19.2129 18.9387C19.1889 18.9724 19.1621 19.0039 19.1329 19.0331C18.5799 19.5861 17.8243 19.7531 17.0667 19.7079C16.3115 19.6628 15.4725 19.406 14.6118 19.0087C13.3368 18.4203 11.9283 17.4837 10.5359 16.2913C10.5187 16.2777 10.5021 16.2635 10.4861 16.2485C10.0095 15.8381 9.53494 15.3979 9.06852 14.9314L9.05482 14.9177C8.96419 14.8271 8.87579 14.7387 8.78918 14.6514C8.67105 15.7395 8.65485 16.7353 8.73255 17.5841C8.80919 18.4212 8.97357 19.0742 9.19087 19.5239C9.39041 19.9368 9.59556 20.1052 9.75459 20.1663C10.2826 20.2127 10.7755 20.007 11.0894 19.5675C11.3302 19.2304 11.7986 19.1524 12.1357 19.3931C12.4727 19.6339 12.5508 20.1023 12.31 20.4394C11.636 21.3831 10.555 21.7792 9.50582 21.648C9.46944 21.6435 9.43344 21.6363 9.39812 21.6264C8.66185 21.4219 8.16222 20.8428 7.8403 20.1766C7.51675 19.507 7.32473 18.6595 7.2388 17.7208C7.06637 15.8374 7.3066 13.4213 7.97355 10.9074C7.97755 10.8923 7.98203 10.8774 7.98696 10.8626C8.02381 10.752 8.0623 10.6324 8.10202 10.5076C7.04819 10.961 6.13837 11.4633 5.41837 11.974C4.72947 12.4628 4.2482 12.9354 3.97155 13.3498C3.69441 13.7649 3.67422 14.0365 3.71804 14.1978C3.80105 14.4831 4.12306 14.7865 5.1124 15.0833C5.50915 15.2023 5.73428 15.6205 5.61526 16.0172C5.49624 16.4139 5.07812 16.6391 4.68138 16.5201C3.67307 16.2176 2.59338 15.7216 2.27496 14.6071L2.27344 14.6018C2.06806 13.8625 2.31176 13.1344 2.72406 12.5168C3.13833 11.8964 3.77627 11.2999 4.55048 10.7506C6.09935 9.65186 8.32975 8.64655 10.887 7.97904C11.0334 7.93104 11.1845 7.88835 11.3372 7.84995C10.4213 7.18115 9.5319 6.65579 8.72812 6.29379C7.95585 5.94597 7.29908 5.76548 6.7955 5.73141C6.36758 5.70245 6.1257 5.78145 5.99286 5.87348C5.74482 6.37385 5.69582 6.99251 5.89926 7.53501C6.0447 7.92285 5.8482 8.35516 5.46036 8.5006C5.07252 8.64604 4.64021 8.44954 4.49477 8.0617C4.1123 7.04178 4.24088 5.90907 4.74592 5.02525C4.77899 4.96737 4.81963 4.91416 4.86677 4.86702C5.40543 4.32836 6.16012 4.18498 6.89678 4.23483C7.64059 4.28516 8.47819 4.53611 9.3441 4.9261C11.0817 5.70867 13.0805 7.11804 14.9312 8.96873L14.9449 8.98244C15.0384 9.07594 15.1295 9.16709 15.2188 9.25706C15.3294 8.19151 15.343 7.21334 15.2671 6.37814C15.1903 5.53344 15.0257 4.87912 14.8099 4.43631C14.6063 4.01844 14.4054 3.87779 14.2664 3.83593C13.7304 3.78207 13.2284 3.98727 12.9103 4.4327C12.6695 4.76976 12.2011 4.84783 11.864 4.60707C11.527 4.36631 11.4489 3.8979 11.6897 3.56084ZM14.9348 11.149C14.6216 10.7812 14.2928 10.4517 13.8705 10.0294C13.5375 9.69641 13.2009 9.38003 12.8634 9.08122C12.3211 9.17014 11.7934 9.25799 11.3366 9.41024C11.3207 9.41557 11.3045 9.42036 11.2882 9.42459C10.8102 9.54889 10.3465 9.68511 9.89954 9.83116C9.8096 10.0829 9.72054 10.3652 9.62644 10.6636C9.56 10.8743 9.49104 11.0929 9.41749 11.3143C9.28726 11.8071 9.17506 12.2933 9.08037 12.7693C9.38893 13.1298 9.71382 13.4554 10.1292 13.8708C10.4896 14.2312 10.8532 14.5731 11.2165 14.895C11.3494 14.8656 11.4878 14.8323 11.6377 14.7962C11.6703 14.7884 11.7035 14.7804 11.7373 14.7723C12.0398 14.6997 12.379 14.6208 12.749 14.5656C13.2086 14.4428 13.6562 14.3085 14.0893 14.1647L14.5823 12.6857C14.7196 12.1659 14.837 11.6521 14.9348 11.149Z"/>
<path d="M13 12C13 12.5523 12.5523 13 12 13C11.4477 13 11 12.5523 11 12C11 11.4477 11.4477 11 12 11C12.5523 11 13 11.4477 13 12Z"/>
</svg>
