<svg width="24" height="24" viewBox="0 0 24 24" xmlns="http://www.w3.org/2000/svg">
<path d="M11.1686 4.74667C8.57078 4.74666 6.22869 6.31155 5.23451 8.7117C4.24023 11.1121 4.79003 13.8751 6.62748 15.7121C8.46493 17.549 11.2281 18.098 13.6282 17.1031C14.3925 16.7863 15.072 16.3328 15.6432 15.7779C15.6624 15.7531 15.6835 15.7292 15.7063 15.7063C15.729 15.6836 15.7528 15.6627 15.7775 15.6435C16.9189 14.4672 17.5923 12.872 17.5916 11.167C17.5916 11.0063 17.5771 10.8396 17.5586 10.6339C17.5215 10.2214 17.8258 9.85682 18.2384 9.81969C18.6509 9.78256 19.0154 10.0869 19.0526 10.4994L19.0538 10.5126C19.071 10.7041 19.0916 10.9325 19.0916 11.1664C19.0923 13.0493 18.4265 14.8239 17.2767 16.2161L20.5269 19.4663C20.8198 19.7592 20.8198 20.2341 20.5269 20.527C20.234 20.8199 19.7592 20.8199 19.4663 20.527L16.2163 17.2771C15.619 17.7709 14.943 18.1818 14.2026 18.4887C11.242 19.716 7.83353 19.0388 5.56697 16.7729C3.30041 14.5069 2.62221 11.0987 3.8487 8.13767C5.07518 5.17668 7.96474 3.24623 11.1697 3.24667H11.1714C12.4816 3.24987 13.7701 3.58093 14.9195 4.20968C15.2829 4.40847 15.4164 4.8642 15.2176 5.2276C15.0188 5.591 14.5631 5.72445 14.1997 5.52566C13.2701 5.01719 12.2281 4.7494 11.1686 4.74667Z"/>
<path d="M17.9989 6.15736C18.2913 6.45081 18.2904 6.92568 17.9969 7.21801L11.6969 13.494C11.4037 13.7862 10.9292 13.7855 10.6367 13.4925L8.07575 10.9265C7.78314 10.6333 7.7836 10.1584 8.07678 9.86583C8.36996 9.57322 8.84483 9.57368 9.13744 9.86686L11.1691 11.9025L16.9383 6.15533C17.2317 5.863 17.7066 5.86391 17.9989 6.15736Z"/>
</svg>
