<svg width="24" height="24" viewBox="0 0 24 24" fill="none" xmlns="http://www.w3.org/2000/svg">
<path d="M5 8.25H7.5M13 8.25H19.5M5 16.25H12.5M18 16.25H19.5M12.5 8.25C12.5 9.49264 11.4926 10.5 10.25 10.5C9.00736 10.5 8 9.49264 8 8.25C8 7.00736 9.00736 6 10.25 6C11.4926 6 12.5 7.00736 12.5 8.25ZM17.5 16.25C17.5 17.4926 16.4926 18.5 15.25 18.5C14.0074 18.5 13 17.4926 13 16.25C13 15.0074 14.0074 14 15.25 14C16.4926 14 17.5 15.0074 17.5 16.25Z" stroke="#1C1C1C" stroke-width="1.5" stroke-linecap="round" stroke-linejoin="round"/>
</svg>
