<svg width="24" height="24" viewBox="0 0 24 24" xmlns="http://www.w3.org/2000/svg">
<path fill-rule="evenodd" clip-rule="evenodd" d="M11.2777 2.58627C10.5733 2.80041 10.0456 3.5143 9.92654 4.41431C9.83711 5.08989 9.76716 5.20559 9.31759 5.42048C8.83009 5.65355 8.79021 5.64901 8.3293 5.30736C7.65947 4.81093 6.61921 4.73809 5.97642 5.14274C4.87649 5.83513 4.55351 7.22171 5.26685 8.18987C5.54225 8.56363 5.62443 8.8185 5.55675 9.08913C5.41067 9.67475 5.23694 9.8012 4.43311 9.90812C3.11625 10.0833 2.27858 11.2238 2.55156 12.47C2.77151 13.4739 3.34089 13.9585 4.53387 14.1572C5.20461 14.2688 5.3868 14.4113 5.55252 14.9537C5.62413 15.1878 5.53817 15.4623 5.26882 15.8596C4.56288 16.901 4.87604 18.262 5.97642 18.9344C6.6526 19.3479 7.34675 19.3124 8.22189 18.8201C8.91257 18.4315 8.98886 18.4188 9.36593 18.6308C9.6664 18.7998 9.81384 19.0519 9.9418 19.6151C10.1717 20.6272 10.3949 21.006 10.9222 21.2795C11.4785 21.5678 12.6249 21.5746 13.1688 21.2927C13.6276 21.0547 14.0039 20.3879 14.1975 19.4687C14.2867 19.046 14.4474 18.799 14.7394 18.6358C15.1301 18.4173 15.1982 18.4282 15.8946 18.8201C16.7436 19.2979 17.2369 19.3385 17.9679 18.9908C18.6234 18.6788 19.0917 18.0231 19.1915 17.2768C19.2524 16.8214 19.1749 16.5255 18.8362 15.9206C18.4282 15.1919 18.4164 15.1231 18.6341 14.7335C18.8087 14.4206 19.05 14.2787 19.6243 14.1509C21.0157 13.8412 21.5 13.2931 21.5 12.0284C21.5 10.7728 20.903 10.1245 19.5464 9.90706C18.9041 9.80408 18.4786 9.40745 18.4786 8.91164C18.4786 8.76732 18.6486 8.3981 18.8563 8.09128C20.1356 6.20161 17.7671 3.94151 15.8653 5.23694C15.4691 5.50695 15.1952 5.59312 14.9616 5.52134C14.4207 5.35521 14.2785 5.17257 14.1672 4.50018C14.0326 3.688 13.7274 3.0939 13.3014 2.81434C12.85 2.51813 11.8663 2.40727 11.2777 2.58627ZM12.5482 4.13036C12.6302 4.23455 12.7355 4.62042 12.7822 4.98797C12.8861 5.80726 13.2541 6.32488 14.0129 6.71969C14.8325 7.14599 15.7194 7.11101 16.4342 6.62398C16.8888 6.31443 17.0787 6.26143 17.3026 6.38152C17.7712 6.63291 17.7852 6.94503 17.3654 7.77674C16.8995 8.69992 16.8909 8.80942 17.2103 9.7488C17.5106 10.6325 18.1804 11.1751 19.1328 11.3059C19.9467 11.4177 20.2115 11.6626 20.0813 12.1824C19.9857 12.5645 19.8564 12.6313 18.8985 12.7931C17.3165 13.0605 16.462 15.1782 17.4357 16.419C17.7865 16.8659 17.7685 17.3882 17.3943 17.6234C17.2005 17.745 16.9504 17.6861 16.3345 17.3738C15.3884 16.8939 14.9964 16.872 14.1613 17.2521C13.405 17.5964 12.9269 18.181 12.8044 18.9111C12.6509 19.8259 12.5841 19.9742 12.2829 20.0701C11.8324 20.2135 11.3789 19.8889 11.3751 19.4205C11.3697 18.7453 10.8494 17.7933 10.301 17.4555C9.40944 16.9059 8.7677 16.8762 7.82126 17.3404C6.93766 17.7738 6.65924 17.7661 6.41104 17.3013C6.29139 17.0772 6.34412 16.8933 6.6529 16.4582C7.12922 15.7873 7.17559 14.8876 6.77738 14.0467C6.43461 13.3229 5.79967 12.8677 4.98874 12.7646C4.22448 12.6672 3.97613 12.4932 3.97613 12.0549C3.97613 11.6294 4.24911 11.3616 4.68313 11.3616C6.51588 11.3616 7.66808 9.13653 6.64097 7.58048C6.64097 7.58048 6.24881 7.25237 6.23414 6.96411C6.22159 6.7175 6.22549 6.45898 6.41104 6.29656C6.57046 6.15702 6.78038 6.19376 6.99174 6.20464C7.27928 6.21945 7.60659 6.61247 7.60659 6.61247C8.39698 7.13676 9.27196 7.15478 10.1423 6.66441C10.8124 6.28687 11.3785 5.37838 11.3785 4.6807C11.3785 4.47383 11.46 4.22274 11.5597 4.12279C11.7965 3.88548 12.3586 3.88987 12.5482 4.13036Z"/>
<path fill-rule="evenodd" clip-rule="evenodd" d="M12 11.1983C11.5571 11.1983 11.1982 11.5572 11.1982 12C11.1982 12.4429 11.5571 12.8018 12 12.8018C12.4428 12.8018 12.8017 12.4429 12.8017 12C12.8017 11.5572 12.4428 11.1983 12 11.1983ZM9.69824 12C9.69824 10.7288 10.7287 9.6983 12 9.6983C13.2712 9.6983 14.3017 10.7288 14.3017 12C14.3017 13.2713 13.2712 14.3018 12 14.3018C10.7287 14.3018 9.69824 13.2713 9.69824 12Z"/>
</svg>
