<svg width="24" height="24" viewBox="0 0 24 24" xmlns="http://www.w3.org/2000/svg">
<path fill-rule="evenodd" clip-rule="evenodd" d="M13.3892 4.07176C13.3044 3.45752 12.7795 3 12.1595 3H11.8405C11.2205 3 10.6956 3.45752 10.6108 4.07176L10.5026 4.856C10.4336 5.35632 10.0638 5.75458 9.59445 5.9411C9.52469 5.96883 9.45543 5.99773 9.38686 6.02779C8.92407 6.23057 8.38061 6.21319 7.97639 5.91003L7.59458 5.62367C7.10036 5.253 6.40879 5.30215 5.97196 5.73898L5.73899 5.97196C5.30216 6.40879 5.253 7.10035 5.62367 7.59457L5.91003 7.97639C6.2132 8.3806 6.23057 8.92406 6.02779 9.38686C5.99773 9.45543 5.96883 9.52469 5.9411 9.59445C5.75458 10.0638 5.35632 10.4336 4.856 10.5026L4.07176 10.6108C3.45752 10.6956 3 11.2204 3 11.8405V12.1595C3 12.7795 3.45752 13.3044 4.07176 13.3892L4.856 13.4974C5.35632 13.5664 5.75458 13.9362 5.9411 14.4055C5.96883 14.4753 5.99773 14.5446 6.02779 14.6131C6.23057 15.0759 6.21319 15.6194 5.91003 16.0236L5.62367 16.4054C5.253 16.8996 5.30215 17.5912 5.73898 18.028L5.97196 18.261C6.40879 18.6979 7.10035 18.747 7.59457 18.3763L7.97639 18.09C8.3806 17.7868 8.92406 17.7694 9.38685 17.9723C9.45543 18.0023 9.52469 18.0311 9.59445 18.0589C10.0638 18.2454 10.4336 18.6437 10.5026 19.144L10.6108 19.9282C10.6956 20.5424 11.2205 21 11.8405 21H12.1595C12.7795 21 13.3044 20.5424 13.3892 19.9282L13.4974 19.144C13.5664 18.6437 13.9362 18.2454 14.4055 18.0589C14.4753 18.0311 14.5446 18.0023 14.6131 17.9722C15.0759 17.7694 15.6194 17.7868 16.0236 18.09L16.4054 18.3763C16.8996 18.747 17.5912 18.6979 18.028 18.261L18.261 18.028C18.6979 17.5912 18.747 16.8996 18.3763 16.4054L18.09 16.0236C17.7868 15.6194 17.7694 15.0759 17.9723 14.6131C18.0023 14.5446 18.0311 14.4753 18.0589 14.4055C18.2454 13.9362 18.6437 13.5664 19.144 13.4974L19.9282 13.3892C20.5424 13.3044 21 12.7795 21 12.1595V11.8405C21 11.2205 20.5424 10.6956 19.9282 10.6108L19.144 10.5026C18.6437 10.4336 18.2454 10.0638 18.0589 9.59445C18.0311 9.52469 18.0023 9.45543 17.9722 9.38685C17.7694 8.92406 17.7868 8.3806 18.09 7.97638L18.3763 7.59459C18.747 7.10037 18.6979 6.40882 18.261 5.97199L18.028 5.739C17.5912 5.30217 16.8996 5.25303 16.4054 5.62369L16.0236 5.91003C15.6194 6.2132 15.0759 6.23057 14.6131 6.02779C14.5446 5.99773 14.4753 5.96883 14.4055 5.9411C13.9362 5.75458 13.5664 5.35632 13.4974 4.856L13.3892 4.07176ZM12 13.5517C12.857 13.5517 13.5517 12.857 13.5517 12C13.5517 11.143 12.857 10.4483 12 10.4483C11.143 10.4483 10.4483 11.143 10.4483 12C10.4483 12.857 11.143 13.5517 12 13.5517Z"/>
</svg>
