<svg width="24" height="24" viewBox="0 0 24 24" xmlns="http://www.w3.org/2000/svg">
<path fill-rule="evenodd" clip-rule="evenodd" d="M10.25 6.75C9.42157 6.75 8.75 7.42157 8.75 8.25C8.75 9.07843 9.42157 9.75 10.25 9.75C11.0784 9.75 11.75 9.07843 11.75 8.25C11.75 7.42157 11.0784 6.75 10.25 6.75ZM7.34451 7.5C7.67755 6.20608 8.85212 5.25 10.25 5.25C11.6479 5.25 12.8225 6.20608 13.1555 7.5H19.5C19.9142 7.5 20.25 7.83579 20.25 8.25C20.25 8.66421 19.9142 9 19.5 9H13.1555C12.8225 10.2939 11.6479 11.25 10.25 11.25C8.85212 11.25 7.67755 10.2939 7.34451 9H5C4.58579 9 4.25 8.66421 4.25 8.25C4.25 7.83579 4.58579 7.5 5 7.5H7.34451ZM15.25 14.75C14.4216 14.75 13.75 15.4216 13.75 16.25C13.75 17.0784 14.4216 17.75 15.25 17.75C16.0784 17.75 16.75 17.0784 16.75 16.25C16.75 15.4216 16.0784 14.75 15.25 14.75ZM12.3445 15.5C12.6775 14.2061 13.8521 13.25 15.25 13.25C16.6479 13.25 17.8225 14.2061 18.1555 15.5H19.5C19.9142 15.5 20.25 15.8358 20.25 16.25C20.25 16.6642 19.9142 17 19.5 17H18.1555C17.8225 18.2939 16.6479 19.25 15.25 19.25C13.8521 19.25 12.6775 18.2939 12.3445 17H5C4.58579 17 4.25 16.6642 4.25 16.25C4.25 15.8358 4.58579 15.5 5 15.5H12.3445Z"/>
</svg>
