<svg width="24" height="24" viewBox="0 0 24 24" xmlns="http://www.w3.org/2000/svg">
<path fill-rule="evenodd" clip-rule="evenodd" d="M17.4286 5.75C16.6988 5.75 16.1071 6.34162 16.1071 7.07143C16.1071 7.31336 16.1715 7.538 16.2835 7.7316C16.5131 8.12853 16.9404 8.39286 17.4286 8.39286C18.1584 8.39286 18.75 7.80123 18.75 7.07143C18.75 6.34162 18.1584 5.75 17.4286 5.75ZM14.6071 7.07143C14.6071 5.5132 15.8703 4.25 17.4286 4.25C18.9868 4.25 20.25 5.5132 20.25 7.07143C20.25 8.62966 18.9868 9.89286 17.4286 9.89286C16.6343 9.89286 15.9173 9.56444 15.4052 9.03757L9.81801 11.6024C9.86697 11.8106 9.89286 12.0275 9.89286 12.25C9.89286 12.4725 9.86697 12.6894 9.81801 12.8976L15.4052 15.4624C15.9173 14.9356 16.6343 14.6071 17.4286 14.6071C18.9868 14.6071 20.25 15.8703 20.25 17.4286C20.25 18.9868 18.9868 20.25 17.4286 20.25C15.8703 20.25 14.6071 18.9868 14.6071 17.4286C14.6071 17.2061 14.633 16.9892 14.682 16.781L9.09485 14.2161C8.58273 14.743 7.86569 15.0714 7.07143 15.0714C5.5132 15.0714 4.25 13.8082 4.25 12.25C4.25 10.6918 5.5132 9.42857 7.07143 9.42857C7.86569 9.42857 8.58273 9.75699 9.09485 10.2839L14.682 7.71904C14.633 7.51082 14.6071 7.29393 14.6071 7.07143ZM7.07143 10.9286C6.34162 10.9286 5.75 11.5202 5.75 12.25C5.75 12.9798 6.34162 13.5714 7.07143 13.5714C7.5596 13.5714 7.98692 13.3071 8.21653 12.9102C8.32852 12.7166 8.39286 12.4919 8.39286 12.25C8.39286 12.0081 8.32852 11.7834 8.21653 11.5898C7.98692 11.1929 7.5596 10.9286 7.07143 10.9286ZM17.4286 16.1071C16.9404 16.1071 16.5131 16.3715 16.2835 16.7684C16.1715 16.962 16.1071 17.1866 16.1071 17.4286C16.1071 18.1584 16.6988 18.75 17.4286 18.75C18.1584 18.75 18.75 18.1584 18.75 17.4286C18.75 16.6988 18.1584 16.1071 17.4286 16.1071Z"/>
</svg>
