<svg width="24" height="24" viewBox="0 0 24 24" fill="none" xmlns="http://www.w3.org/2000/svg">
<path fill-rule="evenodd" clip-rule="evenodd" d="M9.5 9.5H8H7C6.44772 9.5 6 9.94772 6 10.5V18.5C6 19.0523 6.44772 19.5 7 19.5H17C17.5523 19.5 18 19.0523 18 18.5V10.5C18 9.94772 17.5523 9.5 17 9.5H16H14.5V14.5C14.5 15.8807 13.3807 17 12 17C10.6193 17 9.5 15.8807 9.5 14.5V9.5Z" fill="#1C1C1C"/>
<path d="M9.5 9.5H10C10 9.22386 9.77614 9 9.5 9V9.5ZM14.5 9.5V9C14.2239 9 14 9.22386 14 9.5H14.5ZM9.5 9H8V10H9.5V9ZM8 9H7V10H8V9ZM7 9C6.17157 9 5.5 9.67157 5.5 10.5H6.5C6.5 10.2239 6.72386 10 7 10V9ZM5.5 10.5V18.5H6.5V10.5H5.5ZM5.5 18.5C5.5 19.3284 6.17157 20 7 20V19C6.72386 19 6.5 18.7761 6.5 18.5H5.5ZM7 20H17V19H7V20ZM17 20C17.8284 20 18.5 19.3284 18.5 18.5H17.5C17.5 18.7761 17.2761 19 17 19V20ZM18.5 18.5V10.5H17.5V18.5H18.5ZM18.5 10.5C18.5 9.67157 17.8284 9 17 9V10C17.2761 10 17.5 10.2239 17.5 10.5H18.5ZM17 9H16V10H17V9ZM16 9H14.5V10H16V9ZM14 9.5V14.5H15V9.5H14ZM14 14.5C14 15.6046 13.1046 16.5 12 16.5V17.5C13.6569 17.5 15 16.1569 15 14.5H14ZM12 16.5C10.8954 16.5 10 15.6046 10 14.5H9C9 16.1569 10.3431 17.5 12 17.5V16.5ZM10 14.5V9.5H9V14.5H10Z" fill="#1C1C1C"/>
<path d="M12 14.5V5M12 5L14 7M12 5L10 7" stroke="#1C1C1C" stroke-linecap="round" stroke-linejoin="round"/>
</svg>
