<svg width="24" height="24" viewBox="0 0 24 24" fill="none" xmlns="http://www.w3.org/2000/svg">
<path d="M19.5 7.07143C19.5 8.21545 18.5726 9.14286 17.4286 9.14286C16.6619 9.14286 15.9924 8.72629 15.6343 8.10714C15.458 7.80246 15.3571 7.44873 15.3571 7.07143C15.3571 5.92741 16.2846 5 17.4286 5C18.5726 5 19.5 5.92741 19.5 7.07143Z" fill="#1C1C1C"/>
<path d="M9.14286 12.25C9.14286 12.6273 9.04198 12.981 8.86574 13.2857C8.50758 13.9049 7.83815 14.3214 7.07143 14.3214C5.92741 14.3214 5 13.394 5 12.25C5 11.106 5.92741 10.1786 7.07143 10.1786C7.83815 10.1786 8.50758 10.5951 8.86574 11.2143C9.04198 11.519 9.14286 11.8727 9.14286 12.25Z" fill="#1C1C1C"/>
<path d="M19.5 17.4286C19.5 18.5726 18.5726 19.5 17.4286 19.5C16.2846 19.5 15.3571 18.5726 15.3571 17.4286C15.3571 17.0513 15.458 16.6975 15.6343 16.3929C15.9924 15.7737 16.6619 15.3571 17.4286 15.3571C18.5726 15.3571 19.5 16.2846 19.5 17.4286Z" fill="#1C1C1C"/>
<path d="M15.6343 8.10714C15.9924 8.72629 16.6619 9.14286 17.4286 9.14286C18.5726 9.14286 19.5 8.21545 19.5 7.07143C19.5 5.92741 18.5726 5 17.4286 5C16.2846 5 15.3571 5.92741 15.3571 7.07143C15.3571 7.44873 15.458 7.80246 15.6343 8.10714ZM15.6343 8.10714L8.86574 11.2143M8.86574 11.2143C8.50758 10.5951 7.83815 10.1786 7.07143 10.1786C5.92741 10.1786 5 11.106 5 12.25C5 13.394 5.92741 14.3214 7.07143 14.3214C7.83815 14.3214 8.50758 13.9049 8.86574 13.2857M8.86574 11.2143C9.04198 11.519 9.14286 11.8727 9.14286 12.25C9.14286 12.6273 9.04198 12.981 8.86574 13.2857M8.86574 13.2857L15.6343 16.3929M15.6343 16.3929C15.458 16.6975 15.3571 17.0513 15.3571 17.4286C15.3571 18.5726 16.2846 19.5 17.4286 19.5C18.5726 19.5 19.5 18.5726 19.5 17.4286C19.5 16.2846 18.5726 15.3571 17.4286 15.3571C16.6619 15.3571 15.9924 15.7737 15.6343 16.3929Z" stroke="#1C1C1C" stroke-width="1.5"/>
</svg>
