<svg width="24" height="24" viewBox="0 0 24 24" xmlns="http://www.w3.org/2000/svg">
<path fill-rule="evenodd" clip-rule="evenodd" d="M11.4697 4.46967C11.7626 4.17678 12.2374 4.17678 12.5303 4.46967L14.5303 6.46967C14.8232 6.76256 14.8232 7.23744 14.5303 7.53033C14.2374 7.82322 13.7626 7.82322 13.4697 7.53033L12.75 6.81066V14.5C12.75 14.9142 12.4142 15.25 12 15.25C11.5858 15.25 11.25 14.9142 11.25 14.5V6.81066L10.5303 7.53033C10.2374 7.82322 9.76256 7.82322 9.46967 7.53033C9.17678 7.23744 9.17678 6.76256 9.46967 6.46967L11.4697 4.46967ZM5.25 10.5C5.25 9.5335 6.0335 8.75 7 8.75H8C8.41421 8.75 8.75 9.08579 8.75 9.5C8.75 9.91421 8.41421 10.25 8 10.25H7C6.86193 10.25 6.75 10.3619 6.75 10.5V18.5C6.75 18.6381 6.86193 18.75 7 18.75H17C17.1381 18.75 17.25 18.6381 17.25 18.5V10.5C17.25 10.3619 17.1381 10.25 17 10.25H16C15.5858 10.25 15.25 9.91421 15.25 9.5C15.25 9.08579 15.5858 8.75 16 8.75H17C17.9665 8.75 18.75 9.5335 18.75 10.5V18.5C18.75 19.4665 17.9665 20.25 17 20.25H7C6.0335 20.25 5.25 19.4665 5.25 18.5V10.5Z"/>
</svg>
