<svg width="24" height="24" viewBox="0 0 24 24" xmlns="http://www.w3.org/2000/svg">
<path fill-rule="evenodd" clip-rule="evenodd" d="M9.00001 10C9.00001 9.44772 9.44772 9 10 9H10.001C10.5533 9 11.001 9.44772 11.001 10C11.001 10.5523 10.5533 11 10.001 11H10C9.44772 11 9.00001 10.5523 9.00001 10ZM12.999 10C12.999 9.44772 13.4467 9 13.999 9C14.5513 9 15 9.44772 15 10C15 10.5523 14.5523 11 14 11C13.4477 11 12.999 10.5523 12.999 10Z"/>
<path d="M9.9132 13.5923L9.91201 13.5898C9.68689 13.0891 9.09947 12.8631 8.59637 13.0851C8.09107 13.308 7.86216 13.8983 8.08509 14.4036L8.10767 14.4526C8.11904 14.4765 8.13434 14.5076 8.15368 14.5451C8.19229 14.6198 8.24745 14.7203 8.32016 14.838C8.46453 15.0717 8.68397 15.3829 8.98831 15.6965C9.59984 16.3265 10.593 17 12 17C13.407 17 14.4002 16.3265 15.0117 15.6965C15.316 15.3829 15.5355 15.0717 15.6798 14.838C15.7526 14.7203 15.8077 14.6198 15.8463 14.5451C15.8657 14.5076 15.881 14.4765 15.8923 14.4526L15.9065 14.4223L15.9149 14.4036C16.1378 13.8983 15.9089 13.308 15.4036 13.0851C14.9005 12.8631 14.3131 13.0891 14.088 13.5898L14.0868 13.5923C14.0842 13.5978 14.0785 13.6096 14.0696 13.6268C14.0517 13.6615 14.0214 13.7172 13.9783 13.787C13.891 13.9283 13.7575 14.1171 13.5765 14.3035C13.2175 14.6735 12.7107 15 12 15C11.2893 15 10.7825 14.6735 10.4235 14.3035C10.2425 14.1171 10.109 13.9283 10.0218 13.787C9.97866 13.7172 9.94835 13.6615 9.93043 13.6268C9.92151 13.6096 9.91578 13.5978 9.9132 13.5923Z"/>
<path fill-rule="evenodd" clip-rule="evenodd" d="M12 4.75C7.99594 4.75 4.75 7.99594 4.75 12C4.75 16.0041 7.99594 19.25 12 19.25C16.0041 19.25 19.25 16.0041 19.25 12C19.25 7.99594 16.0041 4.75 12 4.75ZM3.25 12C3.25 7.16751 7.16751 3.25 12 3.25C16.8325 3.25 20.75 7.16751 20.75 12C20.75 16.8325 16.8325 20.75 12 20.75C7.16751 20.75 3.25 16.8325 3.25 12Z"/>
</svg>
