<svg width="24" height="24" viewBox="0 0 24 24" fill="none" xmlns="http://www.w3.org/2000/svg">
<path d="M13.999 10H14M10 10H10.001" stroke="#1C1C1C" stroke-width="2" stroke-linecap="round"/>
<path d="M9.68619 13.6973C9.519 13.3183 9.07624 13.1466 8.69727 13.3138C8.3183 13.481 8.14662 13.9238 8.31381 14.3027L9.68619 13.6973ZM15.6862 14.3027C15.8534 13.9238 15.6817 13.481 15.3027 13.3138C14.9238 13.1466 14.481 13.3183 14.3138 13.6973L15.6862 14.3027ZM9 14C8.31381 14.3027 8.31395 14.303 8.31408 14.3033C8.31414 14.3035 8.31428 14.3038 8.31438 14.304C8.31458 14.3045 8.3148 14.305 8.31503 14.3055C8.3155 14.3065 8.31602 14.3077 8.3166 14.309C8.31776 14.3116 8.31915 14.3146 8.32078 14.3182C8.32403 14.3253 8.32822 14.3343 8.33335 14.3451C8.34363 14.3666 8.35773 14.3954 8.37577 14.4303C8.41179 14.5 8.46385 14.5949 8.53286 14.7066C8.67009 14.9288 8.87878 15.2247 9.1677 15.5224C9.74767 16.1199 10.6801 16.75 12 16.75V15.25C11.2023 15.25 10.6347 14.8801 10.2441 14.4776C10.0477 14.2753 9.90344 14.0712 9.80905 13.9184C9.76226 13.8426 9.72883 13.7813 9.70833 13.7416C9.69811 13.7218 9.69118 13.7076 9.6875 13.6999C9.68566 13.696 9.68463 13.6938 9.68441 13.6933C9.68431 13.6931 9.6844 13.6933 9.6847 13.6939C9.68484 13.6942 9.68504 13.6947 9.68529 13.6952C9.68542 13.6955 9.68555 13.6958 9.6857 13.6962C9.68578 13.6963 9.6859 13.6966 9.68594 13.6967C9.68606 13.697 9.68619 13.6973 9 14ZM12 16.75C13.3199 16.75 14.2523 16.1199 14.8323 15.5224C15.1212 15.2247 15.3299 14.9288 15.4671 14.7066C15.5362 14.5949 15.5882 14.5 15.6242 14.4303C15.6423 14.3954 15.6564 14.3666 15.6666 14.3451C15.6718 14.3343 15.676 14.3253 15.6792 14.3182C15.6808 14.3146 15.6822 14.3116 15.6834 14.309C15.684 14.3077 15.6845 14.3065 15.685 14.3055C15.6852 14.305 15.6854 14.3045 15.6856 14.304C15.6857 14.3038 15.6859 14.3035 15.6859 14.3033C15.6861 14.303 15.6862 14.3027 15 14C14.3138 13.6973 14.3139 13.697 14.3141 13.6967C14.3141 13.6966 14.3142 13.6963 14.3143 13.6962C14.3144 13.6958 14.3146 13.6955 14.3147 13.6952C14.315 13.6947 14.3152 13.6942 14.3153 13.6939C14.3156 13.6933 14.3157 13.6931 14.3156 13.6933C14.3154 13.6938 14.3143 13.696 14.3125 13.6999C14.3088 13.7076 14.3019 13.7218 14.2917 13.7416C14.2712 13.7813 14.2377 13.8426 14.1909 13.9184C14.0966 14.0712 13.9523 14.2753 13.7559 14.4776C13.3653 14.8801 12.7977 15.25 12 15.25V16.75ZM19.25 12C19.25 16.0041 16.0041 19.25 12 19.25V20.75C16.8325 20.75 20.75 16.8325 20.75 12H19.25ZM12 19.25C7.99594 19.25 4.75 16.0041 4.75 12H3.25C3.25 16.8325 7.16751 20.75 12 20.75V19.25ZM4.75 12C4.75 7.99594 7.99594 4.75 12 4.75V3.25C7.16751 3.25 3.25 7.16751 3.25 12H4.75ZM12 4.75C16.0041 4.75 19.25 7.99594 19.25 12H20.75C20.75 7.16751 16.8325 3.25 12 3.25V4.75Z" fill="#1C1C1C"/>
</svg>
