<svg width="24" height="24" viewBox="0 0 24 24" xmlns="http://www.w3.org/2000/svg">
<path fill-rule="evenodd" clip-rule="evenodd" d="M20 12C20 16.4183 16.4183 20 12 20C7.58172 20 4 16.4183 4 12C4 7.58172 7.58172 4 12 4C16.4183 4 20 7.58172 20 12ZM9.24994 10C9.24994 9.58579 9.58573 9.25 9.99994 9.25C10.4142 9.25 10.7509 9.58579 10.7509 10C10.7509 10.4142 10.4152 10.75 10.0009 10.75C9.58673 10.75 9.24994 10.4142 9.24994 10ZM13.2489 10C13.2489 9.58579 13.5847 9.25 13.9989 9.25C14.4132 9.25 14.7499 9.58579 14.7499 10C14.7499 10.4142 14.4142 10.75 13.9999 10.75C13.5857 10.75 13.2489 10.4142 13.2489 10ZM9.68464 13.6939L9.68744 13.6999C9.69113 13.7076 9.69805 13.7218 9.70827 13.7416C9.72878 13.7813 9.7622 13.8426 9.809 13.9184C9.90339 14.0712 10.0476 14.2753 10.244 14.4776C10.6346 14.8801 11.2022 15.25 11.9999 15.25C12.7977 15.25 13.3653 14.8801 13.7559 14.4776C13.9523 14.2753 14.0965 14.0712 14.1909 13.9184C14.2377 13.8426 14.2711 13.7813 14.2916 13.7416C14.3018 13.7218 14.3088 13.7076 14.3124 13.6999L14.3154 13.6935C14.4839 13.3172 14.925 13.1472 15.3027 13.3138C15.6816 13.481 15.8533 13.9238 15.6861 14.3027L15.6856 14.304L15.6849 14.3055L15.6833 14.309L15.6792 14.3182L15.6666 14.3451C15.6563 14.3666 15.6422 14.3954 15.6242 14.4303C15.5882 14.5 15.5361 14.5949 15.4671 14.7066C15.3299 14.9288 15.1212 15.2247 14.8322 15.5224C14.2523 16.1199 13.3199 16.75 11.9999 16.75C10.68 16.75 9.74761 16.1199 9.16764 15.5224C8.87873 15.2247 8.67003 14.9288 8.5328 14.7066C8.46379 14.5949 8.41173 14.5 8.37571 14.4303C8.35767 14.3954 8.34357 14.3666 8.3333 14.3451L8.32072 14.3182L8.31654 14.309L8.31498 14.3055L8.31432 14.304C8.31432 14.304 8.31376 14.3027 8.99994 14L8.31376 14.3027C8.14656 13.9238 8.31824 13.481 8.69721 13.3138C9.07493 13.1472 9.51618 13.3176 9.68464 13.6939Z"/>
</svg>
