<svg width="58" height="58" viewBox="0 0 58 58" xmlns="http://www.w3.org/2000/svg">
<path fill-rule="evenodd" clip-rule="evenodd" d="M42.3411 23.1797C42.5487 22.5142 42.3411 22.0302 41.4218 22.0302H38.3675C37.5964 22.0302 37.2406 22.4537 37.033 22.9075C37.033 22.9075 35.4613 26.7794 33.2669 29.29C32.5552 30.016 32.229 30.258 31.8435 30.258C31.636 30.258 31.3691 30.016 31.3691 29.3505V23.1495C31.3691 22.363 31.1318 22 30.4795 22H25.6755C25.201 22 24.9045 22.363 24.9045 22.726C24.9045 23.4822 26.0017 23.6637 26.1203 25.7811V30.379C26.1203 31.3772 25.9424 31.5587 25.5569 31.5587C24.519 31.5587 21.9984 27.6566 20.486 23.21C20.1895 22.3327 19.8929 22 19.1219 22H16.0379C15.1483 22 15 22.4235 15 22.8772C15 23.6939 16.0379 27.8078 19.8336 33.2527C22.3542 36.9733 25.9424 38.9697 29.1747 38.9697C31.1318 38.9697 31.3691 38.516 31.3691 37.7598V34.9466C31.3691 34.0391 31.547 33.8879 32.1697 33.8879C32.6146 33.8879 33.4152 34.1299 35.2241 35.9146C37.2999 38.032 37.6558 39 38.8123 39H41.8666C42.7563 39 43.1714 38.5463 42.9342 37.669C42.6673 36.7918 41.6591 35.5214 40.3543 34.0089C39.6426 33.1619 38.575 32.2242 38.2488 31.7705C37.804 31.1655 37.9226 30.9235 38.2488 30.379C38.2192 30.379 41.9556 24.9947 42.3411 23.1797Z"/>
</svg>
