<svg width="58" height="58" viewBox="0 0 58 58" xmlns="http://www.w3.org/2000/svg">
<path d="M31.796 34.4403L35.3826 37.9028C36.1174 38.6106 36.1174 39.7601 35.3826 40.4686C34.6486 41.1771 33.459 41.1771 32.7257 40.4686L29.1993 37.0661L25.676 40.4686C25.3086 40.8225 24.8272 40.9996 24.3458 40.9996C23.8652 40.9996 23.3846 40.8225 23.0172 40.4686C22.2832 39.7601 22.2832 38.6113 23.0164 37.9028L26.6035 34.4403C25.2975 34.1531 24.038 33.6536 22.8778 32.951C21.9999 32.4167 21.7362 31.2972 22.2893 30.449C22.841 29.5996 24.0011 29.3439 24.8806 29.8783C27.5072 31.4732 30.8907 31.4736 33.5188 29.8783C34.3983 29.3439 35.5581 29.5996 36.1109 30.449C36.664 31.2964 36.3995 32.4167 35.5216 32.951C34.3615 33.6543 33.1019 34.1531 31.796 34.4403Z"/>
<path fill-rule="evenodd" clip-rule="evenodd" d="M22.7678 23.1936C22.7678 26.6079 25.6454 29.3853 29.1837 29.3853C32.7228 29.3853 35.5996 26.6079 35.5996 23.1936C35.5996 19.7781 32.7228 17 29.1837 17C25.6454 17 22.7678 19.7781 22.7678 23.1936ZM31.8402 23.1936C31.8402 21.7795 30.6486 20.6297 29.1837 20.6297C27.7199 20.6297 26.5272 21.7795 26.5272 23.1936C26.5272 24.6065 27.7199 25.7571 29.1837 25.7571C30.6486 25.7571 31.8402 24.6065 31.8402 23.1936Z"/>
</svg>
