<svg width="58" height="58" viewBox="0 0 58 58" xmlns="http://www.w3.org/2000/svg">
<path fill-rule="evenodd" clip-rule="evenodd" d="M29.0011 16C25.4705 16 25.0274 16.0154 23.6408 16.0785C22.2568 16.1419 21.3122 16.3611 20.4856 16.6825C19.6305 17.0145 18.9053 17.4587 18.1827 18.1815C17.4595 18.9041 17.0154 19.6294 16.6823 20.4841C16.3599 21.311 16.1406 22.256 16.0783 23.6393C16.0162 25.0261 16 25.4694 16 28.9999C16 32.5305 16.0157 32.9723 16.0785 34.3589C16.1422 35.7429 16.3613 36.6875 16.6825 37.5141C17.0148 38.3692 17.459 39.0944 18.1818 39.817C18.9041 40.5402 19.6294 40.9854 20.4839 41.3174C21.311 41.639 22.256 41.858 23.6396 41.9214C25.0264 41.9846 25.4692 42 28.9994 42C32.5303 42 32.972 41.9846 34.3587 41.9214C35.7426 41.858 36.6884 41.639 37.5156 41.3174C38.3703 40.9854 39.0944 40.5402 39.8168 39.817C40.54 39.0944 40.9841 38.3692 41.3172 37.5144C41.6368 36.6875 41.8562 35.7426 41.9212 34.3592C41.9834 32.9725 41.9997 32.5305 41.9997 28.9999C41.9997 25.4694 41.9834 25.0263 41.9212 23.6396C41.8562 22.2557 41.6368 21.311 41.3172 20.4844C40.9841 19.6294 40.54 18.9041 39.8168 18.1815C39.0936 17.4584 38.3705 17.0143 37.5147 16.6825C36.686 16.3611 35.7408 16.1419 34.3568 16.0785C32.9702 16.0154 32.5287 16 28.997 16H29.0011ZM28.5675 18.3425L29.0011 18.3427C32.472 18.3427 32.8834 18.3551 34.2541 18.4175C35.5216 18.4754 36.2096 18.6872 36.6678 18.8651C37.2745 19.1008 37.707 19.3824 38.1617 19.8374C38.6167 20.2924 38.8984 20.7257 39.1345 21.3324C39.3125 21.7901 39.5245 22.478 39.5822 23.7455C39.6446 25.1159 39.6581 25.5276 39.6581 28.997C39.6581 32.4663 39.6446 32.878 39.5822 34.2484C39.5242 35.5159 39.3125 36.2038 39.1345 36.6615C38.8989 37.2683 38.6167 37.7002 38.1617 38.1549C37.7067 38.6099 37.2748 38.8916 36.6678 39.1272C36.2101 39.306 35.5216 39.5172 34.2541 39.5751C32.8838 39.6375 32.472 39.651 29.0011 39.651C25.5298 39.651 25.1184 39.6375 23.748 39.5751C22.4805 39.5166 21.7926 39.3049 21.3341 39.1269C20.7274 38.8913 20.2941 38.6097 19.839 38.1547C19.384 37.6997 19.1024 37.2674 18.8663 36.6604C18.6883 36.2028 18.4763 35.5148 18.4186 34.2473C18.3562 32.877 18.3438 32.4652 18.3438 28.9938C18.3438 25.5222 18.3562 25.1127 18.4186 23.7422C18.4765 22.4747 18.6883 21.7869 18.8663 21.3286C19.1019 20.7219 19.384 20.2886 19.839 19.8336C20.2941 19.3786 20.7274 19.0969 21.3341 18.8608C21.7923 18.682 22.4805 18.4708 23.748 18.4126C24.9472 18.3584 25.412 18.3421 27.8348 18.3395V18.3427C28.0612 18.3423 28.3048 18.3424 28.5675 18.3425ZM34.3804 22.0607C34.3804 21.1991 35.0791 20.5012 35.9403 20.5012C36.8016 20.5012 37.5003 21.1994 37.5003 22.0607C37.5003 22.9219 36.8016 23.6207 35.9403 23.6207C35.0791 23.6207 34.3804 22.9219 34.3804 22.0607Z"/>
<path fill-rule="evenodd" clip-rule="evenodd" d="M22.0937 28.7697C22.0937 25.0828 25.0828 22.0937 28.7697 22.0937C32.4566 22.0937 35.4446 25.0828 35.4446 28.7697C35.4446 32.4565 32.4566 35.4443 28.7697 35.4443C25.0828 35.4443 22.0937 32.4565 22.0937 28.7697ZM33.103 28.7697C33.103 26.3763 31.1628 24.4364 28.7697 24.4364C26.3764 24.4364 24.4364 26.3763 24.4364 28.7697C24.4364 31.1628 26.3764 33.103 28.7697 33.103C31.1628 33.103 33.103 31.1628 33.103 28.7697Z"/>
</svg>
