<svg width="24" height="24" viewBox="0 0 24 24" xmlns="http://www.w3.org/2000/svg">
<path fill-rule="evenodd" clip-rule="evenodd" d="M4.25 6C4.25 5.58579 4.58579 5.25 5 5.25H11C11.4142 5.25 11.75 5.58579 11.75 6C11.75 6.41421 11.4142 6.75 11 6.75H5C4.58579 6.75 4.25 6.41421 4.25 6ZM15.4697 5.46967C15.7626 5.17678 16.2374 5.17678 16.5303 5.46967L19.5303 8.46967C19.8232 8.76256 19.8232 9.23744 19.5303 9.53033C19.2374 9.82322 18.7626 9.82322 18.4697 9.53033L16.75 7.81066V18C16.75 18.4142 16.4142 18.75 16 18.75C15.5858 18.75 15.25 18.4142 15.25 18V7.81066L13.5303 9.53033C13.2374 9.82322 12.7626 9.82322 12.4697 9.53033C12.1768 9.23744 12.1768 8.76256 12.4697 8.46967L15.4697 5.46967ZM4.25 10C4.25 9.58579 4.58579 9.25 5 9.25H9C9.41421 9.25 9.75 9.58579 9.75 10C9.75 10.4142 9.41421 10.75 9 10.75H5C4.58579 10.75 4.25 10.4142 4.25 10ZM4.25 14C4.25 13.5858 4.58579 13.25 5 13.25H8.5C8.91421 13.25 9.25 13.5858 9.25 14C9.25 14.4142 8.91421 14.75 8.5 14.75H5C4.58579 14.75 4.25 14.4142 4.25 14Z"/>
</svg>
