<svg width="24" height="24" viewBox="0 0 24 24" xmlns="http://www.w3.org/2000/svg">
<path fill-rule="evenodd" clip-rule="evenodd" d="M16 5.25C16.4142 5.25 16.75 5.58579 16.75 6V16.1893L18.4697 14.4697C18.7626 14.1768 19.2374 14.1768 19.5303 14.4697C19.8232 14.7626 19.8232 15.2374 19.5303 15.5303L16.5303 18.5303C16.2374 18.8232 15.7626 18.8232 15.4697 18.5303L12.4697 15.5303C12.1768 15.2374 12.1768 14.7626 12.4697 14.4697C12.7626 14.1768 13.2374 14.1768 13.5303 14.4697L15.25 16.1893V6C15.25 5.58579 15.5858 5.25 16 5.25ZM4.25 10C4.25 9.58579 4.58579 9.25 5 9.25H8.5C8.91421 9.25 9.25 9.58579 9.25 10C9.25 10.4142 8.91421 10.75 8.5 10.75H5C4.58579 10.75 4.25 10.4142 4.25 10ZM4.25 14C4.25 13.5858 4.58579 13.25 5 13.25H9C9.41421 13.25 9.75 13.5858 9.75 14C9.75 14.4142 9.41421 14.75 9 14.75H5C4.58579 14.75 4.25 14.4142 4.25 14ZM4.25 18C4.25 17.5858 4.58579 17.25 5 17.25H11C11.4142 17.25 11.75 17.5858 11.75 18C11.75 18.4142 11.4142 18.75 11 18.75H5C4.58579 18.75 4.25 18.4142 4.25 18Z"/>
</svg>
