<svg width="24" height="24" viewBox="0 0 24 24" xmlns="http://www.w3.org/2000/svg">
<path fill-rule="evenodd" clip-rule="evenodd" d="M6.10798 6.22535C4.64937 7.71341 3.75 9.75168 3.75 12C3.75 13.3397 4.06931 14.6048 4.63598 15.7233C7.25539 15.4993 9.64045 14.1157 11.1351 11.9513C9.91231 9.39648 9.79971 6.46179 10.7973 3.83703C9.71065 3.99575 8.69273 4.3663 7.78684 4.90543C7.36116 7.3663 7.50479 9.89349 8.20851 12.2926C8.3251 12.6901 8.0974 13.1068 7.69993 13.2234C7.30246 13.34 6.88574 13.1123 6.76915 12.7148C6.15041 10.6054 5.92826 8.40528 6.10798 6.22535ZM12.4568 3.76243C11.3418 6.14257 11.3478 8.89922 12.4746 11.2754C15.299 11.4938 17.8972 12.864 19.6715 15.0409C20.0448 14.0999 20.25 13.0739 20.25 12C20.25 11.9658 20.2498 11.9316 20.2494 11.8975C18.3313 10.299 16.0714 9.16015 13.6423 8.57016C13.2398 8.47239 12.9928 8.06684 13.0905 7.66433C13.1883 7.26182 13.5939 7.01477 13.9964 7.11254C16.1336 7.63166 18.151 8.53999 19.9497 9.78654C19.0216 6.44593 16.0443 3.95822 12.4568 3.76243ZM18.906 16.515C17.4022 14.359 15.0117 12.9855 12.3903 12.7734C10.7893 15.1095 8.30443 16.6743 5.53286 17.1229C6.19824 17.9617 7.02339 18.6681 7.9623 19.1961C10.3064 18.3343 12.4233 16.9463 14.1492 15.1373C14.4351 14.8376 14.9099 14.8264 15.2096 15.1123C15.5093 15.3983 15.5204 15.873 15.2345 16.1727C13.7163 17.764 11.9211 19.0569 9.94225 19.9913C10.6 20.1602 11.2895 20.25 12 20.25C14.8897 20.25 17.4325 18.7643 18.906 16.515ZM2.25 12C2.25 6.61522 6.61522 2.25 12 2.25C17.3848 2.25 21.75 6.61522 21.75 12C21.75 17.3848 17.3848 21.75 12 21.75C6.61522 21.75 2.25 17.3848 2.25 12Z"/>
</svg>
