<svg width="24" height="24" viewBox="0 0 24 24" xmlns="http://www.w3.org/2000/svg">
<path fill-rule="evenodd" clip-rule="evenodd" d="M3.93945 15.5L7.96978 11.4697C8.26268 11.1768 8.73755 11.1768 9.03044 11.4697C9.32334 11.7626 9.32334 12.2374 9.03044 12.5303L6.81077 14.75L15.0001 14.75C15.4143 14.75 15.7501 15.0858 15.7501 15.5C15.7501 15.9142 15.4143 16.25 15.0001 16.25L6.81077 16.25L9.03044 18.4697C9.32334 18.7626 9.32334 19.2374 9.03044 19.5303C8.73755 19.8232 8.26268 19.8232 7.96978 19.5303L3.93945 15.5ZM8.25011 8.5C8.25011 8.08579 8.5859 7.75 9.00011 7.75L17.1895 7.75L14.9698 5.53033C14.6769 5.23744 14.6769 4.76256 14.9698 4.46967C15.2627 4.17678 15.7376 4.17678 16.0304 4.46967L20.0608 8.5L16.0304 12.5303C15.7375 12.8232 15.2627 12.8232 14.9698 12.5303C14.6769 12.2374 14.6769 11.7626 14.9698 11.4697L17.1895 9.25L9.00011 9.25C8.5859 9.25 8.25011 8.91421 8.25011 8.5Z"/>
</svg>
