<svg width="24" height="24" viewBox="0 0 24 24" xmlns="http://www.w3.org/2000/svg">
<path fill-rule="evenodd" clip-rule="evenodd" d="M4.25 6C4.25 5.03351 5.03351 4.25 6 4.25H18.5C19.4665 4.25 20.25 5.03352 20.25 6V18.5002C20.25 19.4667 19.4665 20.2502 18.5 20.2502H6C5.03352 20.2502 4.25 19.4667 4.25 18.5002V6ZM18.75 14.25V10.25H5.75V14.25H18.75ZM5.75 15.75H18.75V18.5002C18.75 18.6383 18.6381 18.7502 18.5 18.7502H6C5.86192 18.7502 5.75 18.6383 5.75 18.5002V15.75ZM5.75 8.75H18.75V6C18.75 5.86192 18.6381 5.75 18.5 5.75H6C5.86193 5.75 5.75 5.86193 5.75 6V8.75Z"/>
</svg>
