<svg width="24" height="24" viewBox="0 0 24 24" fill="none" xmlns="http://www.w3.org/2000/svg">
<path d="M11.9998 13.6672C11.7236 13.6672 11.4996 13.4433 11.4996 13.167C11.4996 13.0749 11.5743 13.0003 11.6664 13.0003H12.3333C12.4254 13.0003 12.5001 13.0749 12.5001 13.167C12.5001 13.4433 12.2761 13.6672 11.9998 13.6672ZM11.9998 13.6672V15.0011M18.0023 13.0003C18.0023 13.5528 18.4502 14.0007 19.0028 14.0007C20.1078 14.0007 21.0036 13.1049 21.0036 11.9998V8.99859C21.0036 7.34105 19.6599 5.99734 18.0023 5.99734H17.5852M8.04944 17.8486L6.99776 21.0036M15.9502 17.8486L17.0019 21.0036M6.41452 5.99734H5.99734C4.3398 5.99734 2.99609 7.34105 2.99609 8.99859V11.9998C2.99609 13.1049 3.8919 14.0007 4.99693 14.0007C5.54944 14.0007 5.99734 13.5528 5.99734 13.0003M14.0007 17.8313V18.5026C14.0007 19.3313 13.3288 20.0032 12.5001 20.0032H11.4996C10.6709 20.0032 9.99901 19.3313 9.99901 18.5026V17.831M11.9998 15.0011C11.9998 16.6586 10.6561 18.0023 8.99859 18.0023C7.34105 18.0023 5.99734 16.6586 5.99734 15.0011V7.99818C5.99734 5.2356 8.23685 2.99609 10.9994 2.99609H13.0003C15.7628 2.99609 18.0023 5.2356 18.0023 7.99818V15.0011C18.0023 16.6586 16.6586 18.0023 15.0011 18.0023C13.3435 18.0023 11.9998 16.6586 11.9998 15.0011ZM14.2508 9.49912C14.2506 9.63717 14.1386 9.74897 14.0006 9.74891C13.8625 9.74885 13.7506 9.63695 13.7506 9.49891C13.7505 9.36086 13.8623 9.24887 14.0004 9.2487C14.0668 9.24861 14.1305 9.27497 14.1775 9.32195C14.2245 9.36893 14.2509 9.43268 14.2508 9.49912ZM10.2491 9.49912C10.2489 9.63717 10.1369 9.74897 9.9989 9.74891C9.86086 9.74885 9.74897 9.63695 9.74891 9.49891C9.74885 9.36086 9.86065 9.24887 9.99869 9.2487C10.0651 9.24861 10.1289 9.27497 10.1759 9.32195C10.2228 9.36893 10.2492 9.43268 10.2491 9.49912Z" stroke="#B45309" stroke-width="1.5" stroke-linecap="round" stroke-linejoin="round"/>
</svg>
