<svg width="24" height="24" viewBox="0 0 24 24" fill="none" xmlns="http://www.w3.org/2000/svg">
<path d="M7.1073 4.45245C6.59098 7.12826 6.72179 9.88873 7.48883 12.5037M20.9827 11.5366C18.9236 9.75152 16.4675 8.48457 13.8194 7.84135M7.91 20.011C10.4855 19.1203 12.8107 17.6267 14.6918 15.655M12 12C10.5 9.1875 10.5 5.8125 12 3M12 12C15.1857 12.1072 18.1085 13.7947 19.7942 16.5M12 12C10.3143 14.7053 7.39147 16.3928 4.20577 16.5M12 3C7.02944 3 3 7.02944 3 12C3 16.9706 7.02944 21 12 21C16.9706 21 21 16.9706 21 12C21 7.02944 16.9706 3 12 3Z" stroke="#5B21B6" stroke-width="1.5" stroke-linecap="round" stroke-linejoin="round"/>
</svg>
