<svg width="24" height="24" viewBox="0 0 24 24" fill="none" xmlns="http://www.w3.org/2000/svg">
<path d="M14.0006 7.99818V3.99651C14.0007 3.66848 14.1617 3.36136 14.4313 3.17455C14.7009 2.98774 15.045 2.94498 15.3522 3.06012L20.3543 4.9359C20.745 5.08237 21.0038 5.456 21.0035 5.87329V21.0036M10.9994 7.99818V5.99734C10.9994 5.44483 10.5515 4.99693 9.99894 4.99693H5.99727C5.44476 4.99693 4.99686 5.44483 4.99686 5.99734V10.9994M7.99811 2.99609V4.99693M22.0039 21.0036H1.99561M10.4991 13.7006H13.5004M10.4991 10.9994H13.5004M10.4991 16.4017H13.5004M2.99602 21.0036V11.9998C2.99602 11.4473 3.44392 10.9994 3.99644 10.9994H7.99811M9.19861 7.99818H14.8009C15.464 7.99818 16.0014 8.53566 16.0014 9.19868V21.0036H7.99811V9.19868C7.99811 8.53566 8.53559 7.99818 9.19861 7.99818Z" stroke="#05ABD6" stroke-width="1.5" stroke-linecap="round" stroke-linejoin="round"/>
</svg>
