<svg width="24" height="24" viewBox="0 0 24 24" fill="none" xmlns="http://www.w3.org/2000/svg">
<path d="M3.51389 14.9998H6.00002C7.10459 14.9998 8.00002 14.1043 8.00002 12.9998V10.9998C8.00002 9.89521 8.89545 8.99978 10 8.99978H12C13.1046 8.99978 14 8.10435 14 6.99978V3.22446M17.4904 16.0162C15.6372 16.3262 14.0039 17.4114 13 18.9998M20.7693 9.99978C19.7811 5.65851 15.7662 2.69296 11.3263 3.02481C6.88636 3.35667 3.35691 6.88611 3.02505 11.326C2.6932 15.766 5.65876 19.7809 10 20.7691M17.25 19.4998C19.8621 19.4998 20.5032 16.2491 22 15.3854C20.8943 13.8704 19.1255 12.9822 17.25 13.0002C15.4551 13.0002 14 14.4549 14 16.2498C14 18.0447 15.4551 19.4998 17.25 19.4998Z" stroke="#323232" stroke-width="1.5" stroke-linecap="round" stroke-linejoin="round"/>
</svg>
