<svg width="24" height="24" viewBox="0 0 24 24" fill="none" xmlns="http://www.w3.org/2000/svg">
<path d="M12.0002 3.96662V3.02148M18.0027 5.99772L18.9478 5.05259M5.99765 5.99772L5.05252 5.05259M20.9789 12.0002H21.924M2.05127 12.0002H2.9964M14.001 13.0006V15.0015M17.0022 18.0027V12.7546C16.9326 10.0608 14.6941 7.93236 12.0002 7.99856C9.30617 7.93236 7.06769 10.0608 6.99807 12.7546V18.0027M17.6481 18.0027H6.26147C5.82239 18.0027 5.43463 18.289 5.30538 18.7086L4.99725 19.7091C4.90378 20.0125 4.95991 20.3423 5.14852 20.5978C5.33712 20.8532 5.6358 21.004 5.95333 21.004H18.0018C18.3266 21.004 18.6312 20.8463 18.8187 20.5811C19.0062 20.3159 19.0533 19.9762 18.945 19.67L18.5912 18.6696C18.4499 18.2699 18.072 18.0027 17.6481 18.0027Z" stroke="#323232" stroke-width="1.5" stroke-linecap="round" stroke-linejoin="round"/>
</svg>
