<svg width="24" height="24" viewBox="0 0 24 24" fill="none" xmlns="http://www.w3.org/2000/svg">
<path d="M14.701 14.7012C14.901 14.101 15.1011 13.5007 15.3012 12.9005C16.6018 7.99844 16.2016 3.49656 14.4008 3.09639C13.6005 2.99635 12.8002 3.29648 12.3 3.99677M11.6997 20.0034C11.1995 20.7037 10.3992 21.0039 9.59884 20.9038C7.79809 20.4036 7.39792 16.0018 8.69846 11.0997C8.89855 10.4995 9.09863 9.79919 9.29871 9.29898M10.9994 15.7016C11.5997 15.6016 12.1999 15.4015 12.9002 15.3015C17.8023 14.0009 21.5038 11.3999 21.0036 9.5991C20.8035 8.89881 20.1032 8.49864 19.1028 8.19852M4.89688 15.8017C3.89646 15.5016 3.19617 15.1014 2.99609 14.4011C2.49588 12.6004 6.09738 9.99927 11.0995 8.69873C11.6997 8.49864 12.4 8.3986 13.0003 8.29856M8.2983 13.0005C8.69846 13.5007 9.09863 13.9009 9.59884 14.4011C13.2003 18.0026 17.202 19.9034 18.6026 18.5028C19.1028 17.8025 19.2028 16.9021 18.9027 16.2019M5.19701 7.79835C4.89688 6.99802 4.99692 6.09764 5.39709 5.39735C6.69763 4.09681 10.7993 5.89756 14.4008 9.49906C14.901 9.99927 15.3012 10.3994 15.7014 10.8996M11.9998 12.1001C12.0999 12.1001 12.0999 12.0001 12.0999 12.0001L11.9998 11.9001L11.8998 12.0001C11.8998 12.0001 11.8998 12.1001 11.9998 12.1001Z" stroke="#1D4ED8" stroke-width="1.5" stroke-linecap="round" stroke-linejoin="round"/>
</svg>
