<svg width="24" height="24" viewBox="0 0 24 24" fill="none" xmlns="http://www.w3.org/2000/svg">
<path d="M21 21L21.578 19.844C21.8556 19.2887 22.0001 18.6765 22 18.0557V11.5C22 10.6716 21.3284 9.99999 20.5 9.99999C19.6716 9.99999 19 10.6716 19 11.5V15.5M14 21V18.0866C14 17.6539 14.1404 17.2328 14.4 16.8866L16.0779 14.6494C16.3603 14.2729 16.7921 14.0375 17.2615 14.0041C17.731 13.9708 18.1917 14.1427 18.5245 14.4755C19.0958 15.0467 19.16 15.9511 18.6753 16.5974L17.6234 18M3 21L2.422 19.844C2.14439 19.2887 1.99991 18.6765 2 18.0557V11.5C2 10.6716 2.67157 9.99999 3.5 9.99999C4.32843 9.99999 5 10.6716 5 11.5V15.5M10 21V18.0866C10 17.6539 9.85964 17.2328 9.6 16.8866L7.92206 14.6494C7.6397 14.2729 7.20787 14.0375 6.73846 14.0041C6.26904 13.9708 5.80825 14.1427 5.47549 14.4755C4.90424 15.0467 4.83998 15.9511 5.3247 16.5974L6.37665 18M9.46048 9.84557C8.34651 8.56899 8.34651 6.66587 9.46048 5.3893L11.2466 3.34251C11.4365 3.12488 11.7112 3 12 3C12.2889 3 12.5636 3.12488 12.7535 3.34251L14.5396 5.38929C15.6535 6.66585 15.6535 8.56898 14.5396 9.84555C13.8995 10.5791 12.9735 11 12 11C11.0265 11 10.1006 10.5791 9.46048 9.84557Z" stroke="#323232" stroke-width="1.5" stroke-linecap="round" stroke-linejoin="round"/>
</svg>
