<svg width="24" height="24" viewBox="0 0 24 24" xmlns="http://www.w3.org/2000/svg">
<path fill-rule="evenodd" clip-rule="evenodd" d="M11.4813 4.20734C11.621 4.07305 11.8072 3.99805 12.001 3.99805H19.251C19.6652 3.99805 20.001 4.33383 20.001 4.74805V11.998C20.001 12.1975 19.9216 12.3887 19.7803 12.5294L13.0838 19.2002C11.9851 20.2947 10.1992 20.2647 9.13785 19.1339L4.74408 14.4523C3.71349 13.3542 3.75781 11.6315 4.84352 10.5878L11.4813 4.20734ZM12.303 5.49805L5.88302 11.6693C5.38952 12.1436 5.36937 12.9267 5.83781 13.4258L10.2316 18.1074C10.714 18.6214 11.5257 18.635 12.0252 18.1375L18.501 11.6865V5.49805H12.303ZM15 8.5C14.5 8.5 14.5 8.5 14.5 9C14.5 9.5 14.5 9.5 15 9.5C15.5 9.5 15.5 9.5 15.5 9C15.5 8.5 15.5 8.5 15 8.5ZM13.251 8.99805C13.251 8.03155 14.0345 7.24805 15.001 7.24805C15.9675 7.24805 16.751 8.03155 16.751 8.99805C16.751 9.96455 15.9675 10.748 15.001 10.748C14.0345 10.748 13.251 9.96455 13.251 8.99805Z"/>
</svg>
