<svg width="24" height="24" viewBox="0 0 24 24" xmlns="http://www.w3.org/2000/svg">
<path fill-rule="evenodd" clip-rule="evenodd" d="M19.251 4.74805H12.001L5.36327 11.1285C4.57366 11.8875 4.54142 13.1404 5.29094 13.939L9.6847 18.6206C10.4566 19.443 11.7554 19.4648 12.5545 18.6688L19.251 11.998V4.74805ZM17 8.5C17 9.32843 16.3284 10 15.5 10C14.6716 10 14 9.32843 14 8.5C14 7.67157 14.6716 7 15.5 7C16.3284 7 17 7.67157 17 8.5Z"/>
<path d="M12.001 4.74805V4.24805C11.8718 4.24805 11.7476 4.29805 11.6545 4.38758L12.001 4.74805ZM19.251 4.74805H19.751C19.751 4.4719 19.5272 4.24805 19.251 4.24805V4.74805ZM5.36327 11.1285L5.70977 11.489L5.70977 11.489L5.36327 11.1285ZM5.29094 13.939L5.65553 13.5969L5.65552 13.5969L5.29094 13.939ZM9.6847 18.6206L9.32012 18.9628L9.32014 18.9628L9.6847 18.6206ZM12.5545 18.6688L12.9074 19.0231L12.9074 19.0231L12.5545 18.6688ZM19.251 11.998L19.6039 12.3523C19.6981 12.2585 19.751 12.131 19.751 11.998H19.251ZM12.001 5.24805H19.251V4.24805H12.001V5.24805ZM5.70977 11.489L12.3475 5.10852L11.6545 4.38758L5.01677 10.7681L5.70977 11.489ZM5.65552 13.5969C5.09339 12.9979 5.11756 12.0583 5.70977 11.489L5.01678 10.7681C4.02976 11.7168 3.98946 13.283 4.92636 14.2812L5.65552 13.5969ZM10.0493 18.2785L5.65553 13.5969L4.92636 14.2812L9.32012 18.9628L10.0493 18.2785ZM12.2016 18.3146C11.6023 18.9116 10.6282 18.8953 10.0493 18.2785L9.32014 18.9628C10.285 19.9908 11.9085 20.0181 12.9074 19.0231L12.2016 18.3146ZM18.8981 11.6438L12.2016 18.3146L12.9074 19.0231L19.6039 12.3523L18.8981 11.6438ZM18.751 4.74805V11.998H19.751V4.74805H18.751ZM15.5 10.5C16.6046 10.5 17.5 9.60457 17.5 8.5H16.5C16.5 9.05228 16.0523 9.5 15.5 9.5V10.5ZM13.5 8.5C13.5 9.60457 14.3954 10.5 15.5 10.5V9.5C14.9477 9.5 14.5 9.05228 14.5 8.5H13.5ZM15.5 6.5C14.3954 6.5 13.5 7.39543 13.5 8.5H14.5C14.5 7.94772 14.9477 7.5 15.5 7.5V6.5ZM17.5 8.5C17.5 7.39543 16.6046 6.5 15.5 6.5V7.5C16.0523 7.5 16.5 7.94772 16.5 8.5H17.5Z"/>
</svg>
