<svg width="24" height="24" viewBox="0 0 24 24" fill="none" xmlns="http://www.w3.org/2000/svg">
<path d="M22 18V17.0606C22 15.8769 20.9827 14.9177 19.7273 14.9177H18.9991M2 18V17.0606C2 15.8769 3.01727 14.9177 4.27273 14.9177H5.00091M16.8536 18V16.6277C16.8536 14.9709 15.4291 13.6277 13.6718 13.6277H10.3273C8.57 13.6277 7.14545 14.9709 7.14545 16.6277V18M19.9932 9.8773C20.7114 10.5545 20.7114 11.6524 19.9932 12.3295C19.275 13.0067 18.1105 13.0067 17.3923 12.3295C16.6741 11.6524 16.6741 10.5545 17.3923 9.8773C18.1105 9.20013 19.275 9.20013 19.9932 9.8773ZM14.0024 6.78202C15.1083 7.82472 15.1083 9.51527 14.0024 10.558C12.8965 11.6007 11.1035 11.6007 9.99756 10.558C8.89167 9.51528 8.89167 7.82473 9.99756 6.78202C11.1035 5.73933 12.8965 5.73933 14.0024 6.78202ZM6.60771 9.8773C7.32592 10.5545 7.32592 11.6524 6.60771 12.3295C5.8895 13.0067 4.72505 13.0067 4.00685 12.3295C3.28864 11.6524 3.28864 10.5545 4.00685 9.8773C4.72506 9.20013 5.8895 9.20013 6.60771 9.8773Z" stroke="#1C1C1C" stroke-width="1.5" stroke-linecap="round" stroke-linejoin="round"/>
</svg>
