<svg width="24" height="24" viewBox="0 0 24 24" xmlns="http://www.w3.org/2000/svg">
<path fill-rule="evenodd" clip-rule="evenodd" d="M13.4879 7.32772C12.6709 6.55743 11.329 6.55743 10.5121 7.32771C9.72017 8.07437 9.72017 9.26563 10.5121 10.0123C11.3291 10.7826 12.6709 10.7826 13.4879 10.0123C14.2798 9.26562 14.2798 8.07437 13.4879 7.32772ZM14.5169 6.23633C15.9368 7.57507 15.9368 9.76492 14.5169 11.1037C13.1221 12.4188 10.8779 12.4188 9.48306 11.1037C8.06318 9.76493 8.06318 7.57508 9.48305 6.23633C10.8779 4.92122 13.1221 4.92122 14.5169 6.23633ZM6.0932 10.423C5.66391 10.0182 4.95064 10.0182 4.52136 10.423C4.11713 10.8041 4.11713 11.4027 4.52136 11.7839C4.95064 12.1886 5.66391 12.1886 6.0932 11.7839C6.49742 11.4027 6.49742 10.8041 6.0932 10.423ZM3.49234 9.33161C4.49947 8.38203 6.11509 8.38203 7.12222 9.33161C8.15442 10.3048 8.15442 11.902 7.12222 12.8752C6.11509 13.8248 4.49946 13.8248 3.49234 12.8752C2.46014 11.902 2.46014 10.3048 3.49234 9.33161ZM19.4787 10.423C19.0494 10.0182 18.3361 10.0182 17.9068 10.423C17.5026 10.8041 17.5026 11.4027 17.9068 11.7839C18.3361 12.1886 19.0494 12.1886 19.4787 11.7839C19.8829 11.4027 19.8829 10.8041 19.4787 10.423ZM16.8778 9.33161C17.8849 8.38203 19.5006 8.38203 20.5077 9.33161C21.5399 10.3048 21.5399 11.902 20.5077 12.8752C19.5006 13.8248 17.8849 13.8248 16.8778 12.8752C15.8456 11.902 15.8456 10.3048 16.8778 9.33161ZM6.39545 16.6277C6.39545 14.5157 8.19797 12.8777 10.3273 12.8777H13.6718C15.8011 12.8777 17.6036 14.5157 17.6036 16.6277V18C17.6036 18.4142 17.2679 18.75 16.8536 18.75C16.4394 18.75 16.1036 18.4142 16.1036 18V16.6277C16.1036 15.426 15.0571 14.3777 13.6718 14.3777H10.3273C8.94203 14.3777 7.89545 15.426 7.89545 16.6277V18C7.89545 18.4142 7.55967 18.75 7.14545 18.75C6.73124 18.75 6.39545 18.4142 6.39545 18V16.6277ZM4.27273 15.6677C3.3893 15.6677 2.75 16.332 2.75 17.0606V18C2.75 18.4142 2.41421 18.75 2 18.75C1.58579 18.75 1.25 18.4142 1.25 18V17.0606C1.25 15.4217 2.64525 14.1677 4.27273 14.1677H5.00091C5.41512 14.1677 5.75091 14.5035 5.75091 14.9177C5.75091 15.3319 5.41512 15.6677 5.00091 15.6677H4.27273ZM18.2491 14.9177C18.2491 14.5035 18.5849 14.1677 18.9991 14.1677H19.7273C21.3548 14.1677 22.75 15.4217 22.75 17.0606V18C22.75 18.4142 22.4142 18.75 22 18.75C21.5858 18.75 21.25 18.4142 21.25 18V17.0606C21.25 16.332 20.6107 15.6677 19.7273 15.6677H18.9991C18.5849 15.6677 18.2491 15.3319 18.2491 14.9177Z"/>
</svg>
