<svg width="18" height="18" viewBox="0 0 18 18" fill="none" xmlns="http://www.w3.org/2000/svg">
<path d="M7.13793 7.34483C7.13793 7.34483 7.34483 5.48276 9 5.48276C10.6552 5.48276 10.8621 6.51724 10.8621 7.34483C10.8621 7.96659 10.5117 8.58844 9.81087 8.85923C9.38458 9.02392 9 9.37051 9 9.82759V10.0345M15 9C15 12.3137 12.3137 15 9 15C5.6863 15 3 12.3137 3 9C3 5.6863 5.6863 3 9 3C12.3137 3 15 5.6863 15 9ZM9.41379 12.3103C9.41379 12.5388 9.2285 12.7241 9 12.7241C8.7715 12.7241 8.58621 12.5388 8.58621 12.3103C8.58621 12.0818 8.7715 11.8966 9 11.8966C9.2285 11.8966 9.41379 12.0818 9.41379 12.3103Z" stroke="#AEAFB0" stroke-width="1.5" stroke-linecap="round" stroke-linejoin="round"/>
</svg>
