<svg width="24" height="24" viewBox="0 0 24 24" xmlns="http://www.w3.org/2000/svg">
<path fill-rule="evenodd" clip-rule="evenodd" d="M11.75 5.75C11.0596 5.75 10.5 6.30964 10.5 7V7.25H13.5V7C13.5 6.30964 12.9404 5.75 12.25 5.75H11.75ZM15 7.25V7C15 5.48122 13.7688 4.25 12.25 4.25H11.75C10.2312 4.25 9 5.48122 9 7V7.25H6.75907C6.7536 7.24994 6.74813 7.24994 6.74264 7.25H5C4.58579 7.25 4.25 7.58579 4.25 8C4.25 8.41421 4.58579 8.75 5 8.75H6.06239L6.84397 17.7383C6.96754 19.1594 8.15721 20.25 9.58363 20.25H14.4164C15.8428 20.25 17.0325 19.1594 17.156 17.7383C17.156 17.7383 17.156 17.7382 17.156 17.7382L17.9376 8.75H19C19.4142 8.75 19.75 8.41421 19.75 8C19.75 7.58579 19.4142 7.25 19 7.25H17.2574C17.2519 7.24994 17.2464 7.24994 17.2409 7.25H15ZM16.4319 8.75H7.56805L8.33833 17.6083C8.3945 18.2542 8.93523 18.75 9.58363 18.75H14.4164C15.0648 18.75 15.6055 18.2542 15.6616 17.6084L15.6616 17.6083L16.4319 8.75Z"/>
</svg>
