<svg width="24" height="24" viewBox="0 0 24 24" xmlns="http://www.w3.org/2000/svg">
<path d="M9.49993 6.66923C9.49993 6.8519 9.64802 6.99999 9.83069 6.99999H14.1692C14.3518 6.99999 14.4999 6.8519 14.4999 6.66923C14.4999 5.40791 13.6096 4.32193 12.3728 4.07457L12.2717 4.05435C12.0923 4.01846 11.9076 4.01846 11.7281 4.05435L11.6271 4.07457C10.3902 4.32193 9.49993 5.40791 9.49993 6.66923Z"/>
<path fill-rule="evenodd" clip-rule="evenodd" d="M9.5836 19.5C8.54619 19.5 7.68099 18.7068 7.59112 17.6733L6.62538 9.11208C6.5585 8.51916 7.0224 7.99999 7.61908 7.99999H16.3808C16.9775 7.99999 17.4414 8.51916 17.3745 9.11208L16.4088 17.6733C16.319 18.7068 15.4538 19.5 14.4164 19.5H9.5836ZM9.49997 17.5C9.49997 17.2238 9.72383 17 9.99997 17H14C14.2761 17 14.5 17.2238 14.5 17.5C14.5 17.7761 14.2761 18 14 18H9.99997C9.72383 18 9.49997 17.7761 9.49997 17.5Z"/>
</svg>
