<svg width="24" height="24" viewBox="0 0 24 24" xmlns="http://www.w3.org/2000/svg">
<path fill-rule="evenodd" clip-rule="evenodd" d="M9.28039 6.74731C9.70973 6.15778 10.5397 5.5 12.25 5.5C13.0581 5.5 13.7273 5.80297 14.2089 6.12404C14.4483 6.2836 14.6339 6.44291 14.7576 6.56009C14.8438 6.64178 14.888 6.68907 14.9261 6.73288C15.1917 7.04859 15.6628 7.09058 15.9801 6.82617C16.2983 6.56099 16.3413 6.08807 16.0761 5.76986C16.0501 5.73871 16.0205 5.7059 15.9919 5.67521C15.944 5.62355 15.8761 5.55346 15.7892 5.47116C15.616 5.30709 15.3642 5.0914 15.041 4.87596C14.3976 4.44703 13.4418 4 12.25 4C10.0738 4 8.78745 4.8762 8.06787 5.86425C7.60595 6.4985 7.40939 7.21182 7.32198 7.89051C7.2464 8.47739 7.24808 9.08745 7.24957 9.62722V9.62723C7.24977 9.70068 7.24997 9.77282 7.24997 9.84343V10.25H7C6.03352 10.25 5.25 11.0335 5.25 12V17.5C5.25 19.0188 6.48122 20.25 8 20.25H16.5C18.0188 20.25 19.25 19.0188 19.25 17.5V12C19.25 11.0335 18.4665 10.25 17.5 10.25H8.74997V9.84343L8.74968 9.62042C8.74858 9.06937 8.74757 8.56448 8.8097 8.08211C8.87856 7.54737 9.01908 7.1061 9.28039 6.74731ZM6.75 12C6.75 11.8619 6.86192 11.75 7 11.75H17.5C17.6381 11.75 17.75 11.8619 17.75 12V17.5C17.75 18.1904 17.1904 18.75 16.5 18.75H8C7.30964 18.75 6.75 18.1904 6.75 17.5V12Z"/>
</svg>
