<svg width="24" height="24" viewBox="0 0 24 24" fill="none" xmlns="http://www.w3.org/2000/svg">
<path d="M6 12C6 11.4477 6.44772 11 7 11H8H17.5C18.0523 11 18.5 11.4477 18.5 12V17.5C18.5 18.6046 17.6046 19.5 16.5 19.5H8C6.89543 19.5 6 18.6046 6 17.5V12Z" fill="#1C1C1C"/>
<path d="M7 11C6.44772 11 6 11.4477 6 12V17.5C6 18.6046 6.89543 19.5 8 19.5H16.5C17.6046 19.5 18.5 18.6046 18.5 17.5V12C18.5 11.4477 18.0523 11 17.5 11M7 11H17.5M7 11H8M17.5 11H8M8 11V10.0934C8 8.86493 7.95093 7.54883 8.67416 6.55578C9.24862 5.76699 10.3068 5 12.25 5C14.25 5 15.5 6.5 15.5 6.5" stroke="#1C1C1C" stroke-width="1.5" stroke-linecap="round" stroke-linejoin="round"/>
</svg>
