<svg width="24" height="24" viewBox="0 0 24 24" xmlns="http://www.w3.org/2000/svg">
<path fill-rule="evenodd" clip-rule="evenodd" d="M8.44259 3.25C5.5748 3.25 3.25 5.5748 3.25 8.44259V15.5574C3.25 18.4252 5.5748 20.75 8.44259 20.75H15.5574C18.4252 20.75 20.75 18.4252 20.75 15.5574V8.44259C20.75 5.5748 18.4252 3.25 15.5574 3.25H8.44259ZM7.4793 17.3515C7.07034 17.735 6.74981 18.203 6.53987 18.7227C7.09556 19.0574 7.74659 19.25 8.44259 19.25H15.5574C16.2537 19.25 16.905 19.0573 17.4608 18.7222C16.871 17.2622 15.4534 16.3053 13.8773 16.3056H10.1226C9.14061 16.3054 8.19532 16.6795 7.4793 17.3515ZM4.75 8.44259C4.75 6.40323 6.40323 4.75 8.44259 4.75H15.5574C17.5968 4.75 19.25 6.40323 19.25 8.44259V15.5574C19.25 16.3295 19.013 17.0463 18.6078 17.639C18.3055 17.0736 17.9086 16.5751 17.4416 16.1602C16.4794 15.3055 15.2198 14.8054 13.8773 14.8056H10.1227C8.75932 14.8054 7.44711 15.3246 6.45298 16.2576C6.02565 16.6584 5.66788 17.1256 5.39279 17.6398C4.98722 17.047 4.75 16.3299 4.75 15.5574V8.44259ZM12 6.58333C13.886 6.58333 15.4167 8.11212 15.4167 9.99889V10.4456C15.4167 11.2675 15.1261 12.0216 14.6423 12.6109C14.0155 13.3742 13.0643 13.8611 12 13.8611C11.1789 13.8611 10.4252 13.5713 9.83577 13.0884C9.07134 12.4621 8.58333 11.5109 8.58333 10.4456V9.99889C8.58333 9.3802 8.74792 8.8 9.03565 8.29958C9.3303 7.78713 9.75408 7.35834 10.2625 7.05752C10.7717 6.75624 11.3657 6.58333 12 6.58333ZM10.0833 10.4456V9.99889C10.0833 9.22407 10.5441 8.55634 11.2067 8.25471C11.4484 8.14465 11.7171 8.08333 12 8.08333C13.0583 8.08333 13.9167 8.94136 13.9167 9.99889V10.4456C13.9167 10.7854 13.828 11.1046 13.6726 11.3814C13.3444 11.9659 12.7183 12.3611 12 12.3611C10.9417 12.3611 10.0833 11.5031 10.0833 10.4456Z"/>
</svg>
