<svg width="24" height="24" viewBox="0 0 24 24" xmlns="http://www.w3.org/2000/svg">
<path fill-rule="evenodd" clip-rule="evenodd" d="M3.25 8.44259C3.25 5.5748 5.5748 3.25 8.44259 3.25H15.5574C18.4252 3.25 20.75 5.5748 20.75 8.44259V14.089C22.374 14.8439 23.5012 16.4895 23.5012 18.4C23.5012 21.0241 21.3737 23.1516 18.7495 23.1516C16.9792 23.1516 15.4362 22.1834 14.619 20.75H8.44259C5.5748 20.75 3.25 18.4252 3.25 15.5574V8.44259ZM14.0738 19.25C14.0239 18.9739 13.9979 18.6898 13.9979 18.4C13.9979 17.6663 14.1646 16.9707 14.462 16.3498C14.2706 16.3206 14.0753 16.3055 13.8774 16.3056H10.1227C9.14071 16.3054 8.19548 16.6794 7.47946 17.3513C7.07051 17.7349 6.74981 18.203 6.53987 18.7227C7.09556 19.0574 7.74659 19.25 8.44259 19.25H14.0738ZM5.39279 17.6398C5.66788 17.1256 6.02565 16.6584 6.45298 16.2576C7.44711 15.3246 8.75932 14.8054 10.1227 14.8056M5.39279 17.6398C4.98722 17.047 4.75 16.3299 4.75 15.5574V8.44259C4.75 6.40323 6.40323 4.75 8.44259 4.75H15.5574C17.5968 4.75 19.25 6.40323 19.25 8.44259V13.6744C19.0854 13.6571 18.9184 13.6483 18.7495 13.6483C17.444 13.6483 16.2612 14.1755 15.4031 15.0267C14.9157 14.8821 14.4027 14.8055 13.8773 14.8056H10.1227M8.58333 9.99889C8.58333 8.11212 10.114 6.58333 12 6.58333C13.886 6.58333 15.4167 8.11212 15.4167 9.99889V10.4456C15.4167 12.3323 13.886 13.8611 12 13.8611C10.114 13.8611 8.58333 12.3323 8.58333 10.4456V9.99889ZM12 8.08333C10.9417 8.08333 10.0833 8.94136 10.0833 9.99889V10.4456C10.0833 11.5031 10.9417 12.3611 12 12.3611C13.0583 12.3611 13.9167 11.5031 13.9167 10.4456V9.99889C13.9167 8.94136 13.0583 8.08333 12 8.08333ZM18.7495 15.1483C17.7231 15.1483 16.8079 15.6232 16.2107 16.3682C15.7643 16.925 15.4979 17.6304 15.4979 18.4C15.4979 18.8636 15.5945 19.3027 15.7679 19.6998C16.2703 20.8501 17.4172 21.6516 18.7495 21.6516C20.5452 21.6516 22.0012 20.1957 22.0012 18.4C22.0012 16.9603 21.0648 15.7371 19.7658 15.3101C19.447 15.2053 19.1057 15.1483 18.7495 15.1483ZM18.7495 16.4635C19.1637 16.4635 19.4995 16.7993 19.4995 17.2135V17.714H20C20.4142 17.714 20.75 18.0498 20.75 18.464C20.75 18.8782 20.4142 19.214 20 19.214H19.4995V19.7145C19.4995 20.1287 19.1637 20.4645 18.7495 20.4645C18.3353 20.4645 17.9995 20.1287 17.9995 19.7145V19.214H17.499C17.0847 19.214 16.749 18.8782 16.749 18.464C16.749 18.0498 17.0847 17.714 17.499 17.714H17.9995V17.2135C17.9995 16.7993 18.3353 16.4635 18.7495 16.4635Z"/>
</svg>
