<svg width="24" height="24" viewBox="0 0 24 24" xmlns="http://www.w3.org/2000/svg">
<path fill-rule="evenodd" clip-rule="evenodd" d="M8.44259 4H15.5574C18.011 4 20 5.98902 20 8.44259V15.5574C20 16.8828 19.4196 18.0726 18.4992 18.8865L18.4005 18.7663C17.2637 17.3803 15.5794 16.579 13.8037 16.579H10.1963C8.42058 16.579 6.73633 17.3803 5.59949 18.7662L5.50082 18.8865C4.58037 18.0726 4 16.8828 4 15.5574V8.44259C4 5.98902 5.98902 4 8.44259 4ZM11.9999 7C10.0982 7 8.55488 8.56615 8.55488 10.4988V10.9924C8.55488 12.9251 10.0982 14.4912 11.9999 14.4912C13.9016 14.4912 15.4449 12.9251 15.4449 10.9925V10.4988C15.4449 8.56615 13.9016 7 11.9999 7Z"/>
</svg>
