<svg width="24" height="24" viewBox="0 0 24 24" fill="none" xmlns="http://www.w3.org/2000/svg">
<path fill-rule="evenodd" clip-rule="evenodd" d="M15.5574 4H8.44259C5.98902 4 4 5.98902 4 8.44259V15.5574C4 16.8828 4.58037 18.0726 5.50082 18.8865L5.59949 18.7662C6.73633 17.3803 8.42058 16.579 10.1963 16.579H13.2054C13.3916 15.9502 13.698 15.3725 14.0974 14.8742C15.0104 13.7352 16.42 13 18 13C18.5422 13 19.068 13.087 19.562 13.2494C19.7112 13.2985 19.8573 13.3543 20 13.4167V8.44259C20 5.98902 18.011 4 15.5574 4ZM8.55488 10.4988C8.55488 8.56615 10.0982 7 11.9999 7C13.9016 7 15.4449 8.56615 15.4449 10.4988V10.9925C15.4449 12.9251 13.9016 14.4912 11.9999 14.4912C10.0982 14.4912 8.55488 12.9251 8.55488 10.9924V10.4988Z" fill="#1C1C1C"/>
<path d="M18 17.1105V18.9855M18.9375 18.048H17.0625M18 15C18.3274 15 18.6425 15.0524 18.9375 15.1494C20.1352 15.5431 21 16.6706 21 18C21 19.6568 19.6567 21 18 21C16.7697 21 15.7123 20.2593 15.2495 19.1995C15.089 18.8322 15 18.4265 15 18C15 17.2906 15.2463 16.6387 15.6579 16.1251C16.2078 15.4392 17.0526 15 18 15Z" stroke="#1C1C1C" stroke-linecap="round" stroke-linejoin="round"/>
</svg>
