<svg width="24" height="25" viewBox="0 0 24 25" fill="none" xmlns="http://www.w3.org/2000/svg">
<path d="M18.1653 18.964C17.4666 17.2078 15.7675 16.0553 13.8773 16.0556H10.1227C8.95 16.0554 7.82131 16.502 6.96622 17.3044C6.47207 17.7679 6.08604 18.3345 5.83556 18.964L5.63289 19.4707M12 13.6111C10.5279 13.6111 9.33333 12.4177 9.33333 10.9456V10.4989C9.33333 9.02674 10.5279 7.83333 12 7.83333C13.4721 7.83333 14.6667 9.02674 14.6667 10.4989V10.9456C14.6667 12.4177 13.4721 13.6111 12 13.6111ZM8.44259 20.5H15.5574C18.011 20.5 20 18.511 20 16.0574V8.94259C20 6.48902 18.011 4.5 15.5574 4.5H8.44259C5.98902 4.5 4 6.48902 4 8.94259V16.0574C4 18.511 5.98902 20.5 8.44259 20.5Z" stroke="#AEAFB0" stroke-width="1.5" stroke-linecap="round" stroke-linejoin="round"/>
</svg>
