<svg width="24" height="24" viewBox="0 0 24 24" xmlns="http://www.w3.org/2000/svg">
<path d="M8.5 18.5V12.5H15.5V18.5H8.5Z"/>
<path d="M15.5 5.5H8.5V11.5H15.5V5.5Z"/>
<path d="M7.5 11.5H5.5V9.5H7.5V11.5Z"/>
<path d="M7.5 8.5H5.5V7.5C5.5 6.39543 6.39543 5.5 7.5 5.5V8.5Z"/>
<path d="M7.5 12.5H5.5V14.5H7.5V12.5Z"/>
<path d="M7.5 15.5H5.5V16.5C5.5 17.6046 6.39543 18.5 7.5 18.5V15.5Z"/>
<path d="M18.5 15.5H16.5V18.5C17.6046 18.5 18.5 17.6046 18.5 16.5V15.5Z"/>
<path d="M18.5 14.5H16.5V12.5H18.5V14.5Z"/>
<path d="M18.5 11.5H16.5V9.5H18.5V11.5Z"/>
<path d="M18.5 8.5H16.5V5.5C17.6046 5.5 18.5 6.39543 18.5 7.5V8.5Z"/>
</svg>
