<svg width="24" height="24" viewBox="0 0 24 24" xmlns="http://www.w3.org/2000/svg">
<path fill-rule="evenodd" clip-rule="evenodd" d="M7 5.75C6.30964 5.75 5.75 6.30964 5.75 7V8.25H7.25V5.75H7ZM8.75 5.75V11.5H15.75V5.75H8.75ZM17.25 5.75V8.25H18.75V7C18.75 6.30964 18.1904 5.75 17.5 5.75H17.25ZM18.75 9.75H17.25V11.5H18.75V9.75ZM18.75 13H17.25V14.75H18.75V13ZM18.75 16.25H17.25V18.75H17.5C18.1904 18.75 18.75 18.1904 18.75 17.5V16.25ZM15.75 18.75V13H8.75V18.75H15.75ZM7.25 18.75V16.25H5.75V17.5C5.75 18.1904 6.30964 18.75 7 18.75H7.25ZM5.75 14.75H7.25V13H5.75V14.75ZM5.75 11.5H7.25V9.75H5.75V11.5ZM4.25 7C4.25 5.48122 5.48122 4.25 7 4.25H17.5C19.0188 4.25 20.25 5.48122 20.25 7V17.5C20.25 19.0188 19.0188 20.25 17.5 20.25H7C5.48122 20.25 4.25 19.0188 4.25 17.5V7Z"/>
</svg>
