<svg width="24" height="24" viewBox="0 0 24 24" fill="none" xmlns="http://www.w3.org/2000/svg">
<path fill-rule="evenodd" clip-rule="evenodd" d="M15.5858 5C15.851 5 16.1054 5.10536 16.2929 5.29289C16.9229 5.92286 16.4767 7 15.5858 7H4C4 5.93352 4.98806 5 6.2069 5H15.5858ZM14.031 19C13.4161 18.6588 13 18.003 13 17.25C13 16.1454 13.8954 15.25 15 15.25H17.25H19.5C19.6726 15.25 19.8402 15.2719 20 15.313V9.82759C20 8.7611 19.012 7.89655 17.7931 7.89655H4V17.069C4 18.1355 4.98806 19 6.2069 19H14.031Z" fill="#1C1C1C"/>
<path d="M19.5 17.25H17.25H15" stroke="#1C1C1C" stroke-width="1.5" stroke-linecap="round" stroke-linejoin="round"/>
</svg>
