<svg width="24" height="24" viewBox="0 0 24 24" fill="none" xmlns="http://www.w3.org/2000/svg">
<path fill-rule="evenodd" clip-rule="evenodd" d="M15.5858 5C15.851 5 16.1054 5.10536 16.2929 5.29289C16.9229 5.92286 16.4767 7 15.5858 7H4C4 5.93352 4.98806 5 6.2069 5H15.5858ZM14.3042 19C14.3994 18.7328 14.5415 18.4786 14.7304 18.25C13.9183 17.2679 13.9719 15.8107 14.8913 14.8913C15.8107 13.9719 17.2679 13.9183 18.25 14.7304C18.7539 14.3138 19.3828 14.125 20 14.1641V9.82759C20 8.7611 19.012 7.89655 17.7931 7.89655H4V17.069C4 18.1355 4.98806 19 6.2069 19H14.3042Z" fill="#1C1C1C"/>
<path d="M19.841 16.6591L18.25 18.25M18.25 18.25L16.6591 19.841M18.25 18.25L19.841 19.841M18.25 18.25L16.6591 16.6591" stroke="#1C1C1C" stroke-width="1.5" stroke-linecap="round" stroke-linejoin="round"/>
</svg>
