<svg width="24" height="24" viewBox="0 0 24 24" fill="none" xmlns="http://www.w3.org/2000/svg">
<path fill-rule="evenodd" clip-rule="evenodd" d="M15.5858 5C15.851 5 16.1054 5.10536 16.2929 5.29289C16.9229 5.92286 16.4767 7 15.5858 7H4C4 5.93352 4.98806 5 6.2069 5H15.5858ZM12.4992 19C11.8492 18.1338 11.8175 16.91 12.5 16C13.3284 14.8954 14.8954 14.6716 16 15.5L16.1262 15.5946L17.6019 13.873C18.2135 13.1595 19.14 12.8754 20 13.05V9.82759C20 8.7611 19.012 7.89655 17.7931 7.89655H4V17.069C4 18.1355 4.98806 19 6.2069 19H12.4992Z" fill="#1C1C1C"/>
<path d="M19.5 15.5L16.5 19L14.5 17.5" stroke="#1C1C1C" stroke-width="1.5" stroke-linecap="round" stroke-linejoin="round"/>
</svg>
