<svg width="24" height="24" viewBox="0 0 24 24" xmlns="http://www.w3.org/2000/svg">
<path fill-rule="evenodd" clip-rule="evenodd" d="M6.75 5.75C6.19771 5.75 5.75 6.19771 5.75 6.75C5.75 7.30229 6.19771 7.75 6.75 7.75H16.75V7C16.75 6.30964 16.1904 5.75 15.5 5.75H6.75ZM18.25 7.75V7C18.25 5.48122 17.0188 4.25 15.5 4.25H6.75C5.36929 4.25 4.25 5.36929 4.25 6.75C4.25 6.80432 4.25173 6.85823 4.25514 6.91169C4.25175 6.94065 4.25 6.97012 4.25 7V17.5C4.25 19.0188 5.48122 20.25 7 20.25H17.5C19.0188 20.25 20.25 19.0188 20.25 17.5V8.5C20.25 8.08579 19.9142 7.75 19.5 7.75H18.25ZM5.75 9.04198V17.5C5.75 18.1904 6.30964 18.75 7 18.75H17.5C18.1904 18.75 18.75 18.1904 18.75 17.5V9.25H6.75C6.39445 9.25 6.05623 9.17578 5.75 9.04198ZM16.25 13.5C16.3881 13.5 16.5 13.3881 16.5 13.25C16.5 13.1119 16.3881 13 16.25 13C16.1119 13 16 13.1119 16 13.25C16 13.3881 16.1119 13.5 16.25 13.5ZM15 13.25C15 12.5597 15.5597 12 16.25 12C16.9403 12 17.5 12.5597 17.5 13.25C17.5 13.9403 16.9403 14.5 16.25 14.5C15.5597 14.5 15 13.9403 15 13.25Z"/>
</svg>
