<svg width="24" height="24" viewBox="0 0 24 24" xmlns="http://www.w3.org/2000/svg">
<path fill-rule="evenodd" clip-rule="evenodd" d="M6.75 5.75C6.19771 5.75 5.75 6.19771 5.75 6.75C5.75 7.30229 6.19771 7.75 6.75 7.75H16.75V7C16.75 6.30964 16.1904 5.75 15.5 5.75H6.75ZM18.25 7.75V7C18.25 5.48122 17.0188 4.25 15.5 4.25H6.75C5.36929 4.25 4.25 5.36929 4.25 6.75C4.25 6.80432 4.25173 6.85823 4.25514 6.91169C4.25175 6.94065 4.25 6.97012 4.25 7V17.5C4.25 19.0188 5.48122 20.25 7 20.25H12C12.4142 20.25 12.75 19.9142 12.75 19.5C12.75 19.0858 12.4142 18.75 12 18.75H7C6.30964 18.75 5.75 18.1904 5.75 17.5V9.04198C6.05623 9.17578 6.39445 9.25 6.75 9.25H18.75V12C18.75 12.4142 19.0858 12.75 19.5 12.75C19.9142 12.75 20.25 12.4142 20.25 12V8.5C20.25 8.08579 19.9142 7.75 19.5 7.75H18.25ZM14.25 17.25C14.25 16.8358 14.5858 16.5 15 16.5H19.5C19.9142 16.5 20.25 16.8358 20.25 17.25C20.25 17.6642 19.9142 18 19.5 18H15C14.5858 18 14.25 17.6642 14.25 17.25Z"/>
</svg>
