<svg width="24" height="24" viewBox="0 0 24 24" fill="none" xmlns="http://www.w3.org/2000/svg">
<path fill-rule="evenodd" clip-rule="evenodd" d="M15.5858 5C15.851 5 16.1054 5.10536 16.2929 5.29289C16.9229 5.92286 16.4767 7 15.5858 7H4C4 5.93352 4.98806 5 6.2069 5H15.5858ZM13.2146 19C12.7726 18.5491 12.5 17.9314 12.5 17.25C12.5 15.9498 13.4925 14.8815 14.7613 14.7613C14.8815 13.4925 15.9498 12.5 17.25 12.5C18.5502 12.5 19.6185 13.4925 19.7387 14.7613C19.8273 14.7696 19.9144 14.7826 20 14.8V9.82759C20 8.7611 19.012 7.89655 17.7931 7.89655H4V17.069C4 18.1355 4.98806 19 6.2069 19H13.2146Z" fill="#1C1C1C"/>
<path d="M17.25 15V17.25M17.25 17.25V19.5M17.25 17.25H19.5M17.25 17.25H15" stroke="#1C1C1C" stroke-width="1.5" stroke-linecap="round" stroke-linejoin="round"/>
</svg>
