<svg width="24" height="24" viewBox="0 0 24 24" xmlns="http://www.w3.org/2000/svg">
<path fill-rule="evenodd" clip-rule="evenodd" d="M15.5858 5C15.851 5 16.1054 5.10536 16.2929 5.29289C16.9229 5.92286 16.4767 7 15.5858 7H4C4 5.93352 4.98806 5 6.2069 5H15.5858ZM20 9.82759V17.069C20 18.1355 19.012 19 17.7931 19H6.2069C4.98806 19 4 18.1355 4 17.069V7.89655H17.7931C19.012 7.89655 20 8.7611 20 9.82759ZM16.25 12C15.5597 12 15 12.5597 15 13.25C15 13.9403 15.5597 14.5 16.25 14.5C16.9403 14.5 17.5 13.9403 17.5 13.25C17.5 12.5597 16.9403 12 16.25 12Z"/>
</svg>
